<svg width="24" height="24" viewBox="0 0 24 24" fill="none" xmlns="http://www.w3.org/2000/svg">
<path fill-rule="evenodd" clip-rule="evenodd" d="M21 5.25H3C2.59 5.25 2.25 4.91 2.25 4.5C2.25 4.09 2.59 3.75 3 3.75H21C21.41 3.75 21.75 4.09 21.75 4.5C21.75 4.91 21.41 5.25 21 5.25ZM21 10.25H11.53C11.11 10.25 10.78 9.91 10.78 9.5C10.78 9.09 11.12 8.75 11.53 8.75H21C21.41 8.75 21.75 9.09 21.75 9.5C21.75 9.91 21.41 10.25 21 10.25ZM3 15.25H21C21.41 15.25 21.75 14.91 21.75 14.5C21.75 14.09 21.41 13.75 21 13.75H3C2.59 13.75 2.25 14.09 2.25 14.5C2.25 14.91 2.59 15.25 3 15.25ZM21 20.25H11.53C11.11 20.25 10.78 19.91 10.78 19.5C10.78 19.09 11.12 18.75 11.53 18.75H21C21.41 18.75 21.75 19.09 21.75 19.5C21.75 19.91 21.41 20.25 21 20.25Z" fill="#101C2D"/>
</svg>
