<svg width="24" height="24" viewBox="0 0 24 24" fill="none" xmlns="http://www.w3.org/2000/svg">
<path fill-rule="evenodd" clip-rule="evenodd" d="M3 3.75C2.58579 3.75 2.25 4.08579 2.25 4.5C2.25 4.91421 2.58579 5.25 3 5.25H21C21.4142 5.25 21.75 4.91421 21.75 4.5C21.75 4.08579 21.4142 3.75 21 3.75H3ZM3 13.25C2.58579 13.25 2.25 13.5858 2.25 14C2.25 14.4142 2.58579 14.75 3 14.75H21C21.4142 14.75 21.75 14.4142 21.75 14C21.75 13.5858 21.4142 13.25 21 13.25H3ZM6.25 9C6.25 8.58579 6.58579 8.25 7 8.25H17C17.4142 8.25 17.75 8.58579 17.75 9C17.75 9.41421 17.4142 9.75 17 9.75H7C6.58579 9.75 6.25 9.41421 6.25 9ZM7 17.75C6.58579 17.75 6.25 18.0858 6.25 18.5C6.25 18.9142 6.58579 19.25 7 19.25H17C17.4142 19.25 17.75 18.9142 17.75 18.5C17.75 18.0858 17.4142 17.75 17 17.75H7Z" fill="#101C2D"/>
</svg>
