<svg width="24" height="24" viewBox="0 0 24 24" fill="none" xmlns="http://www.w3.org/2000/svg">
<path fill-rule="evenodd" clip-rule="evenodd" d="M3.75 12C3.75 7.44321 7.44321 3.75 12 3.75C16.5568 3.75 20.25 7.44321 20.25 12C20.25 12.674 20.1692 13.329 20.0168 13.9561L17.2373 11.1766C16.554 10.4932 15.4459 10.4921 14.7624 11.1769L14.762 11.1773L11 14.9393L10.2374 14.1766C9.55398 13.4932 8.44589 13.4921 7.76244 14.1769L7.76203 14.1773L5.22707 16.7123C4.29597 15.3764 3.75 13.752 3.75 12ZM6.1966 17.864C7.68704 19.3392 9.73703 20.25 12 20.25C12.674 20.25 13.3291 20.1692 13.9562 20.0168L10.474 16.5345C10.4725 16.5331 10.4711 16.5317 10.4697 16.5303C10.4682 16.5288 10.4668 16.5274 10.4654 16.526L9.1767 15.2373C9.07822 15.1388 8.92062 15.1398 8.82404 15.2366L8.82336 15.2373L6.1966 17.864ZM12.0607 15.9999L15.523 19.4623C17.2489 18.6461 18.6462 17.2488 19.4623 15.5229L16.1767 12.2373C16.0782 12.1388 15.9206 12.1398 15.824 12.2366L15.8233 12.2373L12.0607 15.9999ZM12 2.25C6.61479 2.25 2.25 6.61479 2.25 12C2.25 17.3852 6.61479 21.75 12 21.75C17.3852 21.75 21.75 17.3852 21.75 12C21.75 6.61479 17.3852 2.25 12 2.25ZM9.7955 8.2045C9.35615 7.76516 8.64385 7.76516 8.2045 8.2045C7.76516 8.64385 7.76516 9.35615 8.2045 9.7955C8.64385 10.2348 9.35615 10.2348 9.7955 9.7955C10.2348 9.35615 10.2348 8.64385 9.7955 8.2045Z" fill="#101C2D"/>
</svg>
