<svg width="24" height="24" viewBox="0 0 24 24" fill="none" xmlns="http://www.w3.org/2000/svg">
<path fill-rule="evenodd" clip-rule="evenodd" d="M4.11608 4.11608C4.60419 3.62797 5.39531 3.62797 5.88342 4.11608C6.37153 4.60419 6.37153 5.39531 5.88342 5.88342C5.39531 6.37153 4.60419 6.37153 4.11608 5.88342C3.62797 5.39531 3.62797 4.60419 4.11608 4.11608ZM3.05542 3.05542C4.12931 1.98153 5.87019 1.98153 6.94408 3.05542C8.01797 4.12931 8.01797 5.87019 6.94408 6.94408C5.87019 8.01797 4.12931 8.01797 3.05542 6.94408C1.98153 5.87019 1.98153 4.12931 3.05542 3.05542ZM4.11608 11.1163C4.60419 10.6282 5.39531 10.6282 5.88342 11.1163C6.37153 11.6044 6.37153 12.3956 5.88342 12.8837C5.39531 13.3718 4.60419 13.3718 4.11608 12.8837C3.62797 12.3956 3.62797 11.6044 4.11608 11.1163ZM3.05542 10.0557C4.12931 8.98177 5.87019 8.98177 6.94408 10.0557C8.01797 11.1296 8.01797 12.8704 6.94408 13.9443C5.87019 15.0182 4.12931 15.0182 3.05542 13.9443C1.98153 12.8704 1.98153 11.1296 3.05542 10.0557ZM5.88342 18.1163C5.39531 17.6282 4.60419 17.6282 4.11608 18.1163C3.62797 18.6044 3.62797 19.3956 4.11608 19.8837C4.60419 20.3718 5.39531 20.3718 5.88342 19.8837C6.37153 19.3956 6.37153 18.6044 5.88342 18.1163ZM6.94408 17.0557C5.87019 15.9818 4.12931 15.9818 3.05542 17.0557C1.98153 18.1296 1.98153 19.8704 3.05542 20.9443C4.12931 22.0182 5.87019 22.0182 6.94408 20.9443C8.01797 19.8704 8.01797 18.1296 6.94408 17.0557ZM10.9998 11.25C10.5855 11.25 10.2498 11.5858 10.2498 12C10.2498 12.4142 10.5855 12.75 10.9998 12.75H20.9998C21.414 12.75 21.7498 12.4142 21.7498 12C21.7498 11.5858 21.414 11.25 20.9998 11.25H10.9998ZM10.2498 5C10.2498 4.58579 10.5855 4.25 10.9998 4.25H20.9998C21.414 4.25 21.7498 4.58579 21.7498 5C21.7498 5.41421 21.414 5.75 20.9998 5.75H10.9998C10.5855 5.75 10.2498 5.41421 10.2498 5ZM10.9998 18.25C10.5855 18.25 10.2498 18.5858 10.2498 19C10.2498 19.4142 10.5855 19.75 10.9998 19.75H20.9998C21.414 19.75 21.7498 19.4142 21.7498 19C21.7498 18.5858 21.414 18.25 20.9998 18.25H10.9998Z" fill="#101C2D"/>
</svg>
