<svg width="24" height="24" viewBox="0 0 24 24" fill="none" xmlns="http://www.w3.org/2000/svg">
<path fill-rule="evenodd" clip-rule="evenodd" d="M5.53701 3.30711C5.81727 3.4232 6 3.69668 6 4.00002V8.25002H6.5C6.91421 8.25002 7.25 8.58581 7.25 9.00002C7.25 9.41424 6.91421 9.75002 6.5 9.75002H5.25H4C3.58579 9.75002 3.25 9.41424 3.25 9.00002C3.25 8.58581 3.58579 8.25002 4 8.25002H4.5V5.80907C4.20552 6.07291 3.75266 6.06334 3.46967 5.78035C3.17678 5.48746 3.17678 5.01259 3.46967 4.71969L4.71967 3.46969C4.93417 3.25519 5.25676 3.19103 5.53701 3.30711ZM3.25 15C3.25 14.5858 3.58579 14.25 4 14.25H6.5C6.91421 14.25 7.25 14.5858 7.25 15V17C7.25 17.2635 7.11178 17.5076 6.88587 17.6431L4.75 18.9247V19.25H6.75C7.16421 19.25 7.5 19.5858 7.5 20C7.5 20.4142 7.16421 20.75 6.75 20.75H4C3.58579 20.75 3.25 20.4142 3.25 20V18.5C3.25 18.2366 3.38822 17.9924 3.61413 17.8569L5.75 16.5754V15.75H4C3.58579 15.75 3.25 15.4142 3.25 15ZM11 11.25C10.5858 11.25 10.25 11.5858 10.25 12C10.25 12.4142 10.5858 12.75 11 12.75H21C21.4142 12.75 21.75 12.4142 21.75 12C21.75 11.5858 21.4142 11.25 21 11.25H11ZM10.25 5.00002C10.25 4.58581 10.5858 4.25002 11 4.25002H21C21.4142 4.25002 21.75 4.58581 21.75 5.00002C21.75 5.41424 21.4142 5.75002 21 5.75002H11C10.5858 5.75002 10.25 5.41424 10.25 5.00002ZM11 18.25C10.5858 18.25 10.25 18.5858 10.25 19C10.25 19.4142 10.5858 19.75 11 19.75H21C21.4142 19.75 21.75 19.4142 21.75 19C21.75 18.5858 21.4142 18.25 21 18.25H11Z" fill="#101C2D"/>
</svg>
