<svg width="24" height="24" viewBox="0 0 24 24" fill="none" xmlns="http://www.w3.org/2000/svg">
<path fill-rule="evenodd" clip-rule="evenodd" d="M4.25 10C4.25 14.27 7.73 17.75 12 17.75C16.27 17.75 19.75 14.27 19.75 10V3C19.75 2.59 19.41 2.25 19 2.25C18.59 2.25 18.25 2.59 18.25 3V10C18.25 13.45 15.45 16.25 12 16.25C8.55 16.25 5.75 13.45 5.75 10V3C5.75 2.59 5.41 2.25 5 2.25C4.59 2.25 4.25 2.59 4.25 3V10ZM4.25 21C4.25 21.41 4.59 21.75 5 21.75H19C19.41 21.75 19.75 21.41 19.75 21C19.75 20.59 19.41 20.25 19 20.25H5C4.59 20.25 4.25 20.59 4.25 21Z" fill="#101C2D"/>
</svg>
