<svg width="24" height="24" viewBox="0 0 24 24" fill="none" xmlns="http://www.w3.org/2000/svg">
<path fill-rule="evenodd" clip-rule="evenodd" d="M9.16259 20.2501L13.2876 3.75012H9.62013C9.21013 3.75012 8.88013 3.41012 8.88013 3.00012C8.88013 2.59012 9.22013 2.25012 9.63013 2.25012H14.1924C14.2292 2.24738 14.2665 2.24733 14.3041 2.25012H18.8801C19.2901 2.25012 19.6301 2.59012 19.6301 3.00012C19.6301 3.41012 19.2901 3.75012 18.8801 3.75012H14.8376L10.7126 20.2501H14.3701C14.7801 20.2501 15.1201 20.5901 15.1201 21.0001C15.1201 21.4101 14.7901 21.7501 14.3801 21.7501H5.12012C4.71012 21.7501 4.37012 21.4101 4.37012 21.0001C4.37012 20.5901 4.71012 20.2501 5.12012 20.2501H9.16259Z" fill="#101C2D"/>
</svg>
