<svg width="500" height="500" viewBox="0 0 500 500" fill="none" xmlns="http://www.w3.org/2000/svg">
<path d="M243 482.04C356.136 482.04 447.85 434.672 447.85 376.24C447.85 317.808 356.136 270.44 243 270.44C129.865 270.44 38.1504 317.808 38.1504 376.24C38.1504 434.672 129.865 482.04 243 482.04Z" fill="#F5F5F5"/>
<path d="M328.911 425.22C366.709 425.22 397.351 407.531 397.351 385.71C397.351 363.889 366.709 346.2 328.911 346.2C291.112 346.2 260.471 363.889 260.471 385.71C260.471 407.531 291.112 425.22 328.911 425.22Z" fill="#E6E6E6"/>
<path d="M100.83 407.82C99.9292 407.802 99.0608 407.48 98.3656 406.906C97.6705 406.333 97.1893 405.541 97.0003 404.66L96.1203 400C94.0928 399.625 92.0893 399.131 90.1203 398.52H90.0003L81.7503 402.34C81.1461 402.609 80.4915 402.745 79.8303 402.74C79.0127 402.747 78.207 402.543 77.4903 402.15L69.2803 397.4C68.7866 397.135 68.3697 396.748 68.07 396.274C67.7704 395.801 67.5981 395.258 67.5699 394.699C67.5417 394.14 67.6586 393.582 67.9092 393.081C68.1599 392.581 68.5357 392.153 69.0003 391.84L74.0003 388.26C73.5491 387.659 73.135 387.031 72.7603 386.38L62.2903 385.72C61.3439 385.657 60.4563 385.239 59.8053 384.549C59.1544 383.859 58.7883 382.948 58.7803 382V375.89C58.781 374.938 59.1445 374.023 59.7966 373.33C60.4487 372.637 61.3405 372.218 62.2903 372.16L72.7603 371.49C73.1371 370.84 73.5511 370.212 74.0003 369.61L69.0003 366C68.5359 365.686 68.1603 365.257 67.91 364.755C67.6596 364.254 67.5428 363.696 67.571 363.136C67.5991 362.576 67.7712 362.033 68.0706 361.559C68.3701 361.085 68.7867 360.696 69.2803 360.43L77.4903 355.69C78.207 355.296 79.0127 355.093 79.8303 355.1C80.4919 355.09 81.1476 355.227 81.7503 355.5L90.0003 359.35H90.1503C92.1008 358.753 94.0841 358.269 96.0903 357.9L96.9803 353.22C97.1551 352.333 97.6306 351.533 98.3264 350.955C99.0223 350.378 99.896 350.058 100.8 350.05H112.88C113.785 350.058 114.658 350.378 115.354 350.955C116.05 351.533 116.525 352.333 116.7 353.22L117.59 357.9C119.619 358.27 121.623 358.764 123.59 359.38C123.53 359.38 123.59 359.38 123.59 359.38H123.7L131.94 355.56C132.548 355.291 133.206 355.155 133.87 355.16C134.685 355.153 135.487 355.356 136.2 355.75L144.42 360.49C144.914 360.756 145.33 361.145 145.63 361.619C145.929 362.093 146.101 362.636 146.13 363.196C146.158 363.756 146.041 364.314 145.791 364.815C145.54 365.317 145.165 365.746 144.7 366.06L139.7 369.64C140.152 370.239 140.57 370.863 140.95 371.51L151.42 372.18C152.37 372.238 153.262 372.657 153.914 373.35C154.566 374.043 154.93 374.958 154.93 375.91V382C154.927 382.952 154.563 383.867 153.912 384.561C153.261 385.255 152.37 385.677 151.42 385.74L140.95 386.4C140.572 387.051 140.155 387.679 139.7 388.28L144.7 391.86C145.165 392.173 145.541 392.6 145.791 393.101C146.042 393.602 146.159 394.16 146.131 394.719C146.102 395.278 145.93 395.821 145.631 396.294C145.331 396.768 144.914 397.155 144.42 397.42L136.2 402.17C135.487 402.564 134.685 402.767 133.87 402.76C133.206 402.765 132.548 402.628 131.94 402.36L123.7 398.54H123.55C121.601 399.144 119.617 399.631 117.61 400L116.72 404.68C116.542 405.564 116.065 406.361 115.37 406.936C114.674 407.511 113.803 407.83 112.9 407.84L100.83 407.82ZM94.3103 373.22C91.5003 374.85 89.8903 376.93 89.8903 378.94C89.8903 380.95 91.5003 383.03 94.3103 384.66C98.1715 386.718 102.496 387.751 106.87 387.66C111.242 387.755 115.564 386.721 119.42 384.66C122.23 383.04 123.84 380.96 123.84 378.95C123.84 376.94 122.23 374.86 119.42 373.23C115.562 371.173 111.241 370.14 106.87 370.23C102.497 370.137 98.1727 371.167 94.3103 373.22Z" fill="#E0E0E0"/>
<path d="M196.68 361.61L193.06 357.8C192.15 357.85 191.24 357.88 190.34 357.88C189.44 357.88 188.51 357.88 187.66 357.8L183.82 361.85C183.437 362.224 182.984 362.518 182.485 362.714C181.987 362.91 181.455 363.004 180.92 362.99C180.56 362.991 180.201 362.951 179.85 362.87L171 360.75C170.479 360.631 169.991 360.397 169.572 360.064C169.153 359.732 168.814 359.31 168.58 358.83C168.386 358.407 168.289 357.945 168.298 357.479C168.306 357.014 168.42 356.556 168.63 356.14L170.12 353.19C169.28 352.72 168.48 352.19 167.74 351.72L159.33 353.13C159.131 353.162 158.931 353.179 158.73 353.18C158.069 353.168 157.42 353.002 156.833 352.697C156.247 352.392 155.739 351.954 155.35 351.42L152 346.74C151.59 346.152 151.361 345.457 151.34 344.74C151.346 344.068 151.565 343.416 151.966 342.876C152.366 342.337 152.928 341.939 153.57 341.74L160.14 339.66V339L153.8 337C153.125 336.819 152.522 336.433 152.074 335.896C151.627 335.359 151.356 334.697 151.3 334V333.83C151.298 333.19 151.502 332.566 151.88 332.05L155.54 326.95C155.919 326.462 156.409 326.071 156.969 325.809C157.528 325.546 158.142 325.42 158.76 325.44C158.997 325.437 159.235 325.454 159.47 325.49L167.75 326.89C168.36 326.46 169.02 326.05 169.75 325.66L170.19 325.42L168.81 322.68C168.566 322.202 168.43 321.676 168.41 321.14V320.77V320.64C168.493 319.982 168.777 319.365 169.222 318.873C169.668 318.382 170.253 318.038 170.9 317.89L180.06 315.7C180.341 315.631 180.63 315.597 180.92 315.6C182.088 315.653 183.191 316.155 184 317L187.63 320.81C188.56 320.81 189.49 320.74 190.41 320.74C191.33 320.74 192.19 320.74 193.02 320.81L196.86 316.81C197.243 316.433 197.698 316.136 198.198 315.939C198.698 315.741 199.232 315.646 199.77 315.66C200.124 315.661 200.476 315.705 200.82 315.79L209.66 317.9C210.407 318.048 211.083 318.443 211.578 319.021C212.073 319.6 212.359 320.329 212.39 321.09C212.391 321.582 212.278 322.068 212.06 322.51L210.57 325.51L211.05 325.78C211.73 326.17 212.38 326.57 212.93 326.96L221.35 325.54C221.546 325.525 221.743 325.525 221.94 325.54C222.6 325.555 223.248 325.722 223.834 326.027C224.42 326.332 224.929 326.768 225.32 327.3L228.64 331.93C229.083 332.529 229.325 333.254 229.33 334V334.43L229.27 334.6C229.164 335.163 228.907 335.686 228.526 336.114C228.146 336.542 227.656 336.859 227.11 337.03L220.6 339C220.6 339.207 220.6 339.417 220.6 339.63L226.99 341.63C227.812 341.879 228.521 342.41 228.99 343.13L229.06 343.24C229.177 343.439 229.271 343.65 229.34 343.87L229.44 344.08L229.58 346.23L228.81 346.69L225.23 351.69C224.854 352.177 224.368 352.567 223.811 352.83C223.255 353.092 222.645 353.219 222.03 353.2C221.789 353.201 221.548 353.181 221.31 353.14L213 351.72C212.222 352.25 211.417 352.741 210.59 353.19L212 356C212.243 356.46 212.376 356.971 212.388 357.492C212.4 358.012 212.291 358.529 212.07 359C211.865 359.443 211.561 359.834 211.181 360.141C210.802 360.448 210.356 360.663 209.88 360.77L200.67 362.98C200.404 363.041 200.132 363.071 199.86 363.07C199.259 363.05 198.669 362.91 198.123 362.659C197.577 362.409 197.087 362.052 196.68 361.61ZM202.49 336.54C200.636 334.873 198.366 333.74 195.92 333.26C194.098 332.832 192.232 332.617 190.36 332.62C184.72 332.62 179.59 334.49 177.6 337.27C177.242 337.694 177.005 338.206 176.913 338.754C176.822 339.301 176.879 339.863 177.08 340.38L177.17 340.6L177.4 341C177.89 341.74 178.514 342.381 179.24 342.89C179.585 343.145 179.946 343.379 180.32 343.59C181.721 344.367 183.226 344.94 184.79 345.29C186.611 345.722 188.478 345.937 190.35 345.93C193.842 345.998 197.297 345.194 200.4 343.59C200.789 343.371 201.163 343.127 201.52 342.86C202.132 342.419 202.672 341.886 203.12 341.28C203.539 340.787 203.791 340.175 203.841 339.53C203.892 338.886 203.737 338.242 203.4 337.69L203.24 337.41L202.99 337.07L202.77 336.8L202.49 336.54Z" fill="#E0E0E0"/>
<path d="M74.1203 361.07C75.3003 347.86 75.9803 335.63 70.6903 316.31C66.2503 300.1 53.0003 283.08 43.1603 283C34.0103 282.94 31.1603 294 38.5803 304.55C46.0003 315.1 62.4203 335.55 62.4803 349.34L64.7903 365.2L74.1203 361.07Z" fill="#2B786C"/>
<path opacity="0.2" d="M74.1203 361.07C75.3003 347.86 75.9803 335.63 70.6903 316.31C66.2503 300.1 53.0003 283.08 43.1603 283C34.0103 282.94 31.1603 294 38.5803 304.55C46.0003 315.1 62.4203 335.55 62.4803 349.34L64.7903 365.2L74.1203 361.07Z" fill="black"/>
<path d="M70.3303 357.42C70.2099 357.378 70.1057 357.3 70.0322 357.196C69.9586 357.092 69.9195 356.967 69.9203 356.84C70.8303 326 55.5903 299 41.8503 290C41.7854 289.958 41.7294 289.904 41.6857 289.841C41.6419 289.778 41.6112 289.706 41.5954 289.631C41.5795 289.555 41.5789 289.477 41.5935 289.402C41.6081 289.326 41.6376 289.254 41.6803 289.19C41.7209 289.124 41.7745 289.067 41.8378 289.022C41.9012 288.978 41.9729 288.947 42.0487 288.931C42.1245 288.915 42.2028 288.915 42.2787 288.93C42.3546 288.945 42.4266 288.976 42.4903 289.02C56.4903 298.14 72.0203 325.54 71.1003 356.85C71.0977 356.927 71.0799 357.004 71.0478 357.074C71.0157 357.145 70.9701 357.208 70.9134 357.261C70.8568 357.314 70.7902 357.356 70.7176 357.383C70.645 357.41 70.5678 357.423 70.4903 357.42H70.3303Z" fill="white"/>
<path d="M61.2799 366.85C61.0799 362.17 57.4499 353.65 50.2099 345.6C42.2099 336.7 30.7999 330.76 29.2099 324.94C27.3299 317.94 33.6199 314.78 43.4099 317.66C55.1699 321.12 67.4099 335.81 67.4899 363.93L61.2799 366.85Z" fill="#2B786C"/>
<path d="M64.2902 362.7C64.1819 362.668 64.0858 362.604 64.0144 362.517C63.943 362.429 63.8998 362.322 63.8902 362.21C61.1702 337.44 45.6702 325.27 37.8902 322.3C37.7462 322.242 37.6304 322.13 37.567 321.989C37.5036 321.847 37.4976 321.686 37.5502 321.54C37.5768 321.467 37.6178 321.4 37.6707 321.343C37.7236 321.287 37.7874 321.241 37.8583 321.209C37.9292 321.178 38.0057 321.16 38.0833 321.159C38.161 321.157 38.2381 321.171 38.3102 321.2C46.9502 324.49 62.3102 336.8 65.0902 362.08C65.1071 362.235 65.0618 362.391 64.9644 362.512C64.8669 362.634 64.7252 362.712 64.5702 362.73C64.476 362.747 64.3788 362.737 64.2902 362.7Z" fill="white"/>
<path d="M374.53 379.94C373.35 366.73 372.67 354.5 377.96 335.18C382.4 318.97 395.66 301.95 405.49 301.88C414.64 301.82 417.49 312.88 410.07 323.43C402.65 333.98 386.24 354.43 386.17 368.22L383.87 384.08L374.53 379.94Z" fill="#2B786C"/>
<path opacity="0.2" d="M374.53 379.94C373.35 366.73 372.67 354.5 377.96 335.18C382.4 318.97 395.66 301.95 405.49 301.88C414.64 301.82 417.49 312.88 410.07 323.43C402.65 333.98 386.24 354.43 386.17 368.22L383.87 384.08L374.53 379.94Z" fill="black"/>
<path d="M377.69 377.52C377.813 377.482 377.92 377.405 377.994 377.3C378.068 377.195 378.106 377.068 378.1 376.94C377.19 346.05 393.1 317.86 406.8 308.89C406.932 308.805 407.026 308.671 407.06 308.517C407.093 308.364 407.065 308.203 406.98 308.07C406.895 307.937 406.761 307.844 406.607 307.81C406.453 307.776 406.293 307.805 406.16 307.89C392.19 317 376 345.66 376.93 377C376.931 377.077 376.948 377.153 376.979 377.224C377.01 377.294 377.054 377.358 377.11 377.411C377.166 377.464 377.232 377.505 377.304 377.533C377.376 377.56 377.453 377.573 377.53 377.57L377.69 377.52Z" fill="white"/>
<path d="M387.37 385.73C387.57 381.04 391.2 372.52 398.44 364.47C406.44 355.57 417.85 349.63 419.44 343.82C421.33 336.82 415.03 333.65 405.25 336.53C393.48 340 381.25 354.69 381.16 382.81L387.37 385.73Z" fill="#2B786C"/>
<path d="M384.36 381.58C384.469 381.546 384.566 381.481 384.637 381.391C384.708 381.302 384.751 381.194 384.76 381.08C387.48 356.31 402.98 344.15 410.76 341.17C410.832 341.143 410.898 341.103 410.954 341.05C411.01 340.998 411.055 340.935 411.086 340.866C411.118 340.796 411.135 340.721 411.138 340.644C411.14 340.568 411.127 340.491 411.1 340.42C411.073 340.347 411.032 340.28 410.98 340.223C410.927 340.166 410.863 340.121 410.792 340.089C410.721 340.057 410.645 340.04 410.567 340.039C410.489 340.037 410.412 340.051 410.34 340.08C401.7 343.36 386.34 355.67 383.56 380.96C383.552 381.036 383.559 381.113 383.58 381.187C383.602 381.26 383.638 381.329 383.687 381.388C383.735 381.448 383.795 381.497 383.862 381.534C383.93 381.57 384.004 381.592 384.08 381.6C384.174 381.614 384.269 381.608 384.36 381.58Z" fill="white"/>
<path d="M61.4102 367.16V378.56C61.4135 378.834 61.5171 379.097 61.7013 379.3C61.8856 379.503 62.1378 379.631 62.4102 379.66L70.2102 380.15V391.15C70.2181 391.269 70.2575 391.383 70.3243 391.482C70.391 391.58 70.4828 391.659 70.5902 391.71L78.8102 396.45C79.1197 396.605 79.4643 396.678 79.8102 396.66C80.0745 396.664 80.3368 396.613 80.5802 396.51L89.0002 392.65C89.6096 392.414 90.2777 392.376 90.9102 392.54C93.0266 393.197 95.1848 393.712 97.3702 394.08C97.6621 394.14 97.9309 394.282 98.1452 394.489C98.3595 394.696 98.5103 394.96 98.5802 395.25L99.5802 400.74C99.6379 401.024 99.7981 401.277 100.03 401.45C100.249 401.625 100.52 401.724 100.8 401.73H112.88C113.132 401.718 113.373 401.627 113.57 401.47C113.627 401.431 113.678 401.384 113.72 401.33C113.783 401.288 113.841 401.238 113.89 401.18V401.05C113.96 400.94 114.07 400.85 114.09 400.73L115.09 395.24C115.16 394.95 115.311 394.686 115.525 394.479C115.739 394.272 116.008 394.13 116.3 394.07C118.486 393.702 120.644 393.187 122.76 392.53C123.393 392.366 124.061 392.404 124.67 392.64L133 396.5C133.162 396.552 133.33 396.582 133.5 396.59C133.597 396.595 133.694 396.595 133.79 396.59H134.01C134.284 396.578 134.553 396.51 134.8 396.39L143.01 391.65C143.13 391.584 143.23 391.487 143.3 391.37C143.338 391.307 143.359 391.234 143.36 391.16V386.49V380.18L151.01 379.69H151.16C151.24 379.69 151.28 379.62 151.35 379.6C151.546 379.567 151.73 379.48 151.88 379.35C151.953 379.229 152.007 379.097 152.04 378.96C152.04 378.85 152.18 378.75 152.18 378.62V372.52V368.24V362.14C152.181 361.866 152.079 361.601 151.893 361.399C151.708 361.197 151.453 361.073 151.18 361.05L143.38 360.55V349.55C143.379 349.426 143.342 349.305 143.275 349.2C143.208 349.096 143.113 349.013 143 348.96L134.79 344.22C134.51 344.079 134.202 343.999 133.889 343.985C133.575 343.971 133.262 344.024 132.97 344.14L124.74 348C124.134 348.236 123.469 348.274 122.84 348.11C120.72 347.454 118.559 346.939 116.37 346.57C116.079 346.511 115.811 346.369 115.598 346.161C115.386 345.954 115.237 345.69 115.17 345.4L114.17 339.92C114.108 339.643 113.956 339.394 113.736 339.213C113.517 339.032 113.244 338.929 112.96 338.92H100.83C100.545 338.928 100.27 339.031 100.049 339.212C99.8287 339.393 99.6742 339.642 99.6102 339.92L98.6102 345.4C98.54 345.688 98.3903 345.95 98.1781 346.157C97.9659 346.364 97.6998 346.507 97.4102 346.57C95.2215 346.938 93.06 347.453 90.9402 348.11C90.2985 348.283 89.6182 348.244 89.0002 348L80.6702 344.14C80.3784 344.024 80.0653 343.971 79.7516 343.985C79.4378 343.999 79.1306 344.079 78.8502 344.22L70.6302 348.96C70.517 349.014 70.4213 349.099 70.3541 349.206C70.2869 349.312 70.2509 349.434 70.2502 349.56V360.5L62.4602 361C62.1878 361.025 61.9345 361.15 61.7496 361.352C61.5647 361.553 61.4615 361.817 61.4602 362.09V367C61.4405 367.052 61.4238 367.106 61.4102 367.16ZM93.0002 371C100.66 366.58 113.09 366.58 120.76 371C121.34 371.34 121.87 371.68 122.37 372C121.854 372.381 121.317 372.731 120.76 373.05C113.09 377.48 100.66 377.48 93.0002 373.05C92.4429 372.733 91.9053 372.382 91.3902 372C91.8702 371.72 92.4002 371.38 93.0002 371Z" fill="#37474F"/>
<path d="M61.4102 367.17V378.57C61.414 378.842 61.5183 379.102 61.7029 379.302C61.8876 379.501 62.1395 379.625 62.4102 379.65L70.2002 380.15V391.15C70.2081 391.269 70.2475 391.383 70.3143 391.482C70.381 391.58 70.4728 391.659 70.5802 391.71L78.8002 396.45C79.1088 396.609 79.4534 396.685 79.8002 396.67C80.0649 396.679 80.3283 396.628 80.5702 396.52L89.0002 392.66C89.2505 392.551 89.5178 392.487 89.7902 392.47C90.1651 392.424 90.5456 392.451 90.9102 392.55C93.0266 393.207 95.1848 393.722 97.3702 394.09C97.5536 394.121 97.7277 394.193 97.8802 394.3V394.36C98.2229 394.556 98.4744 394.88 98.5802 395.26L99.5802 400.75C99.6421 401.032 99.8014 401.284 100.03 401.46C100.249 401.635 100.52 401.734 100.8 401.74H112.88H113.1C113.42 401.674 113.703 401.488 113.89 401.22V401.09C113.96 400.98 114.07 400.89 114.09 400.77L115.09 395.28C115.158 394.971 115.327 394.693 115.57 394.49C115.773 394.306 116.022 394.182 116.29 394.13C118.476 393.762 120.634 393.247 122.75 392.59C123.168 392.478 123.604 392.458 124.03 392.53C124.246 392.55 124.458 392.601 124.66 392.68L132.99 396.53C133.152 396.582 133.32 396.612 133.49 396.62C133.936 396.683 134.39 396.606 134.79 396.4L143 391.66C143.063 391.622 143.124 391.578 143.18 391.53C143.227 391.48 143.27 391.426 143.31 391.37C143.355 391.294 143.379 391.208 143.38 391.12V380.12L144.81 380.03L151.04 379.63H151.18C151.449 379.606 151.7 379.483 151.884 379.286C152.069 379.088 152.174 378.83 152.18 378.56V368.16C152.181 368.434 152.079 368.699 151.893 368.901C151.708 369.103 151.453 369.227 151.18 369.25L140.23 369.95C139.923 369.991 139.629 370.102 139.372 370.276C139.115 370.449 138.902 370.68 138.75 370.95C138.107 372.114 137.328 373.199 136.43 374.18C136.338 374.269 136.268 374.378 136.223 374.498C136.179 374.618 136.162 374.746 136.173 374.874C136.185 375.001 136.225 375.124 136.29 375.234C136.355 375.344 136.444 375.439 136.55 375.51L143.06 380.19C143.164 380.246 143.249 380.33 143.307 380.432C143.364 380.535 143.392 380.652 143.385 380.769C143.379 380.886 143.339 381 143.271 381.095C143.203 381.191 143.109 381.266 143 381.31L134.89 386C134.61 386.143 134.303 386.224 133.989 386.238C133.675 386.252 133.361 386.198 133.07 386.08L124.74 382.22C124.131 381.984 123.463 381.945 122.83 382.11C120.714 382.769 118.556 383.283 116.37 383.65C116.08 383.711 115.812 383.853 115.6 384.06C115.387 384.267 115.238 384.531 115.17 384.82L114.17 390.3C114.108 390.577 113.956 390.826 113.736 391.007C113.517 391.188 113.244 391.291 112.96 391.3H100.83C100.545 391.292 100.27 391.189 100.049 391.008C99.8287 390.827 99.6742 390.578 99.6102 390.3L98.6102 384.82C98.5389 384.533 98.3888 384.271 98.1768 384.064C97.9648 383.857 97.6993 383.714 97.4102 383.65C95.2213 383.283 93.0597 382.769 90.9402 382.11C90.3077 381.946 89.6396 381.984 89.0302 382.22L80.7002 386.08C80.4107 386.199 80.0989 386.253 79.7864 386.239C79.4739 386.225 79.1681 386.144 78.8902 386L70.6702 381.26C70.5608 381.218 70.466 381.144 70.3972 381.049C70.3283 380.954 70.2884 380.842 70.282 380.724C70.2757 380.607 70.3033 380.491 70.3615 380.389C70.4197 380.287 70.506 380.204 70.6102 380.15L77.1302 375.46C77.2365 375.388 77.3255 375.292 77.3907 375.182C77.4559 375.071 77.4957 374.947 77.5072 374.818C77.5186 374.69 77.5015 374.561 77.4571 374.44C77.4127 374.32 77.342 374.21 77.2502 374.12C76.3503 373.141 75.5682 372.061 74.9202 370.9C74.7688 370.631 74.5574 370.401 74.3024 370.228C74.0474 370.054 73.7557 369.942 73.4502 369.9L62.5002 369.21C62.2278 369.181 61.9756 369.053 61.7913 368.85C61.6071 368.647 61.5035 368.384 61.5002 368.11V366.89C61.4625 366.981 61.4324 367.074 61.4102 367.17Z" fill="#263238"/>
<path d="M70.25 349.53V360.47L73.41 360.27C73.7155 360.228 74.0072 360.116 74.2622 359.942C74.5172 359.769 74.7287 359.539 74.88 359.27C75.5256 358.108 76.3078 357.027 77.21 356.05C77.3018 355.96 77.3725 355.85 77.4169 355.73C77.4614 355.609 77.4785 355.48 77.467 355.352C77.4555 355.223 77.4158 355.099 77.3506 354.988C77.2854 354.878 77.1964 354.782 77.09 354.71L70.57 350.03C70.4827 349.971 70.409 349.894 70.3539 349.805C70.2987 349.715 70.2633 349.614 70.25 349.51V349.53Z" fill="#263238"/>
<path d="M136.53 356.07C137.43 357.046 138.209 358.127 138.85 359.29C139.002 359.56 139.215 359.791 139.472 359.964C139.729 360.138 140.022 360.249 140.33 360.29L143.48 360.49V349.49C143.467 349.599 143.432 349.703 143.375 349.797C143.318 349.89 143.241 349.969 143.15 350.03L136.64 354.71C136.531 354.783 136.439 354.88 136.373 354.993C136.306 355.106 136.266 355.233 136.256 355.363C136.245 355.494 136.264 355.626 136.312 355.748C136.359 355.87 136.434 355.981 136.53 356.07Z" fill="#263238"/>
<path d="M133.07 344.11L124.74 348C124.134 348.236 123.469 348.274 122.84 348.11C120.72 347.454 118.558 346.939 116.37 346.57C116.079 346.511 115.811 346.369 115.598 346.161C115.385 345.954 115.237 345.69 115.17 345.4L114.17 339.92C114.108 339.643 113.955 339.394 113.736 339.213C113.517 339.032 113.244 338.929 112.96 338.92H100.83C100.544 338.928 100.27 339.031 100.049 339.212C99.8283 339.393 99.6738 339.642 99.6098 339.92L98.6098 345.4C98.5396 345.688 98.3899 345.95 98.1777 346.157C97.9655 346.364 97.6994 346.507 97.4098 346.57C95.2211 346.938 93.0596 347.453 90.9398 348.11C90.2988 348.29 89.6163 348.251 88.9998 348L80.6698 344.14C80.378 344.024 80.0649 343.971 79.7512 343.985C79.4375 343.999 79.1302 344.079 78.8498 344.22L70.6298 348.96C70.5239 349.01 70.4344 349.09 70.3717 349.189C70.3091 349.288 70.2759 349.403 70.2759 349.52C70.2759 349.637 70.3091 349.752 70.3717 349.851C70.4344 349.95 70.5239 350.03 70.6298 350.08L77.1398 354.76C77.2461 354.832 77.3351 354.928 77.4003 355.038C77.4655 355.149 77.5053 355.273 77.5168 355.402C77.5283 355.53 77.5112 355.659 77.4667 355.78C77.4223 355.9 77.3516 356.01 77.2598 356.1C76.3567 357.076 75.5744 358.157 74.9298 359.32C74.7774 359.59 74.5645 359.821 74.3076 359.994C74.0508 360.168 73.7571 360.279 73.4498 360.32L62.5098 361.02C62.2374 361.045 61.9841 361.17 61.7992 361.372C61.6143 361.573 61.5111 361.837 61.5098 362.11V368.22C61.5155 368.492 61.6202 368.753 61.8042 368.954C61.9883 369.154 62.2391 369.281 62.5098 369.31L73.3998 370C73.7071 370.041 74.0008 370.152 74.2576 370.326C74.5145 370.499 74.7274 370.73 74.8798 371C75.5244 372.163 76.3067 373.244 77.2098 374.22C77.3016 374.31 77.3723 374.42 77.4167 374.54C77.4612 374.661 77.4783 374.79 77.4668 374.918C77.4553 375.047 77.4155 375.171 77.3503 375.282C77.2851 375.393 77.1961 375.488 77.0898 375.56L70.5798 380.25C70.4733 380.299 70.3831 380.377 70.3198 380.475C70.2565 380.574 70.2229 380.688 70.2229 380.805C70.2229 380.922 70.2565 381.037 70.3198 381.135C70.3831 381.233 70.4733 381.311 70.5798 381.36L78.8498 386C79.1302 386.141 79.4375 386.222 79.7512 386.235C80.0649 386.249 80.378 386.196 80.6698 386.08L88.9998 382.25C89.6092 382.014 90.2773 381.976 90.9098 382.14C93.0293 382.799 95.1909 383.313 97.3798 383.68C97.6694 383.743 97.9355 383.886 98.1477 384.093C98.3599 384.3 98.5096 384.562 98.5798 384.85L99.5798 390.34C99.6438 390.618 99.7983 390.867 100.019 391.048C100.24 391.229 100.514 391.332 100.8 391.34H112.88C113.164 391.331 113.437 391.228 113.656 391.047C113.875 390.866 114.028 390.617 114.09 390.34L115.09 384.85C115.157 384.561 115.305 384.296 115.518 384.089C115.731 383.881 115.999 383.74 116.29 383.68C118.478 383.311 120.64 382.796 122.76 382.14C123.389 381.976 124.054 382.014 124.66 382.25L132.99 386.11C133.282 386.226 133.595 386.279 133.908 386.265C134.222 386.252 134.529 386.171 134.81 386.03L143.02 381.29C143.129 381.248 143.224 381.174 143.293 381.079C143.362 380.984 143.402 380.872 143.408 380.754C143.414 380.637 143.387 380.521 143.328 380.419C143.27 380.317 143.184 380.234 143.08 380.18L136.57 375.49C136.464 375.419 136.375 375.324 136.31 375.214C136.244 375.104 136.205 374.981 136.193 374.854C136.182 374.726 136.199 374.598 136.243 374.478C136.287 374.358 136.358 374.249 136.45 374.16C137.348 373.179 138.127 372.094 138.77 370.93C138.922 370.66 139.135 370.429 139.392 370.256C139.649 370.082 139.942 369.971 140.25 369.93L151.2 369.23C151.473 369.207 151.728 369.083 151.913 368.881C152.098 368.679 152.201 368.414 152.2 368.14V362.04C152.201 361.766 152.098 361.501 151.913 361.299C151.728 361.097 151.473 360.973 151.2 360.95L140.25 360.25C139.942 360.209 139.649 360.098 139.392 359.924C139.135 359.751 138.922 359.52 138.77 359.25C138.129 358.087 137.35 357.006 136.45 356.03C136.358 355.94 136.287 355.83 136.243 355.71C136.198 355.589 136.181 355.46 136.193 355.332C136.204 355.203 136.244 355.079 136.309 354.969C136.374 354.858 136.463 354.762 136.57 354.69L143.08 350.01C143.183 349.954 143.269 349.87 143.326 349.768C143.384 349.665 143.411 349.548 143.405 349.431C143.399 349.314 143.359 349.2 143.291 349.105C143.223 349.009 143.129 348.934 143.02 348.89L134.81 344.15C134.537 344.026 134.243 343.959 133.944 343.952C133.645 343.946 133.348 343.999 133.07 344.11ZM120.75 357.11C128.41 361.53 128.41 368.71 120.75 373.11C113.09 377.51 100.65 377.54 92.9898 373.11C85.3298 368.68 85.3198 361.51 92.9898 357.11C100.66 352.71 113.08 352.67 120.75 357.1V357.11Z" fill="#455A64"/>
<path d="M143.49 380.72C143.483 380.609 143.449 380.501 143.392 380.405C143.334 380.309 143.255 380.229 143.16 380.17L139.88 377.82V370.06C140.023 370 140.175 369.963 140.33 369.95L151.28 369.25C151.553 369.227 151.808 369.103 151.993 368.901C152.178 368.699 152.281 368.434 152.28 368.16V378.58C152.274 378.85 152.168 379.108 151.984 379.306C151.799 379.503 151.549 379.626 151.28 379.65H151.14L144.91 380.05L143.48 380.14C143.48 380.14 143.49 380.93 143.49 380.72Z" fill="#37474F"/>
<path d="M124.11 382.09C124.327 382.112 124.539 382.166 124.74 382.25L133.07 386.11C133.409 386.25 133.778 386.298 134.14 386.25V396.65C133.954 396.67 133.766 396.67 133.58 396.65C133.41 396.642 133.242 396.612 133.08 396.56L124.75 392.71C124.548 392.631 124.336 392.581 124.12 392.56L124.11 382.09Z" fill="#37474F"/>
<path d="M114 390.73C114.075 390.607 114.126 390.472 114.15 390.33L115.15 384.85C115.173 384.7 115.228 384.557 115.31 384.43V394.84C115.227 394.963 115.172 395.103 115.15 395.25L114.15 400.74C114.118 400.836 114.067 400.924 114 401V390.73Z" fill="#37474F"/>
<path opacity="0.15" d="M98.4102 384.43C98.484 384.561 98.5379 384.703 98.5702 384.85L99.5702 390.33C99.5963 390.473 99.6507 390.609 99.7302 390.73V401.13C99.6524 401.011 99.5981 400.879 99.5702 400.74L98.5702 395.25C98.5377 395.116 98.4837 394.987 98.4102 394.87V384.43Z" fill="black"/>
<path opacity="0.15" d="M79.6006 386.25C79.9601 386.3 80.3265 386.252 80.6606 386.11L89.0006 382.25C89.202 382.167 89.4141 382.114 89.6306 382.09V392.49C89.4127 392.512 89.1999 392.569 89.0006 392.66L80.6706 396.51C80.4287 396.618 80.1653 396.669 79.9006 396.66H79.6006V386.25Z" fill="black"/>
<path opacity="0.15" d="M62.4598 369.26L73.4098 369.95C73.5644 369.964 73.7161 370.001 73.8598 370.06V377.82L70.5698 380.18C70.4768 380.24 70.3993 380.321 70.3436 380.417C70.288 380.512 70.2558 380.62 70.2498 380.73V380.15L62.4598 379.65C62.1891 379.625 61.9372 379.501 61.7525 379.302C61.5679 379.103 61.4636 378.842 61.4598 378.57V367.17C61.4548 367.093 61.4548 367.017 61.4598 366.94V368.16C61.4631 368.434 61.5667 368.697 61.7509 368.9C61.9352 369.103 62.1874 369.231 62.4598 369.26Z" fill="black"/>
<path d="M226.81 331C226.81 330.926 226.79 330.853 226.75 330.79C226.75 327.04 226.75 320.54 226.75 320.13C226.744 319.944 226.677 319.765 226.56 319.62L223.23 314.98C223.074 314.766 222.867 314.595 222.627 314.481C222.388 314.368 222.124 314.316 221.86 314.33L213.16 315.79C212.57 315.819 211.987 315.654 211.5 315.32C210.95 314.94 210.37 314.58 209.77 314.23V307.31C209.77 307.03 209.51 306.77 209.08 306.66L200.25 304.55C200.007 304.483 199.752 304.473 199.504 304.52C199.256 304.567 199.022 304.669 198.82 304.82L194.6 309.27C194.207 309.583 193.711 309.736 193.21 309.7C191.295 309.58 189.375 309.58 187.46 309.7C186.872 309.683 186.313 309.44 185.9 309.02L182.12 305.02C181.933 304.82 181.702 304.667 181.445 304.573C181.187 304.479 180.912 304.447 180.64 304.48L171.46 306.67C171.322 306.7 171.2 306.778 171.114 306.89C171.028 307.001 170.984 307.139 170.99 307.28C170.99 307.66 170.99 310.95 170.99 314.14C170.27 314.55 169.59 314.98 168.99 315.44C168.531 315.697 167.998 315.788 167.48 315.7L159 314.26C158.762 314.213 158.516 314.224 158.283 314.292C158.049 314.36 157.836 314.483 157.66 314.65L154 319.75C153.95 319.817 153.922 319.897 153.92 319.98C153.92 320.75 153.92 333.14 153.92 333.22C153.925 333.298 153.949 333.374 153.99 333.44C153.99 337.25 153.99 339.98 153.99 340.14C153.999 340.335 154.065 340.522 154.18 340.68L157.51 345.32C157.666 345.533 157.873 345.704 158.113 345.816C158.352 345.928 158.616 345.977 158.88 345.96L167.58 344.5C168.169 344.475 168.751 344.64 169.24 344.97C169.79 345.36 170.37 345.72 170.97 346.07V353C170.97 353.28 171.22 353.56 171.66 353.67L180.49 355.78C180.733 355.847 180.988 355.857 181.236 355.81C181.484 355.763 181.718 355.661 181.92 355.51L186.14 351.06C186.533 350.747 187.029 350.594 187.53 350.63C189.448 350.75 191.372 350.75 193.29 350.63C193.873 350.649 194.427 350.888 194.84 351.3L198.62 355.3C198.807 355.501 199.038 355.655 199.295 355.75C199.552 355.846 199.827 355.88 200.1 355.85L209.28 353.65C209.401 353.628 209.512 353.567 209.597 353.477C209.681 353.387 209.735 353.273 209.75 353.15C209.75 353 209.75 346.15 209.75 346.15C210.47 345.74 211.15 345.31 211.8 344.85C212.26 344.598 212.792 344.506 213.31 344.59L221.74 346.01C221.978 346.06 222.225 346.051 222.459 345.983C222.693 345.915 222.906 345.79 223.08 345.62L226.74 340.52C226.787 340.452 226.814 340.372 226.82 340.29C226.82 340.04 226.82 331.45 226.82 330.98L226.81 331ZM177.65 331.27C178.05 330.98 178.49 330.71 178.96 330.43C185.27 326.79 195.49 326.79 201.8 330.43C202.26 330.7 202.7 330.98 203.09 331.25C202.647 331.581 202.183 331.882 201.7 332.15C197.22 334.7 190.36 335.6 184.18 334.15C182.367 333.734 180.622 333.06 179 332.15C178.529 331.871 178.078 331.56 177.65 331.22V331.27Z" fill="#37474F"/>
<path d="M173 313.08C172.3 313.4 171.62 313.75 171 314.08V307.22C171.01 307.343 171.048 307.463 171.11 307.57L173.31 311.93C173.371 312.024 173.412 312.13 173.429 312.241C173.447 312.352 173.441 312.466 173.412 312.574C173.382 312.683 173.331 312.784 173.26 312.871C173.189 312.958 173.1 313.029 173 313.08Z" fill="#263238"/>
<path opacity="0.15" d="M162.88 324C162.73 324.954 162.73 325.926 162.88 326.88C162.914 327.089 162.873 327.304 162.765 327.486C162.658 327.669 162.49 327.808 162.29 327.88L154.35 330.4C154.241 330.429 154.145 330.495 154.078 330.585C154.011 330.676 153.976 330.787 153.98 330.9V333.49C153.942 333.429 153.918 333.361 153.91 333.29C153.91 328.78 153.91 321.29 153.91 320.58V320C153.91 320.25 154.16 320.48 154.55 320.6L162.05 322.98C162.288 323.021 162.504 323.147 162.656 323.334C162.809 323.522 162.888 323.758 162.88 324Z" fill="black"/>
<path opacity="0.15" d="M167.86 335.21V344.54C167.754 344.525 167.647 344.525 167.54 344.54L158.84 346C158.696 346.033 158.545 346.033 158.4 346V336.69C158.552 336.719 158.708 336.719 158.86 336.69L167.56 335.22L167.86 335.21Z" fill="black"/>
<path d="M170.93 346.11C170.33 345.76 169.75 345.4 169.21 345.02C168.806 344.753 168.343 344.589 167.86 344.54V335.21C168.347 335.26 168.814 335.428 169.22 335.7C170.34 336.456 171.517 337.125 172.74 337.7C173.26 337.95 173.55 338.4 173.38 338.7L171 343.51C170.97 343.572 170.953 343.641 170.95 343.71C170.94 344 170.93 346.11 170.93 346.11Z" fill="#263238"/>
<path opacity="0.15" d="M186.64 341.44V350.76C186.44 350.818 186.256 350.921 186.1 351.06L181.88 355.51C181.662 355.691 181.393 355.8 181.11 355.82V346.5C181.4 346.491 181.678 346.385 181.9 346.2L186.13 341.74C186.275 341.602 186.45 341.5 186.64 341.44Z" fill="black"/>
<path d="M193.801 341.39V350.71C193.624 350.649 193.438 350.619 193.251 350.62C191.332 350.735 189.409 350.735 187.491 350.62C187.202 350.609 186.913 350.653 186.641 350.75V341.43C186.92 341.333 187.215 341.288 187.511 341.3C189.425 341.42 191.346 341.42 193.261 341.3C193.445 341.298 193.627 341.329 193.801 341.39Z" fill="#263238"/>
<path opacity="0.15" d="M199.43 346.45V355.77C199.11 355.68 198.818 355.511 198.58 355.28L194.8 351.28C194.519 351.007 194.176 350.808 193.8 350.7V341.38C194.176 341.493 194.519 341.695 194.8 341.97L198.58 345.97C198.819 346.198 199.111 346.363 199.43 346.45Z" fill="black"/>
<path d="M209.72 343.82V346.12V349.78C209.72 351.44 209.72 353.05 209.72 353.12C209.705 353.243 209.652 353.357 209.567 353.447C209.483 353.537 209.372 353.598 209.25 353.62L200.07 355.82C199.859 355.852 199.644 355.835 199.44 355.77V346.45C199.645 346.525 199.867 346.542 200.08 346.5L209.27 344.3C209.387 344.279 209.494 344.221 209.575 344.135C209.656 344.048 209.707 343.938 209.72 343.82Z" fill="#37474F"/>
<path opacity="0.15" d="M212.69 335.23V344.55C212.365 344.567 212.049 344.663 211.77 344.83C211.12 345.28 210.44 345.71 209.72 346.12C209.72 346.12 209.72 343.99 209.72 343.7C209.719 343.567 209.684 343.436 209.62 343.32L207.42 338.96C207.363 338.869 207.325 338.768 207.308 338.663C207.291 338.557 207.296 338.449 207.322 338.345C207.348 338.241 207.395 338.144 207.46 338.059C207.525 337.974 207.607 337.903 207.7 337.85C209.128 337.195 210.494 336.412 211.78 335.51C212.053 335.337 212.367 335.24 212.69 335.23Z" fill="black"/>
<path d="M226.8 331C226.8 331.46 226.8 340.06 226.8 340.31C226.791 340.392 226.764 340.471 226.72 340.54L223.06 345.64C222.896 345.827 222.674 345.954 222.43 346V336.69C222.68 336.644 222.908 336.517 223.08 336.33L226.73 331.22C226.755 331.19 226.775 331.155 226.787 331.117C226.799 331.079 226.803 331.039 226.8 331Z" fill="#37474F"/>
<path d="M171 307.23C171.001 307.354 171.036 307.474 171.1 307.58L173.29 311.94C173.347 312.03 173.386 312.131 173.404 312.236C173.421 312.341 173.417 312.449 173.392 312.553C173.367 312.657 173.321 312.754 173.257 312.84C173.193 312.925 173.112 312.997 173.02 313.05C172.32 313.38 171.64 313.72 171.02 314.05C170.4 314.38 169.62 314.89 169.02 315.35C168.561 315.607 168.028 315.699 167.51 315.61L159 314.26C158.762 314.213 158.516 314.224 158.283 314.292C158.049 314.36 157.836 314.483 157.66 314.65L154 319.75C153.95 319.817 153.922 319.897 153.92 319.98C153.92 320.22 154.17 320.45 154.56 320.57L162.06 322.95C162.293 322.993 162.503 323.117 162.653 323.3C162.803 323.483 162.884 323.713 162.88 323.95C162.73 324.904 162.73 325.876 162.88 326.83C162.911 327.039 162.87 327.253 162.763 327.435C162.655 327.617 162.488 327.757 162.29 327.83L154.35 330.35C154.241 330.379 154.145 330.445 154.078 330.536C154.011 330.626 153.976 330.737 153.98 330.85C153.99 331.037 154.052 331.217 154.16 331.37L157.5 336.01C157.655 336.224 157.863 336.395 158.102 336.507C158.342 336.619 158.606 336.668 158.87 336.65L167.57 335.18C168.161 335.155 168.744 335.323 169.23 335.66C170.353 336.416 171.534 337.085 172.76 337.66C173.27 337.91 173.56 338.36 173.39 338.66L171 343.51C170.83 343.85 171.12 344.22 171.65 344.35L180.48 346.46C180.721 346.529 180.974 346.541 181.22 346.496C181.467 346.451 181.699 346.35 181.9 346.2L186.13 341.75C186.521 341.434 187.018 341.277 187.52 341.31C189.435 341.425 191.355 341.425 193.27 341.31C193.857 341.322 194.417 341.562 194.83 341.98L198.61 345.98C198.797 346.177 199.027 346.328 199.282 346.421C199.537 346.515 199.81 346.549 200.08 346.52L209.27 344.33C209.371 344.304 209.465 344.253 209.542 344.183C209.62 344.113 209.679 344.025 209.716 343.927C209.752 343.828 209.764 343.723 209.751 343.619C209.738 343.515 209.7 343.416 209.64 343.33L207.44 338.97C207.384 338.879 207.347 338.778 207.331 338.673C207.315 338.567 207.32 338.459 207.346 338.356C207.372 338.253 207.419 338.155 207.483 338.07C207.547 337.985 207.628 337.914 207.72 337.86C209.145 337.206 210.507 336.422 211.79 335.52C212.249 335.264 212.782 335.172 213.3 335.26L221.74 336.67C221.978 336.722 222.225 336.714 222.46 336.646C222.694 336.577 222.907 336.452 223.08 336.28L226.73 331.19C226.784 331.126 226.813 331.044 226.81 330.96C226.81 330.886 226.79 330.813 226.75 330.75C226.612 330.551 226.405 330.409 226.17 330.35L218.67 327.97C218.14 327.8 217.78 327.37 217.85 326.97C218 326.019 218 325.051 217.85 324.1C217.832 323.893 217.879 323.685 217.985 323.506C218.091 323.326 218.25 323.185 218.44 323.1L226.39 320.58C226.496 320.552 226.589 320.489 226.656 320.402C226.723 320.316 226.759 320.21 226.76 320.1C226.754 319.914 226.687 319.735 226.57 319.59L223.24 314.95C223.084 314.736 222.877 314.565 222.637 314.451C222.398 314.338 222.134 314.286 221.87 314.3L213.17 315.76C212.58 315.789 211.997 315.624 211.51 315.29C210.96 314.91 210.38 314.55 209.78 314.2C209.18 313.85 208.61 313.56 207.98 313.26C207.35 312.96 207.17 312.55 207.35 312.26L209.74 307.52C209.758 307.458 209.758 307.392 209.74 307.33C209.74 307.05 209.48 306.79 209.05 306.68L200.22 304.57C199.977 304.504 199.722 304.493 199.474 304.54C199.226 304.587 198.992 304.689 198.79 304.84L194.57 309.29C194.177 309.603 193.681 309.756 193.18 309.72C191.265 309.6 189.345 309.6 187.43 309.72C186.842 309.703 186.283 309.46 185.87 309.04L182.09 305.04C181.903 304.84 181.672 304.687 181.415 304.593C181.157 304.499 180.882 304.467 180.61 304.5L171.43 306.69C171.311 306.725 171.206 306.795 171.129 306.892C171.053 306.989 171.007 307.107 171 307.23ZM204.4 320.86L204.62 321.09L204.78 321.26L205.11 321.66C205.23 321.81 205.34 321.98 205.45 322.14C205.56 322.3 205.58 322.34 205.64 322.44L205.73 322.59C206.313 323.583 206.584 324.729 206.505 325.878C206.427 327.027 206.003 328.126 205.29 329.03C204.679 329.864 203.94 330.597 203.1 331.2C202.66 331.535 202.195 331.835 201.71 332.1C197.23 334.65 190.37 335.55 184.19 334.1C182.377 333.684 180.632 333.01 179.01 332.1C178.541 331.841 178.09 331.55 177.66 331.23C176.519 330.43 175.575 329.38 174.9 328.16C174.863 328.102 174.829 328.042 174.8 327.98C174.8 327.91 174.74 327.85 174.72 327.79C174.7 327.73 174.66 327.66 174.63 327.58C174.264 326.651 174.148 325.642 174.294 324.654C174.439 323.666 174.841 322.734 175.46 321.95C178.87 317.19 188.32 314.95 196.56 316.95C199.477 317.516 202.185 318.868 204.39 320.86H204.4Z" fill="#455A64"/>
<path d="M233.77 98.33C233.696 98.255 233.612 98.191 233.52 98.14L225.62 93.56V56.19C225.653 55.8461 225.615 55.4991 225.508 55.1706C225.401 54.842 225.228 54.5389 225 54.28C224.924 54.2044 224.84 54.1373 224.75 54.08L214.46 48.14C214.267 48.0421 214.052 47.9987 213.837 48.0146C213.622 48.0304 213.415 48.1049 213.24 48.23L201.52 55C200.909 55.3411 200.369 55.7959 199.93 56.34C199.403 57.1074 198.973 57.937 198.65 58.81L175.44 117.27C174.756 119.099 174.417 121.038 174.44 122.99V135.65C174.409 135.995 174.449 136.343 174.555 136.673C174.662 137.003 174.833 137.308 175.06 137.57C175.148 137.655 175.249 137.726 175.36 137.78C175.7 137.96 185.5 143.64 185.58 143.69C185.772 143.797 185.992 143.846 186.211 143.832C186.431 143.818 186.642 143.741 186.82 143.61L201 135.43V135.74C200.969 136.085 201.009 136.433 201.115 136.763C201.222 137.093 201.393 137.398 201.62 137.66C201.686 137.725 201.76 137.782 201.84 137.83C202.2 138.06 212.1 143.76 212.2 143.83C212.389 143.916 212.597 143.952 212.804 143.932C213.011 143.913 213.21 143.84 213.38 143.72L223.55 137.85C224.212 137.397 224.718 136.751 225 136C225.404 135.182 225.616 134.282 225.62 133.37V121.2L232.3 117.35C232.963 116.911 233.476 116.279 233.77 115.54C234.174 114.722 234.386 113.822 234.39 112.91V100.24C234.422 99.8962 234.383 99.5495 234.276 99.2211C234.17 98.8927 233.997 98.5895 233.77 98.33Z" fill="#455A64"/>
<path d="M211.65 110.15V88.16L200.32 116.69L211.65 110.15Z" fill="#37474F"/>
<path d="M211.26 141.68V129.49L201 135.43V135.74C200.97 136.085 201.009 136.433 201.116 136.763C201.222 137.093 201.394 137.398 201.62 137.66C201.687 137.725 201.76 137.782 201.84 137.83C202.2 138.06 212.1 143.76 212.2 143.83C212.083 143.769 211.975 143.692 211.88 143.6C211.652 143.339 211.479 143.034 211.372 142.704C211.266 142.374 211.227 142.025 211.26 141.68Z" fill="#37474F"/>
<path d="M185.34 143.5L185.44 143.61L175.34 137.78C175.238 137.722 175.144 137.652 175.06 137.57C174.83 137.31 174.655 137.005 174.547 136.675C174.439 136.345 174.399 135.996 174.43 135.65V123C174.428 121.947 174.525 120.895 174.72 119.86L185 125.79C184.808 126.819 184.715 127.863 184.72 128.91V141.6C184.687 141.942 184.726 142.288 184.832 142.615C184.939 142.942 185.112 143.243 185.34 143.5Z" fill="#263238"/>
<path d="M210.9 61.57C210.647 61.7801 210.416 62.0146 210.21 62.27C209.683 63.0395 209.256 63.8728 208.94 64.75L185.72 123.2C185.397 124.038 185.156 124.906 185 125.79L174.72 119.85C174.879 118.968 175.124 118.104 175.45 117.27L198.65 58.82C198.971 57.9431 199.401 57.1099 199.93 56.34C200.13 56.0794 200.358 55.8413 200.61 55.63L210.9 61.57Z" fill="#37474F"/>
<path d="M213.36 143.7C213.142 143.863 212.872 143.942 212.6 143.922C212.328 143.902 212.072 143.784 211.88 143.59C211.653 143.33 211.481 143.027 211.374 142.699C211.268 142.37 211.229 142.024 211.26 141.68V129.49L186.81 143.61C186.594 143.772 186.327 143.851 186.057 143.833C185.787 143.814 185.533 143.7 185.34 143.51C185.112 143.249 184.939 142.944 184.832 142.614C184.726 142.284 184.688 141.935 184.72 141.59V128.92C184.698 126.968 185.037 125.029 185.72 123.2L208.93 64.75C209.255 63.8778 209.685 63.0484 210.21 62.28C210.649 61.7309 211.193 61.2753 211.81 60.94L223.53 54.17C223.747 54.0073 224.016 53.9288 224.286 53.949C224.556 53.9693 224.81 54.0869 225 54.28C225.229 54.5388 225.402 54.842 225.509 55.1706C225.615 55.4991 225.653 55.8461 225.62 56.19V102.08L232.3 98.23C232.516 98.066 232.784 97.9858 233.054 98.0042C233.324 98.0226 233.579 98.1383 233.77 98.33C233.998 98.5895 234.17 98.8927 234.277 99.2211C234.384 99.5495 234.422 99.8962 234.39 100.24V112.91C234.386 113.822 234.174 114.722 233.77 115.54C233.476 116.279 232.963 116.911 232.3 117.35L225.62 121.2V133.39C225.613 134.296 225.401 135.188 225 136C224.706 136.739 224.193 137.371 223.53 137.81L213.36 143.7ZM211.65 110.15V88.15L200.32 116.68L211.65 110.15Z" fill="#2B786C"/>
<path d="M171.26 106.87H171.2L159.11 99.87H159.04C153.33 96.62 145.47 97.12 136.79 102.13C119.35 112.2 105.21 136.68 105.21 156.82C105.21 166.82 108.72 173.92 114.41 177.23L126.5 184.23H126.56C132.27 187.49 140.13 187 148.82 181.98C166.26 171.91 180.4 147.43 180.4 127.29C180.46 117.24 177 110.18 171.26 106.87Z" fill="#455A64"/>
<path d="M126.141 183.93L114.471 177.16H114.411C108.731 173.84 105.221 166.78 105.221 156.76C105.221 147.76 108.041 137.93 112.691 128.9L124.781 135.9C120.121 144.9 117.311 154.78 117.311 163.76C117.301 173.56 120.671 180.53 126.141 183.93Z" fill="#37474F"/>
<path d="M171.212 158.401C183.544 137.041 183.546 113.953 171.216 106.834C158.885 99.7155 138.892 111.261 126.559 132.621C114.227 153.982 114.225 177.069 126.556 184.188C138.886 191.307 158.879 179.762 171.212 158.401Z" fill="#2B786C"/>
<path d="M135.27 178.68C125.63 178.68 124.59 167.79 124.59 163.1C124.59 145.96 137.13 124.24 151.97 115.67C155.134 113.678 158.756 112.532 162.49 112.34C172.14 112.34 173.18 123.23 173.18 127.92C173.18 145.06 160.64 166.78 145.79 175.35C142.627 177.344 139.004 178.491 135.27 178.68Z" fill="#FAFAFA"/>
<path d="M141.88 166.09C141.83 166.099 141.779 166.099 141.73 166.09C141.673 166.071 141.62 166.041 141.575 166.001C141.53 165.961 141.494 165.913 141.468 165.859C141.442 165.805 141.426 165.746 141.423 165.686C141.42 165.626 141.429 165.566 141.45 165.51L148.45 145.51C148.465 145.447 148.493 145.388 148.532 145.336C148.572 145.285 148.622 145.243 148.679 145.212C148.735 145.181 148.798 145.163 148.863 145.158C148.927 145.153 148.992 145.162 149.053 145.184C149.114 145.206 149.17 145.24 149.217 145.285C149.263 145.33 149.3 145.384 149.324 145.444C149.348 145.504 149.359 145.569 149.357 145.634C149.355 145.698 149.338 145.762 149.31 145.82L142.31 165.82C142.274 165.903 142.213 165.973 142.137 166.021C142.06 166.07 141.97 166.094 141.88 166.09Z" fill="#2B786C"/>
<path d="M159.371 151.55C159.185 151.552 159.001 151.515 158.831 151.44L147.511 146.55V126C147.54 125.656 147.698 125.335 147.952 125.101C148.207 124.867 148.54 124.737 148.886 124.737C149.231 124.737 149.565 124.867 149.819 125.101C150.074 125.335 150.231 125.656 150.261 126V144.72L159.921 148.9C160.212 149.024 160.451 149.246 160.598 149.527C160.744 149.808 160.789 150.131 160.724 150.441C160.659 150.751 160.489 151.029 160.242 151.227C159.995 151.426 159.687 151.533 159.371 151.53V151.55Z" fill="#37474F"/>
<path d="M148.88 141.22C150.93 140.04 152.6 141 152.6 143.37C152.528 144.659 152.154 145.912 151.508 147.029C150.861 148.146 149.961 149.096 148.88 149.8C146.88 150.99 145.17 150.02 145.17 147.66C145.24 146.371 145.612 145.116 146.257 143.997C146.901 142.879 147.8 141.927 148.88 141.22Z" fill="#2B786C"/>
<path d="M110.84 161.3C110.061 158.792 108.515 156.592 106.42 155.01C106.22 154.87 106.02 154.74 105.81 154.62C104.06 153.62 95.7499 148.82 95.5499 148.7C94.6717 148.188 93.7158 147.823 92.7199 147.62L107.31 139.19C107.973 138.753 108.489 138.126 108.79 137.39C109.188 136.57 109.4 135.672 109.41 134.76V122.09C109.441 121.746 109.402 121.4 109.295 121.072C109.188 120.743 109.017 120.44 108.79 120.18C108.713 120.105 108.625 120.041 108.53 119.99L98.2399 114C98.0489 113.902 97.8344 113.86 97.6206 113.877C97.4068 113.895 97.2022 113.972 97.0299 114.1L63.8099 133.32C63.1561 133.749 62.6526 134.371 62.3699 135.1C61.988 135.935 61.7642 136.833 61.7099 137.75L59.3799 181.75C59.3183 182.103 59.3348 182.464 59.4281 182.81C59.5214 183.155 59.6892 183.476 59.9199 183.75L60.1599 183.93L67.4399 188.13L58.7599 193.13C58.2183 193.485 57.7993 193.998 57.5599 194.6C57.2312 195.266 57.0569 195.997 57.0499 196.74C57.0428 199.671 57.5961 202.577 58.6799 205.3C59.5515 207.566 61.0978 209.511 63.1099 210.87L63.5199 211.13L73.8099 217.07C75.8291 218.167 78.1355 218.621 80.4199 218.37C83.7744 217.961 86.9957 216.81 89.8499 215C93.1122 213.091 96.0911 210.735 98.6999 208C101.506 205.049 103.919 201.749 105.88 198.18C107.961 194.388 109.576 190.359 110.69 186.18C111.866 181.719 112.452 177.123 112.43 172.51C112.552 168.71 112.014 164.917 110.84 161.3ZM83.8399 182.73C84.2886 182.415 84.6809 182.026 84.9999 181.58C85.4699 180.99 85.9999 180.36 86.5199 179.69C86.7899 179.35 87.0699 179.02 87.3599 178.69C87.2799 179.04 87.1999 179.38 87.0999 179.69C86.6849 181.196 86.0836 182.643 85.3099 184C84.5763 185.27 83.6897 186.446 82.6699 187.5C81.7529 188.472 80.7064 189.313 79.5599 190C78.8396 190.452 78.0536 190.789 77.2299 191L73.4499 188.82L83.8399 182.73Z" fill="#455A64"/>
<path d="M73.3897 216.8L73.7697 217.03L63.5197 211.12L63.1097 210.87C61.0996 209.504 59.5541 207.558 58.6797 205.29C57.5993 202.566 57.0495 199.661 57.0597 196.73C57.0642 196.058 57.2072 195.394 57.4797 194.78L67.7597 200.72C67.4843 201.334 67.338 201.997 67.3297 202.67C67.3319 205.604 67.8989 208.51 68.9997 211.23C69.8595 213.492 71.3916 215.436 73.3897 216.8Z" fill="#37474F"/>
<path d="M98.0695 180.74C98.0803 182.402 97.8615 184.058 97.4195 185.66C96.9918 187.158 96.377 188.596 95.5895 189.94C94.8567 191.211 93.97 192.386 92.9495 193.44C92.0301 194.391 90.9875 195.215 89.8495 195.89C88.9162 196.503 87.8498 196.883 86.7395 197C85.965 197.053 85.19 196.905 84.4895 196.57C83.8762 196.254 83.3348 195.815 82.8995 195.28C82.4595 194.74 82.0595 194.21 81.6995 193.7C81.5041 193.449 81.25 193.25 80.9595 193.12L80.7995 193.02L77.2295 191.02C78.0526 190.807 78.8383 190.47 79.5595 190.02C80.7024 189.348 81.7487 188.524 82.6695 187.57C83.6922 186.492 84.5788 185.294 85.3095 184C86.0891 182.653 86.7004 181.216 87.1295 179.72C87.2295 179.37 87.3195 179.03 87.3895 178.72C87.6895 178.38 88.0095 178.03 88.3895 177.72C88.9722 177.07 89.6458 176.507 90.3895 176.05C92.7695 174.677 94.6462 174.45 96.0195 175.37C97.3895 176.22 98.0695 178 98.0695 180.74Z" fill="#37474F"/>
<path d="M72.89 140.56C72.81 140.71 72.73 140.87 72.66 141.04C72.2741 141.874 72.0469 142.773 71.99 143.69L69.66 187.69C69.5999 188.043 69.6179 188.406 69.7129 188.751C69.808 189.097 69.9777 189.417 70.21 189.69L60.21 183.93C60.1231 183.88 60.0425 183.819 59.97 183.75C59.7394 183.476 59.5715 183.155 59.4783 182.81C59.385 182.464 59.3685 182.103 59.43 181.75L61.76 137.75C61.8109 136.833 62.0348 135.934 62.42 135.1C62.5 134.92 62.58 134.77 62.67 134.61L72.89 140.56Z" fill="#37474F"/>
<path d="M81.7003 193.66C82.0603 194.17 82.4603 194.66 82.9003 195.24C83.3356 195.775 83.877 196.214 84.4903 196.53C85.1908 196.865 85.9658 197.013 86.7403 196.96C87.8472 196.855 88.9133 196.489 89.8503 195.89C90.9883 195.215 92.0309 194.391 92.9503 193.44C96.2634 190.046 98.1034 185.482 98.0703 180.74C98.0703 178.03 97.3903 176.22 96.0703 175.29C94.7503 174.36 92.8203 174.6 90.4403 175.97C89.6754 176.422 88.9812 176.985 88.3803 177.64C87.7403 178.33 87.1403 179.01 86.6003 179.69C86.0603 180.37 85.6003 180.99 85.0803 181.58C84.7613 182.026 84.3691 182.415 83.9203 182.73L71.8103 189.73C71.5883 189.909 71.309 190.001 71.024 189.99C70.7391 189.979 70.4678 189.866 70.2603 189.67C70.0255 189.399 69.8543 189.078 69.7591 188.732C69.664 188.386 69.6473 188.023 69.7103 187.67L72.0403 143.67C72.0985 142.754 72.3221 141.856 72.7003 141.02C72.983 140.288 73.4862 139.663 74.1403 139.23L107.36 120.05C107.579 119.887 107.849 119.808 108.121 119.828C108.393 119.848 108.648 119.966 108.84 120.16C109.067 120.42 109.239 120.723 109.345 121.052C109.452 121.38 109.491 121.726 109.46 122.07V134.74C109.45 135.652 109.239 136.55 108.84 137.37C108.54 138.105 108.024 138.733 107.36 139.17L84.7203 152.24L84.1803 163.19C85.1393 161.818 86.2168 160.533 87.4003 159.35C88.5959 158.156 89.9403 157.121 91.4003 156.27C93.9327 154.699 96.7802 153.705 99.7403 153.36C102.092 153.102 104.459 153.687 106.42 155.01C108.516 156.592 110.062 158.792 110.84 161.3C112.007 164.898 112.545 168.67 112.43 172.45C112.452 177.063 111.867 181.659 110.69 186.12C109.576 190.299 107.961 194.328 105.88 198.12C103.924 201.71 101.511 205.031 98.7003 208C96.0916 210.735 93.1126 213.091 89.8503 215C86.9944 216.802 83.7732 217.947 80.4203 218.35C77.9782 218.627 75.5138 218.077 73.4203 216.79C71.4127 215.433 69.8699 213.492 69.0003 211.23C67.9122 208.508 67.3588 205.602 67.3703 202.67C67.3724 201.928 67.5434 201.196 67.8703 200.53C68.1135 199.928 68.5314 199.412 69.0703 199.05L78.9303 193.36C79.7603 192.88 80.3903 192.76 80.8303 192.98C81.1675 193.139 81.4648 193.371 81.7003 193.66Z" fill="#2B786C"/>
<path d="M85.0702 265.55C85.082 264.614 85.1927 263.682 85.4002 262.77C85.5969 261.898 85.8956 261.052 86.2902 260.25C86.6716 259.484 87.1524 258.771 87.7202 258.13C88.2958 257.489 88.9712 256.945 89.7202 256.52C90.3747 256.082 91.1341 255.827 91.9202 255.78C92.4218 255.776 92.9095 255.945 93.3002 256.26C93.6402 256.559 93.8896 256.947 94.0201 257.38C94.1414 257.767 94.2186 258.166 94.2502 258.57C94.2629 258.753 94.2248 258.937 94.1402 259.1C94.0726 259.241 93.9692 259.362 93.8401 259.45L92.6002 260.16C92.4935 260.227 92.4035 260.227 92.3302 260.16C92.2644 260.111 92.2127 260.045 92.1802 259.97C92.1332 259.86 92.0798 259.753 92.0201 259.65C91.9245 259.475 91.7827 259.33 91.6102 259.23C91.3855 259.101 91.1289 259.039 90.8702 259.05C90.4584 259.073 90.0607 259.208 89.7202 259.44C88.9229 259.91 88.2827 260.606 87.8801 261.44C87.4131 262.372 87.1603 263.397 87.1402 264.44C87.1402 265.05 87.1402 265.7 87.1402 266.38C87.1402 267.06 87.1402 267.7 87.1402 268.29C87.1402 269.57 87.4201 270.38 87.8801 270.7C88.3401 271.02 88.9502 270.97 89.7202 270.53C90.0841 270.308 90.4199 270.043 90.7202 269.74C91.047 269.42 91.3235 269.053 91.5402 268.65C91.783 268.199 91.9646 267.719 92.0802 267.22C92.2101 266.622 92.2738 266.012 92.2701 265.4V265.21L90.4002 266.29C90.36 266.325 90.3085 266.345 90.2551 266.345C90.2018 266.345 90.1503 266.325 90.1102 266.29C90.0186 266.185 89.972 266.049 89.9802 265.91V264.23C89.9852 264.052 90.0296 263.878 90.1102 263.72C90.1653 263.572 90.267 263.445 90.4002 263.36L93.9202 261.36C93.9611 261.327 94.0123 261.309 94.0652 261.309C94.118 261.309 94.1692 261.327 94.2102 261.36C94.2583 261.408 94.2951 261.466 94.3176 261.53C94.3401 261.594 94.3478 261.663 94.3401 261.73V264.33C94.3398 265.261 94.2426 266.189 94.0502 267.1C93.8597 267.985 93.5643 268.845 93.1702 269.66C92.7873 270.452 92.2996 271.188 91.7202 271.85C91.1411 272.501 90.4668 273.061 89.7202 273.51C89.1181 273.896 88.4323 274.133 87.7202 274.2C87.4603 274.218 87.1996 274.183 86.9538 274.097C86.7079 274.011 86.4821 273.876 86.2902 273.7C85.8658 273.275 85.5651 272.743 85.4202 272.16C85.2037 271.375 85.0961 270.564 85.1002 269.75C85.1002 269.45 85.1002 269.13 85.1002 268.75C85.1002 268.37 85.1002 268.02 85.1002 267.64C85.1002 267.26 85.1002 266.9 85.1002 266.53C85.1002 266.16 85.0502 265.85 85.0702 265.55Z" fill="#455A64"/>
<path d="M101.14 250.16C101.3 250.06 101.43 250.06 101.51 250.16C101.614 250.303 101.686 250.467 101.72 250.64L105.48 263.38C105.485 263.433 105.485 263.487 105.48 263.54C105.478 263.72 105.437 263.897 105.36 264.06C105.299 264.205 105.198 264.329 105.07 264.42L104 265C103.8 265.12 103.66 265.14 103.58 265.05C103.497 264.971 103.439 264.87 103.41 264.76L102.75 262.52L97.9097 265.32L97.2497 268.32C97.2109 268.489 97.1539 268.653 97.0797 268.81C96.9879 269.002 96.8372 269.16 96.6497 269.26L95.5497 269.9C95.5071 269.934 95.4542 269.953 95.3997 269.953C95.3451 269.953 95.2922 269.934 95.2497 269.9C95.2057 269.848 95.1724 269.787 95.1518 269.722C95.1312 269.657 95.1237 269.588 95.1297 269.52C95.1247 269.46 95.1247 269.4 95.1297 269.34L98.8797 252.27C98.9252 252.019 98.999 251.774 99.0997 251.54C99.1714 251.367 99.2979 251.223 99.4597 251.13L101.14 250.16ZM102 260L100.32 254.24L98.6097 262L102 260Z" fill="#455A64"/>
<path d="M112.939 243.34C112.98 243.305 113.031 243.285 113.084 243.285C113.138 243.285 113.189 243.305 113.229 243.34C113.273 243.392 113.307 243.453 113.327 243.518C113.348 243.583 113.355 243.652 113.349 243.72V245.39C113.349 245.57 113.308 245.748 113.229 245.91C113.174 246.058 113.073 246.185 112.939 246.27L110.179 247.86V260.79C110.179 260.97 110.138 261.148 110.059 261.31C109.998 261.455 109.898 261.579 109.769 261.67L108.529 262.39C108.489 262.425 108.438 262.444 108.384 262.444C108.331 262.444 108.28 262.425 108.239 262.39C108.191 262.342 108.155 262.284 108.132 262.22C108.11 262.156 108.102 262.087 108.109 262.02V249.08L105.349 250.67C105.31 250.707 105.258 250.728 105.204 250.728C105.15 250.728 105.099 250.707 105.059 250.67C105.015 250.618 104.982 250.557 104.962 250.492C104.941 250.427 104.934 250.358 104.939 250.29V248.6C104.94 248.42 104.981 248.242 105.059 248.08C105.124 247.937 105.223 247.813 105.349 247.72L112.939 243.34Z" fill="#455A64"/>
<path d="M122 251.66C122.04 251.625 122.092 251.605 122.145 251.605C122.198 251.605 122.25 251.625 122.29 251.66C122.334 251.712 122.367 251.773 122.388 251.838C122.408 251.903 122.416 251.972 122.41 252.04V253.71C122.41 253.89 122.369 254.068 122.29 254.23C122.235 254.378 122.133 254.505 122 254.59L115.27 258.47C115.231 258.507 115.179 258.528 115.125 258.528C115.071 258.528 115.019 258.507 114.98 258.47C114.935 258.42 114.902 258.361 114.881 258.298C114.86 258.234 114.853 258.167 114.86 258.1V242.86C114.86 242.68 114.901 242.502 114.98 242.34C115.035 242.192 115.137 242.065 115.27 241.98L121.87 238.17C121.912 238.134 121.965 238.114 122.02 238.114C122.075 238.114 122.128 238.134 122.17 238.17C122.214 238.221 122.247 238.279 122.267 238.343C122.288 238.406 122.296 238.473 122.29 238.54V240.22C122.289 240.4 122.248 240.578 122.17 240.74C122.106 240.886 122.002 241.011 121.87 241.1L117 244V247.75L121.62 245.09C121.66 245.055 121.712 245.035 121.765 245.035C121.818 245.035 121.87 245.055 121.91 245.09C121.954 245.142 121.987 245.203 122.008 245.268C122.028 245.333 122.036 245.402 122.03 245.47V247.15C122.028 247.327 121.987 247.501 121.91 247.66C121.855 247.808 121.753 247.935 121.62 248.02L117 250.67V254.59L122 251.66Z" fill="#455A64"/>
<path d="M129.289 242.56L127.999 250.38C127.959 250.612 127.896 250.84 127.809 251.06C127.748 251.238 127.628 251.389 127.469 251.49L126.219 252.2C126.069 252.29 125.949 252.29 125.869 252.2C125.764 252.061 125.701 251.894 125.689 251.72L123.689 237.97C123.689 237.89 123.689 237.83 123.689 237.79C123.69 237.61 123.731 237.432 123.809 237.27C123.871 237.122 123.975 236.997 124.109 236.91L125.239 236.26C125.284 236.236 125.334 236.224 125.384 236.224C125.435 236.224 125.485 236.236 125.529 236.26C125.623 236.3 125.683 236.43 125.709 236.65L126.999 245.91L128.139 238.91C128.173 238.737 128.22 238.566 128.279 238.4C128.348 238.196 128.486 238.023 128.669 237.91L129.929 237.19C130.109 237.083 130.239 237.083 130.319 237.19C130.389 237.294 130.44 237.409 130.469 237.53L131.599 243.17L132.889 232.43C132.906 232.219 132.967 232.015 133.069 231.83C133.139 231.704 133.239 231.598 133.359 231.52L134.499 230.86C134.54 230.827 134.592 230.808 134.644 230.808C134.697 230.808 134.748 230.827 134.789 230.86C134.833 230.912 134.867 230.973 134.887 231.038C134.908 231.103 134.915 231.172 134.909 231.24C134.909 231.24 134.909 231.35 134.909 231.44L132.909 247.44C132.882 247.673 132.825 247.902 132.739 248.12C132.667 248.297 132.541 248.448 132.379 248.55L131.129 249.27C130.979 249.36 130.869 249.35 130.789 249.27C130.694 249.128 130.629 248.968 130.599 248.8L129.289 242.56Z" fill="#455A64"/>
<path d="M141.09 227.09C141.25 227 141.38 226.99 141.46 227.09C141.569 227.23 141.641 227.395 141.67 227.57L145.43 240.31C145.436 240.36 145.436 240.41 145.43 240.46C145.43 240.64 145.389 240.818 145.31 240.98C145.255 241.128 145.153 241.255 145.02 241.34L143.92 241.98C143.71 242.1 143.57 242.11 143.49 242.03C143.408 241.947 143.349 241.843 143.32 241.73L142.66 239.49L137.82 242.29L137.16 245.29C137.12 245.459 137.063 245.623 136.99 245.78C136.897 245.968 136.746 246.122 136.56 246.22L135.46 246.86C135.419 246.896 135.365 246.916 135.31 246.916C135.255 246.916 135.202 246.896 135.16 246.86C135.116 246.808 135.082 246.747 135.062 246.682C135.041 246.617 135.034 246.548 135.04 246.48C135.035 246.423 135.035 246.367 135.04 246.31L138.79 229.23C138.832 228.982 138.906 228.74 139.01 228.51C139.082 228.335 139.208 228.188 139.37 228.09L141.09 227.09ZM141.93 236.96L140.25 231.21L138.56 238.91L141.93 236.96Z" fill="#455A64"/>
<path d="M153.81 219.75C153.849 219.713 153.901 219.692 153.955 219.692C154.009 219.692 154.061 219.713 154.1 219.75C154.144 219.8 154.178 219.859 154.199 219.922C154.22 219.986 154.227 220.053 154.22 220.12C154.23 220.196 154.23 220.274 154.22 220.35L150.59 232.29V237.48C150.588 237.66 150.547 237.838 150.47 238C150.412 238.144 150.31 238.266 150.18 238.35L148.95 239.06C148.911 239.097 148.859 239.118 148.805 239.118C148.751 239.118 148.699 239.097 148.66 239.06C148.615 239.008 148.582 238.947 148.561 238.882C148.54 238.817 148.533 238.748 148.54 238.68V233.49L144.91 225.75C144.897 225.687 144.897 225.623 144.91 225.56C144.896 225.369 144.927 225.177 145 225C145.061 224.855 145.161 224.73 145.29 224.64L146.44 223.98C146.64 223.86 146.8 223.85 146.9 223.98C146.979 224.048 147.04 224.134 147.08 224.23L149.56 229.47L152.05 221.36C152.096 221.202 152.156 221.048 152.23 220.9C152.328 220.69 152.488 220.515 152.69 220.4L153.81 219.75Z" fill="#455A64"/>
<path d="M165.61 212.93C165.652 212.898 165.703 212.881 165.755 212.881C165.808 212.881 165.858 212.898 165.9 212.93C165.944 212.982 165.977 213.043 165.998 213.108C166.019 213.173 166.026 213.242 166.02 213.31V215C166.018 215.18 165.977 215.357 165.9 215.52C165.842 215.664 165.741 215.786 165.61 215.87L162.85 217.47V230.4C162.85 230.58 162.809 230.758 162.73 230.92C162.675 231.068 162.573 231.195 162.44 231.28L161.19 232C161.149 232.033 161.098 232.051 161.045 232.051C160.992 232.051 160.941 232.033 160.9 232C160.856 231.948 160.823 231.887 160.802 231.822C160.782 231.757 160.774 231.688 160.78 231.62V218.67L158 220.26C157.961 220.297 157.909 220.318 157.855 220.318C157.801 220.318 157.749 220.297 157.71 220.26C157.666 220.208 157.632 220.147 157.612 220.082C157.591 220.017 157.584 219.948 157.59 219.88V218.21C157.592 218.03 157.633 217.852 157.71 217.69C157.771 217.545 157.872 217.421 158 217.33L165.61 212.93Z" fill="#455A64"/>
<path d="M168 228.09C167.958 228.122 167.907 228.139 167.855 228.139C167.803 228.139 167.752 228.122 167.71 228.09C167.619 227.985 167.572 227.849 167.58 227.71V212.45C167.584 212.269 167.628 212.091 167.71 211.93C167.771 211.785 167.872 211.661 168 211.57L169.24 210.85C169.281 210.817 169.332 210.799 169.385 210.799C169.438 210.799 169.489 210.817 169.53 210.85C169.575 210.9 169.609 210.959 169.629 211.022C169.65 211.086 169.657 211.153 169.65 211.22V226.46C169.65 226.64 169.609 226.818 169.53 226.98C169.475 227.128 169.373 227.255 169.24 227.34L168 228.09Z" fill="#455A64"/>
<path d="M177 214.76L179.91 205.29L180.12 204.79C180.21 204.573 180.368 204.391 180.57 204.27L181.57 203.67C181.61 203.635 181.662 203.615 181.715 203.615C181.768 203.615 181.82 203.635 181.86 203.67C181.907 203.721 181.943 203.781 181.966 203.846C181.988 203.912 181.996 203.981 181.99 204.05V219.29C181.99 219.471 181.945 219.65 181.86 219.81C181.799 219.955 181.698 220.08 181.57 220.17L180.33 220.88C180.291 220.917 180.239 220.938 180.185 220.938C180.131 220.938 180.079 220.917 180.04 220.88C179.996 220.83 179.963 220.771 179.942 220.707C179.922 220.644 179.914 220.577 179.92 220.51V211.28L177.92 217.74C177.86 217.914 177.79 218.084 177.71 218.25C177.633 218.416 177.512 218.558 177.36 218.66L176.56 219.12C176.51 219.16 176.449 219.181 176.385 219.181C176.321 219.181 176.26 219.16 176.21 219.12C176.123 219.042 176.049 218.951 175.99 218.85L173.99 214.7V223.92C173.988 224.1 173.947 224.278 173.87 224.44C173.809 224.585 173.708 224.71 173.58 224.8L172.34 225.51C172.301 225.547 172.249 225.568 172.195 225.568C172.141 225.568 172.089 225.547 172.05 225.51C172.002 225.46 171.965 225.4 171.942 225.335C171.92 225.269 171.912 225.199 171.92 225.13V209.87C171.921 209.689 171.966 209.511 172.05 209.35C172.104 209.204 172.207 209.081 172.34 209L173.34 208.4C173.54 208.28 173.69 208.28 173.79 208.4L174 208.66L177 214.76Z" fill="#455A64"/>
<path d="M191.6 211.49C191.641 211.457 191.692 211.439 191.745 211.439C191.798 211.439 191.849 211.457 191.89 211.49C191.935 211.54 191.968 211.599 191.989 211.662C192.01 211.726 192.017 211.793 192.01 211.86V213.54C192.007 213.72 191.966 213.897 191.89 214.06C191.832 214.204 191.731 214.326 191.6 214.41L184.87 218.3C184.83 218.335 184.778 218.355 184.725 218.355C184.672 218.355 184.62 218.335 184.58 218.3C184.536 218.248 184.503 218.187 184.482 218.122C184.462 218.057 184.454 217.988 184.46 217.92V202.69C184.46 202.51 184.501 202.332 184.58 202.17C184.641 202.025 184.742 201.9 184.87 201.81L191.48 198C191.52 197.965 191.572 197.945 191.625 197.945C191.678 197.945 191.73 197.965 191.77 198C191.814 198.052 191.848 198.112 191.869 198.178C191.889 198.243 191.897 198.312 191.89 198.38V200.05C191.89 200.23 191.849 200.408 191.77 200.57C191.709 200.715 191.608 200.839 191.48 200.93L186.53 203.79V207.54L191.14 204.87C191.181 204.837 191.232 204.819 191.285 204.819C191.338 204.819 191.389 204.837 191.43 204.87C191.475 204.92 191.508 204.979 191.529 205.042C191.55 205.106 191.557 205.173 191.55 205.24V207C191.547 207.18 191.506 207.357 191.43 207.52C191.372 207.664 191.271 207.786 191.14 207.87L186.53 210.54V214.45L191.6 211.49Z" fill="#455A64"/>
<path d="M197 201C197.03 200.099 197.14 199.202 197.33 198.32C197.513 197.455 197.791 196.613 198.16 195.81C198.525 195.03 198.989 194.301 199.54 193.64C200.108 192.983 200.784 192.428 201.54 192C202.137 191.613 202.829 191.395 203.54 191.37C204.056 191.375 204.551 191.579 204.92 191.94C205.327 192.377 205.616 192.911 205.76 193.49C205.972 194.239 206.087 195.012 206.1 195.79C206.1 196.09 206.1 196.41 206.1 196.79C206.1 197.17 206.1 197.52 206.1 197.91C206.1 198.3 206.1 198.67 206.1 199.03C206.1 199.39 206.1 199.73 206.1 200.03C206.069 200.931 205.959 201.828 205.77 202.71C205.584 203.574 205.306 204.416 204.94 205.22C204.572 205.994 204.105 206.717 203.55 207.37C202.985 208.027 202.308 208.579 201.55 209C200.954 209.391 200.262 209.609 199.55 209.63C199.294 209.633 199.04 209.585 198.803 209.489C198.567 209.393 198.351 209.251 198.17 209.07C197.766 208.636 197.481 208.106 197.34 207.53C197.138 206.779 197.028 206.007 197.01 205.23C197.01 204.94 197.01 204.61 197.01 204.23C197.01 203.85 197.01 203.5 197.01 203.11C197.01 202.72 197.01 202.35 197.01 201.99C197.01 201.63 197 201.25 197 201ZM203.94 197.11C203.976 196.711 203.931 196.309 203.809 195.928C203.687 195.547 203.49 195.194 203.23 194.89C202.79 194.52 202.23 194.54 201.5 194.95C200.747 195.407 200.148 196.079 199.78 196.88C199.334 197.819 199.092 198.841 199.07 199.88C199.07 200.487 199.07 201.153 199.07 201.88C199.07 202.607 199.07 203.273 199.07 203.88C199.037 204.275 199.083 204.673 199.205 205.051C199.326 205.429 199.522 205.778 199.78 206.08C200.21 206.45 200.78 206.42 201.5 206.01C202.256 205.558 202.859 204.889 203.23 204.09C203.678 203.152 203.921 202.129 203.94 201.09C203.94 200.483 203.94 199.817 203.94 199.09C204 198.3 204 197.64 204 197.06L203.94 197.11Z" fill="#455A64"/>
<path d="M216.36 183.63C216.4 183.595 216.451 183.575 216.505 183.575C216.558 183.575 216.609 183.595 216.65 183.63C216.697 183.681 216.733 183.741 216.755 183.806C216.778 183.872 216.786 183.941 216.78 184.01V193.68C216.78 194.62 216.686 195.558 216.5 196.48C216.328 197.348 216.049 198.191 215.67 198.99C215.317 199.758 214.851 200.469 214.29 201.1C213.74 201.718 213.095 202.245 212.38 202.66C211.801 203.035 211.137 203.259 210.45 203.31C210.198 203.322 209.946 203.282 209.711 203.192C209.475 203.103 209.26 202.966 209.08 202.79C208.671 202.357 208.388 201.821 208.26 201.24C208.068 200.424 207.981 199.588 208 198.75V189.1C208.001 188.92 208.042 188.742 208.12 188.58C208.181 188.435 208.281 188.311 208.41 188.22L209.65 187.51C209.689 187.473 209.741 187.452 209.795 187.452C209.849 187.452 209.901 187.473 209.94 187.51C209.983 187.561 210.016 187.619 210.037 187.683C210.058 187.746 210.065 187.813 210.06 187.88V197.44C210.047 197.962 210.104 198.483 210.23 198.99C210.297 199.316 210.465 199.614 210.71 199.84C210.81 199.924 210.927 199.986 211.052 200.022C211.178 200.058 211.31 200.068 211.44 200.05C211.774 200.006 212.094 199.89 212.38 199.71C212.726 199.508 213.042 199.259 213.32 198.97C213.621 198.654 213.871 198.293 214.06 197.9C214.281 197.456 214.446 196.985 214.55 196.5C214.667 195.924 214.724 195.338 214.72 194.75V185.2C214.719 185.018 214.763 184.84 214.85 184.68C214.901 184.53 215.004 184.402 215.14 184.32L216.36 183.63Z" fill="#455A64"/>
<path d="M226.23 177.93C226.272 177.898 226.323 177.881 226.375 177.881C226.427 177.881 226.478 177.898 226.52 177.93C226.611 178.035 226.658 178.171 226.65 178.31V180C226.643 180.181 226.599 180.358 226.52 180.52C226.462 180.664 226.36 180.786 226.23 180.87L223.47 182.47V195.4C223.469 195.58 223.428 195.758 223.35 195.92C223.292 196.067 223.191 196.192 223.06 196.28L221.82 197C221.78 197.035 221.728 197.055 221.675 197.055C221.622 197.055 221.57 197.035 221.53 197C221.483 196.949 221.447 196.889 221.424 196.824C221.402 196.758 221.393 196.689 221.4 196.62V183.67L218.65 185.26C218.608 185.296 218.555 185.316 218.5 185.316C218.445 185.316 218.392 185.296 218.35 185.26C218.305 185.208 218.272 185.147 218.251 185.082C218.231 185.017 218.223 184.948 218.23 184.88V183.21C218.23 183.03 218.271 182.852 218.35 182.69C218.414 182.544 218.518 182.42 218.65 182.33L226.23 177.93Z" fill="#455A64"/>
<path d="M126.26 218.68C126.308 218.636 126.371 218.612 126.435 218.612C126.5 218.612 126.562 218.636 126.61 218.68C126.666 218.74 126.707 218.811 126.733 218.889C126.759 218.966 126.768 219.049 126.76 219.13V222.13C126.758 222.349 126.707 222.564 126.61 222.76C126.541 222.936 126.418 223.086 126.26 223.19L117.54 228.19C117.491 228.232 117.429 228.254 117.365 228.254C117.301 228.254 117.239 228.232 117.19 228.19C117.136 228.129 117.095 228.058 117.069 227.98C117.043 227.903 117.033 227.821 117.04 227.74V209.47C117.042 209.251 117.093 209.036 117.19 208.84C117.257 208.665 117.38 208.517 117.54 208.42L126.11 203.42C126.159 203.378 126.221 203.356 126.285 203.356C126.349 203.356 126.411 203.378 126.46 203.42C126.515 203.481 126.556 203.552 126.582 203.63C126.607 203.707 126.617 203.789 126.61 203.87V206.87C126.607 207.085 126.556 207.297 126.46 207.49C126.391 207.666 126.268 207.816 126.11 207.92L120.44 211.19V214.25L125.71 211.25C125.758 211.206 125.821 211.182 125.885 211.182C125.95 211.182 126.012 211.206 126.06 211.25C126.116 211.31 126.157 211.381 126.183 211.459C126.209 211.537 126.218 211.619 126.21 211.7V214.7C126.208 214.919 126.157 215.134 126.06 215.33C125.986 215.503 125.865 215.652 125.71 215.76L120.44 218.76V222L126.26 218.68Z" fill="#455A64"/>
<path d="M134.82 198.44C135.485 198.024 136.22 197.732 136.99 197.58C137.546 197.465 138.124 197.553 138.62 197.83C139.109 198.176 139.463 198.682 139.62 199.26C139.886 200.124 140.008 201.026 139.98 201.93C139.996 203.239 139.804 204.542 139.41 205.79C139.053 206.9 138.505 207.939 137.79 208.86L140.07 214.29C140.109 214.378 140.129 214.474 140.13 214.57C140.128 214.747 140.087 214.921 140.01 215.08C139.949 215.222 139.848 215.344 139.72 215.43L137.22 216.87C136.97 217.01 136.8 217.03 136.7 216.87C136.593 216.764 136.508 216.639 136.45 216.5L134.45 211.62L132.76 212.62V218.68C132.759 218.896 132.708 219.108 132.61 219.3C132.54 219.476 132.418 219.626 132.26 219.73L129.85 221.12C129.801 221.162 129.739 221.184 129.675 221.184C129.611 221.184 129.549 221.162 129.5 221.12C129.446 221.059 129.404 220.988 129.378 220.91C129.353 220.833 129.343 220.751 129.35 220.67V202.37C129.351 202.154 129.402 201.942 129.5 201.75C129.574 201.577 129.695 201.428 129.85 201.32L134.82 198.44ZM132.74 208.22L134.82 207.02C135.332 206.727 135.771 206.32 136.1 205.83C136.463 205.254 136.641 204.58 136.61 203.9C136.61 203.1 136.44 202.65 136.1 202.55C135.879 202.504 135.651 202.506 135.43 202.554C135.21 202.602 135.002 202.696 134.82 202.83L132.74 204.03V208.22Z" fill="#455A64"/>
<path d="M148.07 190.79C148.736 190.375 149.471 190.084 150.24 189.93C150.796 189.809 151.376 189.898 151.87 190.18C152.362 190.524 152.716 191.03 152.87 191.61C153.137 192.474 153.258 193.376 153.23 194.28C153.246 195.589 153.054 196.892 152.66 198.14C152.303 199.25 151.755 200.289 151.04 201.21L153.33 206.64C153.345 206.733 153.345 206.827 153.33 206.92C153.328 207.097 153.288 207.271 153.21 207.43C153.15 207.57 153.053 207.691 152.93 207.78L150.42 209.22C150.18 209.36 150 209.38 149.9 209.27C149.793 209.164 149.708 209.038 149.65 208.9L147.65 204.02L145.95 205.02V211.09C145.947 211.304 145.899 211.515 145.81 211.71C145.736 211.883 145.615 212.033 145.46 212.14L143.04 213.53C142.991 213.572 142.929 213.594 142.865 213.594C142.801 213.594 142.739 213.572 142.69 213.53C142.586 213.4 142.536 213.236 142.55 213.07V194.77C142.554 194.553 142.601 194.338 142.69 194.14C142.766 193.97 142.887 193.825 143.04 193.72L148.07 190.79ZM146 200.57L148.08 199.37C148.597 199.083 149.036 198.674 149.36 198.18C149.723 197.6 149.901 196.923 149.87 196.24C149.87 195.447 149.7 194.997 149.36 194.89C149.138 194.847 148.91 194.851 148.69 194.901C148.469 194.95 148.262 195.046 148.08 195.18L146 196.38V200.57Z" fill="#455A64"/>
<path d="M155.42 193.94C155.452 192.844 155.603 191.754 155.87 190.69C156.125 189.624 156.501 188.591 156.99 187.61C157.467 186.65 158.062 185.754 158.76 184.94C159.439 184.141 160.251 183.464 161.16 182.94C161.875 182.477 162.699 182.208 163.55 182.16C164.198 182.149 164.829 182.369 165.33 182.78C165.859 183.264 166.246 183.883 166.45 184.57C166.732 185.453 166.884 186.373 166.9 187.3C166.9 188.1 166.9 188.94 166.9 189.83C166.9 190.72 166.9 191.56 166.9 192.35C166.862 193.446 166.711 194.535 166.45 195.6C166.191 196.671 165.815 197.711 165.33 198.7C164.853 199.659 164.255 200.553 163.55 201.36C162.869 202.155 162.062 202.831 161.16 203.36C160.442 203.828 159.615 204.1 158.76 204.15C158.112 204.176 157.479 203.954 156.99 203.53C156.461 203.042 156.074 202.42 155.87 201.73C155.584 200.848 155.432 199.927 155.42 199C155.42 198.24 155.42 197.41 155.42 196.52C155.42 195.63 155.39 194.77 155.42 193.94ZM163.5 194.18C163.5 193.83 163.5 193.45 163.5 193.02C163.5 192.59 163.5 192.17 163.5 191.74C163.5 191.31 163.5 190.89 163.5 190.49C163.5 190.09 163.5 189.73 163.5 189.42C163.483 189.016 163.416 188.617 163.3 188.23C163.224 187.936 163.073 187.667 162.86 187.45C162.766 187.357 162.655 187.284 162.533 187.234C162.412 187.184 162.281 187.159 162.15 187.16C161.794 187.176 161.448 187.286 161.15 187.48C160.771 187.697 160.432 187.977 160.15 188.31C159.863 188.642 159.624 189.012 159.44 189.41C159.247 189.823 159.099 190.255 159 190.7C158.892 191.167 158.825 191.642 158.8 192.12C158.8 192.45 158.8 192.83 158.8 193.24C158.8 193.65 158.8 194.07 158.8 194.5C158.8 194.93 158.8 195.36 158.8 195.77C158.8 196.18 158.8 196.55 158.8 196.88C158.772 197.601 158.999 198.309 159.44 198.88C159.81 199.29 160.38 199.28 161.14 198.88C161.898 198.442 162.492 197.768 162.83 196.96C163.222 196.082 163.449 195.14 163.5 194.18Z" fill="#455A64"/>
<path d="M175 175.24C175.666 174.825 176.401 174.534 177.17 174.38C177.726 174.265 178.304 174.353 178.8 174.63C179.289 174.976 179.643 175.482 179.8 176.06C180.065 176.924 180.186 177.826 180.16 178.73C180.176 180.039 179.984 181.342 179.59 182.59C179.233 183.7 178.685 184.739 177.97 185.66L180.25 191.09C180.289 191.178 180.309 191.274 180.31 191.37C180.308 191.547 180.267 191.721 180.19 191.88C180.132 192.024 180.031 192.147 179.9 192.23L177.4 193.67C177.16 193.81 176.98 193.83 176.88 193.72C176.773 193.614 176.688 193.488 176.63 193.35L174.63 188.47L172.94 189.47V195.53C172.938 195.749 172.887 195.964 172.79 196.16C172.723 196.335 172.6 196.483 172.44 196.58L170 198C169.951 198.042 169.889 198.064 169.825 198.064C169.761 198.064 169.699 198.042 169.65 198C169.596 197.939 169.556 197.867 169.532 197.79C169.508 197.712 169.5 197.631 169.51 197.55V179.17C169.508 178.955 169.556 178.743 169.65 178.55C169.724 178.377 169.845 178.227 170 178.12L175 175.24ZM172.92 185L175 183.79C175.514 183.5 175.953 183.092 176.28 182.6C176.643 182.024 176.821 181.35 176.79 180.67C176.79 179.87 176.62 179.42 176.28 179.32C176.059 179.275 175.831 179.277 175.61 179.325C175.39 179.373 175.182 179.467 175 179.6L172.92 180.8V185Z" fill="#455A64"/>
<path d="M303.24 362.22C303.15 354.04 300.12 302.08 299.04 290.13C297.21 270.05 297.41 215.8 301.45 198.52L355.45 202.8C359.31 212.52 362.13 224.5 361.45 243.27C360.95 257.59 361.18 296.44 361.18 296.44C363.368 302.524 365.181 308.735 366.61 315.04C369.03 325.54 371.47 357.35 372.54 367.79V369.19C373.046 369.817 373.389 370.559 373.54 371.35C373.54 372.18 373.43 373.02 373.46 373.85C373.639 375.805 373.137 377.762 372.04 379.39C371.273 380.617 370.211 381.631 368.95 382.34C368.32 382.691 367.622 382.904 366.903 382.964C366.184 383.025 365.46 382.931 364.78 382.69C360.94 381.18 361.5 375.04 360.22 371.84L359.62 370.29C359.62 370.29 342.92 319.57 338.87 307.02C335.45 296.45 330.87 262.08 327.24 243.02L320.84 288.45C322.427 293.187 323.585 298.056 324.3 303C325.8 317 320.43 343.92 318.61 355.66C318.345 357.376 318.255 359.115 318.34 360.85C318.34 361.35 319.84 366.19 313.65 366.67C307.46 367.15 303.25 362.94 303.24 362.22Z" fill="#FFA8A7"/>
<path d="M349.549 186.5C349.549 186.5 356.409 199.5 359.419 212.12C362.429 224.74 362.279 233.04 362.159 255.05C362.039 277.06 361.719 296.18 361.719 296.18C363.135 298.398 364.255 300.792 365.049 303.3C366.919 309.11 368.569 315.57 369.329 332.55C369.329 332.55 360.089 339.99 348.659 337.04C348.659 337.04 340.339 313.48 337.889 305.92C334.719 296.14 327.259 243.06 327.259 243.06L322.079 288.57C322.079 288.57 325.989 299.45 325.479 307.14C324.969 314.83 323.249 327 323.249 327C323.249 327 312.339 330.68 301.249 325.55C301.249 325.55 298.249 289.72 297.749 276.75C297.249 263.78 295.689 218 302.049 189.32L349.549 186.5Z" fill="#2B786C"/>
<path opacity="0.3" d="M349.549 186.5C349.549 186.5 356.409 199.5 359.419 212.12C362.429 224.74 362.279 233.04 362.159 255.05C362.039 277.06 361.719 296.18 361.719 296.18C363.135 298.398 364.255 300.792 365.049 303.3C366.919 309.11 368.569 315.57 369.329 332.55C369.329 332.55 360.089 339.99 348.659 337.04C348.659 337.04 340.339 313.48 337.889 305.92C334.719 296.14 327.259 243.06 327.259 243.06L322.079 288.57C322.079 288.57 325.989 299.45 325.479 307.14C324.969 314.83 323.249 327 323.249 327C323.249 327 312.339 330.68 301.249 325.55C301.249 325.55 298.249 289.72 297.749 276.75C297.249 263.78 295.689 218 302.049 189.32L349.549 186.5Z" fill="black"/>
<path opacity="0.3" d="M327.29 243.18L322.17 223.12C322.17 223.12 312.32 224.26 304.57 218.53C304.57 218.53 306.16 225.86 319.89 228.06L325.75 247.75L325.66 257.15L327.29 243.18Z" fill="black"/>
<path d="M346.28 397.08C345.88 397.5 346.12 400.57 346.63 401.27C347.14 401.97 349.94 404.27 355.11 404.38C360.05 404.47 364.41 403.57 367.2 401.58C369.99 399.59 371.28 397.49 371.41 394.67C371.54 391.85 371.07 389.16 372.29 386.93C373.42 384.87 374.96 382.84 375.29 381.74C376.1 379.34 375.29 375.74 375.29 375.74L346.28 397.08Z" fill="#263238"/>
<path d="M358.26 373.3C358.249 374.364 358.104 375.422 357.83 376.45C357.193 378.66 356.294 380.785 355.15 382.78C354.583 383.821 353.949 384.823 353.25 385.78C351.86 387.63 350.09 389.18 348.6 390.97C347.008 392.662 346.051 394.853 345.89 397.17C345.89 401.05 350.15 402.17 353.4 402.53C356.924 402.957 360.499 402.584 363.86 401.44C365.626 400.878 367.193 399.817 368.371 398.385C369.549 396.954 370.288 395.212 370.5 393.37C370.62 392.29 370.5 391.2 370.57 390.11C370.867 387.621 371.774 385.245 373.21 383.19C374.044 382.003 374.749 380.729 375.31 379.39C376.19 376.95 375.24 374.31 374.47 371.96C373.8 369.96 373.27 367.49 372.56 367.72C372.56 368.14 372.56 369.05 372.56 369.05C372.34 369.51 371.83 369.84 371.71 370.37C371.589 370.923 371.421 371.465 371.21 371.99C370.889 372.808 370.323 373.507 369.59 373.99C369.47 372.53 369.34 371.08 369.21 369.63C369.225 369.174 369.084 368.725 368.81 368.36C368.453 368.068 368.01 367.903 367.55 367.89C364.811 367.391 362.013 367.31 359.25 367.65C359.041 367.66 358.837 367.715 358.651 367.809C358.465 367.904 358.301 368.037 358.17 368.2C358.018 368.51 357.973 368.862 358.04 369.2C358.191 370.561 358.264 371.93 358.26 373.3Z" fill="#455A64"/>
<path d="M354.67 383.62C356.05 382.47 359.27 382.28 361.04 382.37C362.838 382.431 364.592 382.943 366.14 383.86C366.368 384.01 366.642 384.072 366.912 384.035C367.182 383.998 367.43 383.865 367.61 383.66C367.717 383.546 367.797 383.409 367.846 383.26C367.894 383.112 367.91 382.954 367.891 382.798C367.872 382.643 367.819 382.493 367.736 382.361C367.652 382.228 367.541 382.115 367.41 382.03C365.702 380.908 363.712 380.291 361.67 380.25C357.32 380.17 356.08 380.98 356.08 380.98C356.08 380.98 354.18 382.36 354.67 383.62Z" fill="#F0F0F0"/>
<path d="M351.58 387.75C353.33 386.59 356.88 386.55 358.65 386.65C360.428 386.723 362.154 387.268 363.65 388.23C363.878 388.377 364.151 388.438 364.42 388.403C364.689 388.369 364.937 388.24 365.12 388.04C365.227 387.925 365.308 387.788 365.357 387.638C365.405 387.488 365.421 387.33 365.402 387.174C365.382 387.017 365.33 386.867 365.246 386.734C365.163 386.6 365.052 386.486 364.92 386.4C363.179 385.219 361.142 384.547 359.04 384.46C354.69 384.39 353.61 385.33 353.61 385.33C353.11 385.552 352.666 385.885 352.315 386.305C351.963 386.724 351.712 387.219 351.58 387.75Z" fill="#F0F0F0"/>
<path d="M363.17 376C361.329 375.785 359.463 376.043 357.75 376.75C357 377.22 356.57 378.46 357.07 378.75C358.568 378.048 360.218 377.728 361.87 377.82C363.502 377.882 365.111 378.22 366.63 378.82C367.01 378.96 367.46 379.17 367.85 379.36C367.974 379.426 368.112 379.465 368.252 379.474C368.393 379.484 368.534 379.463 368.666 379.414C368.799 379.365 368.919 379.288 369.02 379.189C369.12 379.09 369.199 378.971 369.25 378.84C369.333 378.618 369.335 378.373 369.254 378.149C369.174 377.925 369.016 377.738 368.81 377.62C367.065 376.688 365.143 376.136 363.17 376Z" fill="#F0F0F0"/>
<path d="M278.7 382.81C278.395 383.922 278.524 385.109 279.06 386.13C279.58 387.08 284.82 389.67 291.65 388.84C296.717 388.211 301.524 386.236 305.57 383.12C308.1 381.25 310.8 380.78 314.19 380.4C317.58 380.02 320.13 378.84 320.79 377.22C321.45 375.6 320.44 372.9 320.44 372.9L278.7 382.81Z" fill="#263238"/>
<path d="M305.33 361.08C304.71 360.947 304.099 360.777 303.5 360.57C303.184 360.431 302.83 360.41 302.5 360.51C302.07 360.69 301.93 361.22 301.84 361.68C301.731 362.695 301.533 363.699 301.25 364.68C300.781 365.497 300.164 366.22 299.43 366.81C297.8 368.266 296.024 369.549 294.13 370.64C291.96 371.97 289.81 373.02 287.55 374.18C285.29 375.34 282.15 376.18 280.37 377.53C277.78 379.53 277.68 384.07 280.84 385.7C283.57 387.12 290.62 388.42 297.84 385.96C301.76 384.62 305.94 380.13 311.14 379.45C314.45 379.01 318.86 378.45 320.86 375.85C321.59 374.69 320.96 371.45 320.36 367.61C319.83 364.18 319.36 358.8 318.29 359.15V360.15C318.03 360.59 317.18 361.39 316.86 361.79C316.569 362.1 316.259 362.391 315.93 362.66C315.563 363.085 315.172 363.489 314.76 363.87C314.223 364.331 313.555 364.611 312.85 364.67C312.503 364.695 312.157 364.623 311.85 364.46C311.28 364.13 311.21 363.39 310.75 362.93C310.219 362.411 309.59 362.003 308.9 361.73C307.934 361.386 306.924 361.18 305.9 361.12C305.709 361.119 305.519 361.105 305.33 361.08Z" fill="#455A64"/>
<path d="M297.12 368.69C297.332 368.219 297.659 367.81 298.072 367.501C298.485 367.191 298.969 366.991 299.48 366.92C300.98 366.55 303.7 367.52 305.48 368.8C305.643 368.92 305.775 369.079 305.863 369.262C305.952 369.444 305.994 369.646 305.987 369.848C305.981 370.051 305.924 370.249 305.824 370.426C305.723 370.602 305.581 370.751 305.41 370.86C305.191 370.993 304.937 371.056 304.681 371.04C304.425 371.024 304.181 370.93 303.98 370.77C302.053 369.207 299.591 368.461 297.12 368.69Z" fill="#F0F0F0"/>
<path d="M292.58 371.56C292.882 371.078 293.297 370.676 293.788 370.389C294.279 370.102 294.832 369.938 295.4 369.91C295.4 369.91 299.4 369.81 301.92 371.91C302.079 372.027 302.208 372.18 302.294 372.358C302.38 372.535 302.421 372.731 302.414 372.929C302.408 373.126 302.352 373.318 302.254 373.489C302.156 373.66 302.017 373.805 301.85 373.91C301.641 374.04 301.398 374.102 301.152 374.087C300.907 374.073 300.672 373.983 300.48 373.83C299.418 372.883 298.156 372.187 296.789 371.794C295.421 371.401 293.983 371.321 292.58 371.56Z" fill="#F0F0F0"/>
<path d="M287.53 374.2C287.891 373.746 288.346 373.376 288.864 373.115C289.382 372.854 289.951 372.709 290.53 372.69C292.778 372.706 294.962 373.434 296.77 374.77C296.93 374.886 297.059 375.039 297.146 375.216C297.233 375.393 297.275 375.589 297.269 375.786C297.264 375.983 297.209 376.176 297.112 376.347C297.015 376.519 296.877 376.664 296.71 376.77C296.502 376.9 296.258 376.962 296.013 376.947C295.767 376.933 295.532 376.843 295.34 376.69C294.326 375.69 293.09 374.944 291.733 374.511C290.376 374.079 288.936 373.972 287.53 374.2Z" fill="#F0F0F0"/>
<path d="M306.34 127.22C310.28 124.35 312.93 124.1 316.83 124.5L312.21 153.61C312.21 153.61 295.51 169.85 290.95 174.38L277.3 163.71C277.3 163.71 302.38 130.09 306.34 127.22Z" fill="#FFA8A7"/>
<path d="M302.36 181C302.925 175.47 302.989 169.901 302.55 164.36C294.55 156.28 296.22 147.04 299.86 141.15C307.34 129.04 316.86 124.52 316.86 124.52L329.34 124.14C331.11 124.34 346.46 126.56 348.42 127.07C348.42 127.07 353.7 131.55 355.14 136.69C355.95 139.61 356.14 142.54 353.53 152.07L347 168.62C347 168.62 345.11 173.62 346.07 177.06C347.07 180.71 352.33 189.2 355.07 197.6C355.07 197.6 343.21 208.21 321.46 205.75C302.87 203.65 300.16 197.39 300.16 197.39C300.16 197.39 302.14 184.38 302.36 181Z" fill="#F0F0F0"/>
<path opacity="0.1" d="M337.36 161C336.093 163.233 334.206 165.053 331.928 166.238C329.649 167.423 327.077 167.924 324.52 167.68C322.048 167.534 319.659 166.735 317.597 165.365C315.535 163.995 313.873 162.102 312.78 159.88C312.78 159.88 312.87 169.7 324.45 170.03C336.03 170.36 337.36 161 337.36 161Z" fill="black"/>
<path d="M441.75 161.51C441.732 159.795 441.393 158.099 440.75 156.51C440.464 155.68 439.869 154.993 439.09 154.59C438.789 154.501 438.47 154.492 438.165 154.564C437.86 154.636 437.579 154.786 437.35 155C435.76 156.41 433.22 159 431.55 160.34C430.021 161.678 428.267 162.735 426.37 163.46C425.94 163.11 426.5 162.56 426.76 162.2C427.41 161.29 428.05 160.74 428.76 159.75C429.47 158.76 430.29 157.85 429.92 156.52C429.88 156.345 429.794 156.184 429.671 156.054C429.548 155.924 429.392 155.829 429.22 155.78C428.922 155.745 428.622 155.824 428.38 156C426.092 157.14 423.947 158.546 421.99 160.19C419.83 162 418.56 164.99 414.85 166.45C411.14 167.91 407.16 168.28 400.29 169.18C394.96 169.88 388.94 170.38 383.01 170.89C379.55 166.01 366.67 147.5 361.44 139.56C357.44 133.44 354.17 128 348.38 127.08C343.38 128.51 341.38 141.94 344.55 150.38C344.55 150.38 347.6 155.81 355 164.47C358.53 168.6 366.8 179.18 372.25 184.91C374.85 187.65 376 188.31 387.25 186.53C393.45 185.53 415.47 179.81 419.66 178.53C422.519 177.774 425.328 176.839 428.07 175.73C430.8 174.61 436.7 171.44 438.93 168.73C439.88 167.658 440.613 166.411 441.09 165.06C441.514 163.924 441.738 162.723 441.75 161.51Z" fill="#FFA8A7"/>
<path d="M348.28 80.77C351.85 85.31 352.59 91.26 351.78 97.15C350.42 107.05 344.48 114.79 337.36 118.15C333.09 120.15 327.54 121.02 324.64 118.56C320.14 114.74 315.58 110.99 310.73 107.64C307.11 105.13 303.15 102.64 301.26 98.64C299.64 95.21 299.63 89.32 302.85 86.74C299.69 84.6 298.32 80.94 297.74 78.83C297.08 76.39 297.74 74.83 298.74 73.96C299.74 73.09 302.53 72.96 303.74 72.84C308.4 72.27 311.74 71.03 316.29 69.78C319 69 326.73 68.09 331.8 69C335.8 69.72 340.42 71.26 342.46 76.83C344.805 77.414 346.867 78.8099 348.28 80.77Z" fill="#263238"/>
<path d="M311.71 78.4401C308.76 79.9901 304.84 87.0101 304.41 102.15C304 115 308 118.36 310.07 119.38C312.14 120.4 316.16 120.06 320.07 119.61L320.48 126.61C320.48 126.61 307.54 137.27 320.7 137.39C328.47 137.46 337.63 126.74 337.63 126.74L338.36 110.55C339.23 111.021 340.226 111.205 341.207 111.076C342.188 110.947 343.102 110.511 343.82 109.83C346.99 106.95 347.74 102.53 345.36 99.8301C342.98 97.1301 338.78 97.5001 336.95 101.38C336.95 101.38 334.78 102.73 332.71 98.3801C328.836 97.8063 325.14 96.3748 321.89 94.1901C314 89.0001 312.29 81.0501 311.71 78.4401Z" fill="#FFA8A7"/>
<path d="M320.74 98.19C320.722 98.5049 320.797 98.8181 320.955 99.0908C321.114 99.3635 321.349 99.5836 321.631 99.7238C321.914 99.8641 322.231 99.9183 322.544 99.8796C322.857 99.841 323.152 99.7113 323.392 99.5066C323.632 99.3019 323.807 99.0312 323.894 98.7282C323.982 98.4252 323.978 98.1031 323.884 97.802C323.79 97.501 323.61 97.2341 323.366 97.0346C323.121 96.8352 322.824 96.7118 322.51 96.68C322.294 96.6622 322.078 96.6872 321.872 96.7536C321.666 96.82 321.475 96.9264 321.311 97.0668C321.146 97.2071 321.011 97.3786 320.913 97.5714C320.815 97.7641 320.756 97.9744 320.74 98.19Z" fill="#263238"/>
<path d="M316.859 110.23C316.831 110.444 316.846 110.661 316.904 110.869C316.961 111.077 317.059 111.271 317.192 111.441C317.325 111.61 317.491 111.751 317.679 111.856C317.868 111.961 318.075 112.027 318.289 112.05C318.622 112.099 318.961 112.046 319.263 111.9C319.566 111.754 319.817 111.52 319.986 111.229C320.154 110.939 320.231 110.604 320.208 110.269C320.184 109.934 320.06 109.614 319.853 109.35C319.645 109.086 319.363 108.89 319.043 108.787C318.724 108.685 318.38 108.681 318.058 108.776C317.736 108.871 317.449 109.06 317.236 109.319C317.022 109.578 316.891 109.896 316.859 110.23Z" fill="#B16668"/>
<path d="M309.809 89.74L306.399 91.79C306.523 92.0183 306.692 92.2192 306.895 92.3805C307.099 92.5418 307.333 92.6601 307.583 92.7284C307.834 92.7966 308.096 92.8133 308.353 92.7775C308.61 92.7417 308.857 92.6541 309.079 92.52C309.532 92.2362 309.859 91.7909 309.995 91.2744C310.13 90.758 310.064 90.2093 309.809 89.74Z" fill="#263238"/>
<path d="M323.72 93.0001L327.35 94.6101C327.467 94.3796 327.536 94.1277 327.552 93.8697C327.568 93.6117 327.532 93.3531 327.445 93.1098C327.358 92.8664 327.222 92.6433 327.046 92.4542C326.869 92.2651 326.656 92.114 326.42 92.0101C325.928 91.7981 325.375 91.7827 324.872 91.9669C324.37 92.151 323.958 92.5208 323.72 93.0001Z" fill="#263238"/>
<path d="M307.15 97.4801C307.126 97.7953 307.196 98.1105 307.35 98.3864C307.505 98.6623 307.737 98.8867 308.018 99.0316C308.299 99.1764 308.616 99.2354 308.93 99.2011C309.245 99.1667 309.542 99.0407 309.785 98.8385C310.028 98.6364 310.206 98.3673 310.297 98.0645C310.388 97.7618 310.388 97.439 310.297 97.1363C310.206 96.8336 310.028 96.5645 309.785 96.3624C309.541 96.1604 309.244 96.0343 308.93 96.0001C308.498 95.9638 308.07 96.0987 307.737 96.3755C307.404 96.6524 307.193 97.0491 307.15 97.4801Z" fill="#263238"/>
<path d="M315.429 95.66L314.529 107.08L308.609 104.9L315.429 95.66Z" fill="#F28F8F"/>
<path d="M320.1 119.61C324.25 119.28 332.85 117.28 334.35 114C333.777 115.848 332.637 117.468 331.09 118.63C328.44 120.63 320.27 122.54 320.27 122.54L320.1 119.61Z" fill="#F28F8F"/>
<path d="M337.14 98.2601L336.79 105C335.573 104.935 334.431 104.391 333.615 103.485C332.8 102.579 332.377 101.387 332.44 100.17L332.77 93.9501L337.14 98.2601Z" fill="#263238"/>
<path d="M322.67 210.69C346.25 210.18 375.29 226.12 387.52 246.29C393.64 256.38 394.39 265.61 390.66 272.38C390.1 273.38 386.75 279.5 386.19 280.52C382.49 287.32 374.29 291.65 362.48 291.91C338.89 292.42 309.86 276.48 297.63 256.31C291.51 246.23 290.76 237.01 294.47 230.24C295.04 229.24 298.41 223.05 298.99 222.01C302.71 215.25 310.89 210.94 322.67 210.69Z" fill="#37474F"/>
<path opacity="0.1" d="M359.35 220.73C371.09 227.18 381.41 236.21 387.52 246.29C393.63 256.37 394.39 265.61 390.66 272.38C390.1 273.38 386.75 279.5 386.19 280.52C382.49 287.32 374.29 291.65 362.48 291.91C350.67 292.17 337.48 288.3 325.8 281.86L359.35 220.73Z" fill="black"/>
<path d="M380.33 236.86C383.036 239.755 385.444 242.914 387.52 246.29C393.64 256.38 394.39 265.61 390.66 272.38C390.1 273.38 386.75 279.5 386.19 280.52C382.49 287.32 374.29 291.65 362.48 291.91C358.517 291.972 354.557 291.637 350.66 290.91L380.33 236.86Z" fill="#263238"/>
<path d="M390.659 272.348C398.684 257.726 384.658 234.605 359.332 220.705C334.006 206.804 306.97 207.389 298.945 222.011C290.92 236.632 304.945 259.754 330.271 273.654C355.597 287.554 382.634 286.969 390.659 272.348Z" fill="#455A64"/>
<path d="M322.3 200.54C322.48 200.23 322.92 200.22 323.3 200.25C325.36 200.41 328.64 201.25 330.19 199.4C330.312 199.268 330.395 199.105 330.432 198.929C330.469 198.753 330.458 198.57 330.4 198.4C330.259 198.136 330.023 197.935 329.74 197.84C327.501 196.605 325.125 195.639 322.66 194.96" fill="#FFA8A7"/>
<g opacity="0.4">
<path d="M337.799 189.55C323.309 195.9 315.179 208.87 306.359 224.93L384.289 267.71C393.109 251.65 399.689 237.83 397.289 222.2C394.889 206.57 390.119 198.97 388.849 193.1C387.579 187.23 388.459 183.77 389.739 181.43C391.019 179.09 393.459 176.43 399.109 174.43C404.759 172.43 413.699 172.27 428.199 165.92C442.699 159.57 450.799 146.59 459.619 130.53L381.679 87.73C372.869 103.79 366.269 117.63 368.679 133.25C371.089 148.87 375.829 156.47 377.119 162.35C378.409 168.23 377.499 171.67 376.209 174.02C374.919 176.37 372.489 178.96 366.859 181.02C363.789 182.15 359.749 182.68 354.379 183.96C348.692 185.309 343.142 187.18 337.799 189.55Z" fill="#2B786C"/>
</g>
<path d="M384.284 267.68C391.102 255.257 379.184 235.611 357.663 223.799C336.142 211.988 313.169 212.484 306.35 224.907C299.531 237.33 311.45 256.977 332.971 268.788C354.491 280.6 377.465 280.104 384.284 267.68Z" fill="#2B786C"/>
<path d="M459.628 130.401C466.447 117.977 454.528 98.331 433.008 86.5194C411.487 74.7078 388.513 75.2038 381.695 87.6273C374.876 100.051 386.795 119.697 408.315 131.509C429.836 143.32 452.81 142.824 459.628 130.401Z" fill="#2B786C"/>
<g opacity="0.8">
<path d="M375.8 138.76C376.44 144.58 378.8 148.76 380.18 152.36C381.227 154.882 382.083 157.479 382.74 160.13C384.14 166.63 383.59 172.03 381.05 176.66C378.51 181.29 378.59 182.66 379.88 183.39C381.17 184.12 382.38 183.39 384.88 178.78C387.38 174.17 391.69 170.78 397.93 168.49C400.516 167.625 403.164 166.957 405.85 166.49C411.15 165.4 408.79 163.29 405.2 162.55C394.78 160.39 393.33 157.69 387.83 146.34C386.399 143.425 384.623 140.692 382.54 138.2C380.19 135.66 375.34 134.53 375.8 138.76Z" fill="white"/>
</g>
<g opacity="0.8">
<path d="M378.58 191.24C378.747 190.757 378.774 190.237 378.655 189.74C378.537 189.242 378.279 188.79 377.912 188.434C377.545 188.079 377.083 187.836 376.583 187.734C376.082 187.632 375.563 187.675 375.086 187.859C374.609 188.042 374.194 188.358 373.891 188.77C373.588 189.181 373.408 189.67 373.374 190.18C373.34 190.69 373.452 191.199 373.698 191.647C373.943 192.096 374.312 192.464 374.76 192.71C375.461 193.02 376.257 193.039 376.973 192.764C377.689 192.488 378.267 191.94 378.58 191.24Z" fill="white"/>
</g>
<path opacity="0.8" d="M311.62 226.89C318.62 214.69 325.49 204.95 336.54 200.29C345.27 196.61 357.66 196.64 369.15 202.94C380.64 209.24 386.71 216.8 388.89 229C390.99 240.78 386.36 251.85 379.82 264.3C377.23 269.03 371.31 271.92 362.67 271.87C345.4 271.77 323.8 259.87 314.44 245.39C309.76 238.14 309.03 231.58 311.62 226.86V226.89Z" fill="white"/>
<path opacity="0.7" d="M379.803 264.297C385.397 254.105 374.664 237.464 355.83 227.127C336.996 216.79 317.194 216.672 311.601 226.864C306.007 237.055 316.74 253.697 335.574 264.034C354.408 274.37 374.21 274.488 379.803 264.297Z" fill="white"/>
<path d="M404.26 62.06C427.85 61.55 456.88 77.49 469.11 97.66C475.23 107.74 475.98 116.97 472.26 123.75L467.79 131.89C464.08 138.68 455.88 143.02 444.07 143.28C420.49 143.78 391.45 127.84 379.22 107.67C373.11 97.6 372.35 88.38 376.06 81.61L380.58 73.38C384.3 66.62 392.48 62.31 404.26 62.06Z" fill="#37474F"/>
<path opacity="0.1" d="M440.94 72.1C452.68 78.54 463 87.57 469.11 97.66C475.22 107.75 476 117 472.26 123.75L467.79 131.89C464.08 138.68 455.88 143.02 444.07 143.28C432.26 143.54 419.12 139.67 407.39 133.23L440.94 72.1Z" fill="black"/>
<path d="M461.92 88.23C464.628 91.1227 467.037 94.2821 469.11 97.66C475.23 107.74 475.98 116.97 472.26 123.75L467.79 131.89C464.08 138.68 455.88 143.02 444.07 143.28C440.11 143.341 436.153 143.006 432.26 142.28L461.92 88.23Z" fill="#263238"/>
<path d="M472.24 123.73C480.265 109.109 466.239 85.9873 440.913 72.0871C415.587 58.1869 388.551 58.7716 380.526 73.3932C372.501 88.0147 386.526 111.136 411.852 125.036C437.179 138.937 464.215 138.352 472.24 123.73Z" fill="#455A64"/>
<path d="M277.3 163.71L292.7 171.37C296.49 175.95 298.38 178.47 301.99 182.46C305.345 186.341 309.186 189.773 313.42 192.67C316.73 194.88 319.92 194.22 322.63 194.97L322.3 200.54C322.05 200.97 322.54 201.44 322.97 201.69C326.651 203.821 330.576 205.5 334.66 206.69C336.04 207.1 337.66 207.69 337.95 209.15C338.16 210.33 337.1 211.25 336.26 212.15C333.26 215.28 328.07 216.1 323.98 215.28C320.44 214.57 316.57 212.28 313.52 210.28C310.29 208.12 307.81 205.41 305.4 203.46C302 200.71 290.4 191.07 285.74 186.85C283.05 184.41 279.17 180.91 277.3 178.97C272.74 174.23 271.4 171.56 277.3 163.71Z" fill="#FFA8A7"/>
<path d="M290.78 63.07C290.772 62.9295 290.793 62.7889 290.842 62.6566C290.89 62.5243 290.964 62.4031 291.06 62.3C291.151 62.1958 291.263 62.1118 291.389 62.0533C291.515 61.9948 291.651 61.963 291.79 61.96L296.74 61.73C297.018 61.7215 297.289 61.8208 297.496 62.0071C297.702 62.1934 297.829 62.4524 297.85 62.73L298.03 66.73C298.039 66.8692 298.018 67.0088 297.97 67.1396C297.922 67.2705 297.847 67.3899 297.75 67.49C297.659 67.596 297.548 67.6819 297.422 67.7422C297.296 67.8025 297.159 67.8358 297.02 67.84L292.07 68.07C291.787 68.0674 291.516 67.9539 291.316 67.7537C291.116 67.5536 291.002 67.283 291 67L290.78 63.07ZM289.78 41.64C289.771 41.3618 289.871 41.091 290.057 40.8842C290.243 40.6774 290.502 40.5505 290.78 40.53L295.73 40.31C295.869 40.3011 296.009 40.3214 296.139 40.3696C296.27 40.4179 296.39 40.4929 296.49 40.59C296.596 40.6806 296.682 40.7923 296.742 40.918C296.802 41.0437 296.836 41.1807 296.84 41.32L297.61 58.26C297.619 58.3992 297.598 58.5388 297.55 58.6696C297.502 58.8005 297.427 58.9199 297.33 59.02C297.239 59.126 297.128 59.2119 297.002 59.2722C296.876 59.3325 296.739 59.3658 296.6 59.37L291.6 59.6C291.461 59.6089 291.321 59.5886 291.19 59.5404C291.059 59.4922 290.94 59.4171 290.84 59.32C290.734 59.2274 290.65 59.1137 290.591 58.9862C290.532 58.8587 290.501 58.7203 290.5 58.58L289.78 41.64Z" fill="#2B786C"/>
<path d="M280.39 78C280.233 77.765 280.175 77.4774 280.23 77.2C280.254 77.0632 280.307 76.933 280.384 76.8176C280.462 76.7023 280.562 76.6043 280.68 76.53L284.82 73.79C285.055 73.6413 285.339 73.5885 285.612 73.6424C285.886 73.6964 286.128 73.853 286.29 74.08L288.48 77.4C288.558 77.5142 288.612 77.6433 288.638 77.7793C288.663 77.9153 288.661 78.0552 288.63 78.19C288.607 78.3286 288.555 78.4608 288.477 78.578C288.4 78.6952 288.298 78.7947 288.18 78.87L284.05 81.61C283.936 81.6884 283.806 81.7421 283.67 81.768C283.534 81.7938 283.395 81.7911 283.26 81.76C283.121 81.737 282.989 81.685 282.872 81.6075C282.755 81.53 282.655 81.4286 282.58 81.31L280.39 78ZM268.54 60.16C268.461 60.0459 268.408 59.9168 268.382 59.7808C268.356 59.6448 268.359 59.5049 268.39 59.37C268.413 59.2314 268.465 59.0993 268.542 58.9821C268.62 58.8649 268.721 58.7654 268.84 58.69L273 56C273.235 55.8473 273.521 55.7931 273.796 55.8493C274.071 55.9054 274.313 56.0673 274.47 56.3L283.84 70.44C283.918 70.5542 283.972 70.6833 283.998 70.8193C284.023 70.9553 284.021 71.0952 283.99 71.23C283.967 71.3686 283.915 71.5008 283.837 71.618C283.76 71.7352 283.658 71.8347 283.54 71.91L279.41 74.65C279.174 74.8028 278.888 74.857 278.613 74.8008C278.338 74.7447 278.096 74.5828 277.94 74.35L268.54 60.16Z" fill="#2B786C"/>
<g opacity="0.6">
<path d="M280.39 78C280.233 77.765 280.175 77.4774 280.23 77.2C280.254 77.0632 280.307 76.933 280.384 76.8176C280.462 76.7023 280.562 76.6043 280.68 76.53L284.82 73.79C285.055 73.6413 285.339 73.5885 285.612 73.6424C285.886 73.6964 286.128 73.853 286.29 74.08L288.48 77.4C288.558 77.5142 288.612 77.6433 288.638 77.7793C288.663 77.9153 288.661 78.0552 288.63 78.19C288.607 78.3286 288.555 78.4608 288.477 78.578C288.4 78.6952 288.298 78.7947 288.18 78.87L284.05 81.61C283.936 81.6884 283.806 81.7421 283.67 81.768C283.534 81.7938 283.395 81.7911 283.26 81.76C283.121 81.737 282.989 81.685 282.872 81.6075C282.755 81.53 282.655 81.4286 282.58 81.31L280.39 78ZM268.54 60.16C268.461 60.0459 268.408 59.9168 268.382 59.7808C268.356 59.6448 268.359 59.5049 268.39 59.37C268.413 59.2314 268.465 59.0993 268.542 58.9821C268.62 58.8649 268.721 58.7654 268.84 58.69L273 56C273.235 55.8473 273.521 55.7931 273.796 55.8493C274.071 55.9054 274.313 56.0673 274.47 56.3L283.84 70.44C283.918 70.5542 283.972 70.6833 283.998 70.8193C284.023 70.9553 284.021 71.0952 283.99 71.23C283.967 71.3686 283.915 71.5008 283.837 71.618C283.76 71.7352 283.658 71.8347 283.54 71.91L279.41 74.65C279.174 74.8028 278.888 74.857 278.613 74.8008C278.338 74.7447 278.096 74.5828 277.94 74.35L268.54 60.16Z" fill="white"/>
</g>
</svg>
