<svg width="25" height="25" viewBox="0 0 25 25" fill="none" xmlns="http://www.w3.org/2000/svg">
<path fill-rule="evenodd" clip-rule="evenodd" d="M13.9697 6.96967C13.6768 7.26256 13.6768 7.73744 13.9697 8.03033L17.6893 11.75H5.5C5.08579 11.75 4.75 12.0858 4.75 12.5C4.75 12.9142 5.08579 13.25 5.5 13.25H17.6893L13.9697 16.9697C13.6768 17.2626 13.6768 17.7374 13.9697 18.0303C14.2626 18.3232 14.7374 18.3232 15.0303 18.0303L20.0303 13.0303C20.1022 12.9584 20.1565 12.8755 20.1931 12.7871C20.2298 12.6987 20.25 12.6017 20.25 12.5C20.25 12.3983 20.2298 12.3013 20.1931 12.2129C20.1565 12.1245 20.1022 12.0416 20.0303 11.9697L15.0303 6.96967C14.7374 6.67678 14.2626 6.67678 13.9697 6.96967Z" fill="#033F47"/>
</svg>
