<svg width="200" height="466" viewBox="0 0 200 466" fill="none" xmlns="http://www.w3.org/2000/svg">
<rect y="132.9" width="200" height="200" rx="100" fill="#A1B3B6"/>
<path d="M133.339 270.4V262.067C133.339 257.646 131.583 253.407 128.457 250.281C125.331 247.156 121.092 245.4 116.672 245.4H83.3385C78.9183 245.4 74.679 247.156 71.5534 250.281C68.4278 253.407 66.6719 257.646 66.6719 262.067V270.4" stroke="#F5F9FA" stroke-width="5" stroke-linecap="round" stroke-linejoin="round"/>
<path d="M99.9948 228.733C109.2 228.733 116.661 221.271 116.661 212.067C116.661 202.862 109.2 195.4 99.9948 195.4C90.79 195.4 83.3281 202.862 83.3281 212.067C83.3281 221.271 90.79 228.733 99.9948 228.733Z" stroke="#F5F9FA" stroke-width="5" stroke-linecap="round" stroke-linejoin="round"/>
</svg>
