<svg width="201" height="201" viewBox="0 0 201 201" fill="none" xmlns="http://www.w3.org/2000/svg">
<rect x="0.25" y="0.399902" width="200" height="200" rx="100" fill="#A1B3B6"/>
<path d="M133.589 137.9V129.567C133.589 125.146 131.833 120.907 128.707 117.781C125.581 114.656 121.342 112.9 116.922 112.9H83.5885C79.1683 112.9 74.929 114.656 71.8034 117.781C68.6778 120.907 66.9219 125.146 66.9219 129.567V137.9" stroke="#F5F9FA" stroke-width="5" stroke-linecap="round" stroke-linejoin="round"/>
<path d="M100.245 96.2332C109.45 96.2332 116.911 88.7713 116.911 79.5666C116.911 70.3618 109.45 62.8999 100.245 62.8999C91.04 62.8999 83.5781 70.3618 83.5781 79.5666C83.5781 88.7713 91.04 96.2332 100.245 96.2332Z" stroke="#F5F9FA" stroke-width="5" stroke-linecap="round" stroke-linejoin="round"/>
</svg>
