<svg width="48" height="49" viewBox="0 0 48 49" fill="none" xmlns="http://www.w3.org/2000/svg">
<rect y="0.199951" width="48" height="48" rx="24" fill="white"/>
<path d="M32 33.2V31.2C32 30.1391 31.5786 29.1217 30.8284 28.3715C30.0783 27.6214 29.0609 27.2 28 27.2H20C18.9391 27.2 17.9217 27.6214 17.1716 28.3715C16.4214 29.1217 16 30.1391 16 31.2V33.2" stroke="#B1B2B2" stroke-width="1.2" stroke-linecap="round" stroke-linejoin="round"/>
<path d="M24 23.2C26.2091 23.2 28 21.4091 28 19.2C28 16.9908 26.2091 15.2 24 15.2C21.7909 15.2 20 16.9908 20 19.2C20 21.4091 21.7909 23.2 24 23.2Z" stroke="#B1B2B2" stroke-width="1.2" stroke-linecap="round" stroke-linejoin="round"/>
</svg>
