<svg width="16" height="16" viewBox="0 0 16 16" fill="none" xmlns="http://www.w3.org/2000/svg">
<path d="M5.33338 14.6667H10.6667C13.3467 14.6667 13.8267 13.5933 13.9667 12.2867L14.4667 6.95333C14.6467 5.32667 14.18 4 11.3334 4H4.66671C1.82005 4 1.35338 5.32667 1.53338 6.95333L2.03338 12.2867C2.17338 13.5933 2.65338 14.6667 5.33338 14.6667Z" stroke="#033F47" stroke-width="1.14286" stroke-miterlimit="10" stroke-linecap="round" stroke-linejoin="round"/>
<path d="M5.33301 4.00004V3.46671C5.33301 2.28671 5.33301 1.33337 7.46634 1.33337H8.53301C10.6663 1.33337 10.6663 2.28671 10.6663 3.46671V4.00004" stroke="#033F47" stroke-width="1.14286" stroke-miterlimit="10" stroke-linecap="round" stroke-linejoin="round"/>
<path d="M9.33366 8.66667V9.33333C9.33366 9.34 9.33366 9.34 9.33366 9.34667C9.33366 10.0733 9.32699 10.6667 8.00033 10.6667C6.68033 10.6667 6.66699 10.08 6.66699 9.35333V8.66667C6.66699 8 6.66699 8 7.33366 8H8.66699C9.33366 8 9.33366 8 9.33366 8.66667Z" stroke="#033F47" stroke-width="1.14286" stroke-miterlimit="10" stroke-linecap="round" stroke-linejoin="round"/>
<path d="M14.433 7.33337C12.893 8.45337 11.133 9.12004 9.33301 9.34671" stroke="#033F47" stroke-width="1.14286" stroke-miterlimit="10" stroke-linecap="round" stroke-linejoin="round"/>
<path d="M1.74658 7.51331C3.24658 8.53997 4.93992 9.15997 6.66658 9.35331" stroke="#033F47" stroke-width="1.14286" stroke-miterlimit="10" stroke-linecap="round" stroke-linejoin="round"/>
</svg>
