<svg width="36" height="36" viewBox="0 0 36 36" fill="none" xmlns="http://www.w3.org/2000/svg">
<rect x="0.5" y="0.500031" width="35" height="35" rx="17.5" fill="#A1B3B6"/>
<rect x="0.5" y="0.500031" width="35" height="35" rx="17.5" stroke="white"/>
<path fill-rule="evenodd" clip-rule="evenodd" d="M14.75 13C14.75 11.1972 16.1972 9.75003 18 9.75003C19.8 9.75003 21.2486 11.2093 21.25 12.9974C21.2361 14.7529 19.8741 16.1687 18.1749 16.2482C18.0559 16.2353 17.9319 16.2351 17.8128 16.2478C16.1041 16.1551 14.75 14.7464 14.75 13ZM18 8.25003C15.3687 8.25003 13.25 10.3688 13.25 13C13.25 15.5746 15.2753 17.6574 17.8178 17.7495C17.8682 17.7514 17.9186 17.7481 17.9683 17.7398L17.9684 17.7398L17.9688 17.7397L17.9703 17.7395L17.9758 17.739C17.9805 17.7386 17.9861 17.7384 17.9922 17.7384C17.9984 17.7384 18.004 17.7386 18.0087 17.739L18.0142 17.7395L18.0157 17.7397C18.016 17.7398 18.0161 17.7398 18.0162 17.7398L18.0162 17.7398C18.0641 17.7478 18.1127 17.7511 18.1613 17.7497C20.7138 17.6757 22.7317 15.57 22.75 13.0054H22.75V13C22.75 10.3862 20.6332 8.25003 18 8.25003ZM22.7937 20.4703C21.4452 19.641 19.7047 19.25 18.0057 19.25C16.3064 19.25 14.5631 19.6411 13.2081 20.4692L13.2063 20.4703C11.9917 21.2173 11.25 22.2933 11.25 23.4948C11.25 24.696 11.9914 25.7718 13.2055 26.5187C14.5607 27.3548 16.301 27.75 18 27.75C19.6988 27.75 21.439 27.3549 22.7941 26.519C24.0084 25.772 24.75 24.6961 24.75 23.4948C24.75 22.2933 24.0083 21.2173 22.7937 20.4703ZM12.75 23.4948C12.75 22.9665 13.0742 22.3128 13.9913 21.7485C15.0558 21.0982 16.5106 20.75 18.0057 20.75C19.5014 20.75 20.9518 21.0985 22.0079 21.748C22.9256 22.3124 23.25 22.9663 23.25 23.4948C23.25 24.0233 22.9256 24.6772 22.0079 25.2416L22.007 25.2421C20.9425 25.8988 19.492 26.25 18 26.25C16.508 26.25 15.0575 25.8988 13.993 25.2421L13.9921 25.2416C13.0744 24.6772 12.75 24.0233 12.75 23.4948Z" fill="white"/>
</svg>
