<svg width="21" height="21" viewBox="0 0 21 21" fill="none" xmlns="http://www.w3.org/2000/svg">
<g clip-path="url(#clip0_1606_3839)">
<path d="M9.91797 3.4917H4.08464C3.64261 3.4917 3.21868 3.66729 2.90612 3.97985C2.59356 4.29242 2.41797 4.71634 2.41797 5.15837V16.825C2.41797 17.2671 2.59356 17.691 2.90612 18.0035C3.21868 18.3161 3.64261 18.4917 4.08464 18.4917H15.7513C16.1933 18.4917 16.6173 18.3161 16.9298 18.0035C17.2424 17.691 17.418 17.2671 17.418 16.825V10.9917" stroke="#627D81" stroke-width="1.5" stroke-linecap="round" stroke-linejoin="round"/>
<path d="M17.418 1.72412C16.9491 1.72412 16.4995 1.91037 16.168 2.24189L8.2513 10.1586L7.41797 13.4919L10.7513 12.6586L18.668 4.74189C18.9995 4.41037 19.1857 3.96073 19.1857 3.49189C19.1857 3.02305 18.9995 2.57341 18.668 2.24189C18.3364 1.91037 17.8868 1.72412 17.418 1.72412Z" stroke="#627D81" stroke-width="1.5" stroke-linecap="round" stroke-linejoin="round"/>
</g>
<defs>
<clipPath id="clip0_1606_3839">
<rect width="20" height="20" fill="white" transform="translate(0.75 0.158447)"/>
</clipPath>
</defs>
</svg>
