<svg width="20" height="21" viewBox="0 0 20 21" fill="none" xmlns="http://www.w3.org/2000/svg">
<path fill-rule="evenodd" clip-rule="evenodd" d="M2.4165 7.18083C2.4165 5.86544 2.78856 5.04931 3.32268 4.55334C3.86686 4.04803 4.69814 3.76416 5.83317 3.76416H14.1665C15.3015 3.76416 16.1328 4.04803 16.677 4.55334C17.2111 5.04931 17.5832 5.86544 17.5832 7.18083V13.0142C17.5832 14.3295 17.2111 15.1457 16.677 15.6416C16.1328 16.147 15.3015 16.4308 14.1665 16.4308H5.83317C4.69814 16.4308 3.86686 16.147 3.32268 15.6416C2.78856 15.1457 2.4165 14.3295 2.4165 13.0142V7.18083ZM5.83317 2.26416C4.4682 2.26416 3.21615 2.60529 2.302 3.45415C1.37779 4.31235 0.916504 5.57954 0.916504 7.18083V13.0142C0.916504 14.6154 1.37779 15.8826 2.302 16.7408C3.21615 17.5897 4.4682 17.9308 5.83317 17.9308H14.1665C15.5315 17.9308 16.7835 17.5897 17.6977 16.7408C18.6219 15.8826 19.0832 14.6154 19.0832 13.0142V7.18083C19.0832 5.57954 18.6219 4.31235 17.6977 3.45415C16.7835 2.60529 15.5315 2.26416 14.1665 2.26416H5.83317ZM15.4046 8.2289C15.7533 8.00536 15.8548 7.54146 15.6312 7.19274C15.4077 6.84403 14.9438 6.74255 14.5951 6.96608L11.466 8.97191L11.4655 8.97222C11.0978 9.20698 10.5668 9.34749 9.99483 9.34749C9.42301 9.34749 8.89218 9.20707 8.5245 8.97245L8.52365 8.97191L5.40551 6.96667C5.05712 6.74263 4.59306 6.84343 4.36902 7.19182C4.14497 7.54022 4.24578 8.00427 4.59417 8.22831L7.71416 10.2347L7.71602 10.2359C8.3783 10.6591 9.2071 10.8475 9.99483 10.8475C10.7826 10.8475 11.6114 10.6591 12.2736 10.2359L12.2746 10.2353L15.4046 8.2289Z" fill="#A1B3B6"/>
</svg>
