<svg width="20" height="20" viewBox="0 0 20 20" fill="none" xmlns="http://www.w3.org/2000/svg">
<path fill-rule="evenodd" clip-rule="evenodd" d="M10.0013 2.58337C6.69654 2.58337 3.68066 4.42738 1.62079 7.4904C1.13526 8.21024 0.917969 9.12722 0.917969 10C0.917969 10.8727 1.13516 11.7894 1.62045 12.5092C3.68034 15.5725 6.69636 17.4167 10.0013 17.4167C13.3061 17.4167 16.3219 15.5727 18.3818 12.5097C18.8673 11.7898 19.0846 10.8729 19.0846 10C19.0846 9.12742 18.8674 8.21066 18.3822 7.4909C16.3223 4.42758 13.3062 2.58337 10.0013 2.58337ZM18.3822 7.4909L18.3815 7.48991L17.7599 7.90931L18.3822 7.4909ZM18.3818 12.5097L18.3815 12.5102L17.7599 12.0908L18.3822 12.5092L18.3818 12.5097ZM1.62045 12.5092L2.24283 12.0907L1.62112 12.5102L1.62045 12.5092ZM1.62079 7.4904L1.62112 7.48991L2.24283 7.90941L1.62045 7.4909L1.62079 7.4904ZM2.8652 8.32791C4.70585 5.59063 7.29364 4.08337 10.0013 4.08337C12.709 4.08337 15.2968 5.59063 17.1374 8.32791L17.1381 8.3289C17.4188 8.74495 17.5846 9.3504 17.5846 10C17.5846 10.6497 17.4188 11.2551 17.1381 11.6712L17.1374 11.6722C15.2968 14.4094 12.709 15.9167 10.0013 15.9167C7.29364 15.9167 4.70585 14.4094 2.8652 11.6722L2.86454 11.6712C2.58381 11.2551 2.41797 10.6497 2.41797 10C2.41797 9.3504 2.58381 8.74495 2.86454 8.3289L2.8652 8.32791ZM7.41797 10C7.41797 8.57068 8.57194 7.41671 10.0013 7.41671C11.4307 7.41671 12.5846 8.57068 12.5846 10C12.5846 11.4294 11.4307 12.5834 10.0013 12.5834C8.57194 12.5834 7.41797 11.4294 7.41797 10ZM10.0013 5.91671C7.74351 5.91671 5.91797 7.74225 5.91797 10C5.91797 12.2578 7.74351 14.0834 10.0013 14.0834C12.2591 14.0834 14.0846 12.2578 14.0846 10C14.0846 7.74225 12.2591 5.91671 10.0013 5.91671Z" fill="white"/>
</svg>
