<svg width="72" height="72" viewBox="0 0 72 72" fill="none" xmlns="http://www.w3.org/2000/svg">
<rect width="72" height="72" rx="36" fill="#A1B3B6"/>
<path fill-rule="evenodd" clip-rule="evenodd" d="M20.334 28.5C20.334 25.5084 20.7723 24.0509 21.6696 23.2433C22.6051 22.4014 24.3153 22 27.6673 22H30.1673C31.3425 22 31.9137 22.1579 32.273 22.3522C32.6445 22.553 32.9027 22.8445 33.3991 23.4402L35.8991 26.4402L35.8991 26.4402L35.9033 26.4452L35.9508 26.5016C36.2353 26.8396 36.5931 27.2647 37.1353 27.5597C37.7232 27.8795 38.4226 28 39.334 28H44.334C47.686 28 49.3962 28.4014 50.3317 29.2433C51.229 30.0509 51.6673 31.5084 51.6673 34.5V43.5C51.6673 46.4916 51.229 47.9491 50.3317 48.7567C49.3962 49.5986 47.686 50 44.334 50H27.6673C24.3153 50 22.6051 49.5986 21.6696 48.7567C20.7723 47.9491 20.334 46.4916 20.334 43.5V28.5ZM27.6673 20C24.3527 20 21.8962 20.3486 20.3317 21.7567C18.729 23.1991 18.334 25.4916 18.334 28.5V43.5C18.334 46.5084 18.729 48.8009 20.3317 50.2433C21.8962 51.6514 24.3527 52 27.6673 52H44.334C47.6486 52 50.1051 51.6514 51.6696 50.2433C53.2723 48.8009 53.6673 46.5084 53.6673 43.5V34.5C53.6673 31.4916 53.2723 29.1991 51.6696 27.7567C50.1051 26.3486 47.6486 26 44.334 26H39.334C38.5787 26 38.2615 25.8955 38.091 25.8028C37.9059 25.7021 37.7731 25.5594 37.4335 25.1574L37.4313 25.1548L34.9355 22.1598L34.8894 22.1045C34.4484 21.5746 33.9643 20.993 33.2242 20.5928C32.4459 20.1721 31.4921 20 30.1673 20H27.6673Z" fill="#E2E8E9"/>
</svg>
