<svg width="24" height="25" viewBox="0 0 24 25" fill="none" xmlns="http://www.w3.org/2000/svg">
<path d="M14.9 2.5H9.10001C8.42001 2.5 7.46 2.9 6.98 3.38L2.88 7.48001C2.4 7.96001 2 8.92001 2 9.60001V15.4C2 16.08 2.4 17.04 2.88 17.52L6.98 21.62C7.46 22.1 8.42001 22.5 9.10001 22.5H14.9C15.58 22.5 16.54 22.1 17.02 21.62L21.12 17.52C21.6 17.04 22 16.08 22 15.4V9.60001C22 8.92001 21.6 7.96001 21.12 7.48001L17.02 3.38C16.54 2.9 15.58 2.5 14.9 2.5Z" stroke="#EA2A2A" stroke-width="1.5" stroke-linecap="round" stroke-linejoin="round"/>
<path d="M8.5 16L15.5 9" stroke="#EA2A2A" stroke-width="1.5" stroke-linecap="round" stroke-linejoin="round"/>
<path d="M15.5 16L8.5 9" stroke="#EA2A2A" stroke-width="1.5" stroke-linecap="round" stroke-linejoin="round"/>
</svg>
