<svg width="35" height="39" viewBox="0 0 35 39" fill="none" xmlns="http://www.w3.org/2000/svg">
<path d="M2.43748 0H23.1476L34.1249 10.9347V36.5625C34.1249 37.9092 33.033 39 31.6874 39H2.43748C1.09194 39 0 37.9092 0 36.5625V2.43748C0 1.09081 1.09207 0 2.43748 0Z" fill="#E2574C"/>
<path d="M34.0896 10.9678H25.5937C24.2482 10.9678 23.1562 9.87587 23.1562 8.53033V0.0234375L34.0896 10.9678Z" fill="#B53629"/>
<path d="M24.9815 18.479C25.3898 18.479 25.5897 18.1231 25.5897 17.7782C25.5897 17.4211 25.3812 17.0762 24.9815 17.0762H22.6561C22.2015 17.0762 21.948 17.4527 21.948 17.8684V23.583C21.948 24.0925 22.2381 24.3752 22.6305 24.3752C23.0205 24.3752 23.3118 24.0925 23.3118 23.583V22.0146H24.7183C25.1546 22.0146 25.3728 21.6574 25.3728 21.3028C25.3728 20.9555 25.1546 20.6105 24.7183 20.6105H23.3118V18.479H24.9815ZM17.1217 17.0762H15.4203C14.9584 17.0762 14.6305 17.3931 14.6305 17.8634V23.588C14.6305 24.1717 15.1022 24.3546 15.4398 24.3546H17.2253C19.3385 24.3546 20.734 22.964 20.734 20.8177C20.7329 18.5484 19.4191 17.0762 17.1217 17.0762ZM17.2035 22.9433H16.1662V18.4875H17.1011C18.5161 18.4875 19.1315 19.437 19.1315 20.7471C19.1315 21.9732 18.5269 22.9433 17.2035 22.9433ZM10.9707 17.0762H9.28522C8.80867 17.0762 8.54297 17.3906 8.54297 17.8684V23.583C8.54297 24.0925 8.84764 24.3752 9.2571 24.3752C9.66656 24.3752 9.97123 24.0925 9.97123 23.583V21.9146H11.0279C12.3319 21.9146 13.4081 20.9907 13.4081 19.5051C13.4082 18.0512 12.3699 17.0762 10.9707 17.0762ZM10.9427 20.5741H9.97136V18.4181H10.9427C11.5424 18.4181 11.9238 18.886 11.9238 19.4966C11.9226 20.1061 11.5424 20.5741 10.9427 20.5741Z" fill="white"/>
</svg>
