<svg width="14" height="14" viewBox="0 0 14 14" fill="none" xmlns="http://www.w3.org/2000/svg">
<path d="M0.5625 13.275C0.5125 13.225 0.4875 13.1187 0.4875 12.9562C0.4875 12.7062 0.5 12.5812 0.525 12.5812C0.625 12.5812 0.76875 12.5625 0.95625 12.525C1.15625 12.475 1.3375 12.4125 1.5 12.3375C1.6625 12.2625 1.75625 12.1937 1.78125 12.1312C1.86875 11.8187 1.9125 11.3125 1.9125 10.6125V3.44995C1.9125 2.66245 1.86875 2.17495 1.78125 1.98745C1.74375 1.88745 1.64375 1.79995 1.48125 1.72495C1.33125 1.64995 1.16875 1.5937 0.99375 1.5562C0.83125 1.5062 0.7 1.4812 0.6 1.4812C0.55 1.4812 0.525 1.3562 0.525 1.1062C0.525 0.918701 0.5375 0.812451 0.5625 0.787451L3.16875 0.899951C3.33125 0.912451 3.6375 0.906201 4.0875 0.881201C4.55 0.856201 5.15625 0.824951 5.90625 0.787451C5.94375 0.837451 5.9625 0.968701 5.9625 1.1812C5.9625 1.3812 5.9375 1.4812 5.8875 1.4812C5.8125 1.4812 5.68125 1.5062 5.49375 1.5562C5.31875 1.6062 5.14375 1.6687 4.96875 1.7437C4.80625 1.8062 4.7125 1.8687 4.6875 1.9312C4.5875 2.2062 4.5375 2.73745 4.5375 3.52495V6.18745L4.575 6.2437L6.825 6.2812C7 6.2812 7.26875 6.2812 7.63125 6.2812C7.99375 6.2687 8.45625 6.2562 9.01875 6.2437C9.04375 6.2187 9.05625 6.1937 9.05625 6.1687V3.44995C9.05625 2.77495 9.0125 2.2812 8.925 1.9687C8.9 1.8937 8.80625 1.8187 8.64375 1.7437C8.49375 1.6687 8.33125 1.6062 8.15625 1.5562C7.98125 1.5062 7.84375 1.4812 7.74375 1.4812C7.71875 1.4812 7.69375 1.4312 7.66875 1.3312C7.65625 1.2312 7.65625 1.12495 7.66875 1.01245C7.68125 0.887451 7.7 0.812451 7.725 0.787451L10.5188 0.899951C10.7063 0.899951 11.55 0.862451 13.05 0.787451C13.0875 0.899951 13.1063 1.01245 13.1063 1.12495C13.1063 1.36245 13.075 1.4812 13.0125 1.4812C12.9375 1.4812 12.8063 1.5062 12.6188 1.5562C12.4438 1.6062 12.275 1.6687 12.1125 1.7437C11.95 1.8062 11.8563 1.8687 11.8313 1.9312C11.7813 2.1187 11.7438 2.3437 11.7188 2.6062C11.6938 2.8687 11.6813 3.17495 11.6813 3.52495V10.5375C11.6813 10.875 11.6938 11.175 11.7188 11.4375C11.7438 11.7 11.7813 11.9312 11.8313 12.1312C11.8563 12.1812 11.9438 12.2437 12.0938 12.3187C12.2563 12.3812 12.425 12.4375 12.6 12.4875C12.7875 12.5375 12.9188 12.5625 12.9938 12.5625C13.0438 12.5625 13.0688 12.6937 13.0688 12.9562C13.0688 13.0562 13.05 13.1625 13.0125 13.275C12.9625 13.275 12.8438 13.2687 12.6563 13.2562C12.4688 13.2437 12.2188 13.225 11.9063 13.2C11.5938 13.175 11.3188 13.1562 11.0813 13.1437C10.8438 13.1312 10.6438 13.125 10.4813 13.125C10.3188 13.125 10.0938 13.1312 9.80625 13.1437C9.53125 13.1562 9.24375 13.175 8.94375 13.2C8.65625 13.2125 8.39375 13.225 8.15625 13.2375C7.91875 13.2625 7.7625 13.275 7.6875 13.275C7.6625 13.2375 7.64375 13.1625 7.63125 13.05C7.61875 12.9375 7.61875 12.8312 7.63125 12.7312C7.65625 12.6312 7.68125 12.5812 7.70625 12.5812C7.80625 12.5812 7.95 12.5562 8.1375 12.5062C8.325 12.4562 8.5 12.3937 8.6625 12.3187C8.825 12.2312 8.91875 12.1562 8.94375 12.0937C9.01875 11.8062 9.05625 11.3125 9.05625 10.6125V7.4812L9.01875 7.4062L6.825 7.3687C5.275 7.3812 4.5 7.39995 4.5 7.42495L4.5375 7.46245V10.5375C4.5375 10.8625 4.55 11.1562 4.575 11.4187C4.6 11.6812 4.6375 11.9125 4.6875 12.1125C4.7125 12.1625 4.8 12.225 4.95 12.3C5.1125 12.375 5.28125 12.4437 5.45625 12.5062C5.64375 12.5562 5.775 12.5812 5.85 12.5812C5.9 12.5812 5.925 12.675 5.925 12.8625C5.9375 13.05 5.925 13.1875 5.8875 13.275C5.275 13.2375 4.75625 13.2062 4.33125 13.1812C3.91875 13.1437 3.54375 13.125 3.20625 13.125C2.79375 13.125 2.375 13.1437 1.95 13.1812C1.5375 13.2062 1.075 13.2375 0.5625 13.275Z" fill="#2B786C"/>
</svg>
