<svg width="12" height="13" viewBox="0 0 12 13" fill="none" xmlns="http://www.w3.org/2000/svg">
<path d="M10.3096 4.3832C9.78456 2.0732 7.76956 1.0332 5.99956 1.0332C5.99956 1.0332 5.99956 1.0332 5.99456 1.0332C4.22956 1.0332 2.20956 2.0682 1.68456 4.3782C1.09956 6.9582 2.67956 9.1432 4.10956 10.5182C4.63956 11.0282 5.31956 11.2832 5.99956 11.2832C6.67956 11.2832 7.35956 11.0282 7.88456 10.5182C9.31456 9.1432 10.8946 6.9632 10.3096 4.3832ZM5.99956 6.8882C5.12956 6.8882 4.42456 6.1832 4.42456 5.3132C4.42456 4.4432 5.12956 3.7382 5.99956 3.7382C6.86956 3.7382 7.57456 4.4432 7.57456 5.3132C7.57456 6.1832 6.86956 6.8882 5.99956 6.8882Z" fill="#033F47"/>
</svg>
