<svg width="112" height="61" viewBox="0 0 112 61" fill="none" xmlns="http://www.w3.org/2000/svg">
<path d="M51.724 36.9115C51.6436 36.831 51.6034 36.6702 51.6034 36.429C51.6034 36.0068 51.6336 35.7957 51.6939 35.7957C51.8546 35.7957 52.086 35.7555 52.3875 35.675C52.6889 35.5946 52.9706 35.4941 53.2318 35.3735C53.4931 35.2528 53.644 35.1423 53.6842 35.0418C53.7646 34.7603 53.8149 34.4185 53.835 34.0164C53.8752 33.6144 53.8953 33.152 53.8953 32.6292L54.1583 4.2219C54.1583 2.93522 54.0778 2.15116 53.9171 1.8697C53.8568 1.74907 53.6958 1.6385 53.4346 1.53798C53.1934 1.41735 52.9419 1.31683 52.6807 1.23641C52.4194 1.156 52.2081 1.11579 52.0474 1.11579C51.967 1.11579 51.9268 0.944901 51.9268 0.603128C51.9268 0.241251 51.9469 0.0402086 51.9871 0L53.4346 0.0904692C53.8767 0.130678 54.2389 0.160834 54.5202 0.180938C54.8015 0.201043 55.0732 0.211095 55.3344 0.211095C55.6158 0.190991 55.9578 0.180938 56.3598 0.180938C56.7617 0.180938 58.1702 0.120626 60.5816 0C60.6419 0.180938 60.6721 0.361877 60.6721 0.542816C60.6721 0.924797 60.6319 1.11579 60.5515 1.11579C60.4309 1.11579 60.2196 1.156 59.9182 1.23641C59.6168 1.31683 59.325 1.41735 59.0437 1.53798C58.7824 1.6385 58.6315 1.73902 58.5913 1.83954C58.531 2.08079 58.4807 2.42257 58.4405 2.86486C58.4003 3.28705 58.3802 3.64893 58.3802 3.95049L58.1172 32.388C58.1172 32.9509 58.1373 33.4535 58.1775 33.8958C58.2177 34.3381 58.278 34.7201 58.3584 35.0418C58.3986 35.1222 58.5395 35.2227 58.7806 35.3433C59.0419 35.4639 59.3135 35.5745 59.5948 35.675C59.8963 35.7555 60.1076 35.7957 60.2281 35.7957C60.3085 35.7957 60.3488 35.9867 60.3488 36.3686C60.3488 36.5697 60.3286 36.7506 60.2884 36.9115C60.2081 36.9115 60.0169 36.9014 59.7155 36.8813C59.414 36.8612 59.0015 36.831 58.4791 36.7908C57.9566 36.7506 57.4938 36.7205 57.0919 36.7004C56.69 36.6803 56.3579 36.6702 56.0967 36.6702C55.735 36.6702 55.242 36.6903 54.619 36.7305C53.9961 36.7707 53.4025 36.8009 52.8398 36.821C52.2972 36.8612 51.925 36.8913 51.724 36.9115Z" fill="#2B786C"/>
<path d="M42.8037 29.0706C42.7233 28.9902 42.6831 28.8193 42.6831 28.558C42.6831 28.1559 42.7032 27.9548 42.7434 27.9548C42.9043 27.9548 43.1355 27.9247 43.437 27.8644C43.7587 27.7839 44.0502 27.6834 44.3116 27.5628C44.5729 27.4422 44.7237 27.3316 44.7639 27.2311C44.9046 26.7285 44.975 25.9142 44.975 24.7884V13.2687C44.975 12.0021 44.9046 11.218 44.7639 10.9165C44.7036 10.7556 44.5428 10.6149 44.2814 10.4943C44.0401 10.3736 43.7788 10.2832 43.4973 10.2229C43.236 10.1424 43.0249 10.1022 42.864 10.1022C42.7836 10.1022 42.7434 9.90119 42.7434 9.49911C42.7434 9.19755 42.7635 9.02666 42.8037 8.98645L46.9955 9.16739C47.2568 9.18749 47.7494 9.17744 48.4731 9.13723C49.217 9.09702 50.1921 9.04676 51.3983 8.98645C51.4586 9.06687 51.4888 9.27796 51.4888 9.61973C51.4888 9.9414 51.4486 10.1022 51.3682 10.1022C51.2475 10.1022 51.0364 10.1424 50.7349 10.2229C50.4534 10.3033 50.1719 10.4038 49.8905 10.5244C49.6291 10.6249 49.4784 10.7255 49.4381 10.826C49.2773 11.2683 49.1969 12.1227 49.1969 13.3893V16.4471L49.2572 16.5376L52.876 16.5979C53.1574 16.5979 59.9286 16.5979 60.5116 16.5979C61.0946 16.5778 61.8385 16.5577 62.7432 16.5376C62.7834 16.4974 62.8035 16.4572 62.8035 16.417V13.2687C62.8035 12.183 62.7331 11.3889 62.5924 10.8863C62.5522 10.7657 62.4014 10.6451 62.14 10.5244C61.8988 10.4038 61.6374 10.3033 61.356 10.2229C61.0745 10.1424 60.8534 10.1022 60.6925 10.1022C60.6523 10.1022 60.6121 10.0218 60.5719 9.86099C60.5518 9.70015 60.5518 9.52927 60.5719 9.34833C60.592 9.14728 60.6222 9.02666 60.6624 8.98645L65.1557 9.16739C65.4572 9.16739 66.8143 9.10708 69.2268 8.98645C69.2871 9.16739 69.3173 9.34833 69.3173 9.52927C69.3173 9.91125 69.267 10.1022 69.1665 10.1022C69.0458 10.1022 68.8347 10.1424 68.5332 10.2229C68.2517 10.3033 67.9803 10.4038 67.719 10.5244C67.4576 10.6249 67.3068 10.7255 67.2666 10.826C67.1862 11.1276 67.1259 11.4894 67.0857 11.9116C67.0455 12.3338 67.0254 12.8264 67.0254 13.3893V24.6678C67.0254 25.2106 67.0455 25.6931 67.0857 26.1153C67.1259 26.5375 67.1862 26.9094 67.2666 27.2311C67.3068 27.3115 67.4476 27.412 67.6888 27.5326C67.9502 27.6332 68.2216 27.7236 68.503 27.8041C68.8046 27.8845 69.0157 27.9247 69.1363 27.9247C69.2167 27.9247 69.2569 28.1358 69.2569 28.558C69.2569 28.7188 69.2268 28.8897 69.1665 29.0706C69.0861 29.0706 68.8951 29.0606 68.5935 29.0405C68.2919 29.0204 67.8898 28.9902 67.3872 28.95C66.8846 28.9098 66.4423 28.8796 66.0604 28.8595C65.6784 28.8394 65.3567 28.8294 65.0954 28.8294C64.834 28.8294 64.4721 28.8394 64.0097 28.8595C63.5674 28.8796 63.105 28.9098 62.6225 28.95C62.1601 28.9701 61.7379 28.9902 61.356 29.0103C60.974 29.0505 60.7227 29.0706 60.602 29.0706C60.5618 29.0103 60.5317 28.8897 60.5116 28.7087C60.4915 28.5278 60.4915 28.3569 60.5116 28.1961C60.5518 28.0353 60.592 27.9548 60.6322 27.9548C60.793 27.9548 61.0242 27.9146 61.3258 27.8342C61.6274 27.7538 61.9088 27.6533 62.1702 27.5326C62.4315 27.3919 62.5823 27.2713 62.6225 27.1708C62.7432 26.7084 62.8035 25.9142 62.8035 24.7884V20.6087L62.7432 20.4881L57.8096 20.4579L52.876 20.4278C50.383 20.4479 49.1366 20.4781 49.1366 20.5183L49.1969 20.5786V24.6678C49.1969 25.1905 49.217 25.6629 49.2572 26.0851C49.2974 26.5073 49.3577 26.8793 49.4381 27.2009C49.4784 27.2813 49.6191 27.3819 49.8603 27.5025C50.1217 27.6231 50.3931 27.7337 50.6746 27.8342C50.9761 27.9146 51.1872 27.9548 51.3078 27.9548C51.3883 27.9548 51.4285 28.1056 51.4285 28.4072C51.4486 28.7087 51.4285 28.9299 51.3682 29.0706C50.383 29.0103 49.5487 28.96 48.8652 28.9198C48.2017 28.8595 47.5986 28.8294 47.0558 28.8294C46.3923 28.8294 45.7189 28.8595 45.0353 28.9198C44.3719 28.96 43.628 29.0103 42.8037 29.0706Z" fill="#2B786C"/>
<path d="M97.7758 56.4228C97.7225 56.3695 97.6958 56.2561 97.6958 56.0827C97.6958 55.8159 97.7225 55.6825 97.7758 55.6825C97.8825 55.6825 98.0359 55.6625 98.236 55.6225C98.4361 55.5825 98.6228 55.5292 98.7962 55.4625C98.9696 55.3824 99.0696 55.3091 99.0963 55.2424C99.1764 54.9356 99.2164 54.3487 99.2164 53.4817V45.9188C99.2164 45.1719 99.1764 44.6517 99.0963 44.3582C99.0696 44.2782 98.9629 44.1982 98.7762 44.1181C98.6028 44.0248 98.4161 43.9514 98.216 43.8981C98.0159 43.8314 97.8625 43.798 97.7558 43.798C97.7025 43.798 97.6758 43.678 97.6758 43.4379C97.6758 43.2245 97.6958 43.0978 97.7358 43.0577C98.2693 43.0844 98.7762 43.1111 99.2564 43.1378C99.7499 43.1511 100.223 43.1578 100.677 43.1578C101.264 43.1578 102.298 43.1378 103.778 43.0978C104.525 43.0844 105.179 43.0777 105.739 43.0777C106.299 43.0644 106.766 43.0577 107.139 43.0577C107.153 43.1244 107.206 43.4045 107.299 43.8981C107.393 44.3916 107.533 45.0985 107.72 46.0189C107.653 46.0856 107.5 46.1189 107.259 46.1189C107.113 46.1189 107.019 46.0722 106.979 45.9789C106.819 45.6321 106.579 45.3253 106.259 45.0585C105.952 44.7784 105.612 44.5583 105.239 44.3982C104.879 44.2249 104.525 44.1382 104.178 44.1382H103.418C102.564 44.1382 102.131 44.2249 102.117 44.3982C102.091 44.5583 102.064 44.7717 102.037 45.0385C102.024 45.2919 102.017 45.5987 102.017 45.9588V49.04C102.017 49.12 102.304 49.1601 102.878 49.1601H103.938C104.778 49.1601 105.232 49.1334 105.299 49.08C105.365 49.0133 105.419 48.8199 105.459 48.4998C105.485 48.2864 105.525 48.093 105.579 47.9196C105.592 47.8262 105.692 47.7795 105.879 47.7795C106.106 47.7795 106.252 47.8129 106.319 47.8796V51.661C106.266 51.7144 106.126 51.741 105.899 51.741C105.726 51.741 105.619 51.6877 105.579 51.581C105.419 51.0608 105.312 50.7407 105.259 50.6206C105.205 50.5273 105.165 50.4872 105.139 50.5006C105.125 50.5006 105.085 50.4739 105.019 50.4205C104.832 50.3138 104.312 50.2605 103.458 50.2605C102.498 50.2605 102.017 50.3205 102.017 50.4406V53.5217C102.017 54.1486 102.071 54.6221 102.177 54.9423C102.231 55.1557 102.684 55.2624 103.538 55.2624H104.058C104.885 55.2624 105.632 55.089 106.299 54.7422C106.526 54.6221 106.779 54.3954 107.059 54.0619C107.353 53.7285 107.58 53.355 107.74 52.9415C107.766 52.8615 107.86 52.8215 108.02 52.8215C108.34 52.8215 108.54 52.8615 108.62 52.9415C107.953 54.7822 107.593 55.9293 107.54 56.3828C107.206 56.3828 106.766 56.3761 106.219 56.3628C105.685 56.3628 105.045 56.3561 104.298 56.3428C103.565 56.3295 102.898 56.3161 102.298 56.3028C101.697 56.2761 101.164 56.2761 100.697 56.3028L97.7758 56.4228Z" fill="#80AEA7"/>
<path d="M96.2754 56.4829C95.6218 56.4829 95.0216 56.4228 94.4747 56.3028C93.9412 56.1694 93.5144 56.0227 93.1943 55.8626C92.8608 55.7026 92.534 55.4625 92.2139 55.1423C92.0538 54.9823 91.9071 54.8289 91.7737 54.6822C91.6403 54.5354 91.4936 54.3554 91.3335 54.142C91.1868 53.9152 90.9934 53.6218 90.7533 53.2616C90.5132 52.8882 90.1998 52.3946 89.813 51.7811C89.2928 50.9941 88.946 50.5673 88.7726 50.5006C88.7459 50.4872 88.6725 50.4806 88.5525 50.4806C88.4324 50.4806 88.3724 50.5873 88.3724 50.8007V53.5217C88.3724 54.2287 88.4191 54.7755 88.5125 55.1624C88.5391 55.2691 88.6525 55.3624 88.8526 55.4425C89.0527 55.5225 89.2728 55.5825 89.5129 55.6225C89.7529 55.6625 89.9397 55.6825 90.0731 55.6825C90.1264 55.6825 90.1531 55.8093 90.1531 56.0627C90.1531 56.1961 90.1398 56.3161 90.1131 56.4228C89.3128 56.3828 88.6592 56.3495 88.1523 56.3228C87.6455 56.2961 87.2787 56.2894 87.0519 56.3028L84.1308 56.4228C84.0774 56.3695 84.0508 56.2561 84.0508 56.0827C84.0508 55.8159 84.0774 55.6825 84.1308 55.6825C84.2375 55.6825 84.3909 55.6625 84.591 55.6225C84.7911 55.5825 84.9778 55.5292 85.1512 55.4625C85.3246 55.3824 85.4246 55.3091 85.4513 55.2424C85.5313 54.9356 85.5713 54.3487 85.5713 53.4817V45.9188C85.5713 45.1719 85.5313 44.6517 85.4513 44.3582C85.4246 44.2782 85.3179 44.1982 85.1312 44.1181C84.9578 44.0248 84.771 43.9514 84.571 43.8981C84.3709 43.8314 84.2175 43.798 84.1108 43.798C84.0574 43.798 84.0308 43.678 84.0308 43.4379C84.0308 43.2245 84.0508 43.0978 84.0908 43.0577C84.7044 43.0844 85.2512 43.1111 85.7314 43.1378C86.2249 43.1511 86.6584 43.1578 87.0319 43.1578C87.6721 43.1444 88.1723 43.1378 88.5325 43.1378C88.8926 43.1378 89.1661 43.1378 89.3528 43.1378C89.5395 43.1378 89.6996 43.1378 89.833 43.1378C90.3665 43.1378 90.9 43.2045 91.4336 43.3378C91.9805 43.4712 92.4806 43.678 92.9342 43.9581C93.3877 44.2249 93.7478 44.5716 94.0146 44.9985C94.2947 45.412 94.4347 45.9122 94.4347 46.4991C94.4347 47.0859 94.3147 47.6328 94.0746 48.1397C93.8345 48.6465 93.521 49.0734 93.1342 49.4202C92.7608 49.767 92.3739 50.0071 91.9738 50.1404C91.8671 50.1805 91.8471 50.2538 91.9138 50.3605C92.2072 50.854 92.434 51.2275 92.594 51.4809C92.7541 51.7344 92.8875 51.9411 92.9942 52.1012C93.1142 52.2479 93.2543 52.4346 93.4143 52.6614C93.5744 52.8748 93.8012 53.2016 94.0946 53.6418C94.3213 53.9619 94.5881 54.282 94.8949 54.6021C95.215 54.9089 95.5552 55.169 95.9153 55.3824C96.2888 55.5825 96.6422 55.6825 96.9757 55.6825C97.029 55.7359 97.0557 55.8559 97.0557 56.0427C97.0557 56.2027 97.029 56.3361 96.9757 56.4428C96.8823 56.4562 96.7756 56.4628 96.6556 56.4628C96.5489 56.4762 96.4221 56.4829 96.2754 56.4829ZM89.2127 49.3801H89.7529C90.2731 49.3801 90.6733 49.1534 90.9534 48.6999C91.2468 48.2464 91.3936 47.6462 91.3936 46.8992C91.3936 45.1252 90.7733 44.2382 89.5329 44.2382C89.066 44.2382 88.7592 44.2915 88.6125 44.3982C88.4524 44.5183 88.3724 45.1719 88.3724 46.359V48.5198C88.3724 48.8933 88.4458 49.1334 88.5925 49.2401C88.7526 49.3335 88.9593 49.3801 89.2127 49.3801Z" fill="#80AEA7"/>
<path d="M77.1879 56.4227C77.1346 56.3694 77.1079 56.2627 77.1079 56.1026C77.1079 55.8225 77.1279 55.6825 77.1679 55.6825C77.2746 55.6825 77.428 55.6558 77.6281 55.6024C77.8282 55.5491 78.0149 55.4824 78.1883 55.4023C78.3617 55.3223 78.4618 55.249 78.4884 55.1823C78.5418 54.9955 78.5751 54.7688 78.5885 54.502C78.6152 54.2352 78.6285 53.9284 78.6285 53.5816V45.8987C78.6285 45.0451 78.5751 44.5249 78.4684 44.3381C78.4284 44.2581 78.3217 44.1847 78.1483 44.118C77.9882 44.038 77.8215 43.9713 77.6481 43.918C77.4747 43.8646 77.3347 43.8379 77.228 43.8379C77.1746 43.8379 77.1479 43.7246 77.1479 43.4978C77.1479 43.2577 77.1613 43.1243 77.1879 43.0977L78.1483 43.1577C78.4418 43.1844 78.6818 43.2044 78.8686 43.2177C79.0553 43.231 79.2354 43.2377 79.4088 43.2377C79.5955 43.2244 79.8223 43.2177 80.089 43.2177C80.3558 43.2177 81.2895 43.1777 82.8901 43.0977C82.9301 43.2177 82.9501 43.3377 82.9501 43.4578C82.9501 43.7112 82.9235 43.8379 82.8701 43.8379C82.7901 43.8379 82.65 43.8646 82.4499 43.918C82.2499 43.9713 82.0565 44.038 81.8697 44.118C81.6963 44.1847 81.5963 44.2514 81.5696 44.3181C81.5296 44.4782 81.4962 44.7049 81.4696 44.9984C81.4429 45.2785 81.4296 45.5186 81.4296 45.7187V53.4216C81.4296 53.7951 81.4429 54.1285 81.4696 54.422C81.4962 54.7154 81.5363 54.9688 81.5896 55.1823C81.6163 55.2356 81.7097 55.3023 81.8697 55.3823C82.0431 55.4624 82.2232 55.5357 82.4099 55.6024C82.61 55.6558 82.7501 55.6825 82.8301 55.6825C82.8834 55.6825 82.9101 55.8092 82.9101 56.0626C82.9101 56.196 82.8968 56.316 82.8701 56.4227C82.8168 56.4227 82.69 56.4161 82.49 56.4027C82.2899 56.3894 82.0164 56.3694 81.6696 56.3427C81.3228 56.316 81.0161 56.296 80.7493 56.2827C80.4825 56.2693 80.2624 56.2627 80.089 56.2627C79.849 56.2627 79.5222 56.276 79.1087 56.3027C78.6952 56.3294 78.3017 56.3494 77.9282 56.3627C77.5681 56.3894 77.3213 56.4094 77.1879 56.4227Z" fill="#80AEA7"/>
<path d="M62.6425 56.4227C62.5892 56.3694 62.5625 56.256 62.5625 56.0826C62.5625 55.8158 62.5758 55.6825 62.6025 55.6825C62.7092 55.6825 62.8626 55.6624 63.0627 55.6224C63.2761 55.5691 63.4695 55.5024 63.6429 55.4224C63.8163 55.3423 63.9163 55.269 63.943 55.2023C64.0364 54.8688 64.0831 54.3286 64.0831 53.5816V45.9387C64.0831 45.0984 64.0364 44.5782 63.943 44.3781C63.903 44.2714 63.7963 44.1781 63.6229 44.098C63.4628 44.018 63.2894 43.958 63.1027 43.918C62.9293 43.8646 62.7893 43.8379 62.6825 43.8379C62.6292 43.8379 62.6025 43.7046 62.6025 43.4378C62.6025 43.2377 62.6159 43.1243 62.6425 43.0977L65.4236 43.2177C65.597 43.231 65.9238 43.2244 66.404 43.1977C66.8975 43.171 67.5444 43.1377 68.3447 43.0977C68.3847 43.151 68.4047 43.2911 68.4047 43.5178C68.4047 43.7312 68.378 43.8379 68.3247 43.8379C68.2447 43.8379 68.1046 43.8646 67.9045 43.918C67.7178 43.9713 67.5311 44.038 67.3443 44.118C67.1709 44.1847 67.0709 44.2514 67.0442 44.3181C66.9375 44.6116 66.8841 45.1784 66.8841 46.0188V48.8599L66.9242 48.9199L69.3251 48.9599C69.5118 48.9599 69.7986 48.9599 70.1854 48.9599C70.5722 48.9466 71.0657 48.9332 71.666 48.9199C71.6926 48.8932 71.706 48.8665 71.706 48.8398V45.9387C71.706 45.2185 71.6593 44.6916 71.5659 44.3581C71.5393 44.2781 71.4392 44.1981 71.2658 44.118C71.1058 44.038 70.9324 43.9713 70.7456 43.918C70.5589 43.8646 70.4122 43.8379 70.3054 43.8379C70.2788 43.8379 70.2521 43.7846 70.2254 43.6779C70.2121 43.5712 70.2121 43.4578 70.2254 43.3377C70.2388 43.2044 70.2588 43.1243 70.2854 43.0977L73.2666 43.2177C73.4667 43.2177 74.367 43.1777 75.9676 43.0977C76.0076 43.2177 76.0276 43.3377 76.0276 43.4578C76.0276 43.7112 75.9943 43.8379 75.9276 43.8379C75.8476 43.8379 75.7075 43.8646 75.5074 43.918C75.3207 43.9713 75.1406 44.038 74.9672 44.118C74.7938 44.1847 74.6938 44.2514 74.6671 44.3181C74.6138 44.5182 74.5737 44.7583 74.5471 45.0384C74.5204 45.3185 74.5071 45.6453 74.5071 46.0188V53.5016C74.5071 53.8618 74.5204 54.1819 74.5471 54.462C74.5737 54.7421 74.6138 54.9889 74.6671 55.2023C74.6938 55.2556 74.7872 55.3223 74.9472 55.4023C75.1206 55.469 75.3007 55.5291 75.4874 55.5824C75.6875 55.6358 75.8276 55.6624 75.9076 55.6624C75.9609 55.6624 75.9876 55.8025 75.9876 56.0826C75.9876 56.1893 75.9676 56.3027 75.9276 56.4227C75.8742 56.4227 75.7475 56.4161 75.5474 56.4027C75.3474 56.3894 75.0806 56.3694 74.7471 56.3427C74.4137 56.316 74.1202 56.296 73.8668 56.2827C73.6134 56.2693 73.4 56.2627 73.2266 56.2627C73.0532 56.2627 72.8131 56.2693 72.5063 56.2827C72.2128 56.296 71.9061 56.316 71.5859 56.3427C71.2792 56.356 70.999 56.3694 70.7456 56.3827C70.4922 56.4094 70.3255 56.4227 70.2454 56.4227C70.2188 56.3827 70.1987 56.3027 70.1854 56.1826C70.1721 56.0626 70.1721 55.9492 70.1854 55.8425C70.2121 55.7358 70.2388 55.6825 70.2654 55.6825C70.3721 55.6825 70.5255 55.6558 70.7256 55.6024C70.9257 55.5491 71.1124 55.4824 71.2858 55.4023C71.4592 55.309 71.5593 55.2289 71.5859 55.1623C71.666 54.8555 71.706 54.3286 71.706 53.5816V50.2404L71.666 50.1603L69.3251 50.1203C67.6711 50.1337 66.8441 50.1537 66.8441 50.1804L66.8841 50.2204V53.5016C66.8841 53.8484 66.8975 54.1619 66.9242 54.442C66.9508 54.7221 66.9909 54.9688 67.0442 55.1823C67.0709 55.2356 67.1643 55.3023 67.3243 55.3823C67.4977 55.4624 67.6778 55.5357 67.8645 55.6024C68.0646 55.6558 68.2046 55.6825 68.2847 55.6825C68.338 55.6825 68.3647 55.7825 68.3647 55.9826C68.378 56.1826 68.3647 56.3294 68.3247 56.4227C67.6711 56.3827 67.1176 56.3494 66.6641 56.3227C66.2239 56.2827 65.8237 56.2627 65.4636 56.2627C65.0234 56.2627 64.5766 56.2827 64.1231 56.3227C63.6829 56.3494 63.1894 56.3827 62.6425 56.4227Z" fill="#80AEA7"/>
<path d="M51.9429 53.2683C51.9328 53.2316 51.9228 53.1904 51.9128 53.1445C51.9128 53.0987 51.9128 53.0529 51.9128 53.007C51.9128 52.842 51.9328 52.7595 51.9729 52.7595C52.2235 52.7229 52.4742 52.6587 52.7248 52.567C52.9854 52.4662 53.1609 52.3699 53.2511 52.2783L54.8751 50.642C54.9252 50.5962 54.9502 50.5457 54.9502 50.4907C54.9502 50.4449 54.9302 50.4037 54.8901 50.367L52.9654 48.1532C52.8351 47.9974 52.6696 47.8736 52.4692 47.782C52.2787 47.6903 52.1033 47.6445 51.9429 47.6445C51.8927 47.6445 51.8677 47.5528 51.8677 47.3695C51.8677 47.2595 51.8827 47.1769 51.9128 47.1219C52.5343 47.1586 53.0155 47.1861 53.3563 47.2044C53.6972 47.2136 53.9027 47.2182 53.9728 47.2182C54.023 47.2182 54.2184 47.2136 54.5593 47.2044C54.9001 47.1861 55.3813 47.1586 56.0028 47.1219C56.0329 47.1586 56.0479 47.2411 56.0479 47.3695C56.0479 47.5436 56.0229 47.6307 55.9728 47.6307C55.8324 47.6307 55.682 47.6628 55.5216 47.727C55.3713 47.7911 55.2961 47.869 55.2961 47.9607C55.2961 48.0065 55.3212 48.0615 55.3713 48.1257L56.3036 49.1845C56.6043 48.8086 56.8399 48.5291 57.0103 48.3457C57.1807 48.1532 57.2659 48.0111 57.2659 47.9195C57.2659 47.727 56.9552 47.6307 56.3336 47.6307C56.2935 47.6307 56.2735 47.5482 56.2735 47.3832C56.2735 47.2457 56.2935 47.1586 56.3336 47.1219C56.9251 47.1586 57.3762 47.1861 57.687 47.2044C58.0078 47.2136 58.1932 47.2182 58.2433 47.2182C58.2935 47.2182 58.4689 47.2136 58.7696 47.2044C59.0704 47.1861 59.4864 47.1586 60.0177 47.1219C60.0478 47.1769 60.0628 47.2595 60.0628 47.3695C60.0628 47.5436 60.0478 47.6307 60.0177 47.6307C59.316 47.6949 58.8699 47.8232 58.6794 48.0157L57.0103 49.6932C56.9502 49.7574 56.9201 49.8078 56.9201 49.8445C56.9201 49.8995 56.9401 49.9453 56.9802 49.982L58.7847 52.0583C59.1355 52.4616 59.5415 52.7045 60.0027 52.787C60.0427 52.787 60.0628 52.8833 60.0628 53.0758C60.0628 53.1675 60.0427 53.2316 60.0027 53.2683C59.6217 53.25 59.2709 53.227 58.9501 53.1995C58.6393 53.172 58.3285 53.1583 58.0178 53.1583C57.6168 53.1583 57.2559 53.172 56.9351 53.1995C56.6244 53.227 56.2935 53.25 55.9427 53.2683L55.9126 53.1033C55.9126 52.8741 55.9327 52.7595 55.9728 52.7595C56.1031 52.7504 56.2484 52.7045 56.4088 52.622C56.5792 52.5304 56.6645 52.4295 56.6645 52.3195C56.6645 52.2829 56.6394 52.2416 56.5893 52.1958L55.6119 51.1508L54.7548 52.1408C54.6846 52.2324 54.6495 52.3195 54.6495 52.402C54.6495 52.4937 54.7347 52.567 54.9051 52.622C55.0455 52.6679 55.1708 52.6999 55.2811 52.7183C55.4014 52.7274 55.5116 52.7412 55.6119 52.7595C55.6319 52.7595 55.6419 52.842 55.6419 53.007C55.6419 53.1445 55.6219 53.2316 55.5818 53.2683C55.5317 53.2591 55.3963 53.2454 55.1758 53.227C54.9553 53.2179 54.7147 53.2041 54.454 53.1858C54.2034 53.1675 53.9879 53.1583 53.8074 53.1583C53.4566 53.1583 53.1358 53.172 52.8451 53.1995C52.5544 53.227 52.2536 53.25 51.9429 53.2683Z" fill="#80AEA7"/>
<path d="M38.5932 56.4228C38.5398 56.3695 38.5132 56.2561 38.5132 56.0827C38.5132 55.8159 38.5398 55.6825 38.5932 55.6825C38.6999 55.6825 38.8533 55.6625 39.0534 55.6225C39.2535 55.5825 39.4402 55.5292 39.6136 55.4625C39.787 55.3824 39.887 55.3091 39.9137 55.2424C39.9937 54.9356 40.0338 54.3487 40.0338 53.4817V45.9188C40.0338 45.1719 39.9937 44.6517 39.9137 44.3582C39.887 44.2782 39.7803 44.1982 39.5936 44.1181C39.4202 44.0248 39.2334 43.9514 39.0334 43.8981C38.8333 43.8314 38.6799 43.798 38.5732 43.798C38.5198 43.798 38.4932 43.678 38.4932 43.4379C38.4932 43.2245 38.5132 43.0978 38.5532 43.0577C39.0867 43.0844 39.5936 43.1111 40.0738 43.1378C40.5673 43.1511 41.0408 43.1578 41.4943 43.1578C42.0812 43.1578 43.1149 43.1378 44.5955 43.0978C45.3424 43.0844 45.996 43.0777 46.5562 43.0777C47.1164 43.0644 47.5833 43.0577 47.9568 43.0577C47.9701 43.1244 48.0235 43.4045 48.1168 43.8981C48.2102 44.3916 48.3503 45.0985 48.537 46.0189C48.4703 46.0856 48.3169 46.1189 48.0768 46.1189C47.9301 46.1189 47.8367 46.0722 47.7967 45.9789C47.6366 45.6321 47.3966 45.3253 47.0764 45.0585C46.7697 44.7784 46.4295 44.5583 46.056 44.3982C45.6959 44.2249 45.3424 44.1382 44.9956 44.1382H44.2354C43.3817 44.1382 42.9482 44.2249 42.9349 44.3982C42.9082 44.5583 42.8815 44.7717 42.8548 45.0385C42.8415 45.2919 42.8348 45.5987 42.8348 45.9588V49.04C42.8348 49.12 43.1216 49.1601 43.6951 49.1601H44.7555C45.5959 49.1601 46.0494 49.1334 46.1161 49.08C46.1828 49.0133 46.2361 48.8199 46.2761 48.4998C46.3028 48.2864 46.3428 48.093 46.3962 47.9196C46.4095 47.8262 46.5096 47.7795 46.6963 47.7795C46.923 47.7795 47.0698 47.8129 47.1365 47.8796V51.661C47.0831 51.7144 46.943 51.741 46.7163 51.741C46.5429 51.741 46.4362 51.6877 46.3962 51.581C46.2361 51.0608 46.1294 50.7407 46.0761 50.6206C46.0227 50.5273 45.9827 50.4872 45.956 50.5006C45.9427 50.5006 45.9027 50.4739 45.836 50.4205C45.6492 50.3138 45.129 50.2605 44.2754 50.2605C43.315 50.2605 42.8348 50.3205 42.8348 50.4406V53.5217C42.8348 54.1486 42.8882 54.6221 42.9949 54.9423C43.0482 55.1557 43.5017 55.2624 44.3554 55.2624H44.8756C45.7026 55.2624 46.4495 55.089 47.1164 54.7422C47.3432 54.6221 47.5966 54.3954 47.8767 54.0619C48.1702 53.7285 48.3969 53.355 48.557 52.9415C48.5837 52.8615 48.677 52.8215 48.8371 52.8215C49.1572 52.8215 49.3573 52.8615 49.4373 52.9415C48.7704 54.7822 48.4103 55.9293 48.3569 56.3828C48.0235 56.3828 47.5833 56.3761 47.0364 56.3628C46.5029 56.3628 45.8626 56.3561 45.1157 56.3428C44.3821 56.3295 43.7152 56.3161 43.1149 56.3028C42.5147 56.2761 41.9812 56.2761 41.5143 56.3028L38.5932 56.4228Z" fill="#80AEA7"/>
<path d="M37.0928 56.4829C36.4392 56.4829 35.839 56.4228 35.2921 56.3028C34.7586 56.1694 34.3318 56.0227 34.0116 55.8626C33.6782 55.7026 33.3514 55.4625 33.0313 55.1423C32.8712 54.9823 32.7245 54.8289 32.5911 54.6822C32.4577 54.5354 32.311 54.3554 32.1509 54.142C32.0042 53.9152 31.8108 53.6218 31.5707 53.2616C31.3306 52.8882 31.0172 52.3946 30.6303 51.7811C30.1101 50.9941 29.7634 50.5673 29.59 50.5006C29.5633 50.4872 29.4899 50.4806 29.3699 50.4806C29.2498 50.4806 29.1898 50.5873 29.1898 50.8007V53.5217C29.1898 54.2287 29.2365 54.7755 29.3299 55.1624C29.3565 55.2691 29.4699 55.3624 29.67 55.4425C29.8701 55.5225 30.0901 55.5825 30.3302 55.6225C30.5703 55.6625 30.7571 55.6825 30.8904 55.6825C30.9438 55.6825 30.9705 55.8093 30.9705 56.0627C30.9705 56.1961 30.9571 56.3161 30.9305 56.4228C30.1302 56.3828 29.4766 56.3495 28.9697 56.3228C28.4629 56.2961 28.096 56.2894 27.8693 56.3028L24.9482 56.4228C24.8948 56.3695 24.8682 56.2561 24.8682 56.0827C24.8682 55.8159 24.8948 55.6825 24.9482 55.6825C25.0549 55.6825 25.2083 55.6625 25.4084 55.6225C25.6084 55.5825 25.7952 55.5292 25.9686 55.4625C26.142 55.3824 26.242 55.3091 26.2687 55.2424C26.3487 54.9356 26.3887 54.3487 26.3887 53.4817V45.9188C26.3887 45.1719 26.3487 44.6517 26.2687 44.3582C26.242 44.2782 26.1353 44.1982 25.9486 44.1181C25.7752 44.0248 25.5884 43.9514 25.3884 43.8981C25.1883 43.8314 25.0349 43.798 24.9282 43.798C24.8748 43.798 24.8481 43.678 24.8481 43.4379C24.8481 43.2245 24.8682 43.0978 24.9082 43.0577C25.5217 43.0844 26.0686 43.1111 26.5488 43.1378C27.0423 43.1511 27.4758 43.1578 27.8493 43.1578C28.4895 43.1444 28.9897 43.1378 29.3499 43.1378C29.71 43.1378 29.9834 43.1378 30.1702 43.1378C30.3569 43.1378 30.517 43.1378 30.6504 43.1378C31.1839 43.1378 31.7174 43.2045 32.251 43.3378C32.7978 43.4712 33.298 43.678 33.7515 43.9581C34.205 44.2249 34.5652 44.5716 34.8319 44.9985C35.1121 45.412 35.2521 45.9122 35.2521 46.4991C35.2521 47.0859 35.1321 47.6328 34.892 48.1397C34.6519 48.6465 34.3384 49.0734 33.9516 49.4202C33.5781 49.767 33.1913 50.0071 32.7912 50.1404C32.6845 50.1805 32.6645 50.2538 32.7311 50.3605C33.0246 50.854 33.2513 51.2275 33.4114 51.4809C33.5715 51.7344 33.7049 51.9411 33.8116 52.1012C33.9316 52.2479 34.0717 52.4346 34.2317 52.6614C34.3918 52.8748 34.6185 53.2016 34.912 53.6418C35.1387 53.9619 35.4055 54.282 35.7123 54.6021C36.0324 54.9089 36.3725 55.169 36.7327 55.3824C37.1061 55.5825 37.4596 55.6825 37.7931 55.6825C37.8464 55.7359 37.8731 55.8559 37.8731 56.0427C37.8731 56.2027 37.8464 56.3361 37.7931 56.4428C37.6997 56.4562 37.593 56.4628 37.473 56.4628C37.3662 56.4762 37.2395 56.4829 37.0928 56.4829ZM30.0301 49.3801H30.5703C31.0905 49.3801 31.4907 49.1534 31.7708 48.6999C32.0642 48.2464 32.2109 47.6462 32.2109 46.8992C32.2109 45.1252 31.5907 44.2382 30.3502 44.2382C29.8834 44.2382 29.5766 44.2915 29.4299 44.3982C29.2698 44.5183 29.1898 45.1719 29.1898 46.359V48.5198C29.1898 48.8933 29.2632 49.1334 29.4099 49.2401C29.5699 49.3335 29.7767 49.3801 30.0301 49.3801Z" fill="#80AEA7"/>
<path d="M18.0053 56.4227C17.952 56.3694 17.9253 56.2627 17.9253 56.1026C17.9253 55.8225 17.9453 55.6825 17.9853 55.6825C18.092 55.6825 18.2454 55.6558 18.4455 55.6024C18.6456 55.5491 18.8323 55.4824 19.0057 55.4023C19.1791 55.3223 19.2791 55.249 19.3058 55.1823C19.3592 54.9955 19.3925 54.7688 19.4059 54.502C19.4325 54.2352 19.4459 53.9284 19.4459 53.5816V45.8987C19.4459 45.0451 19.3925 44.5249 19.2858 44.3381C19.2458 44.2581 19.1391 44.1847 18.9657 44.118C18.8056 44.038 18.6389 43.9713 18.4655 43.918C18.2921 43.8646 18.152 43.8379 18.0453 43.8379C17.992 43.8379 17.9653 43.7246 17.9653 43.4978C17.9653 43.2577 17.9786 43.1243 18.0053 43.0977L18.9657 43.1577C19.2591 43.1844 19.4992 43.2044 19.686 43.2177C19.8727 43.231 20.0528 43.2377 20.2262 43.2377C20.4129 43.2244 20.6397 43.2177 20.9064 43.2177C21.1732 43.2177 22.1069 43.1777 23.7075 43.0977C23.7475 43.2177 23.7675 43.3377 23.7675 43.4578C23.7675 43.7112 23.7408 43.8379 23.6875 43.8379C23.6075 43.8379 23.4674 43.8646 23.2673 43.918C23.0673 43.9713 22.8738 44.038 22.6871 44.118C22.5137 44.1847 22.4137 44.2514 22.387 44.3181C22.347 44.4782 22.3136 44.7049 22.287 44.9984C22.2603 45.2785 22.2469 45.5186 22.2469 45.7187V53.4216C22.2469 53.7951 22.2603 54.1285 22.287 54.422C22.3136 54.7154 22.3536 54.9688 22.407 55.1823C22.4337 55.2356 22.527 55.3023 22.6871 55.3823C22.8605 55.4624 23.0406 55.5357 23.2273 55.6024C23.4274 55.6558 23.5674 55.6825 23.6475 55.6825C23.7008 55.6825 23.7275 55.8092 23.7275 56.0626C23.7275 56.196 23.7142 56.316 23.6875 56.4227C23.6341 56.4227 23.5074 56.4161 23.3073 56.4027C23.1073 56.3894 22.8338 56.3694 22.487 56.3427C22.1402 56.316 21.8334 56.296 21.5667 56.2827C21.2999 56.2693 21.0798 56.2627 20.9064 56.2627C20.6663 56.2627 20.3395 56.276 19.9261 56.3027C19.5126 56.3294 19.1191 56.3494 18.7456 56.3627C18.3855 56.3894 18.1387 56.4094 18.0053 56.4227Z" fill="#80AEA7"/>
<path d="M3.45991 56.4227C3.40656 56.3694 3.37988 56.256 3.37988 56.0826C3.37988 55.8158 3.39322 55.6825 3.4199 55.6825C3.52661 55.6825 3.68 55.6624 3.88007 55.6224C4.09349 55.5691 4.2869 55.5024 4.46029 55.4224C4.63369 55.3423 4.73373 55.269 4.76041 55.2023C4.85378 54.8688 4.90046 54.3286 4.90046 53.5816V45.9387C4.90046 45.0984 4.85378 44.5782 4.76041 44.3781C4.72039 44.2714 4.61369 44.1781 4.44029 44.098C4.28023 44.018 4.10683 43.958 3.92009 43.918C3.74669 43.8646 3.60664 43.8379 3.49993 43.8379C3.44657 43.8379 3.4199 43.7046 3.4199 43.4378C3.4199 43.2377 3.43324 43.1243 3.45991 43.0977L6.24097 43.2177C6.41437 43.231 6.74116 43.2244 7.22135 43.1977C7.71487 43.171 8.36178 43.1377 9.16209 43.0977C9.2021 43.151 9.22211 43.2911 9.22211 43.5178C9.22211 43.7312 9.19543 43.8379 9.14208 43.8379C9.06205 43.8379 8.92199 43.8646 8.72192 43.918C8.53518 43.9713 8.34844 44.038 8.1617 44.118C7.98831 44.1847 7.88827 44.2514 7.86159 44.3181C7.75488 44.6116 7.70153 45.1784 7.70153 46.0188V48.8599L7.74154 48.9199L10.1425 48.9599C10.3292 48.9599 10.616 48.9599 11.0028 48.9599C11.3896 48.9466 11.8831 48.9332 12.4834 48.9199C12.51 48.8932 12.5234 48.8665 12.5234 48.8398V45.9387C12.5234 45.2185 12.4767 44.6916 12.3833 44.3581C12.3566 44.2781 12.2566 44.1981 12.0832 44.118C11.9231 44.038 11.7497 43.9713 11.563 43.918C11.3763 43.8646 11.2295 43.8379 11.1228 43.8379C11.0962 43.8379 11.0695 43.7846 11.0428 43.6779C11.0295 43.5712 11.0295 43.4578 11.0428 43.3377C11.0561 43.2044 11.0761 43.1243 11.1028 43.0977L14.084 43.2177C14.284 43.2177 15.1844 43.1777 16.785 43.0977C16.825 43.2177 16.845 43.3377 16.845 43.4578C16.845 43.7112 16.8117 43.8379 16.745 43.8379C16.6649 43.8379 16.5249 43.8646 16.3248 43.918C16.1381 43.9713 15.958 44.038 15.7846 44.118C15.6112 44.1847 15.5112 44.2514 15.4845 44.3181C15.4311 44.5182 15.3911 44.7583 15.3644 45.0384C15.3378 45.3185 15.3244 45.6453 15.3244 46.0188V53.5016C15.3244 53.8618 15.3378 54.1819 15.3644 54.462C15.3911 54.7421 15.4311 54.9889 15.4845 55.2023C15.5112 55.2556 15.6045 55.3223 15.7646 55.4023C15.938 55.469 16.1181 55.5291 16.3048 55.5824C16.5049 55.6358 16.6449 55.6624 16.725 55.6624C16.7783 55.6624 16.805 55.8025 16.805 56.0826C16.805 56.1893 16.785 56.3027 16.745 56.4227C16.6916 56.4227 16.5649 56.4161 16.3648 56.4027C16.1648 56.3894 15.898 56.3694 15.5645 56.3427C15.2311 56.316 14.9376 56.296 14.6842 56.2827C14.4308 56.2693 14.2173 56.2627 14.0439 56.2627C13.8705 56.2627 13.6305 56.2693 13.3237 56.2827C13.0302 56.296 12.7234 56.316 12.4033 56.3427C12.0965 56.356 11.8164 56.3694 11.563 56.3827C11.3096 56.4094 11.1428 56.4227 11.0628 56.4227C11.0361 56.3827 11.0161 56.3027 11.0028 56.1826C10.9894 56.0626 10.9894 55.9492 11.0028 55.8425C11.0295 55.7358 11.0561 55.6825 11.0828 55.6825C11.1895 55.6825 11.3429 55.6558 11.543 55.6024C11.7431 55.5491 11.9298 55.4824 12.1032 55.4023C12.2766 55.309 12.3766 55.2289 12.4033 55.1623C12.4834 54.8555 12.5234 54.3286 12.5234 53.5816V50.2404L12.4834 50.1603L10.1425 50.1203C8.4885 50.1337 7.66151 50.1537 7.66151 50.1804L7.70153 50.2204V53.5016C7.70153 53.8484 7.71487 54.1619 7.74154 54.442C7.76822 54.7221 7.80824 54.9688 7.86159 55.1823C7.88827 55.2356 7.98164 55.3023 8.1417 55.3823C8.3151 55.4624 8.49516 55.5357 8.6819 55.6024C8.88198 55.6558 9.02203 55.6825 9.10206 55.6825C9.15542 55.6825 9.18209 55.7825 9.18209 55.9826C9.19543 56.1826 9.18209 56.3294 9.14208 56.4227C8.4885 56.3827 7.93495 56.3494 7.48145 56.3227C7.04128 56.2827 6.64113 56.2627 6.28099 56.2627C5.84082 56.2627 5.39398 56.2827 4.94048 56.3227C4.50031 56.3494 4.00679 56.3827 3.45991 56.4227Z" fill="#80AEA7"/>
</svg>
