<svg width="15" height="16" viewBox="0 0 15 16" fill="none" xmlns="http://www.w3.org/2000/svg">
<g clip-path="url(#clip0_3622_20397)">
<path d="M7.5 14.5332C7.5 14.5332 13.125 10.7832 13.125 6.4082C13.125 4.91636 12.5324 3.48562 11.4775 2.43073C10.4226 1.37584 8.99184 0.783203 7.5 0.783203C6.00816 0.783203 4.57742 1.37584 3.52252 2.43073C2.46763 3.48562 1.875 4.91636 1.875 6.4082C1.875 10.7832 7.5 14.5332 7.5 14.5332Z" stroke="#627D81" stroke-width="1.25" stroke-linecap="round" stroke-linejoin="round"/>
<path d="M7.5 8.2832C8.53553 8.2832 9.375 7.44374 9.375 6.4082C9.375 5.37267 8.53553 4.5332 7.5 4.5332C6.46447 4.5332 5.625 5.37267 5.625 6.4082C5.625 7.44374 6.46447 8.2832 7.5 8.2832Z" stroke="#627D81" stroke-width="1.25" stroke-linecap="round" stroke-linejoin="round"/>
</g>
<defs>
<clipPath id="clip0_3622_20397">
<rect width="15" height="15" fill="white" transform="translate(0 0.158203)"/>
</clipPath>
</defs>
</svg>
