<svg width="17" height="17" viewBox="0 0 17 17" fill="none" xmlns="http://www.w3.org/2000/svg">
<path d="M6.16634 13.3255H5.83301C3.16634 13.3255 1.83301 12.6589 1.83301 9.32552V5.99219C1.83301 3.32552 3.16634 1.99219 5.83301 1.99219H11.1663C13.833 1.99219 15.1663 3.32552 15.1663 5.99219V9.32552C15.1663 11.9922 13.833 13.3255 11.1663 13.3255H10.833C10.6263 13.3255 10.4263 13.4255 10.2997 13.5922L9.29967 14.9255C8.85967 15.5122 8.13967 15.5122 7.69967 14.9255L6.69967 13.5922C6.59301 13.4455 6.34634 13.3255 6.16634 13.3255Z" stroke="white" stroke-width="1.5" stroke-miterlimit="10" stroke-linecap="round" stroke-linejoin="round"/>
<path d="M11.1646 7.99202H11.1706" stroke="white" stroke-width="1.5" stroke-linecap="round" stroke-linejoin="round"/>
<path d="M8.49666 7.99202H8.50265" stroke="white" stroke-width="1.5" stroke-linecap="round" stroke-linejoin="round"/>
<path d="M5.82967 7.99202H5.83566" stroke="white" stroke-width="1.5" stroke-linecap="round" stroke-linejoin="round"/>
</svg>
