<svg width="24" height="25" viewBox="0 0 24 25" fill="none" xmlns="http://www.w3.org/2000/svg">
<path fill-rule="evenodd" clip-rule="evenodd" d="M5.5 14.5C6.32843 14.5 7 13.8284 7 13C7 12.1716 6.32843 11.5 5.5 11.5C4.67157 11.5 4 12.1716 4 13C4 13.8284 4.67157 14.5 5.5 14.5ZM13 13C13 13.8284 12.3284 14.5 11.5 14.5C10.6716 14.5 10 13.8284 10 13C10 12.1716 10.6716 11.5 11.5 11.5C12.3284 11.5 13 12.1716 13 13ZM19 13C19 13.8284 18.3284 14.5 17.5 14.5C16.6716 14.5 16 13.8284 16 13C16 12.1716 16.6716 11.5 17.5 11.5C18.3284 11.5 19 12.1716 19 13Z" fill="#101C2D"/>
</svg>
