<svg width="24" height="32" viewBox="0 0 24 32" fill="none" xmlns="http://www.w3.org/2000/svg">
<path d="M16.19 10H7.81C4.17 10 2 12.17 2 15.81V24.18C2 27.83 4.17 30 7.81 30H16.18C19.82 30 21.99 27.83 21.99 24.19V15.81C22 12.17 19.83 10 16.19 10ZM18.53 20.53L14.24 24.82C14.09 24.97 13.9 25.04 13.71 25.04C13.52 25.04 13.33 24.97 13.18 24.82C12.89 24.53 12.89 24.05 13.18 23.76L16.19 20.75H6C5.59 20.75 5.25 20.41 5.25 20C5.25 19.59 5.59 19.25 6 19.25H16.19L13.18 16.24C12.89 15.95 12.89 15.47 13.18 15.18C13.47 14.89 13.95 14.89 14.24 15.18L18.53 19.47C18.67 19.61 18.75 19.8 18.75 20C18.75 20.2 18.67 20.39 18.53 20.53Z" fill="#627D81"/>
</svg>
