<svg width="24" height="25" viewBox="0 0 24 25" fill="none" xmlns="http://www.w3.org/2000/svg">
<path d="M22 12V16C22 19.5 20 21 17 21H7C4 21 2 19.5 2 16V9C2 5.5 4 4 7 4H12" stroke="#627D81" stroke-width="1.5" stroke-miterlimit="10" stroke-linecap="round" stroke-linejoin="round"/>
<path d="M7 9.5L10.13 12C11.16 12.82 12.85 12.82 13.88 12" stroke="#627D81" stroke-width="1.5" stroke-miterlimit="10" stroke-linecap="round" stroke-linejoin="round"/>
<path d="M19.4802 3.32043L19.7602 3.89042C19.9002 4.17042 20.2502 4.43043 20.5602 4.49043L20.9402 4.55043C22.0802 4.74043 22.3502 5.58043 21.5302 6.41043L21.1802 6.76042C20.9502 7.00042 20.8202 7.46042 20.8902 7.78042L20.9402 7.99043C21.2502 9.37043 20.5202 9.90042 19.3202 9.18042L19.0602 9.03042C18.7502 8.85042 18.2502 8.85042 17.9402 9.03042L17.6802 9.18042C16.4702 9.91042 15.7402 9.37043 16.0602 7.99043L16.1102 7.78042C16.1802 7.46042 16.0502 7.00042 15.8202 6.76042L15.4702 6.41043C14.6502 5.58043 14.9202 4.74043 16.0602 4.55043L16.4402 4.49043C16.7402 4.44043 17.1002 4.17042 17.2402 3.89042L17.5202 3.32043C18.0602 2.23043 18.9402 2.23043 19.4802 3.32043Z" stroke="#627D81" stroke-width="1.5" stroke-linecap="round" stroke-linejoin="round"/>
</svg>
