<svg width="16" height="16" viewBox="0 0 16 16" fill="none" xmlns="http://www.w3.org/2000/svg">
<path d="M6.70001 1.68663L2.68668 4.30663C1.40001 5.14663 1.40001 7.02663 2.68668 7.86663L6.70001 10.4866C7.42001 10.96 8.60668 10.96 9.32668 10.4866L13.32 7.86663C14.6 7.02663 14.6 5.1533 13.32 4.3133L9.32668 1.6933C8.60668 1.2133 7.42001 1.2133 6.70001 1.68663Z" stroke="#033F47" stroke-width="1.14286" stroke-linecap="round" stroke-linejoin="round"/>
<path d="M3.75325 8.72003L3.74658 11.8467C3.74658 12.6934 4.39992 13.6 5.19992 13.8667L7.32658 14.5734C7.69325 14.6934 8.29992 14.6934 8.67325 14.5734L10.7999 13.8667C11.5999 13.6 12.2532 12.6934 12.2532 11.8467V8.75337" stroke="#033F47" stroke-width="1.14286" stroke-linecap="round" stroke-linejoin="round"/>
<path d="M14.2666 10V6" stroke="#033F47" stroke-width="1.14286" stroke-linecap="round" stroke-linejoin="round"/>
</svg>
