<svg width="32" height="33" viewBox="0 0 32 33" fill="none" xmlns="http://www.w3.org/2000/svg">
<path fill-rule="evenodd" clip-rule="evenodd" d="M19.9987 7.00855C20.4129 7.00855 20.7487 6.67276 20.7487 6.25855C20.7487 5.84433 20.4129 5.50855 19.9987 5.50855L11.9987 5.50854C11.5845 5.50854 11.2487 5.84433 11.2487 6.25854C11.2487 6.67276 11.5845 7.00854 11.9987 7.00854L19.9987 7.00855ZM27.4154 9.59188C27.4154 10.0061 27.0796 10.3419 26.6654 10.3419H26.0308L24.9245 25.8346L24.9245 25.8348C24.7964 27.623 23.3088 29.0085 21.5164 29.0085H10.4764C8.68741 29.0085 7.20171 27.628 7.06852 25.8437L7.06848 25.8431L5.92379 10.3419H5.33203C4.91782 10.3419 4.58203 10.0061 4.58203 9.59188C4.58203 9.17766 4.91782 8.84188 5.33203 8.84188L6.62044 8.84188H25.3324H26.6654C27.0796 8.84188 27.4154 9.17767 27.4154 9.59188ZM7.42787 10.3419H24.527L23.4284 25.7276C23.3565 26.7315 22.5215 27.5085 21.5164 27.5085H10.4764C9.47356 27.5085 8.63931 26.7345 8.56438 25.7323L8.56436 25.7321L7.42787 10.3419ZM19.4154 16.2585C19.4154 15.8443 19.0796 15.5085 18.6654 15.5085C18.2512 15.5085 17.9154 15.8443 17.9154 16.2585V21.5919C17.9154 22.0061 18.2512 22.3419 18.6654 22.3419C19.0796 22.3419 19.4154 22.0061 19.4154 21.5919V16.2585ZM13.9987 15.5085C14.4129 15.5085 14.7487 15.8443 14.7487 16.2585V21.5919C14.7487 22.0061 14.4129 22.3419 13.9987 22.3419C13.5845 22.3419 13.2487 22.0061 13.2487 21.5919V16.2585C13.2487 15.8443 13.5845 15.5085 13.9987 15.5085Z" fill="#033F47"/>
</svg>
