<svg width="200" height="214" viewBox="0 0 200 214" fill="none" xmlns="http://www.w3.org/2000/svg">
<g clip-path="url(#clip0_3243_5214)">
<path d="M93.9261 122.621C79.9185 122.621 63.8201 107.076 49.5771 114.462C6.45294 136.823 12.3892 99.4049 0 85.4887L0.40674 84.6729C14.0768 96.9302 31.1443 106.903 49.7643 113.513C66.591 119.487 83.5438 122.255 98.7838 121.524L98.8102 122.505C97.2008 122.582 95.5728 122.621 93.9261 122.621Z" fill="#F2F2F2"/>
<path d="M196.177 32.2739C185.01 40.7312 162.792 38.0594 155.897 52.5463C135.021 96.4088 117.161 62.9962 98.8832 59.3828L98.7148 58.4869C117.013 60.0045 136.64 57.6498 155.473 51.6768C172.494 46.2795 187.679 38.2505 199.387 28.4668L200 29.2325C198.764 30.2662 197.489 31.2799 196.177 32.2739Z" fill="#F2F2F2"/>
<path d="M31.0376 57.3838C32.6547 57.3838 33.9656 55.6259 33.9656 53.4575C33.9656 51.2891 32.6547 49.5312 31.0376 49.5312C29.4205 49.5312 28.1096 51.2891 28.1096 53.4575C28.1096 55.6259 29.4205 57.3838 31.0376 57.3838Z" fill="#E6E6E6"/>
<path d="M154.086 94.1255C155.703 94.1255 157.014 92.3676 157.014 90.1992C157.014 88.0308 155.703 86.2729 154.086 86.2729C152.469 86.2729 151.158 88.0308 151.158 90.1992C151.158 92.3676 152.469 94.1255 154.086 94.1255Z" fill="#E6E6E6"/>
<path d="M73.6713 8.51124C75.2884 8.51124 76.5993 6.75339 76.5993 4.58496C76.5993 2.41654 75.2884 0.658691 73.6713 0.658691C72.0542 0.658691 70.7433 2.41654 70.7433 4.58496C70.7433 6.75339 72.0542 8.51124 73.6713 8.51124Z" fill="#E6E6E6"/>
<path d="M126.164 145.59L122.759 125.113C122.691 124.699 122.789 124.274 123.034 123.932C123.278 123.59 123.648 123.359 124.062 123.29L139.527 120.718C139.941 120.65 140.366 120.749 140.708 120.993C141.05 121.237 141.28 121.607 141.35 122.022L144.755 142.498C144.823 142.913 144.724 143.338 144.48 143.679C144.236 144.021 143.866 144.252 143.452 144.321L127.987 146.893C127.573 146.961 127.148 146.863 126.806 146.618C126.464 146.374 126.233 146.004 126.164 145.59Z" fill="#3F3D56"/>
<path d="M126.322 139.208L124.133 126.044C124.069 125.656 124.161 125.258 124.39 124.938C124.619 124.618 124.965 124.401 125.353 124.336L138.644 122.126C139.032 122.062 139.43 122.155 139.75 122.384C140.07 122.612 140.286 122.959 140.351 123.347L143.381 141.568C143.445 141.956 143.353 142.354 143.124 142.674C142.895 142.994 142.549 143.211 142.161 143.276L133.928 144.645C132.198 144.93 130.426 144.518 129.001 143.499C127.575 142.48 126.611 140.936 126.322 139.208Z" fill="white"/>
<path d="M126.896 129.358C126.833 128.979 126.923 128.59 127.147 128.277C127.37 127.964 127.709 127.753 128.088 127.689L137.308 126.156C137.496 126.125 137.688 126.131 137.873 126.174C138.059 126.217 138.234 126.296 138.389 126.407C138.544 126.518 138.675 126.658 138.776 126.82C138.877 126.981 138.945 127.161 138.976 127.349C139.007 127.537 139.001 127.729 138.958 127.915C138.915 128.1 138.836 128.275 138.725 128.43C138.615 128.585 138.474 128.717 138.313 128.818C138.151 128.918 137.971 128.986 137.783 129.018L128.564 130.551C128.185 130.613 127.796 130.523 127.483 130.299C127.17 130.076 126.959 129.737 126.896 129.358Z" fill="#559389"/>
<path d="M127.636 133.809C127.573 133.43 127.663 133.041 127.887 132.728C128.111 132.415 128.449 132.204 128.828 132.141L138.048 130.608C138.236 130.576 138.428 130.582 138.613 130.625C138.799 130.668 138.974 130.748 139.129 130.858C139.284 130.969 139.416 131.109 139.516 131.271C139.617 131.433 139.685 131.612 139.716 131.8C139.747 131.988 139.741 132.18 139.698 132.366C139.655 132.551 139.576 132.727 139.465 132.882C139.355 133.036 139.215 133.168 139.053 133.269C138.891 133.37 138.711 133.437 138.524 133.469L129.304 135.002C128.925 135.064 128.536 134.974 128.223 134.75C127.91 134.527 127.699 134.188 127.636 133.809Z" fill="#559389"/>
<path d="M128.376 138.26C128.313 137.881 128.403 137.492 128.627 137.179C128.851 136.867 129.189 136.655 129.568 136.592L138.788 135.059C139.167 134.996 139.556 135.086 139.869 135.31C140.182 135.533 140.393 135.872 140.456 136.251C140.519 136.631 140.429 137.02 140.205 137.333C139.982 137.646 139.643 137.857 139.264 137.92L130.044 139.453C129.665 139.516 129.276 139.425 128.963 139.202C128.65 138.978 128.439 138.64 128.376 138.26Z" fill="#559389"/>
<path d="M119.182 126.29C118.779 125.837 118.48 125.301 118.307 124.72C118.134 124.139 118.09 123.527 118.179 122.927C118.268 122.327 118.488 121.754 118.822 121.248C119.156 120.742 119.598 120.316 120.115 119.999L114.72 94.3145L121.87 97.0633L126.009 121.601C126.484 122.505 126.61 123.551 126.365 124.542C126.12 125.533 125.52 126.4 124.678 126.978C123.837 127.556 122.812 127.805 121.799 127.679C120.786 127.552 119.855 127.058 119.182 126.29Z" fill="#FFB8B8"/>
<path d="M116.802 207.525L122.686 207.525L125.486 184.826L116.801 184.827L116.802 207.525Z" fill="#FFB6B6"/>
<path d="M115.301 205.603L116.957 205.603L123.424 202.973L126.89 205.602H126.89C128.849 205.602 130.727 206.38 132.112 207.765C133.497 209.15 134.276 211.029 134.276 212.988V213.228L115.301 213.228L115.301 205.603Z" fill="#2F2E41"/>
<path d="M63.6292 199.873L68.896 202.498L81.527 183.433L73.7538 179.559L63.6292 199.873Z" fill="#FFB6B6"/>
<path d="M63.1427 197.484L64.6251 198.223L71.586 198.754L73.515 202.654L73.5154 202.654C75.2684 203.528 76.6025 205.062 77.2242 206.92C77.846 208.777 77.7044 210.805 76.8308 212.559L76.7237 212.773L59.7412 204.309L63.1427 197.484Z" fill="#2F2E41"/>
<path d="M119.409 104.437L81.992 105.413L82.6427 123.633C82.6427 123.633 81.992 128.513 83.2935 129.815C84.5949 131.116 85.2456 131.116 84.5949 133.394C83.9442 135.671 82.2619 157.433 82.2619 157.433C82.2619 157.433 66.905 184.586 67.5557 185.237C68.2064 185.888 68.8571 185.237 68.2064 186.864C67.5557 188.491 66.9049 187.84 67.5557 188.491C68.1321 189.112 68.6751 189.764 69.1825 190.443H79.7882C79.7882 190.443 80.3812 187.189 80.3812 186.864C80.3812 186.538 81.032 184.586 81.032 184.261C81.032 183.936 99.5616 164.303 99.5616 164.303L103.466 131.767L112.902 163.653C112.902 163.653 112.902 191.634 113.552 192.285C114.203 192.935 114.203 192.61 113.878 193.911C113.552 195.213 112.251 194.888 113.227 195.864C114.203 196.84 114.528 195.213 114.203 196.84L113.878 198.467L126.378 198.606C126.378 198.606 127.679 195.864 127.029 194.888C126.378 193.911 126.417 194.178 127.211 192.581C128.005 190.983 128.33 190.658 128.005 190.332C127.679 190.007 127.679 188.277 127.679 188.277C127.679 188.277 122.988 124.284 122.988 123.308C122.963 122.805 123.056 122.304 123.258 121.844V120.519L122.012 115.824L119.409 104.437Z" fill="#2F2E41"/>
<path d="M153.138 195.296L153.461 188.037C156.827 186.238 160.581 185.288 164.397 185.269C159.145 189.563 159.801 197.84 156.24 203.615C155.116 205.407 153.602 206.924 151.812 208.052C150.022 209.18 148.001 209.891 145.899 210.131L141.503 212.822C140.9 209.46 141.033 206.007 141.893 202.701C142.753 199.396 144.319 196.316 146.484 193.673C147.713 192.203 149.123 190.894 150.679 189.775C151.732 192.551 153.138 195.296 153.138 195.296Z" fill="#F2F2F2"/>
<path d="M100.035 40.5371L118.776 78.4402L115.11 124.44L91.1605 122.252L86.866 46.0726L100.035 40.5371Z" fill="#2F2E41"/>
<path d="M126.351 119.362L115.4 118.361L115.383 118.222L108.034 57.3707L109.678 52.8107C110.072 51.7281 110.739 50.7657 111.614 50.017C112.49 49.2684 113.544 48.7589 114.674 48.5381C115.536 48.3722 116.421 48.3782 117.28 48.5561C118.139 48.734 118.954 49.0801 119.679 49.5744C120.403 50.0687 121.023 50.7015 121.502 51.4364C121.981 52.1712 122.31 52.9935 122.469 53.856L124.436 64.4794L127.226 100.39L126.351 119.362Z" fill="#2F2E41"/>
<path d="M97.8381 46.1584L100.047 40.874L106.883 40.994L114.011 51.0769L121.492 82.5402C121.492 82.5402 124.18 105.524 121.492 106.737C118.805 107.951 109.697 106.452 109.697 106.452L97.8381 46.1584Z" fill="#559389"/>
<path d="M106.883 40.9941C106.883 40.9941 121.608 49.5062 122.184 53.9496C122.76 58.3929 124.688 112.777 124.688 112.777L119.481 109.412L118.058 89.5908L111.702 49.0096L106.883 40.9941Z" fill="#2F2E41"/>
<path d="M103.407 38.5183C108.949 38.5183 113.442 34.0252 113.442 28.4826C113.442 22.9399 108.949 18.4468 103.407 18.4468C97.864 18.4468 93.3708 22.9399 93.3708 28.4826C93.3708 34.0252 97.864 38.5183 103.407 38.5183Z" fill="#FFB8B8"/>
<path d="M92.0232 21.8882C93.1501 20.1448 95.2649 18.9828 97.3149 19.3094C97.5057 18.001 98.0518 16.7701 98.8937 15.7507C99.7357 14.7313 100.841 13.9623 102.09 13.5277C103.338 13.093 104.682 13.0092 105.975 13.2855C107.268 13.5618 108.461 14.1875 109.423 15.0945C109.739 14.8717 110.108 14.7345 110.493 14.6959C110.878 14.6574 111.266 14.7189 111.62 14.8746C112.326 15.1954 112.94 15.6881 113.406 16.3076C114.582 17.7746 115.338 19.5331 115.595 21.3959C115.851 23.2588 115.597 25.1563 114.861 26.8864C115.111 25.9756 114.198 25.1187 113.276 24.9143C112.354 24.7099 111.386 24.9033 110.451 24.7702C109.253 24.5996 108.175 23.9042 106.974 23.7477C105.965 23.6162 104.951 23.8749 103.967 24.1342C102.983 24.3935 101.971 24.6579 100.96 24.5379C99.95 24.418 98.6484 28.2473 98.6659 30.9444C98.6692 31.4556 98.5639 32.1118 98.0644 32.2202C97.4493 32.3538 97.0928 31.5048 96.5073 31.2735C96.2375 31.1961 95.9482 31.2266 95.7003 31.3584C95.4525 31.4901 95.2655 31.713 95.1787 31.98C95.1049 32.2514 95.097 32.5365 95.1557 32.8116C95.2143 33.0866 95.3378 33.3437 95.5159 33.5614C95.8758 33.993 96.303 34.3636 96.7811 34.659L96.54 34.8595C96.1388 35.3894 95.3068 35.4124 94.7287 35.0845C94.1758 34.7101 93.7281 34.2003 93.4282 33.6038C92.3586 31.8248 91.4204 29.9292 91.0429 27.888C90.6654 25.8467 90.8964 23.6316 92.0232 21.8882Z" fill="#2F2E41"/>
<path d="M70.1637 96.2124L90.2138 74.7015C90.6201 74.2666 91.1823 74.0106 91.7771 73.9897C92.3719 73.9688 92.9508 74.1847 93.3866 74.59L109.632 89.7322C110.067 90.1385 110.323 90.7008 110.344 91.2956C110.365 91.8904 110.149 92.4692 109.744 92.9051L89.6936 114.416C89.2872 114.851 88.725 115.107 88.1302 115.128C87.5354 115.149 86.9566 114.933 86.5207 114.528L70.2752 99.3852C69.8403 98.9789 69.5843 98.4167 69.5634 97.8219C69.5425 97.2271 69.7584 96.6482 70.1637 96.2124Z" fill="#E6E6E6"/>
<path d="M77.4658 90.877L90.3559 77.0479C90.7364 76.6405 91.2629 76.4008 91.82 76.3812C92.377 76.3616 92.9191 76.5638 93.3273 76.9434L107.289 89.9569C107.696 90.3374 107.936 90.864 107.956 91.4211C107.975 91.9781 107.773 92.5202 107.393 92.9284L89.5516 112.07C89.1711 112.478 88.6445 112.717 88.0875 112.737C87.5304 112.756 86.9883 112.554 86.5801 112.175L77.9312 104.113C76.1168 102.418 75.0488 100.073 74.9616 97.5912C74.8744 95.1098 75.775 92.6952 77.4658 90.877Z" fill="white"/>
<path d="M89.0199 83.0136C89.3918 82.6155 89.9063 82.3812 90.4506 82.3621C90.995 82.343 91.5247 82.5406 91.9236 82.9115L101.609 91.939C102.007 92.3105 102.242 92.8251 102.261 93.3697C102.28 93.9142 102.082 94.4441 101.711 94.8426C101.339 95.2412 100.825 95.4759 100.28 95.495C99.7356 95.5142 99.2057 95.3162 98.8071 94.9447L89.122 85.9173C88.7239 85.5454 88.4896 85.0309 88.4705 84.4865C88.4514 83.9422 88.649 83.4124 89.0199 83.0136Z" fill="#E6E6E6"/>
<path d="M84.6618 87.6889C85.0336 87.2908 85.5482 87.0565 86.0925 87.0374C86.6369 87.0183 87.1666 87.2159 87.5655 87.5868L97.2506 96.6143C97.448 96.7982 97.6072 97.0192 97.7191 97.2647C97.8311 97.5102 97.8936 97.7753 97.903 98.045C97.9125 98.3146 97.8688 98.5834 97.7744 98.8362C97.6799 99.0889 97.5367 99.3206 97.3527 99.5179C97.1687 99.7153 96.9477 99.8745 96.7022 99.9864C96.4567 100.098 96.1916 100.161 95.922 100.17C95.6524 100.18 95.3835 100.136 95.1308 100.042C94.878 99.9472 94.6464 99.804 94.449 99.62L84.7638 90.5926C84.3658 90.2207 84.1315 89.7062 84.1124 89.1618C84.0932 88.6175 84.2908 88.0877 84.6618 87.6889Z" fill="#E6E6E6"/>
<path d="M80.3038 92.3647C80.6756 91.9666 81.1901 91.7323 81.7345 91.7132C82.2789 91.6941 82.8086 91.8916 83.2074 92.2626L92.8926 101.29C93.2912 101.662 93.5259 102.176 93.545 102.721C93.5642 103.265 93.3662 103.795 92.9947 104.194C92.6232 104.592 92.1085 104.827 91.564 104.846C91.0194 104.865 90.4896 104.667 90.091 104.296L80.4058 95.2683C80.0077 94.8965 79.7735 94.382 79.7543 93.8376C79.7352 93.2932 79.9328 92.7635 80.3038 92.3647Z" fill="#E6E6E6"/>
<path d="M103.869 118.004L96.9371 127.93L96.6139 128.319C96.0525 128.994 95.277 129.457 94.4163 129.631C94.2944 129.655 94.1719 129.674 94.0489 129.686C93.8971 129.701 93.7445 129.708 93.592 129.705C93.5046 129.703 93.4173 129.698 93.3303 129.691C92.8246 129.647 92.3326 129.504 91.8826 129.269L88.9251 127.203C88.6896 127.039 88.5217 126.795 88.4523 126.517C88.4179 126.379 88.4081 126.236 88.4234 126.095C88.4452 125.897 88.5165 125.708 88.6306 125.545L97.1661 113.323C97.3473 113.064 97.6237 112.888 97.9347 112.833C98.2457 112.778 98.5658 112.848 98.825 113.028L103.575 116.345C103.586 116.353 103.597 116.361 103.608 116.369C103.615 116.375 103.622 116.38 103.629 116.386C103.638 116.393 103.647 116.4 103.656 116.408C103.668 116.417 103.679 116.427 103.69 116.437C103.7 116.446 103.71 116.455 103.72 116.465L103.725 116.47C103.738 116.482 103.75 116.494 103.762 116.507C103.774 116.519 103.785 116.532 103.796 116.545C103.804 116.555 103.812 116.564 103.82 116.574L103.821 116.575C103.844 116.603 103.866 116.633 103.886 116.664C103.892 116.673 103.898 116.683 103.904 116.693L103.907 116.697C103.912 116.705 103.916 116.712 103.921 116.72C103.935 116.744 103.948 116.768 103.96 116.793C103.98 116.833 103.997 116.875 104.013 116.917C104.018 116.931 104.022 116.945 104.026 116.958C104.03 116.97 104.034 116.981 104.037 116.993L104.038 116.995L104.039 117C104.042 117.01 104.045 117.02 104.047 117.03C104.052 117.049 104.056 117.068 104.06 117.087C104.061 117.093 104.062 117.098 104.063 117.104C104.065 117.109 104.065 117.114 104.066 117.12C104.067 117.125 104.068 117.13 104.069 117.135L104.071 117.144C104.073 117.16 104.075 117.175 104.077 117.191C104.079 117.211 104.08 117.231 104.081 117.25C104.082 117.267 104.083 117.283 104.083 117.299C104.084 117.314 104.084 117.328 104.084 117.343C104.084 117.347 104.083 117.35 104.083 117.354C104.083 117.369 104.082 117.384 104.081 117.399C104.079 117.437 104.075 117.475 104.069 117.512C104.066 117.526 104.064 117.54 104.061 117.553C104.058 117.57 104.054 117.586 104.05 117.603C104.049 117.609 104.047 117.615 104.046 117.621C104.043 117.63 104.041 117.639 104.038 117.648C104.036 117.658 104.033 117.668 104.029 117.678L104.022 117.702C104.017 117.716 104.012 117.729 104.007 117.743C104.004 117.751 104.001 117.76 103.997 117.768C103.973 117.827 103.945 117.884 103.911 117.939C103.907 117.946 103.903 117.952 103.899 117.959C103.889 117.974 103.879 117.989 103.869 118.004Z" fill="white"/>
<path d="M99.1745 118.381C99.7365 118.381 100.192 117.925 100.192 117.363C100.192 116.801 99.7365 116.346 99.1745 116.346C98.6125 116.346 98.157 116.801 98.157 117.363C98.157 117.925 98.6125 118.381 99.1745 118.381Z" fill="#559389"/>
<path d="M87.6796 128.117C87.2769 127.663 86.9784 127.127 86.8052 126.546C86.632 125.965 86.5883 125.353 86.6773 124.753C86.7662 124.153 86.9856 123.58 87.3199 123.074C87.6543 122.568 88.0955 122.142 88.6125 121.825L83.2184 96.1406L90.3678 98.8894L94.5067 123.427C94.9815 124.331 95.1083 125.377 94.8631 126.368C94.6178 127.36 94.0176 128.226 93.176 128.804C92.3345 129.382 91.3102 129.631 90.2972 129.505C89.2841 129.378 88.3528 128.884 87.6796 128.117Z" fill="#FFB8B8"/>
<path d="M83.7187 117.693L80.809 98.946L79.7157 62.941L80.5282 52.1494C80.5942 51.2748 80.8325 50.4219 81.2295 49.6398C81.6266 48.8577 82.1744 48.1619 82.8415 47.5925C83.5087 47.023 84.2819 46.5913 85.1166 46.322C85.9514 46.0527 86.8312 45.9513 87.7053 46.0236C88.853 46.1214 89.956 46.5144 90.9069 47.1645C91.8579 47.8146 92.6245 48.6997 93.1323 49.7336L95.2582 54.0902L94.4991 115.519L83.7187 117.693Z" fill="#2F2E41"/>
<path d="M175.238 213.167C175.238 213.238 175.224 213.308 175.197 213.374C175.17 213.439 175.131 213.498 175.081 213.548C175.031 213.598 174.971 213.638 174.906 213.665C174.84 213.692 174.77 213.706 174.7 213.706H29.797C29.6543 213.706 29.5173 213.649 29.4164 213.548C29.3154 213.447 29.2587 213.31 29.2587 213.167C29.2587 213.024 29.3154 212.888 29.4164 212.787C29.5173 212.686 29.6543 212.629 29.797 212.629H174.7C174.77 212.629 174.84 212.642 174.906 212.669C174.971 212.696 175.031 212.736 175.081 212.786C175.131 212.836 175.17 212.896 175.197 212.961C175.224 213.026 175.238 213.097 175.238 213.167Z" fill="#CCCCCC"/>
<path d="M95.5479 32.5503C95.5542 32.4367 95.5884 32.3264 95.6474 32.2291C95.7065 32.1318 95.7886 32.0505 95.8865 31.9924C95.9844 31.9344 96.0951 31.9013 96.2088 31.8962C96.3225 31.8911 96.4357 31.914 96.5385 31.963C96.6412 32.012 96.7303 32.0855 96.7979 32.1771C96.8655 32.2687 96.9094 32.3755 96.9259 32.4881C96.9425 32.6007 96.931 32.7157 96.8926 32.8228C96.8542 32.93 96.7899 33.026 96.7056 33.1024L97.8707 35.0171C97.9185 35.0956 97.9332 35.1899 97.9114 35.2792C97.8897 35.3686 97.8333 35.4456 97.7548 35.4934C97.6763 35.5412 97.582 35.5558 97.4927 35.5341C97.4033 35.5123 97.3263 35.456 97.2785 35.3775L95.9685 33.2246C95.8376 33.1691 95.7269 33.0746 95.6516 32.954C95.5764 32.8333 95.5401 32.6923 95.5479 32.5503Z" fill="white"/>
<path d="M96.3654 33.8519C96.4085 33.9374 96.5127 33.9717 96.5982 33.9286C96.6836 33.8855 96.718 33.7813 96.6749 33.6958L96.3627 33.0769C96.3196 32.9914 96.2154 32.9571 96.1299 33.0002C96.0445 33.0433 96.0101 33.1475 96.0532 33.233L96.3654 33.8519Z" fill="#2F2E41"/>
</g>
<defs>
<clipPath id="clip0_3243_5214">
<rect width="200" height="213.047" fill="white" transform="translate(0 0.658691)"/>
</clipPath>
</defs>
</svg>
