<svg width="20" height="21" viewBox="0 0 20 21" fill="none" xmlns="http://www.w3.org/2000/svg">
<path fill-rule="evenodd" clip-rule="evenodd" d="M18.864 2.29449C19.1569 2.0016 19.1569 1.52672 18.864 1.23383C18.5711 0.940937 18.0962 0.940937 17.8033 1.23383L14.9019 4.13526C13.4146 3.19644 11.7478 2.68083 10.0003 2.68083C6.69556 2.68083 3.67969 4.52483 1.61981 7.58786C1.13429 8.30769 0.916992 9.22467 0.916992 10.0975C0.916992 10.9701 1.13419 11.8869 1.61948 12.6066C2.2809 13.5903 3.04091 14.4482 3.87742 15.1597L1.13666 17.9005C0.843769 18.1934 0.843769 18.6683 1.13666 18.9612C1.42956 19.2541 1.90443 19.2541 2.19732 18.9612L5.09875 16.0597C6.58607 16.9985 8.25281 17.5142 10.0003 17.5142C13.3051 17.5142 16.321 15.6702 18.3808 12.6071C18.8664 11.8873 19.0837 10.9703 19.0837 10.0975C19.0837 9.22487 18.8665 8.30811 18.3812 7.58835C17.7197 6.60472 16.9597 5.74679 16.1232 5.03524L18.864 2.29449ZM13.8096 5.2276C12.6172 4.54052 11.3231 4.18083 10.0003 4.18083C7.29266 4.18083 4.70487 5.68808 2.86423 8.42536L2.86356 8.42635C2.58284 8.8424 2.41699 9.44786 2.41699 10.0975C2.41699 10.7471 2.58284 11.3526 2.86356 11.7686L2.86423 11.7696C3.48071 12.6864 4.181 13.4652 4.94153 14.0956L6.6306 12.4066C6.1803 11.7501 5.91699 10.955 5.91699 10.0975C5.91699 7.8397 7.74254 6.01416 10.0003 6.01416C10.8578 6.01416 11.6529 6.27747 12.3094 6.72777L13.8096 5.2276ZM13.37 7.78843L15.0591 6.09936C15.8197 6.72977 16.5199 7.50858 17.1364 8.42536L17.1371 8.42635C17.4178 8.8424 17.5837 9.44786 17.5837 10.0975C17.5837 10.7471 17.4178 11.3526 17.1371 11.7686L17.1364 11.7696C15.2958 14.5069 12.708 16.0142 10.0003 16.0142C8.6776 16.0142 7.38348 15.6545 6.19109 14.9674L7.69126 13.4672C8.34772 13.9175 9.14285 14.1808 10.0003 14.1808C12.2581 14.1808 14.0837 12.3553 14.0837 10.0975C14.0837 9.24002 13.8203 8.44489 13.37 7.78843ZM11.2191 7.81803C10.8563 7.62406 10.4414 7.51416 10.0003 7.51416C8.57096 7.51416 7.41699 8.66813 7.41699 10.0975C7.41699 10.5386 7.52689 10.9535 7.72086 11.3163L11.2191 7.81803ZM8.78152 12.377L12.2798 8.87869C12.4738 9.24152 12.5837 9.65639 12.5837 10.0975C12.5837 11.5269 11.4297 12.6808 10.0003 12.6808C9.55922 12.6808 9.14435 12.5709 8.78152 12.377ZM18.3812 7.58835L17.7589 8.00676L18.3805 7.58736L18.3812 7.58835ZM18.3808 12.6071L18.3812 12.6066L17.7589 12.1882L18.3805 12.6076L18.3808 12.6071ZM1.61948 12.6066L1.62014 12.6076L2.24185 12.1881L1.61948 12.6066ZM1.61981 7.58786L1.61948 7.58835L2.24185 8.00686L1.62014 7.58736L1.61981 7.58786Z" fill="#A1B3B6"/>
</svg>
