<svg width="18" height="18" viewBox="0 0 18 18" fill="none" xmlns="http://www.w3.org/2000/svg">
<g clip-path="url(#clip0_10_9286)">
<g clip-path="url(#clip1_10_9286)">
<path fill-rule="evenodd" clip-rule="evenodd" d="M2.14408 0.26001C3.32654 0.26001 4.28677 1.22024 4.28677 2.40339C4.28677 3.58724 3.32654 4.54747 2.14408 4.54747C0.956769 4.54747 0 3.58724 0 2.40339C0 1.22024 0.956769 0.26001 2.14408 0.26001ZM0.293538 6.17232H3.99323V18.0662H0.293538V6.17232Z" fill="#0077B5"/>
<path fill-rule="evenodd" clip-rule="evenodd" d="M6.23096 6.09338H9.77419V7.71962H9.82473C10.3176 6.78431 11.5243 5.79846 13.323 5.79846C17.0649 5.79846 17.7565 8.261 17.7565 11.4643V17.9872H14.061V12.203C14.061 10.8239 14.0367 9.04954 12.1398 9.04954C10.2166 9.04954 9.92303 10.5525 9.92303 12.1047V17.9872H6.23096V6.09338Z" fill="#0077B5"/>
</g>
</g>
<defs>
<clipPath id="clip0_10_9286">
<rect width="18" height="18" fill="white"/>
</clipPath>
<clipPath id="clip1_10_9286">
<rect width="18" height="19" fill="white"/>
</clipPath>
</defs>
</svg>
