<svg width="24" height="25" viewBox="0 0 24 25" fill="none" xmlns="http://www.w3.org/2000/svg">
<path fill-rule="evenodd" clip-rule="evenodd" d="M15 1.6543C17.574 1.6543 19.5709 2.1645 20.9053 3.49897C22.2398 4.83344 22.75 6.83032 22.75 9.4043V15.4043C22.75 17.9783 22.2398 19.9752 20.9053 21.3096C19.5709 22.6441 17.574 23.1543 15 23.1543H9C6.42603 23.1543 4.42914 22.6441 3.09467 21.3096C1.7602 19.9752 1.25 17.9783 1.25 15.4043V9.4043C1.25 6.83032 1.7602 4.83344 3.09467 3.49897C4.42914 2.1645 6.42603 1.6543 9 1.6543H15ZM21.25 9.4043C21.25 6.97827 20.7602 5.47516 19.8447 4.55963C18.9291 3.6441 17.426 3.1543 15 3.1543H9C6.57397 3.1543 5.07086 3.6441 4.15533 4.55963C3.2398 5.47516 2.75 6.97827 2.75 9.4043V15.4043C2.75 17.8303 3.2398 19.3334 4.15533 20.249C5.07086 21.1645 6.57397 21.6543 9 21.6543H15C17.426 21.6543 18.9291 21.1645 19.8447 20.249C20.7602 19.3334 21.25 17.8303 21.25 15.4043V9.4043ZM14.5857 8.93578C14.4362 8.74894 14.2065 8.64463 13.9675 8.655C13.7284 8.66538 13.5087 8.78919 13.376 8.98827L10.144 13.8363L9.18936 11.6089C9.07117 11.3331 8.80002 11.1543 8.5 11.1543H6C5.58579 11.1543 5.25 11.4901 5.25 11.9043C5.25 12.3185 5.58579 12.6543 6 12.6543H8.00545L9.31064 15.6997C9.41906 15.9527 9.65734 16.126 9.93143 16.1512C10.2055 16.1763 10.4714 16.0493 10.624 15.8203L14.0551 10.6737L15.4143 12.3728C15.5567 12.5507 15.7722 12.6543 16 12.6543H18C18.4142 12.6543 18.75 12.3185 18.75 11.9043C18.75 11.4901 18.4142 11.1543 18 11.1543H16.3605L14.5857 8.93578Z" fill="#E2E8E9"/>
</svg>
