<svg width="140" height="141" viewBox="0 0 140 141" fill="none" xmlns="http://www.w3.org/2000/svg">
<rect width="140" height="140" transform="translate(0 0.658447)" fill="#627D81"/>
<path d="M93.3346 96.9084V91.0751C93.3346 87.9809 92.1055 85.0135 89.9175 82.8255C87.7296 80.6376 84.7622 79.4084 81.668 79.4084H58.3346C55.2404 79.4084 52.273 80.6376 50.0851 82.8255C47.8971 85.0135 46.668 87.9809 46.668 91.0751V96.9084" stroke="white" stroke-width="3.5" stroke-linecap="round" stroke-linejoin="round"/>
<path d="M69.9987 67.7418C76.442 67.7418 81.6654 62.5184 81.6654 56.0751C81.6654 49.6318 76.442 44.4084 69.9987 44.4084C63.5554 44.4084 58.332 49.6318 58.332 56.0751C58.332 62.5184 63.5554 67.7418 69.9987 67.7418Z" stroke="white" stroke-width="3.5" stroke-linecap="round" stroke-linejoin="round"/>
</svg>
