<svg width="24" height="25" viewBox="0 0 24 25" fill="none" xmlns="http://www.w3.org/2000/svg">
<path fill-rule="evenodd" clip-rule="evenodd" d="M8.75 2.4043C8.75 1.99008 8.41421 1.6543 8 1.6543C7.58579 1.6543 7.25 1.99008 7.25 2.4043V3.18455C5.71409 3.31238 4.4962 3.84464 3.6379 4.76896C2.65363 5.82894 2.25 7.28933 2.25 8.9043V17.4043C2.25 19.0193 2.65363 20.4797 3.6379 21.5396C4.63152 22.6097 6.10705 23.1543 8 23.1543H16C17.893 23.1543 19.3685 22.6097 20.3621 21.5396C21.3464 20.4797 21.75 19.0193 21.75 17.4043V8.9043C21.75 7.28933 21.3464 5.82894 20.3621 4.76896C19.5038 3.84464 18.2859 3.31238 16.75 3.18455V2.4043C16.75 1.99008 16.4142 1.6543 16 1.6543C15.5858 1.6543 15.25 1.99008 15.25 2.4043V3.1543H8.75V2.4043ZM15.25 5.4043V4.6543H8.75V5.4043C8.75 5.81851 8.41421 6.1543 8 6.1543C7.58579 6.1543 7.25 5.81851 7.25 5.4043V4.69058C6.06502 4.81097 5.26412 5.22207 4.7371 5.78964C4.12129 6.45281 3.77739 7.43893 3.75157 8.74426H20.2484C20.2226 7.43893 19.8787 6.45281 19.2629 5.78964C18.7359 5.22207 17.935 4.81097 16.75 4.69058V5.4043C16.75 5.81851 16.4142 6.1543 16 6.1543C15.5858 6.1543 15.25 5.81851 15.25 5.4043ZM20.25 10.2443H3.75V17.4043C3.75 18.7893 4.09637 19.8289 4.7371 20.519C5.36848 21.1989 6.39295 21.6543 8 21.6543H16C17.607 21.6543 18.6315 21.1989 19.2629 20.519C19.9036 19.8289 20.25 18.7893 20.25 17.4043V10.2443ZM7.54431 14.1043C7.54431 13.6901 7.8801 13.3543 8.29431 13.3543H8.30329C8.71751 13.3543 9.05329 13.6901 9.05329 14.1043C9.05329 14.5185 8.71751 14.8543 8.30329 14.8543H8.29431C7.8801 14.8543 7.54431 14.5185 7.54431 14.1043ZM8.29431 16.1543C7.8801 16.1543 7.54431 16.4901 7.54431 16.9043C7.54431 17.3185 7.8801 17.6543 8.29431 17.6543H8.30329C8.71751 17.6543 9.05329 17.3185 9.05329 16.9043C9.05329 16.4901 8.71751 16.1543 8.30329 16.1543H8.29431ZM11.7445 14.1043C11.7445 13.6901 12.0803 13.3543 12.4945 13.3543H12.5035C12.9177 13.3543 13.2535 13.6901 13.2535 14.1043C13.2535 14.5185 12.9177 14.8543 12.5035 14.8543H12.4945C12.0803 14.8543 11.7445 14.5185 11.7445 14.1043ZM12.4945 16.1543C12.0803 16.1543 11.7445 16.4901 11.7445 16.9043C11.7445 17.3185 12.0803 17.6543 12.4945 17.6543H12.5035C12.9177 17.6543 13.2535 17.3185 13.2535 16.9043C13.2535 16.4901 12.9177 16.1543 12.5035 16.1543H12.4945ZM15.9447 14.1043C15.9447 13.6901 16.2805 13.3543 16.6947 13.3543H16.7037C17.1179 13.3543 17.4537 13.6901 17.4537 14.1043C17.4537 14.5185 17.1179 14.8543 16.7037 14.8543H16.6947C16.2805 14.8543 15.9447 14.5185 15.9447 14.1043Z" fill="#E2E8E9"/>
</svg>
