<svg width="24" height="25" viewBox="0 0 24 25" fill="none" xmlns="http://www.w3.org/2000/svg">
<path d="M22.4142 21.0727C22.7893 20.6976 23 20.1889 23 19.6584V8.65845C23 8.12801 22.7893 7.61931 22.4142 7.24423C22.0391 6.86916 21.5304 6.65845 21 6.65845H17L15 3.65845H9L7 6.65845H3C2.46957 6.65845 1.96086 6.86916 1.58579 7.24423C1.21071 7.61931 1 8.12801 1 8.65845V19.6584C1 20.1889 1.21071 20.6976 1.58579 21.0727C1.96086 21.4477 2.46957 21.6584 3 21.6584H21C21.5304 21.6584 22.0391 21.4477 22.4142 21.0727Z" stroke="white" stroke-width="2" stroke-linecap="round" stroke-linejoin="round"/>
<path d="M12 17.6584C14.2091 17.6584 16 15.8676 16 13.6584C16 11.4493 14.2091 9.65845 12 9.65845C9.79086 9.65845 8 11.4493 8 13.6584C8 15.8676 9.79086 17.6584 12 17.6584Z" stroke="white" stroke-width="2" stroke-linecap="round" stroke-linejoin="round"/>
</svg>
