<svg width="54" height="55" viewBox="0 0 54 55" fill="none" xmlns="http://www.w3.org/2000/svg">
<path d="M10.3795 8.23033L28.6127 4.34619C29.8687 4.07862 30.9943 3.89402 32.0266 3.86723C37.5189 3.49729 39.6594 6.46231 41.573 15.3796L44.9699 31.2091C46.8835 40.1264 46.1472 43.7043 40.9832 45.6044C40.0302 46.0006 38.9272 46.2907 37.6712 46.5583L19.438 50.4424C18.182 50.71 17.0564 50.8946 16.0241 50.9214C10.5318 51.2913 8.39134 48.3263 6.47773 39.409L3.08079 23.5795C1.16717 14.6622 1.90353 11.0843 7.06748 9.18418C8.02054 8.78803 9.12346 8.4979 10.3795 8.23033Z" fill="#F1F4F9" stroke="#033F47" stroke-width="0.4" stroke-linecap="round" stroke-linejoin="round"/>
<path d="M18.6241 8.64404H37.2693C38.5538 8.64404 39.6932 8.698 40.7084 8.88685C46.1569 9.66924 47.6278 13.0146 47.6278 22.1335V38.3208C47.6278 47.4396 46.1569 50.785 40.7084 51.5674C39.6932 51.7562 38.5538 51.8102 37.2693 51.8102H18.6241C17.3396 51.8102 16.2002 51.7562 15.1851 51.5674C9.73653 50.785 8.26562 47.4396 8.26562 38.3208V22.1335C8.26562 13.0146 9.73653 9.66924 15.1851 8.88685C16.2002 8.698 17.3396 8.64404 18.6241 8.64404Z" fill="white" stroke="#033F47" stroke-width="0.4"/>
<rect x="16.3125" y="22.6167" width="23.1152" height="3.50776" rx="1.75388" fill="#F1F4F9" stroke="#033F47" stroke-width="0.4"/>
<rect x="16.3125" y="15.9604" width="3.50776" height="3.50776" rx="1.75388" fill="#F1F4F9" stroke="#033F47" stroke-width="0.4"/>
<rect x="22.1562" y="15.9604" width="3.50776" height="3.50776" rx="1.75388" fill="#F1F4F9" stroke="#033F47" stroke-width="0.4"/>
<rect x="16.3125" y="29.0933" width="23.1152" height="3.50776" rx="1.75388" fill="#F1F4F9" stroke="#033F47" stroke-width="0.4"/>
<rect x="16.3125" y="35.7495" width="23.1152" height="3.50776" rx="1.75388" fill="#F1F4F9" stroke="#033F47" stroke-width="0.4"/>
<rect x="16.3125" y="42.2222" width="23.1152" height="3.50776" rx="1.75388" fill="#F1F4F9" stroke="#033F47" stroke-width="0.4"/>
<path d="M45.1977 27.2817H49.1306C52.408 27.2817 53.7189 25.9756 53.7189 22.7102V18.7917C53.7189 15.5264 52.408 14.2202 49.1306 14.2202H45.1977C41.9203 14.2202 40.6094 15.5264 40.6094 18.7917V22.7102C40.6094 25.9756 41.9203 27.2817 45.1977 27.2817Z" fill="white" stroke="#033F47" stroke-width="0.4"/>
<path d="M44.8906 20.7964H49.4388" stroke="#033F47" stroke-width="0.8" stroke-linecap="round" stroke-linejoin="round"/>
<path d="M47.2109 23.0154V18.4839" stroke="#033F47" stroke-width="0.8" stroke-linecap="round" stroke-linejoin="round"/>
</svg>
