<svg width="100" height="101" viewBox="0 0 100 101" fill="none" xmlns="http://www.w3.org/2000/svg">
<path d="M22.3005 18.7092L52.6891 12.2357C54.7825 11.7897 56.6585 11.4821 58.379 11.4374C67.5329 10.8208 71.1003 15.7625 74.2896 30.6247L79.9512 57.0072C83.1405 71.8694 81.9133 77.8325 73.3067 80.9994C71.7183 81.6596 69.88 82.1432 67.7866 82.5891L37.398 89.0627C35.3046 89.5086 33.4286 89.8163 31.7081 89.861C22.5542 90.4775 18.9869 85.5358 15.7975 70.6737L10.1359 44.2911C6.94659 29.429 8.17386 23.4659 16.7804 20.299C18.3689 19.6387 20.2071 19.1552 22.3005 18.7092Z" fill="#F1F4F9" stroke="#033F47" stroke-width="0.666667" stroke-linecap="round" stroke-linejoin="round"/>
<path d="M36.0376 19.3988H67.113C69.2537 19.3988 71.1528 19.4887 72.8447 19.8035C81.9256 21.1075 84.3771 26.6831 84.3771 41.8812V68.86C84.3771 84.0581 81.9256 89.6337 72.8447 90.9377C71.1528 91.2524 69.2537 91.3424 67.113 91.3424H36.0376C33.8968 91.3424 31.9978 91.2524 30.3059 90.9377C21.2249 89.6337 18.7734 84.0581 18.7734 68.86V41.8812C18.7734 26.6831 21.2249 21.1075 30.3059 19.8035C31.9978 19.4887 33.8968 19.3988 36.0376 19.3988Z" fill="white" stroke="#033F47" stroke-width="0.666667"/>
<rect x="32.1836" y="42.6865" width="38.5254" height="5.84626" rx="2.92313" fill="#F1F4F9" stroke="#033F47" stroke-width="0.666667"/>
<rect x="32.1836" y="31.5928" width="5.84626" height="5.84626" rx="2.92313" fill="#F1F4F9" stroke="#033F47" stroke-width="0.666667"/>
<rect x="41.9258" y="31.5928" width="5.84626" height="5.84626" rx="2.92313" fill="#F1F4F9" stroke="#033F47" stroke-width="0.666667"/>
<rect x="32.1836" y="53.4808" width="38.5254" height="5.84626" rx="2.92313" fill="#F1F4F9" stroke="#033F47" stroke-width="0.666667"/>
<rect x="32.1836" y="64.5746" width="38.5254" height="5.84626" rx="2.92313" fill="#F1F4F9" stroke="#033F47" stroke-width="0.666667"/>
<rect x="32.1836" y="75.3623" width="38.5254" height="5.84626" rx="2.92313" fill="#F1F4F9" stroke="#033F47" stroke-width="0.666667"/>
<path d="M80.3269 50.4617H86.8817C92.344 50.4617 94.5289 48.2848 94.5289 42.8425V36.3117C94.5289 30.8694 92.344 28.6925 86.8817 28.6925H80.3269C74.8646 28.6925 72.6797 30.8694 72.6797 36.3117V42.8425C72.6797 48.2848 74.8646 50.4617 80.3269 50.4617Z" fill="white" stroke="#033F47" stroke-width="0.666667"/>
<path d="M79.8164 39.6528H87.3968" stroke="#033F47" stroke-width="1.33333" stroke-linecap="round" stroke-linejoin="round"/>
<path d="M83.6836 43.3512V35.7986" stroke="#033F47" stroke-width="1.33333" stroke-linecap="round" stroke-linejoin="round"/>
</svg>
