<svg width="20" height="21" viewBox="0 0 20 21" fill="none" xmlns="http://www.w3.org/2000/svg">
<path d="M9.16797 4.2334H3.33464C2.89261 4.2334 2.46868 4.40899 2.15612 4.72155C1.84356 5.03411 1.66797 5.45804 1.66797 5.90007V17.5667C1.66797 18.0088 1.84356 18.4327 2.15612 18.7452C2.46868 19.0578 2.89261 19.2334 3.33464 19.2334H15.0013C15.4433 19.2334 15.8673 19.0578 16.1798 18.7452C16.4924 18.4327 16.668 18.0088 16.668 17.5667V11.7334" stroke="#627D81" stroke-width="1.5" stroke-linecap="round" stroke-linejoin="round"/>
<path d="M16.668 2.46533C16.1991 2.46533 15.7495 2.65158 15.418 2.9831L7.5013 10.8998L6.66797 14.2331L10.0013 13.3998L17.918 5.4831C18.2495 5.15158 18.4357 4.70194 18.4357 4.2331C18.4357 3.76426 18.2495 3.31462 17.918 2.9831C17.5864 2.65158 17.1368 2.46533 16.668 2.46533Z" stroke="#627D81" stroke-width="1.5" stroke-linecap="round" stroke-linejoin="round"/>
</svg>
