<svg width="24" height="25" viewBox="0 0 24 25" fill="none" xmlns="http://www.w3.org/2000/svg">
<path fill-rule="evenodd" clip-rule="evenodd" d="M2.75 8.9043C2.75 7.29725 3.20538 6.27278 3.88534 5.64139C4.57535 5.00066 5.61497 4.6543 7 4.6543H17C18.385 4.6543 19.4246 5.00066 20.1147 5.64139C20.7946 6.27278 21.25 7.29725 21.25 8.9043V15.9043C21.25 17.5113 20.7946 18.5358 20.1147 19.1672C19.4246 19.8079 18.385 20.1543 17 20.1543H7C5.61497 20.1543 4.57535 19.8079 3.88534 19.1672C3.20538 18.5358 2.75 17.5113 2.75 15.9043V8.9043ZM7 3.1543C5.38503 3.1543 3.92465 3.55793 2.86466 4.5422C1.79462 5.53582 1.25 7.01135 1.25 8.9043V15.9043C1.25 17.7972 1.79462 19.2728 2.86466 20.2664C3.92465 21.2507 5.38503 21.6543 7 21.6543H17C18.615 21.6543 20.0754 21.2507 21.1353 20.2664C22.2054 19.2728 22.75 17.7972 22.75 15.9043V8.9043C22.75 7.01135 22.2054 5.53582 21.1353 4.5422C20.0754 3.55793 18.615 3.1543 17 3.1543H7ZM18.4048 10.0357C18.7535 9.81217 18.8549 9.34826 18.6314 8.99955C18.4079 8.65083 17.944 8.54935 17.5952 8.77289L13.8402 11.18L13.8398 11.1802C13.3691 11.4808 12.7021 11.6543 11.994 11.6543C11.2862 11.6543 10.6193 11.481 10.1487 11.1805L10.1478 11.18L6.40567 8.77348C6.05728 8.54943 5.59323 8.65024 5.36918 8.99863C5.14514 9.34702 5.24594 9.81107 5.59433 10.0351L9.33832 12.4428L9.34018 12.444C10.1055 12.933 11.0703 13.1543 11.994 13.1543C12.9177 13.1543 13.8825 12.933 14.6478 12.444L14.6487 12.4434L18.4048 10.0357Z" fill="#E2E8E9"/>
</svg>
