<svg width="32" height="33" viewBox="0 0 32 33" fill="none" xmlns="http://www.w3.org/2000/svg">
<path d="M32 16.3252C32 7.48872 24.8365 0.325195 16 0.325195C7.16352 0.325195 0 7.48872 0 16.3252C0 23.8286 5.16608 30.1249 12.135 31.8542V21.2148H8.83584V16.3252H12.135V14.2183C12.135 8.77256 14.5997 6.2484 19.9462 6.2484C20.96 6.2484 22.7091 6.44744 23.4246 6.64584V11.0778C23.047 11.0382 22.391 11.0183 21.5763 11.0183C18.953 11.0183 17.9392 12.0122 17.9392 14.5959V16.3252H23.1654L22.2675 21.2148H17.9392V32.2081C25.8618 31.2513 32.0006 24.5057 32.0006 16.3252H32Z" fill="#2B786C"/>
</svg>
