<svg width="24" height="25" viewBox="0 0 24 25" fill="none" xmlns="http://www.w3.org/2000/svg">
<path fill-rule="evenodd" clip-rule="evenodd" d="M2.75 7.9043C2.75 6.11057 3.01624 5.2987 3.50172 4.86177C4.01582 4.39908 4.98599 4.1543 7 4.1543H8.5C9.19391 4.1543 9.50793 4.24799 9.69205 4.34754C9.8854 4.45208 10.0228 4.60319 10.3238 4.96444L11.8238 6.76443L11.8238 6.76445L11.827 6.76818L11.8576 6.80462C12.0268 7.00579 12.258 7.28091 12.6091 7.47188C12.9931 7.68078 13.4414 7.7543 14 7.7543H17C19.014 7.7543 19.9842 7.99908 20.4983 8.46177C20.9838 8.8987 21.25 9.71057 21.25 11.5043V16.9043C21.25 18.698 20.9838 19.5099 20.4983 19.9468C19.9842 20.4095 19.014 20.6543 17 20.6543H7C4.98599 20.6543 4.01582 20.4095 3.50172 19.9468C3.01624 19.5099 2.75 18.698 2.75 16.9043V7.9043ZM7 2.6543C5.01401 2.6543 3.48418 2.85952 2.49828 3.74683C1.48376 4.65989 1.25 6.09802 1.25 7.9043V16.9043C1.25 18.7106 1.48376 20.1487 2.49828 21.0618C3.48418 21.9491 5.01401 22.1543 7 22.1543H17C18.986 22.1543 20.5158 21.9491 21.5017 21.0618C22.5162 20.1487 22.75 18.7106 22.75 16.9043V11.5043C22.75 9.69802 22.5162 8.25989 21.5017 7.34683C20.5158 6.45952 18.986 6.2543 17 6.2543H14C13.5586 6.2543 13.3968 6.19282 13.3259 6.15421C13.2439 6.1096 13.1817 6.04746 12.9746 5.80225L11.4762 4.00416L11.4444 3.96606C11.1825 3.65122 10.8755 3.28219 10.4054 3.02805C9.90708 2.7586 9.30609 2.6543 8.5 2.6543H7Z" fill="#E2E8E9"/>
</svg>
