<svg width="56" height="57" viewBox="0 0 56 57" fill="none" xmlns="http://www.w3.org/2000/svg">
<rect y="0.658447" width="56" height="56" rx="28" fill="#A1B3B6"/>
<path d="M38.4142 37.0727C38.7893 36.6976 39 36.1889 39 35.6584V24.6584C39 24.128 38.7893 23.6193 38.4142 23.2442C38.0391 22.8692 37.5304 22.6584 37 22.6584H33L31 19.6584H25L23 22.6584H19C18.4696 22.6584 17.9609 22.8692 17.5858 23.2442C17.2107 23.6193 17 24.128 17 24.6584V35.6584C17 36.1889 17.2107 36.6976 17.5858 37.0727C17.9609 37.4477 18.4696 37.6584 19 37.6584H37C37.5304 37.6584 38.0391 37.4477 38.4142 37.0727Z" stroke="white" stroke-width="2" stroke-linecap="round" stroke-linejoin="round"/>
<path d="M28 33.6584C30.2091 33.6584 32 31.8676 32 29.6584C32 27.4493 30.2091 25.6584 28 25.6584C25.7909 25.6584 24 27.4493 24 29.6584C24 31.8676 25.7909 33.6584 28 33.6584Z" stroke="white" stroke-width="2" stroke-linecap="round" stroke-linejoin="round"/>
</svg>
