<svg width="122" height="104" viewBox="0 0 122 104" fill="none" xmlns="http://www.w3.org/2000/svg">
<path d="M86.6145 2.90366C86.201 3.12962 85.7147 3.18238 85.2623 3.05035C84.8099 2.91833 84.4283 2.61231 84.2012 2.19938L83.2159 0.399902L23.2812 33.233L61.7581 103.477L121.696 70.6472L100.749 32.406C100.523 31.9929 100.47 31.5071 100.602 31.0552C100.734 30.6034 101.04 30.2224 101.453 29.9959C101.658 29.8838 101.838 29.7324 101.984 29.5504C102.131 29.3684 102.24 29.1593 102.305 28.9352C102.37 28.7111 102.391 28.4763 102.366 28.2442C102.34 28.0121 102.269 27.7873 102.157 27.5826L89.0246 3.60794C88.7981 3.19523 88.4171 2.88926 87.9653 2.75722C87.5134 2.62517 87.0276 2.67784 86.6145 2.90366Z" fill="#C6D2D5" stroke="#033F47" stroke-width="0.323064" stroke-linecap="round" stroke-linejoin="round"/>
<path d="M89.5948 5.49487L40.918 22.8472L64.1594 88.0452L112.836 70.6929L89.5948 5.49487Z" fill="white" stroke="#033F47" stroke-width="0.323064" stroke-linecap="round" stroke-linejoin="round"/>
<path d="M89.5987 5.49878L40.9219 22.8511L49.4841 46.8701L98.1609 29.5178L89.5987 5.49878Z" fill="white" stroke="#033F47" stroke-width="0.323064" stroke-linecap="round" stroke-linejoin="round"/>
<path d="M85.8283 30.1733C89.463 27.8657 90.5388 23.0486 88.2313 19.4138C85.9237 15.7791 81.1066 14.7032 77.4719 17.0107C73.8371 19.3183 72.7613 24.1355 75.0688 27.7702C77.3764 31.405 82.1935 32.4809 85.8283 30.1733Z" fill="#033F47" stroke="#033F47" stroke-width="0.323064" stroke-linecap="round" stroke-linejoin="round"/>
<path d="M84.2685 30.9464C85.3491 30.5623 86.3315 29.9441 87.1453 29.1359C87.959 28.3277 88.584 27.3496 88.9755 26.2716C87.6219 23.2413 84.3137 21.6615 81.3351 22.7179C78.3564 23.7743 76.796 27.0987 77.6651 30.3002C78.6501 30.8879 79.7529 31.2506 80.8945 31.3623C82.036 31.474 83.1882 31.3319 84.2685 30.9464Z" fill="white" stroke="#033F47" stroke-width="0.323064" stroke-linecap="round" stroke-linejoin="round"/>
<path d="M83.7477 25.1063C85.383 23.6616 85.5374 21.1646 84.0927 19.5293C82.6479 17.894 80.151 17.7395 78.5157 19.1843C76.8804 20.6291 76.7259 23.126 78.1707 24.7613C79.6154 26.3966 82.1123 26.5511 83.7477 25.1063Z" fill="white" stroke="#033F47" stroke-width="0.323064" stroke-linecap="round" stroke-linejoin="round"/>
<path d="M65.2851 23.7999L48.25 29.8726L48.9475 31.8293L65.9826 25.7566L65.2851 23.7999Z" fill="white" stroke="#033F47" stroke-width="0.323064" stroke-linecap="round" stroke-linejoin="round"/>
<path d="M66.9647 28.503L49.9297 34.5757L50.6272 36.5324L67.6623 30.4597L66.9647 28.503Z" fill="white" stroke="#033F47" stroke-width="0.323064" stroke-linecap="round" stroke-linejoin="round"/>
<path d="M68.3554 32.4151L51.3203 38.4878L51.6696 39.4677L68.7047 33.395L68.3554 32.4151Z" fill="#033F47"/>
<path d="M69.1913 34.7667L52.1562 40.8394L52.5056 41.8192L69.5406 35.7466L69.1913 34.7667Z" fill="#033F47"/>
<path d="M73.4491 46.7101L56.4141 52.7827L56.7634 53.7626L73.7984 47.6899L73.4491 46.7101Z" fill="#033F47"/>
<path d="M74.2147 48.8644L57.1797 54.937L57.529 55.9169L74.564 49.8442L74.2147 48.8644Z" fill="#033F47"/>
<path d="M74.9843 51.0206L57.9492 57.0933L58.2985 58.0731L75.3336 52.0005L74.9843 51.0206Z" fill="#033F47"/>
<path d="M96.5546 38.4737L79.5195 44.5464L79.8688 45.5263L96.9039 39.4536L96.5546 38.4737Z" fill="#033F47"/>
<path d="M97.3241 40.628L80.2891 46.7007L80.6384 47.6806L97.6734 41.6079L97.3241 40.628Z" fill="#033F47"/>
<path d="M98.0897 42.7823L81.0547 48.855L81.404 49.8348L98.439 43.7622L98.0897 42.7823Z" fill="#033F47"/>
<path d="M55.3203 50.9721L96.443 36.3179" stroke="#033F47" stroke-width="0.323064" stroke-linecap="round" stroke-linejoin="round"/>
<path d="M77.4335 57.8722L60.3984 63.9448L60.7477 64.9247L77.7828 58.852L77.4335 57.8722Z" fill="#033F47"/>
<path d="M78.1952 60.0265L61.1602 66.0991L61.5095 67.079L78.5445 61.0063L78.1952 60.0265Z" fill="#033F47"/>
<path d="M78.9647 62.1827L61.9297 68.2554L62.279 69.2352L79.314 63.1626L78.9647 62.1827Z" fill="#033F47"/>
<path d="M100.535 49.6358L83.5 55.7085L83.8493 56.6884L100.884 50.6157L100.535 49.6358Z" fill="#033F47"/>
<path d="M101.301 51.7901L84.2656 57.8628L84.6149 58.8427L101.65 52.77L101.301 51.7901Z" fill="#033F47"/>
<path d="M102.07 53.9444L85.0352 60.0171L85.3845 60.997L102.42 54.9243L102.07 53.9444Z" fill="#033F47"/>
<path d="M59.3008 62.1342L100.423 47.48" stroke="#033F47" stroke-width="0.323064" stroke-linecap="round" stroke-linejoin="round"/>
<path d="M103.608 58.2484L63.2695 72.6284L66.7593 82.418L107.098 68.038L103.608 58.2484Z" fill="#033F47" stroke="#033F47" stroke-width="0.323064" stroke-linecap="round" stroke-linejoin="round"/>
<path d="M83.2252 9.53172L35.7305 29.8979L63.0088 93.5127L110.504 73.1465L83.2252 9.53172Z" fill="white" stroke="#033F47" stroke-width="0.323064" stroke-linecap="round" stroke-linejoin="round"/>
<path d="M83.2252 9.53172L35.7305 29.8979L45.7798 53.3337L93.2746 32.9675L83.2252 9.53172Z" fill="white" stroke="#033F47" stroke-width="0.323064" stroke-linecap="round" stroke-linejoin="round"/>
<path d="M83.0171 32.2586C85.3152 28.6178 84.2267 23.8034 80.5859 21.5054C76.9452 19.2073 72.1309 20.2958 69.8328 23.9366C67.5348 27.5774 68.6233 32.3917 72.264 34.6898C75.9048 36.9878 80.7191 35.8993 83.0171 32.2586Z" fill="#033F47" stroke="#033F47" stroke-width="0.323064" stroke-linecap="round" stroke-linejoin="round"/>
<path d="M79.4997 35.2662C80.5541 34.8148 81.4956 34.1359 82.2568 33.278C83.0181 32.4201 83.5803 31.4045 83.903 30.3039C82.3653 27.3673 78.9634 25.9943 76.0591 27.2413C73.1547 28.4883 71.8043 31.8967 72.8704 35.0368C73.8903 35.5609 75.0134 35.8532 76.1594 35.8928C77.3054 35.9325 78.446 35.7185 79.4997 35.2662Z" fill="white" stroke="#033F47" stroke-width="0.323064" stroke-linecap="round" stroke-linejoin="round"/>
<path d="M78.5099 29.5593C80.1055 28.0708 80.1924 25.5706 78.7039 23.975C77.2154 22.3793 74.7153 22.2924 73.1196 23.7809C71.524 25.2694 71.4371 27.7696 72.9256 29.3652C74.4141 30.9609 76.9142 31.0478 78.5099 29.5593Z" fill="white" stroke="#033F47" stroke-width="0.323064" stroke-linecap="round" stroke-linejoin="round"/>
<path d="M60.1058 29.3252L43.4844 36.4526L44.303 38.3618L60.9244 31.2344L60.1058 29.3252Z" fill="white" stroke="#033F47" stroke-width="0.323064" stroke-linecap="round" stroke-linejoin="round"/>
<path d="M62.0706 33.9092L45.4492 41.0366L46.2679 42.9458L62.8893 35.8184L62.0706 33.9092Z" fill="white" stroke="#033F47" stroke-width="0.323064" stroke-linecap="round" stroke-linejoin="round"/>
<path d="M63.7112 37.7295L47.0898 44.8569L47.4998 45.813L64.1212 38.6856L63.7112 37.7295Z" fill="#033F47"/>
<path d="M64.6956 40.0205L48.0742 47.1479L48.4842 48.104L65.1056 40.9766L64.6956 40.0205Z" fill="#033F47"/>
<path d="M69.6956 51.6768L53.0742 58.8042L53.4842 59.7603L70.1056 52.6329L69.6956 51.6768Z" fill="#033F47"/>
<path d="M70.594 53.7764L53.9727 60.9038L54.3826 61.8599L71.004 54.7325L70.594 53.7764Z" fill="#033F47"/>
<path d="M71.4925 55.8838L54.8711 63.0112L55.2811 63.9673L71.9024 56.8399L71.4925 55.8838Z" fill="#033F47"/>
<path d="M92.2347 42.0127L75.6133 49.1401L76.0233 50.0962L92.6446 42.9688L92.2347 42.0127Z" fill="#033F47"/>
<path d="M93.1331 44.1104L76.5117 51.2378L76.9217 52.1939L93.5431 45.0665L93.1331 44.1104Z" fill="#033F47"/>
<path d="M94.0393 46.2158L77.418 53.3433L77.8279 54.2993L94.4493 47.1719L94.0393 46.2158Z" fill="#033F47"/>
<path d="M51.8633 57.066L91.9877 39.8628" stroke="#033F47" stroke-width="0.323064" stroke-linecap="round" stroke-linejoin="round"/>
<path d="M74.3636 62.5674L57.7422 69.6948L58.1522 70.6509L74.7735 63.5235L74.3636 62.5674Z" fill="#033F47"/>
<path d="M75.262 64.6651L58.6406 71.7925L59.0506 72.7486L75.672 65.6211L75.262 64.6651Z" fill="#033F47"/>
<path d="M76.1644 66.7705L59.543 73.8979L59.9529 74.854L76.5743 67.7266L76.1644 66.7705Z" fill="#033F47"/>
<path d="M96.9065 52.9014L80.2852 60.0288L80.6951 60.9849L97.3165 53.8575L96.9065 52.9014Z" fill="#033F47"/>
<path d="M97.8089 54.999L81.1875 62.1265L81.5975 63.0825L98.2189 55.9551L97.8089 54.999Z" fill="#033F47"/>
<path d="M98.7034 57.1065L82.082 64.2339L82.492 65.19L99.1134 58.0625L98.7034 57.1065Z" fill="#033F47"/>
<path d="M56.5312 67.9566L96.6557 50.7534" stroke="#033F47" stroke-width="0.323064" stroke-linecap="round" stroke-linejoin="round"/>
<path d="M100.512 61.3055L61.1523 78.1831L65.2482 87.735L104.607 70.8573L100.512 61.3055Z" fill="#033F47" stroke="#033F47" stroke-width="0.323064" stroke-linecap="round" stroke-linejoin="round"/>
<path d="M72.3646 9.10953L29.0195 37.2476L66.7073 95.3042L110.052 67.1661L72.3646 9.10953Z" fill="white" stroke="#033F47" stroke-width="0.323064" stroke-linecap="round" stroke-linejoin="round"/>
<path d="M72.3646 9.11344L29.0195 37.2515L42.9037 58.6396L86.2488 30.5016L72.3646 9.11344Z" fill="white" stroke="#033F47" stroke-width="0.323064" stroke-linecap="round" stroke-linejoin="round"/>
<path d="M74.1351 18.7829L37.7695 42.3901L38.9006 44.1325L75.2662 20.5253L74.1351 18.7829Z" fill="white" stroke="#033F47" stroke-width="0.323064" stroke-linecap="round" stroke-linejoin="round"/>
<path d="M76.6881 23.0761L40.4883 46.5757L41.6194 48.3181L77.8192 24.8185L76.6881 23.0761Z" fill="white" stroke="#033F47" stroke-width="0.323064" stroke-linecap="round" stroke-linejoin="round"/>
<path d="M79.046 26.8881L42.457 50.4097L43.0188 51.2835L79.6077 27.7619L79.046 26.8881Z" fill="#033F47"/>
<path d="M80.4246 28.5793L44.1094 52.1538L44.6758 53.0264L80.991 29.4518L80.4246 28.5793Z" fill="#033F47"/>
<path d="M66.1848 52.9413L51.0156 62.7886L51.582 63.6611L66.7512 53.8139L66.1848 52.9413Z" fill="#033F47"/>
<path d="M67.4308 54.8612L52.2617 64.7085L52.8281 65.581L67.9973 55.7338L67.4308 54.8612Z" fill="#033F47"/>
<path d="M68.673 56.7812L53.5039 66.6284L54.0703 67.501L69.2395 57.6537L68.673 56.7812Z" fill="#033F47"/>
<path d="M86.759 39.5819L71.5898 49.4292L72.1563 50.3017L87.3254 40.4545L86.759 39.5819Z" fill="#033F47"/>
<path d="M88.009 41.5019L72.8398 51.3491L73.4063 52.2217L88.5754 42.3744L88.009 41.5019Z" fill="#033F47"/>
<path d="M89.2551 43.4237L74.0859 53.271L74.6524 54.1435L89.8215 44.2963L89.2551 43.4237Z" fill="#033F47"/>
<path d="M49.5391 61.2661L86.155 37.4917" stroke="#033F47" stroke-width="0.323064" stroke-linecap="round" stroke-linejoin="round"/>
<path d="M72.6379 62.8827L57.4688 72.73L58.0352 73.6025L73.2043 63.7553L72.6379 62.8827Z" fill="#033F47"/>
<path d="M73.884 64.8007L58.7148 74.6479L59.2813 75.5205L74.4504 65.6732L73.884 64.8007Z" fill="#033F47"/>
<path d="M75.1301 66.7167L59.9609 76.564L60.5274 77.4365L75.6965 67.5893L75.1301 66.7167Z" fill="#033F47"/>
<path d="M93.216 49.5253L78.0469 59.3726L78.6133 60.2451L93.7824 50.3978L93.216 49.5253Z" fill="#033F47"/>
<path d="M94.4582 51.4413L79.2891 61.2886L79.8555 62.1611L95.0246 52.3139L94.4582 51.4413Z" fill="#033F47"/>
<path d="M95.7043 53.3612L80.5352 63.2085L81.1016 64.081L96.2707 54.2338L95.7043 53.3612Z" fill="#033F47"/>
<path d="M55.9922 71.2023L92.6082 47.4312" stroke="#033F47" stroke-width="0.323064" stroke-linecap="round" stroke-linejoin="round"/>
<path d="M98.1977 57.197L62.2773 80.5151L67.9362 89.2324L103.857 65.9142L98.1977 57.197Z" fill="#033F47" stroke="#033F47" stroke-width="0.323064" stroke-linecap="round" stroke-linejoin="round"/>
<path d="M23.2809 33.2328L0.304688 15.4448L13.9767 41.093C14.2998 41.7133 13.4437 41.8296 12.5714 41.2803C11.6894 40.7279 10.8204 40.8507 11.1661 41.4774L18.2573 54.3677C18.37 54.5514 18.5183 54.7107 18.6934 54.8362L22.1567 57.4465C22.3368 57.5736 22.4877 57.7377 22.5993 57.9279L36.9465 85.1785L61.761 103.477L23.2809 33.2328Z" fill="#C6D2D5" stroke="#033F47" stroke-width="0.323064" stroke-linecap="round" stroke-linejoin="round"/>
<path opacity="0.25" d="M23.2809 33.2328L0.304688 15.4448L13.9767 41.093C14.2998 41.7133 13.4437 41.8296 12.5714 41.2803C11.6894 40.7279 10.8204 40.8507 11.1661 41.4774L18.2573 54.3677C18.37 54.5514 18.5183 54.7107 18.6934 54.8362L22.1567 57.4465C22.3368 57.5736 22.4877 57.7377 22.5993 57.9279L36.9465 85.1785L61.761 103.477L23.2809 33.2328Z" fill="#C6D2D5" stroke="#033F47" stroke-width="0.323064" stroke-linecap="round" stroke-linejoin="round"/>
</svg>
