<svg width="32" height="33" viewBox="0 0 32 33" fill="none" xmlns="http://www.w3.org/2000/svg">
<g clip-path="url(#clip0_1959_7986)">
<path d="M16 3.20645C20.275 3.20645 20.7813 3.2252 22.4625 3.3002C24.025 3.36895 24.8688 3.63145 25.4313 3.8502C26.175 4.1377 26.7125 4.4877 27.2688 5.04395C27.8313 5.60645 28.175 6.1377 28.4625 6.88145C28.6813 7.44395 28.9438 8.29395 29.0125 9.8502C29.0875 11.5377 29.1063 12.0439 29.1063 16.3127C29.1063 20.5877 29.0875 21.0939 29.0125 22.7752C28.9438 24.3377 28.6813 25.1814 28.4625 25.7439C28.175 26.4877 27.825 27.0252 27.2688 27.5814C26.7063 28.1439 26.175 28.4877 25.4313 28.7752C24.8688 28.9939 24.0188 29.2564 22.4625 29.3252C20.775 29.4002 20.2688 29.4189 16 29.4189C11.725 29.4189 11.2188 29.4002 9.5375 29.3252C7.975 29.2564 7.13125 28.9939 6.56875 28.7752C5.825 28.4877 5.2875 28.1377 4.73125 27.5814C4.16875 27.0189 3.825 26.4877 3.5375 25.7439C3.31875 25.1814 3.05625 24.3314 2.9875 22.7752C2.9125 21.0877 2.89375 20.5814 2.89375 16.3127C2.89375 12.0377 2.9125 11.5314 2.9875 9.8502C3.05625 8.2877 3.31875 7.44395 3.5375 6.88145C3.825 6.1377 4.175 5.6002 4.73125 5.04395C5.29375 4.48145 5.825 4.1377 6.56875 3.8502C7.13125 3.63145 7.98125 3.36895 9.5375 3.3002C11.2188 3.2252 11.725 3.20645 16 3.20645ZM16 0.325195C11.6563 0.325195 11.1125 0.343945 9.40625 0.418945C7.70625 0.493945 6.5375 0.768945 5.525 1.1627C4.46875 1.5752 3.575 2.11895 2.6875 3.0127C1.79375 3.9002 1.25 4.79395 0.8375 5.84395C0.44375 6.8627 0.16875 8.0252 0.09375 9.7252C0.01875 11.4377 0 11.9814 0 16.3252C0 20.6689 0.01875 21.2127 0.09375 22.9189C0.16875 24.6189 0.44375 25.7877 0.8375 26.8002C1.25 27.8564 1.79375 28.7502 2.6875 29.6377C3.575 30.5252 4.46875 31.0752 5.51875 31.4814C6.5375 31.8752 7.7 32.1502 9.4 32.2252C11.1063 32.3002 11.65 32.3189 15.9938 32.3189C20.3375 32.3189 20.8813 32.3002 22.5875 32.2252C24.2875 32.1502 25.4563 31.8752 26.4688 31.4814C27.5188 31.0752 28.4125 30.5252 29.3 29.6377C30.1875 28.7502 30.7375 27.8564 31.1438 26.8064C31.5375 25.7877 31.8125 24.6252 31.8875 22.9252C31.9625 21.2189 31.9813 20.6752 31.9813 16.3314C31.9813 11.9877 31.9625 11.4439 31.8875 9.7377C31.8125 8.0377 31.5375 6.86895 31.1438 5.85645C30.75 4.79395 30.2063 3.9002 29.3125 3.0127C28.425 2.1252 27.5313 1.5752 26.4813 1.16895C25.4625 0.775195 24.3 0.500195 22.6 0.425195C20.8875 0.343945 20.3438 0.325195 16 0.325195Z" fill="#2B786C"/>
<path d="M16 8.10645C11.4625 8.10645 7.78125 11.7877 7.78125 16.3252C7.78125 20.8627 11.4625 24.5439 16 24.5439C20.5375 24.5439 24.2188 20.8627 24.2188 16.3252C24.2188 11.7877 20.5375 8.10645 16 8.10645ZM16 21.6564C13.0563 21.6564 10.6687 19.2689 10.6687 16.3252C10.6687 13.3814 13.0563 10.9939 16 10.9939C18.9438 10.9939 21.3312 13.3814 21.3312 16.3252C21.3312 19.2689 18.9438 21.6564 16 21.6564Z" fill="#2B786C"/>
<path d="M26.4625 7.78142C26.4625 8.84393 25.6 9.70018 24.5438 9.70018C23.4813 9.70018 22.625 8.83768 22.625 7.78142C22.625 6.71892 23.4875 5.86267 24.5438 5.86267C25.6 5.86267 26.4625 6.72517 26.4625 7.78142Z" fill="#2B786C"/>
</g>
<defs>
<clipPath id="clip0_1959_7986">
<rect width="32" height="32" fill="white" transform="translate(0 0.325195)"/>
</clipPath>
</defs>
</svg>
