<svg width="20" height="21" viewBox="0 0 20 21" fill="none" xmlns="http://www.w3.org/2000/svg">
<path d="M13.5715 15.2354V18.0926C13.5715 18.4714 13.421 18.8348 13.1531 19.1027C12.8852 19.3706 12.5218 19.5211 12.1429 19.5211H2.14293C1.76405 19.5211 1.40068 19.3706 1.13277 19.1027C0.864865 18.8348 0.714355 18.4714 0.714355 18.0926V2.37828C0.714355 1.9994 0.864865 1.63604 1.13277 1.36813C1.40068 1.10022 1.76405 0.949707 2.14293 0.949707H12.1429C12.5218 0.949707 12.8852 1.10022 13.1531 1.36813C13.421 1.63604 13.5715 1.9994 13.5715 2.37828V5.23542" stroke="#627D81" stroke-width="1.5" stroke-linecap="round" stroke-linejoin="round"/>
<path d="M9.28564 10.2354H19.2856" stroke="#627D81" stroke-width="1.5" stroke-linecap="round" stroke-linejoin="round"/>
<path d="M16.4287 7.37842L19.2859 10.2356L16.4287 13.0927" stroke="#627D81" stroke-width="1.5" stroke-linecap="round" stroke-linejoin="round"/>
</svg>
