<svg width="250" height="251" viewBox="0 0 250 251" fill="none" xmlns="http://www.w3.org/2000/svg">
<path d="M212.503 119.799C212.973 117.104 213.728 114.439 214.268 111.694C215.245 106.394 215.321 100.968 214.493 95.6437C212.919 85.4257 208.857 75.7517 202.663 67.4737C196.073 58.6337 186.163 51.4737 175.513 54.1787C164.433 56.9787 155.053 65.5237 144.278 69.4237C126.028 76.0237 107.553 63.9937 89.1633 64.4237C73.2833 64.7687 56.6233 70.4687 46.1633 84.5637C41.8933 90.3187 38.9183 98.0637 39.9283 105.684C41.1633 114.969 47.9783 122.034 53.0583 128.904C60.8483 139.434 63.7983 150.904 57.2433 163.194C52.8133 171.524 46.8533 178.884 47.3683 189.229C48.1933 205.779 63.4733 215.774 76.0733 220.229C88.8733 224.759 103.408 225.229 116.133 220.129C127.438 215.579 135.328 205.629 145.633 199.279C154.667 193.683 165.341 191.34 175.888 192.639C186.778 193.939 198.253 196.229 208.778 191.534C218.848 187.034 223.618 175.009 223.993 163.484C224.206 157.734 223.339 151.995 221.438 146.564C219.103 140.034 213.938 134.939 212.483 128.014C211.962 125.299 211.969 122.51 212.503 119.799Z" fill="#2B786C"/>
<path opacity="0.7" d="M212.503 119.799C212.973 117.104 213.728 114.439 214.268 111.694C215.245 106.394 215.321 100.968 214.493 95.6437C212.919 85.4257 208.857 75.7517 202.663 67.4737C196.073 58.6337 186.163 51.4737 175.513 54.1787C164.433 56.9787 155.053 65.5237 144.278 69.4237C126.028 76.0237 107.553 63.9937 89.1633 64.4237C73.2833 64.7687 56.6233 70.4687 46.1633 84.5637C41.8933 90.3187 38.9183 98.0637 39.9283 105.684C41.1633 114.969 47.9783 122.034 53.0583 128.904C60.8483 139.434 63.7983 150.904 57.2433 163.194C52.8133 171.524 46.8533 178.884 47.3683 189.229C48.1933 205.779 63.4733 215.774 76.0733 220.229C88.8733 224.759 103.408 225.229 116.133 220.129C127.438 215.579 135.328 205.629 145.633 199.279C154.667 193.683 165.341 191.34 175.888 192.639C186.778 193.939 198.253 196.229 208.778 191.534C218.848 187.034 223.618 175.009 223.993 163.484C224.206 157.734 223.339 151.995 221.438 146.564C219.103 140.034 213.938 134.939 212.483 128.014C211.962 125.299 211.969 122.51 212.503 119.799Z" fill="white"/>
<path d="M183.83 38.9379C183.86 38.9379 184.755 36.5779 184.795 36.4379C185.25 34.6229 185.055 30.8479 183.295 29.7429C182.995 29.5728 182.662 29.4668 182.318 29.4316C181.975 29.3964 181.628 29.4328 181.299 29.5385C180.97 29.6442 180.666 29.8169 180.408 30.0457C180.149 30.2745 179.94 30.5545 179.795 30.8679C179.14 32.1979 179.6 33.9629 180.23 35.2129C180.94 36.6529 183.83 38.9329 183.83 38.9379Z" fill="#2B786C"/>
<path d="M225.315 56.2435C223.85 54.7435 220.125 55.3635 218.45 56.1985C218.305 56.2685 216.17 57.6535 216.2 57.6985L216.23 57.7285C215.645 57.8235 215.01 57.9285 214.325 58.0585C213.06 58.3135 211.63 58.6085 210.1 59.0585C208.442 59.4976 206.813 60.0369 205.22 60.6735C203.431 61.3727 201.708 62.2294 200.07 63.2335L200.015 63.2735C200.415 62.8085 201.485 61.4635 201.56 61.3535C202.56 59.7685 203.56 56.1235 202.205 54.5185C201.971 54.2623 201.686 54.0577 201.368 53.9177C201.051 53.7777 200.707 53.7055 200.36 53.7055C200.013 53.7055 199.67 53.7777 199.352 53.9177C199.034 54.0577 198.749 54.2623 198.515 54.5185C197.48 55.5785 197.365 57.3935 197.575 58.7785C197.815 60.3335 199.68 63.1985 199.83 63.4285C198.189 64.4876 196.622 65.657 195.14 66.9285C194.27 67.6685 193.42 68.4285 192.575 69.2185C192.905 68.8035 193.2 68.4335 193.235 68.3735C194.235 66.7885 195.235 63.1435 193.885 61.5385C193.651 61.2823 193.366 61.0777 193.048 60.9377C192.731 60.7977 192.387 60.7255 192.04 60.7255C191.693 60.7255 191.35 60.7977 191.032 60.9377C190.714 61.0777 190.429 61.2823 190.195 61.5385C189.16 62.5985 189.045 64.4185 189.255 65.7985C189.465 67.1785 191.01 69.6735 191.425 70.2985L190.465 71.2035C188.93 72.6635 187.405 74.1285 185.865 75.5185C185.325 76.0185 184.77 76.4735 184.22 76.9385C184.515 76.5685 184.76 76.2585 184.795 76.2085C185.795 74.6235 186.795 70.9785 185.44 69.3685C185.208 69.1107 184.924 68.9042 184.607 68.762C184.291 68.6199 183.948 68.5453 183.601 68.5429C183.253 68.5406 182.91 68.6105 182.591 68.7484C182.272 68.8862 181.986 69.0889 181.75 69.3435C180.72 70.4035 180.6 72.2235 180.81 73.6035C181.02 74.9835 182.42 77.2384 182.91 78.0135C182.335 78.4734 181.755 78.9335 181.175 79.3535C180.77 79.6285 180.4 79.9235 179.98 80.1785L178.76 80.9585C177.965 81.4235 177.15 81.9085 176.365 82.3485C175.82 82.6535 175.295 82.9335 174.77 83.2235C175.315 82.7235 176.36 81.7735 176.44 81.6835C177.475 80.4002 178.163 78.8733 178.44 77.2485C178.562 77.1119 178.67 76.9627 178.76 76.8035C178.943 76.5086 179.062 76.179 179.111 75.8355C179.159 75.492 179.136 75.1422 179.042 74.8083C178.948 74.4744 178.785 74.1637 178.564 73.896C178.344 73.6284 178.07 73.4095 177.76 73.2535C176.315 72.5885 174.095 73.5335 172.555 74.6285C172.62 73.5635 172.59 72.9085 172.59 72.9085L172.185 72.9485L172.48 72.2435C172.68 71.8035 172.83 71.3135 173.005 70.8435C173.395 69.7435 173.735 68.6085 174.055 67.4635C174.78 67.8135 177.365 69.0385 178.77 69.0885C180.175 69.1385 181.96 68.8185 182.895 67.6685C183.121 67.405 183.29 67.0972 183.391 66.7648C183.492 66.4324 183.523 66.0827 183.481 65.7378C183.439 65.393 183.326 65.0607 183.148 64.7621C182.971 64.4635 182.733 64.2051 182.45 64.0035C180.7 62.8535 177.19 64.2585 175.73 65.4285C175.64 65.5035 174.685 66.4635 174.175 66.9985C174.36 66.3085 174.55 65.6185 174.715 64.9085C175.19 62.8735 175.61 60.7935 176.04 58.7235C176.17 58.0885 176.31 57.4585 176.445 56.8235C176.7 56.9535 179.745 58.4735 181.315 58.5285C182.715 58.5785 184.505 58.2585 185.44 57.1085C185.666 56.8451 185.834 56.5377 185.934 56.2058C186.035 55.8739 186.065 55.5247 186.023 55.1805C185.981 54.8363 185.868 54.5046 185.691 54.2064C185.514 53.9082 185.277 53.6501 184.995 53.4485C183.245 52.2935 179.735 53.6985 178.275 54.8735C178.165 54.9585 176.775 56.3385 176.47 56.7085C176.765 55.3185 177.08 53.9335 177.44 52.5785C177.918 50.7509 178.516 48.957 179.23 47.2085C179.35 47.2685 182.52 48.8685 184.13 48.9235C185.525 48.9785 187.32 48.6535 188.255 47.5035C188.48 47.2398 188.648 46.9321 188.748 46.6C188.848 46.2679 188.878 45.9186 188.836 45.5744C188.793 45.2302 188.68 44.8985 188.502 44.6005C188.325 44.3025 188.088 44.0447 187.805 43.8435C186.055 42.6885 182.55 44.0935 181.09 45.2685C180.975 45.3585 179.505 46.8435 179.255 47.1335C179.3 47.0335 179.33 46.9235 179.375 46.8235C180.135 45.078 181.05 43.4046 182.11 41.8235C182.685 40.9485 183.28 40.1385 183.88 39.3685C184.44 39.7285 187.015 41.3385 188.46 41.5535C189.905 41.7685 191.66 41.6285 192.715 40.5935C192.968 40.3561 193.17 40.0686 193.306 39.7492C193.442 39.4299 193.51 39.0857 193.506 38.7385C193.501 38.3914 193.425 38.049 193.281 37.733C193.137 37.4171 192.929 37.1346 192.67 36.9035C191.06 35.5635 187.42 36.5785 185.84 37.5835C185.755 37.6335 184.94 38.2885 184.34 38.7685C184.615 38.4285 184.89 38.0685 185.16 37.7435C186.16 36.5235 187.16 35.4685 188.07 34.5435C188.57 34.0435 189.07 33.5435 189.505 33.1285C190.24 33.1935 193.195 33.4185 194.55 32.9535C195.905 32.4885 197.43 31.5485 197.885 30.1385C198.001 29.8114 198.047 29.4638 198.021 29.1178C197.995 28.7719 197.898 28.4351 197.734 28.1289C197.571 27.8228 197.346 27.5539 197.073 27.3395C196.801 27.1251 196.486 26.9698 196.15 26.8835C194.1 26.4385 191.335 29.0185 190.395 30.6335C190.315 30.7735 189.3 33.1085 189.335 33.1335H189.38C188.94 33.5335 188.475 33.9735 187.975 34.4585C187.055 35.3685 186.03 36.4035 184.975 37.6085C183.837 38.8922 182.776 40.2411 181.795 41.6485C180.69 43.2265 179.728 44.8998 178.92 46.6485L178.89 46.7135C178.97 46.1035 179.125 44.3935 179.12 44.2585C179.08 42.3885 177.9 38.7985 175.89 38.1985C175.555 38.1111 175.205 38.0944 174.863 38.1494C174.521 38.2044 174.194 38.3299 173.903 38.5179C173.612 38.706 173.363 38.9525 173.172 39.2418C172.982 39.5311 172.853 39.8569 172.795 40.1985C172.52 41.6485 173.425 43.2285 174.365 44.2685C175.42 45.4385 178.56 46.7685 178.81 46.9035C178.027 48.6896 177.367 50.5272 176.835 52.4035C176.515 53.4985 176.23 54.6085 175.955 55.7285C176.005 55.1985 176.045 54.7285 176.04 54.6585C176 52.7885 174.82 49.1985 172.81 48.5985C172.475 48.5119 172.126 48.4958 171.784 48.5511C171.443 48.6065 171.117 48.7322 170.826 48.9202C170.536 49.1082 170.287 49.3544 170.097 49.6433C169.907 49.9322 169.778 50.2574 169.72 50.5985C169.44 52.0485 170.35 53.6285 171.285 54.6685C172.22 55.7085 174.89 56.9285 175.595 57.2435C175.495 57.6735 175.39 58.0985 175.29 58.5285C174.815 60.5935 174.355 62.6585 173.835 64.6635C173.655 65.3735 173.45 66.0635 173.25 66.7535C173.29 66.2885 173.32 65.8885 173.32 65.8285C173.28 63.9585 172.1 60.3685 170.09 59.7685C169.755 59.6819 169.406 59.6658 169.064 59.7211C168.723 59.7765 168.397 59.9022 168.106 60.0902C167.816 60.2782 167.567 60.5244 167.377 60.8133C167.187 61.1022 167.058 61.4274 167 61.7685C166.72 63.2235 167.625 64.8035 168.565 65.8435C169.505 66.8835 171.91 67.9835 172.745 68.3435C172.52 69.0485 172.29 69.7485 172.035 70.4185C171.855 70.8735 171.71 71.3235 171.5 71.7685L170.925 73.0585C170.48 73.1335 169.965 73.2335 169.39 73.3635C169.24 71.4785 168.535 69.1785 167.1 68.4985C166.781 68.3612 166.436 68.292 166.088 68.2954C165.741 68.2988 165.398 68.3747 165.081 68.5182C164.764 68.6618 164.481 68.8697 164.249 69.1289C164.018 69.3881 163.842 69.6928 163.735 70.0235C163.235 71.4185 163.9 73.1185 164.67 74.2835C164.783 74.4604 164.91 74.6276 165.05 74.7835C162.593 75.7856 160.383 77.311 158.575 79.2535C153.39 85.0535 153.78 93.8635 153.78 93.8635C153.78 93.8635 161.135 93.3635 166.36 88.8635C167.965 88.1035 170.04 87.0935 172.415 85.8185C173.305 85.3484 174.245 84.8185 175.205 84.2735C175.46 84.5885 177.525 87.1485 178.9 87.8435C180.15 88.4785 181.9 88.9335 183.24 88.2835C183.554 88.1388 183.834 87.9305 184.064 87.672C184.293 87.4134 184.466 87.1101 184.573 86.7812C184.679 86.4523 184.716 86.105 184.681 85.7611C184.646 85.4173 184.54 85.0844 184.37 84.7835C183.265 83.0035 179.49 82.8135 177.675 83.2835C177.57 83.3135 176.44 83.7335 175.73 84.0085C176.12 83.7835 176.505 83.5685 176.905 83.3285C177.7 82.8635 178.48 82.3785 179.32 81.8585L180.525 81.0535C180.93 80.7935 181.33 80.4685 181.735 80.1735C182.665 79.4735 183.575 78.7135 184.475 77.9335C184.885 78.6285 186.37 81.0735 187.51 81.8885C188.65 82.7034 190.32 83.4235 191.735 82.9835C192.069 82.888 192.379 82.724 192.647 82.502C192.914 82.2799 193.132 82.0046 193.286 81.6936C193.441 81.3827 193.529 81.0429 193.545 80.6959C193.562 80.349 193.505 80.0024 193.38 79.6785C192.56 77.7535 188.855 76.9885 186.995 77.1785C186.875 77.1785 185.555 77.4635 184.83 77.6285C185.365 77.1535 185.905 76.6785 186.435 76.1835C187.935 74.7435 189.435 73.2435 190.935 71.7535C191.395 71.2935 191.86 70.8435 192.32 70.3935C192.46 70.6385 194.165 73.5885 195.445 74.5035C196.58 75.3185 198.255 76.0335 199.665 75.5935C199.999 75.4985 200.309 75.335 200.576 75.1135C200.844 74.892 201.062 74.6173 201.217 74.3069C201.372 73.9965 201.461 73.6572 201.478 73.3105C201.495 72.9639 201.439 72.6175 201.315 72.2935C200.49 70.3635 196.815 69.6035 194.925 69.7935C194.785 69.7935 192.885 70.2035 192.425 70.3285C193.425 69.3285 194.465 68.3285 195.51 67.4235C196.919 66.161 198.409 64.9919 199.97 63.9235C200.035 64.0385 201.8 67.1235 203.11 68.0585C204.245 68.8735 205.92 69.5935 207.33 69.1485C207.664 69.0535 207.974 68.89 208.241 68.6685C208.509 68.447 208.727 68.1723 208.882 67.8619C209.037 67.5515 209.126 67.2122 209.143 66.8655C209.16 66.5189 209.104 66.1725 208.98 65.8485C208.155 63.9185 204.455 63.1585 202.59 63.3485C202.445 63.3485 200.4 63.7935 200.03 63.8985C200.125 63.8335 200.21 63.7635 200.3 63.7035C201.895 62.6751 203.578 61.7915 205.33 61.0635C206.29 60.6485 207.23 60.3035 208.155 59.9935C208.425 60.5985 209.685 63.3635 210.775 64.3385C211.865 65.3135 213.4 66.1684 214.85 65.8885C215.193 65.8305 215.52 65.7018 215.81 65.5104C216.1 65.3191 216.347 65.0694 216.535 64.7772C216.723 64.485 216.849 64.1568 216.903 63.8135C216.957 63.4702 216.939 63.1194 216.85 62.7835C216.24 60.7835 212.645 59.6135 210.775 59.5835C210.67 59.5835 209.635 59.6735 208.88 59.7585C209.3 59.6235 209.73 59.4735 210.135 59.3535C211.635 58.8935 213.07 58.5685 214.33 58.2885C215.045 58.1335 215.695 58.0085 216.33 57.9035C216.905 58.3585 219.25 60.1785 220.635 60.5385C222.02 60.8985 223.81 60.9535 224.97 60.0385C225.266 59.8297 225.514 59.5591 225.695 59.2452C225.877 58.9313 225.988 58.5818 226.02 58.2208C226.053 57.8597 226.007 57.4959 225.885 57.1545C225.764 56.8131 225.569 56.5022 225.315 56.2435ZM171.865 84.6885C170.775 85.2435 169.745 85.7485 168.795 86.1885C170.404 83.8551 171.509 81.2124 172.04 78.4285C172.325 78.4985 172.615 78.5585 172.905 78.6135C172.99 80.1885 174.245 82.9885 174.405 83.3485C173.535 83.8285 172.68 84.2985 171.865 84.6885Z" fill="#2B786C"/>
<path d="M210.55 57.9531C211.93 56.6881 213.855 53.4531 212.98 51.5331C212.824 51.2233 212.605 50.9493 212.338 50.7287C212.07 50.5081 211.759 50.3455 211.425 50.2515C211.091 50.1574 210.742 50.1339 210.398 50.1824C210.055 50.2308 209.725 50.3503 209.43 50.5331C208.155 51.2831 207.56 53.0031 207.4 54.3931C207.21 56.0231 208.36 59.5181 208.36 59.5181C208.36 59.5181 210.435 58.0631 210.55 57.9531Z" fill="#2B786C"/>
<path d="M150 42.3942C150 42.3942 139.325 53.2242 139.27 66.6442C139.215 80.0642 149.77 90.9792 149.77 90.9792C149.77 90.9792 160.455 80.1492 160.5 66.7342C160.545 53.3192 150 42.3942 150 42.3942Z" fill="#2B786C"/>
<path d="M126.535 73.0836C126.535 73.0836 126.47 81.9036 131.865 87.5086C137.26 93.1136 146.07 93.3836 146.07 93.3836C146.07 93.3836 146.14 84.5636 140.745 78.9586C135.35 73.3536 126.535 73.0836 126.535 73.0836Z" fill="#2B786C"/>
<g opacity="0.5">
<path d="M183.834 38.9379C183.864 38.9379 184.759 36.5779 184.799 36.4379C185.254 34.6229 185.059 30.8479 183.299 29.7429C182.998 29.5728 182.666 29.4668 182.322 29.4316C181.979 29.3964 181.631 29.4328 181.303 29.5385C180.974 29.6442 180.67 29.8169 180.412 30.0457C180.153 30.2745 179.944 30.5545 179.799 30.8679C179.144 32.1979 179.604 33.9629 180.234 35.2129C180.944 36.6529 183.834 38.9329 183.834 38.9379Z" fill="white"/>
<path d="M225.319 56.2425C223.854 54.7425 220.129 55.3625 218.454 56.1975C218.309 56.2675 216.174 57.6525 216.204 57.6975L216.234 57.7275C215.649 57.8225 215.014 57.9275 214.329 58.0575C213.064 58.3125 211.634 58.6075 210.104 59.0575C208.446 59.4966 206.817 60.036 205.224 60.6725C203.435 61.3717 201.712 62.2284 200.074 63.2325L200.019 63.2725C200.419 62.8075 201.489 61.4625 201.564 61.3525C202.564 59.7675 203.564 56.1225 202.209 54.5175C201.975 54.2613 201.69 54.0567 201.372 53.9167C201.054 53.7768 200.711 53.7045 200.364 53.7045C200.017 53.7045 199.674 53.7768 199.356 53.9167C199.038 54.0567 198.753 54.2613 198.519 54.5175C197.484 55.5775 197.369 57.3925 197.579 58.7775C197.819 60.3325 199.684 63.1975 199.834 63.4275C198.193 64.4867 196.626 65.656 195.144 66.9275C194.274 67.6675 193.424 68.4275 192.579 69.2175C192.909 68.8025 193.204 68.4325 193.239 68.3725C194.239 66.7875 195.239 63.1425 193.889 61.5375C193.655 61.2813 193.37 61.0767 193.052 60.9367C192.734 60.7968 192.391 60.7245 192.044 60.7245C191.697 60.7245 191.354 60.7968 191.036 60.9367C190.718 61.0767 190.433 61.2813 190.199 61.5375C189.164 62.5975 189.049 64.4175 189.259 65.7975C189.469 67.1775 191.014 69.6725 191.429 70.2975L190.469 71.2025C188.934 72.6625 187.409 74.1275 185.869 75.5175C185.329 76.0175 184.774 76.4725 184.224 76.9375C184.519 76.5675 184.764 76.2575 184.799 76.2075C185.799 74.6225 186.799 70.9775 185.444 69.3675C185.212 69.1097 184.928 68.9032 184.611 68.761C184.294 68.6189 183.952 68.5443 183.605 68.542C183.257 68.5396 182.914 68.6096 182.595 68.7474C182.276 68.8852 181.99 69.0879 181.754 69.3425C180.724 70.4025 180.604 72.2225 180.814 73.6025C181.024 74.9825 182.424 77.2375 182.914 78.0125C182.339 78.4725 181.759 78.9325 181.179 79.3525C180.774 79.6275 180.404 79.9225 179.984 80.1775L178.764 80.9575C177.969 81.4225 177.154 81.9075 176.369 82.3475C175.824 82.6525 175.299 82.9325 174.774 83.2225C175.319 82.7225 176.364 81.7725 176.444 81.6825C177.479 80.3992 178.167 78.8724 178.444 77.2475C178.566 77.1109 178.673 76.9618 178.764 76.8025C178.947 76.5076 179.066 76.178 179.115 75.8345C179.163 75.491 179.14 75.1412 179.046 74.8073C178.952 74.4734 178.789 74.1627 178.568 73.8951C178.348 73.6274 178.074 73.4086 177.764 73.2525C176.319 72.5875 174.099 73.5325 172.559 74.6275C172.624 73.5625 172.594 72.9075 172.594 72.9075L172.189 72.9475L172.484 72.2425C172.684 71.8025 172.834 71.3125 173.009 70.8425C173.399 69.7425 173.739 68.6075 174.059 67.4625C174.784 67.8125 177.369 69.0375 178.774 69.0875C180.179 69.1375 181.964 68.8175 182.899 67.6675C183.125 67.404 183.294 67.0963 183.395 66.7639C183.496 66.4315 183.526 66.0817 183.485 65.7369C183.443 65.392 183.329 65.0597 183.152 64.7611C182.975 64.4625 182.737 64.2041 182.454 64.0025C180.704 62.8525 177.194 64.2575 175.734 65.4275C175.644 65.5025 174.689 66.4625 174.179 66.9975C174.364 66.3075 174.554 65.6175 174.719 64.9075C175.194 62.8725 175.614 60.7925 176.044 58.7225C176.174 58.0875 176.314 57.4575 176.449 56.8225C176.704 56.9525 179.749 58.4725 181.319 58.5275C182.719 58.5775 184.509 58.2575 185.444 57.1075C185.67 56.8441 185.838 56.5367 185.938 56.2048C186.039 55.8729 186.069 55.5238 186.027 55.1796C185.985 54.8353 185.872 54.5036 185.695 54.2054C185.518 53.9072 185.281 53.6491 184.999 53.4475C183.249 52.2925 179.739 53.6975 178.279 54.8725C178.169 54.9575 176.779 56.3375 176.474 56.7075C176.769 55.3175 177.084 53.9325 177.444 52.5775C177.922 50.7499 178.519 48.956 179.234 47.2075C179.354 47.2675 182.524 48.8675 184.134 48.9225C185.529 48.9775 187.324 48.6525 188.259 47.5025C188.484 47.2388 188.652 46.9311 188.752 46.599C188.852 46.2669 188.882 45.9177 188.84 45.5734C188.797 45.2292 188.684 44.8976 188.506 44.5996C188.329 44.3016 188.091 44.0437 187.809 43.8425C186.059 42.6875 182.554 44.0925 181.094 45.2675C180.979 45.3575 179.509 46.8425 179.259 47.1325C179.304 47.0325 179.334 46.9225 179.379 46.8225C180.139 45.077 181.054 43.4036 182.114 41.8225C182.689 40.9475 183.284 40.1375 183.884 39.3675C184.444 39.7275 187.019 41.3375 188.464 41.5525C189.909 41.7675 191.664 41.6275 192.719 40.5925C192.972 40.3551 193.173 40.0676 193.31 39.7483C193.446 39.4289 193.514 39.0847 193.51 38.7376C193.505 38.3904 193.429 38.048 193.285 37.732C193.141 37.4161 192.933 37.1336 192.674 36.9025C191.064 35.5625 187.424 36.5775 185.844 37.5825C185.759 37.6325 184.944 38.2875 184.344 38.7675C184.619 38.4275 184.894 38.0675 185.164 37.7425C186.164 36.5225 187.164 35.4675 188.074 34.5425C188.574 34.0425 189.074 33.5425 189.509 33.1275C190.244 33.1925 193.199 33.4175 194.554 32.9525C195.909 32.4875 197.434 31.5475 197.889 30.1375C198.005 29.8104 198.051 29.4628 198.025 29.1168C197.999 28.7709 197.901 28.4341 197.738 28.1279C197.575 27.8218 197.35 27.5529 197.077 27.3385C196.804 27.1241 196.49 26.9688 196.154 26.8825C194.104 26.4375 191.339 29.0175 190.399 30.6325C190.319 30.7725 189.304 33.1075 189.339 33.1325H189.384C188.944 33.5325 188.479 33.9725 187.979 34.4575C187.059 35.3675 186.034 36.4025 184.979 37.6075C183.841 38.8912 182.78 40.2402 181.799 41.6475C180.694 43.2256 179.732 44.8988 178.924 46.6475L178.894 46.7125C178.974 46.1025 179.129 44.3925 179.124 44.2575C179.084 42.3875 177.904 38.7975 175.894 38.1975C175.559 38.1101 175.209 38.0934 174.867 38.1484C174.525 38.2034 174.198 38.3289 173.907 38.5169C173.616 38.705 173.367 38.9515 173.176 39.2408C172.986 39.5301 172.857 39.8559 172.799 40.1975C172.524 41.6475 173.429 43.2275 174.369 44.2675C175.424 45.4375 178.564 46.7675 178.814 46.9025C178.031 48.6886 177.371 50.5262 176.839 52.4025C176.519 53.4975 176.234 54.6075 175.959 55.7275C176.009 55.1975 176.049 54.7275 176.044 54.6575C176.004 52.7875 174.824 49.1975 172.814 48.5975C172.479 48.5109 172.13 48.4948 171.788 48.5502C171.447 48.6055 171.12 48.7312 170.83 48.9192C170.54 49.1072 170.291 49.3534 170.101 49.6423C169.911 49.9312 169.782 50.2564 169.724 50.5975C169.444 52.0475 170.354 53.6275 171.289 54.6675C172.224 55.7075 174.894 56.9275 175.599 57.2425C175.499 57.6725 175.394 58.0975 175.294 58.5275C174.819 60.5925 174.359 62.6575 173.839 64.6625C173.659 65.3725 173.454 66.0625 173.254 66.7525C173.294 66.2875 173.324 65.8875 173.324 65.8275C173.284 63.9575 172.104 60.3675 170.094 59.7675C169.759 59.6809 169.41 59.6648 169.068 59.7202C168.727 59.7755 168.4 59.9012 168.11 60.0892C167.82 60.2772 167.571 60.5234 167.381 60.8123C167.191 61.1012 167.062 61.4264 167.004 61.7675C166.724 63.2225 167.629 64.8025 168.569 65.8425C169.509 66.8825 171.914 67.9825 172.749 68.3425C172.524 69.0475 172.294 69.7475 172.039 70.4175C171.859 70.8725 171.714 71.3225 171.504 71.7675L170.929 73.0575C170.484 73.1325 169.969 73.2325 169.394 73.3625C169.244 71.4775 168.539 69.1775 167.104 68.4975C166.785 68.3602 166.44 68.291 166.092 68.2945C165.745 68.2979 165.402 68.3737 165.085 68.5173C164.768 68.6608 164.485 68.8688 164.253 69.1279C164.021 69.3871 163.846 69.6918 163.739 70.0225C163.239 71.4175 163.904 73.1175 164.674 74.2825C164.787 74.4594 164.914 74.6266 165.054 74.7825C162.597 75.7847 160.387 77.31 158.579 79.2525C153.394 85.0525 153.784 93.8625 153.784 93.8625C153.784 93.8625 161.139 93.3625 166.364 88.8625C167.969 88.1025 170.044 87.0925 172.419 85.8175C173.309 85.3475 174.249 84.8175 175.209 84.2725C175.464 84.5875 177.529 87.1475 178.904 87.8425C180.154 88.4775 181.904 88.9325 183.244 88.2825C183.558 88.1378 183.838 87.9296 184.068 87.671C184.297 87.4124 184.47 87.1091 184.576 86.7802C184.683 86.4513 184.719 86.104 184.685 85.7601C184.65 85.4163 184.544 85.0834 184.374 84.7825C183.269 83.0025 179.494 82.8125 177.679 83.2825C177.574 83.3125 176.444 83.7325 175.734 84.0075C176.124 83.7825 176.509 83.5675 176.909 83.3275C177.704 82.8625 178.484 82.3775 179.324 81.8575L180.529 81.0525C180.934 80.7925 181.334 80.4675 181.739 80.1725C182.669 79.4725 183.579 78.7125 184.479 77.9325C184.889 78.6275 186.374 81.0725 187.514 81.8875C188.654 82.7025 190.324 83.4225 191.739 82.9825C192.073 82.887 192.383 82.7231 192.65 82.501C192.918 82.2789 193.135 82.0036 193.29 81.6927C193.445 81.3817 193.533 81.0419 193.549 80.695C193.566 80.348 193.509 80.0015 193.384 79.6775C192.564 77.7525 188.859 76.9875 186.999 77.1775C186.879 77.1775 185.559 77.4625 184.834 77.6275C185.369 77.1525 185.909 76.6775 186.439 76.1825C187.939 74.7425 189.439 73.2425 190.939 71.7525C191.399 71.2925 191.864 70.8425 192.324 70.3925C192.464 70.6375 194.169 73.5875 195.449 74.5025C196.584 75.3175 198.259 76.0325 199.669 75.5925C200.003 75.4975 200.313 75.3341 200.58 75.1126C200.848 74.8911 201.066 74.6164 201.221 74.3059C201.376 73.9955 201.465 73.6562 201.482 73.3095C201.499 72.9629 201.443 72.6165 201.319 72.2925C200.494 70.3625 196.819 69.6025 194.929 69.7925C194.789 69.7925 192.889 70.2025 192.429 70.3275C193.429 69.3275 194.469 68.3275 195.514 67.4225C196.923 66.1601 198.413 64.9909 199.974 63.9225C200.039 64.0375 201.804 67.1225 203.114 68.0575C204.249 68.8725 205.924 69.5925 207.334 69.1475C207.668 69.0525 207.978 68.8891 208.245 68.6676C208.513 68.4461 208.731 68.1714 208.886 67.8609C209.041 67.5505 209.13 67.2112 209.147 66.8645C209.164 66.5179 209.108 66.1715 208.984 65.8475C208.159 63.9175 204.459 63.1575 202.594 63.3475C202.449 63.3475 200.404 63.7925 200.034 63.8975C200.129 63.8325 200.214 63.7625 200.304 63.7025C201.899 62.6741 203.582 61.7906 205.334 61.0625C206.294 60.6475 207.234 60.3025 208.159 59.9925C208.429 60.5975 209.689 63.3625 210.779 64.3375C211.869 65.3125 213.404 66.1675 214.854 65.8875C215.197 65.8295 215.524 65.7008 215.814 65.5095C216.104 65.3181 216.351 65.0684 216.539 64.7762C216.727 64.484 216.852 64.1558 216.907 63.8125C216.961 63.4693 216.943 63.1184 216.854 62.7825C216.244 60.7825 212.649 59.6125 210.779 59.5825C210.674 59.5825 209.639 59.6725 208.884 59.7575C209.304 59.6225 209.734 59.4725 210.139 59.3525C211.639 58.8925 213.074 58.5675 214.334 58.2875C215.049 58.1325 215.699 58.0075 216.334 57.9025C216.909 58.3575 219.254 60.1775 220.639 60.5375C222.024 60.8975 223.814 60.9525 224.974 60.0375C225.27 59.8288 225.518 59.5581 225.699 59.2442C225.881 58.9303 225.992 58.5808 226.024 58.2198C226.057 57.8588 226.011 57.4949 225.889 57.1535C225.767 56.8121 225.573 56.5012 225.319 56.2425ZM171.869 84.6875C170.779 85.2425 169.749 85.7475 168.799 86.1875C170.408 83.8542 171.513 81.2114 172.044 78.4275C172.329 78.4975 172.619 78.5575 172.909 78.6125C172.994 80.1875 174.249 82.9875 174.409 83.3475C173.539 83.8275 172.684 84.2975 171.869 84.6875Z" fill="white"/>
<path d="M210.554 57.9521C211.934 56.6871 213.859 53.4521 212.984 51.5321C212.828 51.2223 212.609 50.9484 212.341 50.7277C212.074 50.5071 211.763 50.3446 211.429 50.2505C211.095 50.1565 210.745 50.1329 210.402 50.1814C210.058 50.2299 209.729 50.3493 209.434 50.5321C208.159 51.2821 207.564 53.0021 207.404 54.3921C207.214 56.0221 208.364 59.5171 208.364 59.5171C208.364 59.5171 210.439 58.0621 210.554 57.9521Z" fill="white"/>
<path d="M150.004 42.3932C150.004 42.3932 139.329 53.2232 139.274 66.6432C139.219 80.0632 149.774 90.9782 149.774 90.9782C149.774 90.9782 160.459 80.1482 160.504 66.7332C160.549 53.3182 150.004 42.3932 150.004 42.3932Z" fill="white"/>
<path d="M126.539 73.0826C126.539 73.0826 126.474 81.9026 131.869 87.5076C137.264 93.1126 146.074 93.3826 146.074 93.3826C146.074 93.3826 146.144 84.5626 140.749 78.9576C135.354 73.3526 126.539 73.0826 126.539 73.0826Z" fill="white"/>
</g>
<path d="M156.712 78.8042L156.372 78.3642L150.092 83.2942L150.142 72.4492L158.867 64.7292L158.497 64.3142L150.142 71.7042L150.197 59.7942L156.072 54.7042L155.712 54.2842L150.197 59.0542L150.272 42.3942H149.717L149.607 66.9392L142.697 56.8342L142.237 57.1442L149.562 67.8492L149.607 67.8192L149.562 78.0192L141.272 70.5642L140.902 70.9792L149.557 78.7642V78.7592L149.507 90.9792L150.062 90.9842L150.092 83.9992L156.712 78.8042Z" fill="white"/>
<path d="M172.789 73.0337L172.379 72.6637L163.139 82.9937L163.979 76.3187L163.429 76.2537L162.489 83.7137H162.494L158.779 87.8687L158.079 81.7037L157.529 81.7637L158.284 88.4237L153.594 93.6637L154.009 94.0337L156.674 91.0587L161.489 91.3487L161.519 90.7937L157.144 90.5287L161.139 86.0637L167.844 86.0687V85.5137L161.634 85.5037L166.029 80.5937L170.484 80.6487L170.494 80.0937L166.524 80.0437L172.789 73.0337Z" fill="white"/>
<path d="M144.151 85.5342L143.601 85.4592L143.011 89.8042L138.856 85.4842L139.366 78.7992L138.811 78.7592L138.341 84.9492L133.766 80.1992L134.156 75.7592L133.601 75.7142L133.256 79.6692L126.736 72.8942L126.336 73.2792L135.946 83.2642L129.356 81.9242L129.246 82.4692L136.616 83.9642V83.9542L140.481 87.9742L134.281 88.2092L134.301 88.7642L140.996 88.5092L145.871 93.5742L146.271 93.1892L143.506 90.3142L144.151 85.5342Z" fill="white"/>
<path d="M148.203 218.135L212.048 194.18L212.508 189.075L149.133 213.025L148.203 218.135Z" fill="#2B786C" stroke="#2E353A" stroke-width="0.378643" stroke-linecap="round" stroke-linejoin="round"/>
<path d="M137.454 133.455C136.332 133.447 135.248 133.051 134.384 132.335C133.299 131.44 132.586 130.173 132.384 128.78C132.359 128.531 132.43 128.282 132.583 128.085C132.736 127.887 132.959 127.756 133.206 127.718C133.453 127.68 133.706 127.739 133.911 127.881C134.116 128.024 134.258 128.24 134.309 128.485C134.439 129.398 134.904 130.231 135.614 130.82C135.922 131.086 136.285 131.282 136.677 131.394C137.069 131.507 137.48 131.533 137.883 131.47C138.285 131.408 138.67 131.259 139.009 131.034C139.349 130.808 139.635 130.512 139.849 130.165C139.996 129.961 140.217 129.822 140.464 129.776C140.712 129.731 140.968 129.784 141.178 129.922C141.387 130.061 141.536 130.276 141.591 130.522C141.646 130.767 141.604 131.025 141.474 131.24C141.109 131.812 140.626 132.301 140.058 132.672C139.49 133.044 138.85 133.29 138.179 133.395C137.939 133.435 137.697 133.455 137.454 133.455Z" fill="#2E353A"/>
<path d="M128.241 136.299C125.776 136.299 123.571 134.339 123.156 131.629C123.136 131.503 123.142 131.374 123.172 131.25C123.202 131.126 123.256 131.009 123.331 130.906C123.406 130.803 123.501 130.715 123.61 130.649C123.719 130.583 123.84 130.538 123.966 130.519C124.221 130.485 124.48 130.551 124.687 130.703C124.895 130.855 125.036 131.081 125.081 131.334C125.371 133.239 126.976 134.579 128.651 134.334C129.053 134.268 129.437 134.118 129.777 133.893C130.116 133.668 130.404 133.374 130.621 133.029C130.769 132.825 130.989 132.686 131.237 132.64C131.485 132.595 131.74 132.647 131.95 132.786C132.16 132.925 132.308 133.14 132.363 133.385C132.419 133.631 132.377 133.889 132.246 134.104C131.881 134.676 131.399 135.164 130.831 135.536C130.263 135.908 129.622 136.154 128.951 136.259C128.716 136.292 128.479 136.305 128.241 136.299Z" fill="#2E353A"/>
<path d="M119.809 139.535C118.688 139.527 117.604 139.134 116.739 138.42C115.655 137.524 114.942 136.257 114.739 134.865C114.714 134.616 114.785 134.367 114.938 134.17C115.091 133.972 115.315 133.841 115.562 133.803C115.809 133.765 116.061 133.824 116.266 133.966C116.471 134.109 116.614 134.325 116.664 134.57C116.795 135.483 117.26 136.315 117.969 136.905C118.281 137.166 118.644 137.359 119.035 137.471C119.426 137.583 119.837 137.612 120.239 137.555C120.641 137.489 121.024 137.339 121.362 137.114C121.701 136.889 121.988 136.595 122.204 136.25C122.368 136.092 122.58 135.994 122.807 135.973C123.034 135.951 123.261 136.008 123.451 136.134C123.641 136.259 123.782 136.445 123.852 136.662C123.922 136.878 123.916 137.112 123.834 137.325C123.468 137.897 122.984 138.385 122.415 138.756C121.847 139.128 121.206 139.375 120.534 139.48C120.295 139.519 120.052 139.537 119.809 139.535Z" fill="#2E353A"/>
<path d="M110.592 142.175C108.127 142.175 105.922 140.21 105.507 137.505C105.481 137.376 105.482 137.244 105.509 137.115C105.536 136.986 105.589 136.864 105.664 136.756C105.739 136.648 105.836 136.557 105.947 136.487C106.059 136.418 106.183 136.371 106.313 136.351C106.443 136.331 106.576 136.337 106.703 136.369C106.831 136.402 106.95 136.46 107.055 136.54C107.159 136.619 107.247 136.719 107.312 136.834C107.376 136.948 107.417 137.075 107.432 137.205C107.727 139.11 109.327 140.45 111.002 140.205C111.404 140.14 111.787 139.99 112.126 139.766C112.466 139.542 112.754 139.249 112.972 138.905C113.038 138.789 113.127 138.688 113.234 138.607C113.34 138.527 113.462 138.469 113.592 138.438C113.722 138.407 113.857 138.403 113.988 138.426C114.12 138.449 114.245 138.498 114.357 138.572C114.468 138.645 114.563 138.741 114.637 138.852C114.71 138.964 114.759 139.09 114.781 139.221C114.804 139.353 114.799 139.488 114.768 139.618C114.736 139.747 114.678 139.869 114.597 139.975C114.232 140.548 113.749 141.036 113.181 141.408C112.613 141.781 111.973 142.028 111.302 142.135C111.067 142.166 110.829 142.179 110.592 142.175Z" fill="#2E353A"/>
<path d="M101.159 145.926C98.6992 145.926 96.4942 143.966 96.0742 141.256C96.0894 141.029 96.1816 140.814 96.3355 140.646C96.4895 140.479 96.696 140.369 96.9209 140.334C97.1458 140.3 97.3757 140.343 97.5727 140.457C97.7697 140.571 97.9219 140.749 98.0042 140.961C98.2942 142.866 99.8992 144.201 101.574 143.961C101.976 143.895 102.359 143.744 102.699 143.519C103.038 143.294 103.326 143 103.544 142.656C103.692 142.452 103.912 142.313 104.16 142.267C104.407 142.222 104.663 142.274 104.873 142.413C105.083 142.552 105.231 142.767 105.286 143.013C105.341 143.258 105.299 143.516 105.169 143.731C104.804 144.303 104.321 144.79 103.753 145.162C103.185 145.533 102.545 145.78 101.874 145.886C101.637 145.916 101.398 145.93 101.159 145.926Z" fill="#2E353A"/>
<path d="M92.0242 149.27C90.903 149.264 89.8185 148.87 88.9542 148.155C87.87 147.259 87.1572 145.992 86.9542 144.6C86.929 144.352 87.0002 144.103 87.1533 143.905C87.3063 143.707 87.5294 143.576 87.7765 143.538C88.0236 143.5 88.2759 143.559 88.4811 143.702C88.6863 143.844 88.8288 144.061 88.8792 144.305C89.0096 145.219 89.4747 146.051 90.1842 146.64C90.4928 146.907 90.8554 147.102 91.2471 147.215C91.6388 147.327 92.0502 147.353 92.4529 147.291C92.8556 147.228 93.24 147.079 93.5794 146.854C93.9189 146.629 94.2054 146.332 94.4192 145.985C94.5827 145.827 94.7953 145.729 95.0219 145.708C95.2485 145.687 95.4756 145.744 95.6656 145.869C95.8556 145.994 95.9971 146.181 96.0669 146.397C96.1366 146.614 96.1304 146.848 96.0492 147.06C95.6828 147.633 95.1992 148.12 94.6303 148.492C94.0615 148.863 93.4203 149.11 92.7492 149.215C92.5095 149.254 92.267 149.272 92.0242 149.27Z" fill="#2E353A"/>
<path d="M149.953 215.019L202.788 195.554" stroke="#2E353A" stroke-width="0.189321" stroke-linecap="round" stroke-linejoin="round"/>
<path d="M148.562 216.646L182.393 204.131" stroke="#2E353A" stroke-width="0.189321" stroke-linecap="round" stroke-linejoin="round"/>
<path d="M84.5898 147.024V153.059L148.205 218.134L149.135 213.024L84.5898 147.024Z" fill="#2B786C" stroke="#2E353A" stroke-width="0.378643" stroke-linecap="round" stroke-linejoin="round"/>
<path d="M85.5352 151.76L123.31 189.53" stroke="#2E353A" stroke-width="0.189321" stroke-linecap="round" stroke-linejoin="round"/>
<path d="M103.379 167.98L142.769 208.3" stroke="#2E353A" stroke-width="0.189321" stroke-linecap="round" stroke-linejoin="round"/>
<path d="M84.5898 147.025L149.135 213.025L212.51 189.075L146.825 126.125L84.5898 147.025Z" fill="white" stroke="#2E353A" stroke-width="0.378643" stroke-linecap="round" stroke-linejoin="round"/>
<path d="M83.7995 145.985L24.0195 90.1903L85.2545 71.0953L146.355 125.13L83.7995 145.985Z" fill="#2B786C" stroke="#2E353A" stroke-width="0.378643" stroke-linecap="round" stroke-linejoin="round"/>
<path d="M33.1719 90.56L50.6719 85.11" stroke="#2E353A" stroke-width="0.403507" stroke-linecap="round" stroke-linejoin="round"/>
<path d="M35.7539 92.5707L53.2539 87.1207" stroke="#2E353A" stroke-width="0.403507" stroke-linecap="round" stroke-linejoin="round"/>
<path d="M95.2272 147.494C95.0369 147.495 94.8506 147.439 94.6922 147.334C94.4812 147.188 94.3344 146.966 94.2823 146.715C94.2302 146.464 94.2767 146.202 94.4122 145.984C94.9117 145.208 95.1042 144.274 94.9522 143.364C94.8673 142.674 94.579 142.025 94.124 141.5C93.669 140.975 93.0678 140.597 92.3972 140.414C92.155 140.348 91.9478 140.191 91.8187 139.975C91.6895 139.76 91.6483 139.503 91.7037 139.258C91.7592 139.014 91.9069 138.8 92.1161 138.661C92.3254 138.522 92.5801 138.47 92.8272 138.514C93.8795 138.784 94.8275 139.361 95.5499 140.173C96.2722 140.984 96.7361 141.993 96.8822 143.069C97.1107 144.46 96.8111 145.887 96.0422 147.069C95.9502 147.2 95.8282 147.307 95.6864 147.381C95.5446 147.455 95.3871 147.494 95.2272 147.494Z" fill="#2E353A"/>
<path d="M104.356 144.15C104.165 144.151 103.979 144.096 103.821 143.99C103.713 143.92 103.621 143.829 103.549 143.723C103.477 143.617 103.427 143.498 103.402 143.373C103.376 143.247 103.376 143.118 103.4 142.992C103.425 142.866 103.474 142.747 103.546 142.64C104.043 141.864 104.235 140.93 104.086 140.02C104.001 139.33 103.712 138.682 103.257 138.156C102.802 137.631 102.201 137.253 101.531 137.07C101.4 137.049 101.275 137.001 101.163 136.929C101.051 136.857 100.956 136.764 100.881 136.654C100.807 136.544 100.756 136.42 100.732 136.289C100.707 136.159 100.709 136.025 100.738 135.896C100.767 135.766 100.822 135.644 100.9 135.537C100.978 135.429 101.077 135.339 101.191 135.271C101.305 135.203 101.431 135.159 101.563 135.142C101.694 135.124 101.828 135.134 101.956 135.17C103.008 135.44 103.956 136.018 104.678 136.829C105.401 137.64 105.864 138.649 106.011 139.725C106.239 141.117 105.939 142.543 105.171 143.725C105.079 143.856 104.957 143.963 104.815 144.037C104.673 144.111 104.515 144.15 104.356 144.15Z" fill="#2E353A"/>
<path d="M140.66 131.681C140.489 131.672 140.323 131.62 140.178 131.529C140.033 131.437 139.913 131.31 139.832 131.16C139.75 131.009 139.708 130.84 139.71 130.669C139.713 130.497 139.759 130.329 139.845 130.181C140.345 129.407 140.538 128.475 140.385 127.566C140.301 126.875 140.013 126.225 139.558 125.699C139.103 125.173 138.501 124.794 137.83 124.611C137.705 124.584 137.587 124.532 137.482 124.459C137.378 124.386 137.289 124.293 137.22 124.185C137.152 124.077 137.106 123.956 137.084 123.83C137.063 123.705 137.066 123.576 137.095 123.451C137.157 123.202 137.313 122.986 137.529 122.848C137.746 122.71 138.008 122.661 138.26 122.711C139.312 122.981 140.26 123.558 140.983 124.37C141.705 125.181 142.169 126.19 142.315 127.266C142.544 128.658 142.243 130.086 141.47 131.266C141.38 131.397 141.258 131.503 141.117 131.575C140.976 131.647 140.819 131.684 140.66 131.681Z" fill="#2E353A"/>
<path d="M131.43 134.516C131.239 134.517 131.053 134.461 130.895 134.356C130.788 134.285 130.695 134.195 130.624 134.089C130.552 133.983 130.501 133.863 130.476 133.738C130.45 133.612 130.45 133.483 130.475 133.357C130.499 133.232 130.549 133.112 130.62 133.006C131.117 132.229 131.31 131.296 131.16 130.386C131.075 129.696 130.787 129.047 130.332 128.521C129.877 127.996 129.275 127.618 128.605 127.436C128.474 127.414 128.349 127.366 128.237 127.294C128.126 127.222 128.03 127.129 127.956 127.019C127.882 126.909 127.831 126.785 127.806 126.655C127.781 126.524 127.784 126.39 127.813 126.261C127.842 126.131 127.897 126.009 127.974 125.902C128.052 125.794 128.151 125.704 128.265 125.636C128.379 125.568 128.505 125.524 128.637 125.507C128.768 125.49 128.902 125.499 129.03 125.536C130.083 125.804 131.031 126.381 131.754 127.193C132.477 128.004 132.94 129.014 133.085 130.091C133.313 131.482 133.014 132.909 132.245 134.091C132.153 134.221 132.031 134.328 131.889 134.402C131.747 134.476 131.59 134.515 131.43 134.516Z" fill="#2E353A"/>
<path d="M123 137.765C122.809 137.764 122.623 137.707 122.465 137.6C122.254 137.454 122.107 137.232 122.055 136.981C122.003 136.729 122.05 136.468 122.185 136.25C122.687 135.475 122.882 134.54 122.73 133.63C122.645 132.94 122.357 132.291 121.902 131.766C121.447 131.24 120.846 130.862 120.175 130.68C120.044 130.658 119.919 130.61 119.808 130.538C119.696 130.467 119.6 130.373 119.526 130.263C119.452 130.153 119.401 130.029 119.376 129.899C119.352 129.768 119.354 129.634 119.383 129.505C119.412 129.376 119.467 129.253 119.545 129.146C119.622 129.039 119.721 128.948 119.835 128.88C119.949 128.812 120.076 128.768 120.207 128.751C120.339 128.734 120.472 128.744 120.6 128.78C121.652 129.049 122.6 129.627 123.323 130.438C124.045 131.25 124.509 132.258 124.655 133.335C124.884 134.726 124.584 136.153 123.815 137.335C123.724 137.466 123.602 137.574 123.46 137.649C123.318 137.724 123.16 137.764 123 137.765Z" fill="#2E353A"/>
<path d="M113.786 140.4C113.596 140.399 113.411 140.343 113.251 140.24C113.144 140.17 113.052 140.079 112.98 139.973C112.908 139.867 112.858 139.748 112.833 139.622C112.807 139.497 112.807 139.367 112.831 139.242C112.856 139.116 112.905 138.996 112.976 138.89C113.474 138.113 113.666 137.18 113.516 136.27C113.432 135.58 113.143 134.931 112.688 134.406C112.233 133.88 111.632 133.502 110.961 133.32C110.811 133.32 110.664 133.286 110.528 133.222C110.393 133.157 110.275 133.062 110.181 132.946C110.087 132.829 110.021 132.692 109.987 132.546C109.953 132.4 109.952 132.248 109.985 132.102C110.018 131.956 110.083 131.819 110.175 131.701C110.268 131.583 110.386 131.488 110.521 131.422C110.655 131.356 110.803 131.321 110.953 131.32C111.103 131.319 111.251 131.351 111.386 131.415C112.44 131.683 113.389 132.26 114.111 133.071C114.834 133.883 115.297 134.893 115.441 135.97C115.67 137.361 115.371 138.788 114.601 139.97C114.51 140.102 114.388 140.21 114.246 140.284C114.104 140.359 113.947 140.399 113.786 140.4Z" fill="#2E353A"/>
<path d="M200.309 187.551L202.769 186.646" stroke="#2E353A" stroke-width="0.189321" stroke-linecap="round" stroke-linejoin="round"/>
<path d="M151.742 205.49L198.072 188.38" stroke="#2E353A" stroke-width="0.189321" stroke-linecap="round" stroke-linejoin="round"/>
<path d="M153.047 197.756L197.262 181.426" stroke="#2E353A" stroke-width="0.189321" stroke-linecap="round" stroke-linejoin="round"/>
<path d="M146.234 200.27L150.104 198.84" stroke="#2E353A" stroke-width="0.189321" stroke-linecap="round" stroke-linejoin="round"/>
<path d="M140.727 195.052L191.757 176.207" stroke="#2E353A" stroke-width="0.189321" stroke-linecap="round" stroke-linejoin="round"/>
<path d="M135.219 189.837L186.244 170.992" stroke="#2E353A" stroke-width="0.189321" stroke-linecap="round" stroke-linejoin="round"/>
<path d="M178.594 166.559L180.734 165.769" stroke="#2E353A" stroke-width="0.189321" stroke-linecap="round" stroke-linejoin="round"/>
<path d="M129.711 184.616L175.536 167.691" stroke="#2E353A" stroke-width="0.189321" stroke-linecap="round" stroke-linejoin="round"/>
<path d="M124.199 179.394L175.229 160.549" stroke="#2E353A" stroke-width="0.189321" stroke-linecap="round" stroke-linejoin="round"/>
<path d="M118.691 174.18L169.721 155.335" stroke="#2E353A" stroke-width="0.189321" stroke-linecap="round" stroke-linejoin="round"/>
<path d="M113.184 168.96L164.209 150.115" stroke="#2E353A" stroke-width="0.189321" stroke-linecap="round" stroke-linejoin="round"/>
<path d="M107.676 163.74L158.701 144.895" stroke="#2E353A" stroke-width="0.189321" stroke-linecap="round" stroke-linejoin="round"/>
<path d="M151.387 140.345L153.197 139.675" stroke="#2E353A" stroke-width="0.189321" stroke-linecap="round" stroke-linejoin="round"/>
<path d="M102.164 158.52L149.814 140.925" stroke="#2E353A" stroke-width="0.189321" stroke-linecap="round" stroke-linejoin="round"/>
<path d="M111.891 147.675L147.686 134.46" stroke="#2E353A" stroke-width="0.189321" stroke-linecap="round" stroke-linejoin="round"/>
<path d="M96.6602 153.305L106.515 149.665" stroke="#2E353A" stroke-width="0.189321" stroke-linecap="round" stroke-linejoin="round"/>
<path d="M94.5937 93.8445C94.5937 93.8445 102.569 83.7945 105.269 80.1995C107.969 76.6045 109.924 73.8395 109.924 73.8395C109.924 73.8395 111.364 74.9745 110.924 76.2645C110.484 77.5545 100.999 90.5095 98.8887 93.7995C96.7787 97.0895 97.0737 101.254 97.2287 102.689C97.3837 104.124 93.1987 99.4345 94.5937 93.8445Z" fill="white" stroke="#2E353A" stroke-width="0.424223" stroke-linecap="round" stroke-linejoin="round"/>
<path d="M109.926 73.8409C109.926 73.8409 114.891 66.9359 118.576 61.1859C122.261 55.4359 127.641 46.8009 128.921 45.6509C130.201 44.5009 130.511 47.5009 130.096 49.5109C129.681 51.5209 125.276 57.1309 122.301 61.7309C119.326 66.3309 117.486 69.6409 114.926 72.6609C112.366 75.6809 112.516 75.8259 110.926 76.2659C109.336 76.7059 109.646 75.1309 109.926 73.8409Z" fill="#2E353A" stroke="#2E353A" stroke-width="0.424223" stroke-linecap="round" stroke-linejoin="round"/>
<path d="M92.8793 94.8557C93.4293 91.1307 94.6743 84.2507 97.5193 82.0857C100.364 79.9207 108.974 81.5857 109.689 81.7157C110.404 81.8457 121.734 84.3557 125.189 86.4807C128.644 88.6057 130.964 94.7457 131.849 98.3007C132.734 101.856 134.634 107.876 134.919 108.301C134.919 108.301 137.794 109.566 139.369 109.416C140.944 109.266 143.039 101.946 147.449 97.6207C151.859 93.2957 154.149 92.7057 159.019 93.1207C163.889 93.5357 182.389 98.5507 184.264 100.396C186.139 102.241 187.309 106.396 186.904 109.396C186.499 112.396 187.089 115.696 187.089 116.266C187.089 116.836 188.824 118.691 188.404 120.266C187.984 121.841 187.724 125.266 186.439 125.721C185.154 126.176 175.699 125.936 168.679 124.981C161.659 124.026 151.894 119.791 145.429 116.831C138.964 113.871 135.809 112.596 131.084 112.631C126.359 112.666 117.199 112.866 108.739 110.916C100.279 108.966 94.5293 105.416 92.9393 103.861C91.3493 102.306 92.3343 98.5857 92.8793 94.8557ZM143.539 112.416C145.854 115.841 155.184 119.216 160.204 120.611C165.224 122.006 177.264 124.506 180.404 122.771C183.544 121.036 185.194 110.711 184.904 107.131C184.614 103.551 183.149 101.561 183.149 101.561C176.964 97.7357 157.609 93.7107 153.609 95.3157C149.609 96.9207 145.784 102.096 144.379 106.256C142.974 110.416 143.539 112.416 143.539 112.416ZM103.124 106.531C109.304 110.211 119.049 111.291 122.914 111.411C126.779 111.531 130.489 109.501 130.604 105.061C130.719 100.621 128.379 93.1907 127.504 91.0607C126.629 88.9307 123.759 87.6507 123.759 87.6507C119.884 85.8157 103.819 81.7707 101.099 82.2207C98.3793 82.6707 95.9993 86.8007 95.4443 92.8357C94.8893 98.8707 96.9443 102.851 103.124 106.531Z" fill="#2E353A" stroke="#2E353A" stroke-width="0.424223" stroke-linecap="round" stroke-linejoin="round"/>
<path d="M186.659 116.142C186.659 116.142 188.249 118.567 189.384 116.842C190.519 115.117 205.159 98.6975 205.159 98.6975C205.159 98.6975 205.729 98.5475 205.594 99.6975C205.459 100.847 190.134 121.422 189.564 122.427C188.994 123.432 186.564 123.737 185.994 123.312C185.424 122.887 186.659 116.142 186.659 116.142Z" fill="white" stroke="#2E353A" stroke-width="0.424223" stroke-linecap="round" stroke-linejoin="round"/>
<path d="M204.16 99.2708C204.997 97.7814 205.751 96.2475 206.42 94.6758C207.97 91.2308 208.92 84.4958 209.17 77.4758C209.42 70.4558 209.67 66.3058 210.965 67.5858C212.26 68.8658 211.15 75.7508 210.91 81.1858C210.67 86.6208 208.98 92.0808 208.57 94.9508C208.26 97.1158 206.6 100.546 205.455 100.551C204.31 100.556 204.455 100.271 204.16 99.2708Z" fill="#2E353A" stroke="#2E353A" stroke-width="0.424223" stroke-linecap="round" stroke-linejoin="round"/>
<path d="M109.688 189.018L115.983 196.143L106.623 194.033L40.0234 153.288L43.0934 148.273L109.688 189.018Z" fill="white" stroke="#2E353A" stroke-width="0.4788" stroke-linecap="round" stroke-linejoin="round"/>
<g style="mix-blend-mode:multiply" opacity="0.5">
<path d="M109.688 189.018L115.983 196.143L106.623 194.033L40.0234 153.288L43.0934 148.273L109.688 189.018Z" fill="#2B786C"/>
<path d="M109.688 189.018L115.983 196.143L106.623 194.033L40.0234 153.288L43.0934 148.273L109.688 189.018Z" stroke="#2E353A" stroke-width="0.4788" stroke-linecap="round" stroke-linejoin="round"/>
</g>
<path d="M42.3993 149.415L40.7266 152.149L107.325 192.897L108.998 190.163L42.3993 149.415Z" stroke="#2E353A" stroke-width="0.239399" stroke-linecap="round" stroke-linejoin="round"/>
<path d="M109.706 189.034L106.641 194.039L115.986 196.144L109.706 189.034Z" fill="white" stroke="#2E353A" stroke-width="0.4788" stroke-linecap="round" stroke-linejoin="round"/>
<path d="M111.312 195.089L115.988 196.144L112.848 192.589L111.312 195.089Z" fill="#2B786C" stroke="#2E353A" stroke-width="0.4788" stroke-linecap="round" stroke-linejoin="round"/>
<path d="M34.1059 146.219C33.9039 146.548 33.7688 146.913 33.7082 147.294C33.6477 147.675 33.6629 148.065 33.753 148.44C33.8431 148.815 34.0063 149.169 34.2333 149.481C34.4603 149.793 34.7466 150.057 35.0759 150.259L40.0259 153.289L43.0959 148.289L38.1459 145.259C37.4826 144.851 36.6848 144.724 35.9274 144.904C35.1701 145.083 34.515 145.556 34.1059 146.219Z" fill="white" stroke="#2E353A" stroke-width="0.4788" stroke-linecap="round" stroke-linejoin="round"/>
<path d="M34.1059 146.219C33.9039 146.548 33.7688 146.913 33.7082 147.294C33.6477 147.675 33.6629 148.065 33.753 148.44C33.8431 148.815 34.0063 149.169 34.2333 149.481C34.4603 149.793 34.7466 150.057 35.0759 150.259L37.4459 151.709L40.5159 146.709L38.1459 145.259C37.4826 144.851 36.6848 144.724 35.9274 144.904C35.1701 145.083 34.515 145.556 34.1059 146.219Z" fill="#2E353A" stroke="#2E353A" stroke-width="0.4788" stroke-linecap="round" stroke-linejoin="round"/>
<path d="M168.501 122.344L166.746 121.109C166.475 120.918 166.164 120.791 165.837 120.738C165.509 120.684 165.174 120.705 164.856 120.799C163.001 121.339 159.501 122.714 158.501 123.799C157.201 125.139 156.791 127.564 157.416 128.704C158.041 129.844 160.606 131.299 160.606 131.299L171.351 124.759L168.501 122.344Z" fill="white" stroke="#2E353A" stroke-width="0.315767" stroke-miterlimit="10"/>
<g style="mix-blend-mode:multiply" opacity="0.5">
<path d="M168.501 122.344L166.746 121.109C166.475 120.918 166.164 120.791 165.837 120.738C165.509 120.684 165.174 120.705 164.856 120.799C163.001 121.339 159.501 122.714 158.501 123.799C157.201 125.139 156.791 127.564 157.416 128.704C158.041 129.844 160.606 131.299 160.606 131.299L171.351 124.759L168.501 122.344Z" fill="#2B786C"/>
<path d="M168.501 122.344L166.746 121.109C166.475 120.918 166.164 120.791 165.837 120.738C165.509 120.684 165.174 120.705 164.856 120.799C163.001 121.339 159.501 122.714 158.501 123.799C157.201 125.139 156.791 127.564 157.416 128.704C158.041 129.844 160.606 131.299 160.606 131.299L171.351 124.759L168.501 122.344Z" stroke="#2E353A" stroke-width="0.315767" stroke-miterlimit="10"/>
</g>
<path d="M169.596 121.839L161.096 125.724C161.096 125.724 158.221 127.349 159.131 132.324L208.906 168.974C208.906 168.974 210.636 170.234 213.761 169.169C216.886 168.104 220.086 164.419 220.761 161.304C221.436 158.189 219.261 157.209 218.856 156.864C218.451 156.519 171.276 122.209 171.276 122.209C170.778 121.89 170.182 121.759 169.596 121.839Z" fill="white" stroke="#2E353A" stroke-width="0.315767" stroke-miterlimit="10"/>
<g style="mix-blend-mode:multiply" opacity="0.5">
<path d="M169.596 121.839L161.096 125.724C161.096 125.724 158.221 127.349 159.131 132.324L208.906 168.974C208.906 168.974 210.636 170.234 213.761 169.169C216.886 168.104 220.086 164.419 220.761 161.304C221.436 158.189 219.261 157.209 218.856 156.864C218.451 156.519 171.276 122.209 171.276 122.209C170.778 121.89 170.182 121.759 169.596 121.839Z" fill="#2B786C"/>
<path d="M169.596 121.839L161.096 125.724C161.096 125.724 158.221 127.349 159.131 132.324L208.906 168.974C208.906 168.974 210.636 170.234 213.761 169.169C216.886 168.104 220.086 164.419 220.761 161.304C221.436 158.189 219.261 157.209 218.856 156.864C218.451 156.519 171.276 122.209 171.276 122.209C170.778 121.89 170.182 121.759 169.596 121.839Z" stroke="#2E353A" stroke-width="0.315767" stroke-miterlimit="10"/>
</g>
<path d="M217.41 166.585C214.275 169.51 210.48 170.54 208.91 168.88C207.34 167.22 208.635 163.495 211.77 160.565C214.905 157.635 218.7 156.61 220.27 158.27C221.84 159.93 220.54 163.655 217.41 166.585Z" fill="white" stroke="#2E353A" stroke-width="0.315767" stroke-miterlimit="10"/>
<g style="mix-blend-mode:multiply">
<path d="M217.41 166.585C214.275 169.51 210.48 170.54 208.91 168.88C207.34 167.22 208.635 163.495 211.77 160.565C214.905 157.635 218.7 156.61 220.27 158.27C221.84 159.93 220.54 163.655 217.41 166.585Z" fill="#2B786C"/>
<path d="M217.41 166.585C214.275 169.51 210.48 170.54 208.91 168.88C207.34 167.22 208.635 163.495 211.77 160.565C214.905 157.635 218.7 156.61 220.27 158.27C221.84 159.93 220.54 163.655 217.41 166.585Z" stroke="#2E353A" stroke-width="0.315767" stroke-miterlimit="10"/>
</g>
<path d="M171.271 122.209C170.774 121.892 170.181 121.761 169.596 121.839L161.096 125.724C161.096 125.724 158.221 127.349 159.131 132.324L193.551 157.669C193.306 156.499 193.351 154.789 194.666 152.759C195.886 150.864 201.366 147.809 204.326 146.259C190.316 136.064 171.271 122.209 171.271 122.209Z" fill="#2E353A" stroke="#2E353A" stroke-width="0.424223" stroke-linecap="round" stroke-linejoin="round"/>
<path d="M210.765 160.474L192.585 147.299C192.313 147.102 192.095 146.84 191.951 146.537C191.807 146.233 191.742 145.898 191.761 145.563C191.781 145.228 191.884 144.903 192.062 144.618C192.24 144.334 192.487 144.098 192.78 143.934L195.595 142.399C195.926 142.22 196.3 142.138 196.675 142.162C197.05 142.186 197.41 142.315 197.715 142.534L216.935 156.454" fill="white"/>
<path d="M210.765 160.474L192.585 147.299C192.313 147.102 192.095 146.84 191.951 146.537C191.807 146.233 191.742 145.898 191.761 145.563C191.781 145.228 191.884 144.903 192.062 144.618C192.24 144.334 192.487 144.098 192.78 143.934L195.595 142.399C195.926 142.22 196.3 142.138 196.675 142.162C197.05 142.186 197.41 142.315 197.715 142.534L216.935 156.454" stroke="#2E353A" stroke-width="0.315767" stroke-miterlimit="10"/>
<g style="mix-blend-mode:multiply" opacity="0.5">
<path d="M210.765 160.474L192.585 147.299C192.313 147.102 192.095 146.84 191.951 146.537C191.807 146.233 191.742 145.898 191.761 145.563C191.781 145.228 191.884 144.903 192.062 144.618C192.24 144.334 192.487 144.098 192.78 143.934L195.595 142.399C195.926 142.22 196.3 142.138 196.675 142.162C197.05 142.186 197.41 142.315 197.715 142.534L216.935 156.454" fill="#2B786C"/>
<path d="M210.765 160.474L192.585 147.299C192.313 147.102 192.095 146.84 191.951 146.537C191.807 146.233 191.742 145.898 191.761 145.563C191.781 145.228 191.884 144.903 192.062 144.618C192.24 144.334 192.487 144.098 192.78 143.934L195.595 142.399C195.926 142.22 196.3 142.138 196.675 142.162C197.05 142.186 197.41 142.315 197.715 142.534L216.935 156.454" stroke="#2E353A" stroke-width="0.315767" stroke-miterlimit="10"/>
</g>
</svg>
