<svg width="20" height="21" viewBox="0 0 20 21" fill="none" xmlns="http://www.w3.org/2000/svg">
<g clip-path="url(#clip0_2527_17451)">
<path d="M10 12.7354C11.3807 12.7354 12.5 11.6161 12.5 10.2354C12.5 8.85464 11.3807 7.73535 10 7.73535C8.61929 7.73535 7.5 8.85464 7.5 10.2354C7.5 11.6161 8.61929 12.7354 10 12.7354Z" stroke="#627D81" stroke-width="1.5" stroke-linecap="round" stroke-linejoin="round"/>
<path d="M16.0718 13.536C16.0228 13.2657 16.0559 12.9869 16.1668 12.7355C16.2725 12.489 16.4479 12.2788 16.6714 12.1308C16.895 11.9827 17.157 11.9032 17.4252 11.9022H17.5002C17.9422 11.9022 18.3661 11.7266 18.6787 11.414C18.9912 11.1015 19.1668 10.6775 19.1668 10.2355C19.1668 9.79349 18.9912 9.36956 18.6787 9.057C18.3661 8.74444 17.9422 8.56885 17.5002 8.56885H17.3585C17.0903 8.56778 16.8283 8.48832 16.6048 8.34026C16.3812 8.19219 16.2058 7.98199 16.1002 7.73551V7.66885C15.9892 7.4175 15.9561 7.13869 16.0052 6.86836C16.0542 6.59803 16.183 6.34858 16.3752 6.15218L16.4252 6.10218C16.5801 5.94739 16.7031 5.76358 16.7869 5.56125C16.8708 5.35892 16.914 5.14204 16.914 4.92301C16.914 4.70399 16.8708 4.48711 16.7869 4.28478C16.7031 4.08245 16.5801 3.89864 16.4252 3.74385C16.2704 3.58889 16.0866 3.46596 15.8842 3.38208C15.6819 3.29821 15.465 3.25504 15.246 3.25504C15.027 3.25504 14.8101 3.29821 14.6078 3.38208C14.4054 3.46596 14.2216 3.58889 14.0668 3.74385L14.0168 3.79385C13.8204 3.98596 13.571 4.11484 13.3007 4.16385C13.0303 4.21287 12.7515 4.17978 12.5002 4.06885C12.2537 3.96321 12.0435 3.78781 11.8954 3.56424C11.7474 3.34066 11.6679 3.07867 11.6668 2.81051V2.73551C11.6668 2.29349 11.4912 1.86956 11.1787 1.557C10.8661 1.24444 10.4422 1.06885 10.0002 1.06885C9.55813 1.06885 9.13421 1.24444 8.82165 1.557C8.50909 1.86956 8.3335 2.29349 8.3335 2.73551V2.87718C8.33243 3.14534 8.25297 3.40733 8.10491 3.6309C7.95684 3.85448 7.74664 4.02988 7.50016 4.13551H7.4335C7.18215 4.24644 6.90333 4.27953 6.633 4.23052C6.36268 4.1815 6.11323 4.05263 5.91683 3.86051L5.86683 3.81051C5.71204 3.65555 5.52823 3.53262 5.3259 3.44875C5.12357 3.36487 4.90669 3.3217 4.68766 3.3217C4.46864 3.3217 4.25176 3.36487 4.04943 3.44875C3.8471 3.53262 3.66328 3.65555 3.5085 3.81051C3.35354 3.9653 3.2306 4.14912 3.14673 4.35145C3.06286 4.55378 3.01968 4.77065 3.01968 4.98968C3.01968 5.20871 3.06286 5.42558 3.14673 5.62791C3.2306 5.83024 3.35354 6.01406 3.5085 6.16885L3.5585 6.21885C3.75061 6.41525 3.87948 6.66469 3.9285 6.93502C3.97752 7.20535 3.94443 7.48417 3.8335 7.73551C3.73826 7.99446 3.56732 8.21877 3.34291 8.37927C3.1185 8.53978 2.85099 8.62906 2.57516 8.63551H2.50016C2.05814 8.63551 1.63421 8.81111 1.32165 9.12367C1.00909 9.43623 0.833496 9.86015 0.833496 10.3022C0.833496 10.7442 1.00909 11.1681 1.32165 11.4807C1.63421 11.7933 2.05814 11.9688 2.50016 11.9688H2.64183C2.90998 11.9699 3.17198 12.0494 3.39555 12.1974C3.61913 12.3455 3.79453 12.5557 3.90016 12.8022C4.01109 13.0535 4.04418 13.3323 3.99517 13.6027C3.94615 13.873 3.81728 14.1224 3.62516 14.3188L3.57516 14.3688C3.4202 14.5236 3.29727 14.7074 3.2134 14.9098C3.12952 15.1121 3.08635 15.329 3.08635 15.548C3.08635 15.767 3.12952 15.9839 3.2134 16.1862C3.29727 16.3886 3.4202 16.5724 3.57516 16.7272C3.72995 16.8821 3.91377 17.0051 4.1161 17.0889C4.31843 17.1728 4.5353 17.216 4.75433 17.216C4.97335 17.216 5.19023 17.1728 5.39256 17.0889C5.59489 17.0051 5.77871 16.8821 5.9335 16.7272L5.9835 16.6772C6.17989 16.4851 6.42934 16.3562 6.69967 16.3072C6.97 16.2582 7.24882 16.2913 7.50016 16.4022C7.75911 16.4974 7.98341 16.6684 8.14392 16.8928C8.30443 17.1172 8.39371 17.3847 8.40016 17.6605V17.7355C8.40016 18.1775 8.57576 18.6015 8.88832 18.914C9.20088 19.2266 9.6248 19.4022 10.0668 19.4022C10.5089 19.4022 10.9328 19.2266 11.2453 18.914C11.5579 18.6015 11.7335 18.1775 11.7335 17.7355V17.5938C11.7346 17.3257 11.814 17.0637 11.9621 16.8401C12.1101 16.6166 12.3204 16.4411 12.5668 16.3355C12.8182 16.2246 13.097 16.1915 13.3673 16.2405C13.6376 16.2895 13.8871 16.4184 14.0835 16.6105L14.1335 16.6605C14.2883 16.8155 14.4721 16.9384 14.6744 17.0223C14.8768 17.1062 15.0936 17.1493 15.3127 17.1493C15.5317 17.1493 15.7486 17.1062 15.9509 17.0223C16.1532 16.9384 16.337 16.8155 16.4918 16.6605C16.6468 16.5057 16.7697 16.3219 16.8536 16.1196C16.9375 15.9172 16.9806 15.7004 16.9806 15.4813C16.9806 15.2623 16.9375 15.0454 16.8536 14.8431C16.7697 14.6408 16.6468 14.457 16.4918 14.3022L16.4418 14.2522C16.2497 14.0558 16.1208 13.8063 16.0718 13.536Z" stroke="#627D81" stroke-width="1.5" stroke-linecap="round" stroke-linejoin="round"/>
</g>
<defs>
<clipPath id="clip0_2527_17451">
<rect width="20" height="20" fill="white" transform="translate(0 0.235352)"/>
</clipPath>
</defs>
</svg>
