<svg width="48" height="48" viewBox="0 0 48 48" fill="none" xmlns="http://www.w3.org/2000/svg">
<rect x="0.5" y="0.5" width="47" height="47" rx="11.5" fill="white"/>
<rect x="0.5" y="0.5" width="47" height="47" rx="11.5" stroke="#CCD4E0"/>
<path fill-rule="evenodd" clip-rule="evenodd" d="M18.0457 21.436C18.0457 20.7647 18.0462 20.1224 18.1009 19.4947C18.3578 16.7696 21.1095 14.75 23.9611 14.75H24.0387C26.8891 14.75 29.6426 16.7689 29.9087 19.4958C29.9341 19.7893 29.9346 20.0914 29.9334 20.4288L29.9332 20.4804C29.932 20.7949 29.9306 21.1422 29.956 21.4904C29.9584 21.5239 29.9631 21.5572 29.97 21.59C30.1751 22.5673 30.6354 23.4737 31.3037 24.2208C31.5711 24.631 31.7242 25.1016 31.7489 25.586V25.7776L31.7491 25.7963C31.766 26.4743 31.5354 27.1376 31.0961 27.6664C30.4764 28.308 29.6375 28.7093 28.7344 28.7915L28.7344 28.7914L28.7224 28.7927C25.5802 29.1298 22.4099 29.1298 19.2676 28.7927L19.2676 28.7927L19.2586 28.7918C18.3561 28.706 17.518 28.3056 16.8951 27.6674C16.4633 27.1375 16.2362 26.4778 16.2507 25.8032L16.2508 25.7871V25.5878C16.278 25.0998 16.4313 24.6259 16.6971 24.2105C17.3671 23.4681 17.8275 22.564 18.0301 21.5884C18.0405 21.5383 18.0457 21.4872 18.0457 21.436ZM23.9611 13.25C20.5459 13.25 16.9532 15.6661 16.6072 19.357L16.6072 19.357L16.6068 19.3618C16.5477 20.0378 16.5458 20.7179 16.5457 21.3557C16.387 22.0562 16.045 22.7061 15.5513 23.2408C15.5246 23.2698 15.5001 23.3009 15.4782 23.3337C15.0419 23.9886 14.7906 24.7471 14.7517 25.531C14.7511 25.5434 14.7508 25.5557 14.7508 25.5681V25.7794C14.7304 26.8239 15.0884 27.8399 15.7582 28.6465C15.7698 28.6605 15.782 28.6741 15.7946 28.6873C16.6698 29.5973 17.8485 30.1634 19.1119 30.2846C19.4909 30.3252 19.8703 30.3611 20.25 30.3922V30.4132C20.25 32.3561 22.0368 33.75 24 33.75C25.9634 33.75 27.75 32.356 27.75 30.4121V30.3914C28.1259 30.3605 28.5014 30.325 28.8766 30.2848C30.1428 30.1681 31.3245 29.6004 32.1975 28.685C32.208 28.674 32.2182 28.6627 32.228 28.6511C32.9091 27.844 33.2727 26.8207 33.2489 25.7687V25.5681C33.2489 25.5569 33.2486 25.5456 33.2481 25.5344C33.2128 24.7497 32.96 23.9905 32.5183 23.3385C32.498 23.3086 32.4756 23.2801 32.4512 23.2534C31.9521 22.7068 31.6073 22.0442 31.4486 21.3307C31.4311 21.0575 31.4321 20.7778 31.4333 20.4672L31.4334 20.4342C31.4346 20.1017 31.4351 19.7337 31.4027 19.3618L31.4027 19.3618L31.402 19.3548C31.0451 15.6662 27.4546 13.25 24.0387 13.25H23.9611ZM26.2478 30.4901C24.7502 30.5638 23.2498 30.564 21.7521 30.4906C21.8011 31.3783 22.6872 32.25 24 32.25C25.3123 32.25 26.1985 31.3788 26.2478 30.4901Z" fill="#66768E"/>
</svg>
