<svg width="24" height="25" viewBox="0 0 24 25" fill="none" xmlns="http://www.w3.org/2000/svg">
<path fill-rule="evenodd" clip-rule="evenodd" d="M6.75 7.4043C6.75 5.60146 8.19716 4.1543 10 4.1543C11.8 4.1543 13.2486 5.61361 13.25 7.40162C13.2361 9.15719 11.8741 10.573 10.1749 10.6524C10.0559 10.6395 9.93186 10.6394 9.81277 10.6521C8.10411 10.5594 6.75 9.15064 6.75 7.4043ZM10 2.6543C7.36873 2.6543 5.25 4.77303 5.25 7.4043C5.25 9.97887 7.27527 12.0617 9.8178 12.1538C9.86816 12.1556 9.91856 12.1524 9.96826 12.1441L9.96843 12.1441L9.96878 12.144L9.97031 12.1438L9.97579 12.1433C9.98049 12.1429 9.98611 12.1427 9.99225 12.1427C9.99838 12.1427 10.004 12.1429 10.0087 12.1433L10.0142 12.1438L10.0157 12.144L10.0162 12.1441L10.0162 12.1441C10.0641 12.1521 10.1127 12.1554 10.1613 12.154C12.7138 12.08 14.7317 9.97429 14.75 7.40965H14.75V7.4043C14.75 4.79043 12.6332 2.6543 10 2.6543ZM15 2.6543C14.5858 2.6543 14.25 2.99008 14.25 3.4043C14.25 3.81851 14.5858 4.1543 15 4.1543C16.8001 4.1543 18.2486 5.61361 18.25 7.40162C18.2361 9.15719 16.8741 10.573 15.1749 10.6524C15.0252 10.6362 14.8674 10.6402 14.7217 10.6645C14.3131 10.7326 14.0371 11.119 14.1052 11.5276C14.1733 11.9362 14.5597 12.2122 14.9683 12.1441L14.9686 12.144L14.9688 12.144L14.9703 12.1438L14.9758 12.1433C14.9805 12.1429 14.9861 12.1427 14.9923 12.1427C14.9984 12.1427 15.004 12.1429 15.0087 12.1433L15.0142 12.1438L15.0157 12.144C15.0161 12.1441 15.0163 12.1441 15.0162 12.1441C15.0642 12.1521 15.1127 12.1554 15.1613 12.154C17.7138 12.08 19.7317 9.97429 19.75 7.40965L19.75 7.40965V7.4043C19.75 4.79043 17.6332 2.6543 15 2.6543ZM10.0057 13.6543C11.7047 13.6543 13.4452 14.0452 14.7937 14.8746C16.0083 15.6216 16.75 16.6976 16.75 17.8991C16.75 19.1004 16.0084 20.1763 14.7941 20.9233C13.439 21.7592 11.6988 22.1543 10 22.1543C8.30105 22.1543 6.56067 21.7591 5.20545 20.923C3.99138 20.176 3.25 19.1002 3.25 17.8991C3.25 16.6976 3.99174 15.6216 5.20634 14.8746L5.20813 14.8735C6.56314 14.0453 8.30643 13.6543 10.0057 13.6543ZM5.99126 16.1528C5.07421 16.7171 4.75 17.3707 4.75 17.8991C4.75 18.4276 5.07442 19.0815 5.99215 19.6459L5.99304 19.6464C7.05748 20.3031 8.50803 20.6543 10 20.6543C11.492 20.6543 12.9425 20.3031 14.007 19.6464L14.0079 19.6459C14.9256 19.0815 15.25 18.4276 15.25 17.8991C15.25 17.3706 14.9256 16.7167 14.0079 16.1523C12.9518 15.5028 11.5014 15.1543 10.0057 15.1543C8.51063 15.1543 7.05583 15.5025 5.99126 16.1528ZM19.3929 14.8746C19.0401 14.6576 18.5781 14.7677 18.3612 15.1205C18.1442 15.4734 18.2543 15.9353 18.6071 16.1523C19.5248 16.7167 19.8492 17.3706 19.8492 17.8991C19.8492 18.4276 19.5248 19.0815 18.6071 19.6459C18.2543 19.8629 18.1442 20.3248 18.3612 20.6776C18.5781 21.0305 19.0401 21.1406 19.3929 20.9236C20.6075 20.1766 21.3492 19.1005 21.3492 17.8991C21.3492 16.6976 20.6075 15.6216 19.3929 14.8746Z" fill="#E2E8E9"/>
</svg>
