<svg width="102" height="12" viewBox="0 0 102 12" fill="none" xmlns="http://www.w3.org/2000/svg">
<path d="M8.30769 11L7.58308 8.62109H3.93953L3.21492 11H0.931717L4.45906 0.964844H7.04988L10.5909 11H8.30769ZM7.07722 6.84375L6.35262 4.51953C6.30704 4.36458 6.24552 4.16634 6.16805 3.9248C6.09513 3.67871 6.01993 3.43034 5.94246 3.17969C5.86954 2.92448 5.8103 2.70345 5.76472 2.5166C5.71915 2.70345 5.65535 2.93587 5.57332 3.21387C5.49584 3.4873 5.42065 3.74707 5.34773 3.99316C5.27482 4.23926 5.22241 4.41471 5.19051 4.51953L4.47273 6.84375H7.07722ZM19.995 8.22461C19.995 8.81706 19.8514 9.33203 19.5643 9.76953C19.2772 10.207 18.8579 10.5443 18.3065 10.7812C17.7596 11.0182 17.0942 11.1367 16.3104 11.1367C15.964 11.1367 15.6245 11.1139 15.2918 11.0684C14.9637 11.0228 14.647 10.9567 14.3416 10.8701C14.0409 10.779 13.7537 10.6673 13.4803 10.5352V8.56641C13.9543 8.77604 14.4465 8.96517 14.9569 9.13379C15.4673 9.30241 15.9731 9.38672 16.4745 9.38672C16.8208 9.38672 17.0988 9.34115 17.3084 9.25C17.5226 9.15885 17.6776 9.03353 17.7733 8.87402C17.869 8.71452 17.9168 8.53223 17.9168 8.32715C17.9168 8.0765 17.8325 7.8623 17.6639 7.68457C17.4953 7.50684 17.2629 7.34049 16.9666 7.18555C16.675 7.0306 16.3446 6.86426 15.9754 6.68652C15.743 6.57715 15.4901 6.44499 15.2166 6.29004C14.9432 6.13053 14.6834 5.93685 14.4373 5.70898C14.1912 5.48112 13.9884 5.2054 13.8289 4.88184C13.674 4.55371 13.5965 4.16178 13.5965 3.70605C13.5965 3.10905 13.7332 2.59863 14.0067 2.1748C14.2801 1.75098 14.6698 1.42741 15.1756 1.2041C15.686 0.976237 16.2876 0.862305 16.9803 0.862305C17.4998 0.862305 17.9943 0.923828 18.4637 1.04688C18.9377 1.16536 19.4321 1.33854 19.9471 1.56641L19.2635 3.21387C18.8032 3.02702 18.3908 2.88346 18.0262 2.7832C17.6616 2.67839 17.2902 2.62598 16.912 2.62598C16.6476 2.62598 16.422 2.66927 16.2352 2.75586C16.0483 2.83789 15.9071 2.95638 15.8114 3.11133C15.7157 3.26172 15.6678 3.43717 15.6678 3.6377C15.6678 3.87467 15.7362 4.0752 15.8729 4.23926C16.0142 4.39876 16.2238 4.55371 16.5018 4.7041C16.7843 4.85449 17.1353 5.02995 17.5545 5.23047C18.0649 5.47201 18.5002 5.72493 18.8602 5.98926C19.2248 6.24902 19.5051 6.55664 19.701 6.91211C19.897 7.26302 19.995 7.70052 19.995 8.22461ZM35.8226 8.22461C35.8226 8.81706 35.6791 9.33203 35.392 9.76953C35.1048 10.207 34.6856 10.5443 34.1341 10.7812C33.5873 11.0182 32.9219 11.1367 32.138 11.1367C31.7917 11.1367 31.4522 11.1139 31.1195 11.0684C30.7914 11.0228 30.4746 10.9567 30.1693 10.8701C29.8685 10.779 29.5814 10.6673 29.308 10.5352V8.56641C29.7819 8.77604 30.2741 8.96517 30.7845 9.13379C31.2949 9.30241 31.8008 9.38672 32.3021 9.38672C32.6485 9.38672 32.9265 9.34115 33.1361 9.25C33.3503 9.15885 33.5052 9.03353 33.6009 8.87402C33.6966 8.71452 33.7445 8.53223 33.7445 8.32715C33.7445 8.0765 33.6602 7.8623 33.4916 7.68457C33.3229 7.50684 33.0905 7.34049 32.7943 7.18555C32.5026 7.0306 32.1722 6.86426 31.8031 6.68652C31.5707 6.57715 31.3177 6.44499 31.0443 6.29004C30.7709 6.13053 30.5111 5.93685 30.265 5.70898C30.0189 5.48112 29.8161 5.2054 29.6566 4.88184C29.5017 4.55371 29.4242 4.16178 29.4242 3.70605C29.4242 3.10905 29.5609 2.59863 29.8343 2.1748C30.1078 1.75098 30.4974 1.42741 31.0033 1.2041C31.5137 0.976237 32.1153 0.862305 32.808 0.862305C33.3275 0.862305 33.822 0.923828 34.2914 1.04688C34.7653 1.16536 35.2598 1.33854 35.7748 1.56641L35.0912 3.21387C34.6309 3.02702 34.2184 2.88346 33.8539 2.7832C33.4893 2.67839 33.1179 2.62598 32.7396 2.62598C32.4753 2.62598 32.2497 2.66927 32.0628 2.75586C31.876 2.83789 31.7347 2.95638 31.639 3.11133C31.5433 3.26172 31.4955 3.43717 31.4955 3.6377C31.4955 3.87467 31.5638 4.0752 31.7005 4.23926C31.8418 4.39876 32.0515 4.55371 32.3295 4.7041C32.612 4.85449 32.9629 5.02995 33.3822 5.23047C33.8926 5.47201 34.3278 5.72493 34.6878 5.98926C35.0524 6.24902 35.3327 6.55664 35.5287 6.91211C35.7246 7.26302 35.8226 7.70052 35.8226 8.22461ZM45.63 11H39.8741V1.00586H45.63V2.74219H41.9933V4.93652H45.3771V6.67285H41.9933V9.25H45.63V11ZM55.7177 11H49.9618V1.00586H55.7177V2.74219H52.0809V4.93652H55.4647V6.67285H52.0809V9.25H55.7177V11ZM68.9157 11H66.2223L61.8746 3.43945H61.8131C61.8314 3.75391 61.8473 4.07064 61.861 4.38965C61.8746 4.70866 61.8883 5.02767 61.902 5.34668C61.9157 5.66113 61.9293 5.97786 61.943 6.29688V11H60.0494V1.00586H62.7223L67.0631 8.49121H67.111C67.1019 8.18132 67.0905 7.8737 67.0768 7.56836C67.0631 7.26302 67.0494 6.95768 67.0358 6.65234C67.0267 6.34701 67.0175 6.04167 67.0084 5.73633V1.00586H68.9157V11ZM88.6261 5.98926C88.6261 6.75944 88.5304 7.46126 88.339 8.09473C88.1476 8.72363 87.8559 9.26595 87.464 9.72168C87.0766 10.1774 86.5845 10.5283 85.9875 10.7744C85.3905 11.016 84.6841 11.1367 83.8683 11.1367C83.0526 11.1367 82.3462 11.016 81.7492 10.7744C81.1522 10.5283 80.6577 10.1774 80.2658 9.72168C79.8784 9.26595 79.589 8.72135 79.3976 8.08789C79.2062 7.45443 79.1105 6.75033 79.1105 5.97559C79.1105 4.94108 79.2791 4.04102 79.6164 3.27539C79.9582 2.50521 80.4822 1.9082 81.1886 1.48438C81.895 1.06055 82.7928 0.848633 83.882 0.848633C84.9666 0.848633 85.8576 1.06055 86.5548 1.48438C87.2567 1.9082 87.7762 2.50521 88.1134 3.27539C88.4552 4.04557 88.6261 4.9502 88.6261 5.98926ZM81.3322 5.98926C81.3322 6.68652 81.4188 7.28809 81.5919 7.79395C81.7697 8.29525 82.0454 8.68262 82.4191 8.95605C82.7928 9.22493 83.2759 9.35938 83.8683 9.35938C84.4699 9.35938 84.9575 9.22493 85.3312 8.95605C85.7049 8.68262 85.9761 8.29525 86.1447 7.79395C86.3179 7.28809 86.4044 6.68652 86.4044 5.98926C86.4044 4.94108 86.2085 4.11621 85.8166 3.51465C85.4246 2.91309 84.7798 2.6123 83.882 2.6123C83.285 2.6123 82.7974 2.74902 82.4191 3.02246C82.0454 3.29134 81.7697 3.67871 81.5919 4.18457C81.4188 4.68587 81.3322 5.28743 81.3322 5.98926ZM101.804 11H99.1103L94.7626 3.43945H94.7011C94.7193 3.75391 94.7353 4.07064 94.7489 4.38965C94.7626 4.70866 94.7763 5.02767 94.79 5.34668C94.8036 5.66113 94.8173 5.97786 94.831 6.29688V11H92.9374V1.00586H95.6103L99.9511 8.49121H99.9989C99.9898 8.18132 99.9784 7.8737 99.9648 7.56836C99.9511 7.26302 99.9374 6.95768 99.9238 6.65234C99.9146 6.34701 99.9055 6.04167 99.8964 5.73633V1.00586H101.804V11Z" fill="white"/>
</svg>
