<svg width="400" height="400" viewBox="0 0 400 400" fill="none" xmlns="http://www.w3.org/2000/svg">
<path d="M246.568 59.784C246.568 59.784 156.312 55.424 82.856 105.472C9.40001 155.52 46.728 330.744 71.824 341.808C96.92 352.872 193.424 372.056 267.864 339.488C342.304 306.92 366.776 189.016 356.048 155.152C345.32 121.288 324.504 69.408 246.568 59.784Z" fill="#2B786C"/>
<path opacity="0.7" d="M246.568 59.784C246.568 59.784 156.312 55.424 82.856 105.472C9.40001 155.52 46.728 330.744 71.824 341.808C96.92 352.872 193.424 372.056 267.864 339.488C342.304 306.92 366.776 189.016 356.048 155.152C345.32 121.288 324.504 69.408 246.568 59.784Z" fill="white"/>
<path d="M106.04 247.248C106.047 247.236 106.05 247.222 106.051 247.208C106.051 247.194 106.049 247.18 106.044 247.167C106.038 247.154 106.03 247.142 106.02 247.133C106.01 247.123 105.997 247.116 105.984 247.112C105.971 247.107 105.958 247.104 105.944 247.104C105.931 247.104 105.917 247.107 105.904 247.112C105.892 247.117 105.88 247.125 105.871 247.134C105.861 247.144 105.853 247.155 105.848 247.168C102.805 254.446 100.396 261.972 98.648 269.664C96.894 277.357 95.5746 285.143 94.696 292.984L94.128 298.88C94.048 299.856 93.936 300.84 93.864 301.824L93.704 304.784C93.624 306.76 93.504 308.728 93.448 310.704L93.496 316.624L93.56 319.584C93.608 320.576 93.68 321.56 93.744 322.544C93.896 324.512 94.016 326.48 94.192 328.448C94.576 332.376 95.16 336.28 95.792 340.168C95.7972 340.192 95.8103 340.214 95.8291 340.23C95.8479 340.246 95.8714 340.255 95.896 340.256C95.9236 340.256 95.95 340.245 95.9695 340.226C95.989 340.206 96 340.18 96 340.152C96 338.176 95.904 336.216 95.864 334.248C95.824 332.28 95.632 330.336 95.664 328.368C95.696 326.4 95.664 324.448 95.6 322.488L95.544 319.552L95.6 316.616V310.744L95.76 304.88L95.816 301.944C95.816 300.968 95.928 299.992 95.984 299.016L96.344 293.152C97.0147 285.341 98.1231 277.574 99.664 269.888C101.134 262.172 103.267 254.597 106.04 247.248Z" fill="#ABABAB"/>
<path d="M106.88 277.944C106.888 277.918 106.885 277.891 106.874 277.867C106.862 277.843 106.841 277.825 106.816 277.816C106.803 277.811 106.79 277.809 106.776 277.809C106.763 277.81 106.75 277.813 106.738 277.819C106.726 277.825 106.715 277.834 106.706 277.844C106.698 277.855 106.692 277.867 106.688 277.88C105.021 282.773 103.624 287.754 102.504 292.8C101.398 297.86 100.576 302.977 100.04 308.128C99.52 313.264 98.944 318.4 98.872 323.568C98.7442 328.737 98.9286 333.909 99.424 339.056C99.4268 339.079 99.4368 339.101 99.4526 339.118C99.4684 339.135 99.4892 339.147 99.512 339.152C99.5405 339.154 99.5688 339.146 99.5911 339.128C99.6134 339.11 99.628 339.084 99.632 339.056C100.224 333.912 100.592 328.784 100.944 323.656C101.296 318.528 101.36 313.392 101.696 308.264C102.019 303.146 102.631 298.05 103.528 293C104.365 287.923 105.484 282.897 106.88 277.944Z" fill="#ABABAB"/>
<path d="M123.896 288.744C123.877 288.725 123.851 288.715 123.824 288.715C123.797 288.715 123.771 288.725 123.752 288.744C119.497 291.478 115.664 294.82 112.376 298.664C110.723 300.598 109.236 302.666 107.928 304.848L107.016 306.576L106.296 308.368C106.056 308.962 105.848 309.568 105.672 310.184C105.488 310.792 105.288 311.4 105.12 312.016C103.814 316.925 103.025 321.958 102.768 327.032C102.514 332.076 102.702 337.133 103.328 342.144C103.332 342.167 103.343 342.189 103.361 342.205C103.378 342.221 103.4 342.23 103.424 342.232C103.438 342.234 103.452 342.234 103.466 342.23C103.479 342.226 103.492 342.219 103.502 342.21C103.513 342.201 103.522 342.19 103.528 342.177C103.533 342.164 103.536 342.15 103.536 342.136L104.832 327.176C105.352 322.224 105.672 317.248 106.728 312.416C106.864 311.816 107.04 311.232 107.192 310.632C107.333 310.036 107.506 309.448 107.712 308.872L108.32 307.136L109.12 305.536C110.303 303.363 111.668 301.295 113.2 299.352C116.234 295.383 119.832 291.879 123.88 288.952C123.894 288.953 123.907 288.951 123.92 288.947C123.933 288.943 123.945 288.936 123.956 288.927C123.966 288.918 123.975 288.907 123.981 288.895C123.987 288.883 123.991 288.87 123.992 288.856C123.993 288.842 123.991 288.829 123.987 288.816C123.983 288.803 123.976 288.79 123.967 288.78C123.958 288.77 123.947 288.761 123.935 288.755C123.923 288.749 123.91 288.745 123.896 288.744Z" fill="#ABABAB"/>
<path d="M115.664 308C113.344 309.496 111.792 311.848 110.488 314.216C109.243 316.642 108.272 319.199 107.592 321.84C107.384 322.488 107.224 323.152 107.08 323.816L106.616 325.808C106.366 327.13 106.198 328.466 106.112 329.808C106.112 331.168 106.056 332.52 106.112 333.872C106.216 335.214 106.395 336.55 106.648 337.872C106.652 337.893 106.661 337.912 106.675 337.927C106.689 337.943 106.708 337.954 106.728 337.96C106.742 337.963 106.757 337.964 106.771 337.961C106.786 337.959 106.799 337.953 106.812 337.945C106.824 337.936 106.834 337.926 106.841 337.913C106.849 337.9 106.854 337.886 106.856 337.872C107.169 336.553 107.41 335.217 107.576 333.872C107.784 332.552 107.984 331.248 108.144 329.936C108.304 328.624 108.512 327.328 108.608 326.016C108.704 324.704 108.888 323.392 109.176 322.112C109.632 319.52 110.375 316.987 111.392 314.56C112.31 312.086 113.798 309.863 115.736 308.072C115.751 308.052 115.759 308.028 115.759 308.004C115.759 307.979 115.751 307.955 115.736 307.936C115.72 307.94 115.704 307.948 115.692 307.959C115.679 307.97 115.67 307.984 115.664 308Z" fill="#ABABAB"/>
<path d="M91.8 322.96C91.24 316.312 90.144 309.736 89.104 303.168C88.064 296.6 86.92 290.032 85.72 283.496C84.52 276.96 83.2 270.4 81.768 263.936C81.7606 263.911 81.7445 263.889 81.7226 263.874C81.7006 263.859 81.6742 263.853 81.648 263.856C81.6343 263.858 81.6211 263.863 81.6092 263.87C81.5973 263.877 81.5869 263.886 81.5787 263.897C81.5705 263.909 81.5646 263.921 81.5614 263.935C81.5582 263.948 81.5577 263.962 81.56 263.976C82.696 270.528 83.728 277.096 84.696 283.664C85.664 290.232 86.632 296.808 87.464 303.4C88.296 309.992 88.912 316.6 89.736 323.176L92.136 342.952C92.138 342.976 92.149 342.998 92.1668 343.015C92.1846 343.031 92.2079 343.04 92.232 343.04C92.2457 343.041 92.2594 343.039 92.2724 343.035C92.2855 343.031 92.2976 343.024 92.308 343.015C92.3184 343.006 92.3269 342.995 92.3331 342.983C92.3393 342.971 92.343 342.958 92.344 342.944C92.416 341.28 92.416 339.608 92.456 337.944C92.496 336.28 92.392 334.608 92.36 332.944C92.336 329.6 92.048 326.28 91.8 322.96Z" fill="#ABABAB"/>
<path d="M87.816 322.864C87.456 320.232 87.016 317.616 86.472 315.008L85.544 311.128C85.232 309.832 84.944 308.536 84.568 307.264C83.2413 302.113 81.5436 297.065 79.488 292.16L78.688 290.328L77.8 288.544C77.24 287.336 76.56 286.192 75.912 285.024C74.6045 282.701 72.99 280.564 71.112 278.672C71.1031 278.663 71.0925 278.656 71.0808 278.651C71.0691 278.646 71.0566 278.644 71.044 278.644C71.0313 278.644 71.0188 278.646 71.0072 278.651C70.9955 278.656 70.9849 278.663 70.976 278.672C70.9574 278.691 70.947 278.717 70.947 278.744C70.947 278.771 70.9574 278.797 70.976 278.816C72.7223 280.775 74.1968 282.96 75.36 285.312C75.936 286.496 76.544 287.656 77.04 288.88L77.84 290.688L78.528 292.528C80.3687 297.451 81.8473 302.502 82.952 307.64C83.56 310.2 83.96 312.8 84.456 315.376L85.08 319.272C85.304 320.568 85.584 321.856 85.76 323.16C86.176 325.752 86.656 328.344 87.112 330.944C87.568 333.544 87.992 336.152 88.536 338.752C88.5412 338.776 88.5543 338.798 88.5731 338.814C88.5919 338.829 88.6154 338.839 88.64 338.84C88.6676 338.84 88.694 338.829 88.7135 338.809C88.733 338.79 88.744 338.763 88.744 338.736C88.744 336.08 88.696 333.424 88.56 330.776C88.424 328.128 88.088 325.504 87.816 322.864Z" fill="#ABABAB"/>
<path d="M82.3199 323.2C81.0879 319.712 79.6639 316.304 78.1119 312.96C76.5394 309.621 74.7655 306.38 72.7999 303.256C72.7804 303.241 72.7565 303.233 72.7319 303.233C72.7073 303.233 72.6834 303.241 72.6639 303.256C72.647 303.276 72.6377 303.302 72.6377 303.328C72.6377 303.354 72.647 303.38 72.6639 303.4C74.3698 306.64 75.8792 309.979 77.1839 313.4C78.5279 316.8 79.7439 320.248 80.7679 323.752C81.7919 327.256 82.5439 330.816 83.4799 334.328C84.4159 337.84 85.2479 341.392 86.3279 344.944C86.3346 344.966 86.3483 344.986 86.367 345.001C86.3856 345.015 86.4084 345.023 86.4319 345.024C86.4595 345.024 86.4859 345.013 86.5054 344.993C86.5249 344.974 86.5359 344.948 86.5359 344.92C86.5772 341.211 86.2314 337.509 85.5039 333.872C84.73 330.235 83.6652 326.666 82.3199 323.2Z" fill="#ABABAB"/>
<path d="M82.088 334.808C81.4188 332.639 80.4465 330.576 79.2 328.68C78.0224 326.736 76.5911 324.958 74.944 323.392C74.1009 322.635 73.1934 321.952 72.232 321.352C71.2734 320.744 70.2263 320.288 69.128 320C69.1046 319.992 69.0791 319.994 69.0568 320.004C69.0345 320.014 69.017 320.033 69.008 320.056C69.0015 320.068 68.9978 320.082 68.9972 320.096C68.9965 320.11 68.999 320.124 69.0043 320.137C69.0096 320.15 69.0178 320.162 69.0281 320.171C69.0384 320.181 69.0507 320.188 69.064 320.192C71.0247 321.135 72.762 322.485 74.16 324.152C75.5774 325.775 76.772 327.581 77.712 329.52C78.72 331.432 79.24 333.52 80.112 335.504C80.504 336.512 80.912 337.528 81.336 338.536C81.7121 339.586 82.1585 340.61 82.672 341.6C82.6797 341.617 82.6921 341.631 82.7077 341.641C82.7234 341.651 82.7415 341.656 82.76 341.656C82.7739 341.658 82.7881 341.658 82.8017 341.654C82.8152 341.65 82.8278 341.643 82.8385 341.634C82.8492 341.625 82.8577 341.614 82.8635 341.601C82.8693 341.588 82.8722 341.574 82.872 341.56C82.9096 340.425 82.8668 339.289 82.744 338.16C82.592 337.024 82.352 335.912 82.088 334.808Z" fill="#ABABAB"/>
<path d="M82.4958 273.448C82.4958 273.448 71.6158 270.936 69.1038 259.208C66.5918 247.48 74.7038 252.512 67.4238 234.088C60.1438 215.664 61.8238 211.48 64.3598 206.176C66.8958 200.872 68.2638 202.552 70.4958 209.528C72.7278 216.504 80.8238 227.392 83.8958 247.768C86.9678 268.144 82.4958 273.448 82.4958 273.448Z" fill="#2B786C"/>
<path d="M104 253.6C104 253.6 96.7438 251.088 96.4638 237.408C96.1838 223.728 101.768 226.52 102.608 209.496C103.448 192.472 104.56 180.464 107.632 180.184C110.704 179.904 118.792 188.56 121.584 207.544C124.376 226.528 117.96 239.08 112.376 244.664C106.792 250.248 104 253.6 104 253.6Z" fill="#2B786C"/>
<path d="M78.5919 289.912C78.5919 289.912 76.9199 279.864 73.5999 275.12C70.2799 270.376 62.9599 266.192 58.2159 256.976C53.4719 247.76 48.1679 243.304 48.4479 256.416C48.7279 269.528 54.5839 276.24 61.8479 280.704C69.1119 285.168 78.5919 289.912 78.5919 289.912Z" fill="#2B786C"/>
<path d="M75.5199 307.2C75.5199 307.2 68.7999 294.4 59.0559 284.888C49.3119 275.376 41.4559 270.656 44.2639 275.4C47.0719 280.144 50.3999 279.864 55.1439 288.24C59.8879 296.616 58.4959 302.752 65.1919 307.496C71.8879 312.24 75.5199 307.2 75.5199 307.2Z" fill="#2B786C"/>
<path d="M74.6879 323.688C74.4079 322.848 74.1279 316.712 64.6399 311.688C55.1519 306.664 46.2399 308.616 47.3279 311.128C48.4159 313.64 54.3119 317.824 60.1279 320.336C65.9439 322.848 74.6879 323.688 74.6879 323.688Z" fill="#2B786C"/>
<path d="M103.432 290.472C103.432 290.472 99.248 285.168 101.48 274.008C103.712 262.848 108.736 265.632 114.32 259.768C119.904 253.904 118.784 253.072 124.368 246.968C129.952 240.864 134.976 237.48 137.168 239.992C139.36 242.504 136.048 250.32 132.704 254.784C129.36 259.248 124.048 261.488 121.504 267.064C118.96 272.64 120.112 281.584 113.688 285.768C107.264 289.952 103.432 290.472 103.432 290.472Z" fill="#2B786C"/>
<path d="M117.392 293.544C117.392 293.544 127.44 282.096 134.696 273.728C141.952 265.36 144.744 258.936 145.024 264.512C145.304 270.088 147.536 274.56 141.672 281.824C135.808 289.088 117.392 293.544 117.392 293.544Z" fill="#2B786C"/>
<path d="M112.088 312C112.088 312 111.808 307.528 127.72 297.2C143.632 286.872 150.328 284.92 148.648 289.112C146.968 293.304 140 297.448 132.464 304.984C124.928 312.52 112.088 312 112.088 312Z" fill="#2B786C"/>
<path d="M83.1999 272.256C83.1999 272.256 79.4719 252.256 75.5599 238C71.6479 223.744 69.1599 215.112 69.1599 215.112" stroke="#ABABAB" stroke-linecap="round" stroke-linejoin="round"/>
<path d="M103.352 253.84C103.352 253.84 110.136 232.136 112.368 219.016C114.6 205.896 112.088 196.128 110.968 190.272" stroke="#ABABAB" stroke-linecap="round" stroke-linejoin="round"/>
<path d="M77.712 289.496C74.7063 284.326 71.2644 279.423 67.424 274.84C61.288 267.584 56.544 263.68 53.752 256.696" stroke="#ABABAB" stroke-linecap="round" stroke-linejoin="round"/>
<path d="M103.432 290.472C103.432 290.472 105.664 277.072 110.968 270.096C116.272 263.12 126.88 252.232 131.064 245.256" stroke="#ABABAB" stroke-linecap="round" stroke-linejoin="round"/>
<path d="M74.0318 323.384C74.0318 323.384 64.6398 317.272 57.9358 313.92" stroke="#ABABAB" stroke-linecap="round" stroke-linejoin="round"/>
<path d="M101.344 382.584H89.0559C87.9923 382.584 86.9524 382.27 86.0669 381.681C85.1815 381.091 84.4902 380.253 84.0799 379.272C80.0799 369.672 69.3439 341.888 75.7999 334.016C81.9519 326.512 108.448 326.512 114.6 334.016C121.056 341.888 110.336 369.656 106.32 379.272C105.91 380.253 105.218 381.091 104.333 381.681C103.447 382.27 102.408 382.584 101.344 382.584Z" fill="#ABABAB"/>
<path d="M261.272 44.8V293.984C261.275 295.613 260.957 297.227 260.336 298.734C259.714 300.24 258.802 301.609 257.651 302.762C256.5 303.915 255.133 304.83 253.628 305.454C252.123 306.079 250.509 306.4 248.88 306.4H141.208C139.577 306.403 137.962 306.084 136.454 305.461C134.947 304.838 133.577 303.924 132.424 302.77C131.271 301.616 130.358 300.246 129.736 298.738C129.114 297.231 128.796 295.615 128.8 293.984V44.8C128.798 43.1714 129.117 41.5584 129.74 40.0534C130.362 38.5485 131.276 37.1812 132.428 36.03C133.58 34.8788 134.948 33.9662 136.453 33.3447C137.958 32.7231 139.571 32.4048 141.2 32.408H187.416V32.544C188.568 36.696 191.224 39.392 194.16 39.392H195.848C198.792 39.392 201.448 36.696 202.592 32.544L202.64 32.408H248.88C250.507 32.408 252.119 32.7285 253.622 33.3513C255.126 33.974 256.492 34.8868 257.643 36.0375C258.793 37.1882 259.706 38.5543 260.329 40.0578C260.952 41.5612 261.272 43.1726 261.272 44.8Z" fill="white" stroke="#263238" stroke-linecap="round" stroke-linejoin="round"/>
<path d="M261.264 56.384V44.8C261.265 43.173 260.946 41.5618 260.324 40.0584C259.702 38.555 258.79 37.1888 257.64 36.038C256.49 34.8872 255.124 33.9743 253.621 33.3514C252.118 32.7286 250.507 32.408 248.88 32.408H202.68L202.632 32.544C201.48 36.696 198.832 39.392 195.888 39.392H194.2C191.264 39.392 188.6 36.696 187.456 32.544V32.408H141.2C139.571 32.4048 137.958 32.7231 136.453 33.3447C134.948 33.9662 133.58 34.8788 132.428 36.03C131.276 37.1812 130.362 38.5485 129.74 40.0534C129.117 41.5584 128.798 43.1714 128.8 44.8V56.4L261.264 56.384Z" fill="#DBDBDB" stroke="#263238" stroke-linecap="round" stroke-linejoin="round"/>
<path d="M128.8 292.04V293.984C128.796 295.615 129.114 297.231 129.736 298.738C130.358 300.246 131.271 301.616 132.424 302.77C133.577 303.924 134.947 304.838 136.454 305.461C137.962 306.084 139.577 306.403 141.208 306.4H248.88C252.165 306.4 255.314 305.095 257.637 302.773C259.959 300.45 261.264 297.3 261.264 294.016V292.072L128.8 292.04Z" fill="#DBDBDB" stroke="#263238" stroke-linecap="round" stroke-linejoin="round"/>
<path d="M269.688 104.312V79.416H267.44V47.552C267.44 42.3431 265.371 37.3476 261.688 33.6644C258.004 29.9812 253.009 27.912 247.8 27.912H142.296C137.087 27.912 132.092 29.9812 128.408 33.6644C124.725 37.3476 122.656 42.3431 122.656 47.552V300.8C122.656 303.379 123.164 305.933 124.151 308.316C125.138 310.699 126.585 312.864 128.408 314.688C130.232 316.511 132.397 317.958 134.78 318.945C137.163 319.932 139.717 320.44 142.296 320.44H247.8C250.379 320.44 252.933 319.932 255.316 318.945C257.699 317.958 259.864 316.511 261.688 314.688C263.511 312.864 264.958 310.699 265.945 308.316C266.932 305.933 267.44 303.379 267.44 300.8V125.6H269.688V110.816H267.44V104.312H269.688ZM261.272 286.712C261.277 289.298 260.772 291.859 259.786 294.249C258.799 296.639 257.35 298.811 255.523 300.64C253.695 302.469 251.525 303.919 249.136 304.907C246.746 305.896 244.186 306.403 241.6 306.4H148.464C145.88 306.403 143.321 305.896 140.933 304.909C138.546 303.921 136.376 302.472 134.55 300.645C132.723 298.817 131.275 296.647 130.288 294.259C129.301 291.871 128.796 289.312 128.8 286.728V52.04C128.802 46.8325 130.872 41.8391 134.555 38.1576C138.238 34.4761 143.233 32.408 148.44 32.408H187.392V32.544C188.544 36.696 191.2 39.392 194.136 39.392H195.824C198.768 39.392 201.424 36.696 202.568 32.544L202.616 32.408H241.6C244.179 32.4069 246.733 32.9139 249.117 33.8999C251.5 34.886 253.665 36.3318 255.49 38.1548C257.314 39.9778 258.762 42.1423 259.75 44.5247C260.738 46.9071 261.247 49.4608 261.248 52.04L261.272 286.712Z" fill="#2B786C" stroke="#263238" stroke-linecap="round" stroke-linejoin="round"/>
<path d="M246.224 30.616H143.872C141.381 30.616 138.914 31.1073 136.613 32.0618C134.312 33.0163 132.222 34.4153 130.462 36.1787C128.703 37.942 127.308 40.0351 126.359 42.3381C125.409 44.6411 124.923 47.1088 124.928 49.6V298.752C124.928 303.776 126.924 308.595 130.477 312.147C134.029 315.7 138.848 317.696 143.872 317.696H246.224C251.248 317.694 256.065 315.697 259.617 312.145C263.169 308.593 265.166 303.776 265.168 298.752V49.6C265.172 47.1091 264.685 44.6419 263.735 42.3394C262.785 40.0368 261.391 37.9442 259.631 36.181C257.872 34.4179 255.782 33.0189 253.482 32.064C251.181 31.1091 248.715 30.617 246.224 30.616ZM261.272 287.416C261.276 289.907 260.789 292.375 259.839 294.678C258.888 296.981 257.493 299.074 255.732 300.838C253.972 302.601 251.881 304 249.58 304.954C247.279 305.909 244.812 306.4 242.32 306.4H147.768C145.276 306.403 142.807 305.914 140.504 304.962C138.2 304.009 136.108 302.611 134.346 300.849C132.584 299.086 131.187 296.993 130.235 294.689C129.283 292.385 128.796 289.916 128.8 287.424V51.344C128.8 48.8552 129.291 46.3909 130.244 44.0919C131.197 41.7929 132.594 39.7044 134.355 37.9457C136.116 36.187 138.206 34.7927 140.506 33.8425C142.806 32.8923 145.271 32.4048 147.76 32.408H187.416V32.544C188.568 36.696 191.224 39.392 194.16 39.392H195.848C198.792 39.392 201.448 36.696 202.592 32.544L202.64 32.408H242.32C247.345 32.408 252.164 34.4036 255.718 37.956C259.272 41.5085 261.27 46.327 261.272 51.352V287.416Z" fill="#263238" stroke="#263238" stroke-linecap="round" stroke-linejoin="round"/>
<path d="M196.488 33.344C196.486 32.9789 196.377 32.6224 196.173 32.3195C195.969 32.0167 195.679 31.7811 195.342 31.6424C195.004 31.5038 194.633 31.4683 194.275 31.5405C193.917 31.6127 193.588 31.7894 193.33 32.0481C193.073 32.3069 192.898 32.6362 192.827 32.9944C192.756 33.3527 192.793 33.7239 192.933 34.0611C193.074 34.3983 193.31 34.6864 193.614 34.8891C193.918 35.0918 194.275 35.2 194.64 35.2C194.884 35.2011 195.125 35.1538 195.35 35.0608C195.576 34.9678 195.78 34.831 195.952 34.6583C196.124 34.4856 196.26 34.2806 196.352 34.0549C196.444 33.8293 196.49 33.5877 196.488 33.344Z" fill="white"/>
<path d="M140.6 40.408C140.6 42.28 138.504 42.952 138.496 44.408V44.512H140.528V45.136H137.816V44.608C137.816 42.608 139.904 42.208 139.904 40.48C139.904 39.84 139.696 39.504 139.184 39.504C138.672 39.504 138.456 39.864 138.456 40.416V40.96H137.816V40.456C137.816 39.512 138.248 38.856 139.2 38.856C140.152 38.856 140.6 39.464 140.6 40.408Z" fill="#263238"/>
<path d="M144 40.4V40.56C144.03 40.825 143.973 41.0927 143.838 41.3223C143.702 41.5519 143.495 41.7309 143.248 41.832C143.496 41.9361 143.704 42.118 143.839 42.3503C143.975 42.5827 144.031 42.8528 144 43.12V43.592C144 44.536 143.56 45.192 142.6 45.192C141.64 45.192 141.216 44.568 141.216 43.592V43.2H141.864V43.672C141.864 44.224 142.088 44.56 142.584 44.56C143.08 44.56 143.312 44.232 143.312 43.608V43.128C143.312 42.52 143.056 42.232 142.512 42.208H142.144V41.6H142.552C142.659 41.6011 142.765 41.579 142.863 41.5353C142.961 41.4916 143.048 41.4272 143.119 41.3467C143.189 41.2662 143.242 41.1714 143.272 41.0688C143.303 40.9661 143.311 40.8581 143.296 40.752V40.472C143.296 39.832 143.072 39.504 142.568 39.504C142.064 39.504 141.848 39.848 141.848 40.408V40.728H141.2V40.4C141.2 39.456 141.64 38.848 142.584 38.848C143.528 38.848 144 39.456 144 40.4Z" fill="#263238"/>
<path d="M145.32 40.8719V41.7279H144.656V40.8719H145.32ZM145.32 44.2399V45.0959H144.656V44.2399H145.32Z" fill="#263238"/>
<path d="M146.72 41.4239C146.81 41.2609 146.944 41.1264 147.106 41.0358C147.269 40.9453 147.454 40.9024 147.64 40.9119C148.44 40.9119 148.784 41.4959 148.784 42.3839V43.5919C148.784 44.5359 148.336 45.1919 147.392 45.1919C146.448 45.1919 146 44.5679 146 43.5919V43.1999H146.648V43.6639C146.648 44.2159 146.88 44.5519 147.368 44.5519C147.856 44.5519 148.096 44.2159 148.096 43.6639V42.3999C148.096 41.8479 147.864 41.5119 147.368 41.5119C147.278 41.5076 147.188 41.5216 147.104 41.553C147.02 41.5844 146.943 41.6326 146.878 41.6947C146.813 41.7568 146.761 41.8315 146.725 41.9142C146.69 41.9969 146.672 42.086 146.672 42.1759V42.3119H146.024L146.192 38.8719H148.592V39.4959H146.776L146.72 41.4239Z" fill="#263238"/>
<path d="M152.224 40.392V40.504H151.584V40.352C151.584 39.792 151.352 39.464 150.848 39.464C150.344 39.464 150.096 39.8 150.096 40.464V41.848C150.169 41.6447 150.306 41.4707 150.486 41.3523C150.666 41.2339 150.881 41.1776 151.096 41.192C151.896 41.192 152.24 41.76 152.24 42.656V43.592C152.24 44.536 151.776 45.192 150.832 45.192C149.888 45.192 149.408 44.568 149.408 43.592V40.44C149.408 39.456 149.848 38.84 150.832 38.84C151.816 38.84 152.224 39.448 152.224 40.392ZM150.096 42.712V43.64C150.096 44.192 150.328 44.528 150.832 44.528C151.336 44.528 151.56 44.192 151.56 43.64V42.712C151.56 42.152 151.32 41.816 150.832 41.816C150.344 41.816 150.096 42.152 150.096 42.712Z" fill="#263238"/>
<path d="M219.784 40.6639H218.04V45.0319H219.784V40.6639Z" fill="#263238"/>
<path d="M222.112 39.792H220.368V45.032H222.112V39.792Z" fill="#263238"/>
<path d="M224.448 39.168H222.704V45.032H224.448V39.168Z" fill="#263238"/>
<path d="M226.776 38.088H225.032V45.032H226.776V38.088Z" fill="#263238"/>
<path d="M248.4 44.912H237.92V38.512H248.4V44.912ZM238.504 44.328H247.816V39.088H238.504V44.328Z" fill="#263238"/>
<path d="M244.912 39.72H239.376V43.696H244.912V39.72Z" fill="#263238"/>
<path d="M249.36 40.952H248.04V42.464H249.36V40.952Z" fill="#263238"/>
<path d="M234.072 43.52C234.001 43.5205 233.932 43.5011 233.872 43.464C231.736 42.2 230.328 43.376 230.272 43.464C230.233 43.4982 230.188 43.5243 230.139 43.541C230.09 43.5577 230.038 43.5645 229.986 43.5612C229.935 43.5578 229.884 43.5444 229.838 43.5215C229.792 43.4987 229.75 43.4669 229.716 43.428C229.682 43.3892 229.656 43.3439 229.639 43.295C229.622 43.246 229.615 43.1942 229.619 43.1426C229.622 43.0909 229.636 43.0405 229.658 42.9941C229.681 42.9476 229.713 42.9062 229.752 42.872C229.832 42.808 231.632 41.272 234.272 42.872C234.345 42.9161 234.402 42.9829 234.434 43.0623C234.466 43.1418 234.471 43.2294 234.448 43.3119C234.425 43.3944 234.376 43.4672 234.308 43.5192C234.24 43.5712 234.157 43.5996 234.072 43.6V43.52Z" fill="#263238"/>
<path d="M234.864 42.2C234.794 42.2004 234.726 42.1839 234.664 42.152C231.576 40.312 229.504 42.088 229.48 42.104C229.407 42.1768 229.307 42.2177 229.204 42.2177C229.101 42.2177 229.001 42.1768 228.928 42.104C228.891 42.0682 228.862 42.0253 228.842 41.9779C228.821 41.9305 228.811 41.8795 228.811 41.828C228.811 41.7765 228.821 41.7256 228.842 41.6781C228.862 41.6307 228.891 41.5878 228.928 41.552C228.928 41.552 231.448 39.384 235.024 41.504C235.114 41.5588 235.178 41.6465 235.203 41.7482C235.229 41.85 235.213 41.9576 235.16 42.048C235.125 42.0935 235.08 42.1307 235.029 42.157C234.978 42.1833 234.922 42.198 234.864 42.2Z" fill="#263238"/>
<path d="M235.576 40.68C235.505 40.6804 235.436 40.661 235.376 40.624C231.472 38.304 228.872 40.488 228.768 40.584C228.729 40.6181 228.684 40.6443 228.635 40.6609C228.586 40.6776 228.534 40.6845 228.483 40.6811C228.431 40.6778 228.38 40.6643 228.334 40.6414C228.288 40.6186 228.246 40.5868 228.212 40.548C228.178 40.5091 228.152 40.4639 228.135 40.4149C228.118 40.3659 228.111 40.3141 228.115 40.2625C228.118 40.2109 228.132 40.1604 228.155 40.114C228.177 40.0676 228.209 40.0261 228.248 39.992C228.248 39.992 231.368 37.328 235.776 39.952C235.821 39.9775 235.86 40.0119 235.891 40.053C235.923 40.0941 235.945 40.141 235.958 40.1911C235.971 40.2411 235.973 40.2932 235.965 40.3442C235.957 40.3952 235.939 40.4441 235.912 40.488C235.877 40.5463 235.828 40.5947 235.769 40.6283C235.71 40.662 235.644 40.6798 235.576 40.68Z" fill="#263238"/>
<path d="M232.896 44.176C232.898 44.3709 232.841 44.5619 232.734 44.7248C232.627 44.8877 232.474 45.015 232.294 45.0907C232.114 45.1664 231.916 45.1871 231.725 45.15C231.534 45.1129 231.357 45.0199 231.219 44.8826C231.081 44.7453 230.986 44.57 230.947 44.3789C230.909 44.1878 230.928 43.9895 231.002 43.8093C231.076 43.629 231.202 43.4748 231.364 43.3664C231.526 43.2579 231.717 43.2 231.912 43.2C232.172 43.1999 232.421 43.3025 232.605 43.4853C232.789 43.6681 232.894 43.9164 232.896 44.176Z" fill="#263238"/>
<path d="M238.792 193.928H151.952C149.597 193.928 147.688 195.837 147.688 198.192V228.392C147.688 230.747 149.597 232.656 151.952 232.656H238.792C241.147 232.656 243.056 230.747 243.056 228.392V198.192C243.056 195.837 241.147 193.928 238.792 193.928Z" fill="#2B786C" stroke="#263238" stroke-linecap="round" stroke-linejoin="round"/>
<path d="M146.192 94.696H244.552V172.344C244.552 174.224 243.805 176.027 242.476 177.356C241.147 178.685 239.344 179.432 237.464 179.432H153.28C151.4 179.432 149.597 178.685 148.268 177.356C146.939 176.027 146.192 174.224 146.192 172.344V94.696Z" fill="white" stroke="#263238" stroke-linecap="round" stroke-linejoin="round"/>
<path d="M244.552 94.696H146.192V101.992H244.552V94.696Z" fill="#2B786C" stroke="#263238" stroke-linecap="round" stroke-linejoin="round"/>
<path d="M162.776 107.76H151.72V118.816H162.776V107.76Z" fill="white" stroke="#263238" stroke-linecap="round" stroke-linejoin="round"/>
<path d="M181.84 107.76H170.784V118.816H181.84V107.76Z" fill="white" stroke="#263238" stroke-linecap="round" stroke-linejoin="round"/>
<path d="M200.904 107.76H189.848V118.816H200.904V107.76Z" fill="white" stroke="#263238" stroke-linecap="round" stroke-linejoin="round"/>
<path d="M219.96 107.76H208.904V118.816H219.96V107.76Z" fill="white" stroke="#263238" stroke-linecap="round" stroke-linejoin="round"/>
<path d="M239.024 107.76H227.968V118.816H239.024V107.76Z" fill="white" stroke="#263238" stroke-linecap="round" stroke-linejoin="round"/>
<path d="M162.776 124.536H151.72V135.592H162.776V124.536Z" fill="white" stroke="#263238" stroke-linecap="round" stroke-linejoin="round"/>
<path d="M181.84 124.536H170.784V135.592H181.84V124.536Z" fill="#2B786C" stroke="#263238" stroke-linecap="round" stroke-linejoin="round"/>
<path d="M200.904 124.536H189.848V135.592H200.904V124.536Z" fill="white" stroke="#263238" stroke-linecap="round" stroke-linejoin="round"/>
<path d="M219.96 124.536H208.904V135.592H219.96V124.536Z" fill="white" stroke="#263238" stroke-linecap="round" stroke-linejoin="round"/>
<path d="M239.024 124.536H227.968V135.592H239.024V124.536Z" fill="#2B786C" stroke="#263238" stroke-linecap="round" stroke-linejoin="round"/>
<path d="M162.776 141.312H151.72V152.368H162.776V141.312Z" fill="white" stroke="#263238" stroke-linecap="round" stroke-linejoin="round"/>
<path d="M181.84 141.312H170.784V152.368H181.84V141.312Z" fill="white" stroke="#263238" stroke-linecap="round" stroke-linejoin="round"/>
<path d="M200.904 141.312H189.848V152.368H200.904V141.312Z" fill="#2B786C" stroke="#263238" stroke-linecap="round" stroke-linejoin="round"/>
<path d="M219.96 141.312H208.904V152.368H219.96V141.312Z" fill="white" stroke="#263238" stroke-linecap="round" stroke-linejoin="round"/>
<path d="M239.024 141.312H227.968V152.368H239.024V141.312Z" fill="white" stroke="#263238" stroke-linecap="round" stroke-linejoin="round"/>
<path d="M162.776 158.08H151.72V169.136H162.776V158.08Z" fill="white" stroke="#263238" stroke-linecap="round" stroke-linejoin="round"/>
<path d="M181.84 158.08H170.784V169.136H181.84V158.08Z" fill="white" stroke="#263238" stroke-linecap="round" stroke-linejoin="round"/>
<path d="M200.904 158.08H189.848V169.136H200.904V158.08Z" fill="white" stroke="#263238" stroke-linecap="round" stroke-linejoin="round"/>
<path d="M219.96 158.08H208.904V169.136H219.96V158.08Z" fill="white" stroke="#263238" stroke-linecap="round" stroke-linejoin="round"/>
<path d="M239.024 158.08H227.968V169.136H239.024V158.08Z" fill="white" stroke="#263238" stroke-linecap="round" stroke-linejoin="round"/>
<path d="M144.592 258.032H247.752" stroke="#263238" stroke-linecap="round" stroke-linejoin="round"/>
<path d="M145.944 264.544H168.208" stroke="#263238" stroke-linecap="round" stroke-linejoin="round"/>
<path d="M145.944 267.808H168.208" stroke="#263238" stroke-linecap="round" stroke-linejoin="round"/>
<path d="M145.944 271.064H168.208" stroke="#263238" stroke-linecap="round" stroke-linejoin="round"/>
<path d="M145.944 274.32H168.208" stroke="#263238" stroke-linecap="round" stroke-linejoin="round"/>
<path d="M172.008 264.544H194.272" stroke="#263238" stroke-linecap="round" stroke-linejoin="round"/>
<path d="M172.008 267.808H194.272" stroke="#263238" stroke-linecap="round" stroke-linejoin="round"/>
<path d="M172.008 271.064H194.272" stroke="#263238" stroke-linecap="round" stroke-linejoin="round"/>
<path d="M172.008 274.32H194.272" stroke="#263238" stroke-linecap="round" stroke-linejoin="round"/>
<path d="M198.072 264.544H220.336" stroke="#263238" stroke-linecap="round" stroke-linejoin="round"/>
<path d="M198.072 267.808H220.336" stroke="#263238" stroke-linecap="round" stroke-linejoin="round"/>
<path d="M198.072 271.064H220.336" stroke="#263238" stroke-linecap="round" stroke-linejoin="round"/>
<path d="M198.072 274.32H220.336" stroke="#263238" stroke-linecap="round" stroke-linejoin="round"/>
<path d="M224.136 264.544H246.4" stroke="#263238" stroke-linecap="round" stroke-linejoin="round"/>
<path d="M224.136 267.808H246.4" stroke="#263238" stroke-linecap="round" stroke-linejoin="round"/>
<path d="M224.136 271.064H246.4" stroke="#263238" stroke-linecap="round" stroke-linejoin="round"/>
<path d="M224.136 274.32H246.4" stroke="#263238" stroke-linecap="round" stroke-linejoin="round"/>
<path d="M153.288 81.32V66.824H154.664L158.784 76.424V66.824H160.464V81.32H159.2L155.032 71.424V81.32H153.288Z" fill="#263238"/>
<path d="M162.736 81.32V66.824H168.336V68.328H164.8V73.128H167.712V74.56H164.8V79.872H168.432V81.32H162.736Z" fill="#263238"/>
<path d="M169.12 81.32L172.144 73.736L169.176 66.824H171.056L173.256 71.944L175.264 66.824H177.136L174.096 73.896L177.296 81.32H175.416L173.056 75.864L171.016 81.32H169.12Z" fill="#263238"/>
<path d="M180.232 81.32V68.328H177.784V66.824H184.64V68.328H182.24V81.32H180.232Z" fill="#263238"/>
<path d="M190.128 81.32V66.824H195.728V68.328H192.136V73.128H195.048V74.56H192.136V79.872H195.768V81.32H190.128Z" fill="#263238"/>
<path d="M199.936 81.32L196.736 66.824H198.632L200.92 77.512L203.104 66.824H204.952L201.752 81.32H199.936Z" fill="#263238"/>
<path d="M206.448 81.32V66.824H212.048V68.328H208.456V73.128H211.368V74.56H208.456V79.872H212.088V81.32H206.448Z" fill="#263238"/>
<path d="M213.728 81.32V66.824H215.112L219.224 76.424V66.824H220.904V81.32H219.616L215.448 71.424V81.32H213.728Z" fill="#263238"/>
<path d="M224.8 81.32V68.328H222.32V66.824H229.176V68.328H226.776V81.32H224.8Z" fill="#263238"/>
<path d="M233.984 81.48C233.253 81.5088 232.53 81.3224 231.904 80.944C231.346 80.583 230.906 80.0654 230.64 79.456C230.336 78.7605 230.166 78.0143 230.136 77.256L231.928 76.776C231.962 77.2783 232.043 77.7764 232.168 78.264C232.276 78.6974 232.487 79.0981 232.784 79.432C232.942 79.5868 233.13 79.7072 233.336 79.7857C233.543 79.8641 233.763 79.899 233.984 79.888C234.203 79.9045 234.422 79.8737 234.628 79.7978C234.834 79.7219 235.02 79.6026 235.176 79.448C235.463 79.0946 235.605 78.6461 235.576 78.192C235.609 77.6236 235.452 77.0605 235.128 76.592C234.796 76.1505 234.418 75.7456 234 75.384L231.6 73.232C231.157 72.854 230.798 72.3882 230.544 71.864C230.303 71.2841 230.189 70.6596 230.208 70.032C230.18 69.5792 230.246 69.1255 230.403 68.6999C230.56 68.2743 230.805 67.8861 231.12 67.56C231.801 66.9575 232.693 66.6497 233.6 66.704C234.113 66.6943 234.624 66.77 235.112 66.928C235.527 67.0609 235.902 67.2978 236.2 67.616C236.513 67.951 236.75 68.3493 236.896 68.784C237.087 69.3179 237.205 69.8748 237.248 70.44L235.528 70.904C235.501 70.4605 235.429 70.0208 235.312 69.592C235.226 69.2209 235.031 68.884 234.752 68.624C234.427 68.3633 234.016 68.2322 233.6 68.256C233.387 68.242 233.173 68.2709 232.971 68.341C232.769 68.4111 232.583 68.5209 232.424 68.664C232.278 68.8232 232.167 69.0101 232.095 69.2135C232.024 69.417 231.994 69.6328 232.008 69.848C231.993 70.2261 232.07 70.6021 232.232 70.944C232.414 71.2779 232.659 71.5739 232.952 71.816L235.408 73.968C235.951 74.4667 236.42 75.0405 236.8 75.672C237.228 76.3804 237.445 77.1965 237.424 78.024C237.44 78.6713 237.286 79.3114 236.976 79.88C236.691 80.3868 236.266 80.8006 235.752 81.072C235.204 81.3479 234.598 81.4878 233.984 81.48Z" fill="#263238"/>
<path d="M175.872 210.696C175.234 210.737 174.601 210.565 174.072 210.208C173.644 209.88 173.333 209.422 173.184 208.904C173.011 208.309 172.927 207.692 172.936 207.072V203.2C172.923 202.549 173.006 201.899 173.184 201.272C173.325 200.758 173.638 200.309 174.072 200C174.61 199.665 175.239 199.506 175.872 199.544C176.431 199.52 176.985 199.653 177.472 199.928C177.872 200.178 178.177 200.556 178.336 201C178.524 201.542 178.614 202.114 178.6 202.688V203.552H177.152V202.752C177.156 202.394 177.137 202.036 177.096 201.68C177.073 201.405 176.954 201.148 176.76 200.952C176.502 200.761 176.183 200.672 175.864 200.704C175.526 200.672 175.189 200.769 174.92 200.976C174.704 201.191 174.568 201.473 174.536 201.776C174.47 202.164 174.441 202.558 174.448 202.952V207.28C174.433 207.716 174.478 208.152 174.584 208.576C174.638 208.85 174.796 209.094 175.024 209.256C175.278 209.405 175.57 209.477 175.864 209.464C176.023 209.478 176.183 209.46 176.336 209.412C176.488 209.364 176.63 209.287 176.752 209.184C176.94 208.972 177.057 208.706 177.088 208.424C177.132 208.05 177.154 207.673 177.152 207.296V206.496H178.6V207.296C178.608 207.889 178.524 208.48 178.352 209.048C178.221 209.521 177.94 209.94 177.552 210.24C177.053 210.562 176.466 210.721 175.872 210.696Z" fill="#263238"/>
<path d="M182.864 210.696C182.245 210.726 181.631 210.576 181.096 210.264C180.654 209.971 180.324 209.536 180.16 209.032C179.957 208.426 179.86 207.79 179.872 207.152V203.016C179.858 202.385 179.955 201.757 180.16 201.16C180.334 200.671 180.667 200.255 181.104 199.976C181.649 199.702 182.25 199.56 182.86 199.56C183.47 199.56 184.071 199.702 184.616 199.976C185.049 200.262 185.377 200.68 185.552 201.168C185.757 201.762 185.855 202.388 185.84 203.016V207.2C185.853 207.833 185.755 208.464 185.552 209.064C185.385 209.567 185.055 210 184.616 210.296C184.084 210.598 183.475 210.737 182.864 210.696ZM182.864 209.496C183.19 209.516 183.513 209.429 183.784 209.248C183.999 209.067 184.145 208.819 184.2 208.544C184.275 208.197 184.31 207.843 184.304 207.488V202.688C184.311 202.336 184.276 201.984 184.2 201.64C184.144 201.374 183.996 201.137 183.784 200.968C183.511 200.792 183.188 200.711 182.864 200.736C182.54 200.712 182.218 200.793 181.944 200.968C181.727 201.134 181.576 201.372 181.52 201.64C181.441 201.984 181.403 202.335 181.408 202.688V207.488C181.404 207.843 181.442 208.197 181.52 208.544C181.574 208.821 181.724 209.071 181.944 209.248C182.216 209.428 182.539 209.515 182.864 209.496Z" fill="#263238"/>
<path d="M187.336 210.576V199.656H188.376L191.48 206.904V199.656H192.744V210.576H191.776L188.632 203.12V210.576H187.336Z" fill="#263238"/>
<path d="M194.456 210.576V199.656H198.672V200.752H196V204.384H198.088V205.464H196V210.576H194.456Z" fill="#263238"/>
<path d="M199.808 210.576V199.656H201.304V210.576H199.808Z" fill="#263238"/>
<path d="M203.064 210.576V199.656H205.264C205.879 199.637 206.493 199.735 207.072 199.944C207.525 200.119 207.9 200.451 208.128 200.88C208.376 201.402 208.494 201.975 208.472 202.552C208.475 202.94 208.429 203.327 208.336 203.704C208.259 204.026 208.112 204.327 207.904 204.584C207.693 204.83 207.415 205.011 207.104 205.104L208.656 210.576H207.2L205.768 205.448H204.584V210.576H203.064ZM204.592 204.36H205.168C205.527 204.37 205.884 204.316 206.224 204.2C206.482 204.095 206.693 203.898 206.816 203.648C206.953 203.3 207.016 202.926 207 202.552C207.044 202.067 206.92 201.581 206.648 201.176C206.461 201.01 206.241 200.886 206.002 200.813C205.763 200.74 205.512 200.719 205.264 200.752H204.592V204.36Z" fill="#263238"/>
<path d="M210.032 210.576L210.24 199.656H211.736L213.656 208.512L215.6 199.656H217.08L217.288 210.576H216.056L215.936 202.648L214.088 210.576H213.232L211.392 202.648L211.272 210.576H210.032Z" fill="#263238"/>
<path d="M163.848 226.744L166.168 215.832H167.64L169.968 226.744H168.528L168 224H165.776L165.256 226.752L163.848 226.744ZM166.008 222.904H167.824L166.912 217.984L166.008 222.904Z" fill="#263238"/>
<path d="M171.84 226.744V216.96H169.992V215.832H175.2V216.96H173.36V226.744H171.84Z" fill="#263238"/>
<path d="M177.408 226.744V216.96H175.56V215.832H180.72V216.96H178.928V226.744H177.408Z" fill="#263238"/>
<path d="M181.776 226.744V215.832H186.008V216.96H183.296V220.576H185.496V221.648H183.296V225.648H186.032V226.736L181.776 226.744Z" fill="#263238"/>
<path d="M187.256 226.744V215.832H188.296L191.392 223.08V215.832H192.664V226.744H191.696L188.552 219.288V226.744H187.256Z" fill="#263238"/>
<path d="M194.4 226.744V215.832H196.8C197.46 215.8 198.118 215.927 198.72 216.2C199.181 216.436 199.542 216.831 199.736 217.312C199.945 217.918 200.035 218.56 200 219.2V223.2C200.015 223.864 199.912 224.525 199.696 225.152C199.511 225.653 199.165 226.078 198.712 226.36C198.149 226.658 197.516 226.799 196.88 226.768L194.4 226.744ZM195.92 225.656H196.8C197.221 225.696 197.643 225.579 197.984 225.328C198.235 225.075 198.386 224.74 198.408 224.384C198.46 223.887 198.484 223.388 198.48 222.888V219.344C198.489 218.883 198.455 218.422 198.376 217.968C198.355 217.81 198.302 217.658 198.221 217.52C198.14 217.383 198.032 217.263 197.904 217.168C197.553 216.982 197.156 216.899 196.76 216.928H195.96L195.92 225.656Z" fill="#263238"/>
<path d="M200.88 226.744L203.2 215.832H204.672L207 226.744H205.6L205.104 223.992H202.88L202.352 226.744H200.88ZM203.04 222.904H204.856L203.944 217.984L203.04 222.904Z" fill="#263238"/>
<path d="M208.104 226.744V215.832H209.144L212.248 223.08V215.832H213.512V226.744H212.544L209.4 219.288V226.744H208.104Z" fill="#263238"/>
<path d="M217.96 226.864C217.324 226.904 216.692 226.735 216.16 226.384C215.732 226.052 215.421 225.593 215.272 225.072C215.098 224.477 215.015 223.86 215.024 223.24V219.384C215.012 218.733 215.095 218.083 215.272 217.456C215.419 216.945 215.731 216.498 216.16 216.184C216.7 215.855 217.328 215.699 217.96 215.736C218.517 215.714 219.071 215.844 219.56 216.112C219.963 216.363 220.268 216.744 220.424 217.192C220.606 217.733 220.692 218.301 220.68 218.872V219.736H219.24V218.936C219.244 218.578 219.225 218.22 219.184 217.864C219.163 217.591 219.044 217.335 218.848 217.144C218.589 216.949 218.267 216.857 217.944 216.888C217.608 216.86 217.273 216.96 217.008 217.168C216.79 217.382 216.654 217.665 216.624 217.968C216.558 218.359 216.529 218.755 216.536 219.152V223.472C216.521 223.911 216.566 224.35 216.672 224.776C216.729 225.05 216.886 225.292 217.112 225.456C217.355 225.596 217.632 225.665 217.912 225.656C218.235 225.688 218.557 225.59 218.808 225.384C218.996 225.172 219.113 224.906 219.144 224.624C219.188 224.247 219.21 223.868 219.208 223.488V222.688H220.648V223.488C220.658 224.083 220.577 224.677 220.408 225.248C220.277 225.719 219.996 226.135 219.608 226.432C219.117 226.743 218.541 226.894 217.96 226.864Z" fill="#263238"/>
<path d="M222.16 226.744V215.832H226.4V216.96H223.696V220.576H225.888V221.648H223.696V225.648H226.4V226.736L222.16 226.744Z" fill="#263238"/>
<path d="M297.6 370.592C297.6 370.592 294.048 375.48 292.496 376.144C290.944 376.808 288.048 377.256 287.16 379.256C286.671 380.225 286.369 381.279 286.272 382.36H308.264C308.264 382.36 309.152 379.472 308.264 377.696C307.712 376.577 307.337 375.378 307.152 374.144L297.6 370.592Z" fill="white" stroke="#263238" stroke-linecap="round" stroke-linejoin="round"/>
<path d="M308.672 380.144H286.84C286.548 380.85 286.367 381.598 286.304 382.36H308.296C308.497 381.636 308.623 380.894 308.672 380.144Z" fill="white" stroke="#263238" stroke-linecap="round" stroke-linejoin="round"/>
<path d="M321.176 375.48L321.616 382.584H332.28C332.527 381.252 332.451 379.88 332.056 378.584C331.392 376.584 330.72 374.808 330.72 374.808L321.176 375.48Z" fill="white" stroke="#263238" stroke-linecap="round" stroke-linejoin="round"/>
<path d="M321.6 382.584H332.264C332.427 381.705 332.451 380.806 332.336 379.92H321.448L321.6 382.584Z" fill="white" stroke="#263238" stroke-linecap="round" stroke-linejoin="round"/>
<path d="M288.968 267.096C288.968 267.096 290.752 290.192 291.2 298.4C291.648 306.608 297.6 370.592 297.6 370.592C297.6 370.592 306.264 375.92 307.368 375.92C308.472 375.92 309.816 298.848 309.816 298.848L321.144 375.48C322.364 375.872 323.632 376.096 324.912 376.144C326.696 376.144 330.688 374.808 330.688 374.808L326.944 282.4V267.096C326.944 267.096 304.544 270.2 298.52 269.312C295.273 268.878 292.075 268.136 288.968 267.096Z" fill="#263238" stroke="#263238" stroke-linecap="round" stroke-linejoin="round"/>
<path d="M316.064 281.088L311.176 284.856L309.848 298.848" stroke="#808080" stroke-linecap="round" stroke-linejoin="round"/>
<path d="M318.08 173.256C318.08 173.256 309.016 172.12 306.4 175.2C303.784 178.28 303.2 184.304 301.344 185.736C299.488 187.168 298.472 185.392 297.648 187.264C296.824 189.136 298.168 191.448 298.168 191.448C298.168 191.448 297.944 200.456 298.968 200.896C299.992 201.336 304.568 201.336 304.568 201.336L303.824 205.032L315.28 205.512L316.28 201.64C316.28 201.64 324.992 196.592 327.344 192.76C329.696 188.928 329.136 180.432 326.784 177.472C324.432 174.512 318.08 173.256 318.08 173.256Z" fill="#B2B2B2" stroke="#263238" stroke-linecap="round" stroke-linejoin="round"/>
<path d="M304.048 185.312C303.768 185.984 303.312 186.448 303.04 186.336C302.768 186.224 302.784 185.576 303.04 184.896C303.296 184.216 303.768 183.76 304.04 183.872C304.312 183.984 304.328 184.632 304.048 185.312Z" fill="#263238"/>
<path d="M299.04 192.904C299.517 193.148 300.068 193.201 300.582 193.052C301.097 192.904 301.535 192.564 301.808 192.104" stroke="#263238" stroke-linecap="round" stroke-linejoin="round"/>
<path d="M304.144 182.152C304.144 182.152 305.304 181.52 305.44 183.448" stroke="#263238" stroke-linecap="round" stroke-linejoin="round"/>
<path d="M326.744 177.48C324.392 174.52 318.08 173.256 318.08 173.256C318.08 173.256 309.016 172.12 306.4 175.2C306.4 175.2 311.408 173.936 310.76 176.072C310.112 178.208 304.92 181.472 306.704 182.736C308.488 184 310.496 183.04 309.664 184.912C308.832 186.784 307.792 188.616 308.664 188.792C309.536 188.968 311.976 186.96 313.016 187.4C314.056 187.84 315.24 191.016 314.24 192.624C313.568 193.614 312.534 194.301 311.36 194.536C311.36 194.536 313.144 199.2 314.712 200.424C315.392 200.959 316.249 201.219 317.112 201.152C319.328 199.8 325.456 195.88 327.368 192.76C329.656 188.936 329.096 180.44 326.744 177.48Z" fill="#263238" stroke="#263238" stroke-linecap="round" stroke-linejoin="round"/>
<path d="M287.928 267.56L288.568 272.656C288.568 272.656 291.768 276.056 300.888 276.272C310.008 276.488 321.288 275.424 324.048 274.576C326.808 273.728 327.448 272.872 327.448 272.872L326.944 267.096C326.944 267.096 310.24 272.872 287.928 267.56Z" fill="white" stroke="#263238" stroke-linecap="round" stroke-linejoin="round"/>
<path d="M328.872 280.136C328.872 280.136 328.184 282.736 328.024 283.512C327.864 284.288 328.336 289.912 328.336 290.712C328.336 291.512 329.136 292.312 329.744 291.648C329.744 291.648 330.544 294.472 331.472 294.312C332.4 294.152 335.384 290.872 336.008 288.048C336.632 285.224 335.856 280.688 335.856 280.688L328.872 280.136Z" fill="#B2B2B2" stroke="#263238" stroke-linecap="round" stroke-linejoin="round"/>
<path d="M330.056 284.144C330.229 284.91 330.611 285.614 331.16 286.176L331.96 286.808L332.432 289.624C332.432 289.624 332.12 291.344 331.96 292.288" fill="#B2B2B2"/>
<path d="M330.056 284.144C330.229 284.91 330.611 285.614 331.16 286.176L331.96 286.808L332.432 289.624C332.432 289.624 332.12 291.344 331.96 292.288" stroke="#263238" stroke-linecap="round" stroke-linejoin="round"/>
<path d="M329.744 291.656L329.904 287.584" stroke="#263238" stroke-linecap="round" stroke-linejoin="round"/>
<path d="M328.864 276.648C328.864 276.648 328.904 278.96 328.864 280.136C328.824 281.312 331.176 283.24 334.152 282.488C337.128 281.736 337.184 275.896 337.184 275.896C337.184 275.896 333.08 278.928 328.864 276.648Z" fill="white" stroke="#263238" stroke-linecap="round" stroke-linejoin="round"/>
<path d="M327.312 211.584C327.312 211.584 333.768 215.8 335.504 219.024C337.24 222.248 341.464 252.536 341.96 255.76C342.456 258.984 337.96 275.864 337.24 278.096C336.52 280.328 332.496 279.928 331.04 279.336C330.205 278.973 329.485 278.388 328.959 277.645C328.433 276.901 328.121 276.028 328.056 275.12L327.312 260.232V211.584Z" fill="#2B786C" stroke="#263238" stroke-linecap="round" stroke-linejoin="round"/>
<path d="M330.216 247.808C330.52 236.824 331.104 226.536 331.288 224.736C331.496 222.616 331.288 217 329.864 213.6C327.848 211.605 325.536 209.935 323.008 208.648C322.186 208.394 321.35 208.186 320.504 208.024L321.208 207.8C319.972 207.265 318.7 206.818 317.4 206.464C314.064 205.576 305.184 205.136 302.52 207.576C302.52 207.576 294.824 209.976 291.04 212.736C289.133 215.115 287.94 217.986 287.6 221.016C287.104 226.472 285.64 258.656 285.64 258.656C285.64 258.656 283.864 263.984 286.088 266.656C288.312 269.328 292.968 273.32 306.512 272.872C320.056 272.424 326.512 270.64 328.336 268.96C328.857 268.301 329.228 267.537 329.424 266.72C330.075 264.618 330.381 262.424 330.328 260.224C330.256 256 330.136 247.856 330.216 247.808Z" fill="#2B786C" stroke="#263238" stroke-linecap="round" stroke-linejoin="round"/>
<path d="M300.072 208.464C301.019 207.134 302.059 205.872 303.184 204.688C303.848 204.248 313.4 202.024 316.288 202.912C319.176 203.8 320.504 208.024 320.504 208.024C313.705 207.239 306.831 207.387 300.072 208.464Z" fill="white" stroke="#263238" stroke-linecap="round" stroke-linejoin="round"/>
<path d="M246.84 218.6C246.84 218.6 245.48 215.56 244.672 213.944C243.864 212.328 237.808 207.752 236.592 206.272C235.376 204.792 233.896 205.472 233.768 206.808C233.64 208.144 234.976 209.64 235.368 210.176C235.76 210.712 236.712 212.064 236.712 212.064C236.712 212.064 233.208 214.352 232.944 215.024C232.68 215.696 233.48 218.392 233.744 219.336C234.008 220.28 234.416 221.216 235.088 221.216H235.76C235.76 221.216 236.976 222.16 237.784 222.704C238.592 223.248 241.36 223.208 241.36 223.208L243.304 224.32C243.304 224.32 244.288 220.424 246.84 218.6Z" fill="#B2B2B2" stroke="#263238" stroke-linecap="round" stroke-linejoin="round"/>
<path d="M235.784 221.216C235.437 220.41 235.255 219.542 235.248 218.664L235.784 221.216Z" fill="white"/>
<path d="M235.784 221.216C235.437 220.41 235.255 219.542 235.248 218.664" stroke="#263238" stroke-linecap="round" stroke-linejoin="round"/>
<path d="M250.712 220.464C250.712 220.464 248.128 219.264 246.84 218.6C245.552 217.936 242.152 219.496 241.384 223.208C240.616 226.92 247.064 230.12 247.064 230.12C247.064 230.12 245.912 223.92 250.712 220.464Z" fill="white" stroke="#263238" stroke-linecap="round" stroke-linejoin="round"/>
<path d="M300.072 208.464C300.072 208.464 288.072 212.824 286.608 213.816C285.144 214.808 270.976 231.416 270.976 231.416C270.976 231.416 254.176 221.896 251.944 220.656C249.712 219.416 245.904 219.744 244.912 223.472C243.92 227.2 244.664 230.176 247.64 232.408C250.616 234.64 269.48 247.544 272.216 248.536C274.952 249.528 281.896 244.536 281.896 244.536L294.8 233.12" fill="#2B786C"/>
<path d="M300.072 208.464C300.072 208.464 288.072 212.824 286.608 213.816C285.144 214.808 270.976 231.416 270.976 231.416C270.976 231.416 254.176 221.896 251.944 220.656C249.712 219.416 245.904 219.744 244.912 223.472C243.92 227.2 244.664 230.176 247.64 232.408C250.616 234.64 269.48 247.544 272.216 248.536C274.952 249.528 281.896 244.536 281.896 244.536L294.8 233.12" stroke="#263238" stroke-linecap="round" stroke-linejoin="round"/>
<path d="M246.488 382.584H371.256" stroke="#263238" stroke-linecap="round" stroke-linejoin="round"/>
<path d="M27.552 382.584H240.656" stroke="#263238" stroke-linecap="round" stroke-linejoin="round"/>
<path d="M335.272 70.9839L292.408 81.7599L307.84 90.0799L335.272 70.9839Z" fill="white" stroke="#263238" stroke-linecap="round" stroke-linejoin="round"/>
<path d="M307.84 90.0799L309.152 102.024L335.272 70.9839L307.84 90.0799Z" fill="#B2B2B2" stroke="#263238" stroke-linecap="round" stroke-linejoin="round"/>
<path d="M312.536 92.4159L309.152 102.024L335.272 70.9839L312.536 92.4159Z" fill="white" stroke="#263238" stroke-linecap="round" stroke-linejoin="round"/>
<path d="M335.272 70.9839L312.536 92.4159L325.544 101.168L335.272 70.9839Z" fill="white" stroke="#263238" stroke-linecap="round" stroke-linejoin="round"/>
<path d="M121.24 135.352L119.84 136.152" stroke="#263238" stroke-linecap="round" stroke-linejoin="round"/>
<path d="M117.04 137.712C102.56 146 84.2399 157.76 67.0559 172.44C22.0079 210.968 68.4719 238.616 135.592 210.256C201.6 182.4 259.344 152.208 302.152 106.728" stroke="#263238" stroke-linecap="round" stroke-linejoin="round" stroke-dasharray="4.03 4.03"/>
<path d="M303.256 105.544L304.336 104.376" stroke="#263238" stroke-linecap="round" stroke-linejoin="round"/>
<path d="M244.144 93.6879C270.28 83.1999 311.2 52.8479 317.6 43.5679C348 -0.68006 270.472 42.0639 270.472 42.0639" stroke="#263238" stroke-linecap="round" stroke-linejoin="round" stroke-dasharray="4 4"/>
</svg>
