        <svg xmlns="http://www.w3.org/2000/svg" width="32" height="32" viewBox="0 0 32 32" fill="none">
          <path fill-rule="evenodd" clip-rule="evenodd"
            d="M4.30235 4.30302C6.01182 2.59355 8.59204 1.91669 11.9993 1.91669H19.9993C23.4067 1.91669 25.9869 2.59355 27.6963 4.30302C29.4058 6.01249 30.0827 8.59271 30.0827 12V20C30.0827 23.4073 29.4058 25.9875 27.6963 27.697C25.9869 29.4065 23.4067 30.0834 19.9993 30.0834H11.9993C8.59204 30.0834 6.01182 29.4065 4.30235 27.697C2.59288 25.9875 1.91602 23.4073 1.91602 20V12C1.91602 8.59271 2.59288 6.01249 4.30235 4.30302ZM5.36301 5.36368C4.07248 6.65421 3.41602 8.74066 3.41602 12V20C3.41602 23.2594 4.07248 25.3458 5.36301 26.6364C6.65354 27.9269 8.73999 28.5834 11.9993 28.5834H16.4494V18.75H14.7993C14.3851 18.75 14.0493 18.4142 14.0493 18C14.0493 17.5858 14.3851 17.25 14.7993 17.25H16.4494V16.8V15.54C16.4494 13.1711 18.3705 11.25 20.7394 11.25H21.9994C22.4136 11.25 22.7494 11.5858 22.7494 12C22.7494 12.4142 22.4136 12.75 21.9994 12.75H20.7394C19.1989 12.75 17.9494 13.9996 17.9494 15.54V16.8V17.25H21.9993C22.4135 17.25 22.7493 17.5858 22.7493 18C22.7493 18.4142 22.4135 18.75 21.9993 18.75H17.9494V28.5834H19.9993C23.2587 28.5834 25.3452 27.9269 26.6357 26.6364C27.9262 25.3458 28.5827 23.2594 28.5827 20V12C28.5827 8.74066 27.9262 6.65421 26.6357 5.36368C25.3452 4.07315 23.2587 3.41669 19.9993 3.41669H11.9993C8.73999 3.41669 6.65354 4.07315 5.36301 5.36368Z"
            fill="white" />
        </svg>
