        <svg xmlns="http://www.w3.org/2000/svg" width="32" height="32" viewBox="0 0 32 32" fill="none">
          <path fill-rule="evenodd" clip-rule="evenodd"
            d="M4.30235 4.30302C6.01182 2.59355 8.59204 1.91669 11.9993 1.91669H19.9993C23.4067 1.91669 25.9869 2.59355 27.6963 4.30302C29.4058 6.01249 30.0827 8.59271 30.0827 12V20C30.0827 23.4073 29.4058 25.9875 27.6963 27.697C25.9869 29.4065 23.4067 30.0834 19.9993 30.0834H11.9993C8.59204 30.0834 6.01182 29.4065 4.30235 27.697C2.59288 25.9875 1.91602 23.4073 1.91602 20V12C1.91602 8.59271 2.59288 6.01249 4.30235 4.30302ZM5.36301 5.36368C4.07248 6.65421 3.41602 8.74066 3.41602 12V20C3.41602 23.2594 4.07248 25.3458 5.36301 26.6364C6.65354 27.9269 8.73999 28.5834 11.9993 28.5834H19.9993C23.2587 28.5834 25.3452 27.9269 26.6357 26.6364C27.9262 25.3458 28.5827 23.2594 28.5827 20V12C28.5827 8.74066 27.9262 6.65421 26.6357 5.36368C25.3452 4.07315 23.2587 3.41669 19.9993 3.41669H11.9993C8.73999 3.41669 6.65354 4.07315 5.36301 5.36368ZM11.5313 13.3487C11.9455 13.3487 12.2813 13.6844 12.2813 14.0987V20.644C12.2813 21.0582 11.9455 21.394 11.5313 21.394C11.1171 21.394 10.7813 21.0582 10.7813 20.644V14.0987C10.7813 13.6844 11.1171 13.3487 11.5313 13.3487ZM16.6427 16.8253C16.6427 15.7329 17.5269 14.8487 18.6193 14.8487C19.7118 14.8487 20.596 15.7329 20.596 16.8253V20.644C20.596 21.0582 20.9318 21.394 21.346 21.394C21.7602 21.394 22.096 21.0582 22.096 20.644V16.8253C22.096 14.9044 20.5402 13.3487 18.6193 13.3487C16.6984 13.3487 15.1427 14.9044 15.1427 16.8253V20.644C15.1427 21.0582 15.4784 21.394 15.8927 21.394C16.3069 21.394 16.6427 21.0582 16.6427 20.644V16.8253Z"
            fill="white" />
          <path
            d="M11.6862 9.64643C11.8815 9.84169 11.8815 10.1583 11.6862 10.3535C11.491 10.5488 11.1744 10.5488 10.9791 10.3535C10.7839 10.1583 10.7839 9.84169 10.9791 9.64643C11.1744 9.45116 11.491 9.45116 11.6862 9.64643"
            stroke="white" stroke-width="1.5" stroke-linecap="round" stroke-linejoin="round" />
        </svg>
