<svg width="164" height="88" viewBox="0 0 164 88" fill="none" xmlns="http://www.w3.org/2000/svg">
<path d="M75.738 54.0489C75.6203 53.9312 75.5613 53.6957 75.5613 53.3424C75.5613 52.7242 75.6055 52.4151 75.6938 52.4151C75.9292 52.4151 76.2681 52.3562 76.7094 52.2384C77.1508 52.1207 77.5633 51.9735 77.9459 51.7969C78.3284 51.6202 78.5494 51.4583 78.6082 51.3111C78.7259 50.899 78.7996 50.3985 78.829 49.8098C78.8879 49.221 78.9173 48.5439 78.9173 47.7785L79.3025 6.18207C79.3025 4.29801 79.1846 3.14991 78.9492 2.73777C78.861 2.56114 78.6252 2.39923 78.2427 2.25204C77.8896 2.07541 77.5213 1.92822 77.1388 1.81046C76.7563 1.69271 76.4469 1.63383 76.2115 1.63383C76.0938 1.63383 76.0348 1.38361 76.0348 0.883152C76.0348 0.353261 76.0643 0.0588768 76.1232 0L78.2427 0.132473C78.8901 0.19135 79.4204 0.235507 79.8324 0.264946C80.2443 0.294384 80.6421 0.309103 81.0247 0.309103C81.4366 0.279665 81.9375 0.264946 82.526 0.264946C83.1145 0.264946 85.177 0.17663 88.7081 0C88.7963 0.264946 88.8405 0.529891 88.8405 0.794837C88.8405 1.35417 88.7816 1.63383 88.6639 1.63383C88.4874 1.63383 88.178 1.69271 87.7366 1.81046C87.2952 1.92822 86.868 2.07541 86.456 2.25204C86.0735 2.39923 85.8525 2.54642 85.7937 2.69361C85.7054 3.04688 85.6317 3.54733 85.5729 4.19497C85.514 4.81318 85.4846 5.34307 85.4846 5.78465L85.0994 47.4253C85.0994 48.2495 85.1288 48.9855 85.1877 49.6332C85.2465 50.2808 85.3349 50.8401 85.4526 51.3111C85.5115 51.4289 85.7177 51.5761 86.0708 51.7527C86.4534 51.9293 86.8512 52.0913 87.2631 52.2384C87.7045 52.3562 88.0139 52.4151 88.1904 52.4151C88.3081 52.4151 88.367 52.6947 88.367 53.2541C88.367 53.5485 88.3376 53.8134 88.2787 54.0489C88.161 54.0489 87.8811 54.0342 87.4397 54.0048C86.9984 53.9753 86.3943 53.9312 85.6293 53.8723C84.8642 53.8134 84.1865 53.7692 83.598 53.7398C83.0095 53.7104 82.5233 53.6957 82.1408 53.6957C81.6112 53.6957 80.8893 53.7251 79.9771 53.784C79.0649 53.8428 78.1957 53.887 77.3718 53.9164C76.5773 53.9753 76.0322 54.0195 75.738 54.0489Z" fill="#E0F780"/>
<path d="M62.6766 42.5677C62.5589 42.4499 62.5 42.1997 62.5 41.817C62.5 41.2282 62.5294 40.9338 62.5883 40.9338C62.8238 40.9338 63.1624 40.8897 63.6039 40.8014C64.075 40.6836 64.5018 40.5364 64.8845 40.3598C65.2672 40.1831 65.488 40.0212 65.5469 39.874C65.7529 39.1381 65.856 37.9458 65.856 36.2973V19.4291C65.856 17.5745 65.7529 16.4264 65.5469 15.9848C65.4586 15.7493 65.2231 15.5432 64.8404 15.3666C64.4871 15.1899 64.1044 15.0575 63.6923 14.9692C63.3096 14.8514 63.0005 14.7925 62.7649 14.7925C62.6472 14.7925 62.5883 14.4981 62.5883 13.9094C62.5883 13.4678 62.6178 13.2176 62.6766 13.1587L68.8145 13.4236C69.1972 13.4531 69.9185 13.4384 70.9783 13.3795C72.0675 13.3206 73.4952 13.247 75.2615 13.1587C75.3499 13.2764 75.394 13.5855 75.394 14.086C75.394 14.557 75.3351 14.7925 75.2174 14.7925C75.0408 14.7925 74.7317 14.8514 74.2901 14.9692C73.8779 15.0869 73.4658 15.2341 73.0537 15.4107C72.671 15.5579 72.4502 15.7051 72.3913 15.8523C72.1558 16.5 72.038 17.7511 72.038 19.6057V24.0833L72.1264 24.2158L77.4253 24.3041C77.8374 24.3041 87.7523 24.3041 88.606 24.3041C89.4597 24.2746 90.5489 24.2452 91.8736 24.2158C91.9325 24.1569 91.962 24.098 91.962 24.0391V19.4291C91.962 17.8394 91.8589 16.6766 91.6529 15.9406C91.594 15.764 91.3732 15.5874 90.9905 15.4107C90.6372 15.2341 90.2545 15.0869 89.8424 14.9692C89.4303 14.8514 89.1064 14.7925 88.8709 14.7925C88.812 14.7925 88.7532 14.6748 88.6943 14.4393C88.6649 14.2038 88.6649 13.9535 88.6943 13.6886C88.7237 13.3942 88.7679 13.2176 88.8268 13.1587L95.4062 13.4236C95.8478 13.4236 97.8349 13.3353 101.368 13.1587C101.456 13.4236 101.5 13.6886 101.5 13.9535C101.5 14.5129 101.426 14.7925 101.279 14.7925C101.103 14.7925 100.793 14.8514 100.352 14.9692C99.9398 15.0869 99.5423 15.2341 99.1596 15.4107C98.7769 15.5579 98.5562 15.7051 98.4973 15.8523C98.3795 16.2939 98.2912 16.8238 98.2323 17.442C98.1735 18.0602 98.144 18.7814 98.144 19.6057V36.1206C98.144 36.9155 98.1735 37.622 98.2323 38.2402C98.2912 38.8584 98.3795 39.403 98.4973 39.874C98.5562 39.9918 98.7622 40.139 99.1155 40.3156C99.4982 40.4628 99.8956 40.5953 100.308 40.713C100.749 40.8308 101.058 40.8897 101.235 40.8897C101.353 40.8897 101.412 41.1988 101.412 41.817C101.412 42.0525 101.368 42.3027 101.279 42.5677C101.161 42.5677 100.882 42.5529 100.44 42.5235C99.9986 42.4941 99.4099 42.4499 98.6739 42.391C97.938 42.3322 97.2903 42.288 96.731 42.2586C96.1716 42.2291 95.7006 42.2144 95.3179 42.2144C94.9352 42.2144 94.4053 42.2291 93.7283 42.2586C93.0806 42.288 92.4035 42.3322 91.697 42.391C91.0199 42.4205 90.4017 42.4499 89.8424 42.4793C89.2831 42.5382 88.9151 42.5677 88.7385 42.5677C88.6796 42.4793 88.6354 42.3027 88.606 42.0378C88.5765 41.7728 88.5765 41.5226 88.606 41.2871C88.6649 41.0516 88.7237 40.9338 88.7826 40.9338C89.0181 40.9338 89.3567 40.875 89.7982 40.7572C90.2398 40.6394 90.6519 40.4923 91.0346 40.3156C91.4173 40.1096 91.6381 39.9329 91.697 39.7857C91.8736 39.1086 91.962 37.9458 91.962 36.2973V30.177L91.8736 30.0004L84.6495 29.9562L77.4253 29.9121C73.7749 29.9415 71.9497 29.9857 71.9497 30.0446L72.038 30.1329V36.1206C72.038 36.886 72.0675 37.5778 72.1264 38.1961C72.1852 38.8143 72.2736 39.3589 72.3913 39.8299C72.4502 39.9476 72.6562 40.0948 73.0095 40.2715C73.3922 40.4481 73.7896 40.61 74.2018 40.7572C74.6433 40.875 74.9524 40.9338 75.1291 40.9338C75.2468 40.9338 75.3057 41.1546 75.3057 41.5962C75.3351 42.0378 75.3057 42.3616 75.2174 42.5677C73.7749 42.4793 72.5532 42.4057 71.5523 42.3469C70.5808 42.2586 69.6977 42.2144 68.9029 42.2144C67.9314 42.2144 66.9452 42.2586 65.9443 42.3469C64.9728 42.4057 63.8836 42.4793 62.6766 42.5677Z" fill="#E0F780"/>
<path d="M143.172 82.6193C143.094 82.5411 143.055 82.3751 143.055 82.1212C143.055 81.7306 143.094 81.5353 143.172 81.5353C143.328 81.5353 143.553 81.506 143.846 81.4474C144.139 81.3888 144.412 81.3107 144.666 81.213C144.92 81.0958 145.066 80.9884 145.105 80.8907C145.223 80.4415 145.281 79.5822 145.281 78.3126V67.2384C145.281 66.1447 145.223 65.3829 145.105 64.9532C145.066 64.8361 144.91 64.7189 144.637 64.6017C144.383 64.465 144.109 64.3575 143.816 64.2794C143.523 64.1818 143.299 64.1329 143.143 64.1329C143.064 64.1329 143.025 63.9572 143.025 63.6056C143.025 63.2931 143.055 63.1075 143.113 63.049C143.895 63.088 144.637 63.1271 145.34 63.1661C146.062 63.1857 146.756 63.1954 147.42 63.1954C148.279 63.1954 149.793 63.1661 151.961 63.1075C153.055 63.088 154.012 63.0782 154.832 63.0782C155.652 63.0587 156.336 63.049 156.883 63.049C156.902 63.1466 156.98 63.5568 157.117 64.2794C157.254 65.0021 157.459 66.0372 157.732 67.3849C157.635 67.4825 157.41 67.5314 157.059 67.5314C156.844 67.5314 156.707 67.463 156.648 67.3263C156.414 66.8185 156.062 66.3693 155.594 65.9786C155.145 65.5685 154.646 65.2462 154.1 65.0118C153.572 64.7579 153.055 64.631 152.547 64.631H151.434C150.184 64.631 149.549 64.7579 149.529 65.0118C149.49 65.2462 149.451 65.5587 149.412 65.9493C149.393 66.3204 149.383 66.7697 149.383 67.297V71.8087C149.383 71.9259 149.803 71.9845 150.643 71.9845H152.195C153.426 71.9845 154.09 71.9454 154.188 71.8673C154.285 71.7697 154.363 71.4865 154.422 71.0177C154.461 70.7052 154.52 70.422 154.598 70.1681C154.617 70.0314 154.764 69.963 155.037 69.963C155.369 69.963 155.584 70.0118 155.682 70.1095V75.6466C155.604 75.7247 155.398 75.7638 155.066 75.7638C154.812 75.7638 154.656 75.6857 154.598 75.5294C154.363 74.7677 154.207 74.299 154.129 74.1232C154.051 73.9865 153.992 73.9279 153.953 73.9474C153.934 73.9474 153.875 73.9083 153.777 73.8302C153.504 73.674 152.742 73.5958 151.492 73.5958C150.086 73.5958 149.383 73.6837 149.383 73.8595V78.3712C149.383 79.2892 149.461 79.9825 149.617 80.4513C149.695 80.7638 150.359 80.92 151.609 80.92H152.371C153.582 80.92 154.676 80.6661 155.652 80.1583C155.984 79.9825 156.355 79.6505 156.766 79.1622C157.195 78.674 157.527 78.1271 157.762 77.5216C157.801 77.4044 157.938 77.3458 158.172 77.3458C158.641 77.3458 158.934 77.4044 159.051 77.5216C158.074 80.2169 157.547 81.8966 157.469 82.5607C156.98 82.5607 156.336 82.5509 155.535 82.5314C154.754 82.5314 153.816 82.5216 152.723 82.5021C151.648 82.4825 150.672 82.463 149.793 82.4435C148.914 82.4044 148.133 82.4044 147.449 82.4435L143.172 82.6193Z" fill="white"/>
<path d="M140.975 82.7072C140.018 82.7072 139.139 82.6193 138.338 82.4435C137.557 82.2482 136.932 82.0333 136.463 81.799C135.975 81.5646 135.496 81.213 135.027 80.7443C134.793 80.5099 134.578 80.2853 134.383 80.0704C134.188 79.8556 133.973 79.5919 133.738 79.2794C133.523 78.9474 133.24 78.5177 132.889 77.9904C132.537 77.4435 132.078 76.7208 131.512 75.8224C130.75 74.67 130.242 74.045 129.988 73.9474C129.949 73.9279 129.842 73.9181 129.666 73.9181C129.49 73.9181 129.402 74.0743 129.402 74.3868V78.3712C129.402 79.4064 129.471 80.2072 129.607 80.7736C129.646 80.9298 129.812 81.0665 130.105 81.1837C130.398 81.3009 130.721 81.3888 131.072 81.4474C131.424 81.506 131.697 81.5353 131.893 81.5353C131.971 81.5353 132.01 81.7208 132.01 82.0919C132.01 82.2872 131.99 82.463 131.951 82.6193C130.779 82.5607 129.822 82.5118 129.08 82.4728C128.338 82.4337 127.801 82.424 127.469 82.4435L123.191 82.6193C123.113 82.5411 123.074 82.3751 123.074 82.1212C123.074 81.7306 123.113 81.5353 123.191 81.5353C123.348 81.5353 123.572 81.506 123.865 81.4474C124.158 81.3888 124.432 81.3107 124.686 81.213C124.939 81.0958 125.086 80.9884 125.125 80.8907C125.242 80.4415 125.301 79.5822 125.301 78.3126V67.2384C125.301 66.1447 125.242 65.3829 125.125 64.9532C125.086 64.8361 124.93 64.7189 124.656 64.6017C124.402 64.465 124.129 64.3575 123.836 64.2794C123.543 64.1818 123.318 64.1329 123.162 64.1329C123.084 64.1329 123.045 63.9572 123.045 63.6056C123.045 63.2931 123.074 63.1075 123.133 63.049C124.031 63.088 124.832 63.1271 125.535 63.1661C126.258 63.1857 126.893 63.1954 127.439 63.1954C128.377 63.1759 129.109 63.1661 129.637 63.1661C130.164 63.1661 130.564 63.1661 130.838 63.1661C131.111 63.1661 131.346 63.1661 131.541 63.1661C132.322 63.1661 133.104 63.2638 133.885 63.4591C134.686 63.6544 135.418 63.9572 136.082 64.3673C136.746 64.7579 137.273 65.2657 137.664 65.8907C138.074 66.4962 138.279 67.2286 138.279 68.088C138.279 68.9474 138.104 69.7482 137.752 70.4904C137.4 71.2325 136.941 71.8575 136.375 72.3654C135.828 72.8732 135.262 73.2247 134.676 73.42C134.52 73.4786 134.49 73.5861 134.588 73.7423C135.018 74.465 135.35 75.0118 135.584 75.3829C135.818 75.754 136.014 76.0568 136.17 76.2911C136.346 76.506 136.551 76.7794 136.785 77.1115C137.02 77.424 137.352 77.9025 137.781 78.547C138.113 79.0157 138.504 79.4845 138.953 79.9532C139.422 80.4025 139.92 80.7833 140.447 81.0958C140.994 81.3888 141.512 81.5353 142 81.5353C142.078 81.6134 142.117 81.7892 142.117 82.0626C142.117 82.297 142.078 82.4923 142 82.6486C141.863 82.6681 141.707 82.6779 141.531 82.6779C141.375 82.6974 141.189 82.7072 140.975 82.7072ZM130.633 72.3068H131.424C132.186 72.3068 132.771 71.9747 133.182 71.3107C133.611 70.6466 133.826 69.7677 133.826 68.674C133.826 66.0763 132.918 64.7775 131.102 64.7775C130.418 64.7775 129.969 64.8556 129.754 65.0118C129.52 65.1876 129.402 66.1447 129.402 67.8829V71.047C129.402 71.5939 129.51 71.9454 129.725 72.1017C129.959 72.2384 130.262 72.3068 130.633 72.3068Z" fill="white"/>
<path d="M113.025 82.6193C112.947 82.5411 112.908 82.3849 112.908 82.1505C112.908 81.7404 112.938 81.5353 112.996 81.5353C113.152 81.5353 113.377 81.4962 113.67 81.4181C113.963 81.34 114.236 81.2423 114.49 81.1251C114.744 81.0079 114.891 80.9005 114.93 80.8029C115.008 80.5294 115.057 80.1974 115.076 79.8068C115.115 79.4161 115.135 78.9669 115.135 78.4591V67.2091C115.135 65.9591 115.057 65.1974 114.9 64.924C114.842 64.8068 114.686 64.6993 114.432 64.6017C114.197 64.4845 113.953 64.3868 113.699 64.3087C113.445 64.2306 113.24 64.1915 113.084 64.1915C113.006 64.1915 112.967 64.0255 112.967 63.6935C112.967 63.3419 112.986 63.1466 113.025 63.1075L114.432 63.1954C114.861 63.2345 115.213 63.2638 115.486 63.2833C115.76 63.3029 116.023 63.3126 116.277 63.3126C116.551 63.2931 116.883 63.2833 117.273 63.2833C117.664 63.2833 119.031 63.2247 121.375 63.1075C121.434 63.2833 121.463 63.4591 121.463 63.6349C121.463 64.006 121.424 64.1915 121.346 64.1915C121.229 64.1915 121.023 64.2306 120.73 64.3087C120.438 64.3868 120.154 64.4845 119.881 64.6017C119.627 64.6993 119.48 64.797 119.441 64.8947C119.383 65.129 119.334 65.4611 119.295 65.8907C119.256 66.3009 119.236 66.6525 119.236 66.9454V78.2247C119.236 78.7716 119.256 79.2599 119.295 79.6896C119.334 80.1193 119.393 80.4904 119.471 80.8029C119.51 80.881 119.646 80.9786 119.881 81.0958C120.135 81.213 120.398 81.3204 120.672 81.4181C120.965 81.4962 121.17 81.5353 121.287 81.5353C121.365 81.5353 121.404 81.7208 121.404 82.0919C121.404 82.2872 121.385 82.463 121.346 82.6193C121.268 82.6193 121.082 82.6095 120.789 82.59C120.496 82.5704 120.096 82.5411 119.588 82.5021C119.08 82.463 118.631 82.4337 118.24 82.4142C117.85 82.3947 117.527 82.3849 117.273 82.3849C116.922 82.3849 116.443 82.4044 115.838 82.4435C115.232 82.4825 114.656 82.5118 114.109 82.5314C113.582 82.5704 113.221 82.5997 113.025 82.6193Z" fill="white"/>
<path d="M91.7266 82.6193C91.6484 82.5411 91.6094 82.3751 91.6094 82.1212C91.6094 81.7306 91.6289 81.5353 91.668 81.5353C91.8242 81.5353 92.0488 81.506 92.3418 81.4474C92.6543 81.3693 92.9375 81.2716 93.1914 81.1544C93.4453 81.0372 93.5918 80.9298 93.6309 80.8322C93.7676 80.3439 93.8359 79.5529 93.8359 78.4591V67.2677C93.8359 66.0372 93.7676 65.2755 93.6309 64.9825C93.5723 64.8263 93.416 64.6896 93.1621 64.5724C92.9277 64.4552 92.6738 64.3673 92.4004 64.3087C92.1465 64.2306 91.9414 64.1915 91.7852 64.1915C91.707 64.1915 91.668 63.9962 91.668 63.6056C91.668 63.3126 91.6875 63.1466 91.7266 63.1075L95.7988 63.2833C96.0527 63.3029 96.5312 63.2931 97.2344 63.254C97.957 63.215 98.9043 63.1661 100.076 63.1075C100.135 63.1857 100.164 63.3907 100.164 63.7228C100.164 64.0353 100.125 64.1915 100.047 64.1915C99.9297 64.1915 99.7246 64.2306 99.4316 64.3087C99.1582 64.3868 98.8848 64.4845 98.6113 64.6017C98.3574 64.6993 98.2109 64.797 98.1719 64.8947C98.0156 65.3243 97.9375 66.1544 97.9375 67.3849V71.545L97.9961 71.6329L101.512 71.6915C101.785 71.6915 102.205 71.6915 102.771 71.6915C103.338 71.672 104.061 71.6525 104.939 71.6329C104.979 71.5939 104.998 71.5548 104.998 71.5157V67.2677C104.998 66.213 104.93 65.4415 104.793 64.9532C104.754 64.8361 104.607 64.7189 104.354 64.6017C104.119 64.4845 103.865 64.3868 103.592 64.3087C103.318 64.2306 103.104 64.1915 102.947 64.1915C102.908 64.1915 102.869 64.1134 102.83 63.9572C102.811 63.8009 102.811 63.6349 102.83 63.4591C102.85 63.2638 102.879 63.1466 102.918 63.1075L107.283 63.2833C107.576 63.2833 108.895 63.2247 111.238 63.1075C111.297 63.2833 111.326 63.4591 111.326 63.6349C111.326 64.006 111.277 64.1915 111.18 64.1915C111.062 64.1915 110.857 64.2306 110.564 64.3087C110.291 64.3868 110.027 64.4845 109.773 64.6017C109.52 64.6993 109.373 64.797 109.334 64.8947C109.256 65.1876 109.197 65.5392 109.158 65.9493C109.119 66.3595 109.1 66.838 109.1 67.3849V78.3419C109.1 78.8693 109.119 79.338 109.158 79.7482C109.197 80.1583 109.256 80.5197 109.334 80.8322C109.373 80.9103 109.51 81.0079 109.744 81.1251C109.998 81.2228 110.262 81.3107 110.535 81.3888C110.828 81.4669 111.033 81.506 111.15 81.506C111.229 81.506 111.268 81.7111 111.268 82.1212C111.268 82.2775 111.238 82.4435 111.18 82.6193C111.102 82.6193 110.916 82.6095 110.623 82.59C110.33 82.5704 109.939 82.5411 109.451 82.5021C108.963 82.463 108.533 82.4337 108.162 82.4142C107.791 82.3947 107.479 82.3849 107.225 82.3849C106.971 82.3849 106.619 82.3947 106.17 82.4142C105.74 82.4337 105.291 82.463 104.822 82.5021C104.373 82.5216 103.963 82.5411 103.592 82.5607C103.221 82.5997 102.977 82.6193 102.859 82.6193C102.82 82.5607 102.791 82.4435 102.771 82.2677C102.752 82.0919 102.752 81.9259 102.771 81.7697C102.811 81.6134 102.85 81.5353 102.889 81.5353C103.045 81.5353 103.27 81.4962 103.562 81.4181C103.855 81.34 104.129 81.2423 104.383 81.1251C104.637 80.9884 104.783 80.8712 104.822 80.7736C104.939 80.3243 104.998 79.5529 104.998 78.4591V73.5665L104.939 73.4493L101.512 73.3907C99.0898 73.4103 97.8789 73.4396 97.8789 73.4786L97.9375 73.5372V78.3419C97.9375 78.8497 97.957 79.3087 97.9961 79.7189C98.0352 80.129 98.0938 80.4904 98.1719 80.8029C98.2109 80.881 98.3477 80.9786 98.582 81.0958C98.8359 81.213 99.0996 81.3204 99.373 81.4181C99.666 81.4962 99.8711 81.5353 99.9883 81.5353C100.066 81.5353 100.105 81.6818 100.105 81.9747C100.125 82.2677 100.105 82.4825 100.047 82.6193C99.0898 82.5607 98.2793 82.5118 97.6152 82.4728C96.9707 82.4142 96.3848 82.3849 95.8574 82.3849C95.2129 82.3849 94.5586 82.4142 93.8945 82.4728C93.25 82.5118 92.5273 82.5607 91.7266 82.6193Z" fill="white"/>
<path d="M76.0593 78.0001C76.0446 77.9464 76.03 77.886 76.0153 77.8189C76.0153 77.7518 76.0153 77.6847 76.0153 77.6176C76.0153 77.376 76.0446 77.2552 76.1033 77.2552C76.4703 77.2015 76.8373 77.1075 77.2043 76.9733C77.5859 76.8256 77.8428 76.6847 77.9749 76.5505L80.3529 74.1545C80.4263 74.0874 80.463 74.0135 80.463 73.933C80.463 73.8659 80.4336 73.8055 80.3749 73.7518L77.5566 70.5102C77.3657 70.282 77.1235 70.1008 76.83 69.9666C76.5511 69.8323 76.2942 69.7652 76.0593 69.7652C75.9859 69.7652 75.9492 69.631 75.9492 69.3625C75.9492 69.2015 75.9712 69.0807 76.0153 69.0001C76.9254 69.0538 77.63 69.0941 78.129 69.1209C78.6281 69.1344 78.929 69.1411 79.0318 69.1411C79.1052 69.1411 79.3914 69.1344 79.8905 69.1209C80.3896 69.0941 81.0942 69.0538 82.0043 69.0001C82.0483 69.0538 82.0703 69.1746 82.0703 69.3625C82.0703 69.6176 82.0336 69.7451 81.9602 69.7451C81.7547 69.7451 81.5345 69.7921 81.2997 69.886C81.0795 69.98 80.9694 70.0941 80.9694 70.2283C80.9694 70.2954 81.0061 70.376 81.0795 70.4699L82.4446 72.0203C82.885 71.4699 83.23 71.0605 83.4795 70.7921C83.729 70.5102 83.8538 70.3021 83.8538 70.1679C83.8538 69.886 83.3988 69.7451 82.4887 69.7451C82.43 69.7451 82.4006 69.6243 82.4006 69.3827C82.4006 69.1813 82.43 69.0538 82.4887 69.0001C83.3547 69.0538 84.0153 69.0941 84.4703 69.1209C84.94 69.1344 85.2116 69.1411 85.285 69.1411C85.3584 69.1411 85.6153 69.1344 86.0556 69.1209C86.496 69.0941 87.1052 69.0538 87.8832 69.0001C87.9272 69.0807 87.9492 69.2015 87.9492 69.3625C87.9492 69.6176 87.9272 69.7451 87.8832 69.7451C86.8556 69.839 86.2024 70.027 85.9235 70.3088L83.4795 72.7652C83.3914 72.8592 83.3474 72.933 83.3474 72.9867C83.3474 73.0672 83.3767 73.1344 83.4355 73.188L86.0777 76.2283C86.5914 76.8189 87.1859 77.1746 87.8611 77.2954C87.9199 77.2954 87.9492 77.4364 87.9492 77.7182C87.9492 77.8525 87.9199 77.9464 87.8611 78.0001C87.3033 77.9733 86.7896 77.9397 86.3199 77.8995C85.8648 77.8592 85.4098 77.839 84.9547 77.839C84.3676 77.839 83.8391 77.8592 83.3694 77.8995C82.9144 77.9397 82.43 77.9733 81.9162 78.0001L81.8722 77.7585C81.8722 77.4229 81.9015 77.2552 81.9602 77.2552C82.1511 77.2417 82.3639 77.1746 82.5988 77.0538C82.8483 76.9196 82.9731 76.7719 82.9731 76.6109C82.9731 76.5572 82.9364 76.4968 82.863 76.4297L81.4318 74.8995L80.1767 76.3491C80.074 76.4833 80.0226 76.6109 80.0226 76.7317C80.0226 76.8659 80.1474 76.9733 80.3969 77.0538C80.6024 77.1209 80.7859 77.1679 80.9474 77.1948C81.1235 77.2082 81.285 77.2283 81.4318 77.2552C81.4611 77.2552 81.4758 77.376 81.4758 77.6176C81.4758 77.8189 81.4465 77.9464 81.3878 78.0001C81.3144 77.9867 81.1162 77.9666 80.7933 77.9397C80.4703 77.9263 80.118 77.9062 79.7364 77.8793C79.3694 77.8525 79.0538 77.839 78.7896 77.839C78.2758 77.839 77.8061 77.8592 77.3804 77.8995C76.9547 77.9397 76.5144 77.9733 76.0593 78.0001Z" fill="white"/>
<path d="M56.5117 82.6193C56.4336 82.5411 56.3945 82.3751 56.3945 82.1212C56.3945 81.7306 56.4336 81.5353 56.5117 81.5353C56.668 81.5353 56.8926 81.506 57.1855 81.4474C57.4785 81.3888 57.752 81.3107 58.0059 81.213C58.2598 81.0958 58.4062 80.9884 58.4453 80.8907C58.5625 80.4415 58.6211 79.5822 58.6211 78.3126V67.2384C58.6211 66.1447 58.5625 65.3829 58.4453 64.9532C58.4062 64.8361 58.25 64.7189 57.9766 64.6017C57.7227 64.465 57.4492 64.3575 57.1562 64.2794C56.8633 64.1818 56.6387 64.1329 56.4824 64.1329C56.4043 64.1329 56.3652 63.9572 56.3652 63.6056C56.3652 63.2931 56.3945 63.1075 56.4531 63.049C57.2344 63.088 57.9766 63.1271 58.6797 63.1661C59.4023 63.1857 60.0957 63.1954 60.7598 63.1954C61.6191 63.1954 63.1328 63.1661 65.3008 63.1075C66.3945 63.088 67.3516 63.0782 68.1719 63.0782C68.9922 63.0587 69.6758 63.049 70.2227 63.049C70.2422 63.1466 70.3203 63.5568 70.457 64.2794C70.5938 65.0021 70.7988 66.0372 71.0723 67.3849C70.9746 67.4825 70.75 67.5314 70.3984 67.5314C70.1836 67.5314 70.0469 67.463 69.9883 67.3263C69.7539 66.8185 69.4023 66.3693 68.9336 65.9786C68.4844 65.5685 67.9863 65.2462 67.4395 65.0118C66.9121 64.7579 66.3945 64.631 65.8867 64.631H64.7734C63.5234 64.631 62.8887 64.7579 62.8691 65.0118C62.8301 65.2462 62.791 65.5587 62.752 65.9493C62.7324 66.3204 62.7227 66.7697 62.7227 67.297V71.8087C62.7227 71.9259 63.1426 71.9845 63.9824 71.9845H65.5352C66.7656 71.9845 67.4297 71.9454 67.5273 71.8673C67.625 71.7697 67.7031 71.4865 67.7617 71.0177C67.8008 70.7052 67.8594 70.422 67.9375 70.1681C67.957 70.0314 68.1035 69.963 68.377 69.963C68.709 69.963 68.9238 70.0118 69.0215 70.1095V75.6466C68.9434 75.7247 68.7383 75.7638 68.4062 75.7638C68.1523 75.7638 67.9961 75.6857 67.9375 75.5294C67.7031 74.7677 67.5469 74.299 67.4688 74.1232C67.3906 73.9865 67.332 73.9279 67.293 73.9474C67.2734 73.9474 67.2148 73.9083 67.1172 73.8302C66.8438 73.674 66.082 73.5958 64.832 73.5958C63.4258 73.5958 62.7227 73.6837 62.7227 73.8595V78.3712C62.7227 79.2892 62.8008 79.9825 62.957 80.4513C63.0352 80.7638 63.6992 80.92 64.9492 80.92H65.7109C66.9219 80.92 68.0156 80.6661 68.9922 80.1583C69.3242 79.9825 69.6953 79.6505 70.1055 79.1622C70.5352 78.674 70.8672 78.1271 71.1016 77.5216C71.1406 77.4044 71.2773 77.3458 71.5117 77.3458C71.9805 77.3458 72.2734 77.4044 72.3906 77.5216C71.4141 80.2169 70.8867 81.8966 70.8086 82.5607C70.3203 82.5607 69.6758 82.5509 68.875 82.5314C68.0938 82.5314 67.1562 82.5216 66.0625 82.5021C64.9883 82.4825 64.0117 82.463 63.1328 82.4435C62.2539 82.4044 61.4727 82.4044 60.7891 82.4435L56.5117 82.6193Z" fill="white"/>
<path d="M54.3145 82.7072C53.3574 82.7072 52.4785 82.6193 51.6777 82.4435C50.8965 82.2482 50.2715 82.0333 49.8027 81.799C49.3145 81.5646 48.8359 81.213 48.3672 80.7443C48.1328 80.5099 47.918 80.2853 47.7227 80.0704C47.5273 79.8556 47.3125 79.5919 47.0781 79.2794C46.8633 78.9474 46.5801 78.5177 46.2285 77.9904C45.877 77.4435 45.418 76.7208 44.8516 75.8224C44.0898 74.67 43.582 74.045 43.3281 73.9474C43.2891 73.9279 43.1816 73.9181 43.0059 73.9181C42.8301 73.9181 42.7422 74.0743 42.7422 74.3868V78.3712C42.7422 79.4064 42.8105 80.2072 42.9473 80.7736C42.9863 80.9298 43.1523 81.0665 43.4453 81.1837C43.7383 81.3009 44.0605 81.3888 44.4121 81.4474C44.7637 81.506 45.0371 81.5353 45.2324 81.5353C45.3105 81.5353 45.3496 81.7208 45.3496 82.0919C45.3496 82.2872 45.3301 82.463 45.291 82.6193C44.1191 82.5607 43.1621 82.5118 42.4199 82.4728C41.6777 82.4337 41.1406 82.424 40.8086 82.4435L36.5312 82.6193C36.4531 82.5411 36.4141 82.3751 36.4141 82.1212C36.4141 81.7306 36.4531 81.5353 36.5312 81.5353C36.6875 81.5353 36.9121 81.506 37.2051 81.4474C37.498 81.3888 37.7715 81.3107 38.0254 81.213C38.2793 81.0958 38.4258 80.9884 38.4648 80.8907C38.582 80.4415 38.6406 79.5822 38.6406 78.3126V67.2384C38.6406 66.1447 38.582 65.3829 38.4648 64.9532C38.4258 64.8361 38.2695 64.7189 37.9961 64.6017C37.7422 64.465 37.4688 64.3575 37.1758 64.2794C36.8828 64.1818 36.6582 64.1329 36.502 64.1329C36.4238 64.1329 36.3848 63.9572 36.3848 63.6056C36.3848 63.2931 36.4141 63.1075 36.4727 63.049C37.3711 63.088 38.1719 63.1271 38.875 63.1661C39.5977 63.1857 40.2324 63.1954 40.7793 63.1954C41.7168 63.1759 42.4492 63.1661 42.9766 63.1661C43.5039 63.1661 43.9043 63.1661 44.1777 63.1661C44.4512 63.1661 44.6855 63.1661 44.8809 63.1661C45.6621 63.1661 46.4434 63.2638 47.2246 63.4591C48.0254 63.6544 48.7578 63.9572 49.4219 64.3673C50.0859 64.7579 50.6133 65.2657 51.0039 65.8907C51.4141 66.4962 51.6191 67.2286 51.6191 68.088C51.6191 68.9474 51.4434 69.7482 51.0918 70.4904C50.7402 71.2325 50.2812 71.8575 49.7148 72.3654C49.168 72.8732 48.6016 73.2247 48.0156 73.42C47.8594 73.4786 47.8301 73.5861 47.9277 73.7423C48.3574 74.465 48.6895 75.0118 48.9238 75.3829C49.1582 75.754 49.3535 76.0568 49.5098 76.2911C49.6855 76.506 49.8906 76.7794 50.125 77.1115C50.3594 77.424 50.6914 77.9025 51.1211 78.547C51.4531 79.0157 51.8438 79.4845 52.293 79.9532C52.7617 80.4025 53.2598 80.7833 53.7871 81.0958C54.334 81.3888 54.8516 81.5353 55.3398 81.5353C55.418 81.6134 55.457 81.7892 55.457 82.0626C55.457 82.297 55.418 82.4923 55.3398 82.6486C55.2031 82.6681 55.0469 82.6779 54.8711 82.6779C54.7148 82.6974 54.5293 82.7072 54.3145 82.7072ZM43.9727 72.3068H44.7637C45.5254 72.3068 46.1113 71.9747 46.5215 71.3107C46.9512 70.6466 47.166 69.7677 47.166 68.674C47.166 66.0763 46.2578 64.7775 44.4414 64.7775C43.7578 64.7775 43.3086 64.8556 43.0938 65.0118C42.8594 65.1876 42.7422 66.1447 42.7422 67.8829V71.047C42.7422 71.5939 42.8496 71.9454 43.0645 72.1017C43.2988 72.2384 43.6016 72.3068 43.9727 72.3068Z" fill="white"/>
<path d="M26.3652 82.6193C26.2871 82.5411 26.248 82.3849 26.248 82.1505C26.248 81.7404 26.2773 81.5353 26.3359 81.5353C26.4922 81.5353 26.7168 81.4962 27.0098 81.4181C27.3027 81.34 27.5762 81.2423 27.8301 81.1251C28.084 81.0079 28.2305 80.9005 28.2695 80.8029C28.3477 80.5294 28.3965 80.1974 28.416 79.8068C28.4551 79.4161 28.4746 78.9669 28.4746 78.4591V67.2091C28.4746 65.9591 28.3965 65.1974 28.2402 64.924C28.1816 64.8068 28.0254 64.6993 27.7715 64.6017C27.5371 64.4845 27.293 64.3868 27.0391 64.3087C26.7852 64.2306 26.5801 64.1915 26.4238 64.1915C26.3457 64.1915 26.3066 64.0255 26.3066 63.6935C26.3066 63.3419 26.3262 63.1466 26.3652 63.1075L27.7715 63.1954C28.2012 63.2345 28.5527 63.2638 28.8262 63.2833C29.0996 63.3029 29.3633 63.3126 29.6172 63.3126C29.8906 63.2931 30.2227 63.2833 30.6133 63.2833C31.0039 63.2833 32.3711 63.2247 34.7148 63.1075C34.7734 63.2833 34.8027 63.4591 34.8027 63.6349C34.8027 64.006 34.7637 64.1915 34.6855 64.1915C34.5684 64.1915 34.3633 64.2306 34.0703 64.3087C33.7773 64.3868 33.4941 64.4845 33.2207 64.6017C32.9668 64.6993 32.8203 64.797 32.7812 64.8947C32.7227 65.129 32.6738 65.4611 32.6348 65.8907C32.5957 66.3009 32.5762 66.6525 32.5762 66.9454V78.2247C32.5762 78.7716 32.5957 79.2599 32.6348 79.6896C32.6738 80.1193 32.7324 80.4904 32.8105 80.8029C32.8496 80.881 32.9863 80.9786 33.2207 81.0958C33.4746 81.213 33.7383 81.3204 34.0117 81.4181C34.3047 81.4962 34.5098 81.5353 34.627 81.5353C34.7051 81.5353 34.7441 81.7208 34.7441 82.0919C34.7441 82.2872 34.7246 82.463 34.6855 82.6193C34.6074 82.6193 34.4219 82.6095 34.1289 82.59C33.8359 82.5704 33.4355 82.5411 32.9277 82.5021C32.4199 82.463 31.9707 82.4337 31.5801 82.4142C31.1895 82.3947 30.8672 82.3849 30.6133 82.3849C30.2617 82.3849 29.7832 82.4044 29.1777 82.4435C28.5723 82.4825 27.9961 82.5118 27.4492 82.5314C26.9219 82.5704 26.5605 82.5997 26.3652 82.6193Z" fill="white"/>
<path d="M5.06641 82.6193C4.98828 82.5411 4.94922 82.3751 4.94922 82.1212C4.94922 81.7306 4.96875 81.5353 5.00781 81.5353C5.16406 81.5353 5.38867 81.506 5.68164 81.4474C5.99414 81.3693 6.27734 81.2716 6.53125 81.1544C6.78516 81.0372 6.93164 80.9298 6.9707 80.8322C7.10742 80.3439 7.17578 79.5529 7.17578 78.4591V67.2677C7.17578 66.0372 7.10742 65.2755 6.9707 64.9825C6.91211 64.8263 6.75586 64.6896 6.50195 64.5724C6.26758 64.4552 6.01367 64.3673 5.74023 64.3087C5.48633 64.2306 5.28125 64.1915 5.125 64.1915C5.04688 64.1915 5.00781 63.9962 5.00781 63.6056C5.00781 63.3126 5.02734 63.1466 5.06641 63.1075L9.13867 63.2833C9.39258 63.3029 9.87109 63.2931 10.5742 63.254C11.2969 63.215 12.2441 63.1661 13.416 63.1075C13.4746 63.1857 13.5039 63.3907 13.5039 63.7228C13.5039 64.0353 13.4648 64.1915 13.3867 64.1915C13.2695 64.1915 13.0645 64.2306 12.7715 64.3087C12.498 64.3868 12.2246 64.4845 11.9512 64.6017C11.6973 64.6993 11.5508 64.797 11.5117 64.8947C11.3555 65.3243 11.2773 66.1544 11.2773 67.3849V71.545L11.3359 71.6329L14.8516 71.6915C15.125 71.6915 15.5449 71.6915 16.1113 71.6915C16.6777 71.672 17.4004 71.6525 18.2793 71.6329C18.3184 71.5939 18.3379 71.5548 18.3379 71.5157V67.2677C18.3379 66.213 18.2695 65.4415 18.1328 64.9532C18.0938 64.8361 17.9473 64.7189 17.6934 64.6017C17.459 64.4845 17.2051 64.3868 16.9316 64.3087C16.6582 64.2306 16.4434 64.1915 16.2871 64.1915C16.248 64.1915 16.209 64.1134 16.1699 63.9572C16.1504 63.8009 16.1504 63.6349 16.1699 63.4591C16.1895 63.2638 16.2188 63.1466 16.2578 63.1075L20.623 63.2833C20.916 63.2833 22.2344 63.2247 24.5781 63.1075C24.6367 63.2833 24.666 63.4591 24.666 63.6349C24.666 64.006 24.6172 64.1915 24.5195 64.1915C24.4023 64.1915 24.1973 64.2306 23.9043 64.3087C23.6309 64.3868 23.3672 64.4845 23.1133 64.6017C22.8594 64.6993 22.7129 64.797 22.6738 64.8947C22.5957 65.1876 22.5371 65.5392 22.498 65.9493C22.459 66.3595 22.4395 66.838 22.4395 67.3849V78.3419C22.4395 78.8693 22.459 79.338 22.498 79.7482C22.5371 80.1583 22.5957 80.5197 22.6738 80.8322C22.7129 80.9103 22.8496 81.0079 23.084 81.1251C23.3379 81.2228 23.6016 81.3107 23.875 81.3888C24.168 81.4669 24.373 81.506 24.4902 81.506C24.5684 81.506 24.6074 81.7111 24.6074 82.1212C24.6074 82.2775 24.5781 82.4435 24.5195 82.6193C24.4414 82.6193 24.2559 82.6095 23.9629 82.59C23.6699 82.5704 23.2793 82.5411 22.791 82.5021C22.3027 82.463 21.873 82.4337 21.502 82.4142C21.1309 82.3947 20.8184 82.3849 20.5645 82.3849C20.3105 82.3849 19.959 82.3947 19.5098 82.4142C19.0801 82.4337 18.6309 82.463 18.1621 82.5021C17.7129 82.5216 17.3027 82.5411 16.9316 82.5607C16.5605 82.5997 16.3164 82.6193 16.1992 82.6193C16.1602 82.5607 16.1309 82.4435 16.1113 82.2677C16.0918 82.0919 16.0918 81.9259 16.1113 81.7697C16.1504 81.6134 16.1895 81.5353 16.2285 81.5353C16.3848 81.5353 16.6094 81.4962 16.9023 81.4181C17.1953 81.34 17.4688 81.2423 17.7227 81.1251C17.9766 80.9884 18.123 80.8712 18.1621 80.7736C18.2793 80.3243 18.3379 79.5529 18.3379 78.4591V73.5665L18.2793 73.4493L14.8516 73.3907C12.4297 73.4103 11.2188 73.4396 11.2188 73.4786L11.2773 73.5372V78.3419C11.2773 78.8497 11.2969 79.3087 11.3359 79.7189C11.375 80.129 11.4336 80.4904 11.5117 80.8029C11.5508 80.881 11.6875 80.9786 11.9219 81.0958C12.1758 81.213 12.4395 81.3204 12.7129 81.4181C13.0059 81.4962 13.2109 81.5353 13.3281 81.5353C13.4062 81.5353 13.4453 81.6818 13.4453 81.9747C13.4648 82.2677 13.4453 82.4825 13.3867 82.6193C12.4297 82.5607 11.6191 82.5118 10.9551 82.4728C10.3105 82.4142 9.72461 82.3849 9.19727 82.3849C8.55273 82.3849 7.89844 82.4142 7.23438 82.4728C6.58984 82.5118 5.86719 82.5607 5.06641 82.6193Z" fill="white"/>
</svg>
