<svg width="400" height="400" viewBox="0 0 400 400" fill="none" xmlns="http://www.w3.org/2000/svg">
<path d="M360.664 226.16C349.816 254.464 327.64 285.104 296.44 294.16C249.296 307.872 243.64 344.888 159.216 341.456C146.895 341.012 134.656 339.263 122.704 336.24C116.872 334.744 111.138 332.888 105.536 330.68C56.2001 311.2 30.4721 268.4 28.3361 223.584C25.5121 164.64 67.7361 136.544 95.2001 120.096C122.664 103.648 155.704 39.904 238.744 42.64C251.415 43.0158 264.003 44.8137 276.272 48C304.216 55.368 332.616 71.656 349.128 95.472C350.36 97.264 351.544 99.0933 352.68 100.96C374.768 137.44 375.464 187.56 360.664 226.16Z" fill="#2B786C"/>
<path opacity="0.8" d="M360.664 226.16C349.816 254.464 327.64 285.104 296.44 294.16C249.296 307.872 243.64 344.888 159.216 341.456C146.895 341.012 134.656 339.263 122.704 336.24C116.872 334.744 111.138 332.888 105.536 330.68C56.2001 311.2 30.4721 268.4 28.3361 223.584C25.5121 164.64 67.7361 136.544 95.2001 120.096C122.664 103.648 155.704 39.904 238.744 42.64C251.415 43.0158 264.003 44.8137 276.272 48C304.216 55.368 332.616 71.656 349.128 95.472C350.36 97.264 351.544 99.0933 352.68 100.96C374.768 137.44 375.464 187.56 360.664 226.16Z" fill="white"/>
<path d="M130.96 341.112L121.024 332.416C120.669 332.108 120.235 331.906 119.772 331.833C119.308 331.759 118.833 331.817 118.4 332L115.544 329.504C115.401 329.378 115.227 329.292 115.04 329.256C117.122 326.801 118.171 323.634 117.965 320.422C117.76 317.209 116.316 314.202 113.938 312.032C111.56 309.862 108.434 308.699 105.216 308.788C101.998 308.877 98.9401 310.21 96.6854 312.508C94.4308 314.805 93.1551 317.887 93.1269 321.106C93.0988 324.325 94.3202 327.43 96.5343 329.766C98.7484 332.103 101.783 333.49 104.998 333.635C108.214 333.78 111.361 332.672 113.776 330.544C113.825 330.771 113.946 330.975 114.12 331.128L116.968 333.624C116.842 334.087 116.851 334.577 116.992 335.036C117.134 335.495 117.403 335.904 117.768 336.216L127.704 344.904C128.208 345.346 128.867 345.57 129.536 345.527C130.205 345.483 130.83 345.176 131.272 344.672C131.714 344.168 131.939 343.509 131.895 342.84C131.852 342.171 131.544 341.546 131.04 341.104L130.96 341.112ZM105.6 332.208C103.455 332.21 101.359 331.575 99.5747 330.384C97.7908 329.194 96.4002 327.501 95.5788 325.52C94.7573 323.539 94.542 321.359 94.96 319.255C95.378 317.152 96.4106 315.219 97.9271 313.703C99.4435 312.186 101.376 311.154 103.479 310.736C105.583 310.318 107.763 310.533 109.744 311.355C111.725 312.176 113.418 313.567 114.609 315.351C115.799 317.134 116.434 319.231 116.432 321.376C116.426 324.247 115.282 326.998 113.252 329.028C111.222 331.058 108.471 332.202 105.6 332.208Z" fill="#263238"/>
<path d="M195.816 38.768C195.816 40.864 194.496 42.56 192.864 42.56C191.232 42.56 189.92 40.864 189.92 38.768C189.92 36.672 191.24 34.984 192.864 34.984C194.488 34.984 195.816 36.68 195.816 38.768Z" stroke="#263238" stroke-linecap="round" stroke-linejoin="round"/>
<path d="M198.84 51.2H186.552L187.24 45.872C187.329 45.1961 187.66 44.5754 188.172 44.1253C188.684 43.6751 189.342 43.4259 190.024 43.424H195.376C196.058 43.4259 196.716 43.6751 197.228 44.1253C197.74 44.5754 198.071 45.1961 198.16 45.872L198.84 51.2Z" stroke="#263238" stroke-linecap="round" stroke-linejoin="round"/>
<path d="M209.6 38.768C209.6 40.864 208.28 42.56 206.656 42.56C205.032 42.56 203.704 40.864 203.704 38.768C203.704 36.672 205.024 34.984 206.656 34.984C208.288 34.984 209.6 36.68 209.6 38.768Z" stroke="#263238" stroke-linecap="round" stroke-linejoin="round"/>
<path d="M212.64 51.2H200.352L201.032 45.872C201.121 45.1961 201.452 44.5754 201.964 44.1253C202.476 43.6751 203.134 43.4259 203.816 43.424H209.168C209.85 43.4259 210.508 43.6751 211.02 44.1253C211.532 44.5754 211.863 45.1961 211.952 45.872L212.64 51.2Z" stroke="#263238" stroke-linecap="round" stroke-linejoin="round"/>
<path d="M223.4 38.768C223.4 40.864 222.08 42.56 220.456 42.56C218.832 42.56 217.512 40.864 217.512 38.768C217.512 36.672 218.824 34.984 220.456 34.984C222.088 34.984 223.4 36.68 223.4 38.768Z" fill="#2B786C" stroke="#263238" stroke-linecap="round" stroke-linejoin="round"/>
<path d="M226.4 51.2H214.144L214.832 45.872C214.908 45.1902 215.233 44.5602 215.743 44.1015C216.253 43.6429 216.914 43.3876 217.6 43.384H222.944C223.626 43.3842 224.285 43.6328 224.797 44.0833C225.31 44.5338 225.641 45.1554 225.728 45.832L226.4 51.2Z" fill="#2B786C" stroke="#263238" stroke-linecap="round" stroke-linejoin="round"/>
<path d="M237.192 38.768C237.192 40.864 235.872 42.56 234.248 42.56C232.624 42.56 231.304 40.864 231.304 38.768C231.304 36.672 232.624 34.984 234.248 34.984C235.872 34.984 237.192 36.68 237.192 38.768Z" stroke="#263238" stroke-linecap="round" stroke-linejoin="round"/>
<path d="M240.224 51.2H227.936L228.624 45.872C228.71 45.1947 229.04 44.5721 229.553 44.1213C230.066 43.6705 230.725 43.4225 231.408 43.424H236.752C237.435 43.4225 238.094 43.6705 238.607 44.1213C239.12 44.5721 239.45 45.1947 239.536 45.872L240.224 51.2Z" stroke="#263238" stroke-linecap="round" stroke-linejoin="round"/>
<path d="M250.992 38.768C250.992 40.864 249.672 42.56 248.04 42.56C246.408 42.56 245.096 40.864 245.096 38.768C245.096 36.672 246.416 34.984 248.04 34.984C249.664 34.984 250.992 36.68 250.992 38.768Z" stroke="#263238" stroke-linecap="round" stroke-linejoin="round"/>
<path d="M254.016 51.2H241.728L242.416 45.872C242.505 45.1961 242.836 44.5754 243.348 44.1253C243.86 43.6751 244.518 43.4259 245.2 43.424H250.544C251.227 43.424 251.887 43.6723 252.401 44.1226C252.914 44.573 253.247 45.1947 253.336 45.872L254.016 51.2Z" stroke="#263238" stroke-linecap="round" stroke-linejoin="round"/>
<path d="M264.8 38.768C264.8 40.864 263.48 42.56 261.856 42.56C260.232 42.56 258.904 40.864 258.904 38.768C258.904 36.672 260.224 34.984 261.856 34.984C263.488 34.984 264.8 36.68 264.8 38.768Z" stroke="#263238" stroke-linecap="round" stroke-linejoin="round"/>
<path d="M267.816 51.2H255.52L256.208 45.872C256.297 45.1961 256.628 44.5754 257.14 44.1253C257.652 43.6751 258.31 43.4259 258.992 43.424H264.344C265.026 43.4259 265.684 43.6751 266.196 44.1253C266.708 44.5754 267.039 45.1961 267.128 45.872L267.816 51.2Z" stroke="#263238" stroke-linecap="round" stroke-linejoin="round"/>
<path d="M97.2001 60.12C97.2001 60.328 97.2001 60.536 97.2001 60.744C97.1179 64.8663 95.4121 68.7895 92.4533 71.661C89.4946 74.5326 85.5221 76.1203 81.3992 76.0792C77.2763 76.0381 73.3363 74.3715 70.4354 71.4415C67.5345 68.5115 65.9072 64.5551 65.9072 60.432C65.9072 56.3089 67.5345 52.3524 70.4354 49.4225C73.3363 46.4925 77.2763 44.8259 81.3992 44.7848C85.5221 44.7437 89.4946 46.3314 92.4533 49.203C95.4121 52.0745 97.1179 55.9977 97.2001 60.12Z" fill="#2B786C" stroke="#263238" stroke-linecap="round" stroke-linejoin="round"/>
<path d="M81.4641 44.384V61.016H97.1601C97.1601 60.928 97.1601 60.84 97.1601 60.744C97.1601 60.648 97.1601 60.328 97.1601 60.12C97.1601 55.9535 95.5077 51.957 92.5653 49.0071C89.6229 46.0572 85.6306 44.3946 81.4641 44.384Z" fill="white" stroke="#263238" stroke-linecap="round" stroke-linejoin="round"/>
<path d="M118.256 40.8C118.256 42.888 116.936 44.584 115.312 44.584C113.688 44.584 112.368 42.888 112.368 40.8C112.368 38.712 113.68 37.008 115.312 37.008C116.944 37.008 118.256 38.672 118.256 40.8Z" stroke="#263238" stroke-linecap="round" stroke-linejoin="round"/>
<path d="M121.288 53.16H109L109.688 47.832C109.772 47.1532 110.102 46.5287 110.614 46.0763C111.127 45.6238 111.788 45.3747 112.472 45.376H117.816C118.499 45.3764 119.159 45.6261 119.672 46.0783C120.184 46.5304 120.514 47.1539 120.6 47.832L121.288 53.16Z" stroke="#263238" stroke-linecap="round" stroke-linejoin="round"/>
<path d="M59.2 71.36C59.2 73.456 57.88 75.152 56.256 75.152C54.632 75.152 53.312 73.456 53.312 71.36C53.312 69.264 54.624 67.576 56.256 67.576C57.888 67.576 59.2 69.272 59.2 71.36Z" stroke="#263238" stroke-linecap="round" stroke-linejoin="round"/>
<path d="M62.224 83.752H49.936L50.624 78.4C50.7205 77.7314 51.0555 77.1203 51.5671 76.6792C52.0787 76.2382 52.7325 75.9969 53.408 76H58.752C59.4271 75.9986 60.08 76.2404 60.5913 76.6812C61.1026 77.1219 61.438 77.7321 61.536 78.4L62.224 83.752Z" stroke="#263238" stroke-linecap="round" stroke-linejoin="round"/>
<path d="M93.936 50.44L97.752 46.624H108.296" stroke="#263238" stroke-linecap="round" stroke-linejoin="round"/>
<path d="M79.584 76.016V82.528H65.448" stroke="#263238" stroke-linecap="round" stroke-linejoin="round"/>
<path d="M370.896 225C370.896 225 371.552 218.448 368.928 215.496C366.304 212.544 362.376 216.152 363.328 220.088C364.28 224.024 370.896 225 370.896 225Z" fill="#2B786C"/>
<path d="M363.368 254.216C363.368 254.216 364.384 243.992 360.304 239.4C356.224 234.808 350.08 240.416 351.616 246.552C353.152 252.688 363.368 254.216 363.368 254.216Z" fill="#2B786C"/>
<path d="M361.152 270.768C361.152 270.768 360.032 260.56 355.08 256.912C350.128 253.264 345.296 260.04 348.064 265.712C350.832 271.384 361.152 270.768 361.152 270.768Z" fill="#2B786C"/>
<path d="M371.552 279.32C365.512 280.48 360.104 289.208 360.104 289.208C360.104 289.208 369.152 294.208 374.096 290.272C379.04 286.336 377.6 278.152 371.552 279.32Z" fill="#2B786C"/>
<path d="M373.552 294.696C364.912 296.36 357.176 308.848 357.176 308.848C357.176 308.848 370.112 316 377.176 310.376C384.24 304.752 382.192 293.032 373.552 294.696Z" fill="#2B786C"/>
<path d="M356.992 307.576C357.181 307.299 357.352 307.011 357.504 306.712C358.054 305.594 358.372 304.376 358.44 303.132C358.507 301.888 358.322 300.643 357.896 299.472C358.352 295.68 358.76 292.608 359.056 291.224C359.184 290.632 359.312 290.008 359.432 289.352H359.864C359.864 289.352 359.808 288.864 359.672 288.064C360.368 284.192 361.064 279.328 361.896 273.512C362.008 272.712 362.12 271.912 362.24 271.112C364.592 272.224 371.352 274.96 375.384 271.752C380.328 267.816 378.88 259.632 372.84 260.792C368.472 261.632 364.44 266.432 362.536 269.024C363.072 265.328 363.656 261.36 364.312 257.208C364.424 256.504 364.552 255.776 364.688 255.016C367.008 256.728 372.688 260.32 377.088 258.128C382.744 255.312 383.032 247 376.88 246.88C372.448 246.8 367.528 250.624 365.12 252.768C366.008 248.392 367.232 243.336 368.544 238.368C369.952 239.424 373.72 241.888 376.608 240.448C380.24 238.64 380.424 233.304 376.472 233.248C373.6 233.192 370.416 235.688 368.888 237.056C369.944 233.056 371.032 229.192 372.016 225.76C373.616 226.912 377.04 228.896 379.704 227.568C383.328 225.76 383.512 220.432 379.568 220.368C377.064 220.32 374.312 222.224 372.64 223.616C374.08 218.64 375.208 214.968 375.504 214.016C376.968 213.04 381.4 210.016 382.136 208.184C382.379 207.658 382.513 207.087 382.53 206.508C382.546 205.928 382.444 205.351 382.231 204.812C382.017 204.272 381.697 203.782 381.288 203.371C380.879 202.959 380.391 202.635 379.853 202.418C379.316 202.201 378.739 202.096 378.16 202.108C377.58 202.12 377.008 202.251 376.481 202.491C375.953 202.731 375.479 203.075 375.088 203.504C374.698 203.933 374.398 204.436 374.208 204.984C373.496 206.728 374.44 211.648 374.856 213.56L374.592 213.48C374.552 213.6 373.08 218.352 371.184 224.952L371.064 225.072L371.136 225.128C370.112 228.688 368.968 232.768 367.864 236.944C367.928 234.96 367.808 230.712 365.832 228.504C363.216 225.552 359.28 229.152 360.232 233.088C361.112 236.608 366.44 237.76 367.56 237.968C366.088 243.568 364.712 249.296 363.8 254.048L363.6 254.256L363.744 254.376C363.56 255.328 363.4 256.248 363.264 257.12C362.328 263.032 361.536 268.568 360.864 273.456C360.208 278.04 359.64 282.032 359.088 285.408C358.288 282.136 356.688 277.736 353.776 275.592C353.25 275.16 352.631 274.855 351.968 274.701C351.305 274.547 350.615 274.548 349.952 274.704C350.192 270.824 346.912 267.456 343.552 269.904C339.48 272.896 338.552 281.288 338.552 281.288C341.092 281.4 343.627 280.986 346 280.072C345.849 281.534 346.112 283.009 346.76 284.328C345.98 284.379 345.232 284.657 344.608 285.128C343.584 285.937 342.746 286.958 342.152 288.12C341.228 288.467 340.392 289.013 339.704 289.72C339.416 287.784 339.112 285.72 338.784 283.384C338.208 279.384 337.56 274.816 336.792 269.952C336.68 269.24 336.552 268.48 336.4 267.696L336.52 267.6L336.352 267.432C335.6 263.52 334.472 258.832 333.264 254.216C334.176 254.048 338.56 253.096 339.288 250.216C340.088 247.016 336.888 244.024 334.704 246.448C333.104 248.272 332.984 251.76 333.04 253.384C332.128 249.96 331.192 246.6 330.352 243.672L330.408 243.624L330.312 243.528C328.752 238.112 327.536 234.2 327.512 234.104L327.296 234.168C327.632 232.568 328.408 228.568 327.824 227.12C327.651 226.692 327.395 226.303 327.071 225.974C326.747 225.646 326.362 225.384 325.937 225.204C325.512 225.024 325.056 224.93 324.594 224.927C324.133 224.923 323.676 225.011 323.248 225.184C322.82 225.357 322.431 225.613 322.102 225.937C321.774 226.261 321.512 226.646 321.332 227.071C321.152 227.496 321.058 227.952 321.055 228.413C321.051 228.875 321.139 229.332 321.312 229.76C321.912 231.256 325.552 233.76 326.76 234.56C327 235.36 327.928 238.36 329.112 242.456C327.736 241.312 325.48 239.744 323.416 239.784C320.216 239.848 320.328 244.232 323.312 245.72C325.496 246.808 328.288 245.176 329.624 244.232C330.424 247.048 331.328 250.248 332.192 253.512C330.936 252.392 328.32 250.312 325.96 250.384C322.76 250.448 322.872 254.824 325.848 256.312C328.248 257.496 331.32 255.472 332.48 254.6C333.552 258.704 334.568 262.864 335.288 266.456C333.312 264.696 329.264 261.552 325.624 261.656C320.576 261.752 320.824 268.584 325.456 270.904C329.064 272.704 333.736 269.744 335.648 268.336C335.76 268.96 335.864 269.568 335.952 270.136C336.496 273.56 336.976 276.816 337.416 279.856C335.856 277.72 332.536 273.776 328.944 273.088C323.984 272.136 322.792 278.864 326.856 282.096C330.176 284.728 335.728 282.488 337.664 281.568C337.76 282.24 337.856 282.912 337.944 283.56C338.312 286.144 338.648 288.488 338.968 290.608C338.249 291.545 337.707 292.605 337.368 293.736C335.6 291.6 332.88 288.936 329.968 288.344C325 287.392 323.816 294.12 327.88 297.352C330.456 299.408 334.392 298.496 336.928 297.56C337.008 299.073 337.395 300.553 338.064 301.912C338.805 303.383 339.906 304.644 341.264 305.576C341.896 310.968 342.6 317.896 343.064 322.616H335.456V354.768H365.36V322.504H355.472C355.848 318.624 356.408 313.016 356.992 307.576ZM358.4 289.344C358.288 289.928 358.176 290.48 358.064 291.008C357.8 292.232 357.456 294.704 357.072 297.808C356.618 297.065 355.994 296.441 355.251 295.988C354.508 295.534 353.668 295.264 352.8 295.2C352.181 293.971 351.447 292.803 350.608 291.712C351.061 290.496 351.133 289.17 350.816 287.912C353.232 288.858 355.805 289.344 358.4 289.344ZM342.24 306.072C342.603 306.291 342.971 306.491 343.344 306.672C343.048 307.72 342.816 308.712 342.632 309.576C342.504 308.368 342.4 307.2 342.24 306.072ZM342.968 312.672C345.32 312.672 351.968 312.416 355.696 309.056H355.792C355.264 314.032 354.776 318.984 354.432 322.504H344C343.696 319.744 343.344 316.216 342.968 312.672Z" fill="#2B786C"/>
<path d="M336.752 239.552C337.552 236.352 334.352 233.352 332.168 235.784C329.984 238.216 330.568 243.592 330.568 243.592C330.568 243.592 335.944 242.784 336.752 239.552Z" fill="#2B786C"/>
<path d="M336.744 267.6C336.744 267.6 345.144 266.344 346.4 261.304C347.656 256.264 342.624 251.648 339.264 255.424C335.904 259.2 336.744 267.6 336.744 267.6Z" fill="#2B786C"/>
<path d="M328.368 300.872C321.272 299.504 319.568 309.136 325.384 313.76C331.2 318.384 341.832 312.504 341.832 312.504C341.832 312.504 335.472 302.24 328.368 300.872Z" fill="#2B786C"/>
<path d="M347.816 91.224H104.152C99.9546 91.224 96.552 94.6266 96.552 98.824V290.976C96.552 295.173 99.9546 298.576 104.152 298.576H347.816C352.013 298.576 355.416 295.173 355.416 290.976V98.824C355.416 94.6266 352.013 91.224 347.816 91.224Z" fill="#263238" stroke="#263238" stroke-linecap="round" stroke-linejoin="round"/>
<path d="M257.608 150.56H180.016V354.656H257.608V150.56Z" fill="#B0B0B0" stroke="#263238" stroke-linecap="round" stroke-linejoin="round"/>
<path d="M257.608 147.952H180.016V307.704H257.608V147.952Z" fill="#263238" stroke="#263238" stroke-linecap="round" stroke-linejoin="round"/>
<path d="M279.128 346.832H158.496V354.656H279.128V346.832Z" fill="#B0B0B0" stroke="#263238" stroke-linecap="round" stroke-linejoin="round"/>
<path d="M341.296 91.224H96.328C92.1307 91.224 88.728 94.6266 88.728 98.824V290.976C88.728 295.173 92.1307 298.576 96.328 298.576H341.296C345.493 298.576 348.896 295.173 348.896 290.976V98.824C348.896 94.6266 345.493 91.224 341.296 91.224Z" fill="#B0B0B0" stroke="#263238" stroke-linecap="round" stroke-linejoin="round"/>
<path d="M340.104 98.24H97.5281V291.576H340.104V98.24Z" fill="white" stroke="#263238" stroke-miterlimit="10"/>
<path d="M340.104 282.28H97.5281V291.568H340.104V282.28Z" fill="#707070" stroke="#263238" stroke-linecap="round" stroke-linejoin="round"/>
<path d="M340.104 98.24H97.5281V111.744H340.104V98.24Z" fill="#2B786C" stroke="#263238" stroke-linecap="round" stroke-linejoin="round"/>
<path d="M304.992 354.656H383.264" stroke="#263238" stroke-linecap="round" stroke-linejoin="round"/>
<path d="M25.4319 354.656H301.872" stroke="#263238" stroke-linecap="round" stroke-linejoin="round"/>
<path d="M70.632 354.656H41.504C41.504 354.656 41.4 353.688 41.32 352.208C41.112 348.616 41.024 342.056 42.848 339.528C45.416 335.96 57.352 342.312 57.352 342.312C57.352 342.312 62.8001 347.272 65.84 348.576C68.8801 349.88 69.752 349 70.192 351.184C70.264 351.552 70.3281 351.896 70.3841 352.208C70.5248 353.017 70.6077 353.835 70.632 354.656Z" fill="white" stroke="#263238" stroke-miterlimit="10"/>
<path d="M70.6321 354.656H41.5041C41.5041 354.656 41.4001 353.688 41.3201 352.208H70.4001C70.5355 353.017 70.613 353.835 70.6321 354.656Z" fill="white" stroke="#263238" stroke-miterlimit="10"/>
<path d="M44.232 234.304L46 279.904C46 279.904 40.4 292.568 41.952 302.44C43.504 312.312 41.448 344.464 41.448 344.464C41.448 344.464 41.952 345.984 48.024 345.984C54.096 345.984 55.112 341.68 55.112 341.68C55.112 341.68 60.176 283.96 60.712 279.656C61.248 275.352 67.04 235.608 67.04 235.608L44.232 234.304Z" fill="#263238" stroke="#263238" stroke-miterlimit="10"/>
<path d="M78.4799 354.656H49.3519C49.3519 354.656 49.2479 353.688 49.1679 352.208C48.9599 348.616 48.8719 342.056 50.6959 339.528C53.2639 335.96 65.1999 342.312 65.1999 342.312C65.1999 342.312 70.648 347.272 73.688 348.576C76.728 349.88 77.6 349 78.04 351.184C78.112 351.552 78.176 351.896 78.232 352.208C78.3727 353.017 78.4556 353.835 78.4799 354.656Z" fill="white" stroke="#263238" stroke-miterlimit="10"/>
<path d="M78.48 354.656H49.352C49.352 354.656 49.248 353.688 49.168 352.208H78.232C78.3728 353.017 78.4556 353.835 78.48 354.656Z" fill="white" stroke="#263238" stroke-miterlimit="10"/>
<path d="M68.9759 232.864C68.9759 232.864 71.5919 250.76 70.7199 259.024C69.8479 267.288 68.5439 296 66.8079 307.712C65.0719 319.424 63.8079 337.792 63.8079 337.792L65.1999 338.832V342.312C65.1999 342.312 59.2879 343.704 56.8559 344.048C55.2079 344.288 52.1039 344.608 50.2559 344.792C50.0856 344.808 49.9137 344.784 49.7544 344.722C49.5951 344.659 49.4527 344.56 49.3389 344.432C49.2251 344.305 49.1431 344.152 49.0995 343.986C49.0558 343.821 49.0519 343.647 49.0879 343.48L49.8879 339.528L50.7999 334.808C50.7999 334.808 45.9359 304.664 46.7999 299.448C47.6639 294.232 50.7119 282.064 50.7119 280.76C50.7119 279.456 46.3999 256.848 45.5119 252.936C44.6239 249.024 41.1599 238.592 41.1599 232.936C41.1599 227.28 68.9759 232.864 68.9759 232.864Z" fill="#263238" stroke="#263238" stroke-miterlimit="10"/>
<path d="M62.896 173.6C62.896 173.6 69.2 182.512 71.152 184.256C73.104 186 79.416 189.472 79.2 192.296C78.984 195.12 78.328 198.384 74.848 199.904C71.368 201.424 64 196.424 64 196.424L62.896 173.6Z" fill="white" stroke="#263238" stroke-miterlimit="10"/>
<path d="M72.4638 184.904C72.4638 184.904 70.2878 190.56 70.0638 192.728C69.8398 194.896 69.6238 198.6 71.3678 200.12C73.0399 201.486 75.0818 202.322 77.2318 202.52C78.5358 202.52 78.9758 193.824 79.1918 192.304C79.4078 190.784 80.7118 187.504 79.4078 186C78.1038 184.496 74.1998 184.256 72.4638 184.904Z" fill="white" stroke="#263238" stroke-miterlimit="10"/>
<path d="M77.0718 165.208C75.5438 165.848 73.8718 164.584 72.9598 163.208C72.0478 161.832 71.3598 160.16 69.8958 159.36C69.4398 159.104 68.8958 158.92 68.6718 158.448C68.2878 157.648 69.2238 156.768 70.1038 156.76C70.9838 156.752 73.5678 158.84 74.4078 159.16C77.2878 160.12 78.6158 156.88 81.6078 157.064C81.9695 157.051 82.3248 157.161 82.6158 157.376C82.9278 157.664 83.1198 160.728 83.1678 161.152C83.7038 166.432 83.0558 169.272 83.0718 179.296C83.0718 183.152 83.2718 189.696 83.2398 195.848C83.2398 198.352 82.9598 199.744 79.3118 201.752C75.6638 203.76 72.2958 197.624 72.1678 195.936C71.9758 193.336 73.1198 190.264 73.6718 187.76C74.9198 182.264 76.9758 170.808 77.0718 165.208Z" fill="white" stroke="#263238" stroke-miterlimit="10"/>
<path d="M75.584 156.368C75.584 156.368 75.432 156.128 75.184 155.808C74.632 155.08 73.584 153.88 72.784 153.92C71.624 153.976 68.064 156.424 68.896 157.48C69.728 158.536 72.696 156.216 72.696 156.216L74.608 159.728L77.536 159.312L75.584 156.368Z" fill="white" stroke="#263238" stroke-miterlimit="10"/>
<path d="M76.0639 156C76.0639 156 74.3039 156.8 74.4639 159.736C74.6239 162.672 75.9839 163.056 76.5599 162.728C77.8924 162.334 79.254 162.045 80.6319 161.864C80.9211 161.816 81.1886 161.68 81.3987 161.476C81.6089 161.271 81.7516 161.008 81.8079 160.72C81.9359 160.08 82.1759 159.032 82.6079 157.344C83.6879 153.6 76.0639 156 76.0639 156Z" fill="white" stroke="#263238" stroke-miterlimit="10"/>
<path d="M77.3279 155.832C76.8905 156.849 76.6589 157.942 76.6465 159.049C76.6342 160.156 76.8413 161.254 77.2559 162.28" stroke="#263238" stroke-miterlimit="10"/>
<path d="M80.0399 155.352C80.0399 155.352 78.6559 159.4 79.7119 161.92" stroke="#263238" stroke-miterlimit="10"/>
<path d="M78.1121 163.824C78.1121 163.824 78.2081 164.28 79.5201 165.048C80.8321 165.816 82.2721 164.768 82.5361 164.712" stroke="#263238" stroke-miterlimit="10"/>
<path d="M51.328 150.776L50.752 161.48L62.256 168.68L65.512 154.376L56.312 134.376C56.312 134.376 53.752 132.848 51.704 137.24C49.656 141.632 51.872 146 51.872 146L51.328 150.776Z" fill="white" stroke="#263238" stroke-miterlimit="10"/>
<path d="M70.952 132.376L74.296 141.056L72.04 142.6C72.04 142.6 74.144 152.104 72.84 154.016C71.536 155.928 63.6 155.472 62.4 155.2C61.2 154.928 55.792 138.608 55.792 138.608C55.792 138.608 55.464 136.08 53.512 138.288C51.56 140.496 55.408 144.936 55.408 144.936L51.32 150.776C51.32 150.776 39.496 141.072 40 135.512C40.504 129.952 46.36 122.768 58.816 120.68C71.272 118.592 76 128 74.776 130.136C74.3592 130.783 73.7959 131.323 73.1315 131.713C72.4672 132.102 71.7205 132.329 70.952 132.376Z" fill="#263238" stroke="#263238" stroke-miterlimit="10"/>
<path d="M70.6799 146.152C69.2399 146.528 69.3199 149.704 69.3199 149.704C70.0083 149.917 70.7507 149.871 71.4079 149.576C71.9966 149.296 72.5499 148.947 73.0559 148.536C72.9359 147.52 72.7759 146.504 72.6159 145.6C71.9999 145.792 71.2799 145.992 70.6799 146.152Z" fill="white" stroke="#263238" stroke-miterlimit="10"/>
<path d="M61.7279 135.696C61.3359 137.208 57.4399 138.68 57.4399 138.68L58.4399 140.912C58.4399 140.912 61.6399 148.056 62.9919 149.32C64.3439 150.584 66.2479 150.008 65.7279 149.44C65.2079 148.872 66.1919 146.24 68.4479 144.744C69.5828 143.982 70.8152 143.377 72.1119 142.944C72.1119 142.728 72.0399 142.6 72.0399 142.6L74.2959 141.056L70.9519 132.376L62.0399 131C62.0904 132.572 61.9858 134.145 61.7279 135.696Z" fill="white" stroke="#263238" stroke-miterlimit="10"/>
<path d="M69.6001 137.712C69.7361 138.576 69.6001 139.312 69.2321 139.376C68.8641 139.44 68.5281 138.76 68.4321 137.896C68.3361 137.032 68.4321 136.296 68.8001 136.232C69.1681 136.168 69.4561 136.84 69.6001 137.712Z" fill="#263238"/>
<path d="M69.5439 134.248C69.5439 134.248 68.2319 133.032 67.1999 134.152C66.9092 134.398 66.7129 134.738 66.6443 135.113C66.5758 135.488 66.6392 135.875 66.8239 136.208" stroke="#263238" stroke-width="0.75" stroke-linecap="round" stroke-linejoin="round"/>
<path d="M51.6799 158.144C51.6799 158.144 43.1039 166.352 41.5999 170.832C40.0959 175.312 38.1279 214.32 38.9199 220.888C39.7119 227.456 40.5759 235.496 40.5759 235.496C40.5759 235.496 42.7839 238.024 47.9999 238.4C70.1599 240.072 69.0159 232.856 69.0159 232.856C69.0159 232.856 68.888 186.552 68.152 181.2C67.416 175.848 61.1199 165.528 58.3039 162.968C56.2354 161.177 54.0196 159.563 51.6799 158.144Z" fill="white" stroke="#263238" stroke-miterlimit="10"/>
<path d="M62.0081 170.728L66.9601 179.584C66.9601 179.584 69.0401 177.24 68.2561 175.416C67.4721 173.592 62.0081 170.728 62.0081 170.728Z" fill="#2B786C" stroke="#263238" stroke-linecap="round" stroke-linejoin="round"/>
<path d="M66.9599 179.584L65.0559 219.992L69.1759 228.624L71.8799 218.064L67.9999 178.8L66.9599 179.584Z" fill="#2B786C" stroke="#263238" stroke-linecap="round" stroke-linejoin="round"/>
<path d="M49.448 154.608L65.888 168.984L65.376 173.904L47.624 160.864L49.448 154.608Z" fill="white" stroke="#263238" stroke-miterlimit="10"/>
<path d="M46.856 209.256L67.144 243.784C67.144 243.784 70.192 251.504 70.936 251.712C71.68 251.92 76.112 252.448 76.112 252.448L78.352 253.328C78.352 253.328 79.848 253.992 80.048 253C80.248 252.008 78.776 244.496 78.032 244.288C77.288 244.08 72.192 241.888 72.192 241.888L58 204.8L46.856 209.256Z" fill="white" stroke="#263238" stroke-miterlimit="10"/>
<path d="M48.3279 170.288C48.3279 170.288 42.6239 173.976 42.4319 180.352C42.2654 184.719 42.8804 189.081 44.2479 193.232C44.8079 194.68 42.9679 197.232 44.5279 199.336C46.0879 201.44 47.6239 208 47.6239 208L57.5999 205.832C57.5999 205.832 55.6719 201.272 56.7999 200C57.9279 198.728 59.3839 197.672 59.2479 194.744C59.0947 192.349 59.3133 189.944 59.8959 187.616C60.3279 186.4 60.5359 169.72 48.3279 170.288Z" fill="white" stroke="#263238" stroke-miterlimit="10"/>
<path d="M45.0479 205.192L46.9839 209.992L59.0879 207.2L57.8319 201.136C57.8319 201.136 47.3839 202.88 45.0479 205.192Z" fill="white" stroke="#263238" stroke-miterlimit="10"/>
<path d="M332.072 166.312H232.616V277.464H332.072V166.312Z" fill="#263238" stroke="#263238" stroke-linecap="round" stroke-linejoin="round"/>
<path d="M329.648 161.048H228.624V274.696H329.648V161.048Z" fill="white" stroke="#263238" stroke-linecap="round" stroke-linejoin="round"/>
<path d="M329.648 161.048H251.344V274.696H329.648V161.048Z" fill="white" stroke="#263238" stroke-linecap="round" stroke-linejoin="round"/>
<path d="M329.648 161.048H228.624V168.704H329.648V161.048Z" fill="#263238" stroke="#263238" stroke-miterlimit="10"/>
<path d="M275.56 172.576H255.704V196.792H275.56V172.576Z" fill="#2B786C" stroke="#263238" stroke-miterlimit="10"/>
<path d="M259.656 179.872C259.656 179.872 260.096 186.472 259.216 186.912C258.725 187.172 258.166 187.273 257.616 187.2C258.232 188.412 259.275 189.352 260.544 189.84C262.6 190.576 264.208 188.672 264.208 188.672L262.008 179.576L259.656 179.872Z" fill="#263238" stroke="#263238" stroke-linecap="round" stroke-linejoin="round"/>
<path d="M255.704 196.792L258.672 190.48L267.352 189.168L273.416 192.28L275.56 196.792H255.704Z" fill="white" stroke="#263238" stroke-linecap="round" stroke-linejoin="round"/>
<path d="M260.304 190.448L261.584 195L268.4 190.312L265.96 188.376L260.304 190.448Z" fill="white" stroke="#263238" stroke-linecap="round" stroke-linejoin="round"/>
<path d="M267.848 186.224L267.352 189.168L262.112 192.936L261.456 189.336L267.848 186.224Z" fill="white" stroke="#263238" stroke-linecap="round" stroke-linejoin="round"/>
<path d="M259.784 181.6C259.784 181.6 259.48 188.432 261.704 189.64C263.928 190.848 268.504 186.76 269.016 186.248C269.528 185.736 272.264 185.04 272.264 182.8C272.264 180.56 270.56 181.088 270.56 181.088C270.56 181.088 271.584 178.16 271.072 176.952C270.56 175.744 263.464 175.352 261.24 176.704C259.016 178.056 259.784 181.6 259.784 181.6Z" fill="white" stroke="#263238" stroke-linecap="round" stroke-linejoin="round"/>
<path d="M266.696 179.872C266.362 180.23 266.176 180.702 266.176 181.192C266.176 181.682 266.362 182.154 266.696 182.512C267.61 183.838 267.976 185.466 267.72 187.056C267.576 188.08 265.96 188.376 265.96 188.376C265.96 188.376 266.4 189.256 268.304 189.84C270.208 190.424 273.24 190.064 274.264 187.136C275.288 184.208 272.848 178.112 271.976 176.504C271.104 174.896 265.96 173.568 262.592 174.304C259.224 175.04 257.896 177.088 258.192 178.408C258.488 179.728 259.36 180.456 261.56 180.456C263.285 180.399 265.002 180.204 266.696 179.872Z" fill="#263238" stroke="#263238" stroke-linecap="round" stroke-linejoin="round"/>
<path d="M260.568 181.648C260.812 181.546 261.079 181.516 261.34 181.559C261.6 181.603 261.843 181.72 262.04 181.896" stroke="#263238" stroke-linecap="round" stroke-linejoin="round"/>
<path d="M262.112 183.112L261.64 185.416L263.112 185.256" stroke="#263238" stroke-linecap="round" stroke-linejoin="round"/>
<path d="M264.616 183.384C264.616 183.72 264.456 183.992 264.256 183.992C264.056 183.992 263.904 183.72 263.904 183.384C263.904 183.048 264.064 182.776 264.256 182.776C264.448 182.776 264.616 183.048 264.616 183.384Z" fill="#263238"/>
<path d="M261.552 183.096C261.552 183.432 261.4 183.704 261.2 183.704C261 183.704 260.848 183.432 260.848 183.096C260.848 182.76 261 182.496 261.2 182.496C261.4 182.496 261.552 182.768 261.552 183.096Z" fill="#263238"/>
<path d="M263.544 181.928C264.205 181.816 264.885 181.94 265.464 182.28" stroke="#263238" stroke-linecap="round" stroke-linejoin="round"/>
<path d="M261.6 187.264C262.112 187.38 262.641 187.389 263.156 187.29C263.671 187.191 264.16 186.986 264.592 186.688" stroke="#263238" stroke-linecap="round" stroke-linejoin="round"/>
<path d="M325.232 172.408H280.4V181.248H325.232V172.408Z" fill="white" stroke="#263238" stroke-linecap="round" stroke-linejoin="round"/>
<path d="M288.016 173.304L288.728 175.504H291.04L289.168 176.856L289.888 179.048L288.016 177.696L286.152 179.048L286.864 176.856L285 175.504H287.304L288.016 173.304Z" fill="#2B786C"/>
<path d="M296.048 173.304L296.76 175.504H299.072L297.2 176.856L297.912 179.048L296.048 177.696L294.184 179.048L294.896 176.856L293.032 175.504H295.336L296.048 173.304Z" fill="#2B786C"/>
<path d="M304.08 173.304L304.8 175.504H307.104L305.24 176.856L305.952 179.048L304.08 177.696L302.216 179.048L302.928 176.856L301.064 175.504H303.368L304.08 173.304Z" fill="#2B786C"/>
<path d="M312.112 173.304L312.832 175.504H315.136L313.272 176.856L313.984 179.048L312.112 177.696L310.248 179.048L310.96 176.856L309.096 175.504H311.4L312.112 173.304Z" fill="#DBDBDB"/>
<path d="M320.152 173.304L320.864 175.504H323.168L321.304 176.856L322.016 179.048L320.152 177.696L318.28 179.048L318.992 176.856L317.128 175.504H319.44L320.152 173.304Z" fill="#DBDBDB"/>
<path d="M325.232 185.672H280.4V234.92H325.232V185.672Z" fill="white" stroke="#263238" stroke-linecap="round" stroke-linejoin="round"/>
<path d="M325.232 238.704H280.4V271.536H325.232V238.704Z" fill="white" stroke="#263238" stroke-linecap="round" stroke-linejoin="round"/>
<path d="M256.496 202.928H273.928" stroke="#263238" stroke-linecap="round" stroke-linejoin="round"/>
<path d="M256.496 223.128H273.928" stroke="#263238" stroke-linecap="round" stroke-linejoin="round"/>
<path d="M230.528 202.064H247.952" stroke="#263238" stroke-linecap="round" stroke-linejoin="round"/>
<path d="M230.528 182.152H247.952" stroke="#263238" stroke-linecap="round" stroke-linejoin="round"/>
<path d="M230.528 175.232H247.952" stroke="#263238" stroke-linecap="round" stroke-linejoin="round"/>
<path d="M256.496 229.024H273.928" stroke="#263238" stroke-linecap="round" stroke-linejoin="round"/>
<path d="M256.496 234.92H273.928" stroke="#263238" stroke-linecap="round" stroke-linejoin="round"/>
<path d="M256.496 240.808H273.928" stroke="#263238" stroke-linecap="round" stroke-linejoin="round"/>
<path d="M256.496 246.704H273.928" stroke="#263238" stroke-linecap="round" stroke-linejoin="round"/>
<path d="M256.496 252.6H273.928" stroke="#263238" stroke-linecap="round" stroke-linejoin="round"/>
<path d="M256.496 258.488H273.928" stroke="#263238" stroke-linecap="round" stroke-linejoin="round"/>
<path d="M256.496 264.384H273.928" stroke="#263238" stroke-linecap="round" stroke-linejoin="round"/>
<path d="M256.496 205.304H268.032" stroke="#263238" stroke-linecap="round" stroke-linejoin="round"/>
<path d="M280.4 211.344H251.776V218.92H280.4V211.344Z" fill="#2B786C" stroke="#263238" stroke-linecap="round" stroke-linejoin="round"/>
<path d="M251.488 187.776H229.048V195.352H251.488V187.776Z" fill="#2B786C" stroke="#263238" stroke-linecap="round" stroke-linejoin="round"/>
<path d="M283.344 189.88H305.232" stroke="#263238" stroke-linecap="round" stroke-linejoin="round"/>
<path d="M283.344 245.44H305.232" stroke="#263238" stroke-linecap="round" stroke-linejoin="round"/>
<path d="M283.344 198.296H295.552" stroke="#263238" stroke-linecap="round" stroke-linejoin="round"/>
<path d="M283.344 204.192H295.552" stroke="#263238" stroke-linecap="round" stroke-linejoin="round"/>
<path d="M283.344 210.08H295.552" stroke="#263238" stroke-linecap="round" stroke-linejoin="round"/>
<path d="M283.344 215.976H295.552" stroke="#263238" stroke-linecap="round" stroke-linejoin="round"/>
<path d="M283.344 221.872H295.552" stroke="#263238" stroke-linecap="round" stroke-linejoin="round"/>
<path d="M283.344 227.76H295.552" stroke="#263238" stroke-linecap="round" stroke-linejoin="round"/>
<path d="M301.024 198.296H313.232" stroke="#263238" stroke-linecap="round" stroke-linejoin="round"/>
<path d="M301.024 204.192H313.232" stroke="#263238" stroke-linecap="round" stroke-linejoin="round"/>
<path d="M301.024 210.08H313.232" stroke="#263238" stroke-linecap="round" stroke-linejoin="round"/>
<path d="M301.024 215.976H313.232" stroke="#263238" stroke-linecap="round" stroke-linejoin="round"/>
<path d="M301.024 221.872H313.232" stroke="#263238" stroke-linecap="round" stroke-linejoin="round"/>
<path d="M301.024 227.76H313.232" stroke="#263238" stroke-linecap="round" stroke-linejoin="round"/>
<path d="M283.344 192.4H314.496" stroke="#263238" stroke-linecap="round" stroke-linejoin="round"/>
<path d="M325.016 249.648H280.4V252.176H325.016V249.648Z" fill="#263238" stroke="#263238" stroke-linecap="round" stroke-linejoin="round"/>
<path d="M244.616 162.936V166.728" stroke="white" stroke-linecap="round" stroke-linejoin="round"/>
<path d="M268.328 162.936V166.728" stroke="white" stroke-linecap="round" stroke-linejoin="round"/>
<path d="M292.048 162.936V166.728" stroke="white" stroke-linecap="round" stroke-linejoin="round"/>
<path d="M315.76 162.936V166.728" stroke="white" stroke-linecap="round" stroke-linejoin="round"/>
<path d="M211.048 132.136H111.592V243.288H211.048V132.136Z" fill="#263238" stroke="#263238" stroke-linecap="round" stroke-linejoin="round"/>
<path d="M208.576 126.52H107.552V240.168H208.576V126.52Z" fill="white" stroke="#263238" stroke-linecap="round" stroke-linejoin="round"/>
<path d="M208.576 126.52H130.272V240.168H208.576V126.52Z" fill="white" stroke="#263238" stroke-linecap="round" stroke-linejoin="round"/>
<path d="M208.576 126.52H107.552V134.176H208.576V126.52Z" fill="#263238" stroke="#263238" stroke-miterlimit="10"/>
<path d="M154.488 138.056H134.632V162.272H154.488V138.056Z" fill="#2B786C" stroke="#263238" stroke-miterlimit="10"/>
<path d="M134.632 162.272L137.6 155.96L146.28 154.648L152.344 157.76L154.488 162.272H134.632Z" fill="white" stroke="#263238" stroke-linecap="round" stroke-linejoin="round"/>
<path d="M139.232 155.928L140.512 160.472L147.328 155.784L144.888 153.856L139.232 155.928Z" fill="white" stroke="#263238" stroke-linecap="round" stroke-linejoin="round"/>
<path d="M146.776 151.704L146.28 154.648L141.04 158.416L140.384 154.816L146.776 151.704Z" fill="#A1A1A1" stroke="#263238" stroke-linecap="round" stroke-linejoin="round"/>
<path d="M138.736 146.456C138.358 145.952 138.099 145.37 137.978 144.752C137.858 144.134 137.879 143.497 138.04 142.888C138.64 140.904 141.416 139.312 145.184 139.312C146.636 139.236 148.067 139.686 149.215 140.579C150.362 141.473 151.149 142.75 151.432 144.176C152.024 146.656 149.648 150.128 148.952 150.32C148.256 150.512 147.96 150.92 147.352 150.52C146.744 150.12 146.552 144.768 145.168 144.472C143.784 144.176 140.112 144.672 140.112 144.672L138.736 146.456Z" fill="#263238"/>
<path d="M138.712 147.064C138.712 147.064 138.408 153.896 140.632 155.064C142.856 156.232 147.432 152.192 147.944 151.672C148.456 151.152 150.04 151.24 150.04 149C150.04 146.76 147.76 147.808 147.76 147.808C147.76 147.808 146.248 147.304 146.072 146.624C145.896 145.944 147.032 144.96 146.768 144.344C146.256 143.136 142.848 141.376 140.624 142.744C138.4 144.112 138.712 147.064 138.712 147.064Z" fill="#A1A1A1" stroke="#263238" stroke-linecap="round" stroke-linejoin="round"/>
<path d="M139.496 147.128C139.739 147.026 140.006 146.995 140.266 147.037C140.527 147.08 140.77 147.194 140.968 147.368" stroke="#263238" stroke-linecap="round" stroke-linejoin="round"/>
<path d="M141.04 148.592L140.568 150.896L142.048 150.728" stroke="#263238" stroke-linecap="round" stroke-linejoin="round"/>
<path d="M143.544 148.864C143.544 149.2 143.384 149.464 143.184 149.464C142.984 149.464 142.832 149.2 142.832 148.864C142.832 148.528 142.992 148.256 143.184 148.256C143.376 148.256 143.544 148.528 143.544 148.864Z" fill="#263238"/>
<path d="M140.48 148.576C140.48 148.912 140.328 149.184 140.128 149.184C139.928 149.184 139.776 148.912 139.776 148.576C139.776 148.24 139.928 147.976 140.128 147.976C140.328 147.976 140.48 148.24 140.48 148.576Z" fill="#263238"/>
<path d="M142.472 147.408C143.133 147.295 143.813 147.42 144.392 147.76" stroke="#263238" stroke-linecap="round" stroke-linejoin="round"/>
<path d="M140.552 152.736C140.552 152.736 142.408 153.168 143.544 152.168" stroke="#263238" stroke-linecap="round" stroke-linejoin="round"/>
<path d="M204.16 137.888H159.328V146.728H204.16V137.888Z" fill="white" stroke="#263238" stroke-linecap="round" stroke-linejoin="round"/>
<path d="M164.584 139.232L165.296 141.424H167.6L165.736 142.784L166.448 144.976L164.584 143.616L162.72 144.976L163.432 142.784L161.568 141.424H163.872L164.584 139.232Z" fill="#2B786C"/>
<path d="M172.616 139.232L173.328 141.424H175.632L173.768 142.784L174.48 144.976L172.616 143.616L170.752 144.976L171.464 142.784L169.6 141.424H171.904L172.616 139.232Z" fill="#919191"/>
<path d="M180.648 139.232L181.36 141.424H183.664L181.8 142.784L182.512 144.976L180.648 143.616L178.784 144.976L179.496 142.784L177.632 141.424H179.936L180.648 139.232Z" fill="#919191"/>
<path d="M188.68 139.232L189.392 141.424H191.696L189.832 142.784L190.544 144.976L188.68 143.616L186.816 144.976L187.528 142.784L185.664 141.424H187.968L188.68 139.232Z" fill="#919191"/>
<path d="M196.712 139.232L197.424 141.424H199.728L197.864 142.784L198.576 144.976L196.712 143.616L194.848 144.976L195.56 142.784L193.696 141.424H196L196.712 139.232Z" fill="#919191"/>
<path d="M204.16 151.144H159.328V200.392H204.16V151.144Z" fill="white" stroke="#263238" stroke-linecap="round" stroke-linejoin="round"/>
<path d="M204.16 204.184H159.328V237.016H204.16V204.184Z" fill="white" stroke="#263238" stroke-linecap="round" stroke-linejoin="round"/>
<path d="M135.424 168.408H152.856" stroke="#263238" stroke-linecap="round" stroke-linejoin="round"/>
<path d="M135.424 188.608H152.856" stroke="#263238" stroke-linecap="round" stroke-linejoin="round"/>
<path d="M109.456 167.544H126.88" stroke="#263238" stroke-linecap="round" stroke-linejoin="round"/>
<path d="M109.456 147.632H126.88" stroke="#263238" stroke-linecap="round" stroke-linejoin="round"/>
<path d="M109.456 140.704H126.88" stroke="#263238" stroke-linecap="round" stroke-linejoin="round"/>
<path d="M135.424 194.504H152.856" stroke="#263238" stroke-linecap="round" stroke-linejoin="round"/>
<path d="M135.424 200.392H152.856" stroke="#263238" stroke-linecap="round" stroke-linejoin="round"/>
<path d="M135.424 206.288H152.856" stroke="#263238" stroke-linecap="round" stroke-linejoin="round"/>
<path d="M135.424 212.184H152.856" stroke="#263238" stroke-linecap="round" stroke-linejoin="round"/>
<path d="M135.424 218.072H152.856" stroke="#263238" stroke-linecap="round" stroke-linejoin="round"/>
<path d="M135.424 223.968H152.856" stroke="#263238" stroke-linecap="round" stroke-linejoin="round"/>
<path d="M135.424 229.864H152.856" stroke="#263238" stroke-linecap="round" stroke-linejoin="round"/>
<path d="M135.424 170.784H146.96" stroke="#263238" stroke-linecap="round" stroke-linejoin="round"/>
<path d="M159.328 176.824H130.704V184.4H159.328V176.824Z" fill="#2B786C" stroke="#263238" stroke-linecap="round" stroke-linejoin="round"/>
<path d="M130.416 153.248H107.976V160.824H130.416V153.248Z" fill="#2B786C" stroke="#263238" stroke-linecap="round" stroke-linejoin="round"/>
<path d="M162.272 155.352H184.16" stroke="#263238" stroke-linecap="round" stroke-linejoin="round"/>
<path d="M162.272 210.92H184.16" stroke="#263238" stroke-linecap="round" stroke-linejoin="round"/>
<path d="M162.272 163.776H174.48" stroke="#263238" stroke-linecap="round" stroke-linejoin="round"/>
<path d="M162.272 169.664H174.48" stroke="#263238" stroke-linecap="round" stroke-linejoin="round"/>
<path d="M162.272 175.56H174.48" stroke="#263238" stroke-linecap="round" stroke-linejoin="round"/>
<path d="M162.272 181.456H174.48" stroke="#263238" stroke-linecap="round" stroke-linejoin="round"/>
<path d="M162.272 187.344H174.48" stroke="#263238" stroke-linecap="round" stroke-linejoin="round"/>
<path d="M162.272 193.24H174.48" stroke="#263238" stroke-linecap="round" stroke-linejoin="round"/>
<path d="M179.952 163.776H192.16" stroke="#263238" stroke-linecap="round" stroke-linejoin="round"/>
<path d="M179.952 169.664H192.16" stroke="#263238" stroke-linecap="round" stroke-linejoin="round"/>
<path d="M179.952 175.56H192.16" stroke="#263238" stroke-linecap="round" stroke-linejoin="round"/>
<path d="M179.952 181.456H192.16" stroke="#263238" stroke-linecap="round" stroke-linejoin="round"/>
<path d="M179.952 187.344H192.16" stroke="#263238" stroke-linecap="round" stroke-linejoin="round"/>
<path d="M179.952 193.24H192.16" stroke="#263238" stroke-linecap="round" stroke-linejoin="round"/>
<path d="M162.272 157.88H193.424" stroke="#263238" stroke-linecap="round" stroke-linejoin="round"/>
<path d="M203.944 215.128H159.328V217.656H203.944V215.128Z" fill="#263238" stroke="#263238" stroke-linecap="round" stroke-linejoin="round"/>
<path d="M123.544 128.416V132.208" stroke="white" stroke-linecap="round" stroke-linejoin="round"/>
<path d="M147.256 128.416V132.208" stroke="white" stroke-linecap="round" stroke-linejoin="round"/>
<path d="M170.976 128.416V132.208" stroke="white" stroke-linecap="round" stroke-linejoin="round"/>
<path d="M194.688 128.416V132.208" stroke="white" stroke-linecap="round" stroke-linejoin="round"/>
<path d="M276.688 91.816H178.664V182.784H276.688V91.816Z" fill="#263238" stroke="#263238" stroke-linecap="round" stroke-linejoin="round"/>
<path d="M274.696 67.48H173.672V181.128H274.696V67.48Z" fill="white" stroke="#263238" stroke-linecap="round" stroke-linejoin="round"/>
<path d="M274.696 67.48H196.392V181.128H274.696V67.48Z" fill="white" stroke="#263238" stroke-linecap="round" stroke-linejoin="round"/>
<path d="M274.696 67.48H173.672V75.136H274.696V67.48Z" fill="#263238" stroke="#263238" stroke-miterlimit="10"/>
<path d="M220.608 79.008H200.752V103.224H220.608V79.008Z" fill="#2B786C" stroke="#263238" stroke-miterlimit="10"/>
<path d="M200.752 103.224L204.056 97.624L213.72 96.168L220.464 99.632L220.608 103.224H200.752Z" fill="#263238" stroke="#263238" stroke-linecap="round" stroke-linejoin="round"/>
<path d="M214.264 92.888L213.72 96.168L207.888 100.36L207.16 96.352L214.264 92.888Z" fill="white" stroke="#263238" stroke-linecap="round" stroke-linejoin="round"/>
<path d="M205.88 87.416C205.88 87.416 204.424 95.8 206.792 97.08C209.16 98.36 215.176 92.888 215.728 92.344C216.28 91.8 219.192 91.064 219.192 88.696C219.192 86.328 217.368 86.872 217.368 86.872C217.368 86.872 218.456 83.776 217.912 82.496C217.368 81.216 207.512 80.312 205.152 81.768C202.792 83.224 205.88 87.416 205.88 87.416Z" fill="white" stroke="#263238" stroke-linecap="round" stroke-linejoin="round"/>
<path d="M217.912 82.496C217.368 81.224 207.512 80.312 205.152 81.768C202.792 83.224 205.88 87.416 205.88 87.416C205.88 87.416 206.976 88.152 209.88 87.416C212.784 86.68 214.8 85.96 214.8 85.96C214.8 85.96 212.4 88.696 213.52 88.88L214.616 89.056L214.984 91.064L217.384 86.872C217.384 86.872 218.456 83.776 217.912 82.496Z" fill="#263238" stroke="#263238" stroke-linecap="round" stroke-linejoin="round"/>
<path d="M207.888 89.424L207.08 93.264L208.72 93.088" stroke="#263238" stroke-linecap="round" stroke-linejoin="round"/>
<path d="M210.672 89.728C210.672 90.096 210.496 90.4 210.272 90.4C210.048 90.4 209.88 90.096 209.88 89.728C209.88 89.36 210.056 89.056 210.272 89.056C210.488 89.056 210.672 89.36 210.672 89.728Z" fill="#263238"/>
<path d="M207.264 89.408C207.264 89.784 207.088 90.088 206.872 90.088C206.656 90.088 206.48 89.784 206.48 89.408C206.48 89.032 206.656 88.736 206.872 88.736C207.088 88.736 207.264 89.04 207.264 89.408Z" fill="#263238"/>
<path d="M209.488 88.104C210.225 87.9841 210.98 88.1256 211.624 88.504" stroke="#263238" stroke-linecap="round" stroke-linejoin="round"/>
<path d="M207.344 94.04C207.344 94.04 209.408 94.52 210.672 93.408" stroke="#263238" stroke-linecap="round" stroke-linejoin="round"/>
<path d="M270.28 78.84H225.448V87.68H270.28V78.84Z" fill="white" stroke="#263238" stroke-linecap="round" stroke-linejoin="round"/>
<path d="M231.84 80.128L232.552 82.32H234.856L232.992 83.672L233.704 85.864L231.84 84.512L229.976 85.864L230.688 83.672L228.824 82.32H231.128L231.84 80.128Z" fill="#2B786C"/>
<path d="M239.872 80.128L240.584 82.32H242.888L241.024 83.672L241.736 85.864L239.872 84.512L238.008 85.864L238.72 83.672L236.856 82.32H239.16L239.872 80.128Z" fill="#2B786C"/>
<path d="M247.904 80.128L248.616 82.32H250.92L249.056 83.672L249.768 85.864L247.904 84.512L246.04 85.864L246.752 83.672L244.888 82.32H247.192L247.904 80.128Z" fill="#2B786C"/>
<path d="M255.936 80.128L256.648 82.32H258.952L257.088 83.672L257.8 85.864L255.936 84.512L254.072 85.864L254.784 83.672L252.92 82.32H255.224L255.936 80.128Z" fill="#2B786C"/>
<path d="M263.968 80.128L264.68 82.32H266.992L265.12 83.672L265.84 85.864L263.968 84.512L262.104 85.864L262.816 83.672L260.952 82.32H263.256L263.968 80.128Z" fill="#DBDBDB"/>
<path d="M270.28 92.104H225.448V141.352H270.28V92.104Z" fill="white" stroke="#263238" stroke-linecap="round" stroke-linejoin="round"/>
<path d="M270.28 145.144H225.448V177.976H270.28V145.144Z" fill="white" stroke="#263238" stroke-linecap="round" stroke-linejoin="round"/>
<path d="M201.552 109.36H218.976" stroke="#263238" stroke-linecap="round" stroke-linejoin="round"/>
<path d="M201.552 129.568H218.976" stroke="#263238" stroke-linecap="round" stroke-linejoin="round"/>
<path d="M175.576 108.496H193.008" stroke="#263238" stroke-linecap="round" stroke-linejoin="round"/>
<path d="M175.576 88.592H193.008" stroke="#263238" stroke-linecap="round" stroke-linejoin="round"/>
<path d="M175.576 81.664H193.008" stroke="#263238" stroke-linecap="round" stroke-linejoin="round"/>
<path d="M201.552 135.456H218.976" stroke="#263238" stroke-linecap="round" stroke-linejoin="round"/>
<path d="M201.552 141.352H218.976" stroke="#263238" stroke-linecap="round" stroke-linejoin="round"/>
<path d="M201.552 147.248H218.976" stroke="#263238" stroke-linecap="round" stroke-linejoin="round"/>
<path d="M201.552 153.136H218.976" stroke="#263238" stroke-linecap="round" stroke-linejoin="round"/>
<path d="M201.552 159.032H218.976" stroke="#263238" stroke-linecap="round" stroke-linejoin="round"/>
<path d="M201.552 164.92H218.976" stroke="#263238" stroke-linecap="round" stroke-linejoin="round"/>
<path d="M201.552 170.816H218.976" stroke="#263238" stroke-linecap="round" stroke-linejoin="round"/>
<path d="M201.552 111.736H213.088" stroke="#263238" stroke-linecap="round" stroke-linejoin="round"/>
<path d="M225.448 117.776H196.824V125.352H225.448V117.776Z" fill="#2B786C" stroke="#263238" stroke-linecap="round" stroke-linejoin="round"/>
<path d="M196.536 94.208H174.096V101.784H196.536V94.208Z" fill="#2B786C" stroke="#263238" stroke-linecap="round" stroke-linejoin="round"/>
<path d="M228.4 96.312H250.288" stroke="#263238" stroke-linecap="round" stroke-linejoin="round"/>
<path d="M228.4 151.872H250.288" stroke="#263238" stroke-linecap="round" stroke-linejoin="round"/>
<path d="M228.4 104.728H240.6" stroke="#263238" stroke-linecap="round" stroke-linejoin="round"/>
<path d="M228.4 110.624H240.6" stroke="#263238" stroke-linecap="round" stroke-linejoin="round"/>
<path d="M228.4 116.52H240.6" stroke="#263238" stroke-linecap="round" stroke-linejoin="round"/>
<path d="M228.4 122.408H240.6" stroke="#263238" stroke-linecap="round" stroke-linejoin="round"/>
<path d="M228.4 128.304H240.6" stroke="#263238" stroke-linecap="round" stroke-linejoin="round"/>
<path d="M228.4 134.192H240.6" stroke="#263238" stroke-linecap="round" stroke-linejoin="round"/>
<path d="M246.072 104.728H258.28" stroke="#263238" stroke-linecap="round" stroke-linejoin="round"/>
<path d="M246.072 110.624H258.28" stroke="#263238" stroke-linecap="round" stroke-linejoin="round"/>
<path d="M246.072 116.52H258.28" stroke="#263238" stroke-linecap="round" stroke-linejoin="round"/>
<path d="M246.072 122.408H258.28" stroke="#263238" stroke-linecap="round" stroke-linejoin="round"/>
<path d="M246.072 128.304H258.28" stroke="#263238" stroke-linecap="round" stroke-linejoin="round"/>
<path d="M246.072 134.192H258.28" stroke="#263238" stroke-linecap="round" stroke-linejoin="round"/>
<path d="M228.4 98.84H259.544" stroke="#263238" stroke-linecap="round" stroke-linejoin="round"/>
<path d="M270.064 156.088H225.448V158.616H270.064V156.088Z" fill="#263238" stroke="#263238" stroke-linecap="round" stroke-linejoin="round"/>
<path d="M189.672 69.376V73.16" stroke="white" stroke-linecap="round" stroke-linejoin="round"/>
<path d="M213.384 69.376V73.16" stroke="white" stroke-linecap="round" stroke-linejoin="round"/>
<path d="M237.096 69.376V73.16" stroke="white" stroke-linecap="round" stroke-linejoin="round"/>
<path d="M260.808 69.376V73.16" stroke="white" stroke-linecap="round" stroke-linejoin="round"/>
</svg>
