<svg width="400" height="400" viewBox="0 0 400 400" fill="none" xmlns="http://www.w3.org/2000/svg">
<path d="M359.92 318.792H333.424V318.992H359.92V318.792Z" fill="#EBEBEB"/>
<path d="M264.976 320.968H258.024V321.168H264.976V320.968Z" fill="#EBEBEB"/>
<path d="M332.624 311.368H317.272V311.568H332.624V311.368Z" fill="#EBEBEB"/>
<path d="M76.52 312.712H41.968V312.912H76.52V312.712Z" fill="#EBEBEB"/>
<path d="M88.712 312.712H83.6479V312.912H88.712V312.712Z" fill="#EBEBEB"/>
<path d="M180.12 316.088H105.176V316.288H180.12V316.088Z" fill="#EBEBEB"/>
<path d="M189.6 270.24H35.1361C33.9246 270.24 32.7627 269.759 31.9061 268.902C31.0494 268.045 30.5681 266.884 30.5681 265.672V48.528C30.5787 47.3234 31.0646 46.1718 31.9201 45.3238C32.7756 44.4757 33.9315 44 35.1361 44H189.6C190.812 44 191.973 44.4813 192.83 45.3379C193.687 46.1946 194.168 47.3565 194.168 48.568V265.672C194.168 266.884 193.687 268.045 192.83 268.902C191.973 269.759 190.812 270.24 189.6 270.24ZM35.1361 44.16C33.9783 44.1621 32.8685 44.623 32.0498 45.4417C31.2311 46.2604 30.7702 47.3702 30.7681 48.528V265.672C30.7702 266.83 31.2311 267.94 32.0498 268.758C32.8685 269.577 33.9783 270.038 35.1361 270.04H189.6C190.758 270.038 191.868 269.577 192.686 268.758C193.505 267.94 193.966 266.83 193.968 265.672V48.528C193.966 47.3702 193.505 46.2604 192.686 45.4417C191.868 44.623 190.758 44.1621 189.6 44.16H35.1361Z" fill="#EBEBEB"/>
<path d="M362.648 270.24H208.168C206.957 270.238 205.797 269.756 204.94 268.9C204.084 268.044 203.602 266.883 203.6 265.672V48.528C203.613 47.3241 204.099 46.1737 204.954 45.3261C205.809 44.4785 206.964 44.002 208.168 44H362.648C363.85 44.0042 365.002 44.4818 365.854 45.3294C366.706 46.177 367.19 47.3262 367.2 48.528V265.672C367.2 266.881 366.721 268.04 365.868 268.896C365.015 269.753 363.857 270.236 362.648 270.24ZM208.168 44.16C207.01 44.1621 205.9 44.623 205.082 45.4417C204.263 46.2604 203.802 47.3702 203.8 48.528V265.672C203.802 266.83 204.263 267.94 205.082 268.758C205.9 269.577 207.01 270.038 208.168 270.04H362.648C363.806 270.038 364.916 269.577 365.734 268.758C366.553 267.94 367.014 266.83 367.016 265.672V48.528C367.014 47.3702 366.553 46.2604 365.734 45.4417C364.916 44.623 363.806 44.1621 362.648 44.16H208.168Z" fill="#EBEBEB"/>
<path d="M400 305.92H0V306.12H400V305.92Z" fill="#EBEBEB"/>
<path d="M78.16 80.256H76.72V192.552H78.16V80.256Z" fill="#E0E0E0"/>
<path d="M167.8 80.256H166.36V192.552H167.8V80.256Z" fill="#E0E0E0"/>
<path d="M173.44 87.32H71.0799L68.9199 82.28H175.6L173.44 87.32Z" fill="#EBEBEB"/>
<path d="M173.44 94.24H71.0799L68.9199 89.2H175.6L173.44 94.24Z" fill="#EBEBEB"/>
<path d="M173.44 101.16H71.0799L68.9199 96.12H175.6L173.44 101.16Z" fill="#EBEBEB"/>
<path d="M173.44 108.08H71.0799L68.9199 103.04H175.6L173.44 108.08Z" fill="#EBEBEB"/>
<path d="M173.44 115H71.0799L68.9199 109.96H175.6L173.44 115Z" fill="#EBEBEB"/>
<path d="M173.44 121.92H71.0799L68.9199 116.88H175.6L173.44 121.92Z" fill="#EBEBEB"/>
<path d="M173.44 128.84H71.0799L68.9199 123.8H175.6L173.44 128.84Z" fill="#EBEBEB"/>
<path d="M173.44 135.76H71.0799L68.9199 130.72H175.6L173.44 135.76Z" fill="#EBEBEB"/>
<path d="M173.44 142.672H71.0799L68.9199 137.632H175.6L173.44 142.672Z" fill="#EBEBEB"/>
<path d="M173.44 149.592H71.0799L68.9199 144.552H175.6L173.44 149.592Z" fill="#EBEBEB"/>
<path d="M173.44 156.512H71.0799L68.9199 151.472H175.6L173.44 156.512Z" fill="#EBEBEB"/>
<path d="M173.44 163.432H71.0799L68.9199 158.392H175.6L173.44 163.432Z" fill="#EBEBEB"/>
<path d="M173.44 170.352H71.0799L68.9199 165.312H175.6L173.44 170.352Z" fill="#EBEBEB"/>
<path d="M173.44 177.272H71.0799L68.9199 172.232H175.6L173.44 177.272Z" fill="#EBEBEB"/>
<path d="M173.44 184.192H71.0799L68.9199 179.152H175.6L173.44 184.192Z" fill="#EBEBEB"/>
<path d="M173.44 191.112H71.0799L68.9199 186.072H175.6L173.44 191.112Z" fill="#EBEBEB"/>
<path d="M175.6 191.112H68.9199V193.992H175.6V191.112Z" fill="#E0E0E0"/>
<path d="M179.32 75.968H65.2V82.688H179.32V75.968Z" fill="#E0E0E0"/>
<path d="M66.4 143.616C66.0923 143.616 65.7973 143.494 65.5797 143.276C65.3622 143.059 65.24 142.764 65.24 142.456V103.256C65.24 103.104 65.27 102.953 65.3283 102.812C65.3866 102.671 65.472 102.543 65.5797 102.436C65.6875 102.328 65.8153 102.243 65.9561 102.184C66.0968 102.126 66.2477 102.096 66.4 102.096C66.7076 102.096 67.0027 102.218 67.2202 102.436C67.4378 102.653 67.56 102.948 67.56 103.256V142.456C67.56 142.608 67.53 142.759 67.4717 142.9C67.4134 143.041 67.3279 143.169 67.2202 143.276C67.1125 143.384 66.9846 143.469 66.8439 143.528C66.7032 143.586 66.5523 143.616 66.4 143.616Z" fill="#E0E0E0"/>
<path d="M66.7919 81.344H65.9519V104.624H66.7919V81.344Z" fill="#E0E0E0"/>
<path d="M196.696 123H200.248C200.832 123 201.391 123.232 201.804 123.644C202.216 124.057 202.448 124.617 202.448 125.2V228.472H194.488V125.2C194.488 124.91 194.545 124.624 194.656 124.356C194.767 124.089 194.93 123.846 195.135 123.642C195.34 123.437 195.584 123.275 195.852 123.165C196.12 123.055 196.406 122.999 196.696 123Z" fill="#E6E6E6"/>
<path d="M199.144 123H196.952C196.3 123 195.674 123.258 195.213 123.719C194.751 124.179 194.49 124.804 194.488 125.456V228.472H196.68V125.456C196.682 124.804 196.943 124.179 197.405 123.719C197.866 123.258 198.492 123 199.144 123Z" fill="#F0F0F0"/>
<path d="M204.76 221.664H192.232V306.12H204.76V221.664Z" fill="#EBEBEB"/>
<path d="M187.776 302.704H209.216C210.026 302.704 210.804 303.026 211.377 303.599C211.95 304.172 212.272 304.949 212.272 305.76V306.112H184.72V305.76C184.72 304.949 185.042 304.172 185.615 303.599C186.188 303.026 186.965 302.704 187.776 302.704Z" fill="#E6E6E6"/>
<path d="M317.136 264.4H337.336C339.077 264.398 340.747 263.705 341.978 262.474C343.209 261.243 343.902 259.573 343.904 257.832V228.296C343.904 227.978 343.778 227.672 343.553 227.447C343.327 227.222 343.022 227.096 342.704 227.096C342.386 227.096 342.08 227.222 341.855 227.447C341.63 227.672 341.504 227.978 341.504 228.296V257.832C341.504 258.937 341.065 259.998 340.283 260.779C339.502 261.561 338.441 262 337.336 262H317.136V264.4Z" fill="#E0E0E0"/>
<path d="M311.36 292.704V265.2L309.76 264.696C308.875 264.417 308.101 263.864 307.552 263.116C307.002 262.368 306.705 261.464 306.704 260.536H321.944C321.944 261.464 321.647 262.369 321.098 263.117C320.548 263.865 319.774 264.418 318.888 264.696L317.288 265.2V292.704L329.936 298.4V300.8L314.312 295.336L298.688 300.8V298.4L311.36 292.704Z" fill="#E0E0E0"/>
<path d="M294.4 262H334.248C334.816 262 335.379 261.888 335.904 261.671C336.429 261.453 336.907 261.134 337.308 260.732C337.71 260.33 338.029 259.853 338.247 259.328C338.464 258.803 338.576 258.24 338.576 257.672C338.574 256.526 338.117 255.427 337.306 254.617C336.494 253.807 335.395 253.352 334.248 253.352H294.4C293.254 253.352 292.156 253.807 291.345 254.617C290.535 255.427 290.08 256.526 290.08 257.672C290.079 258.24 290.19 258.803 290.407 259.328C290.623 259.853 290.941 260.33 291.343 260.732C291.744 261.134 292.22 261.453 292.745 261.67C293.27 261.888 293.832 262 294.4 262Z" fill="#F0F0F0"/>
<path d="M341.264 238.688L343.416 207.936C343.495 206.795 343.119 205.669 342.369 204.805C341.619 203.941 340.557 203.41 339.416 203.328C338.274 203.247 337.146 203.622 336.28 204.372C335.414 205.122 334.882 206.186 334.8 207.328L332.648 238.08C332.569 239.222 332.945 240.349 333.695 241.214C334.445 242.079 335.506 242.612 336.648 242.696C337.791 242.775 338.919 242.398 339.785 241.646C340.65 240.895 341.182 239.831 341.264 238.688Z" fill="#EBEBEB"/>
<path d="M327.2 302.488C327.2 303.029 327.36 303.558 327.661 304.008C327.962 304.458 328.389 304.809 328.889 305.016C329.389 305.223 329.939 305.277 330.47 305.171C331 305.066 331.488 304.805 331.871 304.423C332.253 304.04 332.514 303.553 332.619 303.022C332.725 302.491 332.671 301.941 332.464 301.441C332.257 300.941 331.906 300.514 331.456 300.213C331.006 299.912 330.477 299.752 329.936 299.752C329.577 299.752 329.221 299.823 328.889 299.96C328.557 300.098 328.255 300.299 328.001 300.553C327.747 300.807 327.546 301.109 327.408 301.441C327.271 301.773 327.2 302.129 327.2 302.488Z" fill="#E0E0E0"/>
<path d="M295.952 302.488C295.952 303.029 296.112 303.558 296.413 304.008C296.714 304.458 297.141 304.809 297.641 305.016C298.141 305.223 298.691 305.277 299.222 305.171C299.752 305.066 300.24 304.805 300.623 304.423C301.005 304.04 301.266 303.553 301.371 303.022C301.477 302.491 301.423 301.941 301.216 301.441C301.009 300.941 300.658 300.514 300.208 300.213C299.758 299.912 299.229 299.752 298.688 299.752C297.962 299.752 297.266 300.04 296.753 300.553C296.24 301.066 295.952 301.762 295.952 302.488Z" fill="#E0E0E0"/>
<path d="M80.296 264.4H60.096C58.3533 264.4 56.6819 263.708 55.4489 262.477C54.2159 261.245 53.5221 259.575 53.52 257.832V228.296C53.52 227.978 53.6464 227.672 53.8715 227.447C54.0965 227.222 54.4018 227.096 54.72 227.096C55.0383 227.096 55.3435 227.222 55.5685 227.447C55.7936 227.672 55.92 227.978 55.92 228.296V257.832C55.9221 258.938 56.363 259.998 57.146 260.78C57.9289 261.561 58.9899 262 60.096 262H80.296V264.4Z" fill="#E0E0E0"/>
<path d="M86.0721 292.704V265.2L87.6721 264.696C88.5565 264.417 89.329 263.863 89.8771 263.115C90.4252 262.367 90.7205 261.463 90.7201 260.536H75.5201C75.5214 261.464 75.8184 262.368 76.3679 263.116C76.9174 263.864 77.6908 264.417 78.5761 264.696L80.1761 265.2V292.704L67.4961 298.4V300.8L83.1201 295.336L98.7441 300.8V298.4L86.0721 292.704Z" fill="#E0E0E0"/>
<path d="M103.04 262H63.1999C62.0534 261.998 60.9546 261.541 60.1447 260.73C59.3348 259.918 58.8799 258.818 58.8799 257.672C58.8799 256.526 59.335 255.427 60.1452 254.617C60.9553 253.807 62.0541 253.352 63.1999 253.352H103.04C104.186 253.352 105.286 253.807 106.097 254.617C106.909 255.427 107.366 256.526 107.368 257.672C107.368 258.82 106.912 259.921 106.1 260.732C105.289 261.544 104.188 262 103.04 262Z" fill="#F0F0F0"/>
<path d="M56.1599 238.688L54.0079 207.936C53.9287 206.795 54.3054 205.669 55.0552 204.805C55.8051 203.941 56.867 203.41 58.0079 203.328C59.1504 203.247 60.2785 203.622 61.1441 204.372C62.0097 205.122 62.542 206.186 62.6239 207.328L64.7999 238.088C64.8792 239.23 64.5028 240.357 63.7531 241.222C63.0035 242.087 61.9416 242.62 60.7999 242.704C60.2313 242.746 59.6598 242.676 59.1184 242.497C58.577 242.318 58.0763 242.034 57.6451 241.661C57.214 241.287 56.8608 240.833 56.6059 240.322C56.351 239.812 56.1995 239.257 56.1599 238.688Z" fill="#EBEBEB"/>
<path d="M70.224 302.488C70.224 303.029 70.0633 303.559 69.7623 304.009C69.4613 304.459 69.0335 304.81 68.5331 305.017C68.0327 305.223 67.4822 305.277 66.9512 305.171C66.4203 305.065 65.9328 304.803 65.5505 304.42C65.1682 304.036 64.9082 303.548 64.8036 303.017C64.6989 302.486 64.7542 301.935 64.9625 301.435C65.1708 300.936 65.5228 300.509 65.9737 300.209C66.4247 299.91 66.9545 299.75 67.496 299.752C67.8549 299.752 68.2103 299.823 68.5418 299.96C68.8733 300.098 69.1744 300.3 69.4278 300.554C69.6812 300.808 69.882 301.11 70.0186 301.442C70.1552 301.774 70.225 302.129 70.224 302.488Z" fill="#E0E0E0"/>
<path d="M101.472 302.488C101.472 303.029 101.311 303.559 101.01 304.009C100.709 304.459 100.282 304.81 99.7812 305.017C99.2808 305.223 98.7302 305.277 98.1993 305.171C97.6683 305.065 97.1808 304.803 96.7985 304.42C96.4162 304.036 96.1563 303.548 96.0516 303.017C95.9469 302.486 96.0023 301.935 96.2106 301.435C96.4189 300.936 96.7708 300.509 97.2218 300.209C97.6728 299.91 98.2025 299.75 98.744 299.752C99.1029 299.752 99.4583 299.823 99.7898 299.96C100.121 300.098 100.422 300.3 100.676 300.554C100.929 300.808 101.13 301.11 101.267 301.442C101.403 301.774 101.473 302.129 101.472 302.488Z" fill="#E0E0E0"/>
<path d="M166.144 306.12H150.544L148.944 276.536H167.744L166.144 306.12Z" fill="#EBEBEB"/>
<path d="M154.144 306.12H147.744V304.8L154.144 304V306.12Z" fill="#E0E0E0"/>
<path d="M151.32 274.136H165.368C166.005 274.136 166.615 274.389 167.065 274.839C167.515 275.289 167.768 275.899 167.768 276.536H148.936C148.936 275.899 149.189 275.289 149.639 274.839C150.089 274.389 150.7 274.136 151.336 274.136H151.32Z" fill="#E0E0E0"/>
<path d="M134.144 229.392H109.168V226.4L134.144 224.8V229.392Z" fill="#E0E0E0"/>
<path d="M171.072 232.44H97.208V242.664H171.072V232.44Z" fill="#F0F0F0"/>
<path d="M186.384 229.392H82.1599V235.488H186.384V229.392Z" fill="#FAFAFA"/>
<path d="M176.704 306.12H181.408L173.264 235.488H167.744L176.704 306.12Z" fill="#E6E6E6"/>
<path d="M100.8 235.488H95.2799L87.1279 306.12H91.8399L100.8 235.488Z" fill="#E6E6E6"/>
<path d="M159.432 227.872C157.299 217.28 155.165 206.683 153.032 196.08C152.728 194.568 150.408 195.208 150.712 196.72L156.8 226.992H143.6C143.282 226.992 142.976 227.118 142.751 227.343C142.526 227.569 142.4 227.874 142.4 228.192C142.4 228.51 142.526 228.815 142.751 229.041C142.976 229.266 143.282 229.392 143.6 229.392H158.264C158.449 229.391 158.631 229.347 158.796 229.265C158.962 229.182 159.106 229.063 159.219 228.917C159.331 228.77 159.409 228.6 159.446 228.419C159.483 228.238 159.478 228.051 159.432 227.872Z" fill="#E0E0E0"/>
<path d="M144.488 219.344L148.6 160.56C150.119 161.644 151.333 163.099 152.128 164.787C152.922 166.475 153.269 168.339 153.136 170.2L150.328 210.4C150.203 212.266 149.6 214.069 148.577 215.635C147.555 217.202 146.146 218.479 144.488 219.344Z" fill="#FAFAFA"/>
<path d="M176.528 212.304H169.84C168.559 212.304 167.52 213.343 167.52 214.624V227.072C167.52 228.353 168.559 229.392 169.84 229.392H176.528C177.809 229.392 178.848 228.353 178.848 227.072V214.624C178.848 213.343 177.809 212.304 176.528 212.304Z" fill="#F5F5F5"/>
<path d="M172 205.944C170.232 205.944 168.8 206.384 168.8 206.92C168.8 207.456 170.24 206.728 172 206.728C172.227 206.716 172.454 206.716 172.68 206.728V210.6H173.688V206.88C174.6 207.048 175.208 207.232 175.208 206.88C175.2 206.4 173.768 205.944 172 205.944Z" fill="#E0E0E0"/>
<path d="M174.992 209.384H171.384V212.992H174.992V209.384Z" fill="#F0F0F0"/>
<path d="M226.36 242.672H300.224V232.448H226.36V242.672Z" fill="#F0F0F0"/>
<path d="M211.048 235.496H315.272V229.4H211.048V235.496Z" fill="#FAFAFA"/>
<path d="M220.728 306.12H216.016L224.16 235.488H229.68L220.728 306.12Z" fill="#E6E6E6"/>
<path d="M296.632 235.488H302.152L310.296 306.12H305.584L296.632 235.488Z" fill="#E6E6E6"/>
<path d="M265.864 52.368H264.08V107.752H265.864V52.368Z" fill="#E0E0E0"/>
<path d="M242.728 118.424L264.984 83.888L287.232 118.424H242.728Z" fill="#E0E0E0"/>
<path d="M120.344 52.368H118.56V96.872H120.344V52.368Z" fill="#E0E0E0"/>
<path d="M97.208 116.968L119.456 82.432L141.704 116.968H97.208Z" fill="#FAFAFA"/>
<path d="M196.144 338.968C281.81 338.968 351.256 334.914 351.256 329.912C351.256 324.911 281.81 320.856 196.144 320.856C110.478 320.856 41.032 324.911 41.032 329.912C41.032 334.914 110.478 338.968 196.144 338.968Z" fill="#F5F5F5"/>
<path d="M277.368 325.144C277.368 325.056 277.368 324.976 277.304 324.888C277.24 324.8 277.232 324.624 277.192 324.496L277.056 324.12L276.912 323.792L262.784 292.528L260.304 287.032L258.352 282.72H214.992L215.736 287.032L216.688 292.528L221.648 321.176C221.648 321.28 221.648 321.376 221.688 321.48C221.696 321.579 221.696 321.678 221.688 321.776V321.848C221.688 321.944 221.688 322.04 221.688 322.144L221.6 322.4C221.582 322.509 221.555 322.616 221.52 322.72C221.503 322.794 221.479 322.867 221.448 322.936V323V323.056C221.41 323.141 221.367 323.224 221.32 323.304C221.274 323.399 221.221 323.49 221.16 323.576L221.112 323.648L220.96 323.84C220.892 323.926 220.82 324.009 220.744 324.088C220.612 324.226 220.467 324.352 220.312 324.464C220.189 324.556 220.058 324.637 219.92 324.704C219.832 324.76 219.738 324.806 219.64 324.84C219.541 324.884 219.44 324.922 219.336 324.952H219.296C219.204 324.981 219.11 325.005 219.016 325.024C218.782 325.073 218.543 325.097 218.304 325.096H199.24C199.058 325.095 198.877 325.122 198.704 325.176C198.589 325.216 198.476 325.264 198.368 325.32C198.109 325.461 197.887 325.661 197.72 325.904C197.655 326.003 197.598 326.107 197.552 326.216C197.455 326.444 197.406 326.689 197.408 326.936V328.984C197.406 329.231 197.455 329.476 197.552 329.704C197.598 329.813 197.655 329.917 197.72 330.016C197.887 330.259 198.109 330.459 198.368 330.6C198.476 330.656 198.589 330.704 198.704 330.744C198.877 330.798 199.058 330.825 199.24 330.824H275.568C275.965 330.825 276.353 330.705 276.68 330.48C276.789 330.41 276.888 330.327 276.976 330.232C277.068 330.141 277.151 330.042 277.224 329.936C277.294 329.833 277.352 329.723 277.4 329.608C277.502 329.354 277.554 329.082 277.552 328.808V326.68C277.545 326.163 277.484 325.648 277.368 325.144Z" fill="#263238"/>
<path opacity="0.2" d="M197.408 327.048V329.104C197.407 329.346 197.454 329.586 197.546 329.809C197.638 330.033 197.773 330.236 197.945 330.407C198.116 330.579 198.319 330.714 198.543 330.806C198.766 330.898 199.006 330.945 199.248 330.944H275.568C276.096 330.942 276.603 330.732 276.977 330.359C277.351 329.986 277.564 329.48 277.568 328.952V326.816C277.568 326.253 277.503 325.692 277.376 325.144C277.266 324.666 277.111 324.2 276.912 323.752L258.344 282.688H214.992L221.648 321.144C221.69 321.368 221.709 321.596 221.704 321.824C221.685 322.733 221.31 323.598 220.659 324.233C220.008 324.867 219.133 325.22 218.224 325.216H199.248C199.007 325.215 198.768 325.262 198.544 325.353C198.321 325.445 198.118 325.58 197.947 325.75C197.776 325.92 197.641 326.122 197.548 326.345C197.456 326.568 197.408 326.807 197.408 327.048Z" fill="white"/>
<path d="M279.36 323.76L260.8 282.688H258.344L276.904 323.76C277.339 324.72 277.565 325.762 277.568 326.816V328.944C277.568 329.474 277.357 329.983 276.982 330.358C276.607 330.733 276.098 330.944 275.568 330.944H278.024C278.286 330.944 278.546 330.892 278.788 330.792C279.03 330.691 279.25 330.544 279.435 330.358C279.62 330.172 279.767 329.951 279.867 329.709C279.966 329.466 280.017 329.206 280.016 328.944V326.816C280.016 325.762 279.793 324.721 279.36 323.76Z" fill="#263238"/>
<path opacity="0.3" d="M258.344 282.688H214.992L216.696 292.504H262.776L258.344 282.688Z" fill="black"/>
<path d="M343.8 146.584L333.4 265.784L332.136 280.232C331.951 282.064 331.1 283.765 329.745 285.012C328.39 286.259 326.625 286.967 324.784 287H139.792C138.926 287.014 138.067 286.844 137.272 286.501C136.477 286.157 135.764 285.649 135.18 285.009C134.597 284.368 134.156 283.611 133.888 282.788C133.62 281.964 133.53 281.093 133.624 280.232L134.888 265.784L145.288 146.584C145.474 144.753 146.325 143.053 147.68 141.807C149.035 140.562 150.8 139.856 152.64 139.824H337.6C339.055 139.808 340.47 140.301 341.6 141.216C341.754 141.339 341.898 141.473 342.032 141.616C342.453 142.031 342.806 142.509 343.08 143.032C343.274 143.381 343.427 143.752 343.536 144.136C343.779 144.928 343.869 145.759 343.8 146.584Z" fill="#263238"/>
<path d="M134.896 265.784L133.6 280.232C133.507 281.093 133.598 281.965 133.867 282.788C134.137 283.612 134.578 284.369 135.162 285.009C135.746 285.649 136.459 286.157 137.255 286.501C138.05 286.844 138.91 287.014 139.776 287H324.752C326.593 286.966 328.358 286.259 329.713 285.012C331.068 283.765 331.918 282.064 332.104 280.232L333.368 265.784H134.896Z" fill="#2B786C"/>
<path opacity="0.6" d="M134.896 265.784L133.6 280.232C133.507 281.093 133.598 281.965 133.867 282.788C134.137 283.612 134.578 284.369 135.162 285.009C135.746 285.649 136.459 286.157 137.255 286.501C138.05 286.844 138.91 287.014 139.776 287H324.752C326.593 286.966 328.358 286.259 329.713 285.012C331.068 283.765 331.918 282.064 332.104 280.232L333.368 265.784H134.896Z" fill="white"/>
<path d="M326.848 261.696H142.136C141.667 261.704 141.201 261.613 140.77 261.427C140.339 261.242 139.952 260.966 139.636 260.62C139.32 260.273 139.081 259.863 138.935 259.417C138.79 258.971 138.741 258.499 138.792 258.032L148.456 147.576C148.556 146.58 149.019 145.655 149.757 144.978C150.494 144.301 151.455 143.919 152.456 143.904H337.152C337.622 143.895 338.089 143.987 338.52 144.173C338.952 144.359 339.339 144.635 339.656 144.983C339.972 145.33 340.211 145.741 340.356 146.189C340.501 146.636 340.549 147.109 340.496 147.576L330.832 258.032C330.731 259.024 330.269 259.945 329.535 260.62C328.801 261.295 327.845 261.678 326.848 261.696Z" fill="#2B786C"/>
<path d="M341.72 139.824H337.6C338.466 139.809 339.325 139.978 340.12 140.32C340.915 140.663 341.628 141.171 342.212 141.81C342.795 142.45 343.236 143.206 343.504 144.029C343.772 144.853 343.862 145.723 343.768 146.584L332.104 280.232C331.918 282.064 331.068 283.765 329.713 285.012C328.358 286.259 326.593 286.966 324.752 287H328.84C330.682 286.967 332.448 286.259 333.804 285.012C335.16 283.765 336.013 282.065 336.2 280.232L347.888 146.584C347.984 145.723 347.895 144.852 347.627 144.028C347.359 143.204 346.918 142.447 346.335 141.807C345.751 141.168 345.037 140.66 344.241 140.318C343.446 139.976 342.586 139.807 341.72 139.824Z" fill="#263238"/>
<g opacity="0.2">
<path d="M341.72 139.824H337.6C338.466 139.809 339.325 139.978 340.12 140.32C340.915 140.663 341.628 141.171 342.212 141.81C342.795 142.45 343.236 143.206 343.504 144.029C343.772 144.853 343.862 145.723 343.768 146.584L332.104 280.232C331.918 282.064 331.068 283.765 329.713 285.012C328.358 286.259 326.593 286.966 324.752 287H328.84C330.682 286.967 332.448 286.259 333.804 285.012C335.16 283.765 336.013 282.065 336.2 280.232L347.888 146.584C347.984 145.723 347.895 144.852 347.627 144.028C347.359 143.204 346.918 142.447 346.335 141.807C345.751 141.168 345.037 140.66 344.241 140.318C343.446 139.976 342.586 139.807 341.72 139.824Z" fill="white"/>
</g>
<g opacity="0.1">
<path d="M211.296 143.904H204.192L179.16 261.696H186.264L211.296 143.904Z" fill="white"/>
<path d="M171.976 261.696L197.016 143.904H170.32L145.28 261.696H171.976Z" fill="white"/>
</g>
<path opacity="0.2" d="M264.376 327.064V329.016C264.376 329.526 264.174 330.015 263.814 330.377C263.454 330.738 262.966 330.942 262.456 330.944H199.256C198.768 330.944 198.3 330.75 197.955 330.405C197.61 330.06 197.416 329.592 197.416 329.104V327.056C197.416 326.568 197.61 326.1 197.955 325.755C198.3 325.41 198.768 325.216 199.256 325.216H218.24C218.479 325.216 218.718 325.192 218.952 325.144H262.464C262.972 325.146 263.458 325.349 263.816 325.709C264.175 326.069 264.376 326.556 264.376 327.064Z" fill="white"/>
<path opacity="0.2" d="M277.376 325.144H218.976C219.743 324.982 220.432 324.566 220.933 323.964C221.434 323.361 221.717 322.607 221.736 321.824H275.912L277.376 325.144Z" fill="black"/>
<path opacity="0.3" d="M332.616 163.352H243.72V265.768H332.616V163.352Z" fill="black"/>
<path d="M327.928 152.544H239.2V261.288H327.928V152.544Z" fill="white"/>
<path d="M327.928 152.544H239.2V158.976H327.928V152.544Z" fill="#263238"/>
<path opacity="0.1" d="M327.928 158.976H263.8V261.288H327.928V158.976Z" fill="black"/>
<path opacity="0.1" d="M284.976 161.424H266.96V182.256H284.976V161.424Z" fill="black"/>
<path opacity="0.1" d="M325.768 161.424H288.4V170H325.768V161.424Z" fill="black"/>
<path opacity="0.1" d="M325.768 173.68H288.4V219.936H325.768V173.68Z" fill="black"/>
<path opacity="0.1" d="M325.768 223.608H288.4V258.224H325.768V223.608Z" fill="black"/>
<path d="M288.408 190.216H263.6V198.184H288.408V190.216Z" fill="#2B786C"/>
<path d="M264.008 173.68H239.2V181.648H264.008V173.68Z" fill="#2B786C"/>
<path d="M325.768 231.192H288.4V235.328H325.768V231.192Z" fill="black"/>
<path d="M292.16 164.896L292.936 163.32L293.712 164.896L295.448 165.144L294.192 166.376L294.488 168.104L292.936 167.288L291.384 168.104L291.68 166.376L290.416 165.152L292.16 164.896Z" fill="#2B786C"/>
<path d="M299.232 164.896L300.008 163.32L300.792 164.896L302.528 165.144L301.272 166.376L301.568 168.104L300.016 167.288L298.456 168.104L298.752 166.376L297.496 165.152L299.232 164.896Z" fill="#2B786C"/>
<path d="M306.312 164.896L307.088 163.32L307.864 164.896L309.6 165.144L308.344 166.376L308.648 168.104L307.088 167.288L305.536 168.104L305.832 166.376L304.576 165.152L306.312 164.896Z" fill="#2B786C"/>
<path d="M313.384 164.896L314.16 163.32L314.944 164.896L316.68 165.144L315.424 166.376L315.72 168.104L314.168 167.288L312.616 168.104L312.904 166.376L311.648 165.152L313.384 164.896Z" fill="black"/>
<path d="M320.464 164.896L321.24 163.32L322.016 164.896L323.752 165.144L322.504 166.376L322.8 168.104L321.24 167.288L319.688 168.104L319.984 166.376L318.728 165.152L320.464 164.896Z" fill="black"/>
<path d="M305.76 177.76H291.064V178.56H305.76V177.76Z" fill="#263238"/>
<path d="M302.664 184.648H291.064V185.448H302.664V184.648Z" fill="#263238"/>
<path d="M302.664 190.672H291.064V191.472H302.664V190.672Z" fill="#263238"/>
<path d="M302.664 196.688H291.064V197.488H302.664V196.688Z" fill="#263238"/>
<path d="M302.664 202.704H291.064V203.504H302.664V202.704Z" fill="#263238"/>
<path d="M302.664 208.728H291.064V209.528H302.664V208.728Z" fill="#263238"/>
<path d="M302.664 214.744H291.064V215.544H302.664V214.744Z" fill="#263238"/>
<path d="M315.864 184.648H304.264V185.448H315.864V184.648Z" fill="#263238"/>
<path d="M315.864 190.672H304.264V191.472H315.864V190.672Z" fill="#263238"/>
<path d="M315.864 196.688H304.264V197.488H315.864V196.688Z" fill="#263238"/>
<path d="M315.864 202.704H304.264V203.504H315.864V202.704Z" fill="#263238"/>
<path d="M315.864 208.728H304.264V209.528H315.864V208.728Z" fill="#263238"/>
<path d="M315.864 214.744H304.264V215.544H315.864V214.744Z" fill="#263238"/>
<path d="M315.864 180.056H291.064V180.856H315.864V180.056Z" fill="#263238"/>
<path d="M315.864 227.568H291.064V228.368H315.864V227.568Z" fill="#263238"/>
<path d="M284.976 184.648H266.96V185.448H284.976V184.648Z" fill="#263238"/>
<path d="M284.976 202.176H266.96V202.976H284.976V202.176Z" fill="#263238"/>
<path d="M284.976 208.88H266.96V209.68H284.976V208.88Z" fill="#263238"/>
<path d="M284.976 215.576H266.96V216.376H284.976V215.576Z" fill="#263238"/>
<path d="M284.976 222.28H266.96V223.08H284.976V222.28Z" fill="#263238"/>
<path d="M284.976 228.984H266.96V229.784H284.976V228.984Z" fill="#263238"/>
<path d="M284.976 235.68H266.96V236.48H284.976V235.68Z" fill="#263238"/>
<path d="M284.976 242.384H266.96V243.184H284.976V242.384Z" fill="#263238"/>
<path d="M284.976 249.08H266.96V249.88H284.976V249.08Z" fill="#263238"/>
<path d="M275.968 187.232H266.96V188.032H275.968V187.232Z" fill="#263238"/>
<path d="M260.912 162.92H242.304V163.72H260.912V162.92Z" fill="#263238"/>
<path d="M260.912 168.088H242.304V168.888H260.912V168.088Z" fill="#263238"/>
<path d="M260.912 187.232H242.304V188.032H260.912V187.232Z" fill="#263238"/>
<path d="M266.992 182.152V179.616C272.631 177.6 278.784 177.535 284.464 179.432L285.008 179.616V182.152H266.992Z" fill="white"/>
<path d="M275.104 181.464C276.528 181.301 277.831 180.582 278.728 179.464C278.855 179.279 278.915 179.055 278.898 178.831C278.88 178.607 278.786 178.396 278.632 178.232C277.352 176.72 277.12 173.352 277.136 171.368L275.696 173.216L273.736 175.736C273.872 176.048 274 176.36 274.104 176.68C274.183 176.909 274.239 177.145 274.272 177.384C274.354 177.822 274.3 178.275 274.119 178.682C273.937 179.089 273.636 179.432 273.256 179.664C273.109 179.761 272.992 179.897 272.917 180.057C272.842 180.216 272.813 180.393 272.832 180.568C272.851 180.743 272.917 180.91 273.025 181.049C273.132 181.189 273.276 181.297 273.44 181.36C273.978 181.53 274.549 181.566 275.104 181.464Z" fill="#F7978D"/>
<path opacity="0.2" d="M273.736 175.736C273.872 176.048 274 176.36 274.104 176.68C274.183 176.909 274.239 177.145 274.272 177.384C274.759 177.149 275.177 176.792 275.486 176.348C275.794 175.903 275.982 175.387 276.032 174.848C276.008 174.536 275.952 174.228 275.864 173.928L273.736 175.736Z" fill="black"/>
<path d="M271.928 171.096C271.833 171.262 271.695 171.4 271.53 171.496C271.364 171.593 271.176 171.643 270.984 171.643C270.792 171.643 270.604 171.593 270.439 171.496C270.273 171.4 270.135 171.262 270.04 171.096C270.72 169.672 270.208 169.536 270.168 168.472C270.099 167.856 270.198 167.233 270.456 166.669C270.714 166.105 271.121 165.622 271.632 165.272H272.728C276.672 166.088 271.928 171.096 271.928 171.096Z" fill="#263238"/>
<path d="M278.272 167.688C278.15 167.192 277.932 166.725 277.629 166.314C277.327 165.902 276.947 165.554 276.51 165.29C276.073 165.025 275.588 164.849 275.084 164.772C274.579 164.695 274.064 164.718 273.568 164.84C270.504 165.512 269.224 169.72 269.32 172.416C269.336 173.194 269.584 173.949 270.032 174.584C270.324 174.995 270.694 175.344 271.122 175.611C271.549 175.879 272.025 176.059 272.522 176.143C273.019 176.226 273.528 176.21 274.019 176.096C274.51 175.983 274.974 175.773 275.384 175.48C277.16 174.248 277.464 172.544 278.232 169.688C278.417 169.036 278.431 168.347 278.272 167.688Z" fill="#F7978D"/>
<path d="M270.664 172.656C271.649 172.458 272.652 172.37 273.656 172.392C273.572 172.798 273.343 173.16 273.012 173.41C272.681 173.661 272.27 173.782 271.856 173.752C271.568 173.772 271.284 173.679 271.064 173.492C270.844 173.305 270.707 173.039 270.68 172.752C270.68 172.752 270.672 172.688 270.664 172.656Z" fill="#263238"/>
<path d="M272.344 173.16C271.906 173.14 271.475 173.276 271.128 173.544C271.34 173.687 271.593 173.757 271.848 173.744C272.284 173.767 272.713 173.631 273.056 173.36C272.847 173.217 272.597 173.147 272.344 173.16Z" fill="#FF5652"/>
<path d="M270.768 172.632C270.791 172.719 270.838 172.798 270.903 172.86C270.967 172.922 271.048 172.965 271.136 172.984C271.79 172.969 272.44 172.894 273.08 172.76C273.185 172.744 273.283 172.701 273.366 172.635C273.449 172.569 273.513 172.482 273.552 172.384C272.619 172.386 271.687 172.469 270.768 172.632Z" fill="white"/>
<path d="M277.216 173.472C277.216 173.472 275.944 170.592 276.048 169.656C276.074 169.098 276.266 168.561 276.6 168.114C276.933 167.666 277.393 167.328 277.92 167.144L278.992 167.368C283.656 169.296 277.216 173.472 277.216 173.472Z" fill="#263238"/>
<path d="M271.376 171.784C271.179 171.8 270.981 171.773 270.795 171.704C270.61 171.635 270.442 171.525 270.304 171.384C270.894 170.861 271.41 170.261 271.84 169.6L271.376 171.784Z" fill="#FF5652"/>
<path d="M278.208 170.4C277.472 170.288 276.688 171.2 276.368 171.856C276.048 172.512 276.256 173.296 277.032 173.12C277.649 172.952 278.189 172.577 278.56 172.056C279.032 171.384 278.936 170.504 278.208 170.4Z" fill="#F7978D"/>
<path d="M273.536 169.536C273.376 169.536 273.208 169.704 273.168 169.92C273.128 170.136 273.216 170.344 273.368 170.368C273.52 170.392 273.664 170.224 273.728 169.992C273.792 169.76 273.688 169.6 273.536 169.536Z" fill="#263238"/>
<path d="M270.904 168.952C270.752 168.952 270.584 169.088 270.536 169.328C270.488 169.568 270.576 169.776 270.728 169.8C270.88 169.824 271.048 169.656 271.096 169.416C271.144 169.176 271.056 168.976 270.904 168.952Z" fill="#263238"/>
<path d="M271.488 168.04C271.468 168.05 271.446 168.055 271.424 168.055C271.402 168.055 271.38 168.05 271.36 168.04C271.189 167.983 271.007 167.965 270.828 167.988C270.649 168.012 270.478 168.076 270.328 168.176C270.302 168.201 270.268 168.216 270.232 168.216C270.196 168.216 270.161 168.201 270.136 168.176C270.113 168.148 270.101 168.112 270.101 168.076C270.101 168.04 270.113 168.004 270.136 167.976C270.322 167.849 270.535 167.766 270.758 167.734C270.982 167.702 271.209 167.722 271.424 167.792C271.458 167.805 271.486 167.83 271.503 167.863C271.519 167.895 271.522 167.933 271.512 167.968C271.509 167.993 271.501 168.018 271.488 168.04Z" fill="#263238"/>
<path d="M274.352 169.192C274.304 169.19 274.258 169.17 274.224 169.136C274.125 168.987 273.994 168.861 273.841 168.77C273.687 168.679 273.514 168.623 273.336 168.608C273.317 168.609 273.299 168.606 273.281 168.6C273.264 168.594 273.248 168.584 273.235 168.571C273.221 168.558 273.21 168.543 273.203 168.526C273.196 168.509 273.192 168.491 273.192 168.472C273.194 168.437 273.209 168.403 273.234 168.378C273.259 168.353 273.292 168.338 273.328 168.336C273.552 168.349 273.771 168.413 273.967 168.524C274.162 168.635 274.33 168.79 274.456 168.976C274.48 169.004 274.493 169.039 274.493 169.076C274.493 169.113 274.48 169.148 274.456 169.176C274.441 169.186 274.424 169.192 274.406 169.195C274.388 169.198 274.369 169.197 274.352 169.192Z" fill="#263238"/>
<path d="M270.872 166.8C270.728 166.28 270.682 165.737 270.736 165.2C270.818 164.932 270.956 164.684 271.141 164.473C271.326 164.262 271.553 164.093 271.808 163.976C272.611 163.715 273.477 163.715 274.28 163.976C274.474 164.006 274.661 164.071 274.832 164.168C274.92 164.216 274.993 164.286 275.043 164.372C275.094 164.458 275.121 164.556 275.12 164.656C275.107 164.755 275.067 164.849 275.005 164.928C274.943 165.007 274.861 165.068 274.768 165.104C274.584 165.192 273.168 165.528 272.528 165.76C271.9 165.967 271.332 166.324 270.872 166.8Z" fill="#263238"/>
<path d="M279.888 165.248C280.405 165.732 280.763 166.36 280.917 167.051C281.072 167.741 281.014 168.463 280.752 169.12C280.528 169.583 280.279 170.035 280.008 170.472L278.024 169.112C277.12 168.63 276.417 167.841 276.04 166.888C275.836 166.386 275.462 165.972 274.984 165.718C274.506 165.463 273.954 165.385 273.424 165.496C273.152 165.552 272.776 165.608 272.624 165.352C272.472 165.096 272.904 164.552 273.208 164.32C274.4 163.264 276.6 162.696 279.888 165.248Z" fill="#263238"/>
<path opacity="0.2" d="M276 166.752C275.264 165.472 274.328 165.352 273.088 165.544C273.097 165.391 273.137 165.24 273.206 165.103C273.275 164.965 273.371 164.843 273.488 164.744C274.464 163.944 275.792 165.824 276 166.752Z" fill="black"/>
<path d="M272.544 165.336C272.448 165.441 272.38 165.567 272.344 165.704C272.251 166.061 272.231 166.432 272.286 166.797C272.341 167.161 272.47 167.511 272.664 167.824C272.345 167.471 272.117 167.045 272 166.584C271.902 166.301 271.851 166.004 271.848 165.704C271.854 165.404 271.974 165.118 272.184 164.904C272.288 164.803 272.418 164.734 272.56 164.706C272.702 164.678 272.849 164.691 272.984 164.744C273.144 164.824 273.416 165.128 273.224 165.272C273.032 165.416 272.8 165.08 272.544 165.336Z" fill="#263238"/>
<path opacity="0.3" d="M270.768 141.408V222.568H181.88V120.152H266.096V141.408H270.768Z" fill="black"/>
<path d="M266.096 109.336H177.368V218.08H266.096V109.336Z" fill="white"/>
<path d="M266.088 109.336H177.36V115.768H266.088V109.336Z" fill="#263238"/>
<path opacity="0.1" d="M266.096 115.768H201.968V218.08H266.096V115.768Z" fill="black"/>
<path opacity="0.1" d="M223.128 118.216H205.12V139.048H223.128V118.216Z" fill="black"/>
<path opacity="0.1" d="M263.936 118.216H226.568V126.792H263.936V118.216Z" fill="black"/>
<path opacity="0.1" d="M263.936 130.472H226.568V176.728H263.936V130.472Z" fill="black"/>
<path opacity="0.1" d="M263.936 180.4H226.568V215.016H263.936V180.4Z" fill="black"/>
<path d="M226.568 147.016H201.76V154.984H226.568V147.016Z" fill="#2B786C"/>
<path d="M202.168 130.472H177.36V138.44H202.168V130.472Z" fill="#2B786C"/>
<path d="M263.936 187.984H226.568V192.12H263.936V187.984Z" fill="black"/>
<path d="M230.32 121.688L231.096 120.112L231.872 121.688L233.608 121.944L232.352 123.168L232.656 124.896L231.096 124.08L229.544 124.904L229.84 123.168L228.584 121.944L230.32 121.688Z" fill="#2B786C"/>
<path d="M237.4 121.688L238.168 120.112L238.952 121.688L240.688 121.944L239.432 123.168L239.728 124.896L238.176 124.08L236.624 124.904L236.92 123.168L235.656 121.944L237.4 121.688Z" fill="#2B786C"/>
<path d="M244.472 121.688L245.248 120.112L246.024 121.688L247.768 121.944L246.512 123.168L246.808 124.896L245.248 124.08L243.696 124.904L243.992 123.168L242.736 121.944L244.472 121.688Z" fill="#2B786C"/>
<path d="M251.552 121.688L252.328 120.112L253.104 121.688L254.84 121.944L253.584 123.168L253.888 124.896L252.328 124.08L250.776 124.904L251.072 123.168L249.808 121.944L251.552 121.688Z" fill="black"/>
<path d="M258.624 121.688L259.4 120.112L260.184 121.688L261.92 121.944L260.664 123.168L260.96 124.896L259.408 124.08L257.848 124.904L258.144 123.168L256.888 121.944L258.624 121.688Z" fill="black"/>
<path d="M243.92 134.552H229.224V135.352H243.92V134.552Z" fill="#263238"/>
<path d="M240.824 141.448H229.224V142.248H240.824V141.448Z" fill="#263238"/>
<path d="M240.824 147.464H229.224V148.264H240.824V147.464Z" fill="#263238"/>
<path d="M240.824 153.48H229.224V154.28H240.824V153.48Z" fill="#263238"/>
<path d="M240.824 159.504H229.224V160.304H240.824V159.504Z" fill="#263238"/>
<path d="M240.824 165.52H229.224V166.32H240.824V165.52Z" fill="#263238"/>
<path d="M240.824 171.544H229.224V172.344H240.824V171.544Z" fill="#263238"/>
<path d="M254.024 141.448H242.424V142.248H254.024V141.448Z" fill="#263238"/>
<path d="M254.024 147.464H242.424V148.264H254.024V147.464Z" fill="#263238"/>
<path d="M254.024 153.48H242.424V154.28H254.024V153.48Z" fill="#263238"/>
<path d="M254.024 159.504H242.424V160.304H254.024V159.504Z" fill="#263238"/>
<path d="M254.024 165.52H242.424V166.32H254.024V165.52Z" fill="#263238"/>
<path d="M254.024 171.544H242.424V172.344H254.024V171.544Z" fill="#263238"/>
<path d="M254.024 136.848H229.224V137.648H254.024V136.848Z" fill="#263238"/>
<path d="M254.024 184.368H229.224V185.168H254.024V184.368Z" fill="#263238"/>
<path d="M223.136 141.448H205.12V142.248H223.136V141.448Z" fill="#263238"/>
<path d="M223.136 158.968H205.12V159.768H223.136V158.968Z" fill="#263238"/>
<path d="M223.136 165.672H205.12V166.472H223.136V165.672Z" fill="#263238"/>
<path d="M223.136 172.376H205.12V173.176H223.136V172.376Z" fill="#263238"/>
<path d="M223.136 179.072H205.12V179.872H223.136V179.072Z" fill="#263238"/>
<path d="M223.136 185.776H205.12V186.576H223.136V185.776Z" fill="#263238"/>
<path d="M223.136 192.48H205.12V193.28H223.136V192.48Z" fill="#263238"/>
<path d="M223.136 199.176H205.12V199.976H223.136V199.176Z" fill="#263238"/>
<path d="M223.136 205.88H205.12V206.68H223.136V205.88Z" fill="#263238"/>
<path d="M214.128 144.032H205.12V144.832H214.128V144.032Z" fill="#263238"/>
<path d="M199.072 119.712H180.464V120.512H199.072V119.712Z" fill="#263238"/>
<path d="M199.072 124.888H180.464V125.688H199.072V124.888Z" fill="#263238"/>
<path d="M199.072 144.032H180.464V144.832H199.072V144.032Z" fill="#263238"/>
<path d="M205.168 138.976V136.44C210.804 134.424 216.954 134.359 222.632 136.256L223.176 136.44V138.976H205.168Z" fill="#263238"/>
<path d="M216.904 129.856L215.008 131.36L212.44 133.408C212.586 133.707 212.678 134.029 212.712 134.36C212.794 134.717 212.745 135.092 212.573 135.415C212.401 135.738 212.118 135.989 211.776 136.12C211.424 136.208 210.976 137.864 213.096 138.088C213.704 138.193 214.327 138.17 214.925 138.023C215.524 137.876 216.086 137.607 216.576 137.232C217.064 136.784 217.216 136.52 216.928 135.872C216.08 134.048 216.424 131.696 216.904 129.856Z" fill="#DD8C6A"/>
<path opacity="0.2" d="M213.064 132.904L214.728 131.384C214.724 131.445 214.724 131.507 214.728 131.568C214.749 131.834 214.749 132.102 214.728 132.368C214.596 132.869 214.344 133.329 213.994 133.711C213.644 134.093 213.207 134.384 212.72 134.56V134.368C212.68 134.06 212.599 133.759 212.48 133.472V133.424L213.064 132.904Z" fill="black"/>
<path d="M211.752 128.512C210.848 125.8 211.344 124.416 210.304 122.912C209.68 122.512 208.328 123.56 208.776 125.776C209.224 127.992 211.752 128.512 211.752 128.512Z" fill="#263238"/>
<path d="M217.376 126.528C217.08 129.472 217.024 131.2 215.472 132.616C213.128 134.752 209.552 133.168 208.984 130.216C208.464 127.52 209.072 123.168 212.016 122.216C213.049 121.875 214.176 121.958 215.148 122.447C216.12 122.936 216.858 123.791 217.2 124.824C217.38 125.373 217.44 125.954 217.376 126.528Z" fill="#DD8C6A"/>
<path d="M217.32 129.168L216.04 129.24L215.792 127.28L214.608 126.336L214.272 123.272C214.272 123.272 216.976 123.272 218.016 123.272C218.384 123.272 219.488 124.448 219.616 124.872C219.767 125.485 219.746 126.128 219.554 126.73C219.362 127.331 219.007 127.868 218.528 128.28C218.157 128.617 217.752 128.915 217.32 129.168Z" fill="#263238"/>
<path d="M217.36 124.488C216.608 124.88 215.672 124.448 214.864 124.224C214.06 123.973 213.242 123.765 212.416 123.6C211.692 123.45 210.938 123.57 210.296 123.936C209.985 124.127 209.754 124.425 209.647 124.774C209.54 125.123 209.563 125.499 209.712 125.832C209.26 125.596 208.873 125.253 208.584 124.833C208.295 124.413 208.113 123.929 208.054 123.423C207.995 122.916 208.06 122.403 208.245 121.928C208.429 121.453 208.727 121.03 209.112 120.696C209.85 120.104 210.766 119.777 211.712 119.768C212.651 119.763 213.587 119.862 214.504 120.064C215.728 120.28 217.488 120.264 218.616 120.784C219.744 121.304 219.64 123.296 217.36 124.488Z" fill="#263238"/>
<path d="M218.488 128.848C218.304 129.483 217.895 130.03 217.336 130.384C216.608 130.832 215.976 130.072 216.04 129.24C216.104 128.408 216.672 127.48 217.464 127.376C218.256 127.272 218.704 128.056 218.488 128.848Z" fill="#DD8C6A"/>
<path d="M212.704 127.448C212.704 127.696 212.576 127.896 212.416 127.904C212.256 127.912 212.136 127.72 212.12 127.472C212.104 127.224 212.256 127.016 212.416 127.016C212.576 127.016 212.704 127.2 212.704 127.448Z" fill="#263238"/>
<path d="M209.92 127.536C209.92 127.784 209.792 127.992 209.632 127.992C209.472 127.992 209.336 127.8 209.336 127.56C209.336 127.32 209.472 127.112 209.632 127.104C209.792 127.096 209.92 127.288 209.92 127.536Z" fill="#263238"/>
<path d="M210.816 127.688C210.608 128.354 210.312 128.989 209.936 129.576C210.087 129.665 210.256 129.719 210.43 129.734C210.604 129.749 210.78 129.725 210.944 129.664L210.816 127.688Z" fill="#FF5652"/>
<path d="M211.2 131.104C211.485 131.104 211.768 131.047 212.03 130.936C212.293 130.824 212.53 130.661 212.728 130.456C212.741 130.441 212.747 130.422 212.746 130.402C212.744 130.383 212.735 130.365 212.72 130.352C212.705 130.339 212.686 130.333 212.667 130.334C212.647 130.336 212.629 130.345 212.616 130.36C212.398 130.58 212.133 130.748 211.841 130.851C211.548 130.953 211.236 130.988 210.928 130.952C210.919 130.95 210.909 130.949 210.899 130.951C210.89 130.952 210.88 130.956 210.872 130.961C210.864 130.966 210.857 130.973 210.851 130.981C210.846 130.989 210.842 130.998 210.84 131.008C210.838 131.028 210.843 131.048 210.855 131.065C210.867 131.081 210.884 131.092 210.904 131.096C211.002 131.107 211.101 131.11 211.2 131.104Z" fill="#263238"/>
<path d="M213.248 126.56C213.272 126.566 213.296 126.566 213.32 126.56C213.334 126.547 213.345 126.532 213.352 126.515C213.36 126.497 213.364 126.479 213.364 126.46C213.364 126.441 213.36 126.423 213.352 126.405C213.345 126.388 213.334 126.373 213.32 126.36C213.183 126.18 213.002 126.036 212.796 125.942C212.589 125.849 212.362 125.808 212.136 125.824C212.097 125.828 212.061 125.847 212.036 125.877C212.011 125.907 211.998 125.945 212 125.984C212.002 126.003 212.008 126.021 212.017 126.038C212.026 126.055 212.038 126.07 212.053 126.081C212.068 126.093 212.085 126.102 212.104 126.107C212.122 126.113 212.141 126.114 212.16 126.112C212.337 126.104 212.514 126.138 212.675 126.212C212.836 126.286 212.978 126.397 213.088 126.536C213.109 126.557 213.135 126.57 213.164 126.574C213.193 126.579 213.222 126.574 213.248 126.56Z" fill="#263238"/>
<path d="M209.904 125.936C209.911 125.913 209.911 125.888 209.904 125.864C209.902 125.845 209.896 125.827 209.887 125.81C209.878 125.793 209.866 125.779 209.851 125.767C209.836 125.755 209.819 125.746 209.8 125.741C209.782 125.735 209.763 125.734 209.744 125.736C209.517 125.747 209.297 125.814 209.103 125.932C208.909 126.049 208.747 126.213 208.632 126.408C208.622 126.425 208.616 126.443 208.613 126.463C208.611 126.482 208.612 126.501 208.617 126.52C208.623 126.539 208.632 126.556 208.644 126.571C208.656 126.586 208.671 126.599 208.688 126.608C208.723 126.625 208.764 126.628 208.801 126.616C208.838 126.604 208.869 126.578 208.888 126.544C208.98 126.391 209.108 126.263 209.262 126.172C209.416 126.082 209.59 126.031 209.768 126.024C209.797 126.025 209.825 126.017 209.85 126.001C209.874 125.985 209.893 125.963 209.904 125.936Z" fill="#263238"/>
<path opacity="0.3" d="M233.504 163.592H144.608V266.008H233.504V163.592Z" fill="black"/>
<path d="M228.816 152.776H140.088V261.52H228.816V152.776Z" fill="white"/>
<path d="M228.816 152.776H140.088V159.208H228.816V152.776Z" fill="#263238"/>
<path opacity="0.1" d="M228.824 159.216H164.696V261.528H228.824V159.216Z" fill="black"/>
<path opacity="0.1" d="M185.856 161.664H167.848V182.496H185.856V161.664Z" fill="black"/>
<path opacity="0.1" d="M226.664 161.664H189.296V170.24H226.664V161.664Z" fill="black"/>
<path opacity="0.1" d="M226.664 173.912H189.296V220.168H226.664V173.912Z" fill="black"/>
<path opacity="0.1" d="M226.664 223.848H189.296V258.464H226.664V223.848Z" fill="black"/>
<path d="M189.296 190.456H164.488V198.424H189.296V190.456Z" fill="#2B786C"/>
<path d="M164.896 173.912H140.088V181.88H164.896V173.912Z" fill="#2B786C"/>
<path d="M226.664 231.424H189.296V235.56H226.664V231.424Z" fill="black"/>
<path d="M193.048 165.136L193.824 163.56L194.6 165.136L196.344 165.384L195.08 166.608L195.384 168.344L193.824 167.528L192.272 168.344L192.568 166.616L191.312 165.392L193.048 165.136Z" fill="#2B786C"/>
<path d="M200.128 165.136L200.904 163.56L201.68 165.136L203.416 165.384L202.16 166.608L202.456 168.344L200.904 167.528L199.352 168.344L199.648 166.616L198.384 165.392L200.128 165.136Z" fill="#2B786C"/>
<path d="M207.2 165.136L207.976 163.56L208.752 165.136L210.496 165.384L209.24 166.608L209.536 168.344L207.984 167.528L206.424 168.344L206.72 166.616L205.464 165.392L207.2 165.136Z" fill="#2B786C"/>
<path d="M214.28 165.136L215.056 163.56L215.832 165.136L217.568 165.384L216.312 166.608L216.608 168.344L215.056 167.528L213.504 168.344L213.8 166.616L212.544 165.392L214.28 165.136Z" fill="#2B786C"/>
<path d="M221.352 165.136L222.128 163.56L222.912 165.136L224.648 165.384L223.392 166.608L223.688 168.344L222.136 167.528L220.584 168.344L220.872 166.616L219.616 165.392L221.352 165.136Z" fill="black"/>
<path d="M206.648 178H191.952V178.8H206.648V178Z" fill="#263238"/>
<path d="M203.552 184.888H191.952V185.688H203.552V184.888Z" fill="#263238"/>
<path d="M203.552 190.912H191.952V191.712H203.552V190.912Z" fill="#263238"/>
<path d="M203.552 196.928H191.952V197.728H203.552V196.928Z" fill="#263238"/>
<path d="M203.552 202.944H191.952V203.744H203.552V202.944Z" fill="#263238"/>
<path d="M203.552 208.968H191.952V209.768H203.552V208.968Z" fill="#263238"/>
<path d="M203.552 214.984H191.952V215.784H203.552V214.984Z" fill="#263238"/>
<path d="M216.76 184.888H205.16V185.688H216.76V184.888Z" fill="#263238"/>
<path d="M216.76 190.912H205.16V191.712H216.76V190.912Z" fill="#263238"/>
<path d="M216.76 196.928H205.16V197.728H216.76V196.928Z" fill="#263238"/>
<path d="M216.76 202.944H205.16V203.744H216.76V202.944Z" fill="#263238"/>
<path d="M216.76 208.968H205.16V209.768H216.76V208.968Z" fill="#263238"/>
<path d="M216.76 214.984H205.16V215.784H216.76V214.984Z" fill="#263238"/>
<path d="M216.752 180.296H191.952V181.096H216.752V180.296Z" fill="#263238"/>
<path d="M216.752 227.808H191.952V228.608H216.752V227.808Z" fill="#263238"/>
<path d="M185.864 184.888H167.848V185.688H185.864V184.888Z" fill="#263238"/>
<path d="M185.864 202.416H167.848V203.216H185.864V202.416Z" fill="#263238"/>
<path d="M185.864 209.12H167.848V209.92H185.864V209.12Z" fill="#263238"/>
<path d="M185.864 215.816H167.848V216.616H185.864V215.816Z" fill="#263238"/>
<path d="M185.864 222.52H167.848V223.32H185.864V222.52Z" fill="#263238"/>
<path d="M185.864 229.216H167.848V230.016H185.864V229.216Z" fill="#263238"/>
<path d="M185.864 235.92H167.848V236.72H185.864V235.92Z" fill="#263238"/>
<path d="M185.864 242.624H167.848V243.424H185.864V242.624Z" fill="#263238"/>
<path d="M185.864 249.32H167.848V250.12H185.864V249.32Z" fill="#263238"/>
<path d="M176.856 187.472H167.848V188.272H176.856V187.472Z" fill="#263238"/>
<path d="M161.8 163.16H143.192V163.96H161.8V163.16Z" fill="#263238"/>
<path d="M161.8 168.328H143.192V169.128H161.8V168.328Z" fill="#263238"/>
<path d="M161.8 187.472H143.192V188.272H161.8V187.472Z" fill="#263238"/>
<path d="M167.848 182.496V179.952C173.488 177.944 179.638 177.879 185.32 179.768L185.864 179.952V182.496H167.848Z" fill="#2B786C"/>
<path d="M175.28 164.288C174.706 164.127 174.103 164.103 173.518 164.217C172.933 164.331 172.383 164.58 171.912 164.944C170.967 165.677 170.24 166.653 169.808 167.768C169.643 168.055 169.556 168.381 169.556 168.712C169.556 169.043 169.643 169.369 169.808 169.656C170.232 170.192 171.048 170.16 171.736 170.08C172.8 168.064 174.064 166.224 175.28 164.288Z" fill="#263238"/>
<path d="M174.648 176.448C175.16 177.68 175.448 179.056 173.848 180.16C173.518 180.388 173.276 180.721 173.16 181.104C172.992 181.728 173.208 182.432 175.52 181.712C178.864 180.672 179.088 178.648 179.088 178.648C177.664 177.808 177.488 174.344 177.616 172.408L174.648 176.448Z" fill="#FFB573"/>
<path opacity="0.2" d="M176.8 175.144C176.8 175.992 175.696 177.056 174.944 177.4C174.871 177.071 174.767 176.749 174.632 176.44L176.408 174.04C176.615 174.376 176.749 174.752 176.8 175.144Z" fill="black"/>
<path d="M179.472 167.752C179.313 167.225 179.051 166.735 178.702 166.31C178.354 165.884 177.924 165.532 177.439 165.272C176.954 165.013 176.422 164.852 175.875 164.798C175.327 164.745 174.774 164.8 174.248 164.96C171.12 165.888 170.248 170.4 170.608 173.224C171.016 176.384 174.672 177.648 177.24 175.488C178.96 174.048 179.104 172.744 179.592 169.688C179.701 169.042 179.66 168.38 179.472 167.752Z" fill="#FFB573"/>
<path d="M172.48 172.28C172.317 172.303 172.15 172.292 171.992 172.247C171.833 172.201 171.686 172.122 171.56 172.016C172.004 171.538 172.379 170.999 172.672 170.416L172.48 172.28Z" fill="#ED893E"/>
<path d="M174.832 172.72C174.844 172.706 174.851 172.687 174.851 172.668C174.851 172.649 174.844 172.631 174.832 172.616C174.825 172.609 174.817 172.603 174.808 172.6C174.799 172.596 174.79 172.594 174.78 172.594C174.77 172.594 174.761 172.596 174.752 172.6C174.743 172.603 174.735 172.609 174.728 172.616C174.516 172.845 174.252 173.021 173.958 173.128C173.665 173.235 173.35 173.271 173.04 173.232C173.021 173.233 173.002 173.241 172.988 173.254C172.973 173.267 172.963 173.285 172.96 173.304C172.96 173.323 172.966 173.341 172.977 173.356C172.989 173.37 173.006 173.38 173.024 173.384C173.144 173.392 173.264 173.392 173.384 173.384C173.935 173.36 174.454 173.122 174.832 172.72Z" fill="#263238"/>
<path d="M172.44 165.328C173.002 165.289 173.562 165.421 174.048 165.707C174.533 165.992 174.921 166.418 175.16 166.928C175.352 167.427 175.491 167.944 175.576 168.472C175.662 169.004 175.891 169.502 176.24 169.912C176.419 170.11 176.657 170.246 176.918 170.301C177.18 170.355 177.452 170.326 177.696 170.216C177.841 170.686 178.108 171.109 178.471 171.441C178.834 171.773 179.279 172.002 179.76 172.104C179.072 173.104 178.216 174.152 177.528 175.152C177.776 175.952 177.8 176.08 178.048 176.856C178.905 176.582 179.7 176.141 180.386 175.559C181.073 174.977 181.637 174.265 182.048 173.464C182.848 171.864 183.024 169.856 181.504 169.808C182.04 168.728 181.056 166.464 180.248 165.568C179.497 164.894 178.602 164.4 177.632 164.123C176.662 163.846 175.642 163.793 174.648 163.968C173.775 164.149 172.994 164.63 172.44 165.328Z" fill="#263238"/>
<path d="M180.32 171.848C180.347 171.582 180.268 171.316 180.1 171.108C179.932 170.9 179.689 170.766 179.424 170.736C178.624 170.672 178.072 171.592 177.912 172.256C177.752 172.92 178.152 173.648 178.904 173.392C179.467 173.195 179.93 172.784 180.192 172.248C180.263 172.125 180.306 171.989 180.32 171.848Z" fill="#FFB573"/>
<path d="M175.432 168.904C175.456 168.91 175.48 168.91 175.504 168.904C175.531 168.875 175.546 168.836 175.546 168.796C175.546 168.756 175.531 168.718 175.504 168.688C175.329 168.464 175.102 168.286 174.843 168.171C174.583 168.055 174.299 168.004 174.016 168.024C173.996 168.026 173.977 168.032 173.96 168.042C173.942 168.051 173.927 168.064 173.915 168.08C173.903 168.096 173.895 168.114 173.89 168.133C173.885 168.152 173.884 168.172 173.888 168.192C173.89 168.211 173.896 168.229 173.905 168.246C173.914 168.263 173.926 168.278 173.941 168.289C173.956 168.301 173.973 168.31 173.991 168.315C174.01 168.321 174.029 168.322 174.048 168.32C174.281 168.311 174.514 168.357 174.726 168.455C174.939 168.552 175.126 168.698 175.272 168.88C175.294 168.899 175.32 168.911 175.348 168.915C175.377 168.919 175.406 168.915 175.432 168.904Z" fill="#263238"/>
<path d="M170.8 169.064C170.825 169.057 170.847 169.043 170.864 169.024C171.007 168.839 171.192 168.691 171.403 168.591C171.614 168.491 171.846 168.442 172.08 168.448C172.1 168.45 172.12 168.448 172.139 168.443C172.159 168.437 172.177 168.428 172.192 168.415C172.208 168.402 172.221 168.387 172.23 168.369C172.24 168.351 172.246 168.332 172.248 168.312C172.248 168.271 172.234 168.232 172.207 168.201C172.181 168.17 172.144 168.15 172.104 168.144C171.82 168.133 171.538 168.19 171.281 168.31C171.024 168.429 170.798 168.608 170.624 168.832C170.597 168.856 170.581 168.888 170.577 168.924C170.573 168.959 170.582 168.995 170.603 169.024C170.624 169.052 170.655 169.073 170.69 169.08C170.725 169.087 170.761 169.082 170.792 169.064H170.8Z" fill="#263238"/>
<path d="M174.696 169.664C174.696 169.936 174.528 170.16 174.344 170.152C174.16 170.144 174.024 169.912 174.04 169.632C174.056 169.352 174.208 169.144 174.384 169.144C174.56 169.144 174.704 169.384 174.696 169.664Z" fill="#263238"/>
<path d="M171.912 169.896C171.912 170.16 171.752 170.368 171.576 170.36C171.4 170.352 171.28 170.136 171.288 169.864C171.296 169.592 171.448 169.392 171.624 169.4C171.8 169.408 171.928 169.6 171.912 169.896Z" fill="#263238"/>
<path d="M171.696 169.416L171.072 169.208C171.072 169.208 171.376 169.72 171.696 169.416Z" fill="#263238"/>
<path d="M174.464 169.168L173.808 168.944C173.808 168.944 174.128 169.48 174.464 169.168Z" fill="#263238"/>
<path d="M72.5121 200C66.3201 200 66.3201 194.696 66.3201 194.696L118.92 138.152L119.192 136.928L122.208 139.736C122.185 139.778 122.158 139.818 122.128 139.856C121.96 140.168 76.0001 200 72.5121 200Z" fill="#263238"/>
<g opacity="0.5">
<path opacity="0.4" d="M151.704 125.232C144.8 135.904 133.24 144.096 125.968 140.296C126.005 140.261 126.032 140.217 126.048 140.168L122.048 137.992C119.368 135.592 117.856 132.064 117.472 127.92C116.864 121.52 118.888 113.776 123.304 106.6C131.088 93.944 143.776 88.32 149.632 91.816C150.589 92.3875 151.513 93.0125 152.4 93.688H152.44C153.215 94.1973 153.95 94.7642 154.64 95.384C154.966 95.7041 155.261 96.0551 155.52 96.432C157.011 98.6066 157.86 101.157 157.968 103.792C158.512 110 156.456 117.912 151.704 125.232Z" fill="white"/>
</g>
<path opacity="0.2" d="M157.976 103.64L122.056 137.8C119.376 135.4 117.864 131.872 117.472 127.728V127.664L155.504 96.28C157 98.4539 157.856 101.004 157.976 103.64Z" fill="white"/>
<path d="M154.44 126.32C163.168 112.224 162.08 95.704 151.968 89.448C141.856 83.192 126.6 89.576 117.864 103.664C109.36 117.408 110.168 133.416 119.536 140.024C119.792 140.224 120.056 140.384 120.336 140.56C121.429 141.239 122.604 141.777 123.832 142.16C133.696 145.328 146.656 138.888 154.44 126.32ZM125.16 139.504C124.6 139.349 124.062 139.123 123.56 138.832C123.481 138.8 123.406 138.76 123.336 138.712L123 138.496L122.904 138.432C122.423 138.127 121.971 137.779 121.552 137.392C115.344 131.744 115.952 118.192 123.304 106.408C131.136 93.776 143.952 88.184 149.352 91.376C150.231 91.8999 151.08 92.4714 151.896 93.088C152.314 93.3771 152.7 93.7096 153.048 94.08C157.848 99.096 156.368 111.432 149.168 123.056C141.968 134.68 131.8 141.44 125.16 139.504Z" fill="#263238"/>
<g opacity="0.4">
<path opacity="0.4" d="M151.68 125.024C144.768 135.72 133.216 143.912 125.944 140.096C125.981 140.061 126.008 140.017 126.024 139.968L125.168 139.496C131.792 141.44 142.064 134.6 149.216 123.072C156.368 111.544 157.92 99.136 153.088 94.112C152.93 93.9393 152.762 93.7764 152.584 93.624C153.312 94.1037 154.002 94.6386 154.648 95.224C154.973 95.5372 155.265 95.883 155.52 96.256C157.003 98.433 157.855 100.977 157.984 103.608C158.472 109.8 156.424 117.728 151.68 125.024Z" fill="black"/>
</g>
<path d="M51.6 250.128C51.912 252.224 54 253.52 55.976 254.336C59.5093 255.801 63.268 256.648 67.088 256.84C69.9825 246.573 72.0004 236.08 73.12 225.472C63.688 231.328 49.96 239.152 51.6 250.128Z" fill="#263238"/>
<path opacity="0.2" d="M51.6 250.128C51.912 252.224 54 253.52 55.976 254.336C59.5093 255.801 63.268 256.648 67.088 256.84C69.9825 246.573 72.0004 236.08 73.12 225.472C63.688 231.328 49.96 239.152 51.6 250.128Z" fill="black"/>
<path d="M99.36 123.456C99.656 123.408 99.976 123.728 100.064 124.184C100.152 124.64 99.984 125.072 99.68 125.12C99.376 125.168 99.064 124.856 98.976 124.392C98.888 123.928 99.056 123.512 99.36 123.456Z" fill="#263238"/>
<path d="M100.168 129.536C100.558 129.565 100.95 129.508 101.316 129.37C101.683 129.232 102.014 129.016 102.288 128.736C101.152 127.702 100.159 126.521 99.3359 125.224L100.168 129.536Z" fill="#B74D3C"/>
<path d="M97.0001 122.12C97.2197 121.848 97.5016 121.634 97.822 121.494C98.1424 121.355 98.4917 121.295 98.8401 121.32H98.9361C99.009 121.32 99.0791 121.292 99.1313 121.241C99.1836 121.19 99.214 121.121 99.2161 121.048C99.2172 121.011 99.211 120.975 99.1979 120.94C99.1848 120.906 99.1651 120.874 99.1398 120.848C99.1145 120.821 99.0843 120.799 99.0507 120.784C99.0171 120.769 98.9809 120.761 98.9441 120.76C98.5122 120.711 98.0748 120.766 97.6685 120.921C97.2621 121.075 96.8986 121.325 96.6081 121.648C96.5851 121.671 96.5669 121.699 96.5546 121.729C96.5422 121.759 96.536 121.791 96.5361 121.824C96.534 121.86 96.5391 121.897 96.5513 121.931C96.5635 121.965 96.5825 121.997 96.6071 122.024C96.6318 122.051 96.6615 122.072 96.6947 122.088C96.7278 122.103 96.7637 122.111 96.8001 122.112C96.8637 122.138 96.9346 122.141 97.0001 122.12Z" fill="#263238"/>
<path d="M93.384 149.96C85.504 149.88 84.384 145.568 84.384 145.568C86.784 143.328 86.984 139.12 86.56 135.36C87.1744 136.263 87.9533 137.042 88.856 137.656C89.6792 138.24 90.616 138.644 91.6056 138.843C92.5951 139.041 93.6153 139.029 94.6 138.808C94.6344 138.815 94.6697 138.815 94.704 138.808C94.6804 138.881 94.6643 138.956 94.656 139.032C94.12 142.032 94.472 145.248 97.608 146.232C97.6 146.224 102.064 150.048 93.384 149.96Z" fill="#CB7A63"/>
<path d="M94.944 137.672C94.8424 138.035 94.7623 138.404 94.704 138.776C94.6697 138.783 94.6344 138.783 94.6 138.776C93.6153 138.997 92.5951 139.009 91.6056 138.811C90.616 138.612 89.6793 138.208 88.856 137.624C87.9533 137.01 87.1744 136.231 86.56 135.328C86.456 134.376 86.304 133.448 86.144 132.592L94.624 137.456L94.944 137.672Z" fill="#CB7A63"/>
<path d="M81.9761 146.24C81.9761 146.24 83.2961 142.424 85.1761 141.248C87.0561 140.072 95.3041 141.504 96.5841 142.048C97.8641 142.592 99.1121 145.584 99.1121 145.584L81.9761 146.24Z" fill="#263238"/>
<path opacity="0.5" d="M81.9761 146.24C81.9761 146.24 83.2961 142.424 85.1761 141.248C87.0561 140.072 95.3041 141.504 96.5841 142.048C97.8641 142.592 99.1121 145.584 99.1121 145.584L81.9761 146.24Z" fill="white"/>
<path d="M100.72 131.36C100.668 132.712 100.274 134.029 99.5741 135.188C98.8746 136.346 97.8926 137.308 96.72 137.984H96.672C96.0686 138.354 95.4095 138.624 94.72 138.784C94.6856 138.791 94.6503 138.791 94.616 138.784C93.6313 139.005 92.6111 139.017 91.6215 138.819C90.632 138.62 89.6952 138.216 88.872 137.632C87.9693 137.018 87.1904 136.239 86.576 135.336C85.072 133.192 84.488 130.352 83.464 126.352C83.1181 125.059 83.1078 123.698 83.4341 122.4C83.7604 121.102 84.4125 119.908 85.3287 118.932C86.2448 117.955 87.3949 117.229 88.67 116.821C89.9451 116.413 91.3033 116.337 92.616 116.6C98.568 117.816 100.952 126.04 100.72 131.36Z" fill="#CB7A63"/>
<path opacity="0.2" d="M96.6561 137.992C96.0527 138.362 95.3936 138.632 94.7041 138.792L94.9921 135.288C94.9921 135.288 96.2401 137.992 96.6561 137.992Z" fill="black"/>
<path d="M81.976 124.288C81.176 125.888 79.384 127.704 78.624 129.296C78.1331 130.1 77.8987 131.035 77.952 131.976C78.0235 132.465 78.2839 132.906 78.6773 133.206C79.0707 133.505 79.5657 133.638 80.056 133.576C79.256 134.712 79.848 136.584 81.072 137.36C81.7041 137.738 82.4472 137.886 83.1759 137.78C83.9046 137.673 84.5743 137.319 85.072 136.776C85.872 137.64 86.472 138.28 87.688 138.296C88.2827 138.302 88.8725 138.188 89.4222 137.961C89.972 137.735 90.4705 137.399 90.888 136.976C91.438 137.563 92.1545 137.967 92.9411 138.135C93.7278 138.302 94.5468 138.224 95.288 137.912C95.9897 137.579 96.5556 137.015 96.8906 136.314C97.2256 135.614 97.3095 134.819 97.128 134.064C96.6923 132.744 96.4892 131.358 96.528 129.968C96.528 129.968 98.248 127.44 97.544 125.912L96.792 121.112C95.4503 120.094 93.7943 119.579 92.112 119.656C90.4349 119.736 88.7841 120.104 87.232 120.744C85.064 121.6 82.912 122.32 81.976 124.288Z" fill="#263238"/>
<path d="M95.0561 124C96.6961 124.52 97.5121 126.984 97.5521 128.536C97.6001 130.248 96.4321 131.304 94.9601 130.136C93.8552 129.227 93.0772 127.983 92.7441 126.592C92.3761 124.928 93.4081 123.512 95.0561 124Z" fill="#CB7A63"/>
<path d="M79.504 326.64C78.704 326.6 77.952 326.448 77.736 326.08C77.6767 325.982 77.6508 325.867 77.6624 325.753C77.6739 325.639 77.7222 325.532 77.8 325.448C77.8558 325.364 77.9289 325.292 78.0144 325.239C78.1 325.185 78.196 325.15 78.296 325.136C79.344 324.912 81.384 326.248 81.496 326.304C81.5195 326.321 81.5374 326.344 81.5474 326.371C81.5574 326.398 81.559 326.428 81.552 326.456C81.5466 326.486 81.531 326.514 81.5077 326.534C81.4844 326.555 81.4549 326.567 81.424 326.568C80.7873 326.648 80.1449 326.672 79.504 326.64ZM78.64 325.4C78.5471 325.388 78.453 325.388 78.36 325.4C78.2974 325.408 78.2373 325.43 78.1835 325.463C78.1297 325.496 78.0836 325.54 78.048 325.592C77.936 325.768 77.96 325.848 78.048 325.912C78.296 326.32 79.856 326.408 81.016 326.32C80.3033 325.861 79.5066 325.548 78.672 325.4H78.64Z" fill="#2B786C"/>
<path d="M81.384 326.552H81.32C80.608 326.176 79.264 324.792 79.448 324.088C79.448 323.92 79.624 323.728 80.032 323.704C80.1779 323.696 80.3239 323.717 80.4613 323.767C80.5988 323.816 80.7248 323.893 80.832 323.992C81.592 324.688 81.56 326.344 81.56 326.392C81.5565 326.418 81.5476 326.442 81.5338 326.465C81.52 326.487 81.5017 326.505 81.48 326.52C81.4533 326.543 81.419 326.554 81.384 326.552ZM80.112 324H80C79.736 324 79.704 324.12 79.696 324.152C79.592 324.568 80.496 325.656 81.208 326.16C81.2031 325.463 80.9792 324.786 80.568 324.224C80.5057 324.153 80.4297 324.095 80.3445 324.053C80.2593 324.012 80.1666 323.989 80.072 323.984L80.112 324Z" fill="#2B786C"/>
<path d="M88.9041 312.608L82.7761 312.28L82.0161 326.44L88.1761 326.768L88.9041 312.608Z" fill="#CB7A63"/>
<path d="M80.5839 326.128C76.1599 328.464 74.8639 328.528 69.9199 329.328C68.8399 329.504 69.2799 332.096 71.8159 332.232C76.0159 332.464 76.4719 332.288 80.0479 332.48C83.1119 332.648 86.6239 332.976 89.0559 333.144C89.1301 333.156 89.2057 333.156 89.2799 333.144C89.523 333.11 89.743 332.982 89.8927 332.788C90.0423 332.593 90.1095 332.348 90.0799 332.104L89.3839 326.576C89.3659 326.457 89.3077 326.347 89.2189 326.266C89.1302 326.184 89.0162 326.136 88.8959 326.128L82.1519 325.768C81.6064 325.745 81.0648 325.869 80.5839 326.128Z" fill="#263238"/>
<path opacity="0.2" d="M88.912 312.616L88.456 321.168L82.304 320.84L82.776 312.288L88.912 312.616Z" fill="black"/>
<path d="M97.432 189.136C97.432 189.136 96.912 229.992 95.528 249.248C94.232 267.184 90.224 319.464 90.224 319.464L79.824 318.896C79.824 318.896 77.64 265.184 77.424 246.896C77.232 229.568 76.384 188.352 76.384 188.352L97.432 189.136Z" fill="#2B786C"/>
<path d="M97.432 189.136C97.432 189.136 96.912 229.992 95.528 249.248C94.232 267.184 90.224 319.464 90.224 319.464L79.824 318.896C79.824 318.896 77.64 265.184 77.424 246.896C77.232 229.568 76.384 188.352 76.384 188.352L97.432 189.136Z" fill="#263238"/>
<path opacity="0.6" d="M97.432 189.136C97.432 189.136 96.912 229.992 95.528 249.248C94.232 267.184 90.224 319.464 90.224 319.464L79.824 318.896C79.824 318.896 77.64 265.184 77.424 246.896C77.232 229.568 76.384 188.352 76.384 188.352L97.432 189.136Z" fill="white"/>
<path d="M92.104 315.904L91.4 319.696L78.736 319.016C78.736 319.016 78.528 314.704 78.576 314.704L92.104 315.904Z" fill="#263238"/>
<g opacity="0.5">
<path d="M92.104 315.904L91.4 319.696L78.736 319.016C78.736 319.016 78.528 314.704 78.576 314.704L92.104 315.904Z" fill="white"/>
</g>
<path d="M142.872 325.496C142.8 324.696 142.832 323.936 143.16 323.64C143.246 323.564 143.354 323.516 143.469 323.503C143.583 323.49 143.699 323.513 143.8 323.568C143.888 323.61 143.966 323.669 144.031 323.742C144.095 323.815 144.145 323.9 144.176 323.992C144.552 324.968 143.544 327.264 143.496 327.376C143.485 327.405 143.465 327.429 143.439 327.445C143.413 327.461 143.382 327.468 143.352 327.464C143.322 327.462 143.294 327.451 143.272 327.432C143.249 327.414 143.232 327.388 143.224 327.36C143.054 326.75 142.937 326.126 142.872 325.496ZM143.976 324.384C143.984 324.291 143.984 324.197 143.976 324.104C143.96 324.045 143.931 323.991 143.89 323.945C143.85 323.899 143.8 323.863 143.744 323.84C143.552 323.76 143.464 323.84 143.424 323.88C143.056 324.208 143.192 325.752 143.464 326.872C143.796 326.083 143.978 325.239 144 324.384H143.976Z" fill="#2B786C"/>
<path d="M143.2 327.32C143.196 327.301 143.196 327.282 143.2 327.264C143.464 326.464 144.648 324.864 145.352 324.864C145.52 324.864 145.736 324.968 145.808 325.352C145.839 325.497 145.84 325.647 145.811 325.793C145.782 325.939 145.724 326.077 145.64 326.2C145.08 327.088 143.432 327.416 143.368 327.432C143.343 327.437 143.317 327.435 143.293 327.426C143.27 327.418 143.248 327.403 143.232 327.384C143.214 327.367 143.203 327.344 143.2 327.32ZM145.528 325.544V325.448C145.528 325.192 145.368 325.184 145.336 325.192C144.912 325.192 143.968 326.288 143.584 327.096C144.278 326.943 144.91 326.587 145.4 326.072C145.511 325.916 145.568 325.727 145.56 325.536L145.528 325.544Z" fill="#2B786C"/>
<path d="M138.704 313.48L132.792 314.56L137.36 328.44L143.32 327.352L138.704 313.48Z" fill="#CB7A63"/>
<path d="M144.688 326.4C146.48 328.136 147.424 329.024 152.256 329.984C153.32 330.192 152.616 332.776 150.08 332.832C145.888 332.928 148.184 332.68 144.608 332.76C141.552 332.824 138.04 333.048 135.608 333.144C135.526 333.156 135.442 333.156 135.36 333.144C135.245 333.119 135.137 333.072 135.041 333.005C134.944 332.938 134.863 332.853 134.8 332.753C134.737 332.654 134.695 332.544 134.676 332.428C134.657 332.312 134.661 332.194 134.688 332.08L135.92 326.56C135.945 326.439 136.012 326.33 136.108 326.251C136.204 326.172 136.324 326.129 136.448 326.128L143.168 325.976C143.437 325.941 143.71 325.961 143.971 326.034C144.232 326.107 144.476 326.231 144.688 326.4Z" fill="#263238"/>
<path opacity="0.2" d="M138.712 313.488L141.08 320.616L135.144 321.704L132.792 314.56L138.712 313.488Z" fill="black"/>
<path opacity="0.3" d="M97.2561 216C96.4561 229.84 95.7601 246.4 95.1921 255.608C95.1921 256.056 95.1281 256.512 95.1121 257.008C92.5521 242.4 88.7121 218.608 95.7921 216.152C96.2684 216.021 96.7631 215.969 97.2561 216Z" fill="black"/>
<path d="M79.2 191.032C79.2 191.032 80.5759 205.264 82.7919 211.512C85.9279 220.352 89.8399 223.2 92.8479 228.488C98.1519 237.808 101.104 245.816 104.68 253.232C115.88 276.432 131.384 317.288 131.384 317.288L142.584 316.488L102.912 190.352L79.2 191.032Z" fill="#263238"/>
<path opacity="0.6" d="M79.2 191.032C79.2 191.032 80.5759 205.264 82.7919 211.512C85.9279 220.352 89.8399 223.2 92.8479 228.488C98.1519 237.808 101.104 245.816 104.68 253.232C115.88 276.432 131.384 317.288 131.384 317.288L142.584 316.488L102.912 190.352L79.2 191.032Z" fill="white"/>
<path d="M144.568 314.112L144.704 317.96L131.688 319.904C131.688 319.904 130.512 315.744 130.56 315.744L144.568 314.112Z" fill="#263238"/>
<g opacity="0.5">
<path d="M144.568 314.112L144.704 317.96L131.688 319.904C131.688 319.904 130.512 315.744 130.56 315.744L144.568 314.112Z" fill="white"/>
</g>
<path d="M82.5761 180.456C82.0321 181.816 80.7521 184.528 78.7921 186.128C78.5723 186.309 78.3082 186.429 78.0269 186.474C77.7456 186.519 77.4574 186.488 77.1921 186.384C77.1921 186.384 73.7441 184.256 73.4721 183.296C73.4605 183.238 73.4605 183.178 73.4721 183.12L74.3281 179.12L74.4321 179.08C75.0561 178.872 78.4321 177.84 79.8561 178.416L82.0881 179.312C82.2028 179.345 82.3087 179.402 82.3981 179.481C82.4876 179.56 82.5583 179.658 82.605 179.768C82.6518 179.877 82.6735 179.996 82.6685 180.115C82.6635 180.234 82.6319 180.351 82.5761 180.456Z" fill="#CB7A63"/>
<path d="M76.952 155.84L65.248 167.24L74.456 179.112L74.352 179.152L73.496 183.152C73.4844 183.21 73.4844 183.27 73.496 183.328C72.9158 183.542 72.2896 183.6 71.68 183.496C71.68 183.496 54.216 169.312 55.2 166.864C56.1371 164.926 57.2063 163.055 58.4 161.264L58.52 161.08C60.064 158.52 69.776 143.984 77.08 144.064C82.856 144.112 82.544 150.76 76.952 155.84Z" fill="#2B786C"/>
<path opacity="0.5" d="M76.952 155.84L65.248 167.24L74.456 179.112L74.352 179.152L73.496 183.152C73.4844 183.21 73.4844 183.27 73.496 183.328C72.9159 183.542 72.2896 183.6 71.68 183.496C71.68 183.496 54 171.36 55.2 166.864C55.536 165.576 57.072 163.312 58.4 161.264L58.52 161.08C60.064 158.52 69.776 143.984 77.08 144.064C82.856 144.112 82.544 150.76 76.952 155.84Z" fill="black"/>
<path d="M73.5041 183.296C73.4925 183.238 73.4925 183.178 73.5041 183.12L74.3601 179.12L74.4641 179.08L74.7521 179.2C74.7521 179.2 75.6801 182.464 73.5041 183.296Z" fill="#263238"/>
<path d="M131.312 250.768C113.328 255.144 115.104 240.368 90.384 249.968C83.104 252.8 78.872 245.488 74.936 244.288C67.088 241.888 58.36 242.624 51.448 247.048C56.4329 226.855 64.4837 207.545 75.32 189.792C75.888 185.616 77.552 176.784 73.032 152.08C72.232 147.544 76.904 143.656 81.504 143.416L84.408 143.2C88.799 142.993 93.1982 143.039 97.584 143.336C99.048 143.48 100.472 143.704 101.736 143.944C103.377 144.251 104.887 145.05 106.064 146.234C107.241 147.419 108.031 148.933 108.328 150.576C109.11 155.019 109.378 159.536 109.128 164.04C108.952 168.736 108.408 174.872 107.288 183.352C107.008 185.48 106.688 187.76 106.328 190.208C106.328 190.208 118.12 218.52 131.312 250.768Z" fill="#2B786C"/>
<path opacity="0.5" d="M131.312 250.768C113.328 255.144 115.104 240.368 90.384 249.968C83.104 252.8 78.872 245.488 74.936 244.288C67.088 241.888 58.36 242.624 51.448 247.048C56.4329 226.855 64.4837 207.545 75.32 189.792C75.888 185.616 77.552 176.784 73.032 152.08C72.232 147.544 76.904 143.656 81.504 143.416L84.408 143.2C88.799 142.993 93.1982 143.039 97.584 143.336C99.048 143.48 100.472 143.704 101.736 143.944C103.377 144.251 104.887 145.05 106.064 146.234C107.241 147.419 108.031 148.933 108.328 150.576C109.11 155.019 109.378 159.536 109.128 164.04C108.952 168.736 108.408 174.872 107.288 183.352C107.008 185.48 106.688 187.76 106.328 190.208C106.328 190.208 118.12 218.52 131.312 250.768Z" fill="black"/>
<path opacity="0.2" d="M109.128 164.056C108.952 168.752 108.408 174.888 107.288 183.368C106.6 175.944 105.376 168.656 100.976 153.768L108.976 156.32C109.136 158.792 109.16 161.424 109.128 164.056Z" fill="black"/>
<path d="M105.152 131.736C105.062 131.495 104.898 131.288 104.684 131.144C104.471 131.001 104.217 130.928 103.96 130.936C102.272 130.8 101.392 130.672 99.8159 131.296C99.6972 131.336 99.5919 131.408 99.5119 131.504C99.467 131.602 99.4451 131.708 99.4479 131.816C99.4479 132.752 99.3919 133.688 99.3599 134.616C99.319 134.824 99.3478 135.039 99.4418 135.228C99.5359 135.418 99.6899 135.571 99.8799 135.664C100.744 136.272 104.832 138.352 104.832 138.352C105.632 138.44 107.36 136.896 108.08 136.488L105.152 131.736Z" fill="#CB7A63"/>
<path d="M103.72 138.456L108.312 135.992C108.312 135.992 120.216 151.192 120.92 152.416C126.52 162.28 118.824 162.016 116.64 160.656C111.624 157.544 112.112 153.048 110.144 149.112L103.72 138.456Z" fill="#2B786C"/>
<g opacity="0.5">
<path d="M103.72 138.456L108.312 135.992C108.312 135.992 120.216 151.192 120.92 152.416C126.52 162.28 118.824 162.016 116.64 160.656C111.624 157.544 112.112 153.048 110.144 149.112L103.72 138.456Z" fill="black"/>
</g>
<path d="M106.624 146.04C111.811 149.9 117.249 153.409 122.904 156.544L123.184 157.72C123.323 158.29 123.308 158.887 123.14 159.449C122.973 160.011 122.659 160.519 122.231 160.92C121.803 161.321 121.276 161.601 120.704 161.732C120.132 161.863 119.536 161.839 118.976 161.664L117.584 161.232C117.584 161.232 99.3601 156.248 98.9601 151C96.5361 148 101.048 140.936 106.624 146.04Z" fill="#2B786C"/>
<path opacity="0.5" d="M106.624 146.04C111.811 149.9 117.249 153.409 122.904 156.544L123.184 157.72C123.323 158.29 123.308 158.887 123.14 159.449C122.973 160.011 122.659 160.519 122.231 160.92C121.803 161.321 121.276 161.601 120.704 161.732C120.132 161.863 119.536 161.839 118.976 161.664L117.584 161.232C117.584 161.232 99.3601 156.248 98.9601 151C96.5361 148 101.048 140.936 106.624 146.04Z" fill="black"/>
<path d="M99.2721 119.808L96.7281 120.416L80.1921 124.36C80.1507 124.237 80.1186 124.112 80.0961 123.984C79.9158 123.241 79.7848 122.488 79.7041 121.728C79.6481 121.2 79.6081 120.672 79.6001 120.128C79.5041 114.528 82.2321 109.728 86.5441 108.712C90.8561 107.696 95.4401 110.704 97.8881 115.76C98.1041 116.208 98.3041 116.688 98.4881 117.168C98.7715 117.895 99.0041 118.641 99.1841 119.4C99.2001 119.568 99.2481 119.696 99.2721 119.808Z" fill="#263238"/>
<path opacity="0.5" d="M99.1999 119.808L96.6559 120.432L80.1199 124.376C80.1199 124.264 80.0559 124.128 80.0239 124C79.8462 123.257 79.7179 122.504 79.6399 121.744L98.3999 117.208C98.6833 117.935 98.9159 118.681 99.0959 119.44C99.1999 119.568 99.1999 119.696 99.1999 119.808Z" fill="black"/>
<path d="M105.392 119.936C105.449 120.174 105.458 120.42 105.418 120.661C105.379 120.902 105.292 121.133 105.162 121.34C105.032 121.547 104.863 121.726 104.663 121.867C104.464 122.008 104.238 122.107 104 122.16L77.92 128.392C77.4437 128.505 76.942 128.424 76.525 128.168C76.108 127.912 75.8099 127.5 75.696 127.024C75.6346 126.784 75.6228 126.534 75.6613 126.289C75.6998 126.044 75.7878 125.81 75.92 125.6C76.1814 125.193 76.5923 124.906 77.064 124.8L103.168 118.56C103.404 118.504 103.649 118.495 103.889 118.534C104.129 118.573 104.359 118.659 104.565 118.787C104.772 118.915 104.951 119.082 105.093 119.279C105.235 119.476 105.336 119.7 105.392 119.936Z" fill="#263238"/>
</svg>
