<svg width="400" height="400" viewBox="0 0 400 400" fill="none" xmlns="http://www.w3.org/2000/svg">
<path d="M343.376 235.552C341.989 225.024 339.673 214.64 336.456 204.52C333.024 193.32 329.024 182.032 329.44 170.352C329.736 162.12 332.224 154.136 333.44 145.984C335.432 132.952 334.2 119.536 330.768 106.784C328.296 97.624 324.632 88.648 318.768 81.184C313.52 74.504 306.656 69.184 299.264 65.04C279.728 53.992 256.864 50.512 234.464 49.04C212.96 47.6 191.016 47.864 170.32 53.84C157.45 57.5369 145.475 63.8348 135.135 72.3441C124.796 80.8534 116.312 91.3933 110.208 103.312C96.904 129.36 89.208 158.632 70.568 181.712C60.728 193.896 47.896 204.256 42.264 218.864C34.208 239.752 44.216 264.92 62.472 277.88C73.984 286.056 87.928 289.96 100.44 296.512C111.984 302.552 122.24 310.808 133.608 317.176C175.368 340.56 227.2 336 273.304 323.392C296.36 317.112 320.504 307.808 333.736 287.904C343.88 272.616 345.6 254.096 343.376 235.552Z" fill="#2B786C"/>
<path opacity="0.8" d="M343.376 235.552C341.989 225.024 339.673 214.64 336.456 204.52C333.024 193.32 329.024 182.032 329.44 170.352C329.736 162.12 332.224 154.136 333.44 145.984C335.432 132.952 334.2 119.536 330.768 106.784C328.296 97.624 324.632 88.648 318.768 81.184C313.52 74.504 306.656 69.184 299.264 65.04C279.728 53.992 256.864 50.512 234.464 49.04C212.96 47.6 191.016 47.864 170.32 53.84C157.45 57.5369 145.475 63.8348 135.135 72.3441C124.796 80.8534 116.312 91.3933 110.208 103.312C96.904 129.36 89.208 158.632 70.568 181.712C60.728 193.896 47.896 204.256 42.264 218.864C34.208 239.752 44.216 264.92 62.472 277.88C73.984 286.056 87.928 289.96 100.44 296.512C111.984 302.552 122.24 310.808 133.608 317.176C175.368 340.56 227.2 336 273.304 323.392C296.36 317.112 320.504 307.808 333.736 287.904C343.88 272.616 345.6 254.096 343.376 235.552Z" fill="white"/>
<path d="M205.024 348.68C279.6 348.68 340.056 344.518 340.056 339.384C340.056 334.25 279.6 330.088 205.024 330.088C130.448 330.088 69.9919 334.25 69.9919 339.384C69.9919 344.518 130.448 348.68 205.024 348.68Z" fill="#263238"/>
<path d="M123.904 269.352C123.344 266.648 122.6 262.768 121.92 258.08C121.72 256.728 121.528 255.296 121.352 253.816C121.96 253.704 126.792 252.76 128.672 251.416C130.384 250.208 132.224 248.216 132.296 245.976C132.337 245.452 132.267 244.925 132.089 244.43C131.911 243.935 131.631 243.484 131.265 243.105C130.9 242.727 130.458 242.431 129.97 242.236C129.482 242.042 128.957 241.953 128.432 241.976C125.296 242.192 122.4 247.056 121.72 249.784C121.68 249.96 121.4 252.072 121.28 253.16C121.176 252.264 121.072 251.376 120.976 250.448C120.832 249.104 120.72 247.688 120.608 246.312C120.608 245.592 120.536 244.872 120.504 244.144C120.472 243.416 120.504 242.704 120.504 241.968C120.504 240.896 120.584 239.784 120.64 238.68C122.016 238.616 126.04 238.352 127.84 237.44C129.64 236.528 131.84 234.792 132.248 232.64C132.36 232.132 132.364 231.606 132.261 231.096C132.157 230.586 131.948 230.103 131.646 229.679C131.345 229.254 130.958 228.898 130.511 228.632C130.063 228.367 129.565 228.198 129.048 228.136C125.92 227.88 122.312 232.248 121.24 234.84C121.2 234.92 121.032 235.496 120.832 236.176C120.928 235.096 121.016 234.016 121.152 232.928C121.52 229.848 122 226.712 122.464 223.568C122.56 222.912 122.648 222.264 122.744 221.608C123.896 221.552 128.264 221.312 130.16 220.36C132.056 219.408 134.16 217.704 134.568 215.56C134.681 215.052 134.687 214.525 134.583 214.015C134.48 213.504 134.271 213.021 133.97 212.596C133.668 212.172 133.281 211.815 132.832 211.55C132.384 211.285 131.885 211.116 131.368 211.056C128.232 210.8 124.632 215.168 123.552 217.76C123.552 217.848 123.312 218.56 123.088 219.296C123.32 217.592 123.52 215.88 123.672 214.184C123.954 211.26 124.036 208.32 123.92 205.384C124.328 205.384 129.448 205.184 131.56 204.128C133.44 203.192 135.56 201.48 135.968 199.328C136.081 198.82 136.087 198.294 135.983 197.784C135.88 197.274 135.671 196.791 135.369 196.367C135.068 195.943 134.68 195.588 134.232 195.323C133.784 195.059 133.285 194.891 132.768 194.832C129.632 194.568 126.032 198.944 124.952 201.528C124.872 201.712 124.152 204.192 123.936 205.08C123.932 205.045 123.932 205.011 123.936 204.976C123.751 202.103 123.312 199.252 122.624 196.456C122.02 193.956 121.272 191.493 120.384 189.08C119.584 186.84 118.712 184.832 117.928 183.064C117.496 182.104 117.08 181.24 116.688 180.44H116.752C116.808 180.44 116.656 176.64 116.624 176.44C116.192 173.672 113.736 168.568 110.632 168.072C110.115 168.003 109.588 168.044 109.088 168.193C108.587 168.341 108.124 168.594 107.727 168.933C107.331 169.273 107.011 169.693 106.788 170.164C106.564 170.636 106.443 171.15 106.432 171.672C106.304 173.888 107.96 176.056 109.552 177.416C111.144 178.776 115.448 180.104 116.504 180.408C116.896 181.256 117.304 182.16 117.744 183.168C118.488 184.952 119.344 186.968 120.056 189.224C120.256 189.824 120.448 190.48 120.648 191.104C120.096 190.112 119.32 188.76 119.224 188.64C117.568 186.376 113.032 182.976 110.056 183.968C109.565 184.145 109.117 184.424 108.741 184.786C108.365 185.148 108.07 185.585 107.874 186.069C107.679 186.553 107.587 187.073 107.606 187.594C107.625 188.116 107.754 188.628 107.984 189.096C108.888 191.12 111.36 192.296 113.408 192.752C115.456 193.208 120.016 192.4 120.992 192.208C121.408 193.608 121.792 195.056 122.128 196.592C122.733 199.352 123.092 202.16 123.2 204.984C123.2 205.152 123.2 205.32 123.2 205.488C123.008 204.944 121.76 202.072 121.656 201.88C120.256 199.48 116.12 195.568 113.048 196.224C112.54 196.347 112.063 196.576 111.65 196.895C111.236 197.214 110.894 197.618 110.646 198.078C110.399 198.538 110.251 199.046 110.213 199.567C110.174 200.089 110.246 200.612 110.424 201.104C111.104 203.208 113.44 204.64 115.416 205.328C117.696 206.128 123 205.616 123.192 205.6C123.236 208.433 123.094 211.266 122.768 214.08C122.536 216.168 122.216 218.272 121.872 220.376C121.608 219.68 120.456 217.008 120.344 216.824C118.952 214.424 114.816 210.52 111.744 211.176C111.237 211.299 110.761 211.527 110.348 211.846C109.935 212.165 109.594 212.568 109.346 213.027C109.099 213.487 108.951 213.993 108.912 214.514C108.873 215.034 108.944 215.557 109.12 216.048C109.8 218.16 112.128 219.584 114.112 220.28C116.336 221.08 121.416 220.592 121.848 220.552C121.688 221.504 121.536 222.464 121.376 223.424C120.84 226.544 120.296 229.68 119.856 232.784C119.696 233.864 119.584 234.928 119.472 235.984C119.048 234.952 118.24 233.096 118.152 232.944C116.752 230.544 112.616 226.632 109.544 227.296C109.037 227.419 108.561 227.647 108.148 227.966C107.735 228.285 107.394 228.688 107.146 229.147C106.899 229.607 106.751 230.113 106.712 230.634C106.673 231.154 106.744 231.677 106.92 232.168C107.6 234.28 109.928 235.704 111.912 236.4C113.896 237.096 118.176 236.792 119.384 236.696C119.2 238.472 119.064 240.24 119.008 241.984C119.008 242.736 118.936 243.512 119.008 244.232C119.08 244.952 119.008 245.688 119.056 246.4C119.152 247.88 119.224 249.256 119.344 250.632C119.4 251.328 119.464 251.984 119.528 252.656C119.256 251.552 118.792 249.8 118.728 249.648C117.712 247.032 114.216 242.576 111.072 242.76C110.552 242.806 110.048 242.961 109.592 243.215C109.136 243.469 108.738 243.815 108.424 244.232C108.111 244.649 107.888 245.127 107.771 245.636C107.654 246.144 107.645 246.672 107.744 247.184C108.096 249.368 110.144 251.136 112.032 252.12C114.08 253.2 119 253.52 119.6 253.56C119.76 255.208 119.936 256.816 120.12 258.312C120.712 263.064 121.376 266.992 121.88 269.744C122.384 272.496 122.744 274.056 122.744 274.056C122.768 274.207 122.823 274.351 122.906 274.479C122.989 274.608 123.097 274.718 123.225 274.802C123.352 274.886 123.495 274.943 123.646 274.969C123.797 274.995 123.951 274.99 124.099 274.953C124.247 274.917 124.386 274.85 124.507 274.756C124.629 274.663 124.729 274.546 124.802 274.412C124.876 274.278 124.921 274.13 124.934 273.978C124.947 273.826 124.929 273.673 124.88 273.528C124.88 273.528 124.464 272.064 123.904 269.352Z" fill="#2B786C"/>
<path d="M121.216 191.624C121.216 191.624 126.496 190.024 128.328 188.368C129.928 186.976 131.528 184.76 131.296 182.544C131.271 182.023 131.136 181.513 130.901 181.048C130.666 180.582 130.335 180.172 129.931 179.843C129.526 179.514 129.057 179.274 128.553 179.138C128.05 179.002 127.523 178.974 127.008 179.056C123.92 179.632 121.592 184.8 121.24 187.584C121.208 187.824 121.16 191.64 121.216 191.624Z" fill="#2B786C"/>
<path d="M124 274.952C124.13 275.042 124.24 275.159 124.321 275.295C124.402 275.431 124.453 275.583 124.47 275.741C124.487 275.898 124.47 276.058 124.42 276.208C124.37 276.358 124.289 276.496 124.181 276.612C124.073 276.728 123.941 276.82 123.795 276.88C123.649 276.941 123.491 276.969 123.333 276.964C123.174 276.958 123.019 276.918 122.878 276.847C122.736 276.776 122.611 276.675 122.512 276.552C122.512 276.552 121.344 275.432 119.416 273.424C117.488 271.416 114.752 268.496 111.64 264.864C110.656 263.712 109.632 262.464 108.584 261.184C108.064 261.48 103.784 263.928 101.48 264.152C99.3921 264.352 96.6801 264.032 95.1761 262.4C94.8104 262.028 94.5269 261.584 94.3441 261.095C94.1613 260.607 94.0832 260.086 94.1148 259.565C94.1465 259.045 94.2873 258.537 94.528 258.074C94.7687 257.611 95.104 257.205 95.5121 256.88C98.0321 254.992 103.408 256.784 105.696 258.408C105.832 258.504 107.184 259.704 108.016 260.472C107.592 259.944 107.216 259.44 106.744 258.872C105.888 257.792 105.064 256.688 104.176 255.496L102.936 253.72C102.504 253.136 102.136 252.464 101.72 251.832C100.8 250.344 99.9441 248.792 99.1201 247.208C98.1681 247.952 94.7601 250.56 92.7201 251.08C90.6801 251.6 87.9201 251.688 86.2241 250.28C85.8055 249.968 85.4573 249.571 85.2022 249.116C84.947 248.66 84.7906 248.156 84.743 247.636C84.6955 247.116 84.7579 246.592 84.9263 246.098C85.0946 245.604 85.3651 245.151 85.7201 244.768C87.9281 242.528 93.5121 243.48 96.0161 244.768C96.1761 244.848 97.8721 245.952 98.7921 246.576C98.3041 245.616 97.8081 244.664 97.3441 243.68C96.0001 240.848 94.7281 237.936 93.4481 235.032C93.0561 234.144 92.6481 233.264 92.2561 232.376C91.9201 232.648 87.9361 235.84 85.6561 236.416C83.6241 236.936 80.8561 237.024 79.1601 235.616C78.7415 235.304 78.3933 234.907 78.1382 234.452C77.883 233.996 77.7266 233.492 77.679 232.972C77.6315 232.452 77.6939 231.928 77.8623 231.434C78.0306 230.94 78.3011 230.487 78.6561 230.104C80.8561 227.864 86.4401 228.816 88.9521 230.104C89.1441 230.2 91.5841 231.792 92.1521 232.224C91.2721 230.28 90.3841 228.352 89.4241 226.48C88.1423 223.953 86.6993 221.51 85.1041 219.168C84.9441 219.296 80.8081 222.648 78.4641 223.24C76.4321 223.752 73.6641 223.848 71.9681 222.44C71.549 222.128 71.2005 221.731 70.9454 221.276C70.6902 220.82 70.5341 220.315 70.4873 219.795C70.4405 219.275 70.504 218.75 70.6737 218.256C70.8434 217.762 71.1154 217.31 71.4721 216.928C73.6721 214.688 79.2561 215.64 81.7601 216.928C81.9601 217.024 84.5841 218.736 85.0401 219.08C84.9441 218.944 84.8641 218.8 84.7681 218.664C83.0927 216.371 81.2188 214.229 79.1681 212.264C78.0481 211.16 76.9201 210.168 75.8001 209.224C75.0881 209.928 71.8001 213.104 69.7761 213.872C67.7521 214.64 65.1121 215 63.2321 213.808C62.7821 213.544 62.3927 213.189 62.0893 212.765C61.7859 212.341 61.5752 211.857 61.471 211.346C61.3669 210.835 61.3716 210.308 61.4848 209.799C61.598 209.29 61.8172 208.811 62.1281 208.392C64.0721 205.92 69.7281 206.248 72.3601 207.224C72.5041 207.28 73.8961 207.976 74.9041 208.496C74.3921 208.08 73.8721 207.64 73.3761 207.256C71.5041 205.784 69.7041 204.552 68.1041 203.48C67.1841 202.88 66.3441 202.352 65.5521 201.88C64.4961 202.208 60.2321 203.48 58.1041 203.216C55.9761 202.952 53.4401 202.064 52.3201 200.144C52.044 199.702 51.8639 199.206 51.7912 198.69C51.7186 198.174 51.7551 197.648 51.8983 197.146C52.0416 196.645 52.2884 196.179 52.6229 195.779C52.9573 195.379 53.372 195.054 53.8401 194.824C56.7041 193.528 61.5681 196.424 63.4401 198.504C63.6001 198.688 65.8401 201.784 65.7761 201.8H65.7121C66.5121 202.248 67.3121 202.744 68.1921 203.304C69.7921 204.344 71.6561 205.536 73.5681 206.968C75.6374 208.493 77.6192 210.132 79.5041 211.88C81.6162 213.842 83.5541 215.983 85.2961 218.28C85.3099 218.312 85.3288 218.342 85.3521 218.368C85.0481 217.504 84.2801 215.04 84.2401 214.848C83.7121 212.096 84.3121 206.456 87.0641 204.944C87.5285 204.706 88.0378 204.569 88.5588 204.54C89.0799 204.512 89.601 204.594 90.0884 204.78C90.5758 204.967 91.0186 205.253 91.3879 205.622C91.7572 205.991 92.0448 206.433 92.2321 206.92C93.0961 208.968 92.2321 211.568 91.2241 213.384C90.0401 215.432 85.8721 218.416 85.5441 218.648C87.2498 221.029 88.7971 223.52 90.1761 226.104C90.9761 227.608 91.7761 229.144 92.5121 230.696C92.2721 229.936 92.0641 229.256 92.0481 229.16C91.5201 226.408 92.1121 220.768 94.8721 219.256C95.337 219.018 95.8468 218.881 96.3682 218.854C96.8897 218.826 97.4111 218.908 97.8985 219.095C98.386 219.283 98.8286 219.57 99.1976 219.94C99.5666 220.309 99.8536 220.752 100.04 221.24C100.904 223.28 100.04 225.88 99.0321 227.696C98.0241 229.512 94.4641 232.152 93.5281 232.832C93.8081 233.432 94.0961 234.024 94.3761 234.624C95.7281 237.496 97.0561 240.376 98.4481 243.16C98.9361 244.136 99.4561 245.08 99.9681 246.032C99.7601 245.36 99.5921 244.792 99.5681 244.696C99.0401 241.944 99.6401 236.312 102.392 234.8C102.857 234.562 103.366 234.425 103.887 234.396C104.408 234.368 104.929 234.45 105.416 234.636C105.904 234.823 106.347 235.11 106.716 235.478C107.085 235.847 107.373 236.289 107.56 236.776C108.424 238.816 107.6 241.424 106.552 243.24C105.504 245.056 102.328 247.432 101.216 248.248C101.776 249.2 102.328 250.16 102.912 251.064C103.328 251.672 103.712 252.288 104.128 252.872L105.408 254.624C106.264 255.704 107.136 256.832 108 257.864C108.592 258.592 109.168 259.272 109.752 259.96C109.248 258.992 108.312 257.072 108.256 256.904C107.312 254.256 107.048 248.6 109.544 246.688C109.967 246.382 110.449 246.169 110.96 246.062C111.471 245.955 111.998 245.957 112.508 246.067C113.018 246.177 113.5 246.393 113.921 246.701C114.342 247.01 114.693 247.403 114.952 247.856C116.112 249.744 115.688 252.448 114.952 254.4C114.152 256.552 110.608 260 110.152 260.432C111.12 261.568 112.064 262.656 112.984 263.68C116.136 267.208 118.896 270.032 120.856 271.984C122.816 273.936 124 274.952 124 274.952ZM75.7361 208.608C75.7361 208.608 79.2481 204.344 79.8721 201.968C80.4001 199.944 80.5121 197.168 79.1441 195.472C78.8351 195.051 78.4408 194.699 77.9868 194.44C77.5329 194.181 77.0295 194.021 76.5095 193.97C75.9895 193.918 75.4645 193.977 74.9687 194.142C74.4729 194.307 74.0175 194.575 73.6321 194.928C71.3761 197.112 72.2881 202.704 73.5281 205.224C73.6001 205.44 75.6961 208.648 75.7361 208.608Z" fill="#2B786C"/>
<path opacity="0.1" d="M124 274.952C124.13 275.042 124.24 275.159 124.321 275.295C124.402 275.431 124.453 275.583 124.47 275.741C124.487 275.898 124.47 276.058 124.42 276.208C124.37 276.358 124.289 276.496 124.181 276.612C124.073 276.728 123.941 276.82 123.795 276.88C123.649 276.941 123.491 276.969 123.333 276.964C123.174 276.958 123.019 276.918 122.878 276.847C122.736 276.776 122.611 276.675 122.512 276.552C122.512 276.552 121.344 275.432 119.416 273.424C117.488 271.416 114.752 268.496 111.64 264.864C110.656 263.712 109.632 262.464 108.584 261.184C108.064 261.48 103.784 263.928 101.48 264.152C99.3921 264.352 96.6801 264.032 95.1761 262.4C94.8104 262.028 94.5269 261.584 94.3441 261.095C94.1613 260.607 94.0832 260.086 94.1148 259.565C94.1465 259.045 94.2873 258.537 94.528 258.074C94.7687 257.611 95.104 257.205 95.5121 256.88C98.0321 254.992 103.408 256.784 105.696 258.408C105.832 258.504 107.184 259.704 108.016 260.472C107.592 259.944 107.216 259.44 106.744 258.872C105.888 257.792 105.064 256.688 104.176 255.496L102.936 253.72C102.504 253.136 102.136 252.464 101.72 251.832C100.8 250.344 99.9441 248.792 99.1201 247.208C98.1681 247.952 94.7601 250.56 92.7201 251.08C90.6801 251.6 87.9201 251.688 86.2241 250.28C85.8055 249.968 85.4573 249.571 85.2022 249.116C84.947 248.66 84.7906 248.156 84.743 247.636C84.6955 247.116 84.7579 246.592 84.9263 246.098C85.0946 245.604 85.3651 245.151 85.7201 244.768C87.9281 242.528 93.5121 243.48 96.0161 244.768C96.1761 244.848 97.8721 245.952 98.7921 246.576C98.3041 245.616 97.8081 244.664 97.3441 243.68C96.0001 240.848 94.7281 237.936 93.4481 235.032C93.0561 234.144 92.6481 233.264 92.2561 232.376C91.9201 232.648 87.9361 235.84 85.6561 236.416C83.6241 236.936 80.8561 237.024 79.1601 235.616C78.7415 235.304 78.3933 234.907 78.1382 234.452C77.883 233.996 77.7266 233.492 77.679 232.972C77.6315 232.452 77.6939 231.928 77.8623 231.434C78.0306 230.94 78.3011 230.487 78.6561 230.104C80.8561 227.864 86.4401 228.816 88.9521 230.104C89.1441 230.2 91.5841 231.792 92.1521 232.224C91.2721 230.28 90.3841 228.352 89.4241 226.48C88.1423 223.953 86.6993 221.51 85.1041 219.168C84.9441 219.296 80.8081 222.648 78.4641 223.24C76.4321 223.752 73.6641 223.848 71.9681 222.44C71.549 222.128 71.2005 221.731 70.9454 221.276C70.6902 220.82 70.5341 220.315 70.4873 219.795C70.4405 219.275 70.504 218.75 70.6737 218.256C70.8434 217.762 71.1154 217.31 71.4721 216.928C73.6721 214.688 79.2561 215.64 81.7601 216.928C81.9601 217.024 84.5841 218.736 85.0401 219.08C84.9441 218.944 84.8641 218.8 84.7681 218.664C83.0927 216.371 81.2188 214.229 79.1681 212.264C78.0481 211.16 76.9201 210.168 75.8001 209.224C75.0881 209.928 71.8001 213.104 69.7761 213.872C67.7521 214.64 65.1121 215 63.2321 213.808C62.7821 213.544 62.3927 213.189 62.0893 212.765C61.7859 212.341 61.5752 211.857 61.471 211.346C61.3669 210.835 61.3716 210.308 61.4848 209.799C61.598 209.29 61.8172 208.811 62.1281 208.392C64.0721 205.92 69.7281 206.248 72.3601 207.224C72.5041 207.28 73.8961 207.976 74.9041 208.496C74.3921 208.08 73.8721 207.64 73.3761 207.256C71.5041 205.784 69.7041 204.552 68.1041 203.48C67.1841 202.88 66.3441 202.352 65.5521 201.88C64.4961 202.208 60.2321 203.48 58.1041 203.216C55.9761 202.952 53.4401 202.064 52.3201 200.144C52.044 199.702 51.8639 199.206 51.7912 198.69C51.7186 198.174 51.7551 197.648 51.8983 197.146C52.0416 196.645 52.2884 196.179 52.6229 195.779C52.9573 195.379 53.372 195.054 53.8401 194.824C56.7041 193.528 61.5681 196.424 63.4401 198.504C63.6001 198.688 65.8401 201.784 65.7761 201.8H65.7121C66.5121 202.248 67.3121 202.744 68.1921 203.304C69.7921 204.344 71.6561 205.536 73.5681 206.968C75.6374 208.493 77.6192 210.132 79.5041 211.88C81.6162 213.842 83.5541 215.983 85.2961 218.28C85.3099 218.312 85.3288 218.342 85.3521 218.368C85.0481 217.504 84.2801 215.04 84.2401 214.848C83.7121 212.096 84.3121 206.456 87.0641 204.944C87.5285 204.706 88.0378 204.569 88.5588 204.54C89.0799 204.512 89.601 204.594 90.0884 204.78C90.5758 204.967 91.0186 205.253 91.3879 205.622C91.7572 205.991 92.0448 206.433 92.2321 206.92C93.0961 208.968 92.2321 211.568 91.2241 213.384C90.0401 215.432 85.8721 218.416 85.5441 218.648C87.2498 221.029 88.7971 223.52 90.1761 226.104C90.9761 227.608 91.7761 229.144 92.5121 230.696C92.2721 229.936 92.0641 229.256 92.0481 229.16C91.5201 226.408 92.1121 220.768 94.8721 219.256C95.337 219.018 95.8468 218.881 96.3682 218.854C96.8897 218.826 97.4111 218.908 97.8985 219.095C98.386 219.283 98.8286 219.57 99.1976 219.94C99.5666 220.309 99.8536 220.752 100.04 221.24C100.904 223.28 100.04 225.88 99.0321 227.696C98.0241 229.512 94.4641 232.152 93.5281 232.832C93.8081 233.432 94.0961 234.024 94.3761 234.624C95.7281 237.496 97.0561 240.376 98.4481 243.16C98.9361 244.136 99.4561 245.08 99.9681 246.032C99.7601 245.36 99.5921 244.792 99.5681 244.696C99.0401 241.944 99.6401 236.312 102.392 234.8C102.857 234.562 103.366 234.425 103.887 234.396C104.408 234.368 104.929 234.45 105.416 234.636C105.904 234.823 106.347 235.11 106.716 235.478C107.085 235.847 107.373 236.289 107.56 236.776C108.424 238.816 107.6 241.424 106.552 243.24C105.504 245.056 102.328 247.432 101.216 248.248C101.776 249.2 102.328 250.16 102.912 251.064C103.328 251.672 103.712 252.288 104.128 252.872L105.408 254.624C106.264 255.704 107.136 256.832 108 257.864C108.592 258.592 109.168 259.272 109.752 259.96C109.248 258.992 108.312 257.072 108.256 256.904C107.312 254.256 107.048 248.6 109.544 246.688C109.967 246.382 110.449 246.169 110.96 246.062C111.471 245.955 111.998 245.957 112.508 246.067C113.018 246.177 113.5 246.393 113.921 246.701C114.342 247.01 114.693 247.403 114.952 247.856C116.112 249.744 115.688 252.448 114.952 254.4C114.152 256.552 110.608 260 110.152 260.432C111.12 261.568 112.064 262.656 112.984 263.68C116.136 267.208 118.896 270.032 120.856 271.984C122.816 273.936 124 274.952 124 274.952ZM75.7361 208.608C75.7361 208.608 79.2481 204.344 79.8721 201.968C80.4001 199.944 80.5121 197.168 79.1441 195.472C78.8351 195.051 78.4408 194.699 77.9868 194.44C77.5329 194.181 77.0295 194.021 76.5095 193.97C75.9895 193.918 75.4645 193.977 74.9687 194.142C74.4729 194.307 74.0175 194.575 73.6321 194.928C71.3761 197.112 72.2881 202.704 73.5281 205.224C73.6001 205.44 75.6961 208.648 75.7361 208.608Z" fill="black"/>
<path d="M103.496 327.712C102.816 325.032 101.896 321.192 101.016 316.512C100.76 315.176 100.504 313.744 100.264 312.28C100.856 312.136 105.648 310.984 107.464 309.568C109.12 308.28 110.872 306.184 110.848 303.968C110.86 303.449 110.762 302.934 110.563 302.455C110.363 301.976 110.065 301.545 109.688 301.188C109.311 300.832 108.864 300.558 108.374 300.385C107.885 300.212 107.365 300.144 106.848 300.184C103.72 300.536 101.04 305.528 100.448 308.28C100.448 308.456 100.224 310.584 100.16 311.672C100.008 310.784 99.8641 309.904 99.7281 308.976C99.5281 307.648 99.3521 306.232 99.1761 304.864L98.9841 302.704C98.8961 301.968 98.9121 301.256 98.8721 300.528C98.8721 299.456 98.8721 298.344 98.8721 297.24C100.24 297.112 104.248 296.672 106.024 295.68C107.8 294.688 109.904 292.856 110.208 290.664C110.299 290.15 110.281 289.622 110.154 289.116C110.027 288.609 109.795 288.135 109.473 287.724C109.151 287.314 108.745 286.976 108.283 286.732C107.821 286.489 107.313 286.346 106.792 286.312C103.656 286.184 100.248 290.712 99.2801 293.352C99.2801 293.432 99.1041 294.008 98.9441 294.696C98.9441 293.616 99.0321 292.544 99.1121 291.448C99.3521 288.344 99.6881 285.2 100.016 282.04C100.08 281.376 100.136 280.72 100.208 280.064C101.36 279.96 105.704 279.52 107.56 278.464C109.416 277.408 111.44 275.64 111.752 273.44C111.842 272.926 111.823 272.399 111.695 271.893C111.568 271.387 111.336 270.913 111.014 270.503C110.692 270.092 110.287 269.754 109.825 269.511C109.364 269.267 108.857 269.123 108.336 269.088C105.2 268.968 101.784 273.496 100.824 276.128C100.824 276.224 100.616 276.928 100.432 277.688C100.584 275.968 100.712 274.256 100.792 272.552C100.942 269.619 100.894 266.679 100.648 263.752C101.056 263.752 106.16 263.304 108.232 262.152C110.056 261.136 112.112 259.328 112.416 257.128C112.507 256.614 112.489 256.086 112.362 255.58C112.235 255.073 112.003 254.599 111.681 254.188C111.359 253.778 110.953 253.44 110.491 253.196C110.029 252.953 109.521 252.81 109 252.776C105.864 252.656 102.456 257.184 101.488 259.816C101.424 260 100.816 262.504 100.632 263.408C100.632 263.408 100.632 263.336 100.632 263.304C100.326 260.441 99.7633 257.611 98.9521 254.848C98.2359 252.38 97.3785 249.954 96.3841 247.584C95.4881 245.376 94.5281 243.408 93.6641 241.672C93.1921 240.736 92.7441 239.896 92.3121 239.104H92.3761C92.4321 239.104 92.1201 235.32 92.0721 235.104C91.5201 232.352 88.8721 227.36 85.6721 227C85.1548 226.96 84.6348 227.028 84.1457 227.201C83.6565 227.374 83.2091 227.648 82.8322 228.004C82.4553 228.361 82.1573 228.792 81.9575 229.271C81.7577 229.75 81.6604 230.265 81.6721 230.784C81.6721 233 83.3921 235.096 85.0481 236.384C86.7041 237.672 91.0481 238.784 92.1201 239.072C92.5521 239.872 93.0001 240.784 93.4801 241.768C94.2801 243.52 95.2081 245.496 96.0561 247.72C96.2881 248.312 96.5041 248.952 96.7281 249.576C96.1361 248.608 95.2961 247.288 95.2001 247.176C93.4481 244.992 88.8001 241.8 85.8321 242.92C85.3504 243.12 84.9161 243.419 84.5574 243.798C84.1988 244.176 83.9238 244.626 83.7503 245.118C83.5768 245.61 83.5086 246.133 83.5503 246.653C83.5919 247.173 83.7425 247.678 83.9921 248.136C84.9841 250.12 87.5041 251.168 89.5921 251.552C91.6801 251.936 96.1761 250.904 97.1441 250.664C97.6241 252.048 98.0801 253.48 98.4721 255C99.2176 257.744 99.7129 260.55 99.9521 263.384C99.9521 263.544 99.9521 263.72 99.9521 263.88C99.7441 263.352 98.3521 260.528 98.2561 260.344C96.7521 257.944 92.4481 254.288 89.4081 255.08C88.9066 255.225 88.4412 255.474 88.0425 255.811C87.6438 256.148 87.3207 256.565 87.0942 257.036C86.8677 257.506 86.7429 258.019 86.7281 258.541C86.7133 259.062 86.8087 259.582 87.0081 260.064C87.8081 262.144 90.2081 263.472 92.1761 264.064C94.4881 264.76 99.7601 264.016 99.9601 263.992C100.121 266.82 100.102 269.655 99.9041 272.48C99.7601 274.576 99.5361 276.688 99.2881 278.808C99.0001 278.128 97.6881 275.504 97.6081 275.328C96.1041 272.928 91.8001 269.272 88.7601 270.064C88.2586 270.209 87.7932 270.458 87.3945 270.795C86.9958 271.132 86.6727 271.549 86.4462 272.02C86.2197 272.49 86.0949 273.003 86.0801 273.525C86.0653 274.046 86.1607 274.566 86.3601 275.048C87.1601 277.128 89.5601 278.448 91.5281 279.048C93.7841 279.72 98.8401 279.048 99.2721 278.976C99.1521 279.936 99.0481 280.904 98.9281 281.864C98.5361 285.008 98.1281 288.168 97.8161 291.288C97.7121 292.368 97.6481 293.44 97.5761 294.488C97.1041 293.48 96.2161 291.656 96.1201 291.512C94.6161 289.112 90.3201 285.456 87.3201 286.248C86.8193 286.394 86.3548 286.644 85.9568 286.981C85.5587 287.318 85.2361 287.735 85.0097 288.205C84.7834 288.675 84.6585 289.188 84.643 289.709C84.6276 290.231 84.722 290.749 84.9201 291.232C85.7201 293.312 88.1201 294.632 90.0881 295.232C92.0561 295.832 96.3681 295.352 97.5681 295.192C97.4641 296.976 97.4001 298.752 97.4241 300.496C97.4241 301.256 97.4241 302.024 97.4961 302.744L97.6401 304.912C97.8001 306.384 97.9361 307.752 98.1121 309.128C98.2001 309.816 98.2961 310.464 98.3921 311.136C98.0641 310.048 97.5281 308.32 97.4641 308.168C96.3281 305.6 92.6641 301.304 89.5121 301.624C88.9952 301.692 88.4984 301.869 88.0541 302.142C87.6097 302.414 87.2277 302.778 86.9328 303.208C86.6378 303.638 86.4365 304.125 86.342 304.637C86.2475 305.15 86.2618 305.677 86.3841 306.184C86.8321 308.36 88.9921 310.032 90.8881 310.928C92.9761 311.92 97.9041 312.024 98.5121 312.032C98.7441 313.68 98.9841 315.272 99.2401 316.768C100.04 321.48 100.84 325.384 101.496 328.104C102.152 330.824 102.552 332.376 102.552 332.376C102.65 332.637 102.844 332.852 103.093 332.976C103.343 333.1 103.631 333.126 103.898 333.046C104.166 332.967 104.394 332.79 104.536 332.55C104.678 332.31 104.724 332.025 104.664 331.752C104.664 331.752 104.176 330.4 103.496 327.712Z" fill="#2B786C"/>
<path d="M97.3761 250.176C97.3761 250.176 102.584 248.336 104.336 246.616C105.832 245.144 107.336 242.864 107.056 240.664C107.007 240.144 106.849 239.64 106.593 239.185C106.336 238.731 105.987 238.335 105.567 238.024C105.148 237.713 104.667 237.494 104.157 237.381C103.648 237.268 103.12 237.263 102.608 237.368C99.5521 238.08 97.4561 243.344 97.2241 246.168C97.2001 246.4 97.3201 250.2 97.3761 250.176Z" fill="#2B786C"/>
<path d="M100.496 328.84C98.456 326.984 95.576 324.28 92.264 320.888C91.312 319.912 90.312 318.864 89.304 317.776C89.72 317.328 93.072 313.72 93.816 311.536C94.488 309.552 94.792 306.84 93.544 305C93.266 304.559 92.8982 304.181 92.4645 303.892C92.0309 303.603 91.5411 303.408 91.0271 303.32C90.5132 303.233 89.9865 303.254 89.4815 303.384C88.9765 303.513 88.5044 303.748 88.096 304.072C85.696 306.088 86.2 311.736 87.256 314.328C87.32 314.496 88.344 316.376 88.856 317.32C88.24 316.664 87.632 316.008 87.008 315.304C86.104 314.312 85.184 313.224 84.28 312.184L82.92 310.488C82.448 309.92 82.072 309.32 81.632 308.736C81.008 307.864 80.408 306.928 79.808 305.992C80.88 305.136 83.984 302.552 84.92 300.752C85.856 298.952 86.6 296.256 85.64 294.256C85.4322 293.777 85.1258 293.348 84.7408 292.996C84.3558 292.643 83.9009 292.376 83.4056 292.212C82.9104 292.047 82.3861 291.989 81.8668 292.04C81.3475 292.092 80.845 292.253 80.392 292.512C77.704 294.112 77.36 299.792 77.992 302.52C77.992 302.616 78.216 303.176 78.456 303.84C77.896 302.912 77.336 301.992 76.8 301.032C75.288 298.312 73.832 295.504 72.36 292.688C72.056 292.104 71.744 291.52 71.432 290.936C72.336 290.216 75.72 287.448 76.704 285.56C77.688 283.672 78.376 281.064 77.424 279.064C77.2162 278.585 76.9098 278.156 76.5248 277.804C76.1398 277.451 75.6849 277.184 75.1896 277.02C74.6944 276.855 74.1701 276.797 73.6508 276.848C73.1315 276.9 72.629 277.061 72.176 277.32C69.488 278.92 69.144 284.6 69.776 287.328C69.776 287.432 70.04 288.128 70.312 288.848C69.512 287.328 68.648 285.832 67.776 284.36C66.2808 281.84 64.6212 279.422 62.808 277.12C63.136 276.864 67.168 273.704 68.256 271.608C69.224 269.752 69.936 267.112 68.976 265.112C68.769 264.633 68.4632 264.202 68.0785 263.849C67.6938 263.496 67.239 263.228 66.7437 263.063C66.2484 262.897 65.7238 262.838 65.2042 262.89C64.6845 262.941 64.1815 263.101 63.728 263.36C61.04 264.96 60.696 270.648 61.328 273.376C61.376 273.568 62.256 275.992 62.592 276.848L62.536 276.76C60.6943 274.547 58.6626 272.499 56.464 270.64C54.5326 268.977 52.5079 267.425 50.4 265.992C48.432 264.648 46.544 263.536 44.872 262.568C43.96 262.048 43.112 261.592 42.328 261.176H42.384C42.44 261.176 40.08 258.16 39.904 257.976C37.928 255.984 32.944 253.304 30.144 254.728C29.6852 254.976 29.2838 255.318 28.966 255.732C28.6482 256.145 28.4212 256.621 28.2997 257.128C28.1781 257.636 28.1649 258.163 28.2607 258.676C28.3566 259.188 28.5594 259.675 28.856 260.104C30.056 261.976 32.672 262.76 34.768 262.92C36.864 263.08 41.112 261.624 42.144 261.256C42.944 261.704 43.824 262.192 44.768 262.76C46.416 263.76 48.272 264.912 50.2 266.296C50.72 266.664 51.256 267.096 51.8 267.472C50.776 266.992 49.344 266.36 49.2 266.312C46.528 265.456 40.864 265.368 39.032 267.912C38.7414 268.345 38.5449 268.834 38.4553 269.348C38.3656 269.862 38.3847 270.389 38.5113 270.895C38.638 271.401 38.8694 271.874 39.1906 272.285C39.5118 272.696 39.9157 273.035 40.376 273.28C42.304 274.376 44.984 273.872 46.912 273.048C48.84 272.224 52.048 268.872 52.728 268.144C53.888 269.032 55.056 269.976 56.224 271.024C58.3567 272.904 60.3165 274.97 62.08 277.2C62.184 277.328 62.272 277.472 62.376 277.608C61.904 277.28 59.176 275.688 59 275.6C56.44 274.456 50.816 273.744 48.72 276.088C48.3829 276.486 48.1331 276.95 47.9869 277.451C47.8408 277.951 47.8015 278.477 47.8717 278.994C47.9418 279.51 48.1198 280.007 48.3942 280.45C48.6685 280.894 49.033 281.274 49.464 281.568C51.256 282.872 53.984 282.664 55.984 282.056C58.296 281.36 62.288 277.832 62.44 277.704C64.1397 279.971 65.6896 282.347 67.08 284.816C68.12 286.64 69.096 288.528 70.056 290.416C69.44 290.008 66.928 288.528 66.736 288.44C64.176 287.296 58.552 286.592 56.448 288.928C56.1101 289.326 55.8598 289.79 55.7136 290.292C55.5673 290.793 55.5284 291.319 55.5994 291.836C55.6703 292.353 55.8496 292.85 56.1254 293.293C56.4012 293.736 56.7674 294.116 57.2 294.408C58.992 295.72 61.712 295.504 63.72 294.904C65.976 294.216 69.816 290.856 70.12 290.576C70.56 291.44 71 292.304 71.432 293.168C72.84 296.016 74.232 298.864 75.704 301.64C76.208 302.6 76.744 303.536 77.304 304.464C76.352 303.88 74.608 302.864 74.448 302.784C71.888 301.64 66.264 300.936 64.168 303.272C63.8309 303.67 63.5811 304.134 63.4349 304.635C63.2888 305.135 63.2495 305.661 63.3197 306.178C63.3898 306.694 63.5678 307.191 63.8422 307.634C64.1165 308.078 64.481 308.459 64.912 308.752C66.704 310.064 69.424 309.848 71.432 309.248C73.44 308.648 76.736 305.88 77.656 305.088C78.552 306.632 79.472 308.152 80.456 309.592C80.896 310.208 81.304 310.864 81.752 311.432L83.072 313.152C84.016 314.296 84.888 315.368 85.792 316.408L87.128 317.936C86.256 317.2 84.856 316.064 84.728 315.976C82.328 314.456 76.92 312.904 74.488 314.896C74.0933 315.238 73.7751 315.659 73.5541 316.133C73.333 316.606 73.2141 317.12 73.205 317.643C73.196 318.165 73.297 318.683 73.5015 319.164C73.706 319.644 74.0094 320.076 74.392 320.432C75.992 321.992 78.696 322.2 80.792 321.904C83.08 321.576 87.248 318.944 87.76 318.616C88.856 319.856 89.944 321.016 90.96 322.16C94.224 325.656 97.08 328.448 99.104 330.368C101.128 332.288 102.304 333.36 102.304 333.36C102.53 333.526 102.811 333.599 103.089 333.566C103.367 333.532 103.622 333.394 103.803 333.179C103.983 332.964 104.074 332.689 104.059 332.409C104.044 332.129 103.923 331.866 103.72 331.672C103.72 331.672 102.544 330.704 100.496 328.84Z" fill="#2B786C"/>
<path d="M52.6241 267.552C52.6241 267.552 55.9441 263.144 56.4641 260.736C56.9041 258.688 56.8961 255.936 55.4481 254.272C55.1197 253.866 54.7099 253.534 54.2451 253.297C53.7803 253.06 53.2709 252.923 52.7499 252.895C52.2288 252.867 51.7077 252.949 51.2202 253.135C50.7328 253.321 50.2898 253.608 49.9201 253.976C47.7601 256.256 48.9201 261.808 50.2641 264.264C50.4001 264.48 52.5841 267.592 52.6241 267.552Z" fill="#2B786C"/>
<g opacity="0.1">
<path d="M103.496 327.712C102.816 325.032 101.896 321.192 101.016 316.512C100.76 315.176 100.504 313.744 100.264 312.28C100.856 312.136 105.648 310.984 107.464 309.568C109.12 308.28 110.872 306.184 110.848 303.968C110.86 303.449 110.762 302.934 110.563 302.455C110.363 301.976 110.065 301.545 109.688 301.188C109.311 300.832 108.864 300.558 108.374 300.385C107.885 300.212 107.365 300.144 106.848 300.184C103.72 300.536 101.04 305.528 100.448 308.28C100.448 308.456 100.224 310.584 100.16 311.672C100.008 310.784 99.8641 309.904 99.7281 308.976C99.5281 307.648 99.3521 306.232 99.1761 304.864L98.9841 302.704C98.8961 301.968 98.9121 301.256 98.8721 300.528C98.8721 299.456 98.8721 298.344 98.8721 297.24C100.24 297.112 104.248 296.672 106.024 295.68C107.8 294.688 109.904 292.856 110.208 290.664C110.299 290.15 110.281 289.622 110.154 289.116C110.027 288.609 109.795 288.135 109.473 287.724C109.151 287.314 108.745 286.976 108.283 286.732C107.821 286.489 107.313 286.346 106.792 286.312C103.656 286.184 100.248 290.712 99.2801 293.352C99.2801 293.432 99.1041 294.008 98.9441 294.696C98.9441 293.616 99.0321 292.544 99.1121 291.448C99.3521 288.344 99.6881 285.2 100.016 282.04C100.08 281.376 100.136 280.72 100.208 280.064C101.36 279.96 105.704 279.52 107.56 278.464C109.416 277.408 111.44 275.64 111.752 273.44C111.842 272.926 111.823 272.399 111.695 271.893C111.568 271.387 111.336 270.913 111.014 270.503C110.692 270.092 110.287 269.754 109.825 269.511C109.364 269.267 108.857 269.123 108.336 269.088C105.2 268.968 101.784 273.496 100.824 276.128C100.824 276.224 100.616 276.928 100.432 277.688C100.584 275.968 100.712 274.256 100.792 272.552C100.942 269.619 100.894 266.679 100.648 263.752C101.056 263.752 106.16 263.304 108.232 262.152C110.056 261.136 112.112 259.328 112.416 257.128C112.507 256.614 112.489 256.086 112.362 255.58C112.235 255.073 112.003 254.599 111.681 254.188C111.359 253.778 110.953 253.44 110.491 253.196C110.029 252.953 109.521 252.81 109 252.776C105.864 252.656 102.456 257.184 101.488 259.816C101.424 260 100.816 262.504 100.632 263.408C100.632 263.408 100.632 263.336 100.632 263.304C100.326 260.441 99.7633 257.611 98.9521 254.848C98.2359 252.38 97.3785 249.954 96.3841 247.584C95.4881 245.376 94.5281 243.408 93.6641 241.672C93.1921 240.736 92.7441 239.896 92.3121 239.104H92.3761C92.4321 239.104 92.1201 235.32 92.0721 235.104C91.5201 232.352 88.8721 227.36 85.6721 227C85.1548 226.96 84.6348 227.028 84.1457 227.201C83.6565 227.374 83.2091 227.648 82.8322 228.004C82.4553 228.361 82.1573 228.792 81.9575 229.271C81.7577 229.75 81.6604 230.265 81.6721 230.784C81.6721 233 83.3921 235.096 85.0481 236.384C86.7041 237.672 91.0481 238.784 92.1201 239.072C92.5521 239.872 93.0001 240.784 93.4801 241.768C94.2801 243.52 95.2081 245.496 96.0561 247.72C96.2881 248.312 96.5041 248.952 96.7281 249.576C96.1361 248.608 95.2961 247.288 95.2001 247.176C93.4481 244.992 88.8001 241.8 85.8321 242.92C85.3504 243.12 84.9161 243.419 84.5574 243.798C84.1988 244.176 83.9238 244.626 83.7503 245.118C83.5768 245.61 83.5086 246.133 83.5503 246.653C83.5919 247.173 83.7425 247.678 83.9921 248.136C84.9841 250.12 87.5041 251.168 89.5921 251.552C91.6801 251.936 96.1761 250.904 97.1441 250.664C97.6241 252.048 98.0801 253.48 98.4721 255C99.2176 257.744 99.7129 260.55 99.9521 263.384C99.9521 263.544 99.9521 263.72 99.9521 263.88C99.7441 263.352 98.3521 260.528 98.2561 260.344C96.7521 257.944 92.4481 254.288 89.4081 255.08C88.9066 255.225 88.4412 255.474 88.0425 255.811C87.6438 256.148 87.3207 256.565 87.0942 257.036C86.8677 257.506 86.7429 258.019 86.7281 258.541C86.7133 259.062 86.8087 259.582 87.0081 260.064C87.8081 262.144 90.2081 263.472 92.1761 264.064C94.4881 264.76 99.7601 264.016 99.9601 263.992C100.121 266.82 100.102 269.655 99.9041 272.48C99.7601 274.576 99.5361 276.688 99.2881 278.808C99.0001 278.128 97.6881 275.504 97.6081 275.328C96.1041 272.928 91.8001 269.272 88.7601 270.064C88.2586 270.209 87.7932 270.458 87.3945 270.795C86.9958 271.132 86.6727 271.549 86.4462 272.02C86.2197 272.49 86.0949 273.003 86.0801 273.525C86.0653 274.046 86.1607 274.566 86.3601 275.048C87.1601 277.128 89.5601 278.448 91.5281 279.048C93.7841 279.72 98.8401 279.048 99.2721 278.976C99.1521 279.936 99.0481 280.904 98.9281 281.864C98.5361 285.008 98.1281 288.168 97.8161 291.288C97.7121 292.368 97.6481 293.44 97.5761 294.488C97.1041 293.48 96.2161 291.656 96.1201 291.512C94.6161 289.112 90.3201 285.456 87.3201 286.248C86.8193 286.394 86.3548 286.644 85.9568 286.981C85.5587 287.318 85.2361 287.735 85.0097 288.205C84.7834 288.675 84.6585 289.188 84.643 289.709C84.6276 290.231 84.722 290.749 84.9201 291.232C85.7201 293.312 88.1201 294.632 90.0881 295.232C92.0561 295.832 96.3681 295.352 97.5681 295.192C97.4641 296.976 97.4001 298.752 97.4241 300.496C97.4241 301.256 97.4241 302.024 97.4961 302.744L97.6401 304.912C97.8001 306.384 97.9361 307.752 98.1121 309.128C98.2001 309.816 98.2961 310.464 98.3921 311.136C98.0641 310.048 97.5281 308.32 97.4641 308.168C96.3281 305.6 92.6641 301.304 89.5121 301.624C88.9952 301.692 88.4984 301.869 88.0541 302.142C87.6097 302.414 87.2277 302.778 86.9328 303.208C86.6378 303.638 86.4365 304.125 86.342 304.637C86.2475 305.15 86.2618 305.677 86.3841 306.184C86.8321 308.36 88.9921 310.032 90.8881 310.928C92.9761 311.92 97.9041 312.024 98.5121 312.032C98.7441 313.68 98.9841 315.272 99.2401 316.768C100.04 321.48 100.84 325.384 101.496 328.104C102.152 330.824 102.552 332.376 102.552 332.376C102.65 332.637 102.844 332.852 103.093 332.976C103.343 333.1 103.631 333.126 103.898 333.046C104.166 332.967 104.394 332.79 104.536 332.55C104.678 332.31 104.724 332.025 104.664 331.752C104.664 331.752 104.176 330.4 103.496 327.712Z" fill="black"/>
<path d="M97.3761 250.176C97.3761 250.176 102.584 248.336 104.336 246.616C105.832 245.144 107.336 242.864 107.056 240.664C107.007 240.144 106.849 239.64 106.593 239.185C106.336 238.731 105.987 238.335 105.567 238.024C105.148 237.713 104.667 237.494 104.157 237.381C103.648 237.268 103.12 237.264 102.608 237.368C99.5521 238.08 97.4561 243.344 97.2241 246.168C97.2001 246.4 97.3201 250.2 97.3761 250.176Z" fill="black"/>
<path d="M100.496 328.84C98.456 326.984 95.576 324.28 92.264 320.888C91.312 319.912 90.312 318.864 89.304 317.776C89.72 317.328 93.072 313.72 93.816 311.536C94.488 309.552 94.792 306.84 93.544 305C93.266 304.559 92.8982 304.181 92.4645 303.892C92.0309 303.603 91.5411 303.408 91.0271 303.32C90.5132 303.233 89.9865 303.254 89.4815 303.384C88.9765 303.513 88.5044 303.748 88.096 304.072C85.696 306.088 86.2 311.736 87.256 314.328C87.32 314.496 88.344 316.376 88.856 317.32C88.24 316.664 87.632 316.008 87.008 315.304C86.104 314.312 85.184 313.224 84.28 312.184L82.92 310.488C82.448 309.92 82.072 309.32 81.632 308.736C81.008 307.864 80.408 306.928 79.808 305.992C80.88 305.136 83.984 302.552 84.92 300.752C85.856 298.952 86.6 296.256 85.64 294.256C85.4322 293.777 85.1258 293.348 84.7408 292.996C84.3558 292.643 83.9009 292.376 83.4056 292.212C82.9104 292.047 82.3861 291.989 81.8668 292.04C81.3475 292.092 80.845 292.253 80.392 292.512C77.704 294.112 77.36 299.792 77.992 302.52C77.992 302.616 78.216 303.176 78.456 303.84C77.896 302.912 77.336 301.992 76.8 301.032C75.288 298.312 73.832 295.504 72.36 292.688C72.056 292.104 71.744 291.52 71.432 290.936C72.336 290.216 75.72 287.448 76.704 285.56C77.688 283.672 78.376 281.064 77.424 279.064C77.2162 278.585 76.9098 278.156 76.5248 277.804C76.1398 277.451 75.6849 277.184 75.1896 277.02C74.6944 276.855 74.1701 276.797 73.6508 276.848C73.1315 276.9 72.629 277.061 72.176 277.32C69.488 278.92 69.144 284.6 69.776 287.328C69.776 287.432 70.04 288.128 70.312 288.848C69.512 287.328 68.648 285.832 67.776 284.36C66.2808 281.84 64.6212 279.422 62.808 277.12C63.136 276.864 67.168 273.704 68.256 271.608C69.224 269.752 69.936 267.112 68.976 265.112C68.769 264.633 68.4632 264.202 68.0785 263.849C67.6938 263.496 67.239 263.228 66.7437 263.063C66.2484 262.897 65.7238 262.838 65.2042 262.89C64.6845 262.941 64.1815 263.101 63.728 263.36C61.04 264.96 60.696 270.648 61.328 273.376C61.376 273.568 62.256 275.992 62.592 276.848L62.536 276.76C60.6943 274.547 58.6626 272.499 56.464 270.64C54.5326 268.977 52.5079 267.425 50.4 265.992C48.432 264.648 46.544 263.536 44.872 262.568C43.96 262.048 43.112 261.592 42.328 261.176H42.384C42.44 261.176 40.08 258.16 39.904 257.976C37.928 255.984 32.944 253.304 30.144 254.728C29.6852 254.976 29.2838 255.318 28.966 255.732C28.6482 256.145 28.4212 256.621 28.2997 257.128C28.1781 257.636 28.1649 258.163 28.2607 258.676C28.3566 259.188 28.5594 259.675 28.856 260.104C30.056 261.976 32.672 262.76 34.768 262.92C36.864 263.08 41.112 261.624 42.144 261.256C42.944 261.704 43.824 262.192 44.768 262.76C46.416 263.76 48.272 264.912 50.2 266.296C50.72 266.664 51.256 267.096 51.8 267.472C50.776 266.992 49.344 266.36 49.2 266.312C46.528 265.456 40.864 265.368 39.032 267.912C38.7414 268.345 38.5449 268.834 38.4553 269.348C38.3656 269.862 38.3847 270.389 38.5113 270.895C38.638 271.401 38.8694 271.874 39.1906 272.285C39.5118 272.696 39.9157 273.035 40.376 273.28C42.304 274.376 44.984 273.872 46.912 273.048C48.84 272.224 52.048 268.872 52.728 268.144C53.888 269.032 55.056 269.976 56.224 271.024C58.3567 272.904 60.3165 274.97 62.08 277.2C62.184 277.328 62.272 277.472 62.376 277.608C61.904 277.28 59.176 275.688 59 275.6C56.44 274.456 50.816 273.744 48.72 276.088C48.3829 276.486 48.1331 276.95 47.9869 277.451C47.8408 277.951 47.8015 278.477 47.8717 278.994C47.9418 279.51 48.1198 280.007 48.3942 280.45C48.6685 280.894 49.033 281.274 49.464 281.568C51.256 282.872 53.984 282.664 55.984 282.056C58.296 281.36 62.288 277.832 62.44 277.704C64.1397 279.971 65.6896 282.347 67.08 284.816C68.12 286.64 69.096 288.528 70.056 290.416C69.44 290.008 66.928 288.528 66.736 288.44C64.176 287.296 58.552 286.592 56.448 288.928C56.1101 289.326 55.8598 289.79 55.7136 290.292C55.5673 290.793 55.5284 291.319 55.5994 291.836C55.6703 292.353 55.8496 292.85 56.1254 293.293C56.4012 293.736 56.7674 294.116 57.2 294.408C58.992 295.72 61.712 295.504 63.72 294.904C65.976 294.216 69.816 290.856 70.12 290.576C70.56 291.44 71 292.304 71.432 293.168C72.84 296.016 74.232 298.864 75.704 301.64C76.208 302.6 76.744 303.536 77.304 304.464C76.352 303.88 74.608 302.864 74.448 302.784C71.888 301.64 66.264 300.936 64.168 303.272C63.8309 303.67 63.5811 304.134 63.4349 304.635C63.2888 305.135 63.2495 305.661 63.3197 306.178C63.3898 306.694 63.5678 307.191 63.8422 307.634C64.1165 308.078 64.481 308.459 64.912 308.752C66.704 310.064 69.424 309.848 71.432 309.248C73.44 308.648 76.736 305.88 77.656 305.088C78.552 306.632 79.472 308.152 80.456 309.592C80.896 310.208 81.304 310.864 81.752 311.432L83.072 313.152C84.016 314.296 84.888 315.368 85.792 316.408L87.128 317.936C86.256 317.2 84.856 316.064 84.728 315.976C82.328 314.456 76.92 312.904 74.488 314.896C74.0933 315.238 73.7751 315.659 73.5541 316.133C73.333 316.606 73.2141 317.12 73.205 317.643C73.196 318.165 73.297 318.683 73.5015 319.164C73.706 319.644 74.0094 320.076 74.392 320.432C75.992 321.992 78.696 322.2 80.792 321.904C83.08 321.576 87.248 318.944 87.76 318.616C88.856 319.856 89.944 321.016 90.96 322.16C94.224 325.656 97.08 328.448 99.104 330.368C101.128 332.288 102.304 333.36 102.304 333.36C102.53 333.526 102.811 333.599 103.089 333.566C103.367 333.532 103.622 333.394 103.803 333.179C103.983 332.964 104.074 332.689 104.059 332.409C104.044 332.129 103.923 331.866 103.72 331.672C103.72 331.672 102.544 330.704 100.496 328.84Z" fill="black"/>
<path d="M52.6241 267.552C52.6241 267.552 55.9441 263.144 56.4641 260.736C56.9041 258.688 56.8961 255.936 55.4481 254.272C55.1197 253.866 54.7099 253.534 54.2451 253.297C53.7803 253.06 53.2709 252.923 52.7499 252.895C52.2288 252.867 51.7077 252.949 51.2202 253.135C50.7328 253.321 50.2898 253.608 49.9201 253.976C47.7601 256.256 48.9201 261.808 50.2641 264.264C50.4001 264.48 52.5841 267.592 52.6241 267.552Z" fill="black"/>
</g>
<g opacity="0.1">
<path d="M123.904 269.352C123.344 266.648 122.6 262.768 121.92 258.08C121.72 256.728 121.528 255.296 121.352 253.816C121.96 253.704 126.792 252.76 128.672 251.416C130.384 250.208 132.224 248.216 132.296 245.976C132.337 245.452 132.267 244.925 132.089 244.43C131.911 243.935 131.631 243.484 131.265 243.105C130.9 242.727 130.458 242.431 129.97 242.236C129.482 242.042 128.957 241.953 128.432 241.976C125.296 242.192 122.4 247.056 121.72 249.784C121.68 249.96 121.4 252.072 121.28 253.16C121.176 252.264 121.072 251.376 120.976 250.448C120.832 249.104 120.72 247.688 120.608 246.312C120.608 245.592 120.536 244.872 120.504 244.144C120.472 243.416 120.504 242.704 120.504 241.968C120.504 240.896 120.584 239.784 120.64 238.68C122.016 238.616 126.04 238.352 127.84 237.44C129.64 236.528 131.84 234.792 132.248 232.64C132.36 232.132 132.364 231.606 132.261 231.096C132.157 230.586 131.948 230.103 131.646 229.679C131.345 229.254 130.958 228.898 130.511 228.632C130.063 228.367 129.565 228.198 129.048 228.136C125.92 227.88 122.312 232.248 121.24 234.84C121.2 234.92 121.032 235.496 120.832 236.176C120.928 235.096 121.016 234.016 121.152 232.928C121.52 229.848 122 226.712 122.464 223.568C122.56 222.912 122.648 222.264 122.744 221.608C123.896 221.552 128.264 221.312 130.16 220.36C132.056 219.408 134.16 217.704 134.568 215.56C134.681 215.052 134.687 214.525 134.583 214.015C134.48 213.504 134.271 213.021 133.97 212.596C133.668 212.172 133.281 211.815 132.832 211.55C132.384 211.285 131.885 211.116 131.368 211.056C128.232 210.8 124.632 215.168 123.552 217.76C123.552 217.848 123.312 218.56 123.088 219.296C123.32 217.592 123.52 215.88 123.672 214.184C123.954 211.26 124.036 208.32 123.92 205.384C124.328 205.384 129.448 205.184 131.56 204.128C133.44 203.192 135.56 201.48 135.968 199.328C136.081 198.82 136.087 198.294 135.983 197.784C135.88 197.274 135.671 196.791 135.369 196.367C135.068 195.943 134.68 195.588 134.232 195.323C133.784 195.059 133.285 194.891 132.768 194.832C129.632 194.568 126.032 198.944 124.952 201.528C124.872 201.712 124.152 204.192 123.936 205.08C123.932 205.045 123.932 205.011 123.936 204.976C123.751 202.103 123.312 199.252 122.624 196.456C122.02 193.956 121.272 191.493 120.384 189.08C119.584 186.84 118.712 184.832 117.928 183.064C117.496 182.104 117.08 181.24 116.688 180.44H116.752C116.808 180.44 116.656 176.64 116.624 176.44C116.192 173.672 113.736 168.568 110.632 168.072C110.115 168.003 109.588 168.044 109.088 168.193C108.587 168.341 108.124 168.594 107.727 168.933C107.331 169.273 107.011 169.693 106.788 170.164C106.564 170.636 106.443 171.15 106.432 171.672C106.304 173.888 107.96 176.056 109.552 177.416C111.144 178.776 115.448 180.104 116.504 180.408C116.896 181.256 117.304 182.16 117.744 183.168C118.488 184.952 119.344 186.968 120.056 189.224C120.256 189.824 120.448 190.48 120.648 191.104C120.096 190.112 119.32 188.76 119.224 188.64C117.568 186.376 113.032 182.976 110.056 183.968C109.565 184.145 109.117 184.424 108.741 184.786C108.365 185.148 108.07 185.585 107.874 186.069C107.679 186.553 107.587 187.073 107.606 187.594C107.625 188.116 107.754 188.628 107.984 189.096C108.888 191.12 111.36 192.296 113.408 192.752C115.456 193.208 120.016 192.4 120.992 192.208C121.408 193.608 121.792 195.056 122.128 196.592C122.733 199.352 123.092 202.16 123.2 204.984C123.2 205.152 123.2 205.32 123.2 205.488C123.008 204.944 121.76 202.072 121.656 201.88C120.256 199.48 116.12 195.568 113.048 196.224C112.54 196.347 112.063 196.576 111.65 196.895C111.236 197.214 110.894 197.618 110.646 198.078C110.399 198.538 110.251 199.046 110.213 199.567C110.174 200.089 110.246 200.612 110.424 201.104C111.104 203.208 113.44 204.64 115.416 205.328C117.696 206.128 123 205.616 123.192 205.6C123.236 208.433 123.094 211.266 122.768 214.08C122.536 216.168 122.216 218.272 121.872 220.376C121.608 219.68 120.456 217.008 120.344 216.824C118.952 214.424 114.816 210.52 111.744 211.176C111.237 211.299 110.761 211.527 110.348 211.846C109.935 212.165 109.594 212.568 109.346 213.027C109.099 213.487 108.951 213.993 108.912 214.514C108.873 215.034 108.944 215.557 109.12 216.048C109.8 218.16 112.128 219.584 114.112 220.28C116.336 221.08 121.416 220.592 121.848 220.552C121.688 221.504 121.536 222.464 121.376 223.424C120.84 226.544 120.296 229.68 119.856 232.784C119.696 233.864 119.584 234.928 119.472 235.984C119.048 234.952 118.24 233.096 118.152 232.944C116.752 230.544 112.616 226.632 109.544 227.296C109.037 227.419 108.561 227.647 108.148 227.966C107.735 228.285 107.394 228.688 107.146 229.147C106.899 229.607 106.751 230.113 106.712 230.634C106.673 231.154 106.744 231.677 106.92 232.168C107.6 234.28 109.928 235.704 111.912 236.4C113.896 237.096 118.176 236.792 119.384 236.696C119.2 238.472 119.064 240.24 119.008 241.984C119.008 242.736 118.936 243.512 119.008 244.232C119.08 244.952 119.008 245.688 119.056 246.4C119.152 247.88 119.224 249.256 119.344 250.632C119.4 251.328 119.464 251.984 119.528 252.656C119.256 251.552 118.792 249.8 118.728 249.648C117.712 247.032 114.216 242.576 111.072 242.76C110.552 242.806 110.048 242.961 109.592 243.215C109.136 243.469 108.738 243.815 108.424 244.232C108.111 244.649 107.888 245.127 107.771 245.636C107.654 246.144 107.645 246.672 107.744 247.184C108.096 249.368 110.144 251.136 112.032 252.12C114.08 253.2 119 253.52 119.6 253.56C119.76 255.208 119.936 256.816 120.12 258.312C120.712 263.064 121.376 266.992 121.88 269.744C122.384 272.496 122.744 274.056 122.744 274.056C122.768 274.207 122.823 274.351 122.906 274.479C122.989 274.608 123.097 274.718 123.225 274.802C123.352 274.886 123.495 274.943 123.646 274.969C123.797 274.995 123.951 274.99 124.099 274.953C124.247 274.917 124.386 274.85 124.507 274.756C124.629 274.663 124.729 274.546 124.802 274.412C124.876 274.278 124.921 274.13 124.934 273.978C124.947 273.826 124.929 273.673 124.88 273.528C124.88 273.528 124.464 272.064 123.904 269.352Z" fill="black"/>
<path d="M121.216 191.624C121.216 191.624 126.496 190.024 128.328 188.368C129.928 186.976 131.528 184.76 131.296 182.544C131.271 182.023 131.136 181.513 130.901 181.048C130.666 180.582 130.335 180.172 129.931 179.843C129.526 179.514 129.057 179.274 128.553 179.138C128.05 179.002 127.523 178.974 127.008 179.056C123.92 179.632 121.592 184.8 121.24 187.584C121.208 187.824 121.16 191.64 121.216 191.624Z" fill="black"/>
</g>
<path d="M293.096 289.312C293.2 314.376 313.144 334.616 313.144 334.616C313.144 334.616 332.92 314.208 332.808 289.144C332.696 264.08 312.8 243.84 312.8 243.84C312.8 243.84 292.984 264.248 293.096 289.312Z" fill="#2B786C"/>
<path d="M313.144 334.616L312.76 243.84" stroke="white" stroke-width="0.910297" stroke-miterlimit="10"/>
<path d="M312.896 276.104L301.736 266.448" stroke="white" stroke-width="0.910297" stroke-miterlimit="10"/>
<path d="M313.136 291.104L326.816 271.104" stroke="white" stroke-width="0.910297" stroke-miterlimit="10"/>
<path d="M313 299.752L296.52 285.176" stroke="white" stroke-width="0.910297" stroke-miterlimit="10"/>
<path d="M313.224 311.4L329.4 296.856" stroke="white" stroke-width="0.910297" stroke-miterlimit="10"/>
<path d="M313.264 321.456L300.52 311.456" stroke="white" stroke-width="0.910297" stroke-miterlimit="10"/>
<path d="M279.504 328C289.192 338.864 305.6 340 305.6 340C305.6 340 306.328 323.544 296.64 312.712C286.952 301.88 270.512 300.776 270.512 300.776C270.512 300.776 269.816 317.2 279.504 328Z" fill="#2B786C"/>
<path d="M305.632 339.968L270.544 300.744" stroke="white" stroke-width="0.910297" stroke-miterlimit="10"/>
<path d="M283.016 314.68L274.456 314.784" stroke="white" stroke-width="0.910297" stroke-miterlimit="10"/>
<path d="M288.888 321.096L287.128 307.16" stroke="white" stroke-width="0.910297" stroke-miterlimit="10"/>
<path d="M292.152 324.904L279.4 324.92" stroke="white" stroke-width="0.910297" stroke-miterlimit="10"/>
<path d="M296.736 329.864L298.16 317.336" stroke="white" stroke-width="0.910297" stroke-miterlimit="10"/>
<path d="M300.624 334.216L291.248 334.776" stroke="white" stroke-width="0.910297" stroke-miterlimit="10"/>
<path d="M330.032 312.152C319.952 322.624 320.08 339.096 320.08 339.096C320.08 339.096 336.544 338.592 346.624 328.12C356.704 317.648 356.576 301.176 356.576 301.176C356.576 301.176 340.112 301.68 330.032 312.152Z" fill="#2B786C"/>
<path d="M320.08 339.096L356.576 301.176" stroke="white" stroke-width="0.910297" stroke-miterlimit="10"/>
<path d="M343.608 314.656L342.864 306.128" stroke="white" stroke-width="0.910297" stroke-miterlimit="10"/>
<path d="M337.648 320.992L351.416 318.2" stroke="white" stroke-width="0.910297" stroke-miterlimit="10"/>
<path d="M334.096 324.536L333.128 311.816" stroke="white" stroke-width="0.910297" stroke-miterlimit="10"/>
<path d="M329.488 329.472L342.088 329.952" stroke="white" stroke-width="0.910297" stroke-miterlimit="10"/>
<path d="M325.44 333.672L324.176 324.36" stroke="white" stroke-width="0.910297" stroke-miterlimit="10"/>
<g opacity="0.1">
<path d="M293.096 289.312C293.2 314.376 313.144 334.616 313.144 334.616C313.144 334.616 332.92 314.208 332.808 289.144C332.696 264.08 312.8 243.84 312.8 243.84C312.8 243.84 292.984 264.248 293.096 289.312Z" fill="black"/>
<path d="M279.504 328C289.192 338.864 305.6 340 305.6 340C305.6 340 306.328 323.544 296.64 312.712C286.952 301.88 270.512 300.776 270.512 300.776C270.512 300.776 269.816 317.2 279.504 328Z" fill="black"/>
<path d="M330.032 312.152C319.952 322.624 320.08 339.096 320.08 339.096C320.08 339.096 336.544 338.592 346.624 328.12C356.704 317.648 356.576 301.176 356.576 301.176C356.576 301.176 340.112 301.68 330.032 312.152Z" fill="black"/>
</g>
<path d="M298.776 84.624H101.432V338.632H298.776V84.624Z" fill="white" stroke="#263238" stroke-width="0.987488" stroke-linecap="round" stroke-linejoin="round"/>
<g style="mix-blend-mode:multiply">
<path d="M132.912 84.624H101.432V338.632H132.912V84.624Z" fill="#2B786C"/>
</g>
<path d="M254.928 122.152H194.408V129.272H254.928V122.152Z" fill="#2B786C" stroke="#263238" stroke-width="0.987488" stroke-linecap="round" stroke-linejoin="round"/>
<path d="M292.16 182.816H126.264V189.936H292.16V182.816Z" fill="#2B786C"/>
<path d="M292.16 280.672H126.264V287.792H292.16V280.672Z" fill="#2B786C"/>
<path d="M232.552 134.416H194.408V141.536H232.552V134.416Z" fill="#2B786C" stroke="#263238" stroke-width="0.987488" stroke-linecap="round" stroke-linejoin="round"/>
<path d="M232.552 146.424H194.408V153.544H232.552V146.424Z" fill="#2B786C" stroke="#263238" stroke-width="0.987488" stroke-linecap="round" stroke-linejoin="round"/>
<path d="M189.16 197.776H185.232V201.704H189.16V197.776Z" fill="#2B786C" stroke="#263238" stroke-width="0.987488" stroke-linecap="round" stroke-linejoin="round"/>
<path d="M189.16 248.296H185.232V252.224H189.16V248.296Z" fill="#2B786C" stroke="#263238" stroke-width="0.987488" stroke-linecap="round" stroke-linejoin="round"/>
<path d="M244.592 197.776H240.664V201.704H244.592V197.776Z" fill="#2B786C" stroke="#263238" stroke-width="0.987488" stroke-linecap="round" stroke-linejoin="round"/>
<path d="M244.592 248.296H240.664V252.224H244.592V248.296Z" fill="#2B786C" stroke="#263238" stroke-width="0.987488" stroke-linecap="round" stroke-linejoin="round"/>
<path d="M298.776 84.624H101.432V97.544H298.776V84.624Z" fill="#263238" stroke="#263238" stroke-width="0.987488" stroke-linecap="round" stroke-linejoin="round"/>
<path d="M230.264 200.504H195.528C195.231 200.504 194.946 200.386 194.736 200.176C194.526 199.966 194.408 199.681 194.408 199.384C194.408 199.087 194.526 198.802 194.736 198.592C194.946 198.382 195.231 198.264 195.528 198.264H230.264C230.561 198.264 230.846 198.382 231.056 198.592C231.266 198.802 231.384 199.087 231.384 199.384C231.384 199.681 231.266 199.966 231.056 200.176C230.846 200.386 230.561 200.504 230.264 200.504Z" fill="#263238"/>
<path d="M230.264 206.112H195.528C195.23 206.11 194.945 205.99 194.736 205.779C194.526 205.567 194.408 205.282 194.408 204.984C194.408 204.687 194.526 204.402 194.736 204.192C194.946 203.982 195.231 203.864 195.528 203.864H230.264C230.561 203.864 230.846 203.982 231.056 204.192C231.266 204.402 231.384 204.687 231.384 204.984C231.384 205.282 231.266 205.567 231.056 205.779C230.847 205.99 230.562 206.11 230.264 206.112Z" fill="#263238"/>
<path d="M230.264 211.712H195.528C195.231 211.712 194.946 211.594 194.736 211.384C194.526 211.174 194.408 210.889 194.408 210.592C194.408 210.295 194.526 210.01 194.736 209.8C194.946 209.59 195.231 209.472 195.528 209.472H230.264C230.561 209.472 230.846 209.59 231.056 209.8C231.266 210.01 231.384 210.295 231.384 210.592C231.384 210.889 231.266 211.174 231.056 211.384C230.846 211.594 230.561 211.712 230.264 211.712Z" fill="#263238"/>
<path d="M230.264 217.312H195.528C195.231 217.312 194.946 217.194 194.736 216.984C194.526 216.774 194.408 216.489 194.408 216.192C194.408 215.895 194.526 215.61 194.736 215.4C194.946 215.19 195.231 215.072 195.528 215.072H230.264C230.561 215.072 230.846 215.19 231.056 215.4C231.266 215.61 231.384 215.895 231.384 216.192C231.384 216.489 231.266 216.774 231.056 216.984C230.846 217.194 230.561 217.312 230.264 217.312Z" fill="#263238"/>
<path d="M230.264 222.912H195.528C195.231 222.912 194.946 222.794 194.736 222.584C194.526 222.374 194.408 222.089 194.408 221.792C194.408 221.495 194.526 221.21 194.736 221C194.946 220.79 195.231 220.672 195.528 220.672H230.264C230.561 220.672 230.846 220.79 231.056 221C231.266 221.21 231.384 221.495 231.384 221.792C231.384 222.089 231.266 222.374 231.056 222.584C230.846 222.794 230.561 222.912 230.264 222.912Z" fill="#263238"/>
<path d="M282.808 200.504H248.072C247.775 200.504 247.49 200.386 247.28 200.176C247.07 199.966 246.952 199.681 246.952 199.384C246.952 199.087 247.07 198.802 247.28 198.592C247.49 198.382 247.775 198.264 248.072 198.264H282.808C283.105 198.264 283.39 198.382 283.6 198.592C283.81 198.802 283.928 199.087 283.928 199.384C283.928 199.681 283.81 199.966 283.6 200.176C283.39 200.386 283.105 200.504 282.808 200.504Z" fill="#263238"/>
<path d="M282.808 206.112H248.072C247.774 206.11 247.489 205.99 247.28 205.779C247.07 205.567 246.952 205.282 246.952 204.984C246.952 204.687 247.07 204.402 247.28 204.192C247.49 203.982 247.775 203.864 248.072 203.864H282.808C283.105 203.864 283.39 203.982 283.6 204.192C283.81 204.402 283.928 204.687 283.928 204.984C283.928 205.282 283.81 205.567 283.6 205.779C283.391 205.99 283.106 206.11 282.808 206.112Z" fill="#263238"/>
<path d="M282.808 211.712H248.072C247.775 211.712 247.49 211.594 247.28 211.384C247.07 211.174 246.952 210.889 246.952 210.592C246.952 210.295 247.07 210.01 247.28 209.8C247.49 209.59 247.775 209.472 248.072 209.472H282.808C283.105 209.472 283.39 209.59 283.6 209.8C283.81 210.01 283.928 210.295 283.928 210.592C283.928 210.889 283.81 211.174 283.6 211.384C283.39 211.594 283.105 211.712 282.808 211.712Z" fill="#263238"/>
<path d="M282.808 217.312H248.072C247.775 217.312 247.49 217.194 247.28 216.984C247.07 216.774 246.952 216.489 246.952 216.192C246.952 215.895 247.07 215.61 247.28 215.4C247.49 215.19 247.775 215.072 248.072 215.072H282.808C283.105 215.072 283.39 215.19 283.6 215.4C283.81 215.61 283.928 215.895 283.928 216.192C283.928 216.489 283.81 216.774 283.6 216.984C283.39 217.194 283.105 217.312 282.808 217.312Z" fill="#263238"/>
<path d="M282.808 222.912H248.072C247.775 222.912 247.49 222.794 247.28 222.584C247.07 222.374 246.952 222.089 246.952 221.792C246.952 221.495 247.07 221.21 247.28 221C247.49 220.79 247.775 220.672 248.072 220.672H282.808C283.105 220.672 283.39 220.79 283.6 221C283.81 221.21 283.928 221.495 283.928 221.792C283.928 222.089 283.81 222.374 283.6 222.584C283.39 222.794 283.105 222.912 282.808 222.912Z" fill="#263238"/>
<path d="M230.264 250.184H195.528C195.23 250.182 194.945 250.062 194.736 249.851C194.526 249.639 194.408 249.354 194.408 249.056C194.408 248.759 194.526 248.474 194.736 248.264C194.946 248.054 195.231 247.936 195.528 247.936H230.264C230.561 247.936 230.846 248.054 231.056 248.264C231.266 248.474 231.384 248.759 231.384 249.056C231.384 249.354 231.266 249.639 231.056 249.851C230.847 250.062 230.562 250.182 230.264 250.184Z" fill="#263238"/>
<path d="M230.264 255.784H195.528C195.231 255.784 194.946 255.666 194.736 255.456C194.526 255.246 194.408 254.961 194.408 254.664C194.408 254.367 194.526 254.082 194.736 253.872C194.946 253.662 195.231 253.544 195.528 253.544H230.264C230.561 253.544 230.846 253.662 231.056 253.872C231.266 254.082 231.384 254.367 231.384 254.664C231.384 254.961 231.266 255.246 231.056 255.456C230.846 255.666 230.561 255.784 230.264 255.784Z" fill="#263238"/>
<path d="M230.264 261.384H195.528C195.231 261.384 194.946 261.266 194.736 261.056C194.526 260.846 194.408 260.561 194.408 260.264C194.408 259.967 194.526 259.682 194.736 259.472C194.946 259.262 195.231 259.144 195.528 259.144H230.264C230.561 259.144 230.846 259.262 231.056 259.472C231.266 259.682 231.384 259.967 231.384 260.264C231.384 260.561 231.266 260.846 231.056 261.056C230.846 261.266 230.561 261.384 230.264 261.384Z" fill="#263238"/>
<path d="M230.264 266.984H195.528C195.231 266.984 194.946 266.866 194.736 266.656C194.526 266.446 194.408 266.161 194.408 265.864C194.408 265.567 194.526 265.282 194.736 265.072C194.946 264.862 195.231 264.744 195.528 264.744H230.264C230.561 264.744 230.846 264.862 231.056 265.072C231.266 265.282 231.384 265.567 231.384 265.864C231.384 266.161 231.266 266.446 231.056 266.656C230.846 266.866 230.561 266.984 230.264 266.984Z" fill="#263238"/>
<path d="M230.264 272.592H195.528C195.231 272.592 194.946 272.474 194.736 272.264C194.526 272.054 194.408 271.769 194.408 271.472C194.408 271.175 194.526 270.89 194.736 270.68C194.946 270.47 195.231 270.352 195.528 270.352H230.264C230.561 270.352 230.846 270.47 231.056 270.68C231.266 270.89 231.384 271.175 231.384 271.472C231.384 271.769 231.266 272.054 231.056 272.264C230.846 272.474 230.561 272.592 230.264 272.592Z" fill="#263238"/>
<path d="M282.808 250.184H248.072C247.774 250.182 247.489 250.062 247.28 249.851C247.07 249.639 246.952 249.354 246.952 249.056C246.952 248.759 247.07 248.474 247.28 248.264C247.49 248.054 247.775 247.936 248.072 247.936H282.808C283.105 247.936 283.39 248.054 283.6 248.264C283.81 248.474 283.928 248.759 283.928 249.056C283.928 249.354 283.81 249.639 283.6 249.851C283.391 250.062 283.106 250.182 282.808 250.184Z" fill="#263238"/>
<path d="M282.808 255.784H248.072C247.775 255.784 247.49 255.666 247.28 255.456C247.07 255.246 246.952 254.961 246.952 254.664C246.952 254.367 247.07 254.082 247.28 253.872C247.49 253.662 247.775 253.544 248.072 253.544H282.808C283.105 253.544 283.39 253.662 283.6 253.872C283.81 254.082 283.928 254.367 283.928 254.664C283.928 254.961 283.81 255.246 283.6 255.456C283.39 255.666 283.105 255.784 282.808 255.784Z" fill="#263238"/>
<path d="M282.808 261.384H248.072C247.775 261.384 247.49 261.266 247.28 261.056C247.07 260.846 246.952 260.561 246.952 260.264C246.952 259.967 247.07 259.682 247.28 259.472C247.49 259.262 247.775 259.144 248.072 259.144H282.808C283.105 259.144 283.39 259.262 283.6 259.472C283.81 259.682 283.928 259.967 283.928 260.264C283.928 260.561 283.81 260.846 283.6 261.056C283.39 261.266 283.105 261.384 282.808 261.384Z" fill="#263238"/>
<path d="M282.808 266.984H248.072C247.775 266.984 247.49 266.866 247.28 266.656C247.07 266.446 246.952 266.161 246.952 265.864C246.952 265.567 247.07 265.282 247.28 265.072C247.49 264.862 247.775 264.744 248.072 264.744H282.808C283.105 264.744 283.39 264.862 283.6 265.072C283.81 265.282 283.928 265.567 283.928 265.864C283.928 266.161 283.81 266.446 283.6 266.656C283.39 266.866 283.105 266.984 282.808 266.984Z" fill="#263238"/>
<path d="M282.808 272.592H248.072C247.775 272.592 247.49 272.474 247.28 272.264C247.07 272.054 246.952 271.769 246.952 271.472C246.952 271.175 247.07 270.89 247.28 270.68C247.49 270.47 247.775 270.352 248.072 270.352H282.808C283.105 270.352 283.39 270.47 283.6 270.68C283.81 270.89 283.928 271.175 283.928 271.472C283.928 271.769 283.81 272.054 283.6 272.264C283.39 272.474 283.105 272.592 282.808 272.592Z" fill="#263238"/>
<path d="M282.808 298.16H248.072C247.775 298.16 247.49 298.042 247.28 297.832C247.07 297.622 246.952 297.337 246.952 297.04C246.952 296.743 247.07 296.458 247.28 296.248C247.49 296.038 247.775 295.92 248.072 295.92H282.808C283.105 295.92 283.39 296.038 283.6 296.248C283.81 296.458 283.928 296.743 283.928 297.04C283.928 297.337 283.81 297.622 283.6 297.832C283.39 298.042 283.105 298.16 282.808 298.16Z" fill="#263238"/>
<path d="M282.808 303.76H248.072C247.775 303.76 247.49 303.642 247.28 303.432C247.07 303.222 246.952 302.937 246.952 302.64C246.952 302.343 247.07 302.058 247.28 301.848C247.49 301.638 247.775 301.52 248.072 301.52H282.808C283.105 301.52 283.39 301.638 283.6 301.848C283.81 302.058 283.928 302.343 283.928 302.64C283.928 302.937 283.81 303.222 283.6 303.432C283.39 303.642 283.105 303.76 282.808 303.76Z" fill="#263238"/>
<path d="M282.808 309.368H248.072C247.775 309.368 247.49 309.25 247.28 309.04C247.07 308.83 246.952 308.545 246.952 308.248C246.952 307.951 247.07 307.666 247.28 307.456C247.49 307.246 247.775 307.128 248.072 307.128H282.808C283.105 307.128 283.39 307.246 283.6 307.456C283.81 307.666 283.928 307.951 283.928 308.248C283.928 308.545 283.81 308.83 283.6 309.04C283.39 309.25 283.105 309.368 282.808 309.368Z" fill="#263238"/>
<path d="M282.808 312.728H248.072C247.453 312.728 246.952 313.229 246.952 313.848C246.952 314.467 247.453 314.968 248.072 314.968H282.808C283.427 314.968 283.928 314.467 283.928 313.848C283.928 313.229 283.427 312.728 282.808 312.728Z" fill="#263238"/>
<path d="M282.808 320.568H248.072C247.775 320.568 247.49 320.45 247.28 320.24C247.07 320.03 246.952 319.745 246.952 319.448C246.952 319.151 247.07 318.866 247.28 318.656C247.49 318.446 247.775 318.328 248.072 318.328H282.808C283.105 318.328 283.39 318.446 283.6 318.656C283.81 318.866 283.928 319.151 283.928 319.448C283.928 319.745 283.81 320.03 283.6 320.24C283.39 320.45 283.105 320.568 282.808 320.568Z" fill="#263238"/>
<path d="M279.448 233C278.389 233 277.365 233.376 276.556 234.06C275.748 234.744 275.208 235.692 275.032 236.736H269.672C269.476 235.713 268.929 234.79 268.126 234.126C267.323 233.462 266.314 233.099 265.272 233.099C264.23 233.099 263.221 233.462 262.418 234.126C261.615 234.79 261.068 235.713 260.872 236.736H255.512C255.316 235.713 254.769 234.79 253.966 234.126C253.163 233.462 252.154 233.099 251.112 233.099C250.07 233.099 249.061 233.462 248.258 234.126C247.455 234.79 246.908 235.713 246.712 236.736H241.28C241.093 235.705 240.55 234.773 239.746 234.102C238.942 233.431 237.927 233.063 236.88 233.063C235.833 233.063 234.818 233.431 234.014 234.102C233.21 234.773 232.667 235.705 232.48 236.736H227.112C226.925 235.705 226.382 234.773 225.578 234.102C224.774 233.431 223.759 233.063 222.712 233.063C221.665 233.063 220.65 233.431 219.846 234.102C219.042 234.773 218.499 235.705 218.312 236.736H212.944C212.757 235.705 212.214 234.773 211.41 234.102C210.606 233.431 209.591 233.063 208.544 233.063C207.497 233.063 206.482 233.431 205.678 234.102C204.874 234.773 204.331 235.705 204.144 236.736H198.776C198.588 235.629 197.992 234.632 197.104 233.944C196.217 233.255 195.103 232.926 193.984 233.02C192.864 233.114 191.821 233.625 191.061 234.452C190.301 235.279 189.879 236.361 189.879 237.484C189.879 238.607 190.301 239.689 191.061 240.516C191.821 241.343 192.864 241.854 193.984 241.948C195.103 242.042 196.217 241.713 197.104 241.024C197.992 240.336 198.588 239.339 198.776 238.232H204.144C204.331 239.263 204.874 240.195 205.678 240.866C206.482 241.537 207.497 241.905 208.544 241.905C209.591 241.905 210.606 241.537 211.41 240.866C212.214 240.195 212.757 239.263 212.944 238.232H218.312C218.499 239.263 219.042 240.195 219.846 240.866C220.65 241.537 221.665 241.905 222.712 241.905C223.759 241.905 224.774 241.537 225.578 240.866C226.382 240.195 226.925 239.263 227.112 238.232H232.48C232.667 239.263 233.21 240.195 234.014 240.866C234.818 241.537 235.833 241.905 236.88 241.905C237.927 241.905 238.942 241.537 239.746 240.866C240.55 240.195 241.093 239.263 241.28 238.232H246.648C246.844 239.255 247.391 240.178 248.194 240.842C248.997 241.506 250.006 241.869 251.048 241.869C252.09 241.869 253.099 241.506 253.902 240.842C254.705 240.178 255.252 239.255 255.448 238.232H260.808C261.004 239.255 261.551 240.178 262.354 240.842C263.157 241.506 264.166 241.869 265.208 241.869C266.25 241.869 267.259 241.506 268.062 240.842C268.865 240.178 269.412 239.255 269.608 238.232H274.968C275.111 239.074 275.492 239.857 276.066 240.49C276.64 241.122 277.382 241.578 278.206 241.802C279.03 242.027 279.901 242.011 280.716 241.758C281.531 241.504 282.257 241.022 282.808 240.37C283.359 239.717 283.712 238.921 283.825 238.074C283.938 237.228 283.807 236.367 283.447 235.592C283.088 234.818 282.514 234.162 281.794 233.703C281.074 233.244 280.238 233 279.384 233H279.448Z" fill="#263238"/>
<path d="M174.952 296.336C173.458 296.334 171.997 296.776 170.754 297.605C169.511 298.434 168.542 299.613 167.969 300.992C167.396 302.372 167.246 303.891 167.536 305.356C167.827 306.822 168.545 308.168 169.601 309.225C170.657 310.282 172.003 311.002 173.468 311.294C174.933 311.586 176.452 311.437 177.832 310.866C179.213 310.295 180.392 309.327 181.223 308.084C182.053 306.842 182.496 305.382 182.496 303.888C182.497 302.897 182.303 301.915 181.924 300.999C181.545 300.082 180.99 299.25 180.289 298.548C179.589 297.847 178.757 297.291 177.841 296.911C176.925 296.531 175.943 296.336 174.952 296.336ZM174.952 307.648C174.206 307.65 173.476 307.43 172.856 307.016C172.235 306.603 171.751 306.014 171.464 305.326C171.178 304.637 171.103 303.879 171.248 303.147C171.393 302.415 171.752 301.743 172.28 301.216C172.807 300.688 173.479 300.329 174.211 300.184C174.943 300.039 175.701 300.114 176.39 300.4C177.078 300.687 177.667 301.171 178.08 301.792C178.494 302.412 178.714 303.142 178.712 303.888C178.71 304.885 178.313 305.84 177.608 306.544C176.904 307.249 175.949 307.646 174.952 307.648Z" fill="#2B786C" stroke="#263238" stroke-width="0.987488" stroke-linecap="round" stroke-linejoin="round"/>
<path d="M177.2 306.888L180.8 308.64C181.698 307.535 182.266 306.199 182.437 304.786C182.608 303.372 182.375 301.939 181.766 300.652C181.157 299.365 180.196 298.277 178.994 297.513C177.793 296.75 176.4 296.341 174.976 296.336V300.12C175.762 300.128 176.525 300.383 177.159 300.847C177.793 301.312 178.265 301.963 178.51 302.71C178.754 303.457 178.758 304.261 178.522 305.011C178.286 305.76 177.821 306.417 177.192 306.888H177.2Z" fill="#263238" stroke="#263238" stroke-width="0.987488" stroke-linecap="round" stroke-linejoin="round"/>
<path d="M178.584 320.8H171.384C171.148 320.801 170.914 320.755 170.696 320.666C170.477 320.576 170.279 320.444 170.112 320.278C169.944 320.111 169.812 319.914 169.721 319.696C169.631 319.478 169.584 319.244 169.584 319.008C169.584 318.531 169.774 318.073 170.111 317.735C170.449 317.398 170.907 317.208 171.384 317.208H178.584C179.061 317.208 179.519 317.398 179.857 317.735C180.194 318.073 180.384 318.531 180.384 319.008C180.384 319.244 180.337 319.478 180.247 319.696C180.156 319.914 180.024 320.111 179.856 320.278C179.689 320.444 179.491 320.576 179.272 320.666C179.054 320.755 178.82 320.801 178.584 320.8Z" fill="#2B786C" stroke="#263238" stroke-width="0.987488" stroke-linecap="round" stroke-linejoin="round"/>
<path d="M197.456 296.336C195.962 296.336 194.502 296.779 193.26 297.609C192.018 298.439 191.051 299.618 190.479 300.998C189.907 302.378 189.758 303.896 190.049 305.361C190.341 306.826 191.06 308.172 192.116 309.228C193.172 310.284 194.518 311.003 195.983 311.295C197.448 311.586 198.966 311.437 200.346 310.865C201.726 310.294 202.905 309.326 203.735 308.084C204.565 306.842 205.008 305.382 205.008 303.888C205.009 302.896 204.814 301.913 204.435 300.997C204.056 300.08 203.5 299.247 202.798 298.546C202.097 297.844 201.264 297.288 200.347 296.909C199.431 296.53 198.448 296.335 197.456 296.336ZM197.456 307.648C196.71 307.648 195.982 307.427 195.362 307.012C194.742 306.598 194.259 306.009 193.974 305.32C193.689 304.631 193.615 303.873 193.761 303.142C193.907 302.411 194.267 301.739 194.795 301.213C195.322 300.686 195.994 300.328 196.726 300.183C197.457 300.039 198.215 300.115 198.904 300.401C199.592 300.688 200.18 301.172 200.593 301.792C201.006 302.413 201.226 303.142 201.224 303.888C201.224 304.382 201.127 304.872 200.937 305.329C200.748 305.785 200.47 306.2 200.12 306.55C199.77 306.899 199.355 307.176 198.897 307.364C198.44 307.553 197.951 307.649 197.456 307.648Z" fill="#2B786C" stroke="#263238" stroke-width="0.987488" stroke-linecap="round" stroke-linejoin="round"/>
<path d="M204.968 303.096C204.77 301.248 203.898 299.538 202.521 298.292C201.143 297.045 199.354 296.349 197.496 296.336V300.12C198.488 300.131 199.437 300.532 200.135 301.238C200.833 301.943 201.224 302.896 201.224 303.888C201.216 304.033 201.2 304.177 201.176 304.32L204.968 303.096Z" fill="#263238" stroke="#263238" stroke-width="0.987488" stroke-linecap="round" stroke-linejoin="round"/>
<path d="M201.056 320.8H193.856C193.62 320.801 193.386 320.755 193.168 320.666C192.949 320.576 192.751 320.444 192.584 320.278C192.416 320.111 192.284 319.914 192.193 319.696C192.103 319.478 192.056 319.244 192.056 319.008C192.056 318.531 192.246 318.073 192.583 317.735C192.921 317.398 193.379 317.208 193.856 317.208H201.056C201.533 317.208 201.991 317.398 202.329 317.735C202.666 318.073 202.856 318.531 202.856 319.008C202.856 319.244 202.809 319.478 202.719 319.696C202.628 319.914 202.496 320.111 202.328 320.278C202.161 320.444 201.963 320.576 201.744 320.666C201.526 320.755 201.292 320.801 201.056 320.8Z" fill="#2B786C" stroke="#263238" stroke-width="0.987488" stroke-linecap="round" stroke-linejoin="round"/>
<path d="M220.096 296.336C218.602 296.336 217.142 296.779 215.9 297.609C214.658 298.439 213.69 299.618 213.119 300.998C212.547 302.378 212.398 303.896 212.689 305.361C212.98 306.826 213.7 308.172 214.756 309.228C215.812 310.284 217.158 311.003 218.623 311.295C220.088 311.586 221.606 311.437 222.986 310.865C224.366 310.294 225.545 309.326 226.375 308.084C227.205 306.842 227.648 305.382 227.648 303.888C227.649 302.896 227.454 301.913 227.075 300.997C226.696 300.08 226.14 299.247 225.438 298.546C224.737 297.844 223.904 297.288 222.987 296.909C222.07 296.53 221.088 296.335 220.096 296.336ZM220.096 307.648C219.35 307.648 218.622 307.427 218.002 307.012C217.382 306.598 216.899 306.009 216.614 305.32C216.329 304.631 216.255 303.873 216.401 303.142C216.547 302.411 216.907 301.739 217.434 301.213C217.962 300.686 218.634 300.328 219.366 300.183C220.097 300.039 220.855 300.115 221.543 300.401C222.232 300.688 222.82 301.172 223.233 301.792C223.646 302.413 223.866 303.142 223.864 303.888C223.864 304.382 223.766 304.872 223.577 305.329C223.388 305.785 223.11 306.2 222.76 306.55C222.41 306.899 221.994 307.176 221.537 307.364C221.08 307.553 220.59 307.649 220.096 307.648Z" fill="#2B786C" stroke="#263238" stroke-width="0.987488" stroke-linecap="round" stroke-linejoin="round"/>
<path d="M220.136 296.336V300.12C220.77 300.121 221.394 300.282 221.949 300.588C222.504 300.894 222.973 301.335 223.313 301.871C223.652 302.407 223.851 303.019 223.891 303.652C223.93 304.285 223.81 304.917 223.54 305.491C223.27 306.065 222.86 306.562 222.347 306.935C221.835 307.308 221.236 307.545 220.607 307.626C219.978 307.706 219.339 307.626 218.749 307.394C218.159 307.161 217.637 306.784 217.232 306.296L214.24 308.632C215.041 309.62 216.08 310.389 217.258 310.869C218.437 311.348 219.717 311.521 220.981 311.372C222.245 311.223 223.45 310.758 224.485 310.018C225.52 309.278 226.351 308.289 226.902 307.142C227.452 305.995 227.703 304.727 227.631 303.457C227.56 302.186 227.168 300.955 226.493 299.876C225.818 298.798 224.881 297.908 223.77 297.289C222.658 296.67 221.408 296.342 220.136 296.336Z" fill="#263238" stroke="#263238" stroke-width="0.987488" stroke-linecap="round" stroke-linejoin="round"/>
<path d="M223.696 320.8H216.496C216.26 320.801 216.026 320.755 215.808 320.666C215.589 320.576 215.391 320.444 215.224 320.278C215.056 320.111 214.924 319.914 214.833 319.696C214.743 319.478 214.696 319.244 214.696 319.008C214.695 318.771 214.741 318.537 214.831 318.318C214.921 318.099 215.053 317.9 215.221 317.733C215.388 317.565 215.587 317.433 215.806 317.343C216.025 317.253 216.259 317.207 216.496 317.208H223.696C224.173 317.208 224.631 317.398 224.969 317.735C225.306 318.073 225.496 318.531 225.496 319.008C225.496 319.244 225.449 319.478 225.359 319.696C225.268 319.914 225.136 320.111 224.968 320.278C224.801 320.444 224.603 320.576 224.384 320.666C224.166 320.755 223.932 320.801 223.696 320.8Z" fill="#2B786C" stroke="#263238" stroke-width="0.987488" stroke-linecap="round" stroke-linejoin="round"/>
<path d="M142.56 179.936C161.223 179.936 176.352 164.807 176.352 146.144C176.352 127.481 161.223 112.352 142.56 112.352C123.897 112.352 108.768 127.481 108.768 146.144C108.768 164.807 123.897 179.936 142.56 179.936Z" fill="white"/>
<path d="M152.8 334.144C152.8 334.144 157.68 341.48 157.008 344.384C156.336 347.288 152.048 346.392 150.016 343.264C147.984 340.136 142.816 335.464 143.752 333.456C144.688 331.448 150.976 332.36 152.8 334.144Z" fill="white" stroke="#263238" stroke-width="1.02307" stroke-linecap="round" stroke-linejoin="round"/>
<path d="M131.832 333.736C131.832 333.736 125.936 342.488 126.88 344.88C127.824 347.272 130.88 346.56 133.216 344.4C135.552 342.24 140.216 336.176 140.216 336.176C140.216 336.176 136.296 331.344 131.832 333.736Z" fill="white" stroke="#263238" stroke-width="1.02307" stroke-linecap="round" stroke-linejoin="round"/>
<path d="M126.88 344.88C128.479 345.1 130.106 344.782 131.504 343.976C134.192 342.616 138.88 336.48 138.88 336.48" stroke="#263238" stroke-width="0.767303" stroke-linecap="round" stroke-linejoin="round"/>
<path d="M145.392 334.92C145.392 334.92 147.944 339.72 150.816 342.44C153.688 345.16 155.096 345.936 156.984 344.384" stroke="#263238" stroke-width="0.767303" stroke-linecap="round" stroke-linejoin="round"/>
<path d="M123.552 224.52C123.552 224.52 118.392 235.048 118.624 239.352C118.856 243.656 119.8 265.432 121.208 272.608C122.616 279.784 124 297.656 124.96 304.8C125.92 311.944 132.072 328.68 132.072 328.68C132.072 328.68 131.128 332.512 131.832 333.704C132.536 334.896 139.984 336.864 140.216 336.144C140.448 335.424 141.624 333.272 141.816 331.12C142.008 328.968 138.536 306 139.944 300.976C141.352 295.952 141.624 262.176 141.816 258.696C142.008 255.216 141.76 249.096 141.76 249.096C142.178 249.225 142.626 249.226 143.045 249.099C143.464 248.972 143.835 248.723 144.112 248.384C145.048 247.184 148.152 279.704 149.096 287.36C150.04 295.016 147.92 297.168 147.216 301.952C146.512 306.736 144.872 322.28 144.872 324.2C144.872 326.12 142.76 332.328 143.696 333.528C144.632 334.728 146.624 334.528 147.44 334.752C149.888 335.432 151.8 334.368 152.736 334.128C153.672 333.888 154.464 330.424 154.464 330.424C154.464 330.424 162 309.128 163.408 300.272C164.816 291.416 167.16 274.984 166.696 264.936C166.232 254.888 163.408 234.536 163.408 234.536L162.704 228.552L123.552 224.52Z" fill="#263238" stroke="#263238" stroke-width="1.02307" stroke-linecap="round" stroke-linejoin="round"/>
<path d="M120.256 236.696C120.256 236.696 119.8 242.6 123.664 246.456" stroke="white" stroke-width="0.506629" stroke-linecap="round" stroke-linejoin="round"/>
<path d="M120.48 245.096C120.48 245.096 122.752 248.96 125.48 249.408" stroke="white" stroke-width="0.506629" stroke-linecap="round" stroke-linejoin="round"/>
<path d="M138.64 309.704C138.64 309.704 135.44 317.336 135.008 321.504C134.576 325.672 138.64 324.048 139.552 326.824C140.464 329.6 134.104 329.376 135.24 330.064C136.376 330.752 139.776 331.224 139.776 331.224" stroke="white" stroke-width="0.511535" stroke-linecap="round" stroke-linejoin="round"/>
<path d="M144.8 328.68C145.48 328.448 153.2 327.08 152.288 322.896C151.376 318.712 146.84 318.496 147.488 313.64C148.136 308.784 155.2 298.128 155.2 295.12C155.2 292.112 150.208 280.904 149.752 273.96" stroke="white" stroke-width="0.511535" stroke-linecap="round" stroke-linejoin="round"/>
<path d="M155.896 236.248C155.896 236.248 150.672 243.736 149.992 244.872C149.312 246.008 156.12 239.88 156.12 239.88" stroke="white" stroke-width="0.506629" stroke-linecap="round" stroke-linejoin="round"/>
<path d="M142.232 233.6C142.232 233.6 142.8 239.072 142.8 240.2V246.432" stroke="white" stroke-width="0.506629" stroke-linecap="round" stroke-linejoin="round"/>
<path d="M142.8 243.04C142.8 243.04 145.256 242.664 145.816 240.776C146.376 238.888 146.2 235.112 146.2 235.112" stroke="white" stroke-width="0.506629" stroke-linecap="round" stroke-linejoin="round"/>
<path d="M190.2 168.672C187.384 160.456 186.912 156 186.68 153.656C186.448 151.312 183.864 152.008 183.864 152.008C183.864 152.008 178.264 155.296 178.264 156.008C178.264 156.72 180.848 174.08 181.312 177.128C181.594 178.915 181.751 180.719 181.784 182.528C181.784 182.528 171.928 171.968 169.344 169.384C167.376 167.408 165.816 165.72 164.144 164.712C163.24 163.912 161.672 163.616 159.256 162.816C155.032 161.408 150.576 158.12 145.408 158.352C142.015 158.585 138.684 159.38 135.552 160.704C135.552 160.704 128.048 164.224 122.88 166.568C122.278 166.837 121.707 167.169 121.176 167.56C120.328 167.456 118.56 167.912 116.544 172.432C113.736 178.768 101.064 195.432 98.944 201.296C96.824 207.16 101.288 213.032 106.216 217.72C109.772 221.216 113.139 224.899 116.304 228.752L121.904 221.856C122.062 223.39 122.33 224.912 122.704 226.408C123.408 228.752 125.752 231.336 135.144 232.008C144.536 232.68 165.632 233.976 164.944 229.192C163.976 222.392 164.472 200.56 164.008 194.696C163.871 190.935 163.948 187.169 164.24 183.416C165.32 184.784 167.44 187.32 168.92 188.32C171.032 189.728 179.96 196.32 183.48 197.744C187 199.168 191.928 196.808 194.04 192.144C196.152 187.48 193.016 176.888 190.2 168.672ZM113.704 207.624C112.76 203.872 112.296 202.464 112.296 202.464C112.296 202.464 118.312 195.984 121.208 192.528C121.6 201.8 121.848 211.944 121.576 213.432C121.362 215.927 121.419 218.437 121.744 220.92C120.176 218.768 114.504 210.856 113.704 207.624Z" fill="#2B786C" stroke="#263238" stroke-width="1.01326" stroke-linecap="round" stroke-linejoin="round"/>
<path opacity="0.1" d="M190.2 168.672C187.384 160.456 186.912 156 186.68 153.656C186.448 151.312 183.864 152.008 183.864 152.008C183.864 152.008 178.264 155.296 178.264 156.008C178.264 156.72 180.848 174.08 181.312 177.128C181.594 178.915 181.751 180.719 181.784 182.528C181.784 182.528 171.928 171.968 169.344 169.384C167.376 167.408 165.816 165.72 164.144 164.712C163.24 163.912 161.672 163.616 159.256 162.816C155.032 161.408 150.576 158.12 145.408 158.352C142.015 158.585 138.684 159.38 135.552 160.704C135.552 160.704 128.048 164.224 122.88 166.568C122.278 166.837 121.707 167.169 121.176 167.56C120.328 167.456 118.56 167.912 116.544 172.432C113.736 178.768 101.064 195.432 98.944 201.296C96.824 207.16 101.288 213.032 106.216 217.72C109.772 221.216 113.139 224.899 116.304 228.752L121.904 221.856C122.062 223.39 122.33 224.912 122.704 226.408C123.408 228.752 125.752 231.336 135.144 232.008C144.536 232.68 165.632 233.976 164.944 229.192C163.976 222.392 164.472 200.56 164.008 194.696C163.871 190.935 163.948 187.169 164.24 183.416C165.32 184.784 167.44 187.32 168.92 188.32C171.032 189.728 179.96 196.32 183.48 197.744C187 199.168 191.928 196.808 194.04 192.144C196.152 187.48 193.016 176.888 190.2 168.672ZM113.704 207.624C112.76 203.872 112.296 202.464 112.296 202.464C112.296 202.464 118.312 195.984 121.208 192.528C121.6 201.8 121.848 211.944 121.576 213.432C121.362 215.927 121.419 218.437 121.744 220.92C120.176 218.768 114.504 210.856 113.704 207.624Z" fill="black"/>
<path d="M124.112 191.52C125.597 189.29 126.89 186.938 127.976 184.488" stroke="#263238" stroke-width="0.759943" stroke-linecap="round" stroke-linejoin="round"/>
<path d="M130.016 185.168C129.473 186.3 128.699 187.305 127.744 188.12" stroke="#263238" stroke-width="0.759943" stroke-linecap="round" stroke-linejoin="round"/>
<path d="M181.752 182.52C181.783 183.872 182.083 185.204 182.632 186.44C183.181 187.676 183.97 188.791 184.952 189.72" stroke="#263238" stroke-width="1.01326" stroke-linecap="round" stroke-linejoin="round"/>
<path d="M182.68 186.304C182.489 188.439 182.967 190.581 184.048 192.432" stroke="#263238" stroke-width="1.01326" stroke-linecap="round" stroke-linejoin="round"/>
<path d="M112.296 202.464C112.296 202.464 110.568 200.824 106.304 201.536" stroke="#263238" stroke-width="0.759943" stroke-linecap="round" stroke-linejoin="round"/>
<path d="M103.944 200.592C103.944 200.592 105.128 198.696 109.616 200.112" stroke="#263238" stroke-width="0.759943" stroke-linecap="round" stroke-linejoin="round"/>
<path d="M169.232 176.224C168.288 176.456 164.264 183.32 164.264 183.32L173.968 180.72" stroke="#263238" stroke-width="0.759943" stroke-linecap="round" stroke-linejoin="round"/>
<path d="M141.368 171.544C141.368 171.544 143.184 174.04 147.272 172.912C151.36 171.784 152.72 167.464 152.072 164.736C151.424 162.008 137.736 164.28 141.368 171.544Z" fill="white" stroke="#263238" stroke-width="1.01326" stroke-linecap="round" stroke-linejoin="round"/>
<path d="M137.48 156C137.48 156 134.736 157.824 134.376 159.472C134.016 161.12 134.92 166.408 135.648 168.232C136.376 170.056 138.76 174.256 138.76 174.256C138.76 174.256 146.976 169.512 147.56 169.144C148.144 168.776 153.96 172.064 155.232 171.544C156.504 171.024 152.128 159.856 150.12 157.488C148.112 155.12 140.4 153.8 137.48 156Z" fill="white" stroke="#263238" stroke-width="1.01326" stroke-linecap="round" stroke-linejoin="round"/>
<path d="M136 149.968C136 149.968 136.184 152.888 136.552 157.272C136.92 161.656 138.4 165.12 140.8 167.128C143.2 169.136 146.64 170.232 147.552 169.136C148.464 168.04 149.56 163.48 149.152 160.736C148.744 157.992 148.24 152.16 148.24 152.16L136 149.968Z" fill="white" stroke="#263238" stroke-width="1.01326" stroke-linecap="round" stroke-linejoin="round"/>
<g style="mix-blend-mode:multiply" opacity="0.5">
<path d="M148.8 157.32C148.528 154.768 148.28 152.16 148.28 152.16L136 149.968C136 149.968 136.184 152.888 136.552 157.272C136.691 159.299 137.159 161.29 137.936 163.168L148.8 157.32Z" fill="#2B786C"/>
</g>
<path d="M132 145.6C132 145.6 129.264 142.864 128.712 145.232C128.16 147.6 130.36 151.264 133.464 150.344V148.16L132 145.6Z" fill="white" stroke="#263238" stroke-width="1.01326" stroke-linecap="round" stroke-linejoin="round"/>
<path opacity="0.5" d="M132 145.6C132 145.6 129.264 142.864 128.712 145.232C128.16 147.6 130.36 151.264 133.464 150.344V148.16L132 145.6Z" fill="#2B786C" stroke="#263238" stroke-width="1.01326" stroke-linecap="round" stroke-linejoin="round"/>
<path d="M129.6 140.656C129.6 140.656 134.168 152.888 138.184 155.264C142.2 157.64 150.232 159.824 152.424 151.264C154.616 142.704 148.776 130.264 146.768 126.608C144.76 122.952 137.272 121.864 132.528 125.512C127.784 129.16 126.704 132.616 129.6 140.656Z" fill="white" stroke="#263238" stroke-width="1.01326" stroke-linecap="round" stroke-linejoin="round"/>
<g style="mix-blend-mode:multiply" opacity="0.5">
<path d="M134.664 130.296C136.603 129.399 138.705 128.909 140.84 128.856L145.392 125.024C142.4 122.72 136.52 122.44 132.552 125.496C127.8 129.152 126.704 132.616 129.624 140.656C129.624 140.656 134.192 152.888 138.208 155.264C139.632 156.101 141.175 156.719 142.784 157.096C140.848 154.6 137.872 150.632 136.928 148.608C135.488 145.52 134.872 139.144 133.016 135.44C131.16 131.736 131.784 131.736 134.664 130.296Z" fill="#2B786C"/>
</g>
<path d="M144.232 137C144.232 137 146.056 140.288 145.328 141C145.081 141.213 144.784 141.359 144.464 141.423C144.145 141.488 143.814 141.469 143.504 141.368" stroke="#263238" stroke-width="1.01326" stroke-linecap="round" stroke-linejoin="round"/>
<path d="M135.832 136.456C135.832 136.456 136.2 134.264 138.936 134.264" stroke="#263238" stroke-width="2.02651" stroke-linecap="round" stroke-linejoin="round"/>
<path d="M137.48 138.648C137.48 138.648 139.488 139.56 140.216 137.552" stroke="#263238" stroke-width="1.01326" stroke-linecap="round" stroke-linejoin="round"/>
<path d="M146.24 137.184C146.24 137.184 148.248 138.096 148.984 136.088" stroke="#263238" stroke-width="1.01326" stroke-linecap="round" stroke-linejoin="round"/>
<path d="M144.576 132.992C145.064 132.495 145.722 132.203 146.418 132.174C147.113 132.146 147.794 132.384 148.32 132.84" stroke="#263238" stroke-width="2.02651" stroke-linecap="round" stroke-linejoin="round"/>
<path d="M152.8 144.232C150.672 143.304 145.6 141.256 143.904 142.112C141.712 143.208 136.048 147.048 136.048 149.968C136.048 149.968 132.4 145.04 132.4 143.208C132.4 141.376 133.856 140.808 132.584 138.464C131.312 136.12 129.472 135.904 130.024 133.168C130.528 130.632 135.576 127.944 138.024 127.568C139.553 128.862 141.501 129.556 143.504 129.52C147.504 129.52 150.808 126.952 150.808 123.768C150.808 120.584 147.536 118.024 143.504 118.024C142.607 118.02 141.714 118.152 140.856 118.416C137.032 118.136 136.304 120.968 133.656 122.52C131.008 124.072 129.344 128.648 129.344 128.648H129.456C127.52 131.48 127.528 134.896 129.632 140.648C129.632 140.648 134.2 152.88 138.216 155.256C142.232 157.632 150.264 159.816 152.456 151.256C152.989 148.954 153.105 146.575 152.8 144.232Z" fill="#263238" stroke="#263238" stroke-width="1.01326" stroke-linecap="round" stroke-linejoin="round"/>
<path d="M148.44 144.048C148.44 144.048 145.704 147.88 142.6 145.328" stroke="white" stroke-width="1.01326" stroke-linecap="round" stroke-linejoin="round"/>
<path d="M122.144 221.472C123.228 222.156 124.182 223.029 124.96 224.048C125.913 225.353 126.933 226.608 128.016 227.808C128.016 227.808 130.592 228.04 130.36 229.216C130.128 230.392 129.656 231.088 128.48 231.088C127.304 231.088 124.728 228.744 124.728 228.744L120.976 234.608C120.976 234.608 117.456 232.032 116.28 228.744L122.144 221.472Z" fill="white" stroke="#263238" stroke-width="1.01326" stroke-linecap="round" stroke-linejoin="round"/>
<path d="M142.56 179.936C161.223 179.936 176.352 164.807 176.352 146.144C176.352 127.481 161.223 112.352 142.56 112.352C123.897 112.352 108.768 127.481 108.768 146.144C108.768 164.807 123.897 179.936 142.56 179.936Z" stroke="#263238" stroke-width="2.02651" stroke-linecap="round" stroke-linejoin="round"/>
<path d="M173.072 139.576C173.072 139.576 170.72 139.336 170.256 140.744C169.792 142.152 169.08 143.56 169.08 144.504C169.08 145.448 169.312 146.144 170.488 146.376C171.664 146.608 172.368 144.968 172.368 144.968L173.072 139.576Z" fill="white" stroke="#263238" stroke-width="1.01326" stroke-linecap="round" stroke-linejoin="round"/>
<path d="M173.536 137.928C173.536 137.928 172.368 144.264 172.368 146.144C172.419 147.59 172.91 148.985 173.776 150.144C174.204 150.629 174.781 150.958 175.416 151.08L176.592 149.672C176.592 149.672 175.184 151.552 177.056 153.896C178.928 156.24 180.344 156.008 181.984 155.304C183.624 154.6 184.096 153.664 183.392 151.08C182.688 148.496 182.224 144.272 181.752 141.696C181.28 139.12 179.64 138.176 178.704 138.176C177.768 138.176 175.2 137.224 173.536 137.928Z" fill="white" stroke="#263238" stroke-width="1.01326" stroke-linecap="round" stroke-linejoin="round"/>
<path d="M172.68 147.464C172.68 147.464 172.264 146.008 174.032 145.8C175.8 145.592 178.72 145.28 178.72 145.28" stroke="#263238" stroke-width="0.506629" stroke-linecap="round" stroke-linejoin="round"/>
<path d="M172.888 143.72C172.888 143.72 176.944 142.672 178.408 142.88" stroke="#263238" stroke-width="0.506629" stroke-linecap="round" stroke-linejoin="round"/>
<path d="M173.2 140.8C174.713 140.531 176.247 140.392 177.784 140.384" stroke="#263238" stroke-width="0.506629" stroke-linecap="round" stroke-linejoin="round"/>
<path d="M174.552 148.608C174.873 148.897 175.258 149.105 175.675 149.215C176.093 149.325 176.531 149.333 176.952 149.24" stroke="#263238" stroke-width="0.506629" stroke-linecap="round" stroke-linejoin="round"/>
</svg>
