<svg width="425" height="425" viewBox="0 0 425 425" fill="none" xmlns="http://www.w3.org/2000/svg">
<path d="M414.85 254.484C419.938 178.232 381.413 105.236 314.659 68.0432C302.161 61.0865 288.949 55.4997 275.252 51.38C168.404 19.156 128.548 46.292 100.564 80.212C72.58 114.132 98.868 171.796 66.644 195.54C34.42 219.284 -4.588 253.204 11.524 303.236C27.636 353.268 67.492 386.34 104.804 382.948C142.116 379.556 181.124 335.46 207.412 364.292C233.7 393.124 317.652 421.108 372.772 372.772C402.232 346.942 412.068 296.164 414.85 254.484Z" fill="#2B786C"/>
<path opacity="0.7" d="M414.85 254.484C419.938 178.232 381.413 105.236 314.659 68.0432C302.161 61.0865 288.949 55.4997 275.252 51.38C168.404 19.156 128.548 46.292 100.564 80.212C72.58 114.132 98.868 171.796 66.644 195.54C34.42 219.284 -4.588 253.204 11.524 303.236C27.636 353.268 67.492 386.34 104.804 382.948C142.116 379.556 181.124 335.46 207.412 364.292C233.7 393.124 317.652 421.108 372.772 372.772C402.232 346.942 412.068 296.164 414.85 254.484Z" fill="white"/>
<path d="M374.612 265.788C371.051 266.39 364.377 270.978 364.368 270.978C364.36 270.978 368.727 274.463 369.032 274.65C372.551 276.787 380.616 278.848 384.101 275.82C384.666 275.303 385.116 274.672 385.422 273.969C385.727 273.267 385.881 272.507 385.874 271.741C385.867 270.975 385.699 270.219 385.38 269.522C385.061 268.825 384.6 268.203 384.025 267.696C381.651 265.466 377.648 265.271 374.612 265.788Z" fill="#2B786C"/>
<path d="M359.433 247.692C356.287 249.151 351.385 254.858 350.995 255.324C347.737 252.515 344.295 249.925 340.692 247.573C338.598 246.191 336.452 244.868 334.281 243.562C335.358 244.012 336.325 244.41 336.469 244.41C340.429 245.538 348.748 245.402 351.318 241.569C351.726 240.921 351.994 240.193 352.103 239.434C352.212 238.676 352.16 237.902 351.951 237.165C351.741 236.427 351.379 235.742 350.887 235.154C350.395 234.566 349.785 234.088 349.096 233.751C346.221 232.225 342.312 233.098 339.513 234.395C336.715 235.693 332.407 240.492 331.288 241.773C330.44 241.281 329.592 240.781 328.744 240.297C324.716 237.949 320.679 235.633 316.795 233.234C315.422 232.386 314.107 231.538 312.784 230.639C313.743 231.029 314.557 231.36 314.684 231.393C318.644 232.53 326.963 232.386 329.524 228.553C329.933 227.904 330.201 227.177 330.31 226.418C330.419 225.659 330.367 224.885 330.157 224.148C329.948 223.41 329.585 222.725 329.093 222.137C328.601 221.549 327.991 221.071 327.302 220.734C324.427 219.208 320.518 220.081 317.728 221.379C314.938 222.676 311.038 227.009 309.706 228.527C308.375 227.586 307.043 226.653 305.805 225.678C304.957 225 304.109 224.406 303.321 223.668L300.921 221.574C299.445 220.183 297.919 218.758 296.511 217.334C295.528 216.375 294.612 215.443 293.679 214.501C295.036 215.349 297.715 216.977 297.961 217.088C301.701 218.784 309.944 219.929 313.064 216.528C313.566 215.948 313.941 215.27 314.163 214.536C314.385 213.802 314.451 213.03 314.355 212.269C314.259 211.508 314.004 210.776 313.606 210.12C313.208 209.465 312.677 208.9 312.047 208.464C309.443 206.513 305.441 206.768 302.481 207.616C299.233 208.557 293.721 213.238 293.043 213.831C291.508 212.271 290.033 210.745 288.659 209.278C285.631 206.047 283.003 203.096 280.823 200.56L278.279 202.256C280.594 204.8 283.41 207.87 286.683 211.203C288.226 212.788 289.914 214.459 291.669 216.155C290.329 218.056 289.108 220.038 288.014 222.091C284.622 221.243 277.932 222.049 277.075 222.159C276.651 220.013 276.227 217.919 275.93 215.943C275.227 211.805 274.684 208.082 274.234 204.876L271.495 206.666C271.953 209.574 272.513 212.848 273.191 216.435C273.607 218.614 274.099 220.938 274.616 223.312C273.768 223.634 267.06 226.314 264.703 228.756C262.566 230.961 260.463 234.378 260.955 237.592C261.046 238.353 261.296 239.086 261.689 239.744C262.083 240.402 262.61 240.969 263.237 241.409C263.865 241.849 264.578 242.152 265.33 242.298C266.082 242.444 266.857 242.43 267.603 242.256C272.064 241.095 274.93 233.285 275.167 229.172C275.167 228.926 275.032 226.28 274.913 224.609C275.133 225.576 275.337 226.526 275.574 227.518C276.032 229.494 276.549 231.453 277.092 233.556C277.389 234.565 277.694 235.583 277.999 236.609C278.305 237.635 278.712 238.686 279.059 239.738C279.907 242.155 280.925 244.554 281.985 246.954C280.289 247.361 274.15 248.888 271.682 250.753C269.214 252.619 266.594 255.672 266.636 258.928C266.611 259.694 266.748 260.456 267.038 261.166C267.327 261.875 267.763 262.516 268.317 263.045C268.871 263.575 269.53 263.982 270.251 264.24C270.973 264.498 271.74 264.601 272.504 264.542C277.092 264.067 281.112 256.783 281.968 252.755C282.019 252.5 282.307 249.541 282.426 247.913C283.079 249.354 283.715 250.787 284.419 252.22C286.454 256.359 288.659 260.488 290.787 264.61C291.457 265.873 292.102 267.154 292.746 268.409C292.136 268.544 284.826 270.198 282.07 272.293C279.619 274.158 276.982 277.211 277.024 280.467C276.998 281.233 277.134 281.996 277.423 282.707C277.712 283.417 278.148 284.058 278.702 284.588C279.256 285.117 279.916 285.524 280.638 285.782C281.36 286.039 282.128 286.141 282.892 286.081C287.48 285.606 291.491 278.322 292.348 274.294C292.407 273.988 292.814 269.732 292.865 268.638C294.298 271.428 295.697 274.217 296.969 277.024C298.744 280.822 300.27 284.731 301.54 288.727C301.252 288.795 293.62 290.491 290.796 292.628C288.345 294.493 285.708 297.546 285.708 300.802C285.683 301.568 285.82 302.331 286.109 303.04C286.399 303.749 286.835 304.39 287.388 304.92C287.942 305.449 288.601 305.856 289.323 306.114C290.044 306.372 290.812 306.475 291.576 306.416C296.164 305.941 300.183 298.657 301.04 294.629C301.099 294.315 301.54 289.727 301.557 288.888C301.625 289.117 301.727 289.354 301.794 289.583C302.918 293.604 303.684 297.715 304.084 301.871C304.33 304.169 304.432 306.374 304.491 308.519C303.032 308.689 296.401 309.537 293.645 311.182C290.889 312.827 288.082 315.515 287.709 318.754C287.603 319.512 287.657 320.284 287.868 321.02C288.079 321.756 288.442 322.439 288.933 323.026C289.425 323.612 290.034 324.089 290.722 324.426C291.409 324.762 292.159 324.951 292.924 324.979C297.537 324.979 302.337 318.195 303.626 314.302C303.694 314.09 304.169 311.843 304.474 310.207C304.474 311.173 304.474 312.174 304.474 313.107C304.474 316.592 304.22 319.789 303.982 322.613C303.838 324.216 303.677 325.666 303.507 327.022C302.168 327.938 296.817 331.678 295.163 334.358C293.509 337.037 292.212 340.76 293.399 343.796C293.651 344.52 294.053 345.182 294.578 345.741C295.104 346.299 295.741 346.74 296.448 347.035C297.156 347.33 297.917 347.473 298.684 347.454C299.45 347.435 300.204 347.255 300.895 346.925C305.008 344.822 306.128 336.579 305.466 332.509C305.407 332.153 303.889 326.76 303.821 326.81L303.736 326.861C303.923 325.564 304.109 324.165 304.279 322.621C304.576 319.789 304.881 316.592 304.983 313.098C305.132 309.324 305.062 305.544 304.771 301.777C304.463 297.562 303.782 293.382 302.736 289.286C302.736 289.236 302.736 289.193 302.736 289.142C303.456 290.287 305.576 293.382 305.763 293.637C308.443 296.766 315.464 301.269 319.721 299.454C320.419 299.139 321.043 298.68 321.552 298.107C322.061 297.534 322.444 296.861 322.675 296.13C322.907 295.4 322.981 294.629 322.894 293.867C322.808 293.106 322.561 292.371 322.172 291.712C320.62 288.854 316.872 287.421 313.827 286.963C310.435 286.446 303.16 288.506 302.583 288.659C301.416 284.52 299.974 280.463 298.267 276.516C297.283 274.209 296.223 271.911 295.129 269.63C295.782 270.596 296.376 271.461 296.469 271.572C299.149 274.701 306.17 279.204 310.419 277.389C311.118 277.074 311.742 276.616 312.252 276.044C312.762 275.471 313.146 274.798 313.378 274.067C313.61 273.337 313.685 272.565 313.599 271.804C313.513 271.042 313.267 270.307 312.878 269.647C311.326 266.781 307.578 265.356 304.533 264.889C301.489 264.423 295.205 266.06 293.611 266.509C293.179 265.661 292.763 264.762 292.331 263.897C290.253 259.717 288.167 255.561 286.251 251.415C285.572 249.956 284.962 248.498 284.343 247.031C284.919 247.879 285.419 248.608 285.504 248.727C288.184 251.856 295.205 256.359 299.462 254.552C300.161 254.236 300.785 253.776 301.294 253.203C301.803 252.629 302.186 251.955 302.417 251.224C302.648 250.493 302.723 249.721 302.636 248.959C302.549 248.197 302.303 247.462 301.913 246.802C300.361 243.944 296.613 242.511 293.569 242.053C290.524 241.595 284.885 243.062 282.935 243.596C282.35 242.078 281.756 240.56 281.239 239.068C280.917 238.042 280.535 237.075 280.272 236.024C280.009 234.972 279.712 233.963 279.424 232.945C278.958 230.969 278.474 228.943 278.067 227.009C277.779 225.669 277.525 224.381 277.27 223.083C277.923 224.55 279.271 227.382 279.407 227.603C281.438 230.606 284.202 233.041 287.438 234.675C287.646 235.02 287.888 235.344 288.159 235.642C288.655 236.226 289.269 236.699 289.96 237.03C290.652 237.361 291.405 237.543 292.171 237.564C292.938 237.585 293.7 237.444 294.408 237.151C295.116 236.858 295.755 236.419 296.282 235.862C299.361 232.428 297.444 224.338 295.367 220.777C295.248 220.565 293.671 218.436 292.644 217.113C293.365 217.8 294.052 218.478 294.798 219.174C296.274 220.573 297.783 221.921 299.395 223.414L301.837 225.457C302.642 226.161 303.575 226.797 304.449 227.476C306.509 229.011 308.689 230.469 310.876 231.885C309.655 233.174 305.398 237.821 304.372 240.738C303.346 243.656 302.871 247.624 304.669 250.338C305.072 250.989 305.608 251.549 306.241 251.98C306.874 252.412 307.591 252.705 308.345 252.842C309.099 252.979 309.873 252.956 310.617 252.774C311.362 252.592 312.06 252.256 312.666 251.788C316.236 248.854 315.566 240.56 314.048 236.736C313.955 236.49 312.564 233.87 311.767 232.437C313.098 233.285 314.43 234.133 315.803 234.93C319.78 237.27 323.876 239.5 327.955 241.756C329.202 242.443 330.44 243.147 331.678 243.842C331.245 244.292 326.064 249.71 324.894 252.975C323.876 255.875 323.384 259.861 325.191 262.574C325.593 263.226 326.128 263.785 326.76 264.217C327.393 264.648 328.109 264.942 328.862 265.078C329.615 265.215 330.389 265.192 331.132 265.01C331.876 264.829 332.573 264.493 333.179 264.025C336.749 261.09 336.079 252.797 334.57 248.973C334.451 248.684 332.441 244.902 331.881 243.969C334.612 245.504 337.317 247.056 339.929 248.701C343.459 250.904 346.844 253.332 350.063 255.969C349.859 256.181 344.423 261.803 343.279 265.152C342.261 268.052 341.769 272.038 343.575 274.752C343.978 275.404 344.514 275.964 345.147 276.395C345.781 276.826 346.498 277.12 347.252 277.256C348.006 277.392 348.781 277.367 349.525 277.184C350.269 277.001 350.967 276.664 351.572 276.193C355.134 273.268 354.464 264.974 352.954 261.141C352.835 260.844 350.665 256.783 350.224 256.053L350.8 256.503C353.954 259.237 356.857 262.248 359.475 265.5C360.942 267.281 362.248 269.062 363.478 270.817C362.359 271.758 357.296 276.134 355.905 279.026C354.515 281.917 353.65 285.708 355.151 288.6C355.478 289.292 355.948 289.908 356.529 290.407C357.111 290.906 357.791 291.277 358.526 291.496C359.26 291.714 360.033 291.775 360.792 291.675C361.552 291.575 362.282 291.316 362.935 290.915C366.802 288.371 367.048 280.086 365.963 276.109C365.903 275.888 365.064 273.76 364.428 272.216C364.97 273.022 365.547 273.836 366.056 274.616C367.955 277.542 369.524 280.332 370.889 282.825C371.653 284.241 372.314 285.538 372.925 286.759C372.306 288.26 369.906 294.332 370.007 297.487C370.109 300.641 371.084 304.449 373.739 306.331C374.349 306.794 375.051 307.124 375.797 307.298C376.543 307.473 377.318 307.488 378.071 307.343C378.823 307.198 379.537 306.897 380.166 306.458C380.794 306.019 381.323 305.453 381.718 304.796C383.991 300.785 380.379 293.289 377.58 290.262C377.343 289.999 373.094 286.335 373.069 286.412L373.026 286.505C372.467 285.318 371.848 284.054 371.152 282.681C369.838 280.137 368.328 277.33 366.48 274.353C364.525 271.12 362.382 268.006 360.06 265.025C357.484 261.666 354.612 258.544 351.479 255.697L351.36 255.604C352.59 256.164 356.083 257.605 356.363 257.681C360.323 258.818 368.642 258.674 371.212 254.841C371.621 254.192 371.888 253.465 371.997 252.706C372.106 251.947 372.054 251.173 371.845 250.436C371.635 249.698 371.273 249.013 370.781 248.425C370.289 247.837 369.679 247.359 368.99 247.022C366.141 245.521 362.223 246.42 359.433 247.692Z" fill="#2B786C"/>
<path d="M305.102 309.172C305.017 309.172 306.798 314.48 306.967 314.803C308.723 318.525 314.311 324.69 318.882 324.131C319.635 324.01 320.354 323.733 320.994 323.318C321.633 322.902 322.179 322.358 322.595 321.718C323.011 321.079 323.289 320.36 323.41 319.607C323.532 318.854 323.494 318.084 323.3 317.347C322.553 314.175 319.323 311.801 316.516 310.563C313.2 308.994 305.102 309.172 305.102 309.172Z" fill="#2B786C"/>
<path d="M123.121 126.852C125.665 125.41 129.388 120.068 129.388 120.068C129.388 120.068 125.147 118.652 124.859 118.601C121.62 117.973 114.98 118.66 113.191 121.9C112.909 122.446 112.745 123.046 112.711 123.661C112.676 124.275 112.771 124.889 112.989 125.464C113.207 126.039 113.544 126.562 113.978 126.998C114.412 127.435 114.932 127.775 115.506 127.997C117.914 129.074 120.984 128.099 123.121 126.852Z" fill="#2B786C"/>
<path d="M139.572 136.273C141.531 134.297 143.634 128.641 143.812 128.192C147.043 129.402 150.352 130.393 153.717 131.16C155.675 131.618 157.668 132.008 159.653 132.398C158.72 132.398 157.88 132.33 157.762 132.339C154.463 132.593 148.247 135.01 147.374 138.605C147.248 139.207 147.25 139.829 147.38 140.43C147.51 141.031 147.765 141.598 148.128 142.094C148.491 142.591 148.954 143.005 149.487 143.311C150.02 143.618 150.612 143.808 151.224 143.871C153.81 144.228 156.515 142.481 158.253 140.725C159.992 138.97 161.908 134.162 162.392 132.89L164.69 133.305C168.379 133.941 172.059 134.569 175.654 135.29C176.918 135.544 178.156 135.841 179.394 136.138C178.546 136.138 177.859 136.087 177.749 136.138C174.459 136.384 168.234 138.8 167.369 142.404C167.243 143.006 167.244 143.627 167.372 144.228C167.501 144.829 167.755 145.396 168.117 145.893C168.479 146.39 168.942 146.804 169.475 147.111C170.008 147.417 170.599 147.608 171.211 147.67C173.806 148.018 176.502 146.271 178.249 144.524C179.996 142.777 181.718 138.419 182.294 136.892C183.558 137.232 184.838 137.562 186.025 137.952C186.873 138.232 187.645 138.444 188.451 138.8L190.842 139.716C192.335 140.352 193.886 140.997 195.328 141.658C196.337 142.108 197.287 142.506 198.245 142.998C196.99 142.735 194.522 142.26 194.31 142.243C191.012 141.989 184.499 143.439 183.091 146.865C182.874 147.441 182.781 148.056 182.818 148.67C182.854 149.284 183.02 149.883 183.304 150.429C183.588 150.975 183.984 151.455 184.466 151.837C184.948 152.219 185.506 152.496 186.102 152.648C188.646 153.394 191.537 152.08 193.53 150.613C195.71 148.993 198.559 143.939 198.907 143.303C200.492 144.049 202.027 144.796 203.469 145.516C206.649 147.102 209.405 148.595 211.788 149.892L213.238 147.942C210.779 146.644 207.819 145.143 204.427 143.541C202.824 142.777 201.086 141.989 199.297 141.2C199.773 139.398 200.141 137.569 200.399 135.722C203.172 135.417 208.031 132.949 208.616 132.627C209.523 134.119 210.397 135.586 211.16 136.986C212.856 139.903 214.281 142.557 215.485 144.855L217.045 142.744C215.9 140.683 214.561 138.376 213.043 135.866C212.127 134.348 211.118 132.737 210.058 131.092C210.592 130.617 214.908 126.725 215.994 124.24C216.986 121.976 217.63 118.821 216.358 116.54C216.081 115.99 215.691 115.505 215.214 115.116C214.736 114.727 214.182 114.443 213.587 114.283C212.993 114.123 212.371 114.09 211.763 114.187C211.154 114.284 210.573 114.508 210.058 114.844C207.022 116.964 207.03 123.638 208.006 126.801C208.056 126.988 208.904 128.938 209.456 130.193C209.023 129.523 208.608 128.87 208.15 128.192C207.302 126.827 206.327 125.495 205.334 124.062L203.8 122.018C203.308 121.323 202.689 120.653 202.104 119.958C200.772 118.38 199.356 116.854 197.864 115.336C199.051 114.556 203.231 111.707 204.563 109.612C205.894 107.518 207.005 104.524 206.089 102.065C205.895 101.482 205.58 100.946 205.165 100.492C204.75 100.038 204.244 99.6766 203.68 99.431C203.116 99.1855 202.507 99.0613 201.892 99.0666C201.277 99.0719 200.67 99.2065 200.111 99.4616C196.795 101.098 195.794 107.696 196.269 110.969C196.269 111.172 196.905 113.513 197.27 114.743C196.379 113.844 195.498 112.936 194.573 112.054C191.894 109.51 189.104 106.966 186.331 104.499L183.787 102.184C184.211 101.912 189.248 98.6306 190.749 96.2901C192.072 94.2125 193.183 91.2021 192.275 88.7344C192.079 88.1571 191.765 87.6271 191.352 87.1781C190.94 86.7291 190.438 86.3711 189.88 86.1269C189.321 85.8827 188.718 85.7577 188.108 85.7599C187.499 85.7621 186.896 85.8913 186.339 86.1395C183.015 87.7762 182.014 94.3736 182.498 97.6469C182.498 97.8928 183.414 101.208 183.676 102.04C181.819 100.344 179.996 98.6475 178.258 96.8667C175.943 94.481 173.785 91.9487 171.796 89.2856C171.991 89.1584 177.266 85.7579 178.8 83.3496C180.123 81.272 181.234 78.2616 180.327 75.8024C180.132 75.2244 179.818 74.6934 179.406 74.2435C178.994 73.7936 178.493 73.4347 177.934 73.1896C177.375 72.9446 176.771 72.8189 176.161 72.8205C175.551 72.8221 174.948 72.951 174.391 73.199C171.067 74.8357 170.075 81.4331 170.549 84.7064C170.549 84.9608 171.533 88.5309 171.754 89.1669C171.635 89.0142 171.499 88.8701 171.38 88.709C169.432 85.9938 167.729 83.1105 166.292 80.0933C165.444 78.3973 164.775 76.803 164.139 75.2088C165.182 74.6746 169.939 72.1899 171.559 70.1802C173.178 68.1704 174.544 65.3805 173.908 62.845C173.779 62.2435 173.525 61.6759 173.163 61.1791C172.8 60.6823 172.337 60.2676 171.803 59.9619C171.269 59.6562 170.677 59.4665 170.065 59.4051C169.453 59.3437 168.835 59.412 168.251 59.6056C164.766 60.8606 163.053 67.3139 163.163 70.6296C163.163 70.8077 163.435 72.6224 163.647 73.9453C163.367 73.216 163.07 72.4782 162.799 71.7744C161.849 69.1371 161.103 66.6864 160.526 64.4816C160.195 63.235 159.907 62.0987 159.678 61.0302C160.433 59.9702 163.426 55.6709 163.918 53.1862C164.41 50.7016 164.351 47.547 162.621 45.5542C162.229 45.0806 161.742 44.6946 161.191 44.4213C160.641 44.1481 160.039 43.9936 159.425 43.968C158.811 43.9424 158.198 44.0463 157.627 44.2728C157.055 44.4993 156.538 44.8435 156.108 45.2829C153.564 48.005 155.048 54.5176 156.668 57.4008C156.812 57.6467 159.458 61.2846 159.492 61.2338L159.542 61.1659C159.763 62.2005 160.009 63.2944 160.306 64.4986C160.865 66.7118 161.527 69.1965 162.426 71.8592C163.36 74.7473 164.462 77.5788 165.724 80.3392C167.129 83.4286 168.803 86.3883 170.728 89.1838L170.804 89.2771C169.956 88.6157 167.48 86.8518 167.276 86.7331C164.384 85.1304 157.863 83.7142 155.158 86.2328C154.72 86.6643 154.378 87.1831 154.154 87.7555C153.929 88.3279 153.828 88.9411 153.856 89.5552C153.884 90.1694 154.041 90.7708 154.316 91.3204C154.592 91.87 154.98 92.3555 155.455 92.7454C157.422 94.4414 160.645 94.5008 163.087 94.0005C165.809 93.4408 170.719 89.8792 171.075 89.5909C173.105 92.3853 175.32 95.0399 177.707 97.5366C179.08 99.0037 180.522 100.428 181.947 101.844C181.183 101.302 180.496 100.818 180.395 100.759C177.503 99.1479 170.982 97.7317 168.277 100.259C167.839 100.69 167.497 101.209 167.272 101.781C167.048 102.354 166.946 102.967 166.974 103.581C167.002 104.195 167.159 104.797 167.435 105.346C167.71 105.896 168.098 106.381 168.574 106.771C170.541 108.467 173.763 108.527 176.206 108.026C178.648 107.526 182.871 104.567 183.982 103.786L185.678 105.398C188.4 107.942 191.122 110.486 193.717 113.106C194.641 114.013 195.506 114.946 196.38 115.87C195.701 115.387 195.124 114.98 195.031 114.929C192.148 113.318 185.618 111.91 182.913 114.429C182.476 114.861 182.134 115.38 181.91 115.953C181.687 116.526 181.586 117.139 181.615 117.753C181.644 118.367 181.801 118.969 182.078 119.518C182.354 120.067 182.743 120.552 183.219 120.941C185.177 122.637 188.4 122.697 190.851 122.196C193.301 121.696 197.109 119.025 198.423 118.084C199.271 119.059 200.119 120.034 200.967 121.026C201.493 121.705 202.053 122.332 202.544 123.053L204.028 125.131C204.927 126.487 205.86 127.878 206.7 129.226C207.293 130.159 207.844 131.058 208.396 131.957C207.497 131.041 205.691 129.286 205.529 129.15C203.164 127.457 200.406 126.394 197.516 126.063C197.253 125.856 196.968 125.677 196.668 125.529C196.132 125.228 195.538 125.044 194.926 124.987C194.314 124.931 193.697 125.004 193.115 125.201C192.532 125.399 191.998 125.716 191.547 126.134C191.095 126.551 190.737 127.059 190.494 127.624C189.129 131.067 192.826 136.621 195.379 138.724C195.531 138.851 197.312 140.013 198.449 140.725C197.719 140.412 197.007 140.089 196.252 139.776C194.76 139.131 193.242 138.537 191.622 137.893L189.214 137.045C188.417 136.74 187.518 136.519 186.67 136.248C184.694 135.671 182.659 135.171 180.607 134.721C181.166 133.407 183.074 128.726 183.032 126.241C182.99 123.757 182.252 120.636 180.14 119.101C179.656 118.722 179.098 118.45 178.502 118.301C177.906 118.151 177.285 118.129 176.679 118.236C176.074 118.342 175.498 118.574 174.988 118.918C174.479 119.261 174.047 119.708 173.721 120.229C171.855 123.426 174.662 129.481 176.867 131.94C177.003 132.101 178.784 133.687 179.776 134.543C178.538 134.28 177.308 134.009 176.044 133.789C172.407 133.136 168.701 132.593 165.02 132.025L161.628 131.491C161.832 131.033 164.223 125.512 164.172 122.739C164.13 120.272 163.392 117.134 161.281 115.599C160.797 115.22 160.239 114.947 159.642 114.798C159.046 114.649 158.425 114.627 157.82 114.733C157.215 114.84 156.638 115.072 156.129 115.416C155.619 115.759 155.187 116.206 154.861 116.727C152.996 119.924 155.803 125.979 157.999 128.446C158.169 128.624 160.73 130.914 161.391 131.465C158.906 131.067 156.439 130.617 154.013 130.134C150.746 129.457 147.525 128.57 144.372 127.48C144.465 127.268 146.992 121.544 146.916 118.677C146.873 116.21 146.136 113.072 144.024 111.537C143.54 111.158 142.982 110.886 142.386 110.736C141.789 110.587 141.168 110.565 140.563 110.671C139.958 110.778 139.382 111.01 138.872 111.354C138.362 111.697 137.93 112.144 137.605 112.665C135.739 115.862 138.546 121.917 140.751 124.384C140.92 124.571 143.685 127.03 144.211 127.437C144.032 127.378 143.837 127.327 143.651 127.259C140.517 126.077 137.495 124.619 134.62 122.9C133.025 121.976 131.55 120.992 130.134 120.017C130.71 118.991 133.314 114.293 133.526 111.732C133.738 109.171 133.365 106.076 131.44 104.312C131 103.882 130.474 103.55 129.897 103.336C129.32 103.122 128.705 103.032 128.091 103.071C127.477 103.11 126.878 103.278 126.333 103.563C125.788 103.849 125.309 104.245 124.927 104.728C122.722 107.704 124.851 114.056 126.767 116.718C126.869 116.871 128.099 118.236 129.006 119.262C128.37 118.813 127.708 118.355 127.115 117.906C124.868 116.21 122.917 114.573 121.179 113.08C120.212 112.232 119.347 111.427 118.55 110.681C118.601 109.383 118.72 104.143 117.77 101.794C116.82 99.4446 115.022 96.8498 112.495 96.1798C111.906 96.0014 111.285 95.9492 110.674 96.0267C110.062 96.1042 109.474 96.3097 108.948 96.6297C108.421 96.9498 107.968 97.3772 107.618 97.8842C107.268 98.3911 107.029 98.9662 106.916 99.5718C106.322 103.227 111.156 107.865 114.073 109.366C114.327 109.493 118.533 111.062 118.542 111.003V110.927C119.296 111.664 120.11 112.444 121.018 113.284C122.714 114.81 124.63 116.532 126.852 118.253C129.22 120.143 131.697 121.89 134.272 123.485C137.145 125.288 140.173 126.832 143.32 128.099L143.43 128.141C142.353 128.056 139.318 127.946 139.089 127.963C135.79 128.217 129.566 130.634 128.701 134.23C128.574 134.831 128.575 135.452 128.704 136.053C128.832 136.654 129.086 137.222 129.448 137.718C129.811 138.215 130.273 138.63 130.806 138.936C131.339 139.242 131.931 139.433 132.542 139.496C135.137 139.776 137.876 138.029 139.572 136.273Z" fill="#2B786C"/>
<path d="M163.401 74.9205C163.46 74.9205 160.636 71.4013 160.433 71.2062C158.075 68.8912 152.156 65.796 148.9 67.492C148.363 67.7924 147.896 68.2025 147.529 68.6956C147.161 69.1887 146.902 69.7537 146.767 70.3538C146.633 70.9539 146.626 71.5756 146.748 72.1784C146.87 72.7811 147.118 73.3514 147.475 73.852C148.908 76.0313 152.004 76.9218 154.471 77.0744C157.38 77.2864 163.392 74.929 163.401 74.9205Z" fill="#2B786C"/>
<g opacity="0.1">
<path d="M63.888 157.151C64.0067 156.244 62.9552 155.252 62.9552 154.319C62.9552 153.386 64.0067 152.385 63.888 151.486C63.7693 150.588 62.4973 149.867 62.2599 148.942C62.0224 148.018 62.7771 146.814 62.421 145.966C62.0648 145.118 60.6656 144.77 60.1992 143.982C59.7328 143.193 60.1483 141.794 59.5887 141.064C59.029 140.335 57.5789 140.369 56.9259 139.716C56.273 139.063 56.3154 137.622 55.5776 137.053C54.8399 136.485 53.4661 136.901 52.6605 136.443C51.8549 135.985 51.5327 134.577 50.6762 134.221C49.8197 133.865 48.5986 134.62 47.6997 134.382C46.8008 134.145 46.1224 132.873 45.1981 132.754C44.2738 132.635 43.3071 133.687 42.3658 133.687C41.4245 133.687 40.4408 132.678 39.508 132.788C38.5752 132.898 37.8968 134.179 37.0149 134.416C36.133 134.654 34.8779 133.899 34.0299 134.255C33.1819 134.611 32.8427 136.01 32.0456 136.477C31.2485 136.943 29.8578 136.528 29.1285 137.087C28.3992 137.647 28.4331 139.097 27.7802 139.75C27.1272 140.403 25.6856 140.361 25.1259 141.098C24.5663 141.836 24.9733 143.21 24.5069 144.016C24.0405 144.821 22.6413 145.143 22.2851 146C21.929 146.856 22.6922 148.077 22.4463 148.976C22.2003 149.875 20.9453 150.554 20.8181 151.52C20.6909 152.487 21.7509 153.42 21.7509 154.353C21.7509 155.285 20.7079 156.278 20.8181 157.185C20.9283 158.092 22.2088 158.796 22.4463 159.729C22.6837 160.662 21.9375 161.857 22.2851 162.705C22.6328 163.553 24.049 163.893 24.5069 164.69C24.9648 165.487 24.5578 166.878 25.1259 167.607C25.6941 168.336 27.1272 168.302 27.7802 168.955C28.4331 169.608 28.3992 171.05 29.1285 171.618C29.8578 172.186 31.2485 171.771 32.0456 172.228C32.8427 172.686 33.1819 174.094 34.0384 174.45C34.8949 174.806 36.116 174.052 37.0149 174.289C37.9138 174.527 38.5837 175.79 39.508 175.917C40.4323 176.044 41.4075 174.984 42.3403 174.984C43.2731 174.984 44.2738 176.036 45.1727 175.917C46.0715 175.799 46.7923 174.527 47.6743 174.289C48.5562 174.052 49.8027 174.798 50.6507 174.45C51.4987 174.103 51.8464 172.686 52.6351 172.228C53.4237 171.771 54.8229 172.178 55.5522 171.609C56.2815 171.041 56.2475 169.608 56.9005 168.955C57.5535 168.302 59.0035 168.336 59.5632 167.607C60.1229 166.878 59.7159 165.495 60.1823 164.69C60.6487 163.884 62.0479 163.562 62.3955 162.705C62.7432 161.849 61.997 160.619 62.2344 159.729C62.4719 158.839 63.7693 158.075 63.888 157.151ZM42.3658 171.016C39.0634 171.016 35.8352 170.037 33.0893 168.202C30.3435 166.367 28.2034 163.759 26.9396 160.708C25.6759 157.657 25.3452 154.3 25.9895 151.061C26.6337 147.822 28.224 144.847 30.5591 142.512C32.8943 140.177 35.8694 138.587 39.1083 137.942C42.3472 137.298 45.7045 137.629 48.7555 138.893C51.8065 140.156 54.4142 142.296 56.2489 145.042C58.0836 147.788 59.0629 151.016 59.0629 154.319C59.0606 158.746 57.3008 162.992 54.1699 166.123C51.0391 169.254 46.7934 171.014 42.3658 171.016Z" fill="black"/>
<path d="M51.8115 163.765C57.0274 158.549 57.0274 150.092 51.8115 144.877C46.5957 139.661 38.1391 139.661 32.9233 144.877C27.7075 150.092 27.7075 158.549 32.9233 163.765C38.1391 168.981 46.5957 168.981 51.8115 163.765Z" fill="black"/>
</g>
<g opacity="0.1">
<path d="M394.608 150.893C394.761 149.689 393.361 148.349 393.361 147.111C393.361 145.873 394.761 144.567 394.608 143.329C394.455 142.091 392.751 141.175 392.437 139.996C392.123 138.817 393.124 137.147 392.649 136.019C392.174 134.891 390.3 134.425 389.69 133.365C389.079 132.305 389.613 130.447 388.842 129.472C388.07 128.497 386.162 128.548 385.288 127.675C384.415 126.801 384.44 124.876 383.491 124.121C382.541 123.367 380.667 123.918 379.598 123.273C378.53 122.629 378.089 120.789 376.944 120.314C375.799 119.839 374.171 120.848 372.967 120.526C371.763 120.204 370.872 118.516 369.634 118.355C368.396 118.194 367.09 119.602 365.852 119.602C364.614 119.602 363.308 118.202 362.07 118.355C360.832 118.508 359.916 120.212 358.738 120.526C357.559 120.84 355.897 119.847 354.76 120.314C353.624 120.78 353.175 122.663 352.106 123.282C351.038 123.901 349.189 123.35 348.214 124.13C347.239 124.91 347.332 126.801 346.484 127.7C345.636 128.599 343.686 128.548 342.939 129.498C342.193 130.447 342.736 132.322 342.091 133.39C341.447 134.459 339.598 134.899 339.123 136.044C338.648 137.189 339.666 138.817 339.344 140.021C339.022 141.226 337.334 142.116 337.173 143.354C337.012 144.592 338.411 145.898 338.411 147.136C338.411 148.374 337.012 149.68 337.173 150.918C337.334 152.156 339.03 153.072 339.344 154.251C339.658 155.43 338.657 157.092 339.123 158.228C339.59 159.364 341.472 159.814 342.091 160.882C342.71 161.951 342.168 163.799 342.939 164.775C343.711 165.75 345.619 165.699 346.484 166.572C347.349 167.446 347.332 169.371 348.282 170.117C349.232 170.863 351.106 170.32 352.183 170.965C353.26 171.609 353.692 173.458 354.837 173.933C355.982 174.408 357.61 173.399 358.805 173.712C360.001 174.026 360.908 175.722 362.138 175.883C363.368 176.044 364.682 174.645 365.92 174.645C367.158 174.645 368.464 176.044 369.702 175.883C370.94 175.722 371.856 174.026 373.035 173.712C374.214 173.399 375.884 174.399 377.012 173.933C378.14 173.467 378.606 171.584 379.666 170.965C380.726 170.346 382.583 170.897 383.559 170.117C384.534 169.337 384.483 167.437 385.356 166.572C386.23 165.707 388.155 165.724 388.909 164.775C389.664 163.825 389.113 161.951 389.757 160.882C390.402 159.814 392.242 159.364 392.717 158.228C393.192 157.092 392.183 155.447 392.505 154.251C392.827 153.055 394.447 152.122 394.608 150.893ZM365.878 169.396C361.47 169.396 357.161 168.089 353.497 165.64C349.832 163.192 346.975 159.711 345.289 155.639C343.602 151.567 343.161 147.086 344.021 142.763C344.88 138.44 347.003 134.469 350.12 131.353C353.236 128.236 357.207 126.113 361.53 125.253C365.853 124.394 370.334 124.835 374.406 126.522C378.478 128.208 381.959 131.065 384.407 134.73C386.856 138.394 388.163 142.703 388.163 147.111C388.161 153.02 385.812 158.688 381.633 162.866C377.455 167.045 371.788 169.394 365.878 169.396Z" fill="black"/>
<path d="M376.149 159.785C384.024 153.878 385.62 142.706 379.714 134.83C373.807 126.954 362.634 125.358 354.759 131.265C346.883 137.172 345.287 148.344 351.194 156.22C357.1 164.095 368.273 165.692 376.149 159.785Z" fill="black"/>
</g>
<g opacity="0.1">
<path d="M347.824 332.178C344.134 332.178 340.527 333.272 337.459 335.322C334.391 337.372 332 340.286 330.588 343.695C329.176 347.104 328.806 350.855 329.526 354.474C330.246 358.093 332.023 361.417 334.632 364.026C337.241 366.635 340.565 368.412 344.184 369.132C347.803 369.852 351.554 369.482 354.963 368.07C358.372 366.658 361.286 364.267 363.336 361.199C365.386 358.131 366.48 354.524 366.48 350.834C366.48 345.886 364.514 341.141 361.016 337.642C357.517 334.144 352.772 332.178 347.824 332.178ZM349.028 363.775V365.742H346.654V363.775C343.431 363.334 341.981 360.883 341.981 357.364V355.812H344.686V357.593C344.686 359.925 345.653 361.265 347.731 361.265C349.808 361.265 350.775 359.925 350.775 357.593C350.775 351.809 342.091 351.733 342.091 344.423C342.091 340.862 343.541 338.53 346.654 338.046V335.969H349.028V338.004C352.183 338.453 353.624 340.896 353.624 344.381V345.085H350.919V344.194C350.919 341.896 349.995 340.489 347.917 340.489C345.839 340.489 344.949 341.896 344.949 344.194C344.949 350.02 353.667 350.054 353.667 357.364C353.667 360.849 352.183 363.334 349.028 363.775Z" fill="black"/>
<path d="M347.824 320.306C341.786 320.306 335.884 322.097 330.863 325.451C325.843 328.806 321.93 333.573 319.62 339.152C317.309 344.73 316.704 350.868 317.882 356.79C319.06 362.712 321.968 368.151 326.237 372.421C330.507 376.69 335.946 379.598 341.868 380.776C347.79 381.954 353.928 381.349 359.506 379.038C365.085 376.728 369.852 372.815 373.207 367.795C376.561 362.774 378.352 356.872 378.352 350.834C378.352 342.738 375.135 334.973 369.41 329.248C363.685 323.523 355.92 320.306 347.824 320.306ZM347.824 373.73C343.295 373.73 338.869 372.387 335.103 369.872C331.338 367.356 328.404 363.78 326.671 359.596C324.938 355.413 324.484 350.809 325.368 346.367C326.251 341.926 328.432 337.846 331.634 334.644C334.836 331.442 338.916 329.262 343.357 328.378C347.798 327.495 352.402 327.948 356.586 329.681C360.769 331.414 364.345 334.349 366.861 338.114C369.377 341.879 370.72 346.306 370.72 350.834C370.72 356.907 368.308 362.73 364.014 367.024C359.72 371.318 353.896 373.73 347.824 373.73Z" fill="black"/>
</g>
<g opacity="0.1">
<path d="M275.735 358.644C273.129 358.644 270.581 359.417 268.414 360.865C266.247 362.313 264.558 364.371 263.561 366.779C262.563 369.187 262.302 371.837 262.811 374.393C263.319 376.949 264.574 379.298 266.417 381.141C268.26 382.983 270.608 384.239 273.164 384.747C275.721 385.256 278.37 384.995 280.778 383.997C283.186 383 285.244 381.311 286.692 379.144C288.14 376.976 288.913 374.429 288.913 371.822C288.913 370.092 288.572 368.378 287.91 366.779C287.248 365.181 286.277 363.728 285.054 362.504C283.83 361.28 282.377 360.31 280.778 359.648C279.18 358.985 277.466 358.644 275.735 358.644ZM276.583 380.964V382.354H274.887V380.964C272.606 380.65 271.589 378.92 271.589 376.427V375.316H273.556V376.571C273.556 378.216 274.234 379.166 275.701 379.166C277.168 379.166 277.855 378.216 277.855 376.571C277.855 372.484 271.724 372.433 271.724 367.243C271.724 364.699 272.742 363.079 274.947 362.74V361.273H276.643V362.74C278.864 363.054 279.891 364.784 279.891 367.243V367.743H277.974V367.116C277.974 365.488 277.321 364.496 275.854 364.496C274.387 364.496 273.76 365.488 273.76 367.116C273.76 371.229 279.916 371.254 279.916 376.444C279.865 378.895 278.814 380.65 276.592 380.964H276.583Z" fill="black"/>
<path d="M275.735 350.258C271.47 350.258 267.301 351.522 263.755 353.892C260.208 356.262 257.444 359.629 255.812 363.57C254.18 367.51 253.753 371.846 254.585 376.029C255.417 380.213 257.471 384.055 260.487 387.071C263.503 390.087 267.345 392.141 271.528 392.973C275.711 393.805 280.047 393.378 283.988 391.745C287.928 390.113 291.296 387.349 293.666 383.803C296.035 380.257 297.3 376.087 297.3 371.822C297.3 366.103 295.028 360.618 290.984 356.574C286.94 352.53 281.455 350.258 275.735 350.258ZM275.735 387.994C272.537 387.994 269.41 387.045 266.751 385.268C264.092 383.491 262.019 380.966 260.795 378.011C259.571 375.056 259.251 371.804 259.875 368.667C260.499 365.531 262.039 362.649 264.3 360.387C266.562 358.126 269.444 356.586 272.58 355.962C275.717 355.338 278.969 355.658 281.924 356.882C284.879 358.106 287.404 360.179 289.181 362.838C290.958 365.497 291.907 368.624 291.907 371.822C291.912 373.95 291.498 376.057 290.688 378.024C289.878 379.991 288.687 381.778 287.185 383.285C285.683 384.791 283.898 385.986 281.934 386.801C279.969 387.616 277.863 388.036 275.735 388.036V387.994Z" fill="black"/>
</g>
<g opacity="0.1">
<path d="M252.958 312.861C250.352 312.861 247.804 313.634 245.637 315.082C243.47 316.53 241.781 318.588 240.783 320.996C239.786 323.404 239.525 326.053 240.033 328.61C240.542 331.166 241.797 333.514 243.64 335.357C245.483 337.2 247.831 338.455 250.387 338.963C252.943 339.472 255.593 339.211 258.001 338.214C260.409 337.216 262.467 335.527 263.915 333.36C265.363 331.193 266.136 328.645 266.136 326.039C266.137 324.308 265.797 322.594 265.135 320.994C264.473 319.395 263.503 317.942 262.279 316.718C261.055 315.494 259.602 314.524 258.002 313.862C256.403 313.2 254.689 312.86 252.958 312.861ZM253.806 335.18V336.562H252.11V335.18C249.837 334.866 248.811 333.137 248.811 330.643V329.524H250.728V330.779C250.728 332.424 251.406 333.374 252.873 333.374C254.34 333.374 255.019 332.424 255.019 330.779C255.019 326.692 248.888 326.641 248.888 321.451C248.888 318.907 249.914 317.287 252.11 316.948V315.481H253.806V316.948C256.036 317.262 257.054 318.992 257.054 321.451V321.951H255.146V321.324C255.146 319.696 254.484 318.704 253.017 318.704C251.55 318.704 250.923 319.696 250.923 321.324C250.923 325.437 257.079 325.462 257.079 330.652C257.079 333.111 256.036 334.866 253.806 335.18Z" fill="black"/>
<path d="M252.958 304.474C248.693 304.472 244.523 305.736 240.975 308.104C237.428 310.473 234.662 313.84 233.029 317.78C231.395 321.721 230.967 326.057 231.798 330.241C232.629 334.424 234.683 338.268 237.698 341.284C240.714 344.301 244.556 346.356 248.739 347.188C252.923 348.021 257.259 347.595 261.2 345.963C265.141 344.331 268.509 341.567 270.879 338.02C273.249 334.474 274.514 330.304 274.514 326.039C274.515 323.207 273.959 320.403 272.876 317.787C271.793 315.171 270.205 312.793 268.204 310.791C266.202 308.788 263.825 307.2 261.209 306.116C258.593 305.032 255.79 304.474 252.958 304.474ZM252.958 342.21C249.76 342.21 246.633 341.262 243.974 339.485C241.314 337.708 239.242 335.182 238.018 332.227C236.794 329.272 236.473 326.021 237.097 322.884C237.721 319.747 239.262 316.866 241.523 314.604C243.785 312.342 246.666 310.802 249.803 310.178C252.94 309.554 256.192 309.874 259.147 311.098C262.102 312.322 264.627 314.395 266.404 317.054C268.181 319.714 269.129 322.84 269.129 326.039C269.134 328.165 268.719 330.272 267.908 332.238C267.098 334.204 265.907 335.99 264.405 337.496C262.903 339.001 261.119 340.195 259.154 341.01C257.19 341.825 255.085 342.244 252.958 342.244V342.21Z" fill="black"/>
</g>
<path opacity="0.1" d="M73.2415 63.2775H85.7155L79.4743 52.4824L73.2415 63.2775Z" fill="black"/>
<path opacity="0.1" d="M48.7597 63.2775H61.2338L55.001 52.4824L48.7597 63.2775Z" fill="black"/>
<path opacity="0.1" d="M67.2376 38.3801C62.4375 38.3801 57.7452 39.8035 53.754 42.4703C49.7629 45.1371 46.6522 48.9275 44.8153 53.3623C42.9784 57.797 42.4977 62.6768 43.4342 67.3847C44.3706 72.0926 46.6821 76.417 50.0763 79.8112C53.4705 83.2054 57.7949 85.5169 62.5028 86.4533C67.2107 87.3898 72.0905 86.9091 76.5252 85.0722C80.96 83.2353 84.7504 80.1246 87.4172 76.1334C90.084 72.1423 91.5074 67.45 91.5074 62.6499C91.5006 56.2152 88.9415 50.046 84.3915 45.496C79.8415 40.946 73.6723 38.3869 67.2376 38.3801ZM84.4011 66.644H74.5558C74.0755 66.6439 73.6035 66.5176 73.1874 66.2776C72.7713 66.0376 72.4256 65.6923 72.1851 65.2765C71.9445 64.8607 71.8176 64.3889 71.8169 63.9086C71.8163 63.4282 71.942 62.9561 72.1814 62.5397L79.3046 50.1928H68.9166V73.7672H72.7666V75.7769H78.1344V78.6008H57.0107V75.7769H61.7002V73.7672H66.644V50.1504H55.1706L62.2938 62.4972C62.5439 62.9147 62.6783 63.3913 62.6831 63.8779C62.6879 64.3646 62.563 64.8437 62.3212 65.2661C62.0793 65.6884 61.7293 66.0387 61.3072 66.2809C60.8851 66.5231 60.406 66.6484 59.9194 66.644H50.0741C49.5937 66.6439 49.1218 66.5176 48.7057 66.2776C48.2895 66.0376 47.9439 65.6923 47.7033 65.2765C47.4628 64.8607 47.3358 64.3889 47.3352 63.9086C47.3345 63.4282 47.4602 62.9561 47.6997 62.5397L54.8229 50.1928H54.5346C54.2469 50.168 53.9789 50.0363 53.7837 49.8235C53.5884 49.6108 53.4801 49.3325 53.4801 49.0437C53.4801 48.755 53.5884 48.4767 53.7837 48.264C53.9789 48.0512 54.2469 47.9194 54.5346 47.8947H66.644C66.6687 47.607 66.8005 47.339 67.0133 47.1438C67.226 46.9485 67.5043 46.8402 67.793 46.8402C68.0818 46.8402 68.3601 46.9485 68.5728 47.1438C68.7856 47.339 68.9173 47.607 68.9421 47.8947H80.9922C81.1514 47.881 81.3117 47.9005 81.4629 47.9521C81.6141 48.0036 81.753 48.086 81.8707 48.194C81.9885 48.3021 82.0825 48.4334 82.1468 48.5796C82.211 48.7259 82.2443 48.8839 82.2443 49.0437C82.2443 49.2035 82.211 49.3615 82.1468 49.5078C82.0825 49.6541 81.9885 49.7854 81.8707 49.8934C81.753 50.0015 81.6141 50.0839 81.4629 50.1354C81.3117 50.1869 81.1514 50.2065 80.9922 50.1928H79.6438L86.7755 62.5397C87.015 62.9561 87.1407 63.4282 87.14 63.9086C87.1394 64.3889 87.0124 64.8607 86.7719 65.2765C86.5313 65.6923 86.1857 66.0376 85.7695 66.2776C85.3534 66.5176 84.8815 66.6439 84.4011 66.644Z" fill="black"/>
<path opacity="0.1" d="M67.2376 34.861C61.7415 34.861 56.3688 36.4908 51.7989 39.5442C47.229 42.5977 43.6672 46.9378 41.564 52.0155C39.4607 57.0933 38.9104 62.6807 39.9826 68.0713C41.0549 73.4618 43.7015 78.4133 47.5878 82.2997C51.4742 86.186 56.4257 88.8327 61.8163 89.9049C67.2068 90.9772 72.7942 90.4268 77.872 88.3236C82.9498 86.2203 87.2898 82.6585 90.3433 78.0886C93.3968 73.5188 95.0266 68.1461 95.0266 62.6499C95.0266 55.2798 92.0988 48.2116 86.8874 43.0002C81.6759 37.7887 74.6077 34.861 67.2376 34.861ZM67.2376 87.7677C62.2698 87.7677 57.4135 86.2945 53.2829 83.5346C49.1523 80.7746 45.9329 76.8517 44.0318 72.2621C42.1307 67.6724 41.6333 62.6221 42.6025 57.7497C43.5717 52.8773 45.9639 48.4018 49.4767 44.889C52.9895 41.3762 57.465 38.984 62.3374 38.0148C67.2097 37.0456 72.2601 37.543 76.8498 39.4441C81.4394 41.3452 85.3623 44.5646 88.1223 48.6952C90.8822 52.8258 92.3554 57.6821 92.3554 62.6499C92.3464 69.3088 89.6972 75.6924 84.9886 80.4009C80.2801 85.1095 73.8965 87.7587 67.2376 87.7677Z" fill="black"/>
<path opacity="0.1" d="M91.7533 347.748H104.227L97.9946 336.944L91.7533 347.748Z" fill="black"/>
<path opacity="0.1" d="M67.28 347.748H79.7541L73.5128 336.944L67.28 347.748Z" fill="black"/>
<path opacity="0.1" d="M85.7494 322.85C80.949 322.85 76.2563 324.274 72.265 326.941C68.2737 329.608 65.163 333.399 63.3263 337.834C61.4896 342.27 61.0095 347.15 61.9466 351.858C62.8838 356.566 65.1961 360.891 68.5911 364.284C71.9862 367.678 76.3114 369.989 81.0198 370.925C85.7283 371.86 90.6084 371.378 95.043 369.54C99.4775 367.702 103.267 364.59 105.933 360.597C108.599 356.605 110.021 351.912 110.019 347.112C110.012 340.678 107.453 334.509 102.903 329.961C98.3526 325.412 92.1833 322.855 85.7494 322.85ZM102.921 351.063H93.0677C92.587 351.064 92.1146 350.939 91.6981 350.699C91.2817 350.459 90.936 350.113 90.6959 349.696C90.4559 349.28 90.33 348.808 90.331 348.327C90.332 347.846 90.4599 347.374 90.7018 346.959L97.825 334.621H87.437V358.229H91.2869V360.239H96.6547V363.062H75.5226V360.239H80.212V358.229H85.1304V334.612H73.6824L80.8056 346.95C81.0474 347.366 81.1753 347.838 81.1763 348.318C81.1774 348.799 81.0515 349.272 80.8114 349.688C80.5714 350.104 80.2257 350.45 79.8092 350.69C79.3928 350.93 78.9203 351.056 78.4397 351.055H68.5859C68.1053 351.056 67.6328 350.93 67.2164 350.69C66.7999 350.45 66.4542 350.104 66.2142 349.688C65.9741 349.272 65.8482 348.799 65.8493 348.318C65.8503 347.838 65.9782 347.366 66.22 346.95L73.3432 334.612H73.0549C72.749 334.612 72.4557 334.491 72.2394 334.274C72.0231 334.058 71.9016 333.765 71.9016 333.459C71.9016 333.153 72.0231 332.86 72.2394 332.643C72.4557 332.427 72.749 332.306 73.0549 332.306H85.1304C85.1304 332 85.2519 331.706 85.4682 331.49C85.6845 331.274 85.9778 331.152 86.2837 331.152C86.5896 331.152 86.8829 331.274 87.0992 331.49C87.3155 331.706 87.437 332 87.437 332.306H99.5125C99.8184 332.306 100.112 332.427 100.328 332.643C100.544 332.86 100.666 333.153 100.666 333.459C100.666 333.765 100.544 334.058 100.328 334.274C100.112 334.491 99.8184 334.612 99.5125 334.612H98.1642L105.287 346.95C105.529 347.367 105.656 347.839 105.657 348.32C105.658 348.801 105.532 349.273 105.292 349.69C105.052 350.107 104.707 350.453 104.291 350.694C103.875 350.935 103.402 351.063 102.921 351.063Z" fill="black"/>
<path opacity="0.1" d="M85.7495 319.348C80.2533 319.348 74.8806 320.978 70.3107 324.031C65.7409 327.085 62.1791 331.425 60.0758 336.503C57.9725 341.58 57.4222 347.168 58.4944 352.558C59.5667 357.949 62.2133 362.9 66.0997 366.787C69.986 370.673 74.9376 373.32 80.3281 374.392C85.7186 375.464 91.3061 374.914 96.3838 372.811C101.462 370.707 105.802 367.146 108.855 362.576C111.909 358.006 113.538 352.633 113.538 347.137C113.538 339.767 110.611 332.699 105.399 327.487C100.188 322.276 93.1195 319.348 85.7495 319.348ZM85.7495 372.255C80.7816 372.255 75.9254 370.782 71.7948 368.022C67.6642 365.262 64.4448 361.339 62.5437 356.749C60.6426 352.159 60.1452 347.109 61.1143 342.237C62.0835 337.364 64.4757 332.889 67.9885 329.376C71.5013 325.863 75.9769 323.471 80.8492 322.502C85.7216 321.533 90.7719 322.03 95.3616 323.931C99.9513 325.832 103.874 329.052 106.634 333.182C109.394 337.313 110.867 342.169 110.867 347.137C110.854 353.792 108.202 360.17 103.494 364.874C98.7857 369.578 92.4046 372.223 85.7495 372.229V372.255Z" fill="black"/>
<path d="M209.108 415.172C306.054 415.172 384.644 412.135 384.644 408.388C384.644 404.641 306.054 401.604 209.108 401.604C112.162 401.604 33.572 404.641 33.572 408.388C33.572 412.135 112.162 415.172 209.108 415.172Z" fill="#263238"/>
<path d="M333.323 236.812C338.335 237.745 343.804 234.531 346.891 229.367C349.24 225.491 350.063 221.667 351.021 217.283C352.098 212.5 389.342 39.3469 389.732 37.6339H201.103L162.705 216.062L161.145 223.261C160.821 224.759 160.248 226.193 159.449 227.501L158.313 229.392C157.112 231.38 155.39 233.001 153.333 234.079C151.276 235.158 148.964 235.653 146.646 235.51C144.328 235.368 142.093 234.593 140.184 233.271C138.275 231.949 136.764 230.13 135.815 228.01C134.251 224.508 131.719 221.526 128.518 219.414C125.317 217.302 121.579 216.148 117.744 216.087H117.041C112.578 216.171 108.27 217.732 104.79 220.527C101.309 223.321 98.854 227.19 97.808 231.529L82.2302 296.164H270.834L285.148 236.804" fill="white"/>
<path d="M333.323 236.812C338.335 237.745 343.804 234.531 346.891 229.367C349.24 225.491 350.063 221.667 351.021 217.283C352.098 212.5 389.342 39.3469 389.732 37.6339H201.103L162.705 216.062L161.145 223.261C160.821 224.759 160.248 226.193 159.449 227.501L158.313 229.392C157.112 231.38 155.39 233.001 153.333 234.079C151.276 235.158 148.964 235.653 146.646 235.51C144.328 235.368 142.093 234.593 140.184 233.271C138.275 231.949 136.764 230.13 135.815 228.01C134.251 224.508 131.719 221.526 128.518 219.414C125.317 217.302 121.579 216.148 117.744 216.087H117.041C112.578 216.171 108.27 217.732 104.79 220.527C101.309 223.321 98.854 227.19 97.808 231.529L82.2302 296.164H270.834L285.148 236.804" stroke="#263238" stroke-linecap="round" stroke-linejoin="round"/>
<path d="M260.836 57.7739L260.565 59.1986H258.869L259.157 57.6806C259.437 56.256 259.038 55.3995 257.741 55.3995C256.443 55.3995 255.723 56.2475 255.443 57.6806L253.832 66.0674C253.552 67.492 253.976 68.3485 255.248 68.3485C256.52 68.3485 257.274 67.5005 257.546 66.0674L257.944 64.0067H259.64L259.267 65.9741C258.801 68.3739 257.359 69.9597 254.917 69.9597C252.475 69.9597 251.669 68.3739 252.127 65.9741L253.713 57.7739C254.171 55.3741 255.612 53.7883 258.038 53.7883C260.463 53.7883 261.26 55.3741 260.836 57.7739Z" fill="#263238"/>
<path d="M262.269 57.7739C262.736 55.3487 264.236 53.7883 266.662 53.7883C269.087 53.7883 270.003 55.3487 269.536 57.7739L267.959 65.9741C267.493 68.3739 265.992 69.9597 263.541 69.9597C261.09 69.9597 260.225 68.3739 260.683 65.9741L262.269 57.7739ZM262.413 66.0674C262.133 67.5174 262.583 68.3485 263.855 68.3485C265.127 68.3485 265.89 67.5005 266.17 66.0674L267.79 57.6806C268.061 56.256 267.637 55.3995 266.348 55.3995C265.059 55.3995 264.304 56.2475 264.033 57.6806L262.413 66.0674Z" fill="#263238"/>
<path d="M270.461 69.7985H268.875L271.928 53.924H274.175L275.634 65.3804L277.847 53.924H279.407L276.346 69.7731H274.514L272.928 56.9598L270.461 69.7985Z" fill="#263238"/>
<path d="M280.45 69.7986L283.198 55.5522H280.272L280.586 53.9495H288.175L287.862 55.5522H284.945L282.197 69.7986H280.45Z" fill="#263238"/>
<path d="M292.907 53.924C295.4 53.924 296.198 55.1875 295.748 57.5449L295.494 58.8339C295.163 60.5808 294.34 61.6662 292.899 62.0987C294.264 62.5311 294.595 63.7099 294.256 65.4059L293.772 67.8735C293.608 68.4961 293.608 69.1506 293.772 69.7731H291.975C291.846 69.1341 291.875 68.4733 292.059 67.8481L292.534 65.3635C292.882 63.5657 292.153 63.006 290.677 63.006H289.431L288.125 69.79H286.361L289.371 53.924H292.907ZM291.016 61.3948C291.336 61.4412 291.662 61.4207 291.973 61.3345C292.284 61.2484 292.574 61.0985 292.825 60.8944C293.075 60.6903 293.28 60.4365 293.427 60.1489C293.574 59.8613 293.66 59.5464 293.679 59.2239L293.967 57.706C294.247 56.2729 293.866 55.5267 292.551 55.5267H290.855L289.668 61.4203L291.016 61.3948Z" fill="#263238"/>
<path d="M297.648 66.644L296.452 69.7985H294.756L300.887 53.924H303.431V69.7731H301.667V66.644H297.648ZM298.165 65.126H301.701V55.9761L298.165 65.126Z" fill="#263238"/>
<path d="M314.099 57.7739L313.828 59.1986H312.132L312.428 57.6806C312.7 56.256 312.301 55.3995 311.012 55.3995C309.723 55.3995 308.985 56.2475 308.714 57.6806L307.094 66.0674C306.823 67.492 307.239 68.3485 308.511 68.3485C309.783 68.3485 310.537 67.5005 310.809 66.0674L311.207 64.0067H312.903L312.564 65.9741C312.098 68.3739 310.664 69.9597 308.214 69.9597C305.763 69.9597 304.932 68.34 305.381 65.9741L306.967 57.7739C307.425 55.3741 308.867 53.7883 311.292 53.7883C313.717 53.7883 314.565 55.3741 314.099 57.7739Z" fill="#263238"/>
<path d="M315.676 69.7986L318.424 55.5522H315.507L315.812 53.9495H323.401L323.096 55.5522H320.196L317.448 69.7986H315.676Z" fill="#263238"/>
<path d="M205.962 77.5493H372.331" stroke="#263238" stroke-miterlimit="10"/>
<path d="M328.074 95.9847H367.006" stroke="#263238" stroke-miterlimit="10"/>
<path d="M267.018 95.9847H323.978" stroke="#263238" stroke-miterlimit="10"/>
<path d="M228.909 95.9847H263.745" stroke="#263238" stroke-miterlimit="10"/>
<path d="M200.636 95.9847H225.636" stroke="#263238" stroke-miterlimit="10"/>
<path d="M323.156 105.406H364.953" stroke="#263238" stroke-miterlimit="10"/>
<path d="M228.502 105.406H319.06" stroke="#263238" stroke-miterlimit="10"/>
<path d="M198.593 105.406H224.813" stroke="#263238" stroke-miterlimit="10"/>
<path d="M314.557 114.836H362.91" stroke="#263238" stroke-miterlimit="10"/>
<path d="M242.027 114.836H311.275" stroke="#263238" stroke-miterlimit="10"/>
<path d="M196.541 114.836H238.746" stroke="#263238" stroke-miterlimit="10"/>
<path d="M330.533 124.257H360.858" stroke="#263238" stroke-miterlimit="10"/>
<path d="M284.232 124.257H326.437" stroke="#263238" stroke-miterlimit="10"/>
<path d="M239.568 124.257H280.136" stroke="#263238" stroke-miterlimit="10"/>
<path d="M205.962 124.257H235.879" stroke="#263238" stroke-miterlimit="10"/>
<path d="M194.488 124.257H202.273" stroke="#263238" stroke-miterlimit="10"/>
<path d="M351.843 133.687H358.805" stroke="#263238" stroke-miterlimit="10"/>
<path d="M282.587 133.687H346.518" stroke="#263238" stroke-miterlimit="10"/>
<path d="M233.827 133.687H278.491" stroke="#263238" stroke-miterlimit="10"/>
<path d="M192.445 133.687H229.324" stroke="#263238" stroke-miterlimit="10"/>
<path d="M342.829 143.108H356.762" stroke="#263238" stroke-miterlimit="10"/>
<path d="M302.261 143.108H339.14" stroke="#263238" stroke-miterlimit="10"/>
<path d="M289.965 143.108H298.165" stroke="#263238" stroke-miterlimit="10"/>
<path d="M230.961 143.108H287.921" stroke="#263238" stroke-miterlimit="10"/>
<path d="M190.393 143.108H227.679" stroke="#263238" stroke-miterlimit="10"/>
<path d="M188.34 152.529H354.71" stroke="#263238" stroke-miterlimit="10"/>
<path d="M344.059 161.959H352.666" stroke="#263238" stroke-miterlimit="10"/>
<path d="M306.357 161.959H338.733" stroke="#263238" stroke-miterlimit="10"/>
<path d="M252.271 161.959H300.624" stroke="#263238" stroke-miterlimit="10"/>
<path d="M240.382 161.959H248.582" stroke="#263238" stroke-miterlimit="10"/>
<path d="M202.689 161.959H235.879" stroke="#263238" stroke-miterlimit="10"/>
<path d="M186.297 161.959H197.77" stroke="#263238" stroke-miterlimit="10"/>
<path d="M308.816 171.38H350.614" stroke="#263238" stroke-miterlimit="10"/>
<path d="M264.559 171.38H303.49" stroke="#263238" stroke-miterlimit="10"/>
<path d="M230.554 171.38H260.463" stroke="#263238" stroke-miterlimit="10"/>
<path d="M184.245 171.38H226.45" stroke="#263238" stroke-miterlimit="10"/>
<path d="M335.452 180.81H348.562" stroke="#263238" stroke-miterlimit="10"/>
<path d="M292.017 180.81H330.94" stroke="#263238" stroke-miterlimit="10"/>
<path d="M264.152 180.81H289.151" stroke="#263238" stroke-miterlimit="10"/>
<path d="M241.612 180.81H260.056" stroke="#263238" stroke-miterlimit="10"/>
<path d="M220.31 180.81H238.339" stroke="#263238" stroke-miterlimit="10"/>
<path d="M193.259 180.81H215.799" stroke="#263238" stroke-miterlimit="10"/>
<path d="M182.201 180.81H189.57" stroke="#263238" stroke-miterlimit="10"/>
<path d="M324.385 190.232H346.518" stroke="#263238" stroke-miterlimit="10"/>
<path d="M285.462 190.232H319.467" stroke="#263238" stroke-miterlimit="10"/>
<path d="M248.989 190.232H280.544" stroke="#263238" stroke-miterlimit="10"/>
<path d="M206.377 190.232H244.071" stroke="#263238" stroke-miterlimit="10"/>
<path d="M180.149 190.232H202.273" stroke="#263238" stroke-miterlimit="10"/>
<path d="M323.156 199.653H344.466" stroke="#263238" stroke-miterlimit="10"/>
<path d="M286.276 199.653H319.06" stroke="#263238" stroke-miterlimit="10"/>
<path d="M248.167 199.653H280.544" stroke="#263238" stroke-miterlimit="10"/>
<path d="M221.947 199.653H244.487" stroke="#263238" stroke-miterlimit="10"/>
<path d="M194.904 199.653H217.851" stroke="#263238" stroke-miterlimit="10"/>
<path d="M178.097 199.653H192.445" stroke="#263238" stroke-miterlimit="10"/>
<path d="M330.126 209.083H342.414" stroke="#263238" stroke-miterlimit="10"/>
<path d="M288.328 209.083H326.03" stroke="#263238" stroke-miterlimit="10"/>
<path d="M255.137 209.083H283.41" stroke="#263238" stroke-miterlimit="10"/>
<path d="M233.42 209.083H250.626" stroke="#263238" stroke-miterlimit="10"/>
<path d="M198.593 209.083H227.272" stroke="#263238" stroke-miterlimit="10"/>
<path d="M176.053 209.083H195.718" stroke="#263238" stroke-miterlimit="10"/>
<path d="M304.347 216.062V216.121C300.121 216.474 296.115 218.15 292.898 220.912C289.681 223.674 287.417 227.38 286.429 231.504L270.834 296.164H82.2302L97.8165 231.504C98.8625 227.165 101.318 223.295 104.798 220.501C108.278 217.707 112.587 216.146 117.049 216.062H304.347Z" fill="white" stroke="#263238" stroke-linecap="round" stroke-linejoin="round"/>
<path d="M333.323 236.812H285.148L286.429 231.504C287.425 227.385 289.691 223.683 292.907 220.923C296.122 218.162 300.124 216.482 304.347 216.121C304.898 216.079 305.449 216.053 306 216.053C313.632 216.053 321.476 220.234 324.436 227.984C326.522 233.463 329.804 236.151 333.323 236.812Z" fill="#263238" stroke="#263238" stroke-linecap="round" stroke-linejoin="round"/>
<path d="M274.336 231.283C274.336 231.911 272.801 232.377 272.691 232.979C272.581 233.581 273.827 234.582 273.607 235.15C273.386 235.718 271.784 235.617 271.47 236.151C271.156 236.685 272.004 238.025 271.606 238.5C271.207 238.975 269.732 238.381 269.265 238.797C268.799 239.212 269.265 240.738 268.756 241.095C268.248 241.451 266.959 240.501 266.416 240.789C265.873 241.078 265.958 242.68 265.381 242.909C264.805 243.138 263.753 241.943 263.16 242.112C262.566 242.282 262.312 243.868 261.718 243.978C261.124 244.088 260.31 242.706 259.691 242.765C259.072 242.824 258.546 244.325 257.927 244.325C257.308 244.325 256.757 242.816 256.155 242.765C255.553 242.714 254.73 244.088 254.137 243.978C253.543 243.868 253.289 242.282 252.687 242.112C252.085 241.943 251.033 243.138 250.473 242.909C249.914 242.68 249.965 241.078 249.439 240.789C248.913 240.501 247.59 241.442 247.098 241.095C246.607 240.747 247.031 239.195 246.581 238.797C246.132 238.398 244.631 238.958 244.241 238.5C243.851 238.042 244.69 236.668 244.385 236.142C244.08 235.617 242.468 235.718 242.248 235.15C242.027 234.582 243.274 233.581 243.155 232.979C243.036 232.377 241.519 231.919 241.519 231.283C241.519 230.647 243.045 230.198 243.155 229.587C243.265 228.977 242.027 227.993 242.248 227.416C242.468 226.84 244.063 226.958 244.385 226.424C244.707 225.89 243.842 224.55 244.241 224.075C244.639 223.6 246.123 224.194 246.581 223.778C247.039 223.363 246.581 221.836 247.098 221.48C247.616 221.124 248.888 222.074 249.439 221.777C249.99 221.48 249.897 219.895 250.473 219.657C251.05 219.42 252.093 220.632 252.687 220.463C253.28 220.293 253.535 218.707 254.137 218.597C254.739 218.487 255.536 219.869 256.155 219.81C256.774 219.75 257.3 218.241 257.927 218.241C258.555 218.241 259.089 219.75 259.691 219.81C260.293 219.869 261.124 218.478 261.718 218.597C262.312 218.716 262.566 220.293 263.16 220.463C263.753 220.632 264.855 219.437 265.381 219.657C265.907 219.878 265.882 221.497 266.416 221.777C266.95 222.057 268.256 221.133 268.756 221.48C269.257 221.828 268.824 223.371 269.265 223.778C269.706 224.185 271.224 223.609 271.606 224.075C271.987 224.542 271.156 225.907 271.47 226.424C271.784 226.941 273.386 226.857 273.607 227.425C273.827 227.993 272.572 228.985 272.691 229.587C272.81 230.189 274.336 230.664 274.336 231.283Z" fill="#2B786C"/>
<path d="M257.927 241.052C264.807 241.052 270.384 236.678 270.384 231.283C270.384 225.888 264.807 221.514 257.927 221.514C251.047 221.514 245.47 225.888 245.47 231.283C245.47 236.678 251.047 241.052 257.927 241.052Z" fill="white"/>
<path d="M257.927 239.195C263.496 239.195 268.01 235.653 268.01 231.283C268.01 226.914 263.496 223.371 257.927 223.371C252.359 223.371 247.845 226.914 247.845 231.283C247.845 235.653 252.359 239.195 257.927 239.195Z" fill="#2B786C"/>
<path d="M265.025 278.89H183.125" stroke="#263238" stroke-linecap="round" stroke-linejoin="round"/>
<path d="M157.075 278.89H98.3931" stroke="#263238" stroke-linecap="round" stroke-linejoin="round"/>
<path d="M200.891 277.16C200.891 277.16 216.35 260.039 220.76 243.24C225.169 226.441 214.323 235.549 209.99 254.179C205.657 272.81 205.657 277.584 209.99 274.116C213.466 271.132 216.466 267.635 218.885 263.745C219.496 262.778 220.005 261.879 220.395 261.116C222.091 257.647 216.494 259.818 215.188 266.747C213.882 273.675 221.692 263.719 223.855 260.251C226.017 256.783 230.359 255.053 226.891 264.152C223.422 273.251 218.224 271.512 222.99 265.449C227.756 259.386 232.962 246.793 233.395 253.747C233.827 260.7 232.089 268.468 228.612 270.656C225.135 272.844 235.108 260.692 238.144 261.557C241.179 262.422 242.477 265.89 239.441 268.493C236.405 271.097 236.405 262.422 259.377 263.287" stroke="#263238" stroke-linecap="round" stroke-linejoin="round"/>
<path d="M255.629 253.246L268.349 263.422C268.488 263.536 268.584 263.694 268.621 263.869C268.658 264.045 268.634 264.228 268.553 264.388C268.472 264.548 268.338 264.676 268.175 264.75C268.012 264.824 267.828 264.84 267.654 264.796L251.542 260.615L255.629 253.246Z" fill="white" stroke="#263238" stroke-linecap="round" stroke-linejoin="round"/>
<path d="M253.569 249.286L179.25 205.283L170.948 219.411L247.895 261.09C248.086 261.224 248.29 261.335 248.506 261.421C251.05 262.49 254.264 260.641 255.663 257.283C257.062 253.925 256.121 250.346 253.569 249.286Z" fill="#8C8C8C" stroke="#263238" stroke-linecap="round" stroke-linejoin="round"/>
<path d="M181.209 214.298C179.038 219.496 174.069 222.371 170.108 220.717C169.728 220.555 169.365 220.356 169.023 220.124L92.8472 177.673L86.6398 174.204L85.8766 173.789L86.0717 173.322L94.8061 152.411L95.1792 151.563L96.1883 152.173L104.889 157.473L177.969 201.925C181.972 203.545 183.38 209.108 181.209 214.298Z" fill="white" stroke="#263238" stroke-linecap="round" stroke-linejoin="round"/>
<path d="M177.24 201.476L104.889 157.465L96.1883 152.165L95.1792 151.554L94.8061 152.402L86.0717 173.314L85.8766 173.78L86.6398 174.196L92.8472 177.664L167.276 219.14C171.245 220.319 175.96 217.444 178.08 212.356C179.776 208.26 179.326 204.02 177.24 201.476Z" fill="#8C8C8C" stroke="#263238" stroke-linecap="round" stroke-linejoin="round"/>
<path d="M92.8472 177.673C97.367 177.859 102.175 174.348 104.533 168.752C106.142 165.173 106.27 161.103 104.889 157.431L96.1883 152.131C95.7214 152.191 95.2594 152.284 94.8061 152.411C91.219 153.42 87.7931 156.549 85.9445 160.984C84.0958 165.419 84.2485 170.066 86.0717 173.322C86.2405 173.618 86.4304 173.902 86.6398 174.17" fill="white"/>
<path d="M92.8472 177.673C97.367 177.859 102.175 174.348 104.533 168.752C106.142 165.173 106.27 161.103 104.889 157.431L96.1883 152.131C95.7214 152.191 95.2594 152.284 94.8061 152.411C91.219 153.42 87.7931 156.549 85.9445 160.984C84.0958 165.419 84.2485 170.066 86.0717 173.322C86.2405 173.618 86.4304 173.902 86.6398 174.17" stroke="#263238" stroke-linecap="round" stroke-linejoin="round"/>
<path d="M99.6312 164.859L156.142 201.637C156.485 201.868 156.732 202.215 156.836 202.615C156.941 203.015 156.896 203.439 156.71 203.808C156.602 204.006 156.456 204.181 156.279 204.322C156.103 204.463 155.9 204.567 155.683 204.629C155.466 204.691 155.239 204.708 155.015 204.681C154.79 204.653 154.574 204.582 154.378 204.469L96.2477 170.1L99.6312 164.859Z" fill="white" stroke="#263238" stroke-linecap="round" stroke-linejoin="round"/>
<path d="M99.0121 166.199C96.4681 172.347 90.5321 175.748 85.8766 173.789C81.2211 171.83 79.4827 165.258 82.0437 159.076C84.6046 152.894 90.5237 149.527 95.1792 151.486C99.8347 153.445 101.582 160.051 99.0121 166.199Z" fill="#8C8C8C" stroke="#263238" stroke-linecap="round" stroke-linejoin="round"/>
<path d="M97.172 165.436C95.1622 170.253 90.5491 172.924 86.8773 171.372C83.2054 169.82 70.5787 157.745 72.58 152.928C74.5813 148.111 90.4898 152.385 94.1616 153.92C97.8334 155.455 99.1987 160.611 97.172 165.436Z" fill="white" stroke="#263238" stroke-linecap="round" stroke-linejoin="round"/>
<path d="M216.172 245.385L220.759 243.248C221.804 243.202 222.831 243.526 223.66 244.164C225.033 245.233 227.628 246.912 227.628 246.912C227.628 246.912 232.818 247.217 232.971 247.98C233.123 248.743 229.918 249.676 229.46 249.676H226.068C226.068 249.676 230.8 252.127 231.258 252.432C231.716 252.738 238.288 254.722 237.372 255.332C236.456 255.943 230.342 255.79 228.968 256.096C227.605 256.305 226.226 256.407 224.847 256.401L219.657 251.669L215.985 247.692C215.985 247.692 214.798 246.301 216.172 245.385Z" fill="white" stroke="#263238" stroke-linecap="round" stroke-linejoin="round"/>
<path d="M101.022 190.562C101.022 190.562 100.717 186.432 100.717 184.448C100.717 182.464 99.6481 178.648 99.1902 178.343C98.7323 178.037 94.0005 176.206 92.6267 174.951C91.2529 173.695 89.5654 175.408 90.176 176.477C90.7865 177.545 94.3057 179.53 94.3057 179.53L93.3899 180.903L89.9979 178.003C89.9979 178.003 86.4872 172.508 85.5713 172.966C84.6555 173.424 84.9608 174.187 85.5713 175.256C86.1819 176.324 85.8766 183.193 87.5557 184.584C89.2347 185.975 94.2803 187.645 94.2803 187.645L94.7382 191.461C94.7382 191.461 99.4701 191.766 100.081 191.919C100.691 192.072 101.022 190.562 101.022 190.562Z" fill="white" stroke="#263238" stroke-linecap="round" stroke-linejoin="round"/>
<path d="M90.9392 196.388L91.5497 192.267C91.5497 192.267 91.3971 190.893 94.9417 190.282C96.9728 189.905 99.0641 190.009 101.047 190.588C101.264 190.673 101.452 190.819 101.587 191.009C101.723 191.198 101.8 191.423 101.811 191.656C101.783 193.142 101.63 194.623 101.353 196.083C101.353 196.083 95.8321 193.92 90.9392 196.388Z" fill="white" stroke="#263238" stroke-linecap="round" stroke-linejoin="round"/>
<path d="M152.199 399.06V410.084C152.199 410.084 154.743 411.365 162.163 411.365C168.806 411.218 175.373 409.921 181.573 407.532C185.143 406.005 186.424 402.681 185.144 402.172C183.863 401.663 177.511 401.4 176.206 400.383C174.9 399.365 169.566 396.041 169.566 396.041C169.566 396.041 156.795 399.832 152.199 399.06Z" fill="#2B786C" stroke="#263238" stroke-linecap="round" stroke-linejoin="round"/>
<path d="M185.61 403.139C180.246 405.655 174.525 407.325 168.65 408.091C159.831 409.228 154.395 408.252 152.182 407.676V410.084C152.182 410.084 154.726 411.365 162.146 411.365C168.789 411.218 175.356 409.921 181.556 407.532C184.134 406.395 185.508 404.377 185.61 403.139Z" fill="white" stroke="#263238" stroke-linecap="round" stroke-linejoin="round"/>
<path d="M156.032 293.594L157.312 297.173C157.312 297.173 162.671 307.349 166.504 314.794C170.337 322.24 174.416 338.029 175.697 339.564C176.977 341.099 176.714 343.134 175.951 345.432C175.188 347.73 169.057 387.832 169.057 388.85C169.057 389.868 168.548 389.868 169.311 391.148C170.075 392.429 170.337 396.507 170.337 396.507C168.656 398.134 166.516 399.205 164.206 399.577C160.119 400.34 152.199 400.34 152.199 400.34C152.199 400.34 151.181 395.49 151.436 394.727C151.69 393.963 152.462 389.104 152.462 389.104C152.462 389.104 155.006 376.588 154.497 370.211C153.988 363.834 155.268 349.52 155.777 347.993C156.131 346.321 156.301 344.615 156.286 342.905L154.76 340.098V338.004C154.76 338.004 142.498 325.487 137.647 320.637C132.796 315.786 127.946 309.91 127.946 309.91C127.946 309.91 122.324 334.943 120.789 340.302C119.254 345.661 118.491 347.934 117.473 349.494C116.455 351.055 105.983 364.818 102.15 370.44C98.3168 376.062 92.4486 386.018 92.4486 386.018C92.4333 387.469 92.5183 388.92 92.703 390.359C92.9574 391.377 90.159 395.21 90.159 395.21L89.1329 396.228C89.1329 396.228 83.0019 390.097 80.7038 389.588C78.4057 389.079 73.5552 389.842 73.5552 389.842C73.5552 389.842 76.6249 381.422 77.3881 379.666C78.1513 377.911 85.3 359.747 87.3437 356.168C89.3873 352.59 90.9222 345.441 94.5008 342.6C98.0793 339.759 102.133 336.469 102.133 336.469L101.624 307.874L101.115 299.954C100.614 297.949 100.355 295.89 100.343 293.823V288.735C100.343 288.735 123.587 294.094 135.112 293.586C146.636 293.077 153.496 290.016 153.496 290.016L156.032 293.594Z" fill="#263238" stroke="#263238" stroke-linecap="round" stroke-linejoin="round"/>
<path d="M162.417 213.772C162.417 213.772 149.129 207.972 142.108 207.972C135.086 207.972 131.262 208.124 123.774 208.43C116.286 208.735 111.902 211.024 111.902 211.024L100.878 214.688L101.785 194.692C99.5501 194.076 97.2133 193.92 94.9163 194.234C92.9746 194.595 91.1951 195.556 89.8283 196.982C89.8283 196.982 85.707 224.168 85.8597 226.611C86.0123 229.053 89.2517 229.511 89.2517 229.511L114.149 229.053L112.317 256.85L93.6613 289.227C93.6613 289.227 93.8139 294.264 109.086 299.31C124.359 304.355 143.142 302.702 148.942 301.141C154.743 299.581 164.028 292.746 164.792 291.678C165.555 290.609 164.792 285.106 164.792 282.816C164.792 280.526 160.976 258.835 161.586 257.766C162.197 256.698 165.555 242.341 165.555 242.341C165.555 242.341 196.558 262.498 198.389 262.193C200.221 261.887 218.852 252.729 219.318 252.424C219.784 252.118 221.014 250.439 219.165 247.683C218.484 246.733 217.596 245.951 216.567 245.395C215.539 244.84 214.397 244.526 213.229 244.478C212.313 244.478 199.788 245.546 199.788 245.546C199.788 245.546 184.1 231.639 183.668 230.876C183.236 230.113 180.768 223.702 179.699 222.023C178.631 220.344 162.417 213.772 162.417 213.772Z" fill="#2B786C" stroke="#263238" stroke-linecap="round" stroke-linejoin="round"/>
<path d="M199.831 245.572C199.831 245.572 204.851 248.43 205.852 250.185L199.831 245.572Z" fill="#2B786C"/>
<path d="M199.831 245.572C199.831 245.572 204.851 248.43 205.852 250.185" stroke="#263238" stroke-linecap="round" stroke-linejoin="round"/>
<path d="M179.674 222.023C179.674 222.023 175.086 222.388 170.346 227.391L179.674 222.023Z" fill="#2B786C"/>
<path d="M179.674 222.023C179.674 222.023 175.086 222.388 170.346 227.391" stroke="#263238" stroke-linecap="round" stroke-linejoin="round"/>
<path d="M169.337 224.143C167.952 224.917 166.761 225.994 165.852 227.294C164.943 228.594 164.34 230.082 164.088 231.648" fill="#2B786C"/>
<path d="M169.337 224.143C167.952 224.917 166.761 225.994 165.852 227.294C164.943 228.594 164.34 230.082 164.088 231.648" stroke="#263238" stroke-linecap="round" stroke-linejoin="round"/>
<path d="M114.157 229.045L113.7 217.588L114.157 229.045Z" stroke="#263238" stroke-linecap="round" stroke-linejoin="round"/>
<path d="M158.389 247.243L165.623 242.333L153.861 245.996" stroke="#263238" stroke-linecap="round" stroke-linejoin="round"/>
<path d="M153.25 250.736L155.752 249.04" stroke="#263238" stroke-linecap="round" stroke-linejoin="round"/>
<path d="M152.538 215.51C149.714 216.521 147.107 218.058 144.855 220.039C138.919 225.381 135.688 224.923 135.688 224.923" stroke="#263238" stroke-linecap="round" stroke-linejoin="round"/>
<path d="M158.448 214.077C157.54 214.172 156.639 214.328 155.752 214.544" stroke="#263238" stroke-linecap="round" stroke-linejoin="round"/>
<path d="M143.939 217.893C143.939 217.893 139.046 222.481 133.856 224.618" stroke="#263238" stroke-linecap="round" stroke-linejoin="round"/>
<path d="M90.1506 217.452C89.6501 218.054 89.3533 218.8 89.3026 219.581" stroke="#263238" stroke-linecap="round" stroke-linejoin="round"/>
<path d="M100.869 214.688L98.7323 214.84C98.7323 214.84 95.9848 213.619 94.611 213.772C93.6463 214.085 92.7729 214.63 92.067 215.358" stroke="#263238" stroke-linecap="round" stroke-linejoin="round"/>
<path d="M91.5497 214.077C91.5497 214.077 88.8022 215.146 88.3443 217.588" stroke="#263238" stroke-linecap="round" stroke-linejoin="round"/>
<path d="M161.62 257.758C161.62 257.758 159.458 272.428 158.491 276.956C157.524 281.485 156.227 292.636 156.227 292.636C157.844 292.021 159.525 291.588 161.238 291.347C163.782 291.025 164.791 291.669 164.791 291.669C164.791 291.669 166.733 286.98 164.791 278.89C162.85 270.8 161.62 257.758 161.62 257.758Z" fill="#2B786C" stroke="#263238" stroke-linecap="round" stroke-linejoin="round"/>
<path d="M89.1242 396.253C89.1242 396.253 90.1503 401.104 91.1679 401.621C92.1855 402.138 97.0445 403.147 97.5533 404.428C98.0621 405.708 92.9571 407.998 89.633 408.515C86.3088 409.032 80.4407 407.744 79.6775 407.235C78.9143 406.726 77.1335 404.173 74.8269 403.402C72.5203 402.63 69.7389 401.621 70.2307 398.551C70.7226 395.481 73.5464 389.868 73.5464 389.868C76.9732 388.819 80.6474 388.908 84.0192 390.122C89.633 392.166 89.1242 396.253 89.1242 396.253Z" fill="#2B786C" stroke="#263238" stroke-linecap="round" stroke-linejoin="round"/>
<path d="M89.6333 408.515C92.9574 407.998 98.0624 405.7 97.5536 404.428C97.4998 404.311 97.4251 404.204 97.3331 404.114C94.8485 404.962 91.7957 405.428 88.9888 403.877C85.5459 401.96 84.3926 397.746 79.7965 396.245C77.1253 395.354 73.5467 395.507 71.0197 395.778C70.6784 396.69 70.4146 397.629 70.231 398.585C69.7138 401.655 72.5291 402.672 74.8272 403.436C77.1253 404.199 78.9146 406.76 79.6778 407.269C80.441 407.777 86.3176 409.024 89.6333 408.515Z" fill="white" stroke="#263238" stroke-linecap="round" stroke-linejoin="round"/>
<path d="M88.1069 406.692C85.2915 405.412 82.739 402.096 78.6517 399.543C74.9205 397.203 71.0197 399.772 70.3328 400.23C70.9179 402.011 73.021 402.774 74.8272 403.368C77.1253 404.14 78.9146 406.692 79.6778 407.201C80.441 407.71 86.3176 408.99 89.6333 408.481C90.3091 408.37 90.9775 408.217 91.6346 408.023C90.4344 407.647 89.2566 407.202 88.1069 406.692Z" fill="#263238" stroke="#263238" stroke-linecap="round" stroke-linejoin="round"/>
<path d="M165.012 209.651L160.433 212.856C160.433 212.856 154.497 208.887 150.35 208.124C146.203 207.361 144.092 207.208 144.092 207.208L147.297 201.552C149.641 199.864 151.444 197.53 152.487 194.836C153.861 190.715 155.235 189.036 158.296 190.596C161.357 192.156 162.536 198.228 162.536 202.044C162.536 205.86 165.012 209.651 165.012 209.651Z" fill="white" stroke="#263238" stroke-linecap="round" stroke-linejoin="round"/>
<path d="M167.607 181.548C167.607 181.548 170.202 185.364 170.507 186.746C170.812 188.128 169.439 190.867 169.439 190.867C169.439 190.867 172.5 195.294 172.652 196.362C172.805 197.431 170.812 199.415 170.812 199.415C170.812 199.415 171.27 203.85 171.889 204.919C172.508 205.987 173.11 207.514 172.347 208.887C171.584 210.261 170.507 211.177 167.259 211.635C164.011 212.093 161.459 210.566 160.848 207.395C160.238 204.223 160.238 197.312 159.78 196.371C159.322 195.43 157.185 193.318 156.116 194.997C155.048 196.676 155.811 198.389 156.574 199.882C157.042 200.803 157.79 201.551 158.711 202.019L155.319 203.715C153.29 204.592 151.012 204.7 148.908 204.02C148.159 203.735 147.473 203.305 146.89 202.753C146.308 202.201 145.841 201.539 145.516 200.806C145.364 200.348 143.82 196.566 143.38 195.769C142.939 194.972 139.708 190.426 139.555 185.076C139.402 179.725 145.822 173.628 154.064 171.949C162.307 170.27 166.131 173.933 167.963 174.086C169.795 174.238 167.963 172.559 169.489 173.628C171.016 174.696 171.423 180.632 167.607 181.548Z" fill="white" stroke="#263238" stroke-linecap="round" stroke-linejoin="round"/>
<path d="M170.812 199.415C170.812 199.415 170.982 199.246 171.219 198.983C170.6 199.068 168.743 199.322 167.607 199.568C166.233 199.873 165.623 204.003 164.401 202.96C163.18 201.917 162.57 192.877 162.264 192.419C161.959 191.961 163.316 190.452 163.316 190.452C163.316 190.452 165.453 187.552 165.453 186.322C165.453 185.093 163.316 183.727 164.079 183.422C164.842 183.117 167.59 181.59 167.59 181.59C171.406 180.675 171.101 174.722 169.574 173.653C168.048 172.585 169.88 174.264 168.048 174.111C166.216 173.958 162.4 170.287 154.149 171.974C145.898 173.662 139.487 179.759 139.64 185.101C139.792 190.443 143.032 195.031 143.464 195.794C143.897 196.558 145.449 200.374 145.601 200.831C145.926 201.565 146.393 202.227 146.975 202.778C147.557 203.33 148.243 203.761 148.993 204.045C151.096 204.726 153.375 204.617 155.404 203.74L158.796 202.044C157.875 201.577 157.127 200.828 156.659 199.907C155.896 198.381 155.124 196.702 156.201 195.023C157.278 193.344 159.407 195.481 159.865 196.396C160.323 197.312 160.323 204.19 160.933 207.42C161.544 210.651 164.139 212.152 167.344 211.66C170.549 211.169 171.584 210.287 172.432 208.913C173.28 207.539 172.585 206.013 171.974 204.944C171.364 203.876 170.812 199.415 170.812 199.415Z" fill="#263238" stroke="#263238" stroke-linecap="round" stroke-linejoin="round"/>
<path d="M170.049 188.12C169.637 188.117 169.233 188.23 168.882 188.446C168.531 188.662 168.248 188.972 168.065 189.341" stroke="#263238" stroke-linecap="round" stroke-linejoin="round"/>
<path d="M168.828 193.31C169.165 193.31 169.439 192.558 169.439 191.631C169.439 190.703 169.165 189.952 168.828 189.952C168.491 189.952 168.217 190.703 168.217 191.631C168.217 192.558 168.491 193.31 168.828 193.31Z" fill="#263238"/>
<path d="M171.118 203.24C171.118 203.24 168.523 204.156 167.454 202.316" stroke="white" stroke-linecap="round" stroke-linejoin="round"/>
<path d="M142.116 207.972C149.137 207.972 162.426 213.772 162.426 213.772L162.934 213.984C162.799 213.297 162.509 212.651 162.086 212.093C161.628 211.788 159.186 208.277 154.599 206.445C151.594 205.202 148.385 204.53 145.135 204.461C144.058 204.461 140.98 207.293 140.25 207.972H142.116Z" fill="#2B786C" stroke="#263238" stroke-linecap="round" stroke-linejoin="round"/>
</svg>
