<svg width="400" height="400" viewBox="0 0 400 400" fill="none" xmlns="http://www.w3.org/2000/svg">
<path d="M400 305.92H0V306.12H400V305.92Z" fill="#EBEBEB"/>
<path d="M68.464 313.536H41.968V313.736H68.464V313.536Z" fill="#EBEBEB"/>
<path d="M181.248 311.368H136.912V311.568H181.248V311.368Z" fill="#EBEBEB"/>
<path d="M88.1521 318.288H72.8V318.488H88.1521V318.288Z" fill="#EBEBEB"/>
<path d="M342.92 313.44H308.368V313.64H342.92V313.44Z" fill="#EBEBEB"/>
<path d="M355.112 313.44H350.048V313.64H355.112V313.44Z" fill="#EBEBEB"/>
<path d="M259.24 316.248H221.768V316.448H259.24V316.248Z" fill="#EBEBEB"/>
<path d="M189.6 270.24H35.128C33.9179 270.238 32.758 269.756 31.9031 268.899C31.0482 268.043 30.568 266.882 30.568 265.672V48.528C30.5785 47.3248 31.0633 46.1744 31.9171 45.3266C32.7709 44.4788 33.9248 44.0021 35.128 44H189.6C190.811 44 191.973 44.4813 192.83 45.3379C193.687 46.1946 194.168 47.3565 194.168 48.568V265.672C194.168 266.884 193.687 268.045 192.83 268.902C191.973 269.759 190.811 270.24 189.6 270.24ZM35.128 44.16C33.9709 44.1621 32.862 44.6233 32.0445 45.4422C31.2271 46.2611 30.768 47.3709 30.768 48.528V265.672C30.768 266.829 31.2271 267.939 32.0445 268.758C32.862 269.577 33.9709 270.038 35.128 270.04H189.6C190.758 270.038 191.868 269.577 192.686 268.758C193.505 267.94 193.966 266.83 193.968 265.672V48.528C193.966 47.3702 193.505 46.2604 192.686 45.4417C191.868 44.623 190.758 44.1621 189.6 44.16H35.128Z" fill="#EBEBEB"/>
<path d="M362.648 270.24H208.168C206.957 270.238 205.796 269.756 204.94 268.9C204.084 268.044 203.602 266.883 203.6 265.672V48.528C203.613 47.3241 204.099 46.1737 204.954 45.3261C205.809 44.4785 206.964 44.002 208.168 44H362.648C363.85 44.0042 365.002 44.4818 365.854 45.3294C366.706 46.177 367.189 47.3262 367.2 48.528V265.672C367.2 266.881 366.721 268.04 365.868 268.896C365.014 269.753 363.857 270.236 362.648 270.24ZM208.168 44.16C207.01 44.1621 205.9 44.623 205.082 45.4417C204.263 46.2604 203.802 47.3702 203.8 48.528V265.672C203.802 266.83 204.263 267.94 205.082 268.758C205.9 269.577 207.01 270.038 208.168 270.04H362.648C363.806 270.038 364.916 269.577 365.734 268.758C366.553 267.94 367.014 266.83 367.016 265.672V48.528C367.014 47.3702 366.553 46.2604 365.734 45.4417C364.916 44.623 363.806 44.1621 362.648 44.16H208.168Z" fill="#EBEBEB"/>
<path d="M238.272 59.512H83.824V170.384H238.272V59.512Z" fill="#FAFAFA"/>
<path d="M229.48 170.392L190.2 59.512H160.72L200 170.392H229.48Z" fill="white"/>
<path d="M150.208 170.392L110.928 59.512H100.176L139.456 170.392H150.208Z" fill="white"/>
<path d="M76.464 55.704H245.64C245.73 55.704 245.819 55.7219 245.902 55.7565C245.985 55.7912 246.06 55.842 246.124 55.906C246.187 55.97 246.237 56.0459 246.271 56.1293C246.304 56.2128 246.321 56.302 246.32 56.392C246.32 56.5724 246.248 56.7453 246.121 56.8728C245.993 57.0004 245.82 57.072 245.64 57.072H76.464C76.2829 57.072 76.1091 57.0006 75.9803 56.8733C75.8515 56.746 75.7781 56.5731 75.776 56.392C75.776 56.2095 75.8485 56.0345 75.9775 55.9055C76.1065 55.7765 76.2815 55.704 76.464 55.704Z" fill="#E0E0E0"/>
<path d="M161.968 59.28H160.136V170.632H161.968V59.28Z" fill="#F0F0F0"/>
<path d="M160.128 59.28H159.216V170.632H160.128V59.28Z" fill="#E0E0E0"/>
<path d="M82.76 114.032V115.864L239.344 115.864V114.032L82.76 114.032Z" fill="#F0F0F0"/>
<path d="M82.76 169.6V58.4H239.336V169.6V171.432H82.76V169.6ZM237.512 169.6V60.28H84.592V169.6H237.512Z" fill="#F0F0F0"/>
<path d="M82.752 58.448H81.84V171.456H82.752V58.448Z" fill="#E0E0E0"/>
<path opacity="0.5" d="M105.464 54.024V184.232H72.408L78.472 54.024H105.464Z" fill="#EBEBEB"/>
<path opacity="0.5" d="M215.72 54.024V184.232H248.776L242.712 54.024H215.72Z" fill="#EBEBEB"/>
<path d="M62.144 199.832H49.536V302.096H62.144V199.832Z" fill="#F0F0F0"/>
<path d="M190.864 302.096H51.96V305.92H190.864V302.096Z" fill="#F0F0F0"/>
<path d="M62.1519 302.096H193.288V199.832H62.1519V302.096Z" fill="#F5F5F5"/>
<path d="M60.84 196.496H47.952V199.832H60.84V196.496Z" fill="#F0F0F0"/>
<path d="M60.832 199.832L194.864 199.832V196.496L60.832 196.496V199.832Z" fill="#FAFAFA"/>
<path d="M188.752 257.384H66.6801V206.832H188.752V257.384ZM67.5281 256.536H187.904V207.68H67.5281V256.536Z" fill="#E0E0E0"/>
<path d="M188.752 295.088H66.6801V262.44H188.752V295.088ZM67.5281 294.24H187.904V263.288H67.5281V294.24Z" fill="#E0E0E0"/>
<path d="M171.184 207.256H84.248C83.6295 207.256 83.1281 207.757 83.1281 208.376V208.848C83.1281 209.467 83.6295 209.968 84.248 209.968H171.184C171.803 209.968 172.304 209.467 172.304 208.848V208.376C172.304 207.757 171.803 207.256 171.184 207.256Z" fill="#E0E0E0"/>
<path d="M171.184 262.864H84.248C83.6295 262.864 83.1281 263.365 83.1281 263.984V264.456C83.1281 265.075 83.6295 265.576 84.248 265.576H171.184C171.803 265.576 172.304 265.075 172.304 264.456V263.984C172.304 263.365 171.803 262.864 171.184 262.864Z" fill="#E0E0E0"/>
<path d="M278.288 301.008H351.632V77.232H278.288V301.008Z" fill="#F0F0F0"/>
<path d="M278.288 77.24H275.96V301.016H278.288V77.24Z" fill="#E0E0E0"/>
<path d="M290.192 292.472H339.736V85.768H290.192V292.472Z" fill="#FAFAFA"/>
<path d="M200 342.048C285.666 342.048 355.112 337.994 355.112 332.992C355.112 327.991 285.666 323.936 200 323.936C114.334 323.936 44.8879 327.991 44.8879 332.992C44.8879 337.994 114.334 342.048 200 342.048Z" fill="#F5F5F5"/>
<path d="M114.688 326.024L120.952 323.648L117.112 308.512L110.848 310.888L114.688 326.024Z" fill="#B55B52"/>
<path d="M67.624 326.152H74.32L75.328 310.632H68.624L67.624 326.152Z" fill="#B55B52"/>
<path d="M74.9921 325.376H66.8241C66.6929 325.374 66.5653 325.419 66.4641 325.502C66.363 325.586 66.2949 325.703 66.2721 325.832L65.2481 331.784C65.2275 331.933 65.239 332.084 65.2819 332.228C65.3247 332.371 65.3979 332.504 65.4965 332.617C65.5951 332.73 65.7167 332.821 65.8533 332.882C65.9899 332.944 66.1381 332.976 66.2881 332.976C68.9121 332.928 70.8241 332.776 74.1361 332.776C76.1681 332.776 82.3201 332.992 85.1361 332.992C87.9521 332.992 88.1761 330.208 87.0081 329.952C81.7921 328.824 77.8241 327.272 76.0961 325.784C75.7879 325.522 75.3968 325.377 74.9921 325.376Z" fill="#263238"/>
<path d="M120.632 322.944L113.792 325.536C113.667 325.584 113.562 325.672 113.494 325.787C113.426 325.901 113.398 326.036 113.416 326.168L114.296 332.2C114.311 332.349 114.361 332.492 114.441 332.618C114.521 332.745 114.629 332.851 114.757 332.928C114.885 333.006 115.029 333.052 115.178 333.065C115.327 333.077 115.477 333.055 115.616 333C118.064 332.024 120.152 330.784 123.272 329.664C126.836 328.505 130.265 326.963 133.496 325.064C135.816 323.592 134.84 320.792 133.744 321.232C128.768 323.232 127.544 323.888 122.32 322.88C121.762 322.744 121.178 322.767 120.632 322.944Z" fill="#263238"/>
<path d="M102.96 121.992C105.064 125.72 107.288 129.56 109.528 133.272C111.768 136.984 114.064 140.696 116.504 144.152C117.088 145.024 117.744 145.864 118.336 146.672C118.467 146.907 118.644 147.114 118.856 147.28C119.231 147.472 119.657 147.539 120.072 147.472C120.837 147.394 121.587 147.214 122.304 146.936C124.119 146.224 125.852 145.317 127.472 144.232C128.336 143.664 129.216 143.08 130.072 142.456C130.928 141.832 131.792 141.16 132.576 140.56L136.328 143.904C135.644 144.893 134.909 145.846 134.128 146.76C133.373 147.682 132.572 148.566 131.728 149.408C130.863 150.28 129.946 151.1 128.984 151.864C127.981 152.684 126.911 153.417 125.784 154.056C124.512 154.793 123.145 155.35 121.72 155.712C119.949 156.169 118.091 156.169 116.32 155.712C114.406 155.179 112.69 154.097 111.384 152.6C110.584 151.672 109.784 150.8 109.064 149.88C106.167 146.286 103.472 142.533 100.992 138.64C98.5121 134.784 96.1921 130.92 94.0641 126.808L102.96 121.992Z" fill="#B65B52"/>
<path d="M91.072 122.304C89.272 128.448 101.984 145.2 101.984 145.2L114.784 136.952C112.37 131.624 109.39 126.571 105.896 121.88C100.672 115.2 93.056 115.56 91.072 122.304Z" fill="#2B786C"/>
<path opacity="0.2" d="M91.072 122.304C89.272 128.448 101.984 145.2 101.984 145.2L114.784 136.952C112.37 131.624 109.39 126.571 105.896 121.88C100.672 115.2 93.056 115.56 91.072 122.304Z" fill="black"/>
<path opacity="0.2" d="M98.8881 129.512C101.528 130.64 105.408 136.992 107.432 141.704L101.984 145.2C98.9471 141.141 96.2144 136.862 93.8081 132.4C95.5281 130.488 97.4961 128.92 98.8881 129.512Z" fill="black"/>
<path d="M131.784 142.648L134.136 136.064L140.8 139.264C140.8 139.264 139.416 145.128 134.536 145.12L131.784 142.648Z" fill="#B55B52"/>
<path d="M140.064 131.736L142.888 134.848L140.8 139.248L134.136 136.064L140.064 131.736Z" fill="#B55B52"/>
<path opacity="0.2" d="M117.112 308.52L119.088 316.32L112.824 318.696L110.848 310.896L117.112 308.52Z" fill="black"/>
<path opacity="0.2" d="M68.624 310.64H75.328L74.808 318.632H68.104L68.624 310.64Z" fill="black"/>
<path d="M61.2161 119.584C68.4161 145.032 67.2481 172.032 67.6961 177.52L103.504 176.176C109.592 138.24 98.7041 117.128 98.7041 117.128C98.7041 117.128 96.4081 116.688 93.2801 116.368C92.3041 116.264 91.2481 116.176 90.1441 116.12C89.5361 116.08 88.9201 116.064 88.2961 116.048C83.2118 116.134 78.1367 116.513 73.0961 117.184C72.1441 117.304 71.1761 117.44 70.2321 117.6C69.2881 117.76 68.5121 117.904 67.7041 118.064C64.0001 118.792 61.2161 119.584 61.2161 119.584Z" fill="#2B786C"/>
<path opacity="0.2" d="M61.2161 119.584C68.4161 145.032 67.2481 172.032 67.6961 177.52L103.504 176.176C109.592 138.24 98.7041 117.128 98.7041 117.128C98.7041 117.128 96.4081 116.688 93.2801 116.368C92.3041 116.264 91.2481 116.176 90.1441 116.12C89.5361 116.08 88.9201 116.064 88.2961 116.048C83.2118 116.134 78.1367 116.513 73.0961 117.184C72.1441 117.304 71.1761 117.44 70.2321 117.6C69.2881 117.76 68.5121 117.904 67.7041 118.064C64.0001 118.792 61.2161 119.584 61.2161 119.584Z" fill="black"/>
<path opacity="0.2" d="M68.8401 130.504C69.4801 132.96 68.7441 144.2 66.1761 146.968C65.8241 143.368 65.3761 139.616 64.7361 135.768L68.8401 130.504Z" fill="black"/>
<path d="M73.2961 100C74.6161 104.8 76.2401 113.696 73.0641 117.208C75.9201 119.656 79.6161 122.448 85.4321 122.216C91.2481 121.984 89.9441 118.072 88.2561 116.08C82.7041 115.184 82.5441 111.136 83.2161 107.28L73.2961 100Z" fill="#B55B52"/>
<path d="M85.5841 121.36L86.6401 122.072L82.7841 123.2L83.7761 121.408L85.5841 121.36Z" fill="#2B786C"/>
<path d="M87.04 120.984L86.64 122.072L90.512 123.2L90.248 121.128L87.04 120.984Z" fill="#2B786C"/>
<path d="M70.752 116.8L72.272 116.04C72.5151 115.918 72.787 115.866 73.058 115.888C73.329 115.911 73.5885 116.008 73.808 116.168C77.3242 118.719 81.3445 120.489 85.6 121.36C82.544 122.816 83.296 126.736 83.296 126.736C83.296 126.736 73.576 123.536 70.496 117.728C70.4088 117.571 70.3868 117.385 70.4347 117.212C70.4825 117.038 70.5965 116.89 70.752 116.8Z" fill="white"/>
<path d="M89.952 115.8L87.72 115.464C87.6624 115.455 87.6033 115.463 87.5502 115.487C87.4971 115.511 87.4524 115.551 87.4216 115.6C87.3908 115.65 87.3754 115.707 87.3773 115.766C87.3791 115.824 87.3982 115.88 87.432 115.928C88.232 117.04 89.512 119.48 87.04 120.984C90.096 122.44 91.04 126.016 91.04 126.016C91.04 126.016 95.04 121.72 90.384 116.048C90.2728 115.918 90.1203 115.831 89.952 115.8Z" fill="white"/>
<path opacity="0.2" d="M77.3361 102.928L83.2001 107.2C83.0305 108.102 82.9422 109.018 82.9361 109.936C80.8321 109.792 77.8001 107.72 77.4161 105.552C77.2339 104.689 77.2068 103.8 77.3361 102.928Z" fill="black"/>
<path d="M90.296 90.088C90.024 92.416 87.792 94.416 86.352 94.888L84.552 84.8C88.592 81.944 90.672 86.824 90.296 90.088Z" fill="#263238"/>
<path d="M71.2721 92.88C72.4401 99.424 72.7841 103.32 76.5041 106.32C82.1041 110.832 89.8881 106.872 90.7041 100.112C91.4401 94.024 89.4081 84.344 82.6561 82.464C81.1688 82.0431 79.5986 82.0093 78.0945 82.3656C76.5904 82.7219 75.2023 83.4567 74.0619 84.5001C72.9215 85.5436 72.0666 86.8611 71.5784 88.3277C71.0901 89.7942 70.9847 91.3613 71.2721 92.88Z" fill="#B55B52"/>
<path d="M72.52 97.296C75.552 98.896 76.88 95.288 76.912 93.816C76.912 91.48 75.936 88.912 74.728 87.976C80.584 87.976 92.168 87.688 89.24 82.112C86.312 76.536 80.44 77.168 76.064 80.224C73.736 81.824 66.2 80.432 68.064 84.776C64.136 86.864 67.544 94.648 72.52 97.296Z" fill="#263238"/>
<path d="M68.704 84.416C67.66 84.4108 66.6461 84.0654 65.816 83.432C65.9521 84.0168 66.2761 84.5408 66.7385 84.9237C67.2009 85.3067 67.7762 85.5274 68.376 85.552L68.704 84.416Z" fill="#263238"/>
<path d="M68.8 98.264C69.5507 99.7698 70.8641 100.919 72.456 101.464C74.568 102.144 75.048 100.208 74.536 98.176C74.072 96.336 73.08 93.848 70.928 94.048C68.776 94.248 67.904 96.424 68.8 98.264Z" fill="#B55B52"/>
<path d="M111.304 247C108.584 226.736 103.504 176.176 103.504 176.176L80 177.064C80 177.064 91.104 227.584 95.12 248.072C99.136 268.56 110.32 318 110.32 318L120.928 314C120.928 314 114.144 268.072 111.304 247Z" fill="#263238"/>
<path opacity="0.2" d="M88.8001 190.68C86.8645 191.142 85.0677 192.061 83.5601 193.36C85.7841 203.576 88.6881 217.024 91.1841 228.872C92.8481 218.608 92.8961 199.24 88.8001 190.68Z" fill="black"/>
<path d="M90.808 176.656C90.808 176.656 85.808 231.504 83.52 250.992C81.016 272.344 77.92 317.088 77.92 317.088H65.6C65.6 317.088 65.096 277.512 66.688 256.616C68.504 232.816 67.688 177.52 67.688 177.52L90.808 176.656Z" fill="#263238"/>
<path d="M79.5201 317.352H65.0721L64.7681 313.032L80.8961 312.752L79.5201 317.352Z" fill="#2B786C"/>
<path d="M122.312 313.728L109.672 318.52L108.128 314.432L122.176 308.864L122.312 313.728Z" fill="#2B786C"/>
<path d="M81.488 93.6C81.544 94.144 81.88 94.544 82.232 94.504C82.584 94.464 82.816 93.992 82.752 93.456C82.688 92.92 82.36 92.52 82.008 92.56C81.656 92.6 81.424 93.032 81.488 93.6Z" fill="#263238"/>
<path d="M87.5521 92.872C87.6161 93.408 87.9521 93.808 88.2961 93.768C88.6401 93.728 88.8881 93.264 88.8241 92.728C88.7601 92.192 88.4241 91.784 88.0721 91.824C87.7201 91.864 87.4881 92.336 87.5521 92.872Z" fill="#263238"/>
<path d="M85.656 93.36C86.4833 94.927 87.5224 96.3725 88.744 97.656C88.4112 97.9654 88.0142 98.1975 87.5814 98.3358C87.1486 98.4741 86.6905 98.5151 86.24 98.456L85.656 93.36Z" fill="#A02724"/>
<path d="M84.144 100.128C83.5365 100.127 82.9357 100.001 82.3785 99.7588C81.8214 99.5167 81.3196 99.1632 80.904 98.72C80.8885 98.7041 80.8765 98.685 80.8687 98.6642C80.8609 98.6433 80.8576 98.621 80.8589 98.5988C80.8603 98.5766 80.8662 98.5548 80.8764 98.535C80.8866 98.5153 80.9009 98.4978 80.9182 98.4838C80.9355 98.4698 80.9556 98.4596 80.9771 98.4538C80.9986 98.4481 81.0211 98.4468 81.0431 98.4502C81.0651 98.4537 81.0862 98.4616 81.1049 98.4736C81.1237 98.4856 81.1397 98.5014 81.152 98.52C81.6198 99.0024 82.1943 99.3682 82.8294 99.5877C83.4645 99.8073 84.1422 99.8745 84.808 99.784C84.8286 99.7806 84.8497 99.7815 84.8699 99.7866C84.8902 99.7917 84.9091 99.801 84.9256 99.8137C84.9421 99.8265 84.9558 99.8425 84.9659 99.8608C84.9759 99.8791 84.9821 99.8992 84.984 99.92C84.9886 99.9613 84.977 100.003 84.9516 100.036C84.9262 100.068 84.8891 100.09 84.848 100.096C84.6147 100.126 84.3792 100.137 84.144 100.128Z" fill="#263238"/>
<path d="M79.3921 91.824C79.3399 91.8396 79.2843 91.8396 79.2321 91.824C79.196 91.8033 79.1645 91.7757 79.1392 91.7426C79.114 91.7096 79.0956 91.6718 79.0852 91.6316C79.0747 91.5913 79.0725 91.5494 79.0785 91.5083C79.0845 91.4671 79.0986 91.4276 79.1201 91.392C79.3639 90.9536 79.7089 90.5797 80.1263 90.3014C80.5438 90.0231 81.0216 89.8485 81.5201 89.792C81.5621 89.7899 81.6042 89.796 81.6438 89.8101C81.6835 89.8243 81.72 89.8461 81.7512 89.8743C81.7824 89.9025 81.8077 89.9367 81.8257 89.9747C81.8437 90.0128 81.8541 90.054 81.8561 90.096C81.8583 90.1377 81.852 90.1793 81.8378 90.2185C81.8236 90.2577 81.8017 90.2936 81.7734 90.3242C81.745 90.3548 81.7108 90.3794 81.6728 90.3965C81.6348 90.4136 81.5938 90.423 81.5521 90.424C81.1559 90.4742 80.7771 90.6169 80.4463 90.8407C80.1156 91.0645 79.8421 91.363 79.6481 91.712C79.6184 91.7509 79.5794 91.7816 79.5346 91.8011C79.4898 91.8207 79.4408 91.8286 79.3921 91.824Z" fill="#263238"/>
<path d="M89.928 90.488C89.875 90.4859 89.8233 90.471 89.7773 90.4445C89.7313 90.418 89.6925 90.3808 89.664 90.336C89.4608 89.9927 89.1782 89.7031 88.8399 89.4916C88.5017 89.28 88.1177 89.1526 87.72 89.12C87.6352 89.12 87.5538 89.0863 87.4937 89.0263C87.4337 88.9663 87.4 88.8849 87.4 88.8C87.4 88.7151 87.4337 88.6337 87.4937 88.5737C87.5538 88.5137 87.6352 88.48 87.72 88.48C88.2227 88.5207 88.7086 88.6795 89.1382 88.9437C89.5678 89.2078 89.9289 89.5698 90.192 90C90.2142 90.0346 90.2293 90.0733 90.2365 90.1138C90.2437 90.1543 90.2428 90.1958 90.2339 90.236C90.2249 90.2761 90.2082 90.3141 90.1845 90.3478C90.1609 90.3814 90.1308 90.41 90.096 90.432C90.0468 90.4669 89.9883 90.4864 89.928 90.488Z" fill="#263238"/>
<path d="M77.2641 326.544C76.6677 326.529 76.0749 326.449 75.4961 326.304C75.4658 326.297 75.4383 326.281 75.417 326.258C75.3957 326.235 75.3815 326.207 75.3761 326.176C75.3681 326.146 75.37 326.114 75.3815 326.085C75.393 326.057 75.4136 326.032 75.4401 326.016C75.6721 325.864 77.7681 324.536 78.5281 324.912C78.612 324.955 78.6833 325.018 78.7352 325.097C78.7871 325.175 78.8177 325.266 78.8241 325.36C78.8524 325.513 78.8408 325.671 78.7903 325.818C78.7399 325.965 78.6523 326.097 78.5361 326.2C78.1654 326.46 77.7153 326.582 77.2641 326.544ZM75.9521 326.08C77.0961 326.304 77.9681 326.264 78.3521 325.96C78.4293 325.887 78.4872 325.797 78.5207 325.696C78.5543 325.596 78.5623 325.488 78.5441 325.384C78.5441 325.256 78.4721 325.216 78.4321 325.2C78.0081 325 76.8001 325.6 75.9521 326.08Z" fill="#2B786C"/>
<path d="M75.536 326.304C75.5071 326.311 75.4769 326.311 75.448 326.304C75.424 326.288 75.4041 326.267 75.3902 326.242C75.3762 326.217 75.3686 326.189 75.368 326.16C75.368 326.08 75.44 324.144 76.168 323.512C76.2559 323.43 76.3613 323.368 76.4762 323.332C76.5912 323.296 76.7128 323.286 76.832 323.304C76.9536 323.306 77.0712 323.347 77.1667 323.422C77.2621 323.498 77.3301 323.602 77.36 323.72C77.536 324.464 76.272 325.936 75.592 326.312C75.573 326.315 75.5536 326.312 75.536 326.304ZM76.752 323.592C76.6221 323.593 76.497 323.642 76.4 323.728C75.9574 324.341 75.7169 325.076 75.712 325.832C76.376 325.304 77.168 324.232 77.064 323.752C77.064 323.712 77.064 323.624 76.824 323.592H76.752Z" fill="#2B786C"/>
<path d="M121.6 323.576C121.57 323.577 121.54 323.57 121.515 323.554C121.489 323.538 121.469 323.515 121.456 323.488C121.439 323.462 121.43 323.431 121.43 323.4C121.43 323.369 121.439 323.338 121.456 323.312C121.688 323.056 123.72 320.824 124.656 320.96C124.743 320.97 124.826 321.002 124.896 321.054C124.966 321.106 125.021 321.176 125.056 321.256C125.119 321.38 125.152 321.517 125.152 321.656C125.152 321.795 125.119 321.932 125.056 322.056C124.6 322.92 122.712 323.36 121.624 323.536L121.6 323.576ZM124.552 321.272C124.016 321.272 122.848 322.32 122.032 323.176C123.504 322.88 124.512 322.424 124.768 321.936C124.812 321.852 124.834 321.759 124.834 321.664C124.834 321.569 124.812 321.476 124.768 321.392C124.756 321.36 124.735 321.333 124.708 321.311C124.682 321.29 124.65 321.277 124.616 321.272H124.552Z" fill="#2B786C"/>
<path d="M121.6 323.576H121.552C121.525 323.569 121.501 323.554 121.481 323.535C121.462 323.515 121.447 323.491 121.44 323.464C121.44 323.392 120.952 321.64 121.496 320.68C121.573 320.542 121.677 320.421 121.802 320.325C121.927 320.229 122.071 320.159 122.224 320.12C122.648 320 122.84 320.168 122.936 320.32C123.32 320.984 122.336 322.912 121.704 323.52C121.693 323.537 121.677 323.551 121.659 323.561C121.641 323.57 121.621 323.576 121.6 323.576ZM122.472 320.376H122.304C122.191 320.403 122.085 320.454 121.994 320.526C121.903 320.598 121.829 320.689 121.776 320.792C121.511 321.513 121.478 322.299 121.68 323.04C122.272 322.24 122.888 320.832 122.656 320.432C122.624 320.448 122.584 320.384 122.448 320.392L122.472 320.376Z" fill="#2B786C"/>
<path d="M68.5761 129.056C66.5681 133.192 64.5201 137.464 62.5361 141.672C61.5521 143.792 60.5601 145.904 59.6321 148.024L58.2401 151.224L57.6001 152.8L57.4401 153.2L57.3201 153.496C57.2401 153.68 57.1841 153.88 57.1121 154.064C56.6157 155.64 56.5276 157.317 56.8561 158.936C57.2481 160.817 57.9597 162.616 58.9601 164.256C60.0613 166.091 61.3365 167.817 62.7681 169.408C63.4961 170.208 64.2641 171.056 65.0641 171.808C65.4641 172.192 65.8641 172.608 66.2881 172.952C66.7121 173.296 67.1361 173.752 67.4881 174.032L64.8001 178.312C63.644 177.724 62.5246 177.067 61.4481 176.344C60.3841 175.648 59.3441 174.912 58.3361 174.112C56.26 172.467 54.3809 170.588 52.7361 168.512C50.9443 166.283 49.5751 163.745 48.6961 161.024C47.7601 158.023 47.625 154.829 48.3041 151.76C48.4081 151.384 48.4881 150.96 48.6081 150.624L48.9201 149.632L49.4801 147.864C49.8801 146.704 50.2801 145.536 50.6961 144.392C51.5361 142.096 52.4161 139.824 53.3681 137.584C55.2001 133.12 57.2561 128.8 59.5441 124.424L68.5761 129.056Z" fill="#B65B52"/>
<path d="M61.2161 119.584C55.1041 121.496 49.0961 142.224 49.0961 142.224L63.2001 148.416C63.2001 148.416 67.7761 138.4 70.4001 130.552C73.3041 122 68.6161 117.264 61.2161 119.584Z" fill="#2B786C"/>
<path opacity="0.2" d="M61.2161 119.584C55.1041 121.496 49.0961 142.224 49.0961 142.224L63.2001 148.416C63.2001 148.416 67.7761 138.4 70.4001 130.552C73.3041 122 68.6161 117.264 61.2161 119.584Z" fill="black"/>
<path d="M65.968 172.736L71.816 176.208L66.128 181.872C66.128 181.872 61.192 178.072 62.664 175.096L65.968 172.736Z" fill="#B55B52"/>
<path d="M75.7281 181.752L69.856 185.864L66.1281 181.872L71.816 176.208L75.7281 181.752Z" fill="#B55B52"/>
<path d="M358.692 171.232L358.413 175.086L359.211 175.144L359.49 171.29L358.692 171.232Z" fill="#2B786C"/>
<path d="M359.746 156.639L358.937 167.818L359.735 167.876L360.544 156.697L359.746 156.639Z" fill="#2B786C"/>
<path d="M337.856 282.4H141.912C140.513 282.416 139.125 282.14 137.839 281.588C136.553 281.036 135.397 280.221 134.444 279.196C133.492 278.17 132.765 276.957 132.309 275.634C131.854 274.31 131.68 272.906 131.8 271.512L142.2 126.872C142.458 123.943 143.789 121.213 145.938 119.206C148.086 117.2 150.901 116.058 153.84 116H349.784C351.183 115.983 352.57 116.258 353.856 116.809C355.142 117.36 356.299 118.174 357.251 119.199C358.204 120.224 358.931 121.437 359.386 122.76C359.842 124.082 360.016 125.486 359.896 126.88L349.496 271.52C349.24 274.45 347.91 277.182 345.761 279.191C343.612 281.199 340.797 282.342 337.856 282.4Z" fill="#2B786C"/>
<path d="M292.28 332.992H228.672L217.336 254.4H280.944L292.28 332.992Z" fill="#2B786C"/>
<path d="M282.176 328.304H213.376L212.008 332.992H280.816L282.176 328.304Z" fill="#2B786C"/>
<path d="M284.296 292.232L222.304 288.848L217.336 254.4H278.84L284.296 292.232Z" fill="#263238"/>
<path d="M335.648 282.4H139.696C138.295 282.416 136.906 282.137 135.619 281.583C134.331 281.029 133.175 280.211 132.224 279.182C131.272 278.153 130.547 276.935 130.095 275.609C129.643 274.282 129.475 272.876 129.6 271.48L140 126.84C140.265 123.92 141.597 121.2 143.742 119.2C145.886 117.2 148.692 116.061 151.624 116H347.576C348.974 115.984 350.361 116.26 351.646 116.812C352.931 117.363 354.086 118.177 355.038 119.202C355.989 120.227 356.716 121.439 357.171 122.762C357.626 124.084 357.8 125.487 357.68 126.88L347.28 271.52C347.026 274.449 345.697 277.181 343.55 279.19C341.402 281.199 338.588 282.342 335.648 282.4Z" fill="#263238"/>
<path d="M357.173 128.236L351.226 211.208L351.992 211.262L357.939 128.291L357.173 128.236Z" fill="white"/>
<path d="M350.737 218.432L348.677 247.166L349.443 247.221L351.503 218.487L350.737 218.432Z" fill="white"/>
<path d="M335.2 279.664H140.496C139.407 279.676 138.327 279.46 137.327 279.029C136.326 278.599 135.427 277.964 134.686 277.166C133.945 276.367 133.38 275.422 133.026 274.392C132.673 273.362 132.538 272.269 132.632 271.184L142.96 127.136C143.159 124.852 144.197 122.722 145.874 121.157C147.551 119.593 149.747 118.705 152.04 118.664H346.776C347.864 118.652 348.943 118.868 349.943 119.298C350.943 119.728 351.842 120.362 352.583 121.16C353.323 121.957 353.889 122.901 354.243 123.93C354.598 124.96 354.733 126.051 354.64 127.136L344.312 271.2C344.11 273.488 343.067 275.621 341.384 277.184C339.7 278.748 337.497 279.631 335.2 279.664Z" fill="white"/>
<path opacity="0.2" d="M335.2 279.664H140.496C139.407 279.676 138.327 279.46 137.327 279.029C136.326 278.599 135.427 277.964 134.686 277.166C133.945 276.367 133.38 275.422 133.026 274.392C132.673 273.362 132.538 272.269 132.632 271.184L142.96 127.136C143.159 124.852 144.197 122.722 145.874 121.157C147.551 119.593 149.747 118.705 152.04 118.664H346.776C347.864 118.652 348.943 118.868 349.943 119.298C350.943 119.728 351.842 120.362 352.583 121.16C353.323 121.957 353.889 122.901 354.243 123.93C354.598 124.96 354.733 126.051 354.64 127.136L344.312 271.2C344.11 273.488 343.067 275.621 341.384 277.184C339.7 278.748 337.497 279.631 335.2 279.664Z" fill="#2B786C"/>
<path opacity="0.5" d="M190.448 273.28H144.976C144.45 273.286 143.928 273.183 143.444 272.975C142.96 272.767 142.525 272.461 142.167 272.075C141.809 271.689 141.536 271.232 141.365 270.735C141.195 270.237 141.13 269.708 141.176 269.184L151.208 129.184C151.303 128.079 151.805 127.048 152.616 126.291C153.427 125.534 154.491 125.106 155.6 125.088H201.072C201.599 125.08 202.121 125.183 202.605 125.39C203.09 125.598 203.525 125.904 203.883 126.29C204.242 126.677 204.515 127.134 204.685 127.632C204.855 128.131 204.919 128.659 204.872 129.184L194.84 269.184C194.743 270.289 194.241 271.319 193.43 272.075C192.619 272.831 191.557 273.26 190.448 273.28Z" fill="white"/>
<path opacity="0.4" d="M188.688 144.8H165.152C164.678 144.805 164.209 144.711 163.773 144.524C163.338 144.337 162.947 144.061 162.624 143.714C162.302 143.366 162.055 142.955 161.901 142.507C161.747 142.059 161.688 141.584 161.728 141.112L161.984 137.504C162.071 136.51 162.523 135.583 163.252 134.902C163.982 134.221 164.938 133.834 165.936 133.816H189.48C189.954 133.811 190.423 133.905 190.859 134.092C191.294 134.279 191.686 134.555 192.008 134.902C192.33 135.25 192.577 135.661 192.731 136.109C192.885 136.557 192.944 137.032 192.904 137.504L192.64 141.112C192.562 142.11 192.113 143.042 191.381 143.725C190.65 144.407 189.689 144.791 188.688 144.8Z" fill="#2B786C"/>
<path d="M173.72 201.44H137.792C136.968 201.45 136.15 201.289 135.392 200.965C134.634 200.642 133.952 200.163 133.39 199.561C132.827 198.958 132.396 198.245 132.126 197.466C131.855 196.688 131.749 195.862 131.816 195.04L134.4 159.072C134.559 157.343 135.351 155.734 136.624 154.553C137.896 153.372 139.56 152.702 141.296 152.672H177.232C178.056 152.663 178.872 152.825 179.629 153.149C180.386 153.473 181.068 153.952 181.629 154.554C182.191 155.157 182.621 155.869 182.891 156.647C183.162 157.425 183.267 158.251 183.2 159.072L180.624 195.008C180.474 196.745 179.684 198.364 178.409 199.552C177.134 200.74 175.463 201.413 173.72 201.44Z" fill="#2B786C"/>
<path d="M178.872 172C178.209 172.013 177.574 172.272 177.089 172.725C176.605 173.178 176.305 173.795 176.248 174.456L175.872 179.672C175.845 179.986 175.884 180.302 175.987 180.6C176.09 180.898 176.254 181.171 176.469 181.402C176.684 181.632 176.944 181.815 177.234 181.939C177.524 182.063 177.837 182.124 178.152 182.12H181.8C181.965 182.118 182.123 182.055 182.243 181.942C182.363 181.83 182.436 181.676 182.448 181.512L183.088 172.608C183.095 172.53 183.085 172.451 183.059 172.377C183.034 172.303 182.993 172.235 182.939 172.178C182.886 172.12 182.821 172.075 182.748 172.044C182.676 172.014 182.598 171.999 182.52 172H178.872Z" fill="white"/>
<path d="M165.008 161.784H142.4C142.274 161.786 142.148 161.761 142.032 161.711C141.916 161.661 141.811 161.587 141.725 161.495C141.64 161.402 141.574 161.292 141.533 161.172C141.492 161.053 141.477 160.926 141.488 160.8C141.51 160.534 141.63 160.286 141.826 160.104C142.021 159.922 142.277 159.819 142.544 159.816H165.192C165.318 159.814 165.444 159.839 165.56 159.889C165.676 159.939 165.781 160.013 165.867 160.105C165.953 160.198 166.018 160.308 166.059 160.428C166.1 160.547 166.115 160.674 166.104 160.8C166.08 161.072 165.953 161.325 165.75 161.508C165.546 161.69 165.281 161.789 165.008 161.784Z" fill="white"/>
<path d="M164.656 166.784H142C141.874 166.786 141.748 166.761 141.632 166.711C141.516 166.661 141.411 166.587 141.325 166.495C141.24 166.402 141.174 166.292 141.133 166.172C141.092 166.053 141.077 165.926 141.088 165.8C141.112 165.535 141.233 165.289 141.428 165.109C141.623 164.928 141.878 164.827 142.144 164.824H164.8C164.926 164.821 165.051 164.845 165.167 164.894C165.284 164.943 165.388 165.016 165.474 165.108C165.56 165.2 165.626 165.309 165.667 165.429C165.708 165.548 165.723 165.674 165.712 165.8C165.69 166.066 165.57 166.314 165.374 166.496C165.179 166.678 164.923 166.781 164.656 166.784Z" fill="white"/>
<path d="M156.464 171.792H141.64C141.514 171.792 141.389 171.767 141.273 171.716C141.158 171.666 141.054 171.592 140.968 171.5C140.883 171.407 140.817 171.298 140.776 171.179C140.734 171.06 140.718 170.934 140.728 170.808C140.75 170.542 140.87 170.294 141.066 170.112C141.261 169.93 141.517 169.827 141.784 169.824H156.608C156.734 169.822 156.86 169.847 156.976 169.897C157.092 169.947 157.197 170.021 157.283 170.113C157.368 170.206 157.434 170.316 157.475 170.436C157.516 170.555 157.531 170.682 157.52 170.808C157.496 171.073 157.375 171.321 157.18 171.502C156.986 171.684 156.73 171.787 156.464 171.792Z" fill="white"/>
<path opacity="0.5" d="M165.072 195.632H143.2C142.659 195.639 142.123 195.532 141.626 195.318C141.129 195.105 140.683 194.79 140.315 194.394C139.947 193.997 139.666 193.528 139.491 193.017C139.315 192.505 139.249 191.963 139.296 191.424L140.096 179.912C140.193 178.778 140.707 177.721 141.54 176.945C142.372 176.169 143.462 175.73 144.6 175.712H166.512C167.052 175.706 167.587 175.812 168.084 176.025C168.58 176.238 169.026 176.552 169.394 176.948C169.762 177.343 170.042 177.811 170.219 178.322C170.395 178.832 170.462 179.374 170.416 179.912L169.616 191.424C169.517 192.565 168.996 193.627 168.156 194.405C167.316 195.183 166.217 195.62 165.072 195.632Z" fill="white"/>
<path opacity="0.4" d="M185.528 214.896H158.264C158.029 214.899 157.797 214.853 157.581 214.761C157.365 214.668 157.171 214.532 157.011 214.36C156.852 214.188 156.73 213.985 156.653 213.763C156.577 213.541 156.548 213.306 156.568 213.072C156.611 212.579 156.836 212.12 157.198 211.784C157.56 211.447 158.034 211.256 158.528 211.248H185.792C186.026 211.246 186.258 211.293 186.472 211.386C186.687 211.478 186.88 211.615 187.039 211.787C187.198 211.959 187.319 212.162 187.395 212.383C187.471 212.604 187.5 212.839 187.48 213.072C187.438 213.564 187.216 214.023 186.855 214.36C186.494 214.697 186.021 214.888 185.528 214.896Z" fill="#2B786C"/>
<path opacity="0.8" d="M180 222.056H162.736C162.501 222.059 162.269 222.013 162.053 221.921C161.837 221.828 161.643 221.692 161.483 221.52C161.324 221.348 161.202 221.145 161.125 220.923C161.049 220.701 161.02 220.466 161.04 220.232C161.082 219.74 161.304 219.281 161.665 218.944C162.026 218.607 162.498 218.416 162.992 218.408H180.296C180.53 218.405 180.763 218.451 180.978 218.543C181.193 218.636 181.387 218.772 181.546 218.944C181.705 219.116 181.826 219.32 181.902 219.542C181.977 219.763 182.005 219.999 181.984 220.232C181.942 220.729 181.715 221.193 181.347 221.53C180.98 221.868 180.499 222.056 180 222.056Z" fill="white"/>
<path opacity="0.4" d="M184.112 234.648H156.848C156.614 234.65 156.382 234.603 156.166 234.51C155.951 234.418 155.758 234.281 155.598 234.109C155.439 233.938 155.317 233.735 155.24 233.514C155.163 233.292 155.133 233.058 155.152 232.824C155.195 232.331 155.42 231.872 155.782 231.536C156.144 231.199 156.618 231.008 157.112 231H184.376C184.61 230.998 184.842 231.045 185.056 231.138C185.271 231.231 185.464 231.367 185.623 231.539C185.782 231.711 185.903 231.914 185.979 232.135C186.055 232.356 186.084 232.591 186.064 232.824C186.022 233.316 185.8 233.775 185.439 234.112C185.078 234.449 184.606 234.64 184.112 234.648Z" fill="#2B786C"/>
<path opacity="0.8" d="M178.616 241.8H161.32C161.086 241.804 160.853 241.759 160.638 241.668C160.422 241.576 160.228 241.441 160.068 241.269C159.908 241.098 159.786 240.895 159.709 240.674C159.633 240.452 159.604 240.217 159.624 239.984C159.666 239.488 159.892 239.026 160.258 238.688C160.624 238.351 161.102 238.162 161.6 238.16H178.88C179.115 238.157 179.347 238.203 179.563 238.295C179.779 238.388 179.973 238.524 180.133 238.696C180.292 238.868 180.414 239.071 180.491 239.293C180.567 239.515 180.596 239.75 180.576 239.984C180.532 240.476 180.308 240.934 179.946 241.269C179.584 241.605 179.11 241.794 178.616 241.8Z" fill="white"/>
<path opacity="0.4" d="M182.696 254.4H155.432C155.198 254.402 154.966 254.355 154.75 254.262C154.535 254.17 154.342 254.033 154.182 253.861C154.023 253.69 153.901 253.487 153.824 253.266C153.747 253.044 153.717 252.809 153.736 252.576C153.778 252.083 154.001 251.623 154.364 251.286C154.726 250.948 155.201 250.758 155.696 250.752H182.96C183.194 250.749 183.427 250.795 183.642 250.887C183.857 250.98 184.051 251.116 184.21 251.288C184.369 251.46 184.49 251.664 184.566 251.886C184.641 252.107 184.669 252.343 184.648 252.576C184.606 253.068 184.384 253.527 184.023 253.864C183.662 254.201 183.189 254.392 182.696 254.4Z" fill="#2B786C"/>
<path opacity="0.8" d="M177.2 261.552H159.904C159.669 261.555 159.437 261.509 159.221 261.417C159.005 261.324 158.811 261.188 158.651 261.016C158.492 260.844 158.37 260.641 158.293 260.419C158.217 260.197 158.188 259.962 158.208 259.728C158.251 259.237 158.474 258.779 158.835 258.442C159.195 258.106 159.667 257.914 160.16 257.904H177.464C177.698 257.902 177.93 257.949 178.145 258.042C178.361 258.134 178.554 258.271 178.714 258.442C178.873 258.614 178.995 258.817 179.072 259.038C179.149 259.26 179.179 259.494 179.16 259.728C179.118 260.221 178.894 260.681 178.532 261.018C178.17 261.356 177.695 261.546 177.2 261.552Z" fill="white"/>
<path opacity="0.5" d="M337.344 232.216C338.528 230.408 341.24 231.168 341.088 233.256L338.464 269.864C338.328 271.744 336.904 273.28 335.264 273.28H203.416C201.816 273.28 200.6 271.744 200.736 269.864L202.336 248.112C202.389 247.42 202.595 246.749 202.938 246.146C203.28 245.543 203.752 245.023 204.319 244.623C204.886 244.223 205.535 243.954 206.218 243.834C206.901 243.713 207.603 243.746 208.272 243.928C215.704 246.24 222.072 244.88 227.992 241.944C240.648 235.664 251.24 222.176 265.792 222.176C266.352 222.176 266.904 222.176 267.44 222.224C289.088 223.528 295.68 250.424 312.448 250.424C317.408 250.424 321.928 248.28 325.872 245.232C330.656 241.496 334.6 236.4 337.344 232.216Z" fill="#2B786C"/>
<path opacity="0.5" d="M340.08 247.296L338.48 269.864C338.344 271.744 336.92 273.28 335.28 273.28H203.416C201.816 273.28 200.6 271.744 200.736 269.864L203.936 225.016C204.152 221.944 208.176 220.648 209.808 223.136C214.016 229.536 220.488 237.848 227.936 241.944C230.643 243.524 233.707 244.391 236.84 244.464C247.496 244.464 256.56 231.832 267.384 222.224C274.016 216.336 281.312 211.584 290.04 211.584C308.256 211.584 310.944 241.184 325.816 245.232C328.68 246.032 332 245.848 335.968 244.328C336.437 244.125 336.951 244.048 337.459 244.103C337.967 244.158 338.452 244.345 338.867 244.644C339.281 244.943 339.611 245.345 339.824 245.81C340.036 246.275 340.125 246.787 340.08 247.296Z" fill="#2B786C"/>
<g opacity="0.8">
<path d="M340.728 238.544C340.656 238.541 340.588 238.513 340.536 238.464C340.51 238.44 340.491 238.41 340.48 238.376C340.473 238.342 340.473 238.306 340.48 238.272C340.48 238.236 340.487 238.201 340.5 238.168C340.514 238.135 340.534 238.105 340.56 238.08C340.611 238.029 340.68 238.001 340.752 238.001C340.824 238.001 340.893 238.029 340.944 238.08C340.97 238.104 340.991 238.134 341.005 238.167C341.019 238.2 341.025 238.236 341.024 238.272C341.028 238.307 341.028 238.341 341.024 238.376C341.007 238.408 340.986 238.438 340.96 238.464C340.93 238.494 340.893 238.517 340.853 238.531C340.813 238.545 340.77 238.549 340.728 238.544Z" fill="white"/>
<path d="M212.512 257.288C212.44 257.288 212.371 257.259 212.32 257.208C212.269 257.157 212.24 257.088 212.24 257.016C212.242 256.945 212.272 256.878 212.323 256.829C212.373 256.779 212.441 256.752 212.512 256.752C212.584 256.752 212.653 256.781 212.704 256.832C212.755 256.883 212.784 256.952 212.784 257.024C212.784 257.097 212.756 257.167 212.705 257.219C212.654 257.271 212.585 257.302 212.512 257.304V257.288ZM209.768 257.136C209.732 257.134 209.697 257.125 209.664 257.108C209.632 257.092 209.603 257.07 209.58 257.042C209.556 257.014 209.539 256.982 209.529 256.947C209.519 256.912 209.516 256.876 209.52 256.84C209.524 256.804 209.535 256.769 209.553 256.738C209.57 256.706 209.594 256.679 209.622 256.656C209.65 256.634 209.683 256.618 209.717 256.608C209.752 256.598 209.788 256.595 209.824 256.6C209.895 256.608 209.96 256.644 210.005 256.699C210.049 256.754 210.071 256.825 210.064 256.896C210.056 256.963 210.025 257.025 209.975 257.071C209.925 257.117 209.86 257.142 209.792 257.144L209.768 257.136ZM214.944 256.896C214.94 256.86 214.942 256.824 214.952 256.789C214.962 256.754 214.978 256.722 215 256.694C215.023 256.665 215.051 256.642 215.082 256.624C215.114 256.607 215.148 256.596 215.184 256.592C215.22 256.587 215.256 256.59 215.291 256.6C215.326 256.61 215.358 256.626 215.386 256.648C215.415 256.671 215.438 256.698 215.456 256.73C215.473 256.761 215.484 256.796 215.488 256.832C215.493 256.868 215.49 256.904 215.48 256.939C215.47 256.973 215.454 257.006 215.432 257.034C215.409 257.062 215.382 257.086 215.35 257.103C215.319 257.121 215.284 257.132 215.248 257.136C215.212 257.14 215.176 257.138 215.141 257.128C215.107 257.118 215.074 257.102 215.046 257.08C215.018 257.057 214.994 257.029 214.977 256.998C214.959 256.966 214.948 256.932 214.944 256.896ZM207.064 256.72C206.993 256.703 206.932 256.659 206.892 256.598C206.851 256.538 206.836 256.464 206.848 256.392C206.865 256.321 206.909 256.259 206.97 256.219C207.03 256.179 207.104 256.164 207.176 256.176C207.247 256.193 207.309 256.237 207.349 256.297C207.389 256.358 207.404 256.432 207.392 256.504C207.378 256.565 207.343 256.62 207.294 256.659C207.244 256.698 207.183 256.72 207.12 256.72H207.064ZM217.616 256.448C217.607 256.413 217.604 256.376 217.609 256.34C217.614 256.304 217.626 256.269 217.645 256.238C217.664 256.206 217.688 256.179 217.718 256.157C217.747 256.136 217.781 256.12 217.816 256.112C217.886 256.097 217.959 256.11 218.02 256.147C218.081 256.184 218.125 256.243 218.144 256.312C218.161 256.383 218.15 256.458 218.112 256.521C218.075 256.583 218.015 256.629 217.944 256.648H217.88C217.817 256.654 217.754 256.637 217.703 256.6C217.652 256.563 217.615 256.509 217.6 256.448H217.616ZM305.112 256.56C305.04 256.56 304.971 256.531 304.92 256.48C304.869 256.429 304.84 256.36 304.84 256.288C304.84 256.216 304.869 256.147 304.92 256.096C304.971 256.045 305.04 256.016 305.112 256.016C305.184 256.016 305.253 256.045 305.304 256.096C305.355 256.147 305.384 256.216 305.384 256.288C305.384 256.36 305.355 256.429 305.304 256.48C305.253 256.531 305.184 256.56 305.112 256.56ZM307.552 256.176C307.548 256.141 307.55 256.105 307.56 256.071C307.57 256.036 307.587 256.004 307.609 255.977C307.631 255.949 307.659 255.926 307.691 255.91C307.722 255.893 307.757 255.883 307.792 255.88C307.828 255.874 307.865 255.876 307.9 255.885C307.935 255.895 307.968 255.911 307.996 255.934C308.025 255.956 308.049 255.984 308.066 256.016C308.083 256.048 308.093 256.084 308.096 256.12C308.103 256.193 308.081 256.266 308.034 256.323C307.988 256.38 307.921 256.416 307.848 256.424C307.776 256.429 307.706 256.405 307.65 256.359C307.595 256.313 307.56 256.247 307.552 256.176ZM302.376 256.392C302.341 256.388 302.306 256.377 302.275 256.359C302.244 256.342 302.217 256.318 302.195 256.29C302.173 256.261 302.158 256.229 302.149 256.194C302.14 256.159 302.138 256.123 302.144 256.088C302.148 256.052 302.159 256.017 302.177 255.986C302.194 255.954 302.218 255.927 302.246 255.904C302.274 255.882 302.307 255.866 302.341 255.856C302.376 255.846 302.412 255.843 302.448 255.848C302.52 255.858 302.584 255.895 302.629 255.952C302.674 256.008 302.695 256.08 302.688 256.152C302.68 256.219 302.649 256.281 302.599 256.327C302.549 256.373 302.484 256.398 302.416 256.4L302.376 256.392ZM204.408 256.064C204.373 256.055 204.341 256.039 204.312 256.017C204.284 255.995 204.26 255.967 204.242 255.936C204.224 255.905 204.213 255.87 204.208 255.835C204.204 255.799 204.206 255.763 204.216 255.728C204.238 255.658 204.286 255.6 204.35 255.564C204.414 255.528 204.489 255.518 204.56 255.536C204.629 255.558 204.687 255.606 204.722 255.671C204.756 255.735 204.764 255.81 204.744 255.88C204.728 255.937 204.693 255.987 204.645 256.022C204.597 256.056 204.539 256.074 204.48 256.072H204.408V256.064ZM310.24 255.8C310.232 255.765 310.231 255.728 310.238 255.692C310.244 255.657 310.258 255.623 310.279 255.593C310.299 255.563 310.325 255.537 310.356 255.518C310.386 255.499 310.42 255.486 310.456 255.48C310.491 255.473 310.528 255.473 310.563 255.48C310.598 255.487 310.631 255.501 310.661 255.521C310.691 255.541 310.716 255.567 310.736 255.597C310.756 255.627 310.769 255.661 310.776 255.696C310.783 255.731 310.783 255.767 310.776 255.803C310.769 255.838 310.755 255.871 310.735 255.901C310.715 255.931 310.689 255.956 310.659 255.976C310.629 255.996 310.595 256.009 310.56 256.016H310.512C310.449 256.016 310.388 255.994 310.339 255.955C310.289 255.916 310.254 255.861 310.24 255.8ZM299.688 255.896C299.652 255.89 299.618 255.876 299.588 255.855C299.558 255.835 299.533 255.808 299.514 255.777C299.495 255.746 299.483 255.711 299.479 255.675C299.474 255.639 299.477 255.603 299.488 255.568C299.505 255.498 299.549 255.438 299.611 255.4C299.672 255.363 299.746 255.351 299.816 255.368C299.886 255.385 299.946 255.429 299.984 255.491C300.021 255.552 300.033 255.626 300.016 255.696C300.002 255.755 299.968 255.808 299.92 255.846C299.872 255.883 299.813 255.904 299.752 255.904H299.688V255.896ZM220.208 255.672C220.194 255.638 220.187 255.602 220.188 255.566C220.188 255.53 220.196 255.494 220.211 255.461C220.226 255.428 220.248 255.398 220.275 255.374C220.302 255.35 220.334 255.331 220.368 255.32C220.435 255.294 220.509 255.295 220.575 255.323C220.641 255.352 220.693 255.405 220.72 255.472C220.733 255.506 220.739 255.541 220.738 255.577C220.737 255.613 220.728 255.649 220.714 255.681C220.699 255.714 220.677 255.744 220.651 255.768C220.625 255.792 220.594 255.812 220.56 255.824C220.528 255.831 220.496 255.831 220.464 255.824C220.411 255.825 220.359 255.812 220.314 255.785C220.269 255.758 220.232 255.719 220.208 255.672ZM312.888 255.2C312.877 255.165 312.874 255.128 312.877 255.091C312.881 255.054 312.892 255.019 312.91 254.987C312.928 254.955 312.953 254.926 312.982 254.904C313.011 254.881 313.044 254.865 313.08 254.856C313.115 254.846 313.151 254.844 313.187 254.848C313.222 254.852 313.257 254.864 313.288 254.882C313.319 254.9 313.347 254.924 313.369 254.952C313.391 254.981 313.407 255.013 313.416 255.048C313.426 255.083 313.428 255.119 313.424 255.155C313.42 255.19 313.408 255.225 313.39 255.256C313.372 255.287 313.349 255.315 313.32 255.337C313.291 255.359 313.259 255.375 313.224 255.384H313.152C313.094 255.385 313.037 255.368 312.99 255.335C312.942 255.302 312.907 255.255 312.888 255.2ZM297.064 255.104C296.996 255.08 296.941 255.031 296.909 254.967C296.878 254.902 296.873 254.828 296.896 254.76C296.921 254.692 296.972 254.636 297.038 254.605C297.104 254.573 297.179 254.569 297.248 254.592C297.316 254.617 297.372 254.668 297.403 254.734C297.435 254.8 297.439 254.875 297.416 254.944C297.395 254.997 297.359 255.042 297.311 255.073C297.264 255.104 297.209 255.121 297.152 255.12C297.122 255.123 297.091 255.118 297.064 255.104ZM222.664 254.592C222.648 254.56 222.638 254.525 222.635 254.489C222.632 254.453 222.636 254.417 222.647 254.383C222.658 254.349 222.676 254.317 222.7 254.29C222.723 254.262 222.752 254.24 222.784 254.224C222.85 254.193 222.925 254.19 222.994 254.213C223.063 254.237 223.119 254.287 223.152 254.352C223.168 254.383 223.178 254.418 223.181 254.453C223.184 254.488 223.18 254.524 223.168 254.557C223.157 254.591 223.139 254.622 223.116 254.649C223.093 254.675 223.064 254.697 223.032 254.712C222.99 254.724 222.946 254.724 222.904 254.712C222.863 254.709 222.822 254.697 222.786 254.676C222.75 254.655 222.719 254.627 222.696 254.592H222.664ZM315.464 254.4C315.451 254.367 315.445 254.332 315.447 254.296C315.448 254.261 315.456 254.226 315.471 254.194C315.486 254.162 315.507 254.133 315.534 254.109C315.56 254.086 315.591 254.068 315.624 254.056C315.692 254.035 315.765 254.041 315.829 254.072C315.893 254.103 315.943 254.158 315.968 254.224C315.991 254.293 315.987 254.368 315.955 254.434C315.924 254.5 315.868 254.551 315.8 254.576H315.712C315.662 254.57 315.615 254.551 315.575 254.52C315.536 254.489 315.505 254.447 315.488 254.4H315.464ZM294.512 254.064C294.48 254.049 294.45 254.028 294.426 254.002C294.401 253.976 294.382 253.946 294.369 253.912C294.357 253.879 294.351 253.843 294.352 253.807C294.353 253.772 294.361 253.737 294.376 253.704C294.407 253.64 294.462 253.59 294.529 253.564C294.596 253.539 294.67 253.54 294.736 253.568C294.77 253.583 294.8 253.604 294.825 253.631C294.85 253.657 294.87 253.689 294.882 253.723C294.895 253.757 294.901 253.794 294.899 253.831C294.897 253.867 294.888 253.903 294.872 253.936C294.85 253.983 294.815 254.023 294.771 254.051C294.727 254.08 294.676 254.095 294.624 254.096C294.592 254.093 294.562 254.082 294.536 254.064H294.512ZM318 253.44C317.986 253.407 317.979 253.371 317.979 253.336C317.979 253.3 317.986 253.264 318 253.231C318.015 253.198 318.035 253.169 318.061 253.144C318.088 253.119 318.118 253.1 318.152 253.088C318.184 253.072 318.22 253.064 318.255 253.063C318.291 253.062 318.327 253.068 318.36 253.082C318.393 253.095 318.423 253.116 318.448 253.142C318.473 253.167 318.492 253.198 318.504 253.232C318.519 253.265 318.526 253.301 318.527 253.337C318.527 253.373 318.521 253.409 318.507 253.442C318.494 253.476 318.474 253.506 318.449 253.532C318.424 253.558 318.393 253.578 318.36 253.592C318.326 253.6 318.29 253.6 318.256 253.592C318.208 253.589 318.161 253.573 318.12 253.547C318.079 253.52 318.046 253.483 318.024 253.44H318ZM225.04 253.28C225.001 253.217 224.989 253.142 225.005 253.07C225.022 252.998 225.066 252.935 225.128 252.896C225.159 252.877 225.192 252.864 225.228 252.858C225.263 252.852 225.299 252.853 225.334 252.862C225.369 252.87 225.402 252.885 225.431 252.906C225.461 252.927 225.485 252.953 225.504 252.984C225.523 253.014 225.536 253.048 225.542 253.084C225.548 253.119 225.547 253.155 225.538 253.19C225.53 253.225 225.515 253.258 225.494 253.287C225.473 253.316 225.447 253.341 225.416 253.36C225.375 253.391 225.324 253.408 225.272 253.408C225.23 253.403 225.19 253.389 225.154 253.367C225.118 253.345 225.087 253.315 225.064 253.28H225.04ZM292.072 252.84C292.008 252.804 291.96 252.745 291.939 252.675C291.918 252.605 291.926 252.529 291.96 252.464C291.997 252.401 292.057 252.355 292.127 252.336C292.197 252.316 292.272 252.325 292.336 252.36C292.398 252.395 292.444 252.454 292.464 252.523C292.483 252.591 292.475 252.665 292.44 252.728C292.416 252.771 292.381 252.807 292.339 252.832C292.297 252.857 292.249 252.871 292.2 252.872C292.164 252.866 292.129 252.856 292.096 252.84H292.072ZM320.488 252.344C320.458 252.279 320.454 252.205 320.478 252.138C320.502 252.07 320.552 252.015 320.616 251.984C320.682 251.953 320.757 251.95 320.826 251.973C320.895 251.997 320.951 252.047 320.984 252.112C320.999 252.145 321.007 252.18 321.008 252.215C321.009 252.251 321.003 252.287 320.991 252.32C320.978 252.354 320.959 252.384 320.934 252.41C320.91 252.436 320.881 252.457 320.848 252.472H320.728C320.684 252.47 320.642 252.457 320.604 252.434C320.567 252.412 320.535 252.381 320.512 252.344H320.488ZM227.296 251.776C227.255 251.716 227.238 251.643 227.25 251.571C227.262 251.499 227.302 251.435 227.36 251.392C227.419 251.35 227.492 251.332 227.563 251.343C227.635 251.353 227.7 251.391 227.744 251.448C227.785 251.508 227.802 251.581 227.79 251.653C227.778 251.725 227.738 251.789 227.68 251.832C227.633 251.866 227.578 251.885 227.52 251.888C227.481 251.884 227.443 251.873 227.408 251.853C227.374 251.834 227.344 251.808 227.32 251.776H227.296ZM289.696 251.472C289.666 251.454 289.639 251.43 289.618 251.402C289.598 251.373 289.583 251.341 289.574 251.307C289.566 251.272 289.565 251.237 289.571 251.202C289.577 251.167 289.589 251.134 289.608 251.104C289.625 251.072 289.648 251.044 289.676 251.022C289.704 250.999 289.736 250.983 289.771 250.974C289.805 250.965 289.842 250.963 289.877 250.969C289.912 250.975 289.946 250.988 289.976 251.008C290.007 251.026 290.035 251.05 290.056 251.079C290.078 251.108 290.094 251.141 290.103 251.176C290.112 251.211 290.114 251.247 290.108 251.283C290.103 251.319 290.091 251.353 290.072 251.384C290.048 251.424 290.014 251.458 289.973 251.482C289.933 251.505 289.887 251.519 289.84 251.52C289.803 251.511 289.767 251.495 289.736 251.472H289.696ZM322.904 251.128C322.87 251.064 322.863 250.99 322.884 250.921C322.905 250.852 322.952 250.794 323.016 250.76C323.08 250.728 323.154 250.722 323.222 250.743C323.291 250.764 323.349 250.81 323.384 250.872C323.418 250.937 323.426 251.013 323.405 251.083C323.384 251.153 323.336 251.212 323.272 251.248C323.23 251.255 323.186 251.255 323.144 251.248C323.104 251.244 323.065 251.231 323.031 251.21C322.996 251.19 322.966 251.162 322.944 251.128H322.904ZM229.456 250.136C229.433 250.108 229.416 250.076 229.406 250.042C229.396 250.007 229.392 249.971 229.396 249.936C229.4 249.9 229.411 249.865 229.428 249.834C229.445 249.802 229.468 249.774 229.496 249.752C229.553 249.708 229.625 249.688 229.696 249.695C229.768 249.703 229.833 249.737 229.88 249.792C229.93 249.845 229.957 249.915 229.957 249.988C229.957 250.061 229.93 250.131 229.88 250.184C229.829 250.221 229.767 250.241 229.704 250.24C229.663 250.242 229.623 250.233 229.587 250.215C229.55 250.197 229.519 250.17 229.496 250.136H229.456ZM287.392 250.016C287.332 249.977 287.289 249.915 287.274 249.845C287.259 249.774 287.273 249.7 287.312 249.64C287.353 249.579 287.416 249.536 287.488 249.521C287.56 249.507 287.634 249.52 287.696 249.56C287.755 249.601 287.796 249.662 287.811 249.732C287.826 249.802 287.813 249.875 287.776 249.936C287.752 249.975 287.717 250.008 287.677 250.03C287.636 250.053 287.59 250.064 287.544 250.064C287.504 250.055 287.466 250.039 287.432 250.016H287.392ZM325.28 249.816C325.261 249.785 325.249 249.751 325.244 249.715C325.238 249.679 325.24 249.643 325.249 249.608C325.258 249.573 325.274 249.54 325.296 249.511C325.318 249.482 325.345 249.458 325.376 249.44C325.439 249.404 325.513 249.394 325.583 249.412C325.653 249.43 325.714 249.474 325.752 249.536C325.788 249.599 325.798 249.673 325.78 249.743C325.762 249.813 325.718 249.874 325.656 249.912C325.612 249.936 325.563 249.95 325.512 249.952C325.472 249.945 325.434 249.929 325.401 249.906C325.367 249.882 325.34 249.852 325.32 249.816H325.28ZM285.128 248.504C285.068 248.462 285.027 248.398 285.014 248.327C285.001 248.255 285.016 248.181 285.056 248.12C285.099 248.062 285.163 248.022 285.234 248.009C285.305 247.996 285.379 248.009 285.44 248.048C285.498 248.091 285.538 248.155 285.551 248.226C285.564 248.297 285.551 248.371 285.512 248.432C285.486 248.469 285.451 248.5 285.411 248.521C285.37 248.542 285.326 248.552 285.28 248.552C285.24 248.544 285.201 248.528 285.168 248.504H285.128ZM327.6 248.408C327.563 248.345 327.552 248.27 327.568 248.199C327.584 248.127 327.627 248.065 327.688 248.024C327.718 248.005 327.752 247.992 327.788 247.986C327.823 247.98 327.859 247.981 327.894 247.99C327.929 247.998 327.962 248.013 327.991 248.034C328.021 248.055 328.045 248.081 328.064 248.112C328.083 248.142 328.096 248.176 328.102 248.212C328.108 248.247 328.107 248.283 328.098 248.318C328.09 248.353 328.075 248.386 328.054 248.415C328.033 248.444 328.007 248.469 327.976 248.488C327.935 248.52 327.884 248.537 327.832 248.536C327.793 248.529 327.756 248.514 327.723 248.492C327.69 248.47 327.662 248.441 327.64 248.408H327.6ZM231.6 248.408C231.551 248.356 231.524 248.287 231.524 248.216C231.524 248.145 231.551 248.076 231.6 248.024C231.653 247.974 231.723 247.947 231.796 247.947C231.869 247.947 231.939 247.974 231.992 248.024C232.043 248.075 232.071 248.144 232.071 248.216C232.071 248.288 232.043 248.357 231.992 248.408C231.969 248.43 231.941 248.447 231.911 248.458C231.88 248.469 231.848 248.474 231.816 248.472C231.779 248.479 231.74 248.478 231.703 248.47C231.666 248.462 231.631 248.446 231.6 248.424V248.408ZM329.92 246.904C329.879 246.844 329.862 246.771 329.874 246.699C329.886 246.627 329.926 246.563 329.984 246.52C330.014 246.499 330.048 246.484 330.083 246.476C330.119 246.468 330.155 246.468 330.191 246.475C330.227 246.481 330.261 246.495 330.292 246.515C330.322 246.536 330.348 246.562 330.368 246.592C330.408 246.651 330.423 246.724 330.409 246.795C330.396 246.865 330.355 246.927 330.296 246.968C330.251 246.998 330.198 247.015 330.144 247.016C330.102 247.018 330.06 247.011 330.021 246.994C329.982 246.978 329.947 246.952 329.92 246.92V246.904ZM282.92 246.968C282.89 246.949 282.864 246.923 282.844 246.894C282.824 246.864 282.81 246.831 282.803 246.795C282.797 246.76 282.797 246.724 282.805 246.689C282.812 246.654 282.827 246.621 282.848 246.592C282.887 246.532 282.949 246.489 283.02 246.474C283.09 246.459 283.164 246.473 283.224 246.512C283.254 246.532 283.281 246.558 283.301 246.588C283.321 246.619 283.335 246.653 283.341 246.689C283.348 246.725 283.348 246.761 283.34 246.797C283.332 246.833 283.317 246.866 283.296 246.896C283.272 246.934 283.239 246.965 283.2 246.986C283.161 247.007 283.117 247.017 283.072 247.016C283.019 247.02 282.967 247.009 282.92 246.984V246.968ZM233.688 246.664C233.662 246.639 233.641 246.61 233.627 246.576C233.613 246.543 233.605 246.508 233.605 246.472C233.605 246.436 233.613 246.4 233.627 246.367C233.641 246.334 233.662 246.305 233.688 246.28C233.74 246.231 233.809 246.204 233.88 246.204C233.951 246.204 234.02 246.231 234.072 246.28C234.123 246.331 234.151 246.4 234.151 246.472C234.151 246.544 234.123 246.613 234.072 246.664C234.024 246.707 233.961 246.73 233.896 246.728C233.86 246.735 233.823 246.735 233.787 246.727C233.751 246.718 233.717 246.702 233.688 246.68V246.664ZM280.664 245.464C280.633 245.445 280.607 245.42 280.586 245.391C280.565 245.362 280.55 245.328 280.543 245.293C280.535 245.258 280.535 245.222 280.542 245.186C280.549 245.151 280.564 245.118 280.584 245.088C280.603 245.057 280.628 245.031 280.657 245.01C280.686 244.989 280.72 244.974 280.755 244.967C280.79 244.959 280.826 244.959 280.862 244.966C280.897 244.973 280.93 244.987 280.96 245.008C281.021 245.047 281.063 245.109 281.078 245.179C281.093 245.25 281.079 245.323 281.04 245.384C281.016 245.422 280.983 245.453 280.944 245.474C280.905 245.495 280.861 245.505 280.816 245.504C280.764 245.512 280.711 245.503 280.664 245.48V245.464ZM332.144 245.336C332.122 245.308 332.107 245.276 332.098 245.241C332.089 245.207 332.087 245.171 332.092 245.136C332.097 245.101 332.11 245.067 332.128 245.037C332.147 245.007 332.171 244.981 332.2 244.96C332.259 244.918 332.332 244.9 332.403 244.911C332.475 244.921 332.54 244.959 332.584 245.016C332.625 245.076 332.642 245.149 332.63 245.221C332.618 245.293 332.578 245.357 332.52 245.4C332.473 245.431 332.417 245.448 332.36 245.448C332.319 245.451 332.278 245.444 332.24 245.427C332.202 245.411 332.169 245.385 332.144 245.352V245.336ZM235.776 244.928C235.725 244.877 235.697 244.808 235.697 244.736C235.697 244.664 235.725 244.595 235.776 244.544C235.833 244.5 235.905 244.48 235.976 244.487C236.048 244.495 236.113 244.529 236.16 244.584C236.183 244.612 236.2 244.644 236.21 244.678C236.22 244.713 236.224 244.749 236.22 244.784C236.216 244.82 236.206 244.855 236.188 244.886C236.171 244.918 236.148 244.945 236.12 244.968C236.097 244.99 236.069 245.007 236.039 245.018C236.008 245.029 235.976 245.034 235.944 245.032C235.879 245.024 235.819 244.993 235.776 244.944V244.928ZM278.4 244C278.37 243.981 278.343 243.956 278.322 243.927C278.301 243.898 278.286 243.865 278.278 243.83C278.27 243.795 278.268 243.759 278.274 243.724C278.28 243.688 278.293 243.654 278.312 243.624C278.331 243.593 278.356 243.567 278.385 243.546C278.414 243.525 278.447 243.51 278.482 243.502C278.517 243.493 278.553 243.492 278.588 243.498C278.624 243.504 278.658 243.517 278.688 243.536C278.719 243.555 278.745 243.579 278.766 243.609C278.787 243.638 278.802 243.671 278.81 243.706C278.819 243.741 278.82 243.777 278.814 243.812C278.808 243.848 278.795 243.882 278.776 243.912C278.752 243.952 278.718 243.986 278.677 244.01C278.637 244.033 278.591 244.047 278.544 244.048C278.492 244.048 278.442 244.031 278.4 244ZM334.336 243.712C334.314 243.684 334.297 243.651 334.288 243.617C334.278 243.582 334.275 243.546 334.28 243.51C334.284 243.474 334.296 243.44 334.314 243.408C334.332 243.377 334.356 243.35 334.384 243.328C334.412 243.306 334.445 243.289 334.479 243.28C334.514 243.27 334.55 243.267 334.586 243.272C334.622 243.276 334.656 243.288 334.688 243.306C334.719 243.324 334.746 243.347 334.768 243.376C334.809 243.434 334.827 243.506 334.818 243.577C334.809 243.648 334.774 243.713 334.72 243.76C334.675 243.797 334.618 243.817 334.56 243.816C334.516 243.822 334.471 243.817 334.429 243.802C334.387 243.787 334.35 243.761 334.32 243.728L334.336 243.712ZM237.92 243.248C237.878 243.189 237.86 243.116 237.871 243.045C237.881 242.973 237.919 242.908 237.976 242.864C238.035 242.822 238.108 242.804 238.179 242.815C238.251 242.825 238.316 242.863 238.36 242.92C238.402 242.979 238.42 243.052 238.409 243.123C238.399 243.195 238.361 243.26 238.304 243.304C238.257 243.338 238.202 243.357 238.144 243.36C238.099 243.364 238.054 243.358 238.012 243.341C237.971 243.325 237.933 243.298 237.904 243.264L237.92 243.248ZM276.072 242.616C276.041 242.598 276.014 242.574 275.992 242.545C275.97 242.516 275.954 242.483 275.945 242.448C275.936 242.413 275.934 242.377 275.94 242.341C275.945 242.305 275.957 242.271 275.976 242.24C275.993 242.209 276.017 242.182 276.045 242.16C276.073 242.138 276.105 242.123 276.14 242.114C276.174 242.105 276.21 242.103 276.245 242.108C276.28 242.113 276.314 242.125 276.344 242.144C276.376 242.161 276.404 242.184 276.426 242.211C276.449 242.239 276.465 242.271 276.475 242.306C276.485 242.34 276.487 242.376 276.483 242.412C276.478 242.447 276.466 242.481 276.448 242.512C276.424 242.555 276.389 242.591 276.347 242.616C276.305 242.641 276.257 242.655 276.208 242.656C276.156 242.66 276.104 242.652 276.056 242.632L276.072 242.616ZM336.456 242.016C336.433 241.988 336.416 241.956 336.406 241.922C336.396 241.887 336.392 241.851 336.396 241.816C336.4 241.78 336.411 241.745 336.428 241.714C336.445 241.682 336.468 241.654 336.496 241.632C336.524 241.609 336.556 241.592 336.59 241.582C336.625 241.572 336.661 241.568 336.696 241.572C336.732 241.576 336.767 241.586 336.798 241.604C336.83 241.621 336.858 241.644 336.88 241.672C336.929 241.724 336.956 241.793 336.956 241.864C336.956 241.935 336.929 242.004 336.88 242.056C336.829 242.094 336.768 242.117 336.704 242.12C336.656 242.13 336.606 242.128 336.56 242.112C336.513 242.097 336.472 242.069 336.44 242.032L336.456 242.016ZM240.128 241.664C240.107 241.634 240.092 241.601 240.084 241.565C240.077 241.529 240.076 241.493 240.083 241.457C240.089 241.421 240.103 241.387 240.123 241.356C240.144 241.326 240.17 241.3 240.2 241.28C240.262 241.24 240.337 241.227 240.408 241.241C240.48 241.256 240.543 241.299 240.584 241.36C240.623 241.42 240.637 241.494 240.622 241.565C240.607 241.635 240.565 241.697 240.504 241.736C240.46 241.767 240.406 241.784 240.352 241.784C240.307 241.787 240.261 241.78 240.219 241.762C240.177 241.744 240.141 241.716 240.112 241.68L240.128 241.664ZM273.728 241.328C273.664 241.294 273.617 241.236 273.596 241.167C273.575 241.098 273.582 241.024 273.616 240.96C273.632 240.928 273.655 240.899 273.682 240.876C273.709 240.852 273.741 240.834 273.775 240.823C273.809 240.812 273.845 240.808 273.881 240.811C273.917 240.813 273.952 240.823 273.984 240.84C274.047 240.877 274.094 240.936 274.116 241.005C274.138 241.074 274.134 241.149 274.104 241.216C274.078 241.259 274.042 241.295 273.999 241.32C273.955 241.345 273.906 241.359 273.856 241.36C273.797 241.376 273.735 241.37 273.68 241.344L273.728 241.328ZM338.528 240.264C338.477 240.213 338.449 240.144 338.449 240.072C338.449 240 338.477 239.931 338.528 239.88C338.58 239.831 338.649 239.804 338.72 239.804C338.791 239.804 338.86 239.831 338.912 239.88C338.961 239.932 338.988 240.001 338.988 240.072C338.988 240.143 338.961 240.212 338.912 240.264C338.889 240.287 338.861 240.305 338.831 240.317C338.801 240.33 338.769 240.336 338.736 240.336C338.698 240.342 338.659 240.341 338.622 240.331C338.585 240.321 338.55 240.304 338.52 240.28L338.528 240.264ZM242.4 240.232C242.382 240.201 242.37 240.166 242.365 240.13C242.36 240.094 242.363 240.057 242.373 240.022C242.382 239.987 242.399 239.954 242.422 239.926C242.444 239.897 242.472 239.873 242.504 239.856C242.567 239.821 242.641 239.813 242.709 239.832C242.778 239.852 242.837 239.898 242.872 239.96C242.89 239.991 242.902 240.026 242.907 240.062C242.912 240.098 242.909 240.135 242.9 240.17C242.89 240.205 242.873 240.238 242.851 240.266C242.828 240.295 242.8 240.318 242.768 240.336C242.723 240.346 242.677 240.346 242.632 240.336C242.588 240.339 242.544 240.331 242.503 240.313C242.463 240.295 242.427 240.267 242.4 240.232ZM271.24 240.184C271.207 240.169 271.178 240.148 271.154 240.122C271.129 240.096 271.11 240.066 271.097 240.032C271.085 239.999 271.079 239.963 271.08 239.927C271.081 239.892 271.089 239.857 271.104 239.824C271.119 239.791 271.14 239.762 271.166 239.738C271.192 239.713 271.222 239.694 271.256 239.681C271.289 239.669 271.325 239.663 271.361 239.664C271.396 239.665 271.432 239.673 271.464 239.688C271.497 239.702 271.528 239.722 271.553 239.748C271.578 239.774 271.597 239.805 271.61 239.839C271.623 239.872 271.628 239.908 271.627 239.944C271.625 239.98 271.616 240.016 271.6 240.048C271.579 240.096 271.544 240.136 271.5 240.165C271.456 240.193 271.404 240.208 271.352 240.208C271.316 240.207 271.281 240.199 271.248 240.184H271.24ZM268.752 239.2C268.718 239.188 268.686 239.17 268.659 239.146C268.632 239.121 268.61 239.092 268.595 239.059C268.58 239.026 268.572 238.99 268.572 238.954C268.571 238.917 268.578 238.881 268.592 238.848C268.619 238.781 268.67 238.727 268.736 238.697C268.802 238.668 268.876 238.664 268.944 238.688C269.011 238.715 269.065 238.766 269.095 238.832C269.124 238.897 269.128 238.972 269.104 239.04C269.085 239.093 269.051 239.138 269.005 239.17C268.959 239.201 268.904 239.217 268.848 239.216C268.815 239.219 268.782 239.213 268.752 239.2ZM244.8 238.976C244.772 238.91 244.771 238.836 244.796 238.769C244.822 238.702 244.872 238.647 244.936 238.616C244.969 238.6 245.005 238.591 245.042 238.589C245.078 238.587 245.115 238.593 245.149 238.606C245.183 238.618 245.215 238.638 245.242 238.663C245.268 238.688 245.289 238.718 245.304 238.752C245.319 238.785 245.326 238.821 245.327 238.857C245.327 238.893 245.321 238.929 245.307 238.962C245.294 238.996 245.274 239.026 245.249 239.052C245.224 239.078 245.193 239.098 245.16 239.112C245.123 239.12 245.085 239.12 245.048 239.112C244.998 239.114 244.949 239.103 244.905 239.079C244.861 239.055 244.825 239.019 244.8 238.976ZM266.184 238.328C266.115 238.306 266.057 238.257 266.022 238.193C265.988 238.129 265.98 238.054 266 237.984C266.022 237.915 266.071 237.857 266.135 237.822C266.199 237.788 266.274 237.78 266.344 237.8C266.413 237.822 266.471 237.87 266.506 237.935C266.54 237.999 266.548 238.074 266.528 238.144C266.51 238.2 266.474 238.248 266.427 238.282C266.38 238.317 266.323 238.336 266.264 238.336H266.184V238.328ZM247.312 237.952C247.301 237.918 247.297 237.882 247.299 237.846C247.302 237.81 247.312 237.775 247.328 237.743C247.345 237.711 247.367 237.683 247.395 237.66C247.422 237.636 247.454 237.619 247.488 237.608C247.522 237.597 247.558 237.592 247.594 237.595C247.63 237.598 247.665 237.608 247.697 237.624C247.729 237.641 247.757 237.663 247.78 237.691C247.804 237.718 247.821 237.75 247.832 237.784C247.843 237.818 247.848 237.854 247.845 237.89C247.842 237.926 247.832 237.961 247.816 237.993C247.799 238.025 247.777 238.053 247.749 238.076C247.722 238.099 247.69 238.117 247.656 238.128H247.568C247.514 238.127 247.461 238.109 247.417 238.078C247.373 238.047 247.339 238.003 247.32 237.952H247.312ZM263.576 237.664C263.506 237.649 263.445 237.606 263.407 237.547C263.368 237.487 263.354 237.414 263.368 237.344C263.375 237.308 263.388 237.274 263.409 237.244C263.429 237.213 263.456 237.188 263.486 237.168C263.517 237.148 263.552 237.136 263.588 237.13C263.624 237.125 263.661 237.127 263.696 237.136C263.731 237.143 263.764 237.156 263.794 237.176C263.824 237.196 263.849 237.222 263.868 237.251C263.888 237.281 263.901 237.315 263.907 237.35C263.913 237.385 263.912 237.421 263.904 237.456C263.891 237.518 263.857 237.574 263.807 237.613C263.757 237.652 263.695 237.673 263.632 237.672H263.576V237.664ZM249.912 237.208C249.904 237.172 249.903 237.135 249.91 237.099C249.916 237.063 249.93 237.029 249.95 236.998C249.97 236.967 249.996 236.941 250.027 236.921C250.058 236.9 250.092 236.887 250.128 236.88C250.198 236.866 250.271 236.879 250.331 236.918C250.391 236.957 250.433 237.018 250.448 237.088C250.456 237.123 250.457 237.16 250.451 237.195C250.445 237.231 250.432 237.265 250.413 237.296C250.394 237.326 250.368 237.353 250.339 237.373C250.309 237.394 250.275 237.408 250.24 237.416H250.184C250.124 237.415 250.065 237.393 250.017 237.356C249.97 237.318 249.936 237.267 249.92 237.208H249.912ZM260.928 237.208C260.857 237.196 260.792 237.157 260.749 237.099C260.706 237.041 260.687 236.968 260.696 236.896C260.7 236.86 260.711 236.826 260.729 236.795C260.746 236.764 260.77 236.736 260.798 236.715C260.827 236.693 260.859 236.677 260.894 236.669C260.929 236.66 260.965 236.658 261 236.664C261.072 236.676 261.136 236.715 261.179 236.773C261.222 236.831 261.241 236.904 261.232 236.976C261.221 237.04 261.188 237.099 261.138 237.141C261.088 237.183 261.025 237.207 260.96 237.208H260.92H260.928ZM252.584 236.752C252.577 236.681 252.599 236.61 252.644 236.555C252.688 236.5 252.753 236.464 252.824 236.456C252.86 236.45 252.897 236.452 252.932 236.461C252.967 236.471 253 236.487 253.028 236.51C253.057 236.532 253.081 236.56 253.098 236.592C253.115 236.624 253.125 236.66 253.128 236.696C253.135 236.769 253.113 236.842 253.066 236.899C253.02 236.956 252.953 236.992 252.88 237C252.808 237.002 252.739 236.977 252.685 236.929C252.631 236.882 252.598 236.815 252.592 236.744L252.584 236.752ZM258.248 236.928C258.212 236.927 258.176 236.919 258.144 236.903C258.111 236.888 258.082 236.866 258.058 236.839C258.034 236.812 258.015 236.781 258.004 236.746C257.993 236.712 257.989 236.676 257.992 236.64C257.994 236.604 258.003 236.569 258.019 236.537C258.034 236.505 258.056 236.476 258.083 236.452C258.11 236.428 258.141 236.41 258.175 236.398C258.209 236.387 258.244 236.382 258.28 236.384C258.353 236.39 258.421 236.424 258.468 236.48C258.516 236.535 258.541 236.607 258.536 236.68C258.532 236.749 258.502 236.814 258.451 236.862C258.4 236.91 258.334 236.936 258.264 236.936L258.248 236.928ZM255.288 236.576C255.287 236.54 255.293 236.504 255.307 236.471C255.32 236.437 255.34 236.407 255.365 236.381C255.391 236.356 255.421 236.336 255.455 236.322C255.488 236.309 255.524 236.303 255.56 236.304C255.632 236.304 255.701 236.333 255.752 236.384C255.803 236.435 255.832 236.504 255.832 236.576C255.832 236.648 255.803 236.717 255.752 236.768C255.701 236.819 255.632 236.848 255.56 236.848C255.524 236.847 255.489 236.839 255.457 236.824C255.424 236.81 255.395 236.789 255.37 236.763C255.346 236.737 255.326 236.706 255.314 236.673C255.301 236.639 255.295 236.604 255.296 236.568L255.288 236.576Z" fill="white"/>
<path d="M201.8 255.2C201.766 255.207 201.73 255.207 201.696 255.2C201.662 255.186 201.632 255.164 201.608 255.136C201.58 255.113 201.561 255.082 201.552 255.048C201.544 255.014 201.544 254.978 201.552 254.944C201.555 254.872 201.583 254.804 201.632 254.752C201.656 254.726 201.686 254.707 201.72 254.696C201.752 254.68 201.788 254.672 201.824 254.672C201.86 254.672 201.896 254.68 201.928 254.696C201.963 254.705 201.993 254.724 202.016 254.752C202.042 254.777 202.062 254.807 202.076 254.84C202.089 254.873 202.096 254.908 202.096 254.944C202.104 254.978 202.104 255.014 202.096 255.048C202.084 255.083 202.062 255.114 202.032 255.136C202.008 255.164 201.978 255.186 201.944 255.2C201.897 255.216 201.847 255.216 201.8 255.2Z" fill="white"/>
</g>
<path d="M245.664 173.288L243.8 171.272C240.434 174.456 235.985 176.246 231.352 176.28C227.675 176.338 224.096 175.1 221.24 172.783C218.385 170.466 216.436 167.218 215.736 163.608L212.936 164.344L210.376 165.016C211.103 168.795 212.874 172.295 215.488 175.12C223.608 183.872 238 183.872 247.376 175.12L245.664 173.288Z" fill="white"/>
<path d="M249.656 143.24L247.2 145.52L245.512 147.12C247.002 148.737 248.141 150.645 248.857 152.724C249.573 154.803 249.85 157.008 249.672 159.2C249.309 163.826 247.211 168.143 243.8 171.288L245.264 172.888L247.376 175.16C251.875 171.005 254.641 165.305 255.12 159.2C255.359 156.307 254.997 153.395 254.056 150.649C253.116 147.902 251.618 145.38 249.656 143.24Z" fill="#263238"/>
<path d="M249.656 143.24C241.536 134.496 227.144 134.496 217.776 143.24C214.811 145.954 212.58 149.373 211.291 153.18C210.001 156.988 209.695 161.059 210.4 165.016L213.6 164.216L215.792 163.64C215.512 162.183 215.426 160.696 215.536 159.216C215.925 154.601 218.015 150.296 221.401 147.137C224.786 143.977 229.226 142.189 233.856 142.12C236.051 142.096 238.228 142.529 240.247 143.391C242.266 144.253 244.083 145.526 245.584 147.128L247.744 145.104L249.656 143.24Z" fill="#2B786C"/>
<path d="M272.64 173.288L274.792 171.272C273.306 169.654 272.172 167.747 271.46 165.669C270.748 163.591 270.475 161.389 270.656 159.2C270.984 155.355 272.491 151.705 274.971 148.748C277.451 145.792 280.783 143.672 284.512 142.68L283.968 139.928L283.48 137.416C279.543 138.465 275.926 140.471 272.952 143.256C263.576 152 262.552 166.392 270.664 175.144L272.64 173.288Z" fill="white"/>
<path d="M302.552 175.128L300.432 172.84L298.976 171.24C295.611 174.428 291.163 176.22 286.528 176.256C284.331 176.28 282.154 175.847 280.134 174.985C278.113 174.123 276.294 172.85 274.792 171.248L273.104 172.848L270.664 175.128C272.648 177.235 275.047 178.91 277.71 180.045C280.373 181.181 283.241 181.754 286.136 181.728C292.244 181.676 298.107 179.318 302.552 175.128Z" fill="#263238"/>
<path d="M302.552 175.128C311.92 166.376 312.952 151.984 304.84 143.24C302.145 140.42 298.733 138.387 294.97 137.358C291.207 136.329 287.235 136.344 283.48 137.4L284.088 140.512L284.512 142.664C285.969 142.282 287.469 142.088 288.976 142.088C291.176 142.056 293.359 142.486 295.382 143.351C297.406 144.217 299.225 145.497 300.721 147.111C302.218 148.724 303.358 150.634 304.069 152.717C304.78 154.799 305.046 157.008 304.848 159.2C304.483 163.823 302.386 168.137 298.976 171.28L300.848 173.304L302.552 175.128Z" fill="#2B786C"/>
<path opacity="0.3" d="M340.336 138.648C340.556 138.647 340.773 138.692 340.975 138.78C341.177 138.867 341.359 138.995 341.509 139.155C341.659 139.316 341.774 139.506 341.848 139.713C341.921 139.92 341.951 140.141 341.936 140.36L340.944 154.16C340.897 154.648 340.674 155.102 340.316 155.436C339.958 155.771 339.49 155.963 339 155.976H325.192C324.971 155.977 324.753 155.932 324.551 155.844C324.348 155.756 324.166 155.627 324.016 155.466C323.866 155.304 323.75 155.113 323.678 154.905C323.605 154.697 323.575 154.476 323.592 154.256L324.576 140.456C324.623 139.969 324.847 139.516 325.205 139.183C325.563 138.85 326.031 138.659 326.52 138.648H340.32M340.32 137.936H326.536C325.868 137.949 325.227 138.209 324.739 138.665C324.25 139.121 323.947 139.742 323.888 140.408L322.904 154.208C322.877 154.524 322.917 154.842 323.02 155.141C323.123 155.441 323.287 155.716 323.503 155.949C323.718 156.181 323.979 156.367 324.27 156.492C324.561 156.618 324.875 156.682 325.192 156.68H338.992C339.661 156.669 340.302 156.41 340.791 155.953C341.28 155.496 341.583 154.875 341.64 154.208L342.632 140.408C342.659 140.091 342.619 139.773 342.516 139.473C342.412 139.172 342.247 138.897 342.031 138.664C341.814 138.431 341.552 138.246 341.26 138.121C340.968 137.996 340.654 137.933 340.336 137.936H340.32Z" fill="#2B786C"/>
<path opacity="0.3" d="M338.632 162.4C338.852 162.399 339.07 162.444 339.271 162.532C339.473 162.619 339.655 162.747 339.805 162.908C339.955 163.068 340.07 163.258 340.144 163.465C340.217 163.672 340.247 163.893 340.232 164.112L339.248 177.912C339.2 178.399 338.976 178.852 338.618 179.186C338.26 179.52 337.793 179.713 337.304 179.728H323.496C323.275 179.729 323.057 179.684 322.855 179.596C322.652 179.508 322.47 179.379 322.32 179.218C322.17 179.056 322.055 178.865 321.982 178.657C321.909 178.449 321.879 178.228 321.896 178.008L322.888 164.208C322.935 163.721 323.159 163.268 323.517 162.935C323.875 162.602 324.343 162.411 324.832 162.4H338.624M338.624 161.688H324.84C324.171 161.699 323.53 161.958 323.041 162.415C322.552 162.872 322.249 163.493 322.192 164.16L321.2 177.96C321.173 178.277 321.213 178.595 321.316 178.895C321.42 179.196 321.585 179.471 321.801 179.704C322.017 179.936 322.28 180.122 322.572 180.247C322.864 180.372 323.178 180.435 323.496 180.432H337.296C337.964 180.419 338.605 180.159 339.093 179.703C339.582 179.247 339.885 178.626 339.944 177.96L340.928 164.16C340.955 163.843 340.915 163.525 340.812 163.225C340.708 162.924 340.543 162.649 340.327 162.416C340.111 162.183 339.848 161.998 339.556 161.873C339.264 161.748 338.95 161.685 338.632 161.688H338.624Z" fill="#2B786C"/>
<path d="M318.4 238.744C318.585 238.739 318.77 238.774 318.941 238.846C319.112 238.917 319.265 239.025 319.392 239.16C319.517 239.297 319.613 239.459 319.672 239.636C319.731 239.812 319.753 239.999 319.736 240.184C319.701 240.599 319.513 240.987 319.208 241.272C318.904 241.557 318.505 241.72 318.088 241.728C317.902 241.734 317.717 241.699 317.545 241.627C317.374 241.556 317.219 241.448 317.093 241.311C316.966 241.175 316.87 241.013 316.812 240.837C316.753 240.66 316.733 240.473 316.752 240.288C316.786 239.872 316.973 239.483 317.278 239.198C317.583 238.912 317.983 238.751 318.4 238.744ZM318.4 238.04C317.806 238.05 317.237 238.279 316.803 238.684C316.368 239.089 316.099 239.64 316.048 240.232C316.022 240.514 316.056 240.798 316.147 241.066C316.238 241.334 316.385 241.579 316.577 241.787C316.77 241.995 317.004 242.159 317.264 242.27C317.524 242.381 317.805 242.437 318.088 242.432C318.683 242.422 319.253 242.192 319.688 241.785C320.122 241.379 320.39 240.825 320.44 240.232C320.465 239.951 320.43 239.668 320.338 239.401C320.247 239.134 320.1 238.889 319.907 238.682C319.715 238.476 319.482 238.312 319.222 238.201C318.962 238.09 318.682 238.036 318.4 238.04Z" fill="#2B786C"/>
<path d="M318.608 238.048L318.256 238.024L318.312 237.32L318.656 237.344L318.608 238.048Z" fill="#2B786C"/>
<path d="M318.76 235.904H318.408L318.512 234.464H318.864L318.76 235.904ZM318.968 233.008H318.616L318.72 231.568H319.072L318.968 233.008ZM319.176 230.12H318.824L318.928 228.672H319.28L319.176 230.12ZM319.384 227.232H319.032L319.136 225.784H319.488L319.384 227.232ZM319.592 224.344H319.24L319.344 222.896H319.696L319.592 224.344ZM319.8 221.456H319.448L319.552 220.008H319.904L319.8 221.456ZM320.008 218.56H319.656L319.76 217.12H320.112L320.008 218.56ZM320.216 215.672H319.864L319.968 214.224H320.32L320.216 215.672ZM320.424 212.784H320.072L320.176 211.336H320.528L320.424 212.784ZM320.624 209.896H320.272L320.376 208.448H320.728L320.624 209.896ZM320.832 207.008H320.48L320.584 205.56H320.936L320.832 207.008Z" fill="#2B786C"/>
<path d="M320.729 203.388L320.679 204.09L321.031 204.115L321.08 203.412L320.729 203.388Z" fill="#2B786C"/>
<path d="M335.824 203.784H209.152C208.805 203.787 208.461 203.718 208.143 203.58C207.825 203.442 207.539 203.239 207.304 202.984C207.067 202.729 206.885 202.427 206.771 202.098C206.657 201.769 206.612 201.419 206.64 201.072L207.272 192.352C207.332 191.639 207.655 190.973 208.178 190.485C208.702 189.997 209.388 189.721 210.104 189.712H336.8C337.146 189.71 337.489 189.779 337.806 189.917C338.124 190.054 338.409 190.256 338.645 190.509C338.88 190.763 339.06 191.063 339.174 191.389C339.287 191.716 339.332 192.063 339.304 192.408L338.68 201.128C338.622 201.848 338.297 202.519 337.768 203.011C337.239 203.502 336.546 203.778 335.824 203.784ZM210.104 190.48C209.58 190.488 209.078 190.691 208.695 191.049C208.312 191.406 208.076 191.894 208.032 192.416L207.408 201.136C207.388 201.378 207.418 201.622 207.496 201.852C207.575 202.082 207.7 202.293 207.864 202.472C208.029 202.647 208.229 202.786 208.451 202.879C208.672 202.973 208.911 203.02 209.152 203.016H335.824C336.349 203.01 336.852 202.808 337.235 202.449C337.618 202.091 337.854 201.603 337.896 201.08L338.528 192.36C338.547 192.121 338.516 191.881 338.438 191.655C338.359 191.428 338.235 191.22 338.073 191.044C337.911 190.867 337.714 190.726 337.495 190.629C337.276 190.532 337.04 190.481 336.8 190.48H210.104Z" fill="#2B786C"/>
<path opacity="0.8" fill-rule="evenodd" clip-rule="evenodd" d="M333.104 195.344H213.024C212.871 195.346 212.719 195.315 212.579 195.255C212.438 195.194 212.312 195.105 212.208 194.993C212.104 194.88 212.024 194.748 211.975 194.603C211.925 194.458 211.907 194.304 211.92 194.152C211.949 193.833 212.095 193.536 212.33 193.317C212.565 193.099 212.872 192.974 213.192 192.968H333.28C333.432 192.966 333.583 192.996 333.722 193.056C333.862 193.117 333.987 193.205 334.091 193.317C334.194 193.428 334.273 193.56 334.322 193.704C334.371 193.848 334.389 194.001 334.376 194.152C334.35 194.473 334.206 194.773 333.97 194.994C333.735 195.214 333.426 195.339 333.104 195.344Z" fill="white"/>
<path opacity="0.8" fill-rule="evenodd" clip-rule="evenodd" d="M313.096 200.344H212.664C212.512 200.346 212.361 200.316 212.222 200.255C212.082 200.195 211.957 200.107 211.853 199.995C211.75 199.884 211.671 199.752 211.622 199.608C211.573 199.464 211.555 199.311 211.568 199.16C211.594 198.839 211.738 198.539 211.974 198.318C212.209 198.098 212.518 197.973 212.84 197.968H313.264C313.423 197.961 313.582 197.989 313.73 198.05C313.878 198.11 314.01 198.203 314.118 198.32C314.227 198.437 314.308 198.577 314.356 198.729C314.405 198.881 314.42 199.042 314.4 199.2C314.361 199.517 314.206 199.809 313.966 200.02C313.725 200.231 313.416 200.346 313.096 200.344Z" fill="white"/>
<path d="M161.6 133.952L161.049 133.157C160.711 132.677 160.529 132.105 160.529 131.519V129.729C160.529 129.032 160.279 128.358 159.825 127.829C159.37 127.3 158.741 126.952 158.051 126.847V125.994C158.051 125.889 158.01 125.789 157.936 125.715C157.862 125.641 157.762 125.6 157.658 125.6C157.606 125.6 157.555 125.61 157.508 125.63C157.46 125.65 157.417 125.679 157.38 125.715C157.344 125.752 157.315 125.795 157.296 125.843C157.276 125.891 157.267 125.942 157.267 125.994V126.82C156.557 126.904 155.903 127.245 155.428 127.779C154.953 128.314 154.691 129.003 154.69 129.718V131.571C154.69 132.208 154.475 132.826 154.082 133.327L153.6 133.941L161.6 133.952Z" fill="#2B786C"/>
</svg>
