<svg width="400" height="400" viewBox="0 0 400 400" fill="none" xmlns="http://www.w3.org/2000/svg">
<path d="M359.92 318.792H333.424V318.992H359.92V318.792Z" fill="#EBEBEB"/>
<path d="M264.976 320.968H258.024V321.168H264.976V320.968Z" fill="#EBEBEB"/>
<path d="M332.624 311.368H317.272V311.568H332.624V311.368Z" fill="#EBEBEB"/>
<path d="M76.52 312.712H41.968V312.912H76.52V312.712Z" fill="#EBEBEB"/>
<path d="M88.712 312.712H83.6479V312.912H88.712V312.712Z" fill="#EBEBEB"/>
<path d="M180.12 316.088H105.176V316.288H180.12V316.088Z" fill="#EBEBEB"/>
<path d="M189.6 270.24H35.1361C33.9246 270.24 32.7627 269.759 31.9061 268.902C31.0494 268.045 30.5681 266.884 30.5681 265.672V48.528C30.5787 47.3234 31.0646 46.1718 31.9201 45.3238C32.7756 44.4757 33.9315 44 35.1361 44H189.6C190.812 44 191.974 44.4813 192.83 45.3379C193.687 46.1946 194.168 47.3565 194.168 48.568V265.672C194.168 266.884 193.687 268.045 192.83 268.902C191.974 269.759 190.812 270.24 189.6 270.24ZM35.1361 44.16C33.9783 44.1621 32.8685 44.623 32.0498 45.4417C31.2311 46.2604 30.7702 47.3702 30.7681 48.528V265.672C30.7702 266.83 31.2311 267.94 32.0498 268.758C32.8685 269.577 33.9783 270.038 35.1361 270.04H189.6C190.758 270.038 191.868 269.577 192.686 268.758C193.505 267.94 193.966 266.83 193.968 265.672V48.528C193.966 47.3702 193.505 46.2604 192.686 45.4417C191.868 44.623 190.758 44.1621 189.6 44.16H35.1361Z" fill="#EBEBEB"/>
<path d="M362.648 270.24H208.168C206.957 270.238 205.797 269.756 204.94 268.9C204.084 268.044 203.602 266.883 203.6 265.672V48.528C203.613 47.3241 204.099 46.1737 204.954 45.3261C205.809 44.4785 206.964 44.002 208.168 44H362.648C363.85 44.0042 365.002 44.4818 365.854 45.3294C366.706 46.177 367.19 47.3262 367.2 48.528V265.672C367.2 266.881 366.721 268.04 365.868 268.896C365.015 269.753 363.857 270.236 362.648 270.24ZM208.168 44.16C207.01 44.1621 205.9 44.623 205.082 45.4417C204.263 46.2604 203.802 47.3702 203.8 48.528V265.672C203.802 266.83 204.263 267.94 205.082 268.758C205.9 269.577 207.01 270.038 208.168 270.04H362.648C363.806 270.038 364.916 269.577 365.734 268.758C366.553 267.94 367.014 266.83 367.016 265.672V48.528C367.014 47.3702 366.553 46.2604 365.734 45.4417C364.916 44.623 363.806 44.1621 362.648 44.16H208.168Z" fill="#EBEBEB"/>
<path d="M400 305.92H0V306.12H400V305.92Z" fill="#EBEBEB"/>
<path d="M249.712 305.712H69.1921L67.7041 300.608H251.2L249.712 305.712Z" fill="#E0E0E0"/>
<path d="M157.736 231.264H59.4319V265.2H157.736V231.264Z" fill="#EBEBEB"/>
<path d="M157.736 265.192H59.4319V299.128H157.736V265.192Z" fill="#EBEBEB"/>
<path d="M157.736 236.48V233.048H59.4321V236.48H157.736Z" fill="#E0E0E0"/>
<path d="M157.736 270.144V266.712H59.4321V270.144H157.736Z" fill="#E0E0E0"/>
<path d="M57.72 229.744V300.608H159.456V229.744H57.72ZM156 297.176H61.152V266.992H156V297.176ZM156 263.576H61.152V233.368H156V263.576Z" fill="#F5F5F5"/>
<path d="M259.472 231.264H161.168V265.2H259.472V231.264Z" fill="#EBEBEB"/>
<path d="M259.472 265.192H161.168V299.128H259.472V265.192Z" fill="#EBEBEB"/>
<path d="M259.472 236.48V233.048H161.168V236.48H259.472Z" fill="#E0E0E0"/>
<path d="M259.472 270.152V266.72H161.168V270.152H259.472Z" fill="#E0E0E0"/>
<path d="M159.456 229.744V300.608H261.192V229.744H159.456ZM257.76 297.176H162.888V266.992H257.76V297.176ZM257.76 263.576H162.888V233.368H257.76V263.576Z" fill="#F5F5F5"/>
<path d="M213.272 251.408C213.272 251.992 213.099 252.563 212.774 253.048C212.45 253.534 211.989 253.912 211.45 254.135C210.91 254.359 210.317 254.417 209.744 254.303C209.171 254.189 208.645 253.908 208.233 253.495C207.82 253.083 207.539 252.557 207.425 251.984C207.311 251.411 207.369 250.818 207.593 250.278C207.816 249.739 208.194 249.278 208.68 248.953C209.165 248.629 209.736 248.456 210.32 248.456C211.103 248.456 211.854 248.767 212.407 249.321C212.961 249.874 213.272 250.625 213.272 251.408Z" fill="#E0E0E0"/>
<path d="M213.272 250.576C213.272 251.16 213.099 251.731 212.774 252.216C212.45 252.702 211.989 253.08 211.45 253.303C210.91 253.527 210.317 253.585 209.744 253.471C209.171 253.357 208.645 253.076 208.233 252.663C207.82 252.251 207.539 251.725 207.425 251.152C207.311 250.579 207.369 249.986 207.593 249.446C207.816 248.907 208.194 248.446 208.68 248.122C209.165 247.797 209.736 247.624 210.32 247.624C211.103 247.624 211.854 247.935 212.407 248.489C212.961 249.042 213.272 249.793 213.272 250.576Z" fill="#FAFAFA"/>
<path d="M213.272 282.576C213.272 283.16 213.099 283.731 212.774 284.216C212.45 284.702 211.989 285.08 211.45 285.303C210.91 285.527 210.317 285.585 209.744 285.471C209.171 285.357 208.645 285.076 208.233 284.663C207.82 284.251 207.539 283.725 207.425 283.152C207.311 282.579 207.369 281.986 207.593 281.446C207.816 280.907 208.194 280.446 208.68 280.122C209.165 279.797 209.736 279.624 210.32 279.624C211.103 279.624 211.854 279.935 212.407 280.489C212.961 281.042 213.272 281.793 213.272 282.576Z" fill="#E0E0E0"/>
<path d="M213.272 281.744C213.272 282.328 213.099 282.899 212.774 283.384C212.45 283.869 211.989 284.248 211.45 284.471C210.91 284.695 210.317 284.753 209.744 284.639C209.171 284.525 208.645 284.244 208.233 283.831C207.82 283.419 207.539 282.893 207.425 282.32C207.311 281.747 207.369 281.154 207.593 280.614C207.816 280.075 208.194 279.614 208.68 279.29C209.165 278.965 209.736 278.792 210.32 278.792C211.103 278.792 211.854 279.103 212.407 279.657C212.961 280.21 213.272 280.961 213.272 281.744Z" fill="#FAFAFA"/>
<path d="M111.536 251.408C111.536 251.992 111.363 252.563 111.039 253.048C110.714 253.534 110.253 253.912 109.714 254.135C109.174 254.359 108.581 254.417 108.008 254.303C107.436 254.189 106.91 253.908 106.497 253.495C106.084 253.083 105.803 252.557 105.689 251.984C105.575 251.411 105.633 250.818 105.857 250.278C106.08 249.739 106.459 249.278 106.944 248.953C107.429 248.629 108 248.456 108.584 248.456C109.367 248.456 110.118 248.767 110.671 249.321C111.225 249.874 111.536 250.625 111.536 251.408Z" fill="#E0E0E0"/>
<path d="M111.536 250.576C111.536 251.16 111.363 251.731 111.039 252.216C110.714 252.702 110.253 253.08 109.714 253.303C109.174 253.527 108.581 253.585 108.008 253.471C107.436 253.357 106.91 253.076 106.497 252.663C106.084 252.251 105.803 251.725 105.689 251.152C105.575 250.579 105.633 249.986 105.857 249.446C106.08 248.907 106.459 248.446 106.944 248.122C107.429 247.797 108 247.624 108.584 247.624C109.367 247.624 110.118 247.935 110.671 248.489C111.225 249.042 111.536 249.793 111.536 250.576Z" fill="#FAFAFA"/>
<path d="M111.536 282.576C111.536 283.16 111.363 283.731 111.039 284.216C110.714 284.702 110.253 285.08 109.714 285.303C109.174 285.527 108.581 285.585 108.008 285.471C107.436 285.357 106.91 285.076 106.497 284.663C106.084 284.251 105.803 283.725 105.689 283.152C105.575 282.579 105.633 281.986 105.857 281.446C106.08 280.907 106.459 280.446 106.944 280.122C107.429 279.797 108 279.624 108.584 279.624C109.367 279.624 110.118 279.935 110.671 280.489C111.225 281.042 111.536 281.793 111.536 282.576Z" fill="#E0E0E0"/>
<path d="M111.536 281.744C111.536 282.328 111.363 282.899 111.039 283.384C110.714 283.869 110.253 284.248 109.714 284.471C109.174 284.695 108.581 284.753 108.008 284.639C107.436 284.525 106.91 284.244 106.497 283.831C106.084 283.419 105.803 282.893 105.689 282.32C105.575 281.747 105.633 281.154 105.857 280.614C106.08 280.075 106.459 279.614 106.944 279.29C107.429 278.965 108 278.792 108.584 278.792C109.367 278.792 110.118 279.103 110.671 279.657C111.225 280.21 111.536 280.961 111.536 281.744Z" fill="#FAFAFA"/>
<path d="M297.2 218.464C298.976 216.488 301.536 214.336 304.224 213.912C312.472 212.592 311.552 229.52 311.472 233.848C311.472 234.007 311.535 234.16 311.648 234.272C311.76 234.385 311.913 234.448 312.072 234.448C312.231 234.448 312.384 234.385 312.496 234.272C312.609 234.16 312.672 234.007 312.672 233.848C312.768 228.744 313.672 212.736 305.12 212.632C301.784 212.592 298.48 215.248 296.32 217.616C295.808 218.192 296.656 219.048 297.168 218.464H297.2Z" fill="#E0E0E0"/>
<path d="M322.864 208.064C321.16 208.328 319.824 210.312 319.032 211.64C315.24 218.04 314.992 226.664 314.744 233.848C314.744 234.648 315.92 234.648 315.944 233.848C316.176 226.96 316.392 218.872 319.84 212.656C320.496 211.472 321.64 209.456 323.184 209.224C323.944 209.104 323.616 207.944 322.864 208.064Z" fill="#E0E0E0"/>
<path d="M296.8 218.04C296.8 218.04 289.368 205.76 283.92 216.832C283.066 218.585 282.491 220.461 282.216 222.392C284.496 221.392 289.36 219.552 289.416 222.048C289.472 224.056 286.632 227.376 284.44 229.624C283.835 230.248 283.404 231.019 283.19 231.861C282.975 232.703 282.984 233.587 283.216 234.424C283.923 236.983 284.891 239.463 286.104 241.824C286.104 241.824 287.704 241.2 290.104 240.064C290.851 239.705 291.503 239.176 292.008 238.519C292.512 237.861 292.855 237.094 293.008 236.28C293.344 234.472 293.928 232.568 294.896 232C295.864 231.432 296.648 232.488 297.184 233.72C297.284 233.956 297.436 234.166 297.629 234.334C297.822 234.503 298.05 234.626 298.297 234.694C298.543 234.763 298.802 234.775 299.054 234.729C299.306 234.684 299.545 234.582 299.752 234.432C300.953 233.576 302.102 232.649 303.192 231.656C303.506 231.371 303.701 230.977 303.736 230.554C303.772 230.131 303.646 229.71 303.384 229.376C302.208 227.864 301.104 226.064 301.552 225.024C302 223.984 304.008 224.008 305.952 224.224C306.335 224.271 306.724 224.242 307.096 224.138C307.467 224.034 307.815 223.858 308.118 223.619C308.422 223.38 308.675 223.084 308.863 222.747C309.052 222.41 309.171 222.039 309.216 221.656C310.616 209.736 296.8 218.04 296.8 218.04Z" fill="#EBEBEB"/>
<path d="M325.688 205.424C325.688 205.424 333.112 193.144 338.568 204.216C339.426 205.982 340.001 207.872 340.272 209.816C337.992 208.816 333.128 206.976 333.072 209.472C333.016 211.48 335.856 214.792 338.048 217.04C338.651 217.665 339.082 218.436 339.296 219.278C339.511 220.119 339.502 221.003 339.272 221.84C338.565 224.399 337.597 226.879 336.384 229.24C336.384 229.24 334.784 228.616 332.384 227.472C331.636 227.116 330.984 226.589 330.479 225.932C329.974 225.276 329.632 224.51 329.48 223.696C329.144 221.888 328.56 219.976 327.592 219.416C326.624 218.856 325.84 219.904 325.304 221.128C325.206 221.365 325.055 221.577 324.863 221.748C324.671 221.918 324.442 222.043 324.195 222.112C323.948 222.181 323.688 222.194 323.435 222.148C323.182 222.102 322.943 222 322.736 221.848C321.539 220.987 320.39 220.06 319.296 219.072C318.982 218.787 318.787 218.393 318.752 217.97C318.716 217.547 318.842 217.126 319.104 216.792C320.28 215.28 321.384 213.48 320.928 212.44C320.472 211.4 318.48 211.424 316.536 211.64C316.153 211.687 315.764 211.658 315.393 211.554C315.021 211.45 314.673 211.273 314.37 211.035C314.067 210.796 313.813 210.5 313.625 210.163C313.437 209.826 313.317 209.455 313.272 209.072C311.848 197.12 325.688 205.424 325.688 205.424Z" fill="#E6E6E6"/>
<path d="M283.328 292C283.328 297.408 284.176 300.912 285.608 303.152C286.156 303.975 286.901 304.648 287.776 305.109C288.651 305.571 289.627 305.805 290.616 305.792H298.448C299.437 305.805 300.413 305.571 301.288 305.109C302.163 304.648 302.908 303.975 303.456 303.152C304.88 300.912 305.728 297.408 305.728 292C305.728 284.16 302.312 277.88 301.192 272.864C300.792 271.056 302.128 265.528 302.128 265.528H286.928C286.928 265.528 288.272 271.056 287.864 272.864C286.752 277.896 283.328 284.176 283.328 292Z" fill="#E6E6E6"/>
<path d="M294.528 260.272C294.528 253.464 305.208 256.272 307.896 245.72C308.92 241.72 300.232 232.656 300.232 232.656H327.312C327.312 232.656 318.624 241.72 319.648 245.72C322.336 256.288 333.016 253.464 333.016 260.272C333.016 267.776 317.952 283.392 317.224 300.976C317.16 302.576 320.064 305.776 320.064 305.776H307.488C307.488 305.776 310.384 302.52 310.32 300.976C309.6 283.392 294.528 267.776 294.528 260.272Z" fill="#F0F0F0"/>
<path d="M335.832 277.968C334.232 274.664 337.512 263.408 337.512 263.408H325.784C325.784 263.408 329.032 274.664 327.464 277.968C326.352 280.304 323.824 281.8 323.824 284.568V301.184C323.824 305.488 327.344 305.808 331.648 305.808C335.952 305.808 339.472 305.488 339.472 301.184V284.568C339.472 281.8 336.944 280.312 335.832 277.968Z" fill="#E6E6E6"/>
<path d="M319.2 229.336C319.2 229.336 326.912 223.52 328.288 231.64C328.504 232.908 328.504 234.204 328.288 235.472C326.944 234.312 324.008 232.024 323.424 233.552C322.96 234.776 324.224 237.496 325.216 239.4C325.501 239.905 325.635 240.481 325.601 241.06C325.567 241.639 325.366 242.196 325.024 242.664C323.986 244.084 322.795 245.385 321.472 246.544C321.472 246.544 320.488 245.744 319.072 244.504C318.646 244.132 318.316 243.663 318.11 243.137C317.904 242.61 317.828 242.042 317.888 241.48C318.04 240.288 318.048 238.976 317.504 238.392C316.96 237.808 316.2 238.28 315.576 238.912C315.443 239.034 315.286 239.126 315.115 239.184C314.944 239.242 314.763 239.263 314.583 239.248C314.403 239.232 314.229 239.179 314.071 239.092C313.912 239.005 313.774 238.887 313.664 238.744C313.03 237.938 312.442 237.097 311.904 236.224C311.827 236.107 311.774 235.975 311.75 235.836C311.726 235.698 311.73 235.556 311.763 235.419C311.796 235.283 311.857 235.155 311.942 235.043C312.027 234.93 312.134 234.837 312.256 234.768C313.384 234.112 314.52 233.264 314.44 232.512C314.36 231.76 312.976 231.312 311.592 231C311.06 230.902 310.586 230.601 310.271 230.161C309.956 229.721 309.825 229.175 309.904 228.64C311.528 220.936 319.2 229.336 319.2 229.336Z" fill="#E0E0E0"/>
<path d="M196.144 338.968C281.81 338.968 351.256 334.913 351.256 329.912C351.256 324.911 281.81 320.856 196.144 320.856C110.478 320.856 41.032 324.911 41.032 329.912C41.032 334.913 110.478 338.968 196.144 338.968Z" fill="#F5F5F5"/>
<path d="M301.352 135.64H304.872V125.384H301.352V135.64Z" fill="#263238"/>
<path d="M291.616 119.56C291.765 118.17 292.43 116.886 293.478 115.961C294.526 115.036 295.882 114.536 297.28 114.56C297.632 114.56 300.008 114.56 300.44 114.56C300.814 114.55 301.189 114.571 301.56 114.624C302.712 114.784 303.688 114.888 304.608 114.944C305.528 115 306.536 114.784 307.736 114.624C308.16 114.568 311.552 114.56 311.848 114.56C314.784 114.56 316.792 116.4 316.464 119.56V119.72C316.104 123.2 312.992 126.92 309.488 127.408C307.372 127.742 305.227 127.854 303.088 127.744C300.965 127.859 298.835 127.747 296.736 127.408C293.352 126.944 291.136 123.2 291.648 119.72L291.616 119.56Z" fill="#263238"/>
<path d="M315.72 130.04C315.256 130.04 313.088 130 312.408 130.04C311.829 130.072 311.255 130.166 310.696 130.32C308.032 131.088 305.299 131.59 302.536 131.816C299.892 131.602 297.279 131.1 294.744 130.32C294.042 130.118 293.314 130.021 292.584 130.032C292.096 130.032 290.04 130.032 289.496 130.032C288.239 129.999 287.018 130.45 286.083 131.291C285.149 132.132 284.572 133.299 284.472 134.552L279.624 166.552H309.52C312.227 166.559 314.874 165.762 317.128 164.264C318.061 154.36 318.995 144.459 319.928 134.56C320.216 131.512 318.448 129.936 315.72 130.04Z" fill="#263238"/>
<path opacity="0.2" d="M296.68 127.408C299.859 127.929 303.101 127.929 306.28 127.408C309.784 126.944 312.896 123.2 313.256 119.72V119.56C313.616 116.08 311.144 114.168 307.728 114.624C304.623 115.128 301.457 115.128 298.352 114.624C297.582 114.478 296.79 114.492 296.026 114.665C295.262 114.837 294.541 115.165 293.909 115.628C293.276 116.091 292.746 116.679 292.35 117.355C291.954 118.032 291.702 118.782 291.608 119.56V119.72C291.096 123.2 293.296 126.944 296.68 127.408Z" fill="white"/>
<path opacity="0.2" d="M310.696 130.32C302.92 132.392 298.808 132.392 291.544 130.32C288.064 129.328 285.024 130.88 284.472 134.552L279.624 166.552H309.52C310.968 166.551 312.406 166.325 313.784 165.88C314.76 155.437 315.741 144.997 316.728 134.56C317.072 130.88 314.4 129.328 310.696 130.32Z" fill="white"/>
<path d="M262.712 150.728L257.2 151.256L248.76 149.272L245.696 154.32L247.664 155.328L250.416 154.48L254.216 155.232L257.64 154.696L264.144 154.856L262.712 150.728Z" fill="#FFC3BD"/>
<path d="M260.48 150.52L261.792 155.232C261.792 155.232 271.296 156.52 275.032 154.888C278.768 153.256 275.944 125.672 272.352 125.976C268.76 126.28 270.752 141.536 270.752 146.328C270.736 149.992 260.48 150.52 260.48 150.52Z" fill="#2B786C"/>
<path opacity="0.7" d="M260.48 150.52L261.792 155.232C261.792 155.232 271.296 156.52 275.032 154.888C278.768 153.256 275.944 125.672 272.352 125.976C268.76 126.28 270.752 141.536 270.752 146.328C270.736 149.992 260.48 150.52 260.48 150.52Z" fill="white"/>
<path d="M271.64 126.016C268.04 131.16 276.32 139.248 276.488 166.544H303.2C304 159.176 306.736 130.272 302.888 124.816C298.464 118.56 275.072 121.104 271.64 126.016Z" fill="#2B786C"/>
<path d="M280.28 121.136C280.28 121.136 273.88 123.536 279.672 129.2L282.76 127.936L287.2 129.2C287.2 129.2 298.456 116.8 280.28 121.136Z" fill="#2B786C"/>
<path opacity="0.7" d="M280.28 121.136C280.28 121.136 273.88 123.536 279.672 129.2L282.76 127.936L287.2 129.2C287.2 129.2 298.456 116.8 280.28 121.136Z" fill="white"/>
<path d="M281.168 126.92C279.568 125.632 277.776 123.664 279.32 122.376C282.497 121.625 285.744 121.209 289.008 121.136C289.912 121.728 289.408 123.28 284.584 126.968C284.092 127.346 283.488 127.547 282.868 127.538C282.248 127.53 281.649 127.312 281.168 126.92Z" fill="#FFC3BD"/>
<path d="M279.528 118.768L284.888 112.952C285.4 117.416 287.776 121.072 288.256 121.224L287.672 123.264C281.176 130.568 279.672 123.56 279.672 123.56C281.256 122.232 279.528 118.768 279.528 118.768Z" fill="#FFC3BD"/>
<path opacity="0.2" d="M282.744 115.28L285.24 115.032C285.24 115.032 285.136 122.52 280.008 123.16C280.96 121.648 279.528 118.768 279.528 118.768L282.744 115.28Z" fill="#263238"/>
<path d="M284.16 106.544C285.32 111.84 286.272 114.864 284.44 118.368C283.855 119.511 282.969 120.472 281.878 121.148C280.786 121.824 279.531 122.189 278.247 122.204C276.964 122.219 275.7 121.883 274.594 121.232C273.487 120.582 272.579 119.641 271.968 118.512C269.568 114.208 268.04 106.28 272.48 102.592C273.42 101.77 274.559 101.209 275.783 100.966C277.008 100.722 278.275 100.805 279.458 101.205C280.641 101.605 281.697 102.309 282.523 103.246C283.348 104.183 283.912 105.32 284.16 106.544Z" fill="#FFC3BD"/>
<path d="M276.8 110.512C276.92 110.936 276.8 111.312 276.512 111.416C276.224 111.52 275.92 111.232 275.8 110.808C275.68 110.384 275.8 110.008 276.088 109.912C276.376 109.816 276.672 110.096 276.8 110.512Z" fill="#263238"/>
<path d="M272.064 112.04C272.192 112.464 272.064 112.84 271.784 112.936C271.504 113.032 271.192 112.752 271.064 112.328C270.936 111.904 271.064 111.528 271.36 111.432C271.656 111.336 271.944 111.616 272.064 112.04Z" fill="#263238"/>
<path d="M277.808 108.504C277.848 108.49 277.885 108.471 277.92 108.448C277.967 108.4 277.994 108.335 277.994 108.268C277.994 108.201 277.967 108.136 277.92 108.088C277.597 107.837 277.218 107.668 276.815 107.595C276.412 107.523 275.998 107.549 275.608 107.672C275.544 107.695 275.493 107.743 275.464 107.805C275.436 107.866 275.433 107.936 275.456 108C275.467 108.032 275.484 108.062 275.506 108.087C275.529 108.112 275.556 108.133 275.587 108.147C275.618 108.161 275.651 108.169 275.685 108.17C275.719 108.171 275.753 108.165 275.784 108.152C276.088 108.058 276.41 108.038 276.723 108.093C277.036 108.149 277.331 108.279 277.584 108.472C277.615 108.496 277.653 108.512 277.692 108.517C277.731 108.523 277.771 108.518 277.808 108.504Z" fill="#263238"/>
<path d="M269.6 111.048C269.639 111.034 269.672 111.009 269.698 110.976C269.723 110.944 269.739 110.905 269.744 110.864C269.788 110.533 269.907 110.216 270.093 109.939C270.279 109.661 270.526 109.431 270.816 109.264C270.873 109.224 270.912 109.163 270.925 109.094C270.939 109.026 270.925 108.955 270.888 108.896C270.855 108.853 270.81 108.821 270.759 108.803C270.708 108.784 270.653 108.78 270.6 108.792C270.239 108.991 269.929 109.27 269.694 109.609C269.46 109.948 269.307 110.336 269.248 110.744C269.236 110.811 269.252 110.88 269.291 110.935C269.33 110.991 269.389 111.028 269.456 111.04C269.478 111.051 269.502 111.058 269.527 111.059C269.552 111.061 269.577 111.057 269.6 111.048Z" fill="#263238"/>
<path d="M277.16 117.184C276.924 117.249 276.683 117.297 276.44 117.328C276.421 117.331 276.402 117.331 276.384 117.327C276.366 117.322 276.349 117.314 276.334 117.303C276.319 117.292 276.306 117.278 276.297 117.261C276.287 117.245 276.282 117.227 276.28 117.208C276.275 117.169 276.286 117.129 276.31 117.098C276.334 117.067 276.369 117.046 276.408 117.04C277.023 116.976 277.614 116.769 278.134 116.434C278.654 116.099 279.088 115.646 279.4 115.112C279.407 115.095 279.419 115.079 279.433 115.066C279.447 115.053 279.463 115.043 279.482 115.037C279.5 115.031 279.519 115.029 279.538 115.031C279.557 115.033 279.575 115.039 279.592 115.048C279.609 115.056 279.625 115.067 279.638 115.081C279.651 115.095 279.661 115.111 279.668 115.129C279.675 115.147 279.678 115.166 279.677 115.185C279.676 115.204 279.672 115.223 279.664 115.24C279.396 115.714 279.037 116.13 278.607 116.464C278.177 116.797 277.685 117.042 277.16 117.184Z" fill="#263238"/>
<path d="M273.712 111.768C273.578 113.222 273.255 114.653 272.752 116.024C273.099 116.139 273.468 116.176 273.831 116.133C274.195 116.091 274.545 115.969 274.856 115.776L273.712 111.768Z" fill="#ED893E"/>
<path d="M281.28 98.624C264.224 95.344 269.216 109.24 269.216 109.24C269.216 109.24 269.344 106.84 271.568 106.84C273.11 106.717 274.573 106.106 275.744 105.096C274.956 106.045 273.921 106.757 272.752 107.152C274.258 107.165 275.743 106.797 277.069 106.082C278.395 105.368 279.519 104.329 280.336 103.064C280.415 103.454 280.466 103.85 280.488 104.248C280.488 106.2 282.088 107.256 282.888 109.92C283.688 112.584 286.848 109.92 286.848 109.92C291.264 98.552 281.28 98.624 281.28 98.624Z" fill="#263238"/>
<path d="M287.36 110.304C287.337 111.515 286.857 112.672 286.016 113.544C284.912 114.672 283.616 113.824 283.352 112.328C283.088 110.976 283.352 108.776 284.768 108.216C286.184 107.656 287.376 108.8 287.36 110.304Z" fill="#FFC3BD"/>
<path d="M281.6 99.392C281.6 99.392 277.992 94.992 275.496 96.192C273 97.392 280 97.6 281.6 99.392Z" fill="#263238"/>
<path d="M281.288 151.648L275.776 152.176L267.336 149.344L263.432 153.552L265.392 154.552H268.992L272.8 156.144L276.216 155.616L282.72 155.776L281.288 151.648Z" fill="#FFC3BD"/>
<path d="M301.536 124.368C299.768 123.16 297.872 124.368 295.936 135.376C293.656 148.488 292.144 149.08 279.04 151.432L280.464 156.144C280.464 156.144 291.664 157.528 297.064 154.008C302.464 150.488 306.32 127.632 301.536 124.368Z" fill="#2B786C"/>
<path opacity="0.7" d="M301.536 124.368C299.768 123.16 297.872 124.368 295.936 135.376C293.656 148.488 292.144 149.08 279.04 151.432L280.464 156.144C280.464 156.144 291.664 157.528 297.064 154.008C302.464 150.488 306.32 127.632 301.536 124.368Z" fill="white"/>
<path d="M285.6 157.464H212.488C212.96 158.749 213.62 159.957 214.448 161.048H285.6C286.075 161.048 286.531 160.859 286.867 160.523C287.203 160.187 287.392 159.731 287.392 159.256C287.392 158.781 287.203 158.325 286.867 157.989C286.531 157.653 286.075 157.464 285.6 157.464Z" fill="#263238"/>
<path opacity="0.6" d="M285.6 157.464H212.488C212.96 158.749 213.62 159.957 214.448 161.048H285.6C286.075 161.048 286.531 160.859 286.867 160.523C287.203 160.187 287.392 159.731 287.392 159.256C287.392 158.781 287.203 158.325 286.867 157.989C286.531 157.653 286.075 157.464 285.6 157.464Z" fill="white"/>
<path d="M225.448 166.544H283.92V161.048H214.448C215.729 162.755 217.39 164.141 219.299 165.095C221.208 166.049 223.314 166.545 225.448 166.544Z" fill="#263238"/>
<path opacity="0.4" d="M225.448 166.544H283.92V161.048H214.448C215.729 162.755 217.39 164.141 219.299 165.095C221.208 166.049 223.314 166.545 225.448 166.544Z" fill="white"/>
<path d="M274.328 155.136H231.728C231.436 155.16 231.164 155.293 230.965 155.509C230.767 155.725 230.656 156.007 230.656 156.3C230.656 156.593 230.767 156.875 230.965 157.091C231.164 157.307 231.436 157.44 231.728 157.464H274.328C274.489 157.477 274.651 157.457 274.804 157.405C274.956 157.352 275.097 157.269 275.216 157.159C275.334 157.05 275.429 156.917 275.494 156.769C275.559 156.621 275.592 156.462 275.592 156.3C275.592 156.138 275.559 155.979 275.494 155.831C275.429 155.683 275.334 155.55 275.216 155.441C275.097 155.331 274.956 155.248 274.804 155.195C274.651 155.143 274.489 155.123 274.328 155.136Z" fill="#263238"/>
<path opacity="0.3" d="M274.328 155.136H231.728C231.436 155.16 231.164 155.293 230.965 155.509C230.767 155.725 230.656 156.007 230.656 156.3C230.656 156.593 230.767 156.875 230.965 157.091C231.164 157.307 231.436 157.44 231.728 157.464H274.328C274.489 157.477 274.651 157.457 274.804 157.405C274.956 157.352 275.097 157.269 275.216 157.159C275.334 157.05 275.429 156.917 275.494 156.769C275.559 156.621 275.592 156.462 275.592 156.3C275.592 156.138 275.559 155.979 275.494 155.831C275.429 155.683 275.334 155.55 275.216 155.441C275.097 155.331 274.956 155.248 274.804 155.195C274.651 155.143 274.489 155.123 274.328 155.136Z" fill="white"/>
<path d="M232.36 156.752H246.92C247.008 156.752 247.095 156.731 247.174 156.69C247.252 156.649 247.319 156.591 247.37 156.519C247.421 156.446 247.454 156.363 247.466 156.276C247.478 156.188 247.469 156.099 247.44 156.016L239.44 133.208C239.334 132.9 239.135 132.633 238.869 132.445C238.603 132.257 238.285 132.157 237.96 132.16H223.4C223.312 132.159 223.225 132.179 223.147 132.218C223.068 132.258 223 132.316 222.949 132.388C222.898 132.459 222.865 132.542 222.853 132.629C222.841 132.716 222.85 132.805 222.88 132.888L230.88 155.704C230.992 156.008 231.193 156.271 231.457 156.458C231.721 156.645 232.036 156.748 232.36 156.752Z" fill="#263238"/>
<path opacity="0.5" d="M232.36 156.752H246.92C247.008 156.752 247.095 156.731 247.174 156.69C247.252 156.649 247.319 156.591 247.37 156.519C247.421 156.446 247.454 156.363 247.466 156.276C247.478 156.188 247.469 156.099 247.44 156.016L239.44 133.208C239.334 132.9 239.135 132.633 238.869 132.445C238.603 132.257 238.285 132.157 237.96 132.16H223.4C223.312 132.159 223.225 132.179 223.147 132.218C223.068 132.258 223 132.316 222.949 132.388C222.898 132.459 222.865 132.542 222.853 132.629C222.841 132.716 222.85 132.805 222.88 132.888L230.88 155.704C230.992 156.008 231.193 156.271 231.457 156.458C231.721 156.645 232.036 156.748 232.36 156.752Z" fill="white"/>
<path d="M231.656 156.752H246.224C246.311 156.75 246.397 156.728 246.475 156.687C246.552 156.646 246.619 156.587 246.67 156.515C246.72 156.444 246.753 156.361 246.766 156.274C246.779 156.188 246.771 156.099 246.744 156.016L238.744 133.208C238.638 132.9 238.438 132.633 238.173 132.445C237.907 132.257 237.589 132.157 237.264 132.16H222.704C222.617 132.16 222.531 132.182 222.453 132.222C222.376 132.262 222.309 132.32 222.258 132.391C222.207 132.462 222.174 132.544 222.161 132.631C222.148 132.717 222.156 132.805 222.184 132.888L230.184 155.704C230.295 156.007 230.495 156.269 230.758 156.456C231.02 156.643 231.333 156.746 231.656 156.752Z" fill="#263238"/>
<path opacity="0.7" d="M231.656 156.752H246.224C246.311 156.75 246.397 156.728 246.475 156.687C246.552 156.646 246.619 156.587 246.67 156.515C246.72 156.444 246.753 156.361 246.766 156.274C246.779 156.188 246.771 156.099 246.744 156.016L238.744 133.208C238.638 132.9 238.438 132.633 238.173 132.445C237.907 132.257 237.589 132.157 237.264 132.16H222.704C222.617 132.16 222.531 132.182 222.453 132.222C222.376 132.262 222.309 132.32 222.258 132.391C222.207 132.462 222.174 132.544 222.161 132.631C222.148 132.717 222.156 132.805 222.184 132.888L230.184 155.704C230.295 156.007 230.495 156.269 230.758 156.456C231.02 156.643 231.333 156.746 231.656 156.752Z" fill="white"/>
<path d="M233.288 144.456C233.472 145.328 234.088 146.056 234.64 146.056C235.192 146.056 235.496 145.344 235.312 144.456C235.128 143.568 234.512 142.856 233.96 142.856C233.408 142.856 233.104 143.576 233.288 144.456Z" fill="white"/>
<path opacity="0.2" d="M248.8 157.464C248.508 157.44 248.236 157.307 248.037 157.091C247.839 156.875 247.729 156.593 247.729 156.3C247.729 156.007 247.839 155.725 248.037 155.509C248.236 155.293 248.508 155.16 248.8 155.136H274.336C274.497 155.123 274.659 155.143 274.812 155.195C274.964 155.248 275.105 155.331 275.224 155.441C275.342 155.55 275.437 155.683 275.502 155.831C275.567 155.979 275.601 156.138 275.601 156.3C275.601 156.462 275.567 156.621 275.502 156.769C275.437 156.917 275.342 157.05 275.224 157.159C275.105 157.269 274.964 157.352 274.812 157.405C274.659 157.457 274.497 157.477 274.336 157.464H248.8Z" fill="white"/>
<path d="M222.92 119.096H220V125.456H222.92V119.096Z" fill="#2B786C"/>
<path d="M257.896 119.096H254.976V125.456H257.896V119.096Z" fill="#2B786C"/>
<path d="M240.36 106.8H240.016C240.704 96.584 239.216 93.264 237.792 92.28C237.575 92.1125 237.32 92.0002 237.05 91.9528C236.779 91.9055 236.501 91.9244 236.24 92.008L236.104 91.696C236.418 91.5849 236.754 91.5546 237.083 91.6077C237.411 91.6608 237.721 91.7957 237.984 92C239.456 93.016 241.056 96.424 240.36 106.8Z" fill="#2B786C"/>
<path d="M238.4 105.768C238.064 97.08 239.568 93.832 240.896 92.648C241.101 92.4326 241.35 92.2634 241.626 92.1516C241.902 92.0399 242.199 91.9882 242.496 92L242.448 92.344C242.201 92.3411 241.956 92.391 241.73 92.4903C241.504 92.5896 241.301 92.7361 241.136 92.92C239.88 94.072 238.448 97.232 238.776 105.72L238.4 105.768Z" fill="#2B786C"/>
<path d="M239.88 105.768H239.544C239.896 100.552 239.248 97.448 237.68 96.792C235.624 95.928 232.56 99.36 232.528 99.4L232.272 99.168C232.4 99.024 235.528 95.52 237.808 96.472C239.552 97.176 240.256 100.312 239.88 105.768Z" fill="#2B786C"/>
<path d="M239.016 106.104C239.016 102.904 239.68 100.912 241 100.224C242.48 99.424 244.2 100.592 244.272 100.648L244.072 100.928C244.072 100.928 242.472 99.84 241.16 100.528C239.848 101.216 239.36 103.032 239.36 106.128L239.016 106.104Z" fill="#2B786C"/>
<g opacity="0.2">
<path d="M240.36 106.8H240.016C240.704 96.584 239.216 93.264 237.792 92.28C237.575 92.1125 237.32 92.0002 237.05 91.9528C236.779 91.9055 236.501 91.9244 236.24 92.008L236.104 91.696C236.418 91.5849 236.754 91.5546 237.083 91.6077C237.411 91.6608 237.721 91.7957 237.984 92C239.456 93.016 241.056 96.424 240.36 106.8Z" fill="black"/>
<path d="M238.4 105.768C238.064 97.08 239.568 93.832 240.896 92.648C241.101 92.4326 241.35 92.2634 241.626 92.1516C241.902 92.0399 242.199 91.9882 242.496 92L242.448 92.344C242.201 92.3411 241.956 92.391 241.73 92.4903C241.504 92.5896 241.301 92.7361 241.136 92.92C239.88 94.072 238.448 97.232 238.776 105.72L238.4 105.768Z" fill="black"/>
<path d="M239.88 105.768H239.544C239.896 100.552 239.248 97.448 237.68 96.792C235.624 95.928 232.56 99.36 232.528 99.4L232.272 99.168C232.4 99.024 235.528 95.52 237.808 96.472C239.552 97.176 240.256 100.312 239.88 105.768Z" fill="black"/>
<path d="M239.016 106.104C239.016 102.904 239.68 100.912 241 100.224C242.48 99.424 244.2 100.592 244.272 100.648L244.072 100.928C244.072 100.928 242.472 99.84 241.16 100.528C239.848 101.216 239.36 103.032 239.36 106.128L239.016 106.104Z" fill="black"/>
</g>
<path d="M231.264 105.184L232.736 113.6C232.898 114.529 233.384 115.372 234.107 115.978C234.83 116.584 235.744 116.915 236.688 116.912H242.544C243.487 116.915 244.402 116.584 245.125 115.978C245.848 115.372 246.334 114.529 246.496 113.6L248 105.184H231.264Z" fill="#263238"/>
<path opacity="0.3" d="M231.264 105.184L232.736 113.6C232.898 114.529 233.384 115.372 234.107 115.978C234.83 116.584 235.744 116.915 236.688 116.912H242.544C243.487 116.915 244.402 116.584 245.125 115.978C245.848 115.372 246.334 114.529 246.496 113.6L248 105.184H231.264Z" fill="white"/>
<path d="M236.848 91.76C236.848 91.76 240.328 85.92 234.208 85.84C233.329 85.8336 232.454 85.9521 231.608 86.192C232.408 86.736 233.688 87.728 233.024 87.976C232.36 88.224 229.824 87.736 228.656 87.472C226.664 88.7027 224.911 90.2827 223.48 92.136C224.716 93.2991 226.037 94.3687 227.432 95.336C228.04 94.728 228.96 93.968 229.488 94.264C230.016 94.56 230.584 96.2 230.928 97.36C232.075 97.9151 233.3 98.2927 234.56 98.48C234.56 97.552 234.56 96.08 234.992 95.8C235.424 95.52 237.064 97.104 237.976 98.04C242.648 96 236.848 91.76 236.848 91.76Z" fill="#2B786C"/>
<path opacity="0.1" d="M236.848 91.76C236.848 91.76 240.328 85.92 234.208 85.84C233.329 85.8336 232.454 85.9521 231.608 86.192C232.408 86.736 233.688 87.728 233.024 87.976C232.36 88.224 229.824 87.736 228.656 87.472C226.664 88.7027 224.911 90.2827 223.48 92.136C224.716 93.2991 226.037 94.3687 227.432 95.336C228.04 94.728 228.96 93.968 229.488 94.264C230.016 94.56 230.584 96.2 230.928 97.36C232.075 97.9151 233.3 98.2927 234.56 98.48C234.56 97.552 234.56 96.08 234.992 95.8C235.424 95.52 237.064 97.104 237.976 98.04C242.648 96 236.848 91.76 236.848 91.76Z" fill="white"/>
<path opacity="0.3" d="M236.848 91.76C236.848 91.76 240.328 85.92 234.208 85.84C233.329 85.8336 232.454 85.9521 231.608 86.192C232.408 86.736 233.688 87.728 233.024 87.976C232.36 88.224 229.824 87.736 228.656 87.472C226.664 88.7027 224.911 90.2827 223.48 92.136C230.144 89.304 236.848 91.76 236.848 91.76Z" fill="white"/>
<path d="M244.088 95.712C244.728 95.528 245.528 96.816 245.944 97.584C247.288 96.9846 248.527 96.1744 249.616 95.184C249.32 94.528 248.984 93.632 249.2 93.288C249.416 92.944 250.576 93.216 251.408 93.472C252.163 92.6809 252.866 91.8418 253.512 90.96C252.877 90.4481 252.206 89.9828 251.504 89.568C250.304 89.704 248.608 89.808 248.192 89.392C247.776 88.976 248.696 88.592 249.36 88.472C248.245 87.9788 247.065 87.6474 245.856 87.488C245.696 88.032 245.344 88.872 244.696 88.872C244.048 88.872 243.368 88.144 242.92 87.608C237.912 88.688 241.888 92.272 241.888 92.272C241.888 92.272 237.576 97.392 242.688 98.072C242.968 97.216 243.48 95.888 244.088 95.712Z" fill="#2B786C"/>
<path opacity="0.2" d="M244.088 95.712C244.728 95.528 245.528 96.816 245.944 97.584C247.288 96.9846 248.527 96.1744 249.616 95.184C249.32 94.528 248.984 93.632 249.2 93.288C249.416 92.944 250.576 93.216 251.408 93.472C252.163 92.6809 252.866 91.8418 253.512 90.96C252.877 90.4481 252.206 89.9828 251.504 89.568C250.304 89.704 248.608 89.808 248.192 89.392C247.776 88.976 248.696 88.592 249.36 88.472C248.245 87.9788 247.065 87.6474 245.856 87.488C245.696 88.032 245.344 88.872 244.696 88.872C244.048 88.872 243.368 88.144 242.92 87.608C237.912 88.688 241.888 92.272 241.888 92.272C241.888 92.272 237.576 97.392 242.688 98.072C242.968 97.216 243.48 95.888 244.088 95.712Z" fill="white"/>
<path opacity="0.3" d="M248.192 89.416C247.752 88.976 248.696 88.616 249.36 88.496C248.245 88.0028 247.065 87.6714 245.856 87.512C245.696 88.056 245.344 88.896 244.696 88.896C244.048 88.896 243.368 88.168 242.92 87.632C237.912 88.712 241.888 92.296 241.888 92.296C241.888 92.296 248.392 89.896 253.512 90.984C252.877 90.4721 252.206 90.0068 251.504 89.592C250.304 89.728 248.608 89.832 248.192 89.416Z" fill="white"/>
<path d="M251.416 100.208C250.72 100.584 249.384 101.192 248.848 100.656C248.312 100.12 249.128 97.856 249.536 96.92C248.916 96.1454 248.128 95.5217 247.232 95.096C241.792 92.696 243.64 100.504 243.64 100.504C243.64 100.504 236.8 102.16 241.2 106.4C241.523 106.689 241.866 106.956 242.224 107.2C242.568 106.4 243.24 105.048 243.912 105.232C244.584 105.416 244.328 107.152 244.104 108.232C245.261 108.707 246.478 109.019 247.72 109.16C247.88 108.36 248.184 107.392 248.672 107.416C249.16 107.44 249.872 108.544 250.272 109.304C251.302 109.297 252.33 109.203 253.344 109.024C253.121 106.009 252.472 103.041 251.416 100.208Z" fill="#2B786C"/>
<path opacity="0.2" d="M243.64 100.504C243.64 100.504 236.8 102.16 241.2 106.4C241.523 106.689 241.866 106.956 242.224 107.2C242.568 106.4 243.24 105.048 243.912 105.232C244.584 105.416 244.328 107.152 244.104 108.232C245.261 108.707 246.478 109.019 247.72 109.16C247.88 108.36 248.184 107.392 248.672 107.416C249.16 107.44 249.872 108.544 250.272 109.304C251.302 109.297 252.33 109.203 253.344 109.024C252.39 107.019 251.038 105.229 249.37 103.764C247.701 102.3 245.752 101.19 243.64 100.504Z" fill="white"/>
<path d="M232.968 98.84C232.968 98.84 229.288 92.752 226.568 98.24C226.146 99.1113 225.86 100.042 225.72 101C226.848 100.504 229.264 99.592 229.296 100.824C229.328 102.056 226.744 104.704 225.872 105.512C226.226 107.295 226.824 109.02 227.648 110.64C228.763 110.2 229.853 109.698 230.912 109.136C231.016 108.152 231.296 106.2 232.024 105.768C232.752 105.336 233.312 106.904 233.496 107.624C234.65 106.88 235.723 106.017 236.696 105.048C235.992 104.248 235.024 102.968 235.312 102.312C235.6 101.656 237.608 101.904 238.712 102.136C238.913 101.658 239.048 101.155 239.112 100.64C239.824 94.728 232.968 98.84 232.968 98.84Z" fill="#2B786C"/>
<path opacity="0.2" d="M227.664 110.64C228.779 110.2 229.869 109.698 230.928 109.136C231.032 108.152 231.312 106.2 232.04 105.768C232.768 105.336 233.328 106.904 233.512 107.624C234.666 106.88 235.738 106.017 236.712 105.048C236.008 104.248 235.04 102.968 235.328 102.312C235.616 101.656 237.624 101.904 238.728 102.136C238.929 101.658 239.064 101.155 239.128 100.64C239.808 94.728 232.952 98.84 232.952 98.84C232.952 98.84 228.912 102.624 227.664 110.64Z" fill="white"/>
<path d="M261.504 116.184H216.4V119.776H261.504V116.184Z" fill="#2B786C"/>
<path opacity="0.3" d="M261.504 116.184H216.4V119.776H261.504V116.184Z" fill="white"/>
<path d="M309.52 60.672H225.448C220.892 60.6783 216.525 62.4908 213.304 65.7121C210.083 68.9333 208.27 73.3005 208.264 77.856V152.744C208.268 157.3 210.08 161.669 213.302 164.89C216.523 168.112 220.892 169.924 225.448 169.928H309.52C314.076 169.924 318.444 168.112 321.666 164.89C324.888 161.669 326.7 157.3 326.704 152.744V77.856C326.698 73.3005 324.885 68.9333 321.664 65.7121C318.443 62.4908 314.075 60.6783 309.52 60.672ZM323.32 152.744C323.32 156.404 321.866 159.914 319.278 162.502C316.69 165.09 313.18 166.544 309.52 166.544H225.448C221.788 166.544 218.278 165.09 215.69 162.502C213.102 159.914 211.648 156.404 211.648 152.744V77.856C211.648 74.196 213.102 70.6859 215.69 68.0979C218.278 65.5099 221.788 64.056 225.448 64.056H309.52C313.18 64.056 316.69 65.5099 319.278 68.0979C321.866 70.6859 323.32 74.196 323.32 77.856V152.744Z" fill="#2B786C"/>
<path opacity="0.4" d="M309.52 60.672H225.448C220.892 60.6783 216.525 62.4908 213.304 65.7121C210.083 68.9333 208.27 73.3005 208.264 77.856V152.744C208.268 157.3 210.08 161.669 213.302 164.89C216.523 168.112 220.892 169.924 225.448 169.928H309.52C314.076 169.924 318.444 168.112 321.666 164.89C324.888 161.669 326.7 157.3 326.704 152.744V77.856C326.698 73.3005 324.885 68.9333 321.664 65.7121C318.443 62.4908 314.075 60.6783 309.52 60.672ZM323.32 152.744C323.32 156.404 321.866 159.914 319.278 162.502C316.69 165.09 313.18 166.544 309.52 166.544H225.448C221.788 166.544 218.278 165.09 215.69 162.502C213.102 159.914 211.648 156.404 211.648 152.744V77.856C211.648 74.196 213.102 70.6859 215.69 68.0979C218.278 65.5099 221.788 64.056 225.448 64.056H309.52C313.18 64.056 316.69 65.5099 319.278 68.0979C321.866 70.6859 323.32 74.196 323.32 77.856V152.744Z" fill="white"/>
<path d="M299.2 87.904H288.664C287.537 87.904 286.624 88.8173 286.624 89.944V91.8C286.624 92.9267 287.537 93.84 288.664 93.84H299.2C300.327 93.84 301.24 92.9267 301.24 91.8V89.944C301.24 88.8173 300.327 87.904 299.2 87.904Z" fill="#2B786C"/>
<path d="M308.384 80.56H297.848C296.721 80.56 295.808 81.4733 295.808 82.6V84.456C295.808 85.5827 296.721 86.496 297.848 86.496H308.384C309.511 86.496 310.424 85.5827 310.424 84.456V82.6C310.424 81.4733 309.511 80.56 308.384 80.56Z" fill="#2B786C"/>
<path d="M305.08 95.248H294.544C293.417 95.248 292.504 96.1613 292.504 97.288V99.144C292.504 100.271 293.417 101.184 294.544 101.184H305.08C306.207 101.184 307.12 100.271 307.12 99.144V97.288C307.12 96.1613 306.207 95.248 305.08 95.248Z" fill="#2B786C"/>
<path d="M315.688 87.904H305.152C304.025 87.904 303.112 88.8173 303.112 89.944V91.8C303.112 92.9267 304.025 93.84 305.152 93.84H315.688C316.814 93.84 317.728 92.9267 317.728 91.8V89.944C317.728 88.8173 316.814 87.904 315.688 87.904Z" fill="#2B786C"/>
<path opacity="0.7" d="M299.2 87.904H288.664C287.537 87.904 286.624 88.8173 286.624 89.944V91.8C286.624 92.9267 287.537 93.84 288.664 93.84H299.2C300.327 93.84 301.24 92.9267 301.24 91.8V89.944C301.24 88.8173 300.327 87.904 299.2 87.904Z" fill="white"/>
<path opacity="0.8" d="M308.384 80.56H297.848C296.721 80.56 295.808 81.4733 295.808 82.6V84.456C295.808 85.5827 296.721 86.496 297.848 86.496H308.384C309.511 86.496 310.424 85.5827 310.424 84.456V82.6C310.424 81.4733 309.511 80.56 308.384 80.56Z" fill="white"/>
<path opacity="0.8" d="M305.08 95.248H294.544C293.417 95.248 292.504 96.1613 292.504 97.288V99.144C292.504 100.271 293.417 101.184 294.544 101.184H305.08C306.207 101.184 307.12 100.271 307.12 99.144V97.288C307.12 96.1613 306.207 95.248 305.08 95.248Z" fill="white"/>
<path opacity="0.7" d="M315.688 87.904H305.152C304.025 87.904 303.112 88.8173 303.112 89.944V91.8C303.112 92.9267 304.025 93.84 305.152 93.84H315.688C316.814 93.84 317.728 92.9267 317.728 91.8V89.944C317.728 88.8173 316.814 87.904 315.688 87.904Z" fill="white"/>
<path d="M273.04 79.856H283.576C284.703 79.856 285.616 78.9427 285.616 77.816V75.96C285.616 74.8333 284.703 73.92 283.576 73.92H273.04C271.913 73.92 271 74.8333 271 75.96V77.816C271 78.9427 271.913 79.856 273.04 79.856Z" fill="#2B786C"/>
<path d="M267.144 87.2H277.68C278.807 87.2 279.72 86.2867 279.72 85.16V83.304C279.72 82.1774 278.807 81.264 277.68 81.264H267.144C266.017 81.264 265.104 82.1774 265.104 83.304V85.16C265.104 86.2867 266.017 87.2 267.144 87.2Z" fill="#2B786C"/>
<path d="M256.536 79.856H267.072C268.198 79.856 269.112 78.9427 269.112 77.816V75.96C269.112 74.8333 268.198 73.92 267.072 73.92H256.536C255.409 73.92 254.496 74.8333 254.496 75.96V77.816C254.496 78.9427 255.409 79.856 256.536 79.856Z" fill="#2B786C"/>
<path opacity="0.8" d="M273.04 79.856H283.576C284.703 79.856 285.616 78.9427 285.616 77.816V75.96C285.616 74.8333 284.703 73.92 283.576 73.92H273.04C271.913 73.92 271 74.8333 271 75.96V77.816C271 78.9427 271.913 79.856 273.04 79.856Z" fill="white"/>
<path opacity="0.8" d="M267.144 87.2H277.68C278.807 87.2 279.72 86.2867 279.72 85.16V83.304C279.72 82.1774 278.807 81.264 277.68 81.264H267.144C266.017 81.264 265.104 82.1774 265.104 83.304V85.16C265.104 86.2867 266.017 87.2 267.144 87.2Z" fill="white"/>
<path opacity="0.7" d="M256.536 79.856H267.072C268.198 79.856 269.112 78.9427 269.112 77.816V75.96C269.112 74.8333 268.198 73.92 267.072 73.92H256.536C255.409 73.92 254.496 74.8333 254.496 75.96V77.816C254.496 78.9427 255.409 79.856 256.536 79.856Z" fill="white"/>
<path d="M180.048 94.52H132.16V148.608H180.048V94.52Z" fill="#263238"/>
<path d="M183.88 148.608H128.32V152.968H183.88V148.608Z" fill="#263238"/>
<g opacity="0.4">
<path d="M183.88 148.608H128.32V152.968H183.88V148.608Z" fill="white"/>
</g>
<path opacity="0.6" d="M180.048 94.52H132.16V148.608H180.048V94.52Z" fill="white"/>
<path opacity="0.5" d="M176.672 97.904H135.544V145.232H176.672V97.904Z" fill="white"/>
<g opacity="0.2">
<path d="M135.544 97.904V145.224H135.832L147.144 97.904H135.544Z" fill="white"/>
<path d="M170.816 97.904H168.696L157.392 145.224H159.512L170.816 97.904Z" fill="white"/>
<path d="M165.848 97.904H156.976L145.672 145.224H154.544L165.848 97.904Z" fill="white"/>
</g>
<path d="M104.488 138.136C102.888 138.248 100.816 136.944 99.816 135.248L99.016 133.928C96.704 130.152 91.632 127.448 88.136 127.704L87.264 127.768L84.8 127.944L83.928 128.008C80.432 128.264 79.64 131.392 81.712 135.208C82.008 135.736 82.152 136.008 82.432 136.536C83.32 138.24 82.656 139.736 81.032 139.856C78.232 140.056 77.032 142.648 78.136 145.704C81.688 158.304 82.664 168.904 81.336 180.44C83.8774 182.802 87.2187 184.114 90.688 184.112H119.088C120.184 169.712 118.112 157.712 112.384 143.224C110.936 140.168 107.296 137.928 104.488 138.136Z" fill="#2B786C"/>
<path opacity="0.1" d="M104.488 138.136C102.888 138.248 100.816 136.944 99.816 135.248L99.016 133.928C96.704 130.152 91.632 127.448 88.136 127.704L87.264 127.768L84.8 127.944L83.928 128.008C80.432 128.264 79.64 131.392 81.712 135.208C82.008 135.736 82.152 136.008 82.432 136.536C83.32 138.24 82.656 139.736 81.032 139.856C78.232 140.056 77.032 142.648 78.136 145.704C81.688 158.304 82.664 168.904 81.336 180.44C83.8774 182.802 87.2187 184.114 90.688 184.112H119.088C120.184 169.712 118.112 157.712 112.384 143.224C110.936 140.168 107.296 137.928 104.488 138.136Z" fill="black"/>
<path opacity="0.2" d="M104.488 138.136C102.888 138.248 100.816 136.944 99.816 135.248L99.016 133.928C96.704 130.152 91.632 127.448 88.136 127.704L87.264 127.768C83.76 128.016 83.008 131.144 85.136 134.968C85.432 135.496 85.576 135.768 85.864 136.296C86.776 137.992 86.128 139.496 84.504 139.616C81.704 139.816 80.552 142.4 81.672 145.456C85.672 158.992 86.624 170.256 84.872 182.856C86.6761 183.686 88.6381 184.117 90.624 184.12H119.024C120.12 169.72 118.048 157.72 112.32 143.232C110.936 140.168 107.296 137.928 104.488 138.136Z" fill="black"/>
<path d="M123.704 152.408C123.704 152.408 122.464 168.8 126.576 168.632C130.688 168.464 138.784 168.52 138.784 168.52L145.472 165.536C145.645 165.457 145.839 165.432 146.026 165.467C146.214 165.501 146.386 165.592 146.52 165.728L149.552 168.728C149.681 168.862 149.768 169.031 149.802 169.214C149.835 169.397 149.814 169.586 149.741 169.757C149.667 169.928 149.545 170.073 149.389 170.175C149.233 170.277 149.05 170.33 148.864 170.328L147.008 170.28C144.512 171.615 141.669 172.159 138.856 171.84C139.816 171.552 121.936 174.872 120.104 172.336C117.6 168.88 116.496 154.4 116.496 154.4L123.704 152.408Z" fill="#B55B52"/>
<path opacity="0.1" d="M123.704 152.408C123.704 152.408 122.464 168.8 126.576 168.632C130.688 168.464 138.784 168.52 138.784 168.52L145.472 165.536C145.645 165.457 145.839 165.432 146.026 165.467C146.214 165.501 146.386 165.592 146.52 165.728L149.552 168.728C149.681 168.862 149.768 169.031 149.802 169.214C149.835 169.397 149.814 169.586 149.741 169.757C149.667 169.928 149.545 170.073 149.389 170.175C149.233 170.277 149.05 170.33 148.864 170.328L147.008 170.28C144.512 171.615 141.669 172.159 138.856 171.84C139.816 171.552 121.936 174.872 120.104 172.336C117.6 168.88 116.496 154.4 116.496 154.4L123.704 152.408Z" fill="black"/>
<path d="M119.832 142.2C122.616 142.12 125.76 145.736 124.376 155.344L116.712 156.8C116.712 156.8 114.224 142.4 119.832 142.2Z" fill="#263238"/>
<path opacity="0.2" d="M119.832 142.2C122.616 142.12 125.76 145.736 124.376 155.344L116.712 156.8C116.712 156.8 114.224 142.4 119.832 142.2Z" fill="black"/>
<path d="M91.536 142.4C87.344 147.8 88.032 176.208 88.336 183.912C89.1285 184.051 89.9314 184.124 90.736 184.128H115.088C117.168 156.824 126.008 148.744 122.768 143.592C119.616 138.648 96.4 136.096 91.536 142.4Z" fill="#263238"/>
<path d="M111.76 145.736C111.76 145.736 117.832 141.96 115.368 139.912C112.188 139.164 108.938 138.749 105.672 138.672C104.68 139.328 105.4 141.152 111.76 145.736Z" fill="#B55B52"/>
<path d="M115.2 136.312L109.84 130.488C109.328 134.952 106.952 138.616 106.472 138.76L107.056 140.808C113.552 148.112 115.056 141.096 115.056 141.096C113.432 139.776 115.2 136.312 115.2 136.312Z" fill="#B55B52"/>
<path opacity="0.2" d="M111.944 132.8L109.448 132.544C109.448 132.544 109.552 140.032 114.68 140.68C113.728 139.168 115.16 136.288 115.16 136.288L111.944 132.8Z" fill="#263238"/>
<path d="M110.528 124.088C109.368 129.376 108.416 132.408 110.248 135.904C110.831 137.049 111.716 138.013 112.808 138.691C113.899 139.368 115.156 139.735 116.44 139.749C117.725 139.764 118.99 139.427 120.097 138.775C121.204 138.122 122.111 137.179 122.72 136.048C125.12 131.744 126.64 123.816 122.208 120.128C121.266 119.303 120.123 118.741 118.895 118.499C117.666 118.257 116.395 118.343 115.211 118.749C114.026 119.154 112.969 119.865 112.147 120.81C111.325 121.754 110.767 122.899 110.528 124.128V124.088Z" fill="#B55B52"/>
<path d="M117.896 128.056C117.776 128.472 117.896 128.856 118.184 128.952C118.472 129.048 118.776 128.768 118.896 128.352C119.016 127.936 118.896 127.512 118.608 127.448C118.32 127.384 118.016 127.632 117.896 128.056Z" fill="#263238"/>
<path d="M122.624 129.6C122.496 130.016 122.624 130.4 122.904 130.496C123.184 130.592 123.496 130.312 123.624 129.888C123.752 129.464 123.624 129.088 123.328 128.984C123.032 128.88 122.744 129.152 122.624 129.6Z" fill="#263238"/>
<path d="M116.88 126.04C116.838 126.033 116.799 126.013 116.768 125.984C116.745 125.961 116.726 125.934 116.714 125.903C116.701 125.873 116.695 125.841 116.695 125.808C116.695 125.775 116.701 125.743 116.714 125.713C116.726 125.682 116.745 125.655 116.768 125.632C117.089 125.377 117.468 125.205 117.872 125.133C118.275 125.06 118.69 125.089 119.08 125.216C119.112 125.227 119.142 125.244 119.167 125.266C119.192 125.289 119.213 125.316 119.227 125.347C119.241 125.378 119.249 125.411 119.25 125.445C119.251 125.479 119.245 125.513 119.232 125.544C119.207 125.606 119.159 125.656 119.097 125.683C119.036 125.71 118.967 125.712 118.904 125.688C118.601 125.592 118.279 125.57 117.966 125.624C117.653 125.679 117.357 125.808 117.104 126C117.073 126.025 117.037 126.042 116.997 126.049C116.958 126.056 116.918 126.053 116.88 126.04Z" fill="#263238"/>
<path d="M125.12 128.592C125.082 128.574 125.048 128.547 125.022 128.514C124.996 128.48 124.977 128.441 124.968 128.4C124.927 128.068 124.809 127.75 124.623 127.472C124.436 127.194 124.188 126.964 123.896 126.8C123.841 126.76 123.804 126.7 123.792 126.633C123.78 126.566 123.794 126.497 123.832 126.44C123.862 126.394 123.907 126.359 123.959 126.34C124.011 126.321 124.067 126.32 124.12 126.336C124.482 126.533 124.793 126.812 125.028 127.151C125.263 127.49 125.415 127.88 125.472 128.288C125.484 128.355 125.468 128.424 125.429 128.479C125.39 128.535 125.331 128.572 125.264 128.584C125.218 128.599 125.168 128.602 125.12 128.592Z" fill="#263238"/>
<path d="M117.528 134.72C117.762 134.792 118.004 134.841 118.248 134.864C118.266 134.867 118.284 134.867 118.302 134.863C118.32 134.86 118.337 134.852 118.352 134.842C118.367 134.831 118.379 134.818 118.389 134.803C118.399 134.787 118.405 134.77 118.408 134.752C118.41 134.733 118.409 134.714 118.403 134.696C118.398 134.677 118.389 134.66 118.377 134.645C118.365 134.63 118.351 134.618 118.334 134.609C118.317 134.6 118.299 134.594 118.28 134.592C117.666 134.523 117.077 134.314 116.558 133.979C116.039 133.645 115.604 133.195 115.288 132.664C115.28 132.647 115.269 132.631 115.255 132.618C115.241 132.605 115.225 132.595 115.207 132.588C115.189 132.581 115.17 132.578 115.151 132.579C115.132 132.579 115.113 132.584 115.096 132.592C115.062 132.611 115.035 132.641 115.022 132.678C115.009 132.715 115.009 132.756 115.024 132.792C115.291 133.264 115.651 133.678 116.081 134.009C116.511 134.341 117.003 134.582 117.528 134.72Z" fill="#263238"/>
<path d="M120.976 129.304C121.111 130.761 121.434 132.194 121.936 133.568C121.588 133.681 121.22 133.717 120.857 133.674C120.494 133.631 120.144 133.511 119.832 133.32L120.976 129.304Z" fill="#A02724"/>
<path d="M110.632 127.04C110.632 127.04 115.768 127.088 114.296 124.136C114.296 124.136 121.424 125.504 120.208 122.816C120.208 122.816 125.008 126.608 123.784 123.024C123.784 123.024 127.072 125.824 127.176 124.024C127.28 122.224 125.48 121.08 125.48 121.08C125.48 121.08 129.48 117.824 123.672 117.832C123.672 117.832 125.048 112.936 118.408 116.848C118.408 116.848 119.296 111.776 114.344 116.848C114.344 116.848 107.64 116.896 109.224 119.112C109.224 119.112 105 120.488 107.624 121.968C107.624 121.968 104.424 124.872 106.752 126.064C106.752 126.064 103.712 130.24 108.152 129.72C108.152 129.72 106.552 133.584 108.52 132.792C110.488 132 110.632 127.04 110.632 127.04Z" fill="#263238"/>
<path d="M107.328 127.84C107.361 129.037 107.841 130.178 108.672 131.04C109.776 132.176 111.072 131.32 111.336 129.832C111.592 128.48 111.336 126.272 109.92 125.712C108.504 125.152 107.312 126.344 107.328 127.84Z" fill="#B55B52"/>
<path opacity="0.3" d="M116 175.488C116.24 173.888 116.504 172.288 116.8 170.856L114.248 170.344L100 162L94.928 150.272L92.816 145.736L90.832 146.792C90.832 146.792 90.832 170.264 100.744 174.528C104.952 176.328 110.248 175.76 116 175.488Z" fill="black"/>
<path d="M99.7279 151.544C99.7279 151.544 102.632 166.032 111.728 167.664C120.824 169.296 122.128 169.264 122.128 169.264L129.464 166.864C129.679 166.794 129.91 166.792 130.126 166.858C130.342 166.924 130.532 167.054 130.672 167.232L132.528 169.632C132.651 169.79 132.728 169.978 132.752 170.176C132.775 170.375 132.744 170.576 132.662 170.758C132.58 170.94 132.449 171.096 132.284 171.209C132.12 171.322 131.927 171.388 131.728 171.4L128.592 171.608C127.733 172.293 126.741 172.793 125.68 173.078C124.619 173.363 123.511 173.426 122.424 173.264C122.424 173.264 107.744 174.864 102.632 171.928C97.5199 168.992 93.4639 156.952 93.4639 156.952L99.7279 151.544Z" fill="#B55B52"/>
<path d="M93.2399 160.944C93.2399 160.944 88.1039 144.496 92.9439 141.88C97.7839 139.264 100.944 150.8 102.184 155.168L93.2399 160.944Z" fill="#263238"/>
<path d="M141.504 171.64L123.792 172.488V175H141.504H152.912V171.64H141.504Z" fill="#2B786C"/>
<path opacity="0.3" d="M141.504 175H123.792V172.488L141.504 171.64V175Z" fill="white"/>
<path opacity="0.6" d="M152.912 171.64H141.504V175H152.912V171.64Z" fill="white"/>
<path d="M180.448 166.336H143.024L146.8 135.568H184.224L180.448 166.336Z" fill="#2B786C"/>
<path opacity="0.3" d="M180.448 166.336H143.024L146.8 135.568H184.224L180.448 166.336Z" fill="white"/>
<path d="M148.96 135.568L145.176 166.336H180.448L184.224 135.568H148.96Z" fill="#2B786C"/>
<path opacity="0.6" d="M148.96 135.568L145.176 166.336H180.448L184.224 135.568H148.96Z" fill="white"/>
<path d="M168.264 174.912H160.304L159.504 162.216H165.952L168.264 174.912Z" fill="#2B786C"/>
<path opacity="0.3" d="M168.264 174.912H160.304L159.504 162.216H165.952L168.264 174.912Z" fill="white"/>
<path d="M169.688 174.912H161.728L160.928 162.216H167.368L169.688 174.912Z" fill="#2B786C"/>
<path opacity="0.5" d="M169.688 174.912H161.728L160.928 162.216H167.368L169.688 174.912Z" fill="white"/>
<path d="M164.168 172.696H162.88H151.88V175H162.88H164.168H175.168V172.696H164.168Z" fill="#2B786C"/>
<path opacity="0.3" d="M164.168 172.696H162.88H151.88V175H162.88H164.168H175.168V172.696H164.168Z" fill="white"/>
<path d="M175.168 172.696H162.88V175H175.168V172.696Z" fill="#2B786C"/>
<path opacity="0.6" d="M175.168 172.696H162.88V175H175.168V172.696Z" fill="white"/>
<path d="M116.56 178.592V184.088H174.736C176.87 184.086 178.974 183.589 180.883 182.635C182.792 181.682 184.453 180.297 185.736 178.592H116.56Z" fill="#263238"/>
<path opacity="0.3" d="M116.56 178.592V184.088H174.736C176.87 184.086 178.974 183.589 180.883 182.635C182.792 181.682 184.453 180.297 185.736 178.592H116.56Z" fill="white"/>
<path d="M187.688 175H113.096V178.592H185.736C186.564 177.5 187.222 176.289 187.688 175Z" fill="#263238"/>
<path opacity="0.5" d="M187.688 175H113.096V178.592H185.736C186.564 177.5 187.222 176.289 187.688 175Z" fill="white"/>
<path d="M174.736 78.216H90.664C86.1078 78.2202 81.7394 80.0321 78.5177 83.2538C75.296 86.4755 73.4842 90.8438 73.48 95.4V170.288C73.4842 174.843 75.2963 179.211 78.5182 182.431C81.7402 185.652 86.1085 187.462 90.664 187.464H174.736C179.29 187.46 183.656 185.649 186.877 182.429C190.097 179.208 191.908 174.842 191.912 170.288V95.4C191.91 90.8446 190.1 86.4762 186.879 83.2542C183.659 80.0323 179.291 78.2202 174.736 78.216ZM188.536 170.288C188.534 173.947 187.079 177.456 184.492 180.044C181.904 182.631 178.395 184.086 174.736 184.088H90.664C87.0033 184.088 83.4923 182.634 80.9031 180.047C78.3138 177.459 76.8581 173.949 76.856 170.288V95.4C76.8581 91.7393 78.3138 88.2292 80.9031 85.6414C83.4923 83.0537 87.0033 81.6 90.664 81.6H174.736C178.397 81.6021 181.907 83.0578 184.495 85.6471C187.082 88.2364 188.536 91.7473 188.536 95.408V170.288Z" fill="#2B786C"/>
<path opacity="0.4" d="M174.736 78.216H90.664C86.1078 78.2202 81.7394 80.0321 78.5177 83.2538C75.296 86.4755 73.4842 90.8438 73.48 95.4V170.288C73.4842 174.843 75.2963 179.211 78.5182 182.431C81.7402 185.652 86.1085 187.462 90.664 187.464H174.736C179.29 187.46 183.656 185.649 186.877 182.429C190.097 179.208 191.908 174.842 191.912 170.288V95.4C191.91 90.8446 190.1 86.4762 186.879 83.2542C183.659 80.0323 179.291 78.2202 174.736 78.216ZM188.536 170.288C188.534 173.947 187.079 177.456 184.492 180.044C181.904 182.631 178.395 184.086 174.736 184.088H90.664C87.0033 184.088 83.4923 182.634 80.9031 180.047C78.3138 177.459 76.8581 173.949 76.856 170.288V95.4C76.8581 91.7393 78.3138 88.2292 80.9031 85.6414C83.4923 83.0537 87.0033 81.6 90.664 81.6H174.736C178.397 81.6021 181.907 83.0578 184.495 85.6471C187.082 88.2364 188.536 91.7473 188.536 95.408V170.288Z" fill="white"/>
<path d="M215.844 118.73C224.433 110.142 224.433 96.2172 215.844 87.6287C207.256 79.0403 193.331 79.0403 184.743 87.6287C176.154 96.2172 176.154 110.142 184.743 118.73C193.331 127.319 207.256 127.319 215.844 118.73Z" fill="#2B786C"/>
<path opacity="0.3" d="M215.844 118.73C224.433 110.142 224.433 96.2172 215.844 87.6287C207.256 79.0403 193.331 79.0403 184.743 87.6287C176.154 96.2172 176.154 110.142 184.743 118.73C193.331 127.319 207.256 127.319 215.844 118.73Z" fill="black"/>
<path d="M221.694 106.703C224.484 94.882 217.163 83.0374 205.342 80.2474C193.521 77.4573 181.676 84.7784 178.886 96.5995C176.096 108.421 183.417 120.265 195.238 123.055C207.059 125.845 218.904 118.524 221.694 106.703Z" fill="#2B786C"/>
<path opacity="0.9" d="M218.424 105.931C220.787 95.9162 214.585 85.8813 204.57 83.5175C194.555 81.1537 184.52 87.3563 182.156 97.3713C179.792 107.386 185.995 117.421 196.01 119.785C206.025 122.149 216.06 115.946 218.424 105.931Z" fill="white"/>
<path d="M199.528 88.544C199.528 92.664 199.392 96.816 199.528 100.936C199.576 102.256 200.184 102.624 201.128 103.584L205.488 107.944C205.639 108.023 205.811 108.052 205.98 108.026C206.149 108.001 206.305 107.922 206.425 107.801C206.546 107.681 206.625 107.525 206.65 107.356C206.676 107.187 206.647 107.015 206.568 106.864L202.512 102.816C201.906 102.31 201.346 101.75 200.84 101.144C201.352 101.944 201.032 101.04 201.032 100.344V88.544C200.979 88.384 200.878 88.2446 200.741 88.1458C200.605 88.047 200.44 87.9938 200.272 87.9938C200.103 87.9938 199.939 88.047 199.803 88.1458C199.666 88.2446 199.565 88.384 199.512 88.544H199.528Z" fill="#263238"/>
<path d="M235.144 326.984C234.652 326.986 234.178 326.804 233.814 326.474C233.449 326.144 233.222 325.689 233.176 325.2L232.544 318.608V263.872H237.736V318.608L237.104 325.2C237.058 325.688 236.832 326.141 236.469 326.471C236.107 326.801 235.634 326.984 235.144 326.984Z" fill="#263238"/>
<path opacity="0.3" d="M235.144 326.984C234.652 326.986 234.178 326.804 233.814 326.474C233.449 326.144 233.222 325.689 233.176 325.2L232.544 318.608V263.872H237.736V318.608L237.104 325.2C237.058 325.688 236.832 326.141 236.469 326.471C236.107 326.801 235.634 326.984 235.144 326.984Z" fill="white"/>
<path opacity="0.1" d="M237.736 270.056H232.544V276.432H237.736V270.056Z" fill="black"/>
<path d="M239.576 319.52V317.464C239.574 317.078 239.42 316.709 239.147 316.437C238.875 316.164 238.506 316.01 238.12 316.008H232.16C231.775 316.01 231.405 316.164 231.133 316.437C230.86 316.709 230.706 317.078 230.704 317.464V319.52L216.056 323.52C215.192 323.758 214.431 324.273 213.887 324.985C213.344 325.697 213.049 326.568 213.048 327.464H257.232C257.231 326.568 256.936 325.697 256.393 324.985C255.85 324.273 255.088 323.758 254.224 323.52L239.576 319.52Z" fill="#263238"/>
<path opacity="0.2" d="M239.576 319.52V317.464C239.574 317.078 239.42 316.709 239.147 316.437C238.875 316.164 238.506 316.01 238.12 316.008H232.16C231.775 316.01 231.405 316.164 231.133 316.437C230.86 316.709 230.706 317.078 230.704 317.464V319.52L216.056 323.52C215.192 323.758 214.431 324.273 213.887 324.985C213.344 325.697 213.049 326.568 213.048 327.464H257.232C257.231 326.568 256.936 325.697 256.393 324.985C255.85 324.273 255.088 323.758 254.224 323.52L239.576 319.52Z" fill="white"/>
<path opacity="0.1" d="M239.576 319.472V317.464C239.58 317.397 239.58 317.331 239.576 317.264H230.776C230.772 317.331 230.772 317.397 230.776 317.464V319.472H239.576Z" fill="black"/>
<path d="M258.656 210.4C248.896 210.744 240.456 219.032 239.456 228.8L235.816 263.464C235.72 264.187 235.782 264.922 235.996 265.619C236.211 266.316 236.574 266.958 237.061 267.501C237.547 268.045 238.145 268.476 238.814 268.767C239.483 269.057 240.207 269.2 240.936 269.184H270.376C271.942 269.15 273.443 268.553 274.605 267.502C275.767 266.452 276.512 265.019 276.704 263.464L280.392 228.376C281.456 218.248 273.928 210.08 263.68 210.44L258.656 210.4Z" fill="#263238"/>
<path opacity="0.2" d="M258.656 210.4C248.896 210.744 240.456 219.032 239.456 228.8L235.816 263.464C235.72 264.187 235.782 264.922 235.996 265.619C236.211 266.316 236.574 266.958 237.061 267.501C237.547 268.045 238.145 268.476 238.814 268.767C239.483 269.057 240.207 269.2 240.936 269.184H270.376C271.942 269.15 273.443 268.553 274.605 267.502C275.767 266.452 276.512 265.019 276.704 263.464L280.392 228.376C281.456 218.248 273.928 210.08 263.68 210.44L258.656 210.4Z" fill="white"/>
<path d="M275.368 228.36C276.432 218.232 268.896 210.064 258.656 210.424C248.896 210.768 240.456 219.056 239.456 228.824L235.816 263.488C235.72 264.211 235.782 264.946 235.996 265.643C236.211 266.34 236.574 266.982 237.061 267.525C237.547 268.069 238.145 268.5 238.814 268.791C239.483 269.081 240.207 269.224 240.936 269.208H265.376C266.942 269.174 268.443 268.577 269.605 267.526C270.767 266.476 271.512 265.043 271.704 263.488L275.368 228.36Z" fill="#263238"/>
<path d="M194.152 263.592C200.003 261.976 206.028 261.076 212.096 260.912C218.336 260.744 241.696 260.912 247.208 260.912C253.966 260.907 260.694 261.817 267.208 263.616C271.32 264.752 270.048 271.192 266.336 271.264C266.008 271.264 195.48 271.264 195.216 271.264C191.36 271.432 189.944 264.752 194.152 263.592Z" fill="#263238"/>
<path d="M265.328 271.104C253.467 267.832 240.941 267.832 229.08 271.104C224.6 272.344 222.68 264.832 227.176 263.592C240.286 259.976 254.13 259.976 267.24 263.592C271.712 264.832 269.816 272.344 265.328 271.104Z" fill="#263238"/>
<g opacity="0.2">
<path d="M265.328 271.104C253.467 267.832 240.941 267.832 229.08 271.104C224.6 272.344 222.68 264.832 227.176 263.592C240.286 259.976 254.13 259.976 267.24 263.592C271.712 264.832 269.816 272.344 265.328 271.104Z" fill="white"/>
</g>
<path d="M185.264 289.152L180.272 303.72L176.08 302.52L179.472 287.16L185.264 289.152Z" fill="#B97964"/>
<path d="M176.16 301.4L181.312 302.96C181.421 302.988 181.517 303.052 181.584 303.142C181.652 303.233 181.685 303.344 181.68 303.456L181.488 308.576C181.488 308.684 181.466 308.792 181.424 308.892C181.381 308.991 181.318 309.081 181.24 309.156C181.161 309.231 181.068 309.289 180.966 309.327C180.865 309.365 180.756 309.381 180.648 309.376C180.59 309.384 180.53 309.384 180.472 309.376C178.336 308.776 176.472 308.16 173.784 307.472C170.632 306.672 171.336 307.232 167.616 306.32C165.376 305.76 165.632 303.12 166.608 303.24C171.088 303.824 172.672 302.64 174.752 301.52C175.192 301.313 175.691 301.27 176.16 301.4Z" fill="#263238"/>
<path opacity="0.1" d="M182.544 297.096L177.568 295.816L179.472 287.16L185.264 289.152L182.544 297.096Z" fill="black"/>
<path d="M186.16 293.048L184.768 295.736L176.784 293.048V289.952L186.16 293.048Z" fill="#2B786C"/>
<path opacity="0.3" d="M186.16 293.048L184.768 295.736L176.784 293.048V289.952L186.16 293.048Z" fill="white"/>
<path d="M217.392 307.008L219.056 319.904L214.368 320.024L210.976 307.592L217.392 307.008Z" fill="#B97964"/>
<path d="M214.304 319.312H219.656C219.768 319.311 219.877 319.349 219.964 319.419C220.051 319.489 220.112 319.587 220.136 319.696L221.24 324.704C221.268 324.81 221.274 324.921 221.258 325.03C221.241 325.139 221.203 325.243 221.144 325.336C221.086 325.429 221.009 325.509 220.918 325.571C220.827 325.633 220.724 325.676 220.616 325.696H220.448C218.224 325.656 216.256 325.528 213.496 325.52C210.24 325.52 211.096 325.904 207.232 325.952C204.928 325.952 204.512 323.352 205.488 323.224C209.968 322.672 211.232 321.32 212.968 319.72C213.348 319.425 213.824 319.28 214.304 319.312Z" fill="#263238"/>
<path opacity="0.1" d="M212.944 314.8L210.976 307.592L217.392 307.008L218.352 314.464L212.944 314.8Z" fill="black"/>
<path d="M233.544 229.6H225.968C224.719 232.997 223.912 236.541 223.568 240.144C223.168 245.536 233.536 241.544 233.536 241.544L234.448 234.16L233.544 229.6Z" fill="#2B786C"/>
<path opacity="0.1" d="M233.544 229.6H225.968C224.719 232.997 223.912 236.541 223.568 240.144C223.168 245.536 233.536 241.544 233.536 241.544L234.448 234.16L233.544 229.6Z" fill="black"/>
<path opacity="0.1" d="M229.144 229.6C231.248 240.648 227.192 240.08 227.192 240.08L229.488 241.68L233.656 240.656L234.456 234.16L233.544 229.6H229.144Z" fill="black"/>
<path d="M248.656 228.92C248.656 228.92 256.368 241.824 255.056 252.6C253.744 263.376 243.76 269.08 205.456 250.72C205.456 250.72 197.6 258.856 184.56 293.712L177.912 291.712C177.912 291.712 185.424 251.424 192.144 239.96C198.864 228.496 228.728 241.96 230.992 239.696C233.008 237.688 231.256 229.72 231.256 229.72L248.656 228.92Z" fill="#2B786C"/>
<path opacity="0.2" d="M201.056 254.336L198.96 252.736C198.96 252.736 191.576 256.736 195.248 268.12C197.211 263.947 199.387 259.877 201.768 255.928L201.056 254.336Z" fill="black"/>
<path d="M233.056 261.312C226.096 259.648 217.056 256.304 205.424 250.72C205.424 250.72 196.44 250.84 195.824 257.52C195.208 264.2 211.024 310.44 211.024 310.44L218.304 309.808C218.304 309.808 214.016 263.712 213.016 261.312H233.056Z" fill="#2B786C"/>
<path opacity="0.1" d="M233.056 261.312C226.096 259.648 217.056 256.304 205.424 250.72C205.424 250.72 196.44 250.84 195.824 257.52C195.208 264.2 211.024 310.44 211.024 310.44L218.304 309.808C218.304 309.808 214.016 263.712 213.016 261.312H233.056Z" fill="black"/>
<path opacity="0.1" d="M205.424 250.72C204.385 250.759 203.353 250.907 202.344 251.16C207.227 255.33 212.703 258.752 218.592 261.312H233.056C226.096 259.648 217.08 256.304 205.424 250.72Z" fill="black"/>
<path d="M219.16 308.608L219.36 311.6L210.88 312.264L209.672 309.416L219.16 308.608Z" fill="#2B786C"/>
<path opacity="0.3" d="M219.16 308.608L219.36 311.6L210.88 312.264L209.672 309.416L219.16 308.608Z" fill="white"/>
<path d="M215.368 216L206.808 220.8L201.08 220.52C200.827 220.509 200.576 220.565 200.351 220.681C200.127 220.798 199.937 220.971 199.8 221.184L198.16 223.744C198.048 223.92 197.975 224.119 197.948 224.326C197.92 224.534 197.938 224.744 198 224.944L198.04 225.064C198.144 225.416 198.381 225.714 198.7 225.896C199.019 226.078 199.396 226.129 199.752 226.04L202.248 225.44L207.216 224.488L219.368 219.2L215.368 216Z" fill="#B97964"/>
<path d="M213.688 216.304C214.658 216.66 215.515 217.267 216.172 218.065C216.829 218.862 217.261 219.82 217.424 220.84C217.424 220.84 223.664 218.672 224.752 215.184C225.84 211.696 228.752 194.48 224.048 194.448C219.344 194.416 221.896 215.056 213.688 216.304Z" fill="#263238"/>
<path opacity="0.6" d="M213.688 216.304C214.658 216.66 215.515 217.267 216.172 218.065C216.829 218.862 217.261 219.82 217.424 220.84C217.424 220.84 223.664 218.672 224.752 215.184C225.84 211.696 228.752 194.48 224.048 194.448C219.344 194.416 221.896 215.056 213.688 216.304Z" fill="white"/>
<path d="M212.096 216.568C213.673 218.121 214.914 219.981 215.744 222.032L219.04 220.432C219.04 220.432 217.712 216.68 215.04 215.16L212.096 216.568Z" fill="#263238"/>
<path opacity="0.7" d="M212.096 216.568C213.673 218.121 214.914 219.981 215.744 222.032L219.04 220.432C219.04 220.432 217.712 216.68 215.04 215.16L212.096 216.568Z" fill="white"/>
<path d="M225.344 230.4C233.472 230.996 241.64 230.757 249.72 229.688C248.016 223.023 247.744 216.074 248.92 209.296C250.912 198.096 261.424 191.488 235.32 191.944C231.536 192.008 220.336 191.504 221.624 199.48C223.016 208 225.344 230.4 225.344 230.4Z" fill="#263238"/>
<path opacity="0.5" d="M225.344 230.4C233.472 230.996 241.64 230.757 249.72 229.688C248.016 223.023 247.744 216.074 248.92 209.296C250.912 198.096 261.424 191.488 235.32 191.944C231.536 192.008 220.336 191.504 221.624 199.48C223.016 208 225.344 230.4 225.344 230.4Z" fill="white"/>
<path d="M240.904 217.36L228.72 220.96L223.504 220.048C223.234 220.002 222.957 220.032 222.703 220.134C222.449 220.235 222.228 220.405 222.064 220.624L220.312 223.024C220.184 223.196 220.096 223.394 220.053 223.604C220.01 223.815 220.014 224.032 220.064 224.24V224.312C220.148 224.679 220.371 225 220.685 225.209C220.999 225.417 221.381 225.497 221.752 225.432L224.248 225.008L229.264 224.4L244.672 220.8L240.904 217.36Z" fill="#B97964"/>
<path d="M239.104 217.16C240.053 217.585 240.873 218.253 241.483 219.095C242.092 219.938 242.469 220.926 242.576 221.96C242.576 221.96 248.976 220.544 250.328 217.16C251.68 213.776 255.84 194.76 251.128 194.376C246.416 193.992 247.384 216.48 239.104 217.16Z" fill="#263238"/>
<path opacity="0.6" d="M239.104 217.16C240.053 217.585 240.873 218.253 241.483 219.095C242.092 219.938 242.469 220.926 242.576 221.96C242.576 221.96 248.976 220.544 250.328 217.16C251.68 213.776 255.84 194.76 251.128 194.376C246.416 193.992 247.384 216.48 239.104 217.16Z" fill="white"/>
<path d="M237.288 217.472C238.881 219.005 240.116 220.87 240.904 222.936L244.264 221.976C244.264 221.976 242.888 217.976 240.312 216.248L237.288 217.472Z" fill="#263238"/>
<path opacity="0.7" d="M237.288 217.472C238.881 219.005 240.116 220.87 240.904 222.936L244.264 221.976C244.264 221.976 242.888 217.976 240.312 216.248L237.288 217.472Z" fill="white"/>
<path d="M240.36 168.672C240.36 168.672 236.712 161.384 242.304 162.336C247.896 163.288 244.584 177.792 249.728 179.776C249.728 179.776 243.784 181.256 240.36 168.672Z" fill="#263238"/>
<path opacity="0.6" d="M239.312 165.6C239.539 166.659 239.891 167.688 240.36 168.664C241 171.317 242.082 173.843 243.56 176.136C244.4 173.488 244.736 169.16 242.248 166.68C241.296 165.728 240.296 165.984 239.312 165.6Z" fill="black"/>
<path d="M238.4 167.12C238.4 167.12 240.224 165.056 241.8 167.704C243.376 170.352 240.776 170.984 240.776 170.984L238.4 167.12Z" fill="#2B786C"/>
<path d="M239.712 180.952C239.712 180.952 240.512 183.936 242.672 181.888C244.832 179.84 240.944 181.984 239.712 180.952Z" fill="#263238"/>
<path d="M235.336 191.712C235.336 191.712 230.104 189.912 227.88 194.352L229.944 195.152L228.8 196.56L233.064 199.656L240.344 197.16L239.944 196.128L243.448 195.176C243.448 195.176 244.384 190.056 235.336 191.712Z" fill="#263238"/>
<path opacity="0.7" d="M235.336 191.712C235.336 191.712 230.104 189.912 227.88 194.352L229.944 195.152L228.8 196.56L233.064 199.656L240.344 197.16L239.944 196.128L243.448 195.176C243.448 195.176 244.384 190.056 235.336 191.712Z" fill="white"/>
<path d="M235.488 192.12C235.488 192.12 226.776 190.208 232.896 198.888C232.896 198.888 250.32 191.944 235.488 192.12Z" fill="#B97964"/>
<path d="M238.952 182.128L233.024 187.944C233.552 190.48 232.816 191.792 232 192.472V194.352C233.005 194.627 234.05 194.722 235.088 194.632C237.006 194.61 238.916 194.379 240.784 193.944C238.2 191.88 238.568 185.6 238.952 182.128Z" fill="#B97964"/>
<path opacity="0.1" d="M233.08 190.64C233.256 189.748 233.237 188.828 233.024 187.944L238.312 182.752L238.832 183.352C238.832 183.352 237.768 189.968 233.08 190.64Z" fill="black"/>
<path d="M239.44 174.4C239.88 180.104 240.184 182.504 237.728 185.8C234.04 190.768 226.936 190.048 224.808 184.592C222.888 179.68 222.496 171.176 227.72 168.16C229.507 167.118 231.634 166.827 233.635 167.352C235.636 167.877 237.347 169.175 238.392 170.96C239.009 172.008 239.368 173.187 239.44 174.4Z" fill="#B97964"/>
<path d="M227.8 180.192C227.537 181.31 227.122 182.386 226.568 183.392C226.825 183.526 227.109 183.604 227.399 183.619C227.688 183.634 227.978 183.587 228.248 183.48L227.8 180.192Z" fill="#A24E3F"/>
<path d="M232.12 176.296C232.155 176.279 232.187 176.258 232.216 176.232C232.257 176.189 232.28 176.132 232.28 176.072C232.28 176.012 232.257 175.955 232.216 175.912C231.894 175.626 231.507 175.422 231.089 175.319C230.671 175.216 230.234 175.216 229.816 175.32C229.76 175.342 229.715 175.383 229.688 175.436C229.662 175.489 229.656 175.551 229.672 175.608C229.69 175.664 229.73 175.711 229.782 175.737C229.835 175.764 229.896 175.77 229.952 175.752C230.294 175.676 230.649 175.682 230.989 175.769C231.328 175.857 231.642 176.024 231.904 176.256C231.933 176.281 231.969 176.297 232.007 176.304C232.044 176.311 232.083 176.308 232.12 176.296Z" fill="#2E353A"/>
<path d="M223.688 177.08C223.727 177.071 223.761 177.049 223.784 177.016C224.007 176.744 224.292 176.529 224.615 176.39C224.938 176.251 225.289 176.191 225.64 176.216C225.7 176.225 225.762 176.21 225.811 176.174C225.861 176.138 225.894 176.084 225.904 176.024C225.909 175.994 225.907 175.963 225.899 175.934C225.891 175.905 225.878 175.877 225.859 175.853C225.84 175.829 225.817 175.809 225.79 175.795C225.764 175.78 225.734 175.771 225.704 175.768C225.281 175.729 224.854 175.792 224.46 175.952C224.066 176.112 223.716 176.365 223.44 176.688C223.419 176.709 223.402 176.734 223.39 176.761C223.379 176.789 223.373 176.818 223.373 176.848C223.373 176.878 223.379 176.907 223.39 176.935C223.402 176.962 223.419 176.987 223.44 177.008C223.471 177.038 223.51 177.059 223.553 177.068C223.595 177.076 223.64 177.072 223.68 177.056L223.688 177.08Z" fill="#2E353A"/>
<path d="M230.952 178.976C231.016 179.44 230.816 179.84 230.512 179.888C230.208 179.936 229.92 179.592 229.864 179.088C229.808 178.584 229.992 178.224 230.288 178.184C230.584 178.144 230.88 178.512 230.952 178.976Z" fill="#2E353A"/>
<path d="M225.744 179.696C225.808 180.16 225.616 180.56 225.312 180.608C225.008 180.656 224.72 180.312 224.656 179.848C224.592 179.384 224.784 178.984 225.08 178.944C225.376 178.904 225.68 179.2 225.744 179.696Z" fill="#2E353A"/>
<path d="M225.216 178.944L224.072 178.784C224.072 178.784 224.8 179.568 225.216 178.944Z" fill="#2E353A"/>
<path d="M230.4 178.224L229.248 178.064C229.248 178.064 229.96 178.848 230.4 178.224Z" fill="#2E353A"/>
<path d="M231.312 183.648C231.402 183.486 231.48 183.318 231.544 183.144C231.555 183.117 231.555 183.088 231.545 183.061C231.534 183.034 231.514 183.012 231.488 183C231.459 182.992 231.429 182.995 231.402 183.008C231.376 183.022 231.355 183.044 231.344 183.072C231.187 183.517 230.927 183.919 230.585 184.245C230.243 184.57 229.829 184.81 229.376 184.944C229.348 184.953 229.325 184.972 229.311 184.997C229.296 185.022 229.291 185.051 229.296 185.08C229.302 185.108 229.318 185.133 229.342 185.15C229.366 185.166 229.395 185.173 229.424 185.168C229.824 185.053 230.197 184.859 230.521 184.598C230.845 184.337 231.114 184.014 231.312 183.648Z" fill="#263238"/>
<path d="M239.712 180.952C239.712 180.952 236.592 179.248 236.392 174.552C236.192 169.856 229.048 168.888 224.64 171.648C224.64 171.648 223.384 167.496 227.992 167.128C227.992 167.128 234.728 162.2 240.24 167.712C245.112 172.576 239.712 180.952 239.712 180.952Z" fill="#263238"/>
<path d="M241.4 178.712C241.229 179.804 240.634 180.784 239.744 181.44C238.552 182.296 237.456 181.352 237.344 179.968C237.264 178.72 237.784 176.768 239.184 176.464C239.428 176.418 239.678 176.42 239.921 176.47C240.164 176.521 240.395 176.619 240.6 176.758C240.805 176.898 240.98 177.077 241.116 177.284C241.252 177.492 241.346 177.724 241.392 177.968C241.443 178.213 241.445 178.466 241.4 178.712Z" fill="#B97964"/>
<path d="M225.024 170.912C225.024 170.912 223.624 174.048 222.448 170.912C221.272 167.776 223.856 171.616 225.024 170.912Z" fill="#263238"/>
<path d="M228.624 224.8H187.752C187.434 224.8 187.129 224.926 186.903 225.151C186.678 225.377 186.552 225.682 186.552 226C186.552 226.318 186.678 226.623 186.903 226.849C187.129 227.074 187.434 227.2 187.752 227.2H228.624C228.942 227.2 229.247 227.074 229.473 226.849C229.698 226.623 229.824 226.318 229.824 226C229.824 225.682 229.698 225.377 229.473 225.151C229.247 224.926 228.942 224.8 228.624 224.8Z" fill="#2B786C"/>
<path opacity="0.3" d="M228.624 224.8H187.752C187.434 224.8 187.129 224.926 186.903 225.151C186.678 225.377 186.552 225.682 186.552 226C186.552 226.318 186.678 226.623 186.903 226.849C187.129 227.074 187.434 227.2 187.752 227.2H228.624C228.942 227.2 229.247 227.074 229.473 226.849C229.698 226.623 229.824 226.318 229.824 226C229.824 225.682 229.698 225.377 229.473 225.151C229.247 224.926 228.942 224.8 228.624 224.8Z" fill="white"/>
<path opacity="0.2" d="M205.368 227.2C205.05 227.2 204.744 227.074 204.519 226.849C204.294 226.623 204.168 226.318 204.168 226C204.168 225.682 204.294 225.377 204.519 225.151C204.744 224.926 205.05 224.8 205.368 224.8H228.624C228.942 224.8 229.247 224.926 229.472 225.151C229.698 225.377 229.824 225.682 229.824 226C229.824 226.318 229.698 226.623 229.472 226.849C229.247 227.074 228.942 227.2 228.624 227.2H205.368Z" fill="white"/>
<path d="M188.408 226.48H203.432C203.528 226.483 203.624 226.461 203.709 226.417C203.795 226.373 203.868 226.308 203.921 226.228C203.975 226.148 204.007 226.056 204.015 225.96C204.024 225.864 204.007 225.768 203.968 225.68L195.728 202.136C195.619 201.818 195.412 201.543 195.138 201.349C194.864 201.156 194.536 201.053 194.2 201.056H179.2C179.109 201.054 179.019 201.075 178.938 201.116C178.857 201.157 178.787 201.217 178.734 201.291C178.681 201.365 178.647 201.451 178.635 201.541C178.623 201.631 178.633 201.723 178.664 201.808L186.904 225.352C187.003 225.675 187.203 225.958 187.473 226.16C187.743 226.363 188.07 226.475 188.408 226.48Z" fill="#2B786C"/>
<path d="M187.68 226.48H202.712C202.807 226.481 202.902 226.458 202.986 226.413C203.071 226.369 203.143 226.304 203.196 226.225C203.249 226.145 203.282 226.054 203.291 225.959C203.3 225.864 203.285 225.768 203.248 225.68L195.008 202.136C194.899 201.818 194.693 201.543 194.418 201.349C194.144 201.156 193.816 201.053 193.48 201.056H178.448C178.358 201.056 178.269 201.078 178.189 201.119C178.108 201.161 178.039 201.221 177.987 201.294C177.934 201.368 177.9 201.453 177.887 201.542C177.874 201.631 177.883 201.723 177.912 201.808L186.152 225.352C186.253 225.679 186.456 225.964 186.731 226.167C187.005 226.37 187.338 226.48 187.68 226.48Z" fill="#2B786C"/>
<path opacity="0.5" d="M187.68 226.48H202.712C202.807 226.481 202.902 226.458 202.986 226.413C203.071 226.369 203.143 226.304 203.196 226.225C203.249 226.145 203.282 226.054 203.291 225.959C203.3 225.864 203.285 225.768 203.248 225.68L195.008 202.136C194.899 201.818 194.693 201.543 194.418 201.349C194.144 201.156 193.816 201.053 193.48 201.056H178.448C178.358 201.056 178.269 201.078 178.189 201.119C178.108 201.161 178.039 201.221 177.987 201.294C177.934 201.368 177.9 201.453 177.887 201.542C177.874 201.631 177.883 201.723 177.912 201.808L186.152 225.352C186.253 225.679 186.456 225.964 186.731 226.167C187.005 226.37 187.338 226.48 187.68 226.48Z" fill="white"/>
<path d="M189.36 213.784C189.552 214.688 190.16 215.384 190.752 215.384C191.344 215.384 191.648 214.656 191.456 213.784C191.264 212.912 190.656 212.184 190.056 212.184C189.456 212.184 189.168 212.88 189.36 213.784Z" fill="white"/>
<path d="M158.56 213.136C158.56 213.136 153.424 208.376 156.16 206.312C158.896 204.248 152.96 201.072 155.08 199.528C157.2 197.984 154.04 193.984 155.88 193.32C157.72 192.656 155.432 190.32 156.768 189.192C158.528 187.72 158.168 195.256 159.92 195.384C161.672 195.512 158.192 199.664 160.368 200.184C162.544 200.704 159.568 205.416 161.616 205.504C163.664 205.592 161.776 210.712 158.56 213.136Z" fill="#2B786C"/>
<path opacity="0.5" d="M158.56 213.136C158.56 213.136 153.424 208.376 156.16 206.312C158.896 204.248 152.96 201.072 155.08 199.528C157.2 197.984 154.04 193.984 155.88 193.32C157.72 192.656 155.432 190.32 156.768 189.192C158.528 187.72 158.168 195.256 159.92 195.384C161.672 195.512 158.192 199.664 160.368 200.184C162.544 200.704 159.568 205.416 161.616 205.504C163.664 205.592 161.776 210.712 158.56 213.136Z" fill="white"/>
<g opacity="0.2">
<path d="M156.848 191.128C157.381 194.248 157.811 197.381 158.136 200.528C158.56 204.384 159.448 209.256 158.24 213.048C158.112 213.448 158.744 213.624 158.88 213.224C160.128 209.32 159.232 204.488 158.8 200.528C158.448 197.328 158 194.128 157.488 190.928C157.424 190.504 156.784 190.688 156.848 191.104V191.128Z" fill="black"/>
</g>
<path d="M156.848 212.304C156.848 212.304 151.552 209.752 153.208 207.432C154.864 205.112 149.344 204.016 150.672 202.248C152 200.48 148.464 198.056 149.784 197.064C151.104 196.072 148.28 193.688 149.488 193.536C151.416 193.296 152.104 198.056 153.536 197.728C154.968 197.4 153.208 201.584 155.08 201.48C156.952 201.376 155.744 205.872 157.4 205.48C159.056 205.088 158.832 209.6 156.848 212.304Z" fill="#2B786C"/>
<g opacity="0.2">
<path d="M150.592 195.784C153.128 200.984 155.696 206.624 156.528 212.392C156.592 212.816 157.224 212.632 157.168 212.216C156.32 206.408 153.72 200.696 151.16 195.416C150.976 195.032 150.4 195.368 150.592 195.752V195.784Z" fill="black"/>
</g>
<path d="M161.296 212.304C161.296 212.304 166.592 209.752 164.936 207.432C163.28 205.112 168.8 204.016 167.472 202.248C166.144 200.48 169.68 198.056 168.36 197.064C167.04 196.072 169.464 195.176 168.664 193.536C167.864 191.896 166.04 198.056 164.608 197.728C163.176 197.4 164.936 201.584 163.064 201.48C161.192 201.376 162.4 205.872 160.744 205.48C159.088 205.088 159.312 209.6 161.296 212.304Z" fill="#2B786C"/>
<path opacity="0.2" d="M161.296 212.304C161.296 212.304 166.592 209.752 164.936 207.432C163.28 205.112 168.8 204.016 167.472 202.248C166.144 200.48 169.68 198.056 168.36 197.064C167.04 196.072 169.464 195.176 168.664 193.536C167.864 191.896 166.04 198.056 164.608 197.728C163.176 197.4 164.936 201.584 163.064 201.48C161.192 201.376 162.4 205.872 160.744 205.48C159.088 205.088 159.312 209.6 161.296 212.304Z" fill="white"/>
<g opacity="0.2">
<path d="M167.504 195.784C164.968 200.984 162.4 206.624 161.568 212.392C161.504 212.816 160.872 212.632 160.928 212.216C161.768 206.408 164.376 200.696 166.936 195.416C167.12 195.032 167.736 195.368 167.504 195.752V195.784Z" fill="black"/>
</g>
<path d="M164.096 227.352H154.68L152.912 211.496H165.856L164.096 227.352Z" fill="#2B786C"/>
<path opacity="0.3" d="M164.096 227.352H154.68L152.912 211.496H165.856L164.096 227.352Z" fill="white"/>
<path d="M188.064 326.984C187.573 326.984 187.099 326.802 186.735 326.472C186.372 326.142 186.144 325.689 186.096 325.2L185.472 318.608V228.256H190.656V318.608L190.032 325.2C189.984 325.689 189.756 326.142 189.392 326.472C189.029 326.802 188.555 326.984 188.064 326.984Z" fill="#263238"/>
<path opacity="0.3" d="M188.064 326.984C187.573 326.984 187.099 326.802 186.735 326.472C186.372 326.142 186.144 325.689 186.096 325.2L185.472 318.608V228.256H190.656V318.608L190.032 325.2C189.984 325.689 189.756 326.142 189.392 326.472C189.029 326.802 188.555 326.984 188.064 326.984Z" fill="white"/>
<path opacity="0.1" d="M190.664 229.136H185.472V235.512H190.664V229.136Z" fill="black"/>
<path d="M192.496 319.52V317.464C192.497 317.272 192.46 317.082 192.388 316.904C192.315 316.727 192.208 316.565 192.072 316.429C191.937 316.293 191.776 316.185 191.599 316.112C191.422 316.038 191.232 316 191.04 316H185.088C184.702 316 184.332 316.153 184.059 316.426C183.785 316.699 183.632 317.07 183.632 317.456V319.512L168.984 323.512C168.12 323.75 167.358 324.265 166.815 324.977C166.272 325.689 165.977 326.56 165.976 327.456H210.152C210.151 326.56 209.856 325.689 209.313 324.977C208.77 324.265 208.008 323.75 207.144 323.512L192.496 319.52Z" fill="#2B786C"/>
<path opacity="0.1" d="M192.496 319.472V317.464C192.5 317.397 192.5 317.331 192.496 317.264H183.696C183.692 317.331 183.692 317.397 183.696 317.464V319.472H192.496Z" fill="black"/>
<path opacity="0.2" d="M192.496 319.52V317.464C192.497 317.272 192.46 317.082 192.388 316.904C192.315 316.727 192.208 316.565 192.072 316.429C191.937 316.293 191.776 316.185 191.599 316.112C191.422 316.038 191.232 316 191.04 316H185.088C184.702 316 184.332 316.153 184.059 316.426C183.785 316.699 183.632 317.07 183.632 317.456V319.512L168.984 323.512C168.12 323.75 167.358 324.265 166.815 324.977C166.272 325.689 165.977 326.56 165.976 327.456H210.152C210.151 326.56 209.856 325.689 209.313 324.977C208.77 324.265 208.008 323.75 207.144 323.512L192.496 319.52Z" fill="black"/>
<path d="M244.296 230.248H131.824V233.28H244.296V230.248Z" fill="#263238"/>
<path opacity="0.3" d="M244.296 230.248H131.824V233.28H244.296V230.248Z" fill="white"/>
<path opacity="0.2" d="M244.296 230.248H188.216V233.28H244.296V230.248Z" fill="black"/>
<path d="M251.08 227.208H125.04V230.24H251.08V227.208Z" fill="#2B786C"/>
<path opacity="0.3" d="M251.08 227.208H181.432V230.24H251.08V227.208Z" fill="black"/>
</svg>
