        <svg xmlns="http://www.w3.org/2000/svg" width="32" height="32" viewBox="0 0 32 32" fill="none">
          <path fill-rule="evenodd" clip-rule="evenodd"
            d="M11.9993 1.91669C8.59204 1.91669 6.01182 2.59355 4.30235 4.30302C2.59288 6.01249 1.91602 8.59271 1.91602 12V20C1.91602 23.4073 2.59288 25.9875 4.30235 27.697C6.01182 29.4065 8.59204 30.0834 11.9993 30.0834H19.9993C23.4067 30.0834 25.9869 29.4065 27.6963 27.697C29.4058 25.9875 30.0827 23.4073 30.0827 20V12C30.0827 8.59271 29.4058 6.01249 27.6963 4.30302C25.9869 2.59355 23.4067 1.91669 19.9993 1.91669H11.9993ZM3.41602 12C3.41602 8.74066 4.07248 6.65421 5.36301 5.36368C6.65354 4.07315 8.73999 3.41669 11.9993 3.41669H19.9993C23.2587 3.41669 25.3452 4.07315 26.6357 5.36368C27.9262 6.65421 28.5827 8.74066 28.5827 12V20C28.5827 23.2594 27.9262 25.3458 26.6357 26.6364C25.3452 27.9269 23.2587 28.5834 19.9993 28.5834H11.9993C8.73999 28.5834 6.65354 27.9269 5.36301 26.6364C4.07248 25.3458 3.41602 23.2594 3.41602 20V12ZM10.2599 9.5114C10.1373 9.28334 9.90574 9.13466 9.64733 9.11809C9.38893 9.10153 9.14026 9.21942 8.98953 9.42996C6.92384 12.3152 6.91175 16.1993 9.10167 19.1099L8.97129 19.1536C8.67299 19.2533 8.37424 19.353 8.1486 19.428C8.03568 19.4655 7.94168 19.4967 7.8754 19.5185L7.80014 19.5431L7.79585 19.5445C7.76568 19.553 7.73587 19.5634 7.70659 19.5759C7.62354 19.611 7.54895 19.6603 7.48528 19.7203C7.40448 19.7962 7.34368 19.8869 7.30405 19.9851C7.23074 20.1667 7.22984 20.3738 7.30867 20.5593C7.33338 20.6178 7.36512 20.672 7.40268 20.7212C7.95596 21.4786 8.61788 22.368 9.58513 23.0525C10.5805 23.7568 11.8548 24.2166 13.5993 24.2166C16.59 24.2166 19.0039 23.1416 20.6617 21.2628C22.2662 19.4444 23.1049 16.9395 23.1476 14.0962L24.6234 11.8826C24.7768 11.6524 24.7911 11.3565 24.6606 11.1127C24.5301 10.8688 24.2759 10.7166 23.9993 10.7166H21.9832C21.6435 10.2837 21.2287 9.91116 20.7098 9.63422C20.0621 9.28854 19.2984 9.11656 18.3993 9.11656C17.0335 9.11656 15.8549 9.61023 15.0083 10.4753C14.3807 11.1166 13.9586 11.9381 13.7659 12.8609C12.3422 12.2364 11.0269 10.9379 10.2599 9.5114ZM10.6376 20.1777L10.3993 19.4666L10.6376 20.1777C10.8832 20.0954 11.069 19.8922 11.1289 19.6403C11.1889 19.3883 11.1147 19.1233 10.9326 18.9391C8.81651 16.7998 8.41985 13.7687 9.61821 11.2965C10.7419 12.8334 12.4003 14.1525 14.2222 14.5953C14.4416 14.6487 14.6733 14.6003 14.853 14.4638C15.0328 14.3272 15.1415 14.117 15.1489 13.8914C15.1817 12.8998 15.5312 12.0857 16.0804 11.5245C16.6256 10.9673 17.4087 10.6166 18.3993 10.6166C19.1047 10.6166 19.6153 10.7504 20.0036 10.9576C20.3902 11.1639 20.7018 11.4677 20.9732 11.8793C21.1119 12.0899 21.3472 12.2166 21.5993 12.2166H22.598L21.781 13.4419C21.7374 13.5054 21.7032 13.5759 21.6807 13.6514C21.6585 13.7252 21.6483 13.8011 21.6493 13.8765C21.6475 16.534 20.8878 18.7394 19.537 20.2703C18.1948 21.7915 16.2086 22.7166 13.5993 22.7166C12.1439 22.7166 11.1768 22.3412 10.4516 21.828C9.98082 21.4949 9.59401 21.0924 9.23182 20.648L9.44674 20.5762L10.2661 20.3021L10.5355 20.2119L10.6109 20.1866L10.6308 20.18L10.6359 20.1783L10.6372 20.1778L10.6375 20.1777L10.6376 20.1777Z"
            fill="white" />
        </svg>
