<svg width="400" height="400" viewBox="0 0 400 400" fill="none" xmlns="http://www.w3.org/2000/svg">
<path d="M30.0961 141.552C30.0961 141.552 45.4961 76.464 106.184 44.8C166.872 13.136 239.248 26.608 298.184 35.92C357.12 45.232 394.608 90.32 390.6 144.408C386.592 198.496 339.064 203.608 302.776 257.84C266.488 312.072 264.608 332.24 206.152 357.168C147.696 382.096 72.6241 341.08 43.7521 268.368C14.8801 195.656 30.0961 141.552 30.0961 141.552Z" fill="#2B786C"/>
<path opacity="0.8" d="M30.0961 141.552C30.0961 141.552 45.4961 76.464 106.184 44.8C166.872 13.136 239.248 26.608 298.184 35.92C357.12 45.232 394.608 90.32 390.6 144.408C386.592 198.496 339.064 203.608 302.776 257.84C266.488 312.072 264.608 332.24 206.152 357.168C147.696 382.096 72.6241 341.08 43.7521 268.368C14.8801 195.656 30.0961 141.552 30.0961 141.552Z" fill="white"/>
<path d="M84 98.4L376.8 372" stroke="#263238" stroke-miterlimit="10" stroke-linecap="round"/>
<path d="M122.696 62.4C123.415 58.5411 122.981 54.5557 121.446 50.9427C119.911 47.3298 117.345 44.2498 114.068 42.0884C110.791 39.9269 106.95 38.7801 103.024 38.7914C99.099 38.8027 95.2642 39.9717 91.9999 42.152C89.6382 36.3717 85.3405 31.5922 79.8427 28.6319C74.3449 25.6715 67.9889 24.7144 61.8632 25.9245C55.7374 27.1345 50.2227 30.4364 46.2635 35.2648C42.3042 40.0932 40.1465 46.1478 40.16 52.392C40.16 52.72 40.16 53.048 40.16 53.384C36.2875 54.4804 32.9105 56.8766 30.5969 60.1698C28.2832 63.463 27.1739 67.4524 27.4556 71.4673C27.7372 75.4821 29.3925 79.2776 32.1432 82.2156C34.8939 85.1536 38.5723 87.0549 42.56 87.6V87.784H121.84C125.206 87.8975 128.479 86.6692 130.94 84.3692C133.4 82.0693 134.846 78.8861 134.96 75.52C135.073 72.1539 133.845 68.8805 131.545 66.42C129.245 63.9595 126.062 62.5135 122.696 62.4Z" stroke="#263238" stroke-miterlimit="10"/>
<path d="M183.008 142.256V141.056" stroke="#263238" stroke-linecap="round" stroke-linejoin="round"/>
<path d="M183.008 138.688V54.424" stroke="#263238" stroke-linecap="round" stroke-linejoin="round" stroke-dasharray="2.97 2.97"/>
<path d="M183.008 53.24V52.04H181.808" stroke="#263238" stroke-linecap="round" stroke-linejoin="round"/>
<path d="M179.392 52.04H132.2" stroke="#263238" stroke-linecap="round" stroke-linejoin="round" stroke-dasharray="3.02 3.02"/>
<path d="M130.992 52.04H129.792" stroke="#263238" stroke-linecap="round" stroke-linejoin="round"/>
<path d="M187 141.096L183.008 148L179.024 141.096H187Z" fill="#263238"/>
<path d="M197.392 110.728H167.664V69.44H188.736L197.392 78.024V110.728Z" fill="white" stroke="#263238" stroke-linecap="round" stroke-linejoin="round"/>
<path d="M188.736 69.44V77.872H197.392L188.736 69.44Z" fill="white" stroke="#263238" stroke-linecap="round" stroke-linejoin="round"/>
<path d="M172.256 83.336H192.792" stroke="#263238" stroke-linecap="round" stroke-linejoin="round"/>
<path d="M172.256 88.936H192.792" stroke="#263238" stroke-linecap="round" stroke-linejoin="round"/>
<path d="M172.256 94.536H192.792" stroke="#263238" stroke-linecap="round" stroke-linejoin="round"/>
<path d="M172.256 100.136H192.792" stroke="#263238" stroke-linecap="round" stroke-linejoin="round"/>
<path d="M139.984 70.768H110.256V29.48H131.328L139.984 38.064V70.768Z" fill="white" stroke="#263238" stroke-linecap="round" stroke-linejoin="round"/>
<path d="M131.328 29.48V37.912H139.984L131.328 29.48Z" fill="white" stroke="#263238" stroke-linecap="round" stroke-linejoin="round"/>
<path d="M114.848 43.376H135.384" stroke="#263238" stroke-linecap="round" stroke-linejoin="round"/>
<path d="M114.848 48.976H135.384" stroke="#263238" stroke-linecap="round" stroke-linejoin="round"/>
<path d="M114.848 54.576H135.384" stroke="#263238" stroke-linecap="round" stroke-linejoin="round"/>
<path d="M114.848 60.176H135.384" stroke="#263238" stroke-linecap="round" stroke-linejoin="round"/>
<path d="M65.9199 332.8V104.912" stroke="#263238" stroke-linecap="round" stroke-linejoin="round" stroke-dasharray="3 3"/>
<path d="M69.904 106.08L65.92 99.168L61.928 106.08H69.904Z" fill="#263238"/>
<path d="M81.2158 294.864H51.4958V253.576H72.5598L81.2158 262.16V294.864Z" fill="white" stroke="#263238" stroke-linecap="round" stroke-linejoin="round"/>
<path d="M72.5601 253.576V262.008H81.2161L72.5601 253.576Z" fill="white" stroke="#263238" stroke-linecap="round" stroke-linejoin="round"/>
<path d="M56.0879 267.472H76.6239" stroke="#263238" stroke-linecap="round" stroke-linejoin="round"/>
<path d="M56.0879 273.072H76.6239" stroke="#263238" stroke-linecap="round" stroke-linejoin="round"/>
<path d="M56.0879 278.672H76.6239" stroke="#263238" stroke-linecap="round" stroke-linejoin="round"/>
<path d="M56.0879 284.272H76.6239" stroke="#263238" stroke-linecap="round" stroke-linejoin="round"/>
<path d="M81.2158 185.264H51.4958V143.976H72.5598L81.2158 152.56V185.264Z" fill="white" stroke="#263238" stroke-linecap="round" stroke-linejoin="round"/>
<path d="M72.5601 143.976V152.408H81.2161L72.5601 143.976Z" fill="white" stroke="#263238" stroke-linecap="round" stroke-linejoin="round"/>
<path d="M56.0879 157.872H76.6239" stroke="#263238" stroke-linecap="round" stroke-linejoin="round"/>
<path d="M56.0879 163.472H76.6239" stroke="#263238" stroke-linecap="round" stroke-linejoin="round"/>
<path d="M56.0879 169.072H76.6239" stroke="#263238" stroke-linecap="round" stroke-linejoin="round"/>
<path d="M56.0879 174.672H76.6239" stroke="#263238" stroke-linecap="round" stroke-linejoin="round"/>
<path d="M314.032 19.488H254.616L253.832 27.656H314.032V19.488Z" stroke="#B2B2B2" stroke-miterlimit="10"/>
<path d="M314.032 27.656H254.616L253.832 35.824H314.032V27.656Z" stroke="#B2B2B2" stroke-miterlimit="10"/>
<path d="M314.032 35.824H254.616L253.832 43.992H314.032V35.824Z" stroke="#B2B2B2" stroke-miterlimit="10"/>
<path d="M314.032 43.992H254.616L253.832 52.16H314.032V43.992Z" stroke="#B2B2B2" stroke-miterlimit="10"/>
<path d="M314.032 52.16H254.616L253.832 60.328H314.032V52.16Z" stroke="#B2B2B2" stroke-miterlimit="10"/>
<path d="M314.032 60.328H254.616L253.832 68.496H314.032V60.328Z" stroke="#B2B2B2" stroke-miterlimit="10"/>
<path d="M314.032 68.496H254.616L253.832 76.664H314.032V68.496Z" stroke="#B2B2B2" stroke-miterlimit="10"/>
<path d="M314.032 76.664H254.616L253.832 84.832H314.032V76.664Z" stroke="#B2B2B2" stroke-miterlimit="10"/>
<path d="M314.032 84.832H254.616L253.832 93H314.032V84.832Z" stroke="#B2B2B2" stroke-miterlimit="10"/>
<path d="M314.032 93H254.616L253.832 101.168H314.032V93Z" stroke="#B2B2B2" stroke-miterlimit="10"/>
<path d="M314.032 101.168H254.616L253.832 109.336H314.032V101.168Z" stroke="#B2B2B2" stroke-miterlimit="10"/>
<path d="M314.032 109.336H254.616L253.832 117.504H314.032V109.336Z" stroke="#B2B2B2" stroke-miterlimit="10"/>
<path d="M314.032 117.504H254.616L253.832 125.68H314.032V117.504Z" stroke="#B2B2B2" stroke-miterlimit="10"/>
<path d="M314.032 125.68H254.616L253.832 133.848H314.032V125.68Z" stroke="#B2B2B2" stroke-miterlimit="10"/>
<path d="M314.032 133.848H254.616L253.832 142.016H314.032V133.848Z" stroke="#B2B2B2" stroke-miterlimit="10"/>
<path d="M375.112 19.488H315.696L314.904 27.656H375.112V19.488Z" stroke="#B2B2B2" stroke-miterlimit="10"/>
<path d="M375.112 27.656H315.696L314.904 35.824H375.112V27.656Z" stroke="#B2B2B2" stroke-miterlimit="10"/>
<path d="M375.112 35.824H315.696L314.904 43.992H375.112V35.824Z" stroke="#B2B2B2" stroke-miterlimit="10"/>
<path d="M375.112 43.992H315.696L314.904 52.16H375.112V43.992Z" stroke="#B2B2B2" stroke-miterlimit="10"/>
<path d="M375.112 52.16H315.696L314.904 60.328H375.112V52.16Z" stroke="#B2B2B2" stroke-miterlimit="10"/>
<path d="M375.112 60.328H315.696L314.904 68.496H375.112V60.328Z" stroke="#B2B2B2" stroke-miterlimit="10"/>
<path d="M375.112 68.496H315.696L314.904 76.664H375.112V68.496Z" stroke="#B2B2B2" stroke-miterlimit="10"/>
<path d="M375.112 76.664H315.696L314.904 84.832H375.112V76.664Z" stroke="#B2B2B2" stroke-miterlimit="10"/>
<path d="M375.112 84.832H315.696L314.904 93H375.112V84.832Z" stroke="#B2B2B2" stroke-miterlimit="10"/>
<path d="M375.112 93H315.696L314.904 101.168H375.112V93Z" stroke="#B2B2B2" stroke-miterlimit="10"/>
<path d="M375.112 101.168H315.696L314.904 109.336H375.112V101.168Z" stroke="#B2B2B2" stroke-miterlimit="10"/>
<path d="M375.112 109.336H315.696L314.904 117.504H375.112V109.336Z" stroke="#B2B2B2" stroke-miterlimit="10"/>
<path d="M375.112 117.504H315.696L314.904 125.68H375.112V117.504Z" stroke="#B2B2B2" stroke-miterlimit="10"/>
<path d="M375.112 125.68H315.696L314.904 133.848H375.112V125.68Z" stroke="#B2B2B2" stroke-miterlimit="10"/>
<path d="M375.112 133.848H315.696L314.904 142.016H375.112V133.848Z" stroke="#B2B2B2" stroke-miterlimit="10"/>
<path d="M378.08 13.16H252.44V19.32H378.08V13.16Z" stroke="#B2B2B2" stroke-miterlimit="10"/>
<path d="M378.088 19.32V127.848" stroke="#B2B2B2" stroke-miterlimit="10"/>
<path d="M376.712 19.496V93.952" stroke="#B2B2B2" stroke-miterlimit="10"/>
<path d="M378.976 127.608H377.288V130.376H378.976V127.608Z" fill="#263238" stroke="#B2B2B2" stroke-miterlimit="10"/>
<path d="M377.448 93.36H375.76V96.128H377.448V93.36Z" fill="#263238" stroke="#B2B2B2" stroke-miterlimit="10"/>
<path d="M234.288 125.672C234.288 125.672 212.88 133.8 209.6 136.8C206.32 139.8 187.384 200.76 187.384 200.76H319.384C319.384 200.76 309.6 159.816 307.2 145.992C304.8 132.168 294.192 129.192 288.8 128.104C283.408 127.016 234.288 125.672 234.288 125.672Z" fill="#263238" stroke="#263238" stroke-linecap="round" stroke-linejoin="round"/>
<path d="M270.336 137.232L267.504 200.736H290.392L281.192 131.672L270.336 137.232Z" fill="#2B786C" stroke="#263238" stroke-linecap="round" stroke-linejoin="round"/>
<path d="M236.112 120.344C236.112 120.344 232.576 125.536 233.28 127.192C233.984 128.848 242.016 141.352 250.04 142.768C258.064 144.184 268.208 139.696 273.64 136.368C279.072 133.04 286.144 130.472 287.32 129.76C288.496 129.048 284.256 123.36 282.368 122.448C280.48 121.536 278.12 120.048 278.12 120.048C278.12 120.048 275.528 116.744 275.056 116.048C274.584 115.352 274.344 114.16 273.64 113.216C273.379 112.817 273.031 112.482 272.623 112.237C272.214 111.992 271.755 111.842 271.28 111.8C270.096 111.568 268.448 117.464 261.368 118.648C254.288 119.832 237.056 120.536 237.056 120.536L236.112 120.344Z" fill="#2B786C" stroke="#263238" stroke-linecap="round" stroke-linejoin="round"/>
<path d="M258.064 142.768C258.064 142.768 271.752 135.92 273.4 130.496C275.048 125.072 275.056 116.096 275.056 116.096" stroke="#263238" stroke-linecap="round" stroke-linejoin="round"/>
<path d="M268.448 136.864C268.448 136.864 274.344 134.272 276.232 130.728C278.12 127.184 278.12 120.112 278.12 120.112" stroke="#263238" stroke-linecap="round" stroke-linejoin="round"/>
<path d="M228.52 91.008C228.264 91.968 233.792 119.376 237.752 126.304C241.712 133.232 249.952 137.184 254.904 134.88C260.632 132.2 266.944 126.944 269.68 121.112C270.184 120.032 272.976 108.36 272.384 108.16C272.384 108.16 276.344 109.48 277.984 102.224C279.624 94.968 280.952 90.68 278.976 86.72C277 82.76 265.792 73.528 255.56 75.2C245.328 76.872 230.168 84.744 228.52 91.008Z" fill="white" stroke="#263238" stroke-linecap="round" stroke-linejoin="round"/>
<path d="M255.896 82.4C255.896 82.4 241.384 93.6 231.488 94.608C221.592 95.616 221.6 91.008 221.6 91.008C221.6 91.008 208.736 94.64 210.056 84.744C211.376 74.848 231.2 66.928 231.2 66.928C231.2 66.928 224.272 64.952 227.568 61.328C230.864 57.704 243.4 53.736 251.648 54.728C259.896 55.72 263.52 57.696 263.52 57.696C263.52 57.696 261.208 51.76 266.16 53.696C271.112 55.632 275.352 65.28 275.352 65.28C275.352 65.28 283.928 65.944 284.592 68.248C285.256 70.552 279.64 71.2 279.64 71.2C279.64 71.2 284.92 81.096 282.28 86.704C279.64 92.312 274.032 93.96 273.704 94.952C273.376 95.944 274.696 99.568 272.056 98.248C269.416 96.928 268.424 91.32 268.424 91.32C268.424 91.32 264.472 87.368 264.136 85.72C263.8 84.072 263.48 82.096 263.48 82.096C263.48 82.096 261.168 89.024 255.896 90.008C250.624 90.992 255.896 82.4 255.896 82.4Z" fill="#263238" stroke="#263238" stroke-linecap="round" stroke-linejoin="round"/>
<path d="M244 106.184C244 106.184 237.408 120.696 241.032 121.024C244.656 121.352 247.96 117.392 247.96 117.392" fill="white"/>
<path d="M244 106.184C244 106.184 237.408 120.696 241.032 121.024C244.656 121.352 247.96 117.392 247.96 117.392" stroke="#263238" stroke-linecap="round" stroke-linejoin="round"/>
<path d="M244.352 123.336C244.352 123.336 248.64 127.952 256.552 121.68" stroke="#263238" stroke-linecap="round" stroke-linejoin="round"/>
<path d="M252.992 109.08C252.992 109.08 253.792 112.064 259.768 111.52" stroke="#263238" stroke-linecap="round" stroke-linejoin="round"/>
<path d="M240.52 108.536C240.52 108.536 238.624 110.976 236.456 110.976" stroke="#263238" stroke-linecap="round" stroke-linejoin="round"/>
<path d="M265.904 101.6C265.904 101.6 250.616 101.272 248.968 101.936C247.32 102.6 246.992 106.552 247.976 109.192C248.96 111.832 251.28 115.456 257.216 115.456C263.152 115.456 266.12 112.488 268.096 106.88C270.072 101.272 265.904 101.6 265.904 101.6Z" stroke="#263238" stroke-linecap="round" stroke-linejoin="round"/>
<path d="M228.176 101.6C228.176 101.6 239.944 101.272 241.216 101.936C242.488 102.6 242.736 106.552 242.016 109.192C241.296 111.832 239.472 115.456 234.904 115.456C230.336 115.456 228.048 112.488 226.528 106.88C225.008 101.272 228.176 101.6 228.176 101.6Z" stroke="#263238" stroke-linecap="round" stroke-linejoin="round"/>
<path d="M268.816 103.464L273.84 96.824" stroke="#263238" stroke-linecap="round" stroke-linejoin="round"/>
<path d="M248.968 101.896H241.136" stroke="#263238" stroke-linecap="round" stroke-linejoin="round"/>
<path d="M246.96 105.08H242.104" stroke="#263238" stroke-linecap="round" stroke-linejoin="round"/>
<path d="M226.4 103.136L230.128 100.712" stroke="#263238" stroke-linecap="round" stroke-linejoin="round"/>
<path d="M256.648 107.488C256.648 108.72 256.064 109.728 255.344 109.728C254.624 109.728 254.048 108.72 254.048 107.488C254.048 106.256 254.632 105.248 255.344 105.248C256.056 105.248 256.648 106.248 256.648 107.488Z" fill="#263238"/>
<path d="M239.416 106.544C239.416 107.784 238.84 108.784 238.12 108.784C237.4 108.784 236.824 107.784 236.824 106.544C236.824 105.304 237.408 104.304 238.12 104.304C238.832 104.304 239.416 105.304 239.416 106.544Z" fill="#263238"/>
<path d="M233.28 98.872C233.28 98.872 238 96.984 240.36 98.4" stroke="#263238" stroke-width="2" stroke-linecap="round" stroke-linejoin="round"/>
<path d="M251.2 98.64C254.428 97.7021 257.894 98.04 260.88 99.584" stroke="#263238" stroke-width="2" stroke-linecap="round" stroke-linejoin="round"/>
<path d="M175.8 192.84C174.037 191.746 172.063 191.038 170.007 190.762C167.951 190.486 165.86 190.649 163.872 191.24C157.368 193.136 154.12 198.832 154.12 200.728H181.488C181.15 199.086 180.468 197.535 179.488 196.175C178.508 194.816 177.251 193.679 175.8 192.84Z" fill="#808080" stroke="#263238" stroke-linecap="round" stroke-linejoin="round"/>
<path d="M158.992 186.336C158.992 186.336 155.472 191.488 155.472 193.384C155.472 195.28 153.576 197.176 156.272 197.992C158.968 198.808 160.608 189.32 160.608 188.24C160.608 187.16 158.992 186.336 158.992 186.336Z" fill="white" stroke="#263238" stroke-linecap="round" stroke-linejoin="round"/>
<path d="M163.872 186.064C163.872 186.064 160.08 185.264 158.992 186.336C157.904 187.408 156.016 196.912 156.288 197.992C156.56 199.072 159.264 199.344 160.08 198.264C160.896 197.184 163.872 186.064 163.872 186.064Z" fill="white" stroke="#263238" stroke-linecap="round" stroke-linejoin="round"/>
<path d="M180.136 190.4C180.136 190.4 168.752 186.328 166.312 184.704C163.872 183.08 162.52 186.304 161.704 188.232C160.888 190.16 158.992 196.904 158.992 198.8C158.992 200.696 161.976 201.504 162.52 199.336C163.064 197.168 167.4 190.128 167.4 190.128L173.088 192.296C173.088 192.296 173.632 193.096 171.192 194.736C168.752 196.376 165.232 199.88 166.312 200.424C167.392 200.968 170.648 200.696 171.736 199.624C172.824 198.552 178.504 197.184 178.504 197.184C178.504 197.184 183.656 200.44 184.744 200.712C185.832 200.984 192.6 199.624 192.6 199.624C192.6 199.624 185.008 193.12 183.928 192.312C182.725 191.561 181.456 190.921 180.136 190.4Z" fill="white" stroke="#263238" stroke-linecap="round" stroke-linejoin="round"/>
<path d="M282.8 186.192H277.112C274.672 186.192 269.792 184.592 269.52 187.272C269.248 189.952 274.944 191.608 277.648 191.608C280.352 191.608 281.984 190.528 285.24 192.152C288.496 193.776 290.392 194.864 290.392 194.864L286.592 188.896L282.8 186.192Z" fill="white" stroke="#263238" stroke-linecap="round" stroke-linejoin="round"/>
<path d="M305.296 200.28C305.296 200.28 300.144 189.168 297.704 185.648C295.264 182.128 280.904 179.416 279.304 179.416C277.704 179.416 273.608 188.36 274.152 190.528C274.696 192.696 275.752 190.256 276.552 188.928C277.352 187.6 280.344 183.784 280.344 183.784C280.344 183.784 284.952 191.368 286.848 195.432C288.744 199.496 292.544 200.04 294.712 200.584C296.88 201.128 305.296 200.28 305.296 200.28Z" fill="white" stroke="#263238" stroke-linecap="round" stroke-linejoin="round"/>
<path d="M292 184C292 184 286.848 177.224 284.136 178.304C281.424 179.384 277.096 192.4 276.552 194.024C276.008 195.648 279.264 194.568 279.8 193.224C280.336 191.88 285.224 184.824 285.224 184.824L289.56 187.536" fill="white"/>
<path d="M292 184C292 184 286.848 177.224 284.136 178.304C281.424 179.384 277.096 192.4 276.552 194.024C276.008 195.648 279.264 194.568 279.8 193.224C280.336 191.88 285.224 184.824 285.224 184.824L289.56 187.536" stroke="#263238" stroke-linecap="round" stroke-linejoin="round"/>
<path d="M295.808 184C295.808 184 290.392 179.392 288.488 179.928C286.584 180.464 279.816 193.752 280.904 194.328C281.992 194.904 284.152 193.784 285.24 192.16C286.328 190.536 288.488 186.736 288.488 186.736L292.56 189.72" fill="white"/>
<path d="M295.808 184C295.808 184 290.392 179.392 288.488 179.928C286.584 180.464 279.816 193.752 280.904 194.328C281.992 194.904 284.152 193.784 285.24 192.16C286.328 190.536 288.488 186.736 288.488 186.736L292.56 189.72" stroke="#263238" stroke-linecap="round" stroke-linejoin="round"/>
<path d="M298.456 187.728C298.456 187.728 295.808 182.392 293.912 183.208C292.016 184.024 285.512 194.048 287.408 194.048C289.304 194.048 295 188.088 295 188.088C295 188.088 294.456 192.696 295 195.128" fill="white"/>
<path d="M298.456 187.728C298.456 187.728 295.808 182.392 293.912 183.208C292.016 184.024 285.512 194.048 287.408 194.048C289.304 194.048 295 188.088 295 188.088C295 188.088 294.456 192.696 295 195.128" stroke="#263238" stroke-linecap="round" stroke-linejoin="round"/>
<path d="M219.744 200.736H290.856V198.536H219.744V200.736Z" fill="#808080" stroke="#263238" stroke-linecap="round" stroke-linejoin="round"/>
<path d="M167.832 152.28H239.256L253.728 200.736H182.304L167.832 152.28Z" fill="#808080" stroke="#263238" stroke-linecap="round" stroke-linejoin="round"/>
<path d="M137.792 200.736H390.136" stroke="#263238" stroke-linecap="round" stroke-linejoin="round"/>
<path d="M329.6 174.728C329.6 174.728 330.776 187.232 330.072 191.248C329.368 195.264 327.472 195.728 327 197.648C326.528 199.568 330.072 199.304 332.192 199.064C334.312 198.824 336.672 188.664 339.272 176.176" fill="white"/>
<path d="M329.6 174.728C329.6 174.728 330.776 187.232 330.072 191.248C329.368 195.264 327.472 195.728 327 197.648C326.528 199.568 330.072 199.304 332.192 199.064C334.312 198.824 336.672 188.664 339.272 176.176" stroke="#263238" stroke-linecap="round" stroke-linejoin="round"/>
<path d="M348.424 197.496C348.424 197.496 343.048 198.128 342.888 199.552C342.728 200.976 343.832 202.08 347.944 202.24C352.056 202.4 362.648 201.928 364.392 200.976C366.136 200.024 360.44 198.576 356.96 198.128C353.48 197.68 348.424 197.496 348.424 197.496Z" fill="white" stroke="#263238" stroke-linecap="round" stroke-linejoin="round"/>
<path d="M325.792 147.824C325.792 147.824 320.128 152.072 319.656 161.752C319.184 171.432 327.2 178.736 331.2 180.392C335.2 182.048 340.168 183.696 341.6 184.872C343.032 186.048 343.376 192.872 345.376 195.968C348.424 200.664 356.704 202.576 367.088 201.392C377.472 200.208 377.672 188.8 378.648 181.096C379.8 172 374.4 156.8 367.792 152.8C361.184 148.8 350.568 149.968 347.264 149.256C345.049 148.67 343.018 147.533 341.36 145.952C338.888 144.625 336.066 144.092 333.28 144.427C330.494 144.762 327.879 145.948 325.792 147.824Z" fill="white" stroke="#263238" stroke-linecap="round" stroke-linejoin="round"/>
<path d="M343.472 145.6C344.344 148.4 340.808 152 335.584 153.6C330.36 155.2 325.416 154.272 324.544 151.472C323.672 148.672 327.2 145.072 332.432 143.472C337.664 141.872 342.6 142.784 343.472 145.6Z" fill="#2B786C" stroke="#263238" stroke-linecap="round" stroke-linejoin="round"/>
<path d="M333.512 156.576C333.677 157.108 333.681 157.677 333.522 158.211C333.364 158.745 333.051 159.221 332.622 159.577C332.194 159.933 331.669 160.154 331.115 160.211C330.561 160.269 330.002 160.161 329.509 159.902C329.016 159.642 328.612 159.242 328.346 158.752C328.081 158.262 327.967 157.704 328.019 157.149C328.07 156.595 328.286 156.068 328.637 155.635C328.988 155.203 329.46 154.884 329.992 154.72C330.705 154.502 331.475 154.575 332.134 154.923C332.794 155.27 333.289 155.865 333.512 156.576Z" fill="#263238" stroke="#263238" stroke-linecap="round" stroke-linejoin="round"/>
<path d="M336.176 173.312C336.176 173.312 336.176 185.112 335.704 190.064C335.232 195.016 334.288 196.2 332.872 197.144C331.456 198.088 331.216 199.744 333.344 200.448C335.472 201.152 338.296 200.216 339 199.272C339.704 198.328 344.432 185.816 347.736 175.2" fill="white"/>
<path d="M336.176 173.312C336.176 173.312 336.176 185.112 335.704 190.064C335.232 195.016 334.288 196.2 332.872 197.144C331.456 198.088 331.216 199.744 333.344 200.448C335.472 201.152 338.296 200.216 339 199.272C339.704 198.328 344.432 185.816 347.736 175.2" stroke="#263238" stroke-linecap="round" stroke-linejoin="round"/>
<path d="M377.512 191.328C377.512 191.328 383.84 195.256 381.952 200.688C380.064 206.12 359.296 207.296 343.72 207.296C328.144 207.296 311.864 206.112 313.32 200.896C314.776 195.68 326.064 199.248 337.152 199.952C348.24 200.656 372.024 200.856 374.208 197.832C375.576 195.81 376.686 193.625 377.512 191.328Z" fill="white" stroke="#263238" stroke-linecap="round" stroke-linejoin="round"/>
<path d="M306.288 127.384C307.292 129.259 308.451 131.046 309.752 132.728C310.498 133.699 311.379 134.558 312.368 135.28C312.368 135.28 315.448 130.264 314.376 128.144C313.304 126.024 306.288 127.384 306.288 127.384Z" fill="white" stroke="#263238" stroke-linecap="round" stroke-linejoin="round"/>
<path d="M340.432 115.048C341.113 116.786 341.461 118.637 341.456 120.504C341.456 123.704 340.776 124.984 340.776 124.984L334.752 122.28C334.752 122.28 338.576 115.872 340.432 115.048Z" fill="white" stroke="#263238" stroke-linecap="round" stroke-linejoin="round"/>
<path d="M313.32 129.904C313.32 129.904 309.224 138.04 312.144 143.24C315.064 148.44 321.744 150.248 324.648 150.6C327.552 150.952 332.408 152.152 336.76 148.144C341.112 144.136 341.704 143.872 341.704 143.872C341.704 143.872 348.008 137.328 346.896 130.272C345.784 123.216 336.448 121.6 336.448 121.6L340.448 115.048C340.448 115.048 334.76 117 332.944 118.248C331.812 119.002 330.64 119.694 329.432 120.32C326.956 120.29 324.495 120.707 322.168 121.552C319.613 122.732 317.18 124.161 314.904 125.816C314.904 125.816 305.816 126.44 306.304 127.416C306.792 128.392 313.32 129.904 313.32 129.904Z" fill="white" stroke="#263238" stroke-linecap="round" stroke-linejoin="round"/>
<path d="M325.4 142.304C326.579 142.412 327.765 142.2 328.832 141.688C330.52 140.832 329.832 139.872 328.784 139.792C327.644 139.83 326.537 140.181 325.584 140.808C324.8 141.296 324.592 141.696 325.4 142.304Z" fill="white" stroke="#263238" stroke-linecap="round" stroke-linejoin="round"/>
<path d="M325.656 138.072C325.656 138.072 322.456 138.968 322.192 140.824C321.928 142.68 324.024 143.928 325.312 142.88C326.067 142.28 326.612 141.457 326.872 140.528C326.872 140.528 330.144 142.36 331.56 141.144C332.976 139.928 333.408 138.208 332.152 137.328C330.896 136.448 325.656 138.072 325.656 138.072Z" fill="white" stroke="#263238" stroke-linecap="round" stroke-linejoin="round"/>
<path d="M328.08 137.456C328.08 137.456 325.416 137.992 325.136 138.432C324.856 138.872 325.936 140.656 326.96 140.248C327.333 140.054 327.656 139.779 327.907 139.442C328.158 139.105 328.329 138.716 328.408 138.304C328.446 138.146 328.435 137.98 328.376 137.829C328.318 137.677 328.215 137.547 328.08 137.456Z" fill="#263238" stroke="#263238" stroke-linecap="round" stroke-linejoin="round"/>
<path d="M321.12 135.152C321.728 136.36 321.712 137.6 321.072 137.912C320.432 138.224 319.472 137.512 318.832 136.312C318.192 135.112 318.24 133.864 318.832 133.552C319.424 133.24 320.512 133.944 321.12 135.152Z" fill="#263238"/>
<path d="M330.792 132.32C331.336 133.56 331.248 134.792 330.6 135.08C329.952 135.368 329 134.584 328.44 133.344C327.88 132.104 327.984 130.872 328.632 130.592C329.28 130.312 330.248 131.08 330.792 132.32Z" fill="#263238"/>
<path d="M259.728 376.712C257.73 376.61 255.767 376.144 253.936 375.336C253.448 375.124 253.064 374.726 252.869 374.231C252.674 373.736 252.684 373.184 252.896 372.696C253.108 372.208 253.506 371.824 254.001 371.629C254.496 371.434 255.048 371.444 255.536 371.656C257.384 372.456 259.752 372.92 260.392 372.648C261.552 371.344 263.352 363.424 261.032 359.648C260.909 359.382 260.725 359.148 260.494 358.968C260.263 358.787 259.992 358.663 259.704 358.608C258.384 358.432 256.432 359.784 255.744 360.432C255.356 360.794 254.84 360.986 254.309 360.968C253.779 360.949 253.278 360.72 252.916 360.332C252.554 359.944 252.362 359.428 252.38 358.897C252.399 358.367 252.628 357.866 253.016 357.504C253.384 357.16 256.704 354.16 260.216 354.64C261.092 354.772 261.927 355.103 262.655 355.608C263.383 356.113 263.985 356.778 264.416 357.552C267.832 363.104 265.488 373.688 262.872 375.784C261.959 376.439 260.851 376.766 259.728 376.712Z" fill="#263238" stroke="#263238" stroke-linecap="round" stroke-linejoin="round"/>
<path d="M256.184 353H234.08V382.336H256.184V353Z" fill="#263238" stroke="#263238" stroke-linecap="round" stroke-linejoin="round"/>
<path d="M236.088 351.392C236.088 351.392 236.088 348.952 240.56 346.512C245.032 344.072 247.488 340.4 245.04 333.48C242.592 326.56 243.008 321.672 247.896 317.6" stroke="#263238" stroke-linecap="round" stroke-linejoin="round"/>
<path d="M237.104 325.352C237.328 322.376 238.664 319.864 241.376 317.6" stroke="#263238" stroke-linecap="round" stroke-linejoin="round"/>
<path d="M238.528 333.48C238.085 332.247 237.724 330.985 237.448 329.704" stroke="#263238" stroke-linecap="round" stroke-linejoin="round"/>
<path d="M254.272 335.864C254.098 335.05 253.871 334.248 253.592 333.464C253.464 333.088 253.336 332.72 253.224 332.36" stroke="#263238" stroke-linecap="round" stroke-linejoin="round"/>
<path d="M244.632 351.392C244.632 351.392 244.632 348.952 249.112 346.512C252.056 344.912 254.112 342.776 254.496 339.552" stroke="#263238" stroke-linecap="round" stroke-linejoin="round"/>
<path d="M293.976 347.2C293.976 347.2 291.496 344.048 288.8 342.704C286.104 341.36 280.48 340.224 280.48 340.224C280.48 340.224 285.424 339.104 289.28 340C293.136 340.896 295.808 344.728 295.808 344.728C295.808 344.728 294.68 343.128 293.104 338.424C291.528 333.72 291.504 323.584 291.504 323.584C293.901 326.387 295.796 329.583 297.104 333.032C298.193 336.168 298.946 339.41 299.352 342.704C299.352 342.704 298.904 334.832 300.256 330.336C301.608 325.84 305.424 320.216 305.424 320.216C305.424 320.216 305.648 330.104 304.08 335.504C302.512 340.904 301.824 343.376 301.824 343.376C302.811 340.572 304.428 338.032 306.552 335.952C309.92 332.808 318.016 330.104 318.016 330.104C318.016 330.104 314.192 337.08 311.72 339.328C309.248 341.576 306.776 344.048 306.776 344.048C308.989 342.645 311.573 341.94 314.192 342.024C318.92 342.024 324.536 345.176 324.536 345.176C324.536 345.176 308.128 344.952 304.976 347.648L293.976 347.2Z" fill="#2B786C" stroke="#263238" stroke-miterlimit="10"/>
<path d="M297.024 345.984L294.256 344.072" stroke="#263238" stroke-linecap="round" stroke-linejoin="round"/>
<path d="M300.008 347.48L296.176 337.248" stroke="#263238" stroke-linecap="round" stroke-linejoin="round"/>
<path d="M299.584 348.76L302.144 333.84" stroke="#263238" stroke-linecap="round" stroke-linejoin="round"/>
<path d="M300.008 347.48L307.256 338.528" stroke="#263238" stroke-linecap="round" stroke-linejoin="round"/>
<path d="M298.592 346.56L309.176 343.856" stroke="#263238" stroke-linecap="round" stroke-linejoin="round"/>
<path d="M312.84 382.336H290.4L289.384 374.184C288.645 368.233 288.611 362.215 289.28 356.256L290.4 346.296H312.88L313.984 356.04C314.665 361.993 314.639 368.005 313.904 373.952L312.84 382.336Z" fill="#263238"/>
<path d="M314.328 367.024L310.96 346.56L306.456 381.864L298.592 346.56L293.864 382.32L290.36 346.296" fill="#263238"/>
<path d="M314.328 367.024L310.96 346.56L306.456 381.864L298.592 346.56L293.864 382.32L290.36 346.296" stroke="white" stroke-linecap="round" stroke-linejoin="round"/>
<path d="M312.84 382.336H290.4L289.384 374.184C288.645 368.233 288.611 362.215 289.28 356.256L290.4 346.296H312.88L313.984 356.04C314.665 361.993 314.639 368.005 313.904 373.952L312.84 382.336Z" stroke="#263238" stroke-miterlimit="10"/>
<path d="M105.968 243.6C122.095 243.6 135.168 230.527 135.168 214.4C135.168 198.273 122.095 185.2 105.968 185.2C89.8414 185.2 76.7681 198.273 76.7681 214.4C76.7681 230.527 89.8414 243.6 105.968 243.6Z" stroke="#B2B2B2" stroke-miterlimit="10"/>
<path d="M105.968 237.76C118.87 237.76 129.328 227.301 129.328 214.4C129.328 201.499 118.87 191.04 105.968 191.04C93.0668 191.04 82.6082 201.499 82.6082 214.4C82.6082 227.301 93.0668 237.76 105.968 237.76Z" stroke="#B2B2B2" stroke-miterlimit="10"/>
<path d="M102.328 214.4C102.327 215.12 102.539 215.825 102.938 216.424C103.337 217.024 103.905 217.492 104.57 217.769C105.235 218.045 105.967 218.119 106.673 217.979C107.38 217.839 108.029 217.493 108.539 216.985C109.049 216.476 109.396 215.827 109.538 215.121C109.679 214.415 109.607 213.682 109.332 213.017C109.057 212.351 108.59 211.782 107.991 211.382C107.392 210.982 106.688 210.768 105.968 210.768C105.004 210.768 104.079 211.15 103.397 211.831C102.715 212.512 102.33 213.436 102.328 214.4Z" stroke="#B2B2B2" stroke-miterlimit="10"/>
<path d="M105.968 218.032V231.8" stroke="#B2B2B2" stroke-miterlimit="10"/>
<path d="M109.6 214.4H118.152" stroke="#B2B2B2" stroke-miterlimit="10"/>
<path d="M349.6 382.336H9.62402" stroke="#263238" stroke-linecap="round" stroke-linejoin="round"/>
<path d="M166.12 279.2C166.12 279.2 163.984 293.84 166.12 296.592C168.256 299.344 173.136 301.472 180.152 303.608C187.168 305.744 191.744 301.16 198.448 308.792C205.152 316.424 210.656 335.936 214.312 342.04C217.968 348.144 222.248 357.6 223.2 364.648C224.152 371.696 221.064 375.624 214.96 376.544C208.856 377.464 198.16 362.512 196.968 360.376C195.776 358.24 189.912 351.2 189.912 351.2C189.912 351.2 186.552 375.912 186.552 377.128C186.552 378.344 186.856 382.312 186.856 382.312H99.0081C99.0081 382.312 105.72 345.712 107.544 332.896C109.368 320.08 108.464 311.544 115.784 306.968C123.104 302.392 129.816 303.616 134.696 302.088C139.576 300.56 142.624 299.344 142.936 296.6C143.248 293.856 143.24 281.04 143.24 281.04L166.12 279.2Z" fill="#2B786C" stroke="#263238" stroke-linecap="round" stroke-linejoin="round"/>
<path d="M102.176 367.904L62 378.48L65.176 382.352H110.992" fill="#2B786C"/>
<path d="M102.176 367.904L62 378.48L65.176 382.352H110.992" stroke="#263238" stroke-linecap="round" stroke-linejoin="round"/>
<path d="M56.8799 374.44C55.1189 373.346 53.146 372.638 51.0914 372.362C49.0368 372.087 46.9471 372.249 44.96 372.84C38.456 374.736 35.2 380.432 35.2 382.328H62.576C62.2375 380.685 61.5549 379.133 60.5731 377.774C59.5913 376.414 58.3326 375.278 56.8799 374.44Z" fill="#808080" stroke="#263238" stroke-linecap="round" stroke-linejoin="round"/>
<path d="M40.08 367.936C40.08 367.936 36.552 373.088 36.552 374.984C36.552 376.88 34.656 378.776 37.352 379.592C40.048 380.408 41.688 370.92 41.688 369.84C41.688 368.76 40.08 367.936 40.08 367.936Z" fill="white" stroke="#263238" stroke-linecap="round" stroke-linejoin="round"/>
<path d="M44.9601 367.672C44.9601 367.672 41.1601 366.872 40.0801 367.936C39.0001 369 37.0961 378.512 37.3681 379.592C37.6401 380.672 40.3521 380.944 41.1601 379.864C41.9681 378.784 44.9601 367.672 44.9601 367.672Z" fill="white" stroke="#263238" stroke-linecap="round" stroke-linejoin="round"/>
<path d="M72.6081 375.84L66.2081 375.112C65.8463 374.678 65.4503 374.274 65.0241 373.904C63.8164 373.153 62.5416 372.515 61.2161 372C61.2161 372 49.8321 367.928 47.3921 366.304C44.9521 364.68 43.6001 367.904 42.7921 369.832C41.9841 371.76 40.0801 378.504 40.0801 380.4C40.0801 382.296 43.0561 383.104 43.6001 380.936C44.1441 378.768 48.4801 371.728 48.4801 371.728L54.1681 373.896C54.1681 373.896 54.7121 374.696 52.2721 376.336C49.8321 377.976 46.3121 381.48 47.3921 382.024C48.4721 382.568 51.7281 382.296 52.8161 381.224C53.9041 380.152 59.5921 378.824 59.5921 378.824C59.5921 378.824 64.7441 382.08 65.8241 382.352C66.5232 382.454 67.2297 382.497 67.9361 382.48H74.5441C74.8273 381.3 74.7976 380.067 74.4581 378.903C74.1185 377.738 73.4808 376.682 72.6081 375.84Z" fill="white" stroke="#263238" stroke-linecap="round" stroke-linejoin="round"/>
<path d="M52.968 375.84C52.968 375.84 55.368 373.104 57.312 372.776" stroke="#263238" stroke-linecap="round" stroke-linejoin="round"/>
<path d="M210.4 353.688C213.297 354.628 216.136 355.737 218.904 357.008C222.848 358.872 224.304 363.408 223.704 369.048C223.104 374.688 219.136 379.016 213.304 377.352C207.472 375.688 204.376 370.952 204.168 367.176C203.96 363.4 202.272 354.928 210.4 353.688Z" fill="white" stroke="#263238" stroke-linecap="round" stroke-linejoin="round"/>
<path d="M148.728 321.328C135 320.84 126.096 312.384 120.776 304.64C126.128 302.848 130.952 303.28 134.696 302.112C139.576 300.584 142.624 299.368 142.936 296.624C143.248 293.88 143.24 281.064 143.24 281.064L166.12 279.232C166.12 279.232 163.984 293.872 166.12 296.624C168.256 299.376 173.136 301.504 180.152 303.64C183.224 304.568 185.824 304.216 188.352 304.168C184.232 308.664 170.088 322.088 148.728 321.328Z" fill="white" stroke="#263238" stroke-linecap="round" stroke-linejoin="round"/>
<path d="M143.2 290.232C144.922 291.896 146.827 293.359 148.88 294.592C152.544 296.656 158.816 294.824 160.648 292.536C161.544 291.416 163.392 289.208 165.368 286.552C165.648 282.688 166.168 279.232 166.168 279.232L143.288 281.064C143.288 281.064 143.24 285.872 143.2 290.232Z" fill="#263238" stroke="#263238" stroke-linecap="round" stroke-linejoin="round"/>
<path d="M213.072 326.904C213.072 326.904 200.616 343.304 199.368 350.16C198.12 357.016 194.176 373.6 194.176 373.6C194.176 373.6 182.136 378.792 174.456 379C166.776 379.208 153.488 377.96 153.488 377.96C153.488 377.96 162 356 165.32 344.968C168.64 333.936 169.472 327.736 169.472 327.736C169.472 327.736 188.368 330.224 199.16 327.736L215.352 324L213.072 326.904Z" fill="white" stroke="#263238" stroke-linecap="round" stroke-linejoin="round"/>
<path d="M212.48 361.288C212.48 361.288 210.96 342.088 209.128 341.464C207.296 340.84 196.328 339.328 193.264 339.936C190.2 340.544 189.264 341.768 191.744 342.376C194.224 342.984 198.448 343.6 200.28 343.904C202.349 344.396 204.387 345.008 206.384 345.736C206.384 345.736 199.672 346.648 196.928 346.648C194.184 346.648 187.776 349.392 187.472 350.648C187.292 351.372 187.401 352.139 187.776 352.784C187.615 353.413 187.631 354.075 187.824 354.696C188.128 355.92 195.4 355.312 197.232 355.616C199.064 355.92 202.72 356.8 202.72 356.8C202.72 356.8 192.048 356.192 192.048 358.328C192.048 360.464 196.616 360.152 198.448 360.152C200.666 360.397 202.776 361.24 204.552 362.592C205.464 363.512 205.16 368.296 207.904 369.216C209.081 369.678 210.312 369.984 211.568 370.128" fill="white"/>
<path d="M212.48 361.288C212.48 361.288 210.96 342.088 209.128 341.464C207.296 340.84 196.328 339.328 193.264 339.936C190.2 340.544 189.264 341.768 191.744 342.376C194.224 342.984 198.448 343.6 200.28 343.904C202.349 344.396 204.387 345.008 206.384 345.736C206.384 345.736 199.672 346.648 196.928 346.648C194.184 346.648 187.776 349.392 187.472 350.648C187.292 351.372 187.401 352.139 187.776 352.784C187.615 353.413 187.631 354.075 187.824 354.696C188.128 355.92 195.4 355.312 197.232 355.616C199.064 355.92 202.72 356.8 202.72 356.8C202.72 356.8 192.048 356.192 192.048 358.328C192.048 360.464 196.616 360.152 198.448 360.152C200.666 360.397 202.776 361.24 204.552 362.592C205.464 363.512 205.16 368.296 207.904 369.216C209.081 369.678 210.312 369.984 211.568 370.128" stroke="#263238" stroke-linecap="round" stroke-linejoin="round"/>
<path d="M187.776 352.752C187.776 352.752 199.976 350 206.08 353.056" stroke="#263238" stroke-linecap="round" stroke-linejoin="round"/>
<path d="M121.6 336.28C121.6 336.28 116.72 353.36 117.64 359.48C118.56 365.6 121.296 372.592 121.6 373.512C121.904 374.432 120.528 381.664 120.528 381.664" stroke="#263238" stroke-linecap="round" stroke-linejoin="round"/>
<path d="M111.544 241.712C114.288 238.968 111.544 237.44 111.848 234.392C112.152 231.344 115.2 229.816 116.728 229.208C118.256 228.6 117.64 227.072 117.952 223.712C118.264 220.352 121.912 219.136 124.352 218.224C126.792 217.312 125.272 215.824 126.488 213.344C127.704 210.864 134.424 211.512 134.424 211.512C134.424 211.512 135.944 208.768 137.776 208.768C139.608 208.768 140.824 211.208 143.264 209.072C145.704 206.936 147.84 206.024 151.2 207.24C152.285 207.672 153.4 208.025 154.536 208.296C155.675 208.026 156.793 207.673 157.88 207.24C161.232 206.024 163.368 206.936 165.808 209.072C168.248 211.208 169.472 208.768 171.304 208.768C173.136 208.768 174.656 211.512 174.656 211.512C174.656 211.512 181.368 210.904 182.592 213.344C183.816 215.784 182.28 217.304 184.72 218.224C187.16 219.144 190.824 220.36 191.12 223.712C191.416 227.064 190.816 228.592 192.344 229.208C193.872 229.824 196.92 231.336 197.224 234.392C197.528 237.448 194.824 238.968 197.528 241.712C200.232 244.456 203.016 246.592 200.576 248.424C198.136 250.256 195.696 250.864 196 253.608C196.304 256.352 199.36 259.712 196.92 261.232C194.48 262.752 192.04 262.76 192.04 265.504C192.04 268.248 192.952 272.216 190.208 272.824C187.464 273.432 183.496 272.824 183.496 274.656C183.496 276.488 183.192 279.84 178.92 279.232C174.648 278.624 173.128 277.4 172.208 279.84C171.288 282.28 169.16 283.84 166.72 283.504C164.28 283.168 160.92 282.896 158.784 284.72C157.731 285.54 156.476 286.059 155.152 286.224V286.328C154.944 286.328 154.736 286.328 154.528 286.328C154.32 286.328 154.112 286.328 153.904 286.328V286.224C152.581 286.056 151.326 285.537 150.272 284.72C148.136 282.896 144.784 283.2 142.344 283.504C139.904 283.808 137.768 282.28 136.856 279.84C135.944 277.4 134.416 278.624 130.144 279.232C125.872 279.84 125.568 276.488 125.568 274.656C125.568 272.824 121.568 273.44 118.856 272.824C116.144 272.208 117.024 268.248 117.024 265.504C117.024 262.76 114.624 262.76 112.144 261.232C109.664 259.704 112.752 256.352 113.056 253.608C113.36 250.864 110.92 250.256 108.48 248.424C106.04 246.592 108.8 244.456 111.544 241.712Z" fill="#263238" stroke="#263238" stroke-linecap="round" stroke-linejoin="round"/>
<path d="M136 258.568C136 258.568 132.528 253.36 130.44 255.792C128.352 258.224 129.056 264.472 131.832 267.6C134.608 270.728 137.728 269.68 137.728 269.68" fill="white"/>
<path d="M136 258.568C136 258.568 132.528 253.36 130.44 255.792C128.352 258.224 129.056 264.472 131.832 267.6C134.608 270.728 137.728 269.68 137.728 269.68" stroke="#263238" stroke-linecap="round" stroke-linejoin="round"/>
<path d="M173.128 258.304C173.128 258.304 177.184 253.504 178.968 256.192C180.752 258.88 179.328 264.992 176.208 267.752C173.088 270.512 170.104 269.136 170.104 269.136" fill="white"/>
<path d="M173.128 258.304C173.128 258.304 177.184 253.504 178.968 256.192C180.752 258.88 179.328 264.992 176.208 267.752C173.088 270.512 170.104 269.136 170.104 269.136" stroke="#263238" stroke-linecap="round" stroke-linejoin="round"/>
<path d="M171.68 245.984C171.068 246.54 170.339 246.951 169.547 247.188C168.755 247.424 167.92 247.481 167.104 247.352C165.592 247.132 164.125 246.671 162.76 245.984C162.76 245.984 160.016 247.816 157.96 247.128C155.904 246.44 153.608 245.752 153.608 245.752C152.104 246.675 150.309 247.003 148.576 246.672C145.376 246.208 144.456 245.528 144.456 245.528C144.456 245.528 142.624 247.128 140.8 247.128C139.652 247.124 138.506 247.047 137.368 246.896C136.867 247.145 136.325 247.299 135.768 247.352H134.168C134.168 247.352 133.488 261.08 135.768 270.92C138.048 280.76 146.968 288.08 150.64 290.12C154.312 292.16 160.584 290.352 162.416 288.064C164.248 285.776 170.088 278.912 172.816 272.96C175.544 267.008 176.48 249.624 176.48 248.48C176.48 247.336 172.8 248.728 171.68 245.984Z" fill="white" stroke="#263238" stroke-linecap="round" stroke-linejoin="round"/>
<path d="M158.768 253.992C158.457 254.125 158.193 254.348 158.011 254.634C157.83 254.92 157.74 255.254 157.752 255.592C157.832 258.184 158.216 264.344 160.016 265.424C162.304 266.792 172.984 267.824 175.576 266.104C176.944 265.192 179.92 257.184 178.776 254.904C177.632 252.624 167.92 250.232 158.768 253.992Z" stroke="#263238" stroke-linecap="round" stroke-linejoin="round"/>
<path d="M151.704 253.992C152.015 254.125 152.279 254.348 152.461 254.634C152.642 254.92 152.733 255.254 152.72 255.592C152.64 258.184 152.256 264.344 150.456 265.424C148.168 266.792 137.488 267.824 134.896 266.104C133.528 265.192 130.552 257.184 131.696 254.904C132.84 252.624 142.552 250.232 151.704 253.992Z" stroke="#263238" stroke-linecap="round" stroke-linejoin="round"/>
<path d="M158.768 253.992C158.768 253.992 154.528 253.072 151.776 254.448" stroke="#263238" stroke-linecap="round" stroke-linejoin="round"/>
<path d="M157.272 256.736H152.92" stroke="#263238" stroke-linecap="round" stroke-linejoin="round"/>
<path d="M164.136 262.688C164.896 262.688 165.512 261.56 165.512 260.168C165.512 258.776 164.896 257.648 164.136 257.648C163.376 257.648 162.76 258.776 162.76 260.168C162.76 261.56 163.376 262.688 164.136 262.688Z" fill="#263238"/>
<path d="M148.576 262.688C149.336 262.688 149.952 261.56 149.952 260.168C149.952 258.776 149.336 257.648 148.576 257.648C147.816 257.648 147.2 258.776 147.2 260.168C147.2 261.56 147.816 262.688 148.576 262.688Z" fill="#263238"/>
<path d="M156.8 261.768C156.8 261.768 156.568 264.968 157.712 266.112C158.856 267.256 160.224 268.176 158.624 269.312C157.024 270.448 155.656 271.368 153.368 269.312" stroke="#263238" stroke-linecap="round" stroke-linejoin="round"/>
<path d="M160.928 274.12C160.928 274.12 155.208 276.872 150.176 273.208" stroke="#263238" stroke-linecap="round" stroke-linejoin="round"/>
<path d="M168.48 255.136C167.575 254.46 166.515 254.021 165.397 253.86C164.279 253.699 163.139 253.822 162.08 254.216" stroke="#263238" stroke-linecap="round" stroke-linejoin="round"/>
<path d="M149.72 254.904C149.72 254.904 144.456 252.16 141.48 256.504" stroke="#263238" stroke-linecap="round" stroke-linejoin="round"/>
<path d="M168.712 298.6L150.864 342.528L140.336 300.432" stroke="#263238" stroke-linecap="round" stroke-linejoin="round"/>
<path d="M148.576 344.592C148.576 345.09 148.724 345.578 149.001 345.992C149.278 346.406 149.671 346.729 150.132 346.92C150.592 347.111 151.099 347.161 151.588 347.064C152.076 346.966 152.525 346.726 152.878 346.374C153.23 346.021 153.47 345.572 153.568 345.084C153.665 344.595 153.615 344.088 153.424 343.628C153.233 343.167 152.91 342.774 152.496 342.497C152.082 342.22 151.594 342.072 151.096 342.072C150.428 342.072 149.787 342.338 149.314 342.81C148.841 343.283 148.576 343.924 148.576 344.592Z" fill="#263238" stroke="#263238" stroke-linecap="round" stroke-linejoin="round"/>
<path d="M94.232 382.344H163.176V380.208H94.232V382.344Z" fill="#808080" stroke="#263238" stroke-linecap="round" stroke-linejoin="round"/>
<path d="M43.9041 335.36H113.144L127.176 382.336H57.9361L43.9041 335.36Z" fill="#808080" stroke="#263238" stroke-linecap="round" stroke-linejoin="round"/>
</svg>
